<?xml version="1.0" encoding="utf-8"?>
<!-- Generator: Adobe Illustrator 17.0.0, SVG Export Plug-In . SVG Version: 6.00 Build 0)  -->
<!DOCTYPE svg PUBLIC "-//W3C//DTD SVG 1.1//EN" "http://www.w3.org/Graphics/SVG/1.1/DTD/svg11.dtd">
<svg version="1.1" id="Layer_1" xmlns="http://www.w3.org/2000/svg" xmlns:xlink="http://www.w3.org/1999/xlink" x="0px" y="0px"
	 width="100px" height="100px" viewBox="0 0 100 100" enable-background="new 0 0 100 100" xml:space="preserve">
<g>
	<path d="M55.209,52.326c1.573,1.021,3.339,1.768,5.237,2.155c0.952-1.376,1.756-2.862,2.391-4.433
		c-0.196-0.01-0.389-0.03-0.587-0.03C59.617,50.018,57.188,50.881,55.209,52.326z"/>
	<path d="M48.212,39.5c0,4.627,2.074,8.771,5.332,11.577c2.391-1.91,5.415-3.06,8.706-3.06c0.432,0,0.858,0.026,1.28,0.065
		c0.628-2.086,0.97-4.295,0.97-6.582c0-6.308-2.567-12.028-6.711-16.171C52.182,27.597,48.212,33.09,48.212,39.5z M57.318,27.749
		C60.669,31.56,62.5,36.393,62.5,41.5c0,1.522-0.167,3.037-0.496,4.52c-2.965,0.044-5.788,0.89-8.269,2.466
		c-2.255-2.446-3.523-5.645-3.523-8.986C50.212,34.516,52.961,30.036,57.318,27.749z"/>
	<path d="M65.514,48.418c2.541,0.611,4.82,1.904,6.611,3.693c4.019-2.757,6.663-7.38,6.663-12.611
		c0-8.43-6.858-15.288-15.288-15.288c-1.239,0-2.437,0.164-3.592,0.444C63.997,29.09,66.5,35.007,66.5,41.5
		C66.5,43.901,66.151,46.22,65.514,48.418z M63.716,26.214c7.229,0.115,13.072,6.031,13.072,13.286
		c0,3.858-1.685,7.501-4.572,10.016c-1.296-1.033-2.747-1.859-4.303-2.447c0.39-1.833,0.587-3.698,0.587-5.568
		C68.5,35.996,66.821,30.686,63.716,26.214z"/>
	<path d="M82.788,39.5c0-10.635-8.652-19.288-19.288-19.288c-1.602,0-3.193,0.2-4.746,0.596c-4.817-3.995-10.856-6.183-17.129-6.183
		c-14.819,0-26.875,12.056-26.875,26.875c0,10.244,5.806,19.529,14.917,24.063c-0.028,0.356-0.042,0.709-0.042,1.062
		c0,7.995,6.505,14.5,14.5,14.5c4.181,0,8.118-1.801,10.855-4.896c2.243,1.151,4.724,1.753,7.27,1.753
		c8.812,0,15.982-7.17,15.982-15.982c0-2.81-0.729-5.517-2.124-7.931C80.322,50.42,82.788,45.104,82.788,39.5z M76.232,62
		c0,7.71-6.272,13.982-13.982,13.982c-2.873,0-5.545-0.873-7.769-2.365c-2.249,3.321-6.052,5.508-10.356,5.508
		c-6.893,0-12.5-5.607-12.5-12.5c0-0.772,0.08-1.525,0.215-2.259C22.975,60.558,16.75,51.743,16.75,41.5
		c0-13.716,11.159-24.875,24.875-24.875c6.392,0,12.228,2.425,16.639,6.402c1.653-0.527,3.411-0.816,5.236-0.816
		c9.532,0,17.288,7.755,17.288,17.288c0,5.839-2.917,11.001-7.363,14.132C75.18,55.969,76.232,58.86,76.232,62z"/>
	<path d="M70.316,53.165c-1.511-1.381-3.371-2.382-5.436-2.847c-0.592,1.557-1.337,3.038-2.216,4.428
		c0.278,0.015,0.554,0.042,0.836,0.042C65.951,54.788,68.261,54.194,70.316,53.165z"/>
	<path d="M63.5,56.788c-0.732,0-1.449-0.061-2.157-0.149c-1.584,2.059-3.482,3.864-5.623,5.342c0.578,1.438,0.904,3.003,0.904,4.645
		c0,1.871-0.425,3.642-1.165,5.237c1.932,1.334,4.27,2.12,6.79,2.12c6.607,0,11.982-5.375,11.982-11.982
		c0-2.749-0.94-5.276-2.502-7.3C69.282,56.031,66.478,56.788,63.5,56.788z M62.25,71.982c-1.504,0-2.97-0.337-4.309-0.983
		c0.454-1.416,0.684-2.881,0.684-4.374c0-1.323-0.181-2.629-0.539-3.899c1.516-1.178,2.9-2.513,4.136-3.987
		c0.445,0.033,0.865,0.05,1.278,0.05c2.586,0,5.154-0.524,7.522-1.529c0.796,1.452,1.21,3.065,1.21,4.741
		C72.232,67.504,67.754,71.982,62.25,71.982z"/>
	<path d="M44.125,54.125c2.07,0,4.019,0.514,5.74,1.408c0.594-1.133,1.341-2.169,2.21-3.093c-3.586-3.17-5.863-7.789-5.863-12.94
		c0-6.912,4.088-12.873,9.964-15.637c-3.957-3.27-9.029-5.238-14.551-5.238c-12.613,0-22.875,10.262-22.875,22.875
		c0,9.32,5.606,17.352,13.621,20.912C34.106,57.589,38.712,54.125,44.125,54.125z M31.408,59.692
		C24.875,56.015,20.75,49.073,20.75,41.5c0-11.511,9.364-20.875,20.875-20.875c3.844,0,7.614,1.074,10.872,3.064
		c-5.116,3.574-8.285,9.483-8.285,15.811c0,4.856,1.856,9.525,5.147,13.08c-0.101,0.138-0.2,0.276-0.296,0.417
		c-1.58-0.579-3.234-0.872-4.938-0.872C38.789,52.125,33.921,55.091,31.408,59.692z"/>
	<path d="M59.128,56.206c-1.989-0.521-3.842-1.377-5.485-2.523c-0.831,0.86-1.531,1.844-2.077,2.921
		c1.3,0.968,2.403,2.179,3.246,3.57C56.414,59.039,57.866,57.706,59.128,56.206z M55.221,57.319
		c-0.218-0.26-0.445-0.512-0.681-0.755c0.325,0.17,0.656,0.331,0.991,0.483C55.429,57.139,55.325,57.229,55.221,57.319z"/>
	<path d="M44.125,56.125c-4.567,0-8.452,2.936-9.894,7.017c2.321,0.795,4.806,1.233,7.394,1.233c2.335,0,4.588-0.353,6.712-1.007
		c-0.044-0.451-0.069-0.907-0.069-1.368c0-1.625,0.293-3.18,0.805-4.632C47.597,56.577,45.913,56.125,44.125,56.125z M46.268,61.853
		c-1.519,0.348-3.075,0.522-4.643,0.522c-1.53,0-3.048-0.168-4.534-0.5c1.557-2.304,4.178-3.75,7.034-3.75
		c0.874,0,1.722,0.13,2.538,0.387C46.411,59.615,46.279,60.733,46.268,61.853z"/>
	<path d="M50.585,64.699c0.522,2.256,1.676,4.272,3.275,5.842c0.489-1.211,0.765-2.531,0.765-3.916c0-1.25-0.231-2.444-0.633-3.556
		C52.905,63.695,51.767,64.241,50.585,64.699z"/>
	<path d="M48.689,65.347c-2.241,0.665-4.611,1.028-7.064,1.028c-2.752,0-5.398-0.456-7.875-1.285
		c-0.074,0.502-0.125,1.012-0.125,1.535c0,5.79,4.71,10.5,10.5,10.5c3.669,0,6.901-1.895,8.779-4.755
		C50.862,70.528,49.369,68.1,48.689,65.347z M44.125,75.125c-4.32,0-7.897-3.238-8.431-7.415c1.945,0.441,3.931,0.665,5.931,0.665
		c1.927,0,3.847-0.208,5.73-0.621c0.673,1.743,1.647,3.351,2.886,4.761C48.651,74.171,46.458,75.125,44.125,75.125z"/>
	<path d="M50.301,62.661c0.98-0.403,1.925-0.874,2.832-1.404c-0.623-1.042-1.412-1.973-2.345-2.741
		c-0.336,1.103-0.52,2.272-0.52,3.484C50.268,62.223,50.289,62.441,50.301,62.661z"/>
</g>
</svg>
