<?xml version="1.0" encoding="utf-8"?>
<!-- Generator: Adobe Illustrator 17.0.0, SVG Export Plug-In . SVG Version: 6.00 Build 0)  -->
<!DOCTYPE svg PUBLIC "-//W3C//DTD SVG 1.1//EN" "http://www.w3.org/Graphics/SVG/1.1/DTD/svg11.dtd">
<svg version="1.1" id="Layer_1" xmlns="http://www.w3.org/2000/svg" xmlns:xlink="http://www.w3.org/1999/xlink" x="0px" y="0px"
	 width="100px" height="100px" viewBox="0 0 100 100" enable-background="new 0 0 100 100" xml:space="preserve">
<path d="M30.734,70.258c-0.165,0.169-0.332,0.338-0.502,0.504c-0.078,0.076-0.16,0.15-0.239,0.225C24.266,65.524,21,57.927,21,50
	s3.266-15.523,8.993-20.986c0.079,0.076,0.161,0.149,0.239,0.225c0.17,0.166,0.337,0.335,0.502,0.504
	c0.186,0.19,0.37,0.383,0.55,0.578c0.16,0.174,0.318,0.35,0.474,0.527c0.101,0.115,0.199,0.232,0.298,0.348l-2.894,2.894
	l1.414,1.414l2.732-2.732c0.104,0.14,0.208,0.28,0.309,0.423c0.154,0.216,0.304,0.435,0.452,0.656
	c0.129,0.193,0.258,0.387,0.383,0.583c0.143,0.224,0.281,0.451,0.417,0.679c0.119,0.198,0.237,0.396,0.35,0.597
	c0.132,0.232,0.258,0.467,0.383,0.703c0.108,0.203,0.215,0.405,0.318,0.61c0.12,0.24,0.234,0.482,0.347,0.725
	c0.096,0.206,0.193,0.412,0.285,0.62c0.108,0.247,0.21,0.498,0.312,0.748c0.009,0.022,0.018,0.044,0.027,0.066l-2.929,1.282
	l0.802,1.832l2.814-1.232c0.009,0.028,0.02,0.056,0.029,0.084c0.085,0.263,0.161,0.53,0.238,0.796
	c0.061,0.211,0.126,0.421,0.182,0.634c0.072,0.272,0.135,0.546,0.199,0.82c0.049,0.21,0.103,0.42,0.147,0.631
	c0.06,0.282,0.109,0.567,0.16,0.851c0.037,0.206,0.079,0.412,0.112,0.619c0.047,0.299,0.083,0.601,0.121,0.902
	c0.025,0.195,0.055,0.389,0.075,0.585c0.035,0.336,0.058,0.675,0.081,1.013c0.011,0.163,0.029,0.324,0.038,0.487
	c0.009,0.17,0.008,0.342,0.014,0.512h-2.807v2h2.807c-0.006,0.171-0.005,0.342-0.014,0.512c-0.009,0.163-0.026,0.325-0.038,0.487
	c-0.023,0.338-0.046,0.677-0.081,1.013c-0.021,0.196-0.051,0.39-0.075,0.585c-0.038,0.301-0.073,0.602-0.12,0.902
	c-0.033,0.208-0.075,0.414-0.112,0.621c-0.051,0.284-0.1,0.568-0.16,0.85c-0.045,0.212-0.098,0.422-0.148,0.632
	c-0.064,0.274-0.127,0.548-0.199,0.82c-0.056,0.213-0.121,0.423-0.182,0.634c-0.077,0.266-0.153,0.532-0.238,0.795
	c-0.005,0.016-0.011,0.031-0.016,0.046l-2.815-1.227l-0.799,1.834l2.928,1.276c-0.014,0.034-0.027,0.068-0.041,0.103
	c-0.102,0.251-0.203,0.501-0.312,0.749c-0.091,0.208-0.188,0.413-0.284,0.619c-0.114,0.243-0.228,0.487-0.348,0.727
	c-0.103,0.205-0.21,0.407-0.318,0.609c-0.125,0.236-0.251,0.471-0.383,0.704c-0.113,0.2-0.231,0.398-0.349,0.595
	c-0.137,0.229-0.275,0.456-0.419,0.681c-0.124,0.195-0.252,0.388-0.381,0.581c-0.148,0.221-0.298,0.44-0.453,0.657
	c-0.101,0.142-0.205,0.282-0.309,0.422l-2.732-2.732l-1.414,1.414l2.894,2.894c-0.099,0.117-0.198,0.234-0.299,0.349
	c-0.156,0.177-0.313,0.352-0.473,0.526C31.104,69.875,30.92,70.067,30.734,70.258z"/>
<path d="M50,79c-6.778,0-13.305-2.361-18.501-6.673c0.061-0.059,0.117-0.121,0.178-0.18c0.186-0.182,0.366-0.368,0.547-0.554
	c0.193-0.199,0.386-0.398,0.573-0.602c0.174-0.189,0.343-0.382,0.513-0.575c0.056-0.064,0.11-0.13,0.166-0.194l1.816,1.816
	l1.414-1.414l-1.967-1.967c0.033-0.043,0.067-0.086,0.1-0.13c0.152-0.204,0.3-0.409,0.447-0.617c0.16-0.227,0.318-0.455,0.472-0.685
	c0.14-0.21,0.278-0.421,0.413-0.634c0.15-0.236,0.295-0.474,0.438-0.714c0.128-0.214,0.254-0.429,0.376-0.646
	c0.138-0.245,0.272-0.492,0.403-0.741c0.116-0.219,0.231-0.438,0.341-0.659c0.126-0.253,0.247-0.508,0.366-0.764
	c0.104-0.223,0.207-0.446,0.306-0.671c0.114-0.26,0.221-0.524,0.328-0.787c0.004-0.01,0.008-0.02,0.012-0.029l3.183,1.387
	l0.799-1.834l-3.292-1.434c0.03-0.089,0.062-0.177,0.091-0.267c0.088-0.276,0.168-0.555,0.249-0.834
	c0.067-0.23,0.136-0.459,0.197-0.69c0.075-0.285,0.141-0.573,0.209-0.86c0.054-0.229,0.111-0.457,0.159-0.687
	c0.062-0.297,0.114-0.596,0.168-0.894c0.04-0.224,0.085-0.448,0.121-0.673c0.05-0.315,0.087-0.633,0.127-0.95
	c0.027-0.212,0.059-0.422,0.081-0.635c0.037-0.352,0.06-0.707,0.085-1.061c0.013-0.18,0.032-0.359,0.041-0.539
	c0.011-0.203,0.01-0.407,0.016-0.61h3.86v-2h-3.86c-0.007-0.203-0.006-0.407-0.016-0.61c-0.009-0.18-0.029-0.359-0.041-0.539
	c-0.025-0.354-0.048-0.709-0.085-1.061c-0.022-0.212-0.055-0.422-0.081-0.634c-0.04-0.317-0.077-0.635-0.127-0.95
	c-0.035-0.226-0.081-0.449-0.121-0.674c-0.054-0.299-0.105-0.597-0.168-0.894c-0.048-0.23-0.106-0.458-0.159-0.688
	c-0.067-0.287-0.133-0.574-0.208-0.859c-0.061-0.232-0.13-0.461-0.197-0.69c-0.081-0.279-0.161-0.557-0.249-0.833
	c-0.033-0.104-0.07-0.206-0.105-0.309l3.288-1.439l-0.802-1.832l-3.179,1.391c-0.105-0.26-0.211-0.519-0.323-0.776
	c-0.099-0.226-0.202-0.449-0.306-0.672c-0.119-0.256-0.24-0.511-0.366-0.763c-0.111-0.221-0.225-0.441-0.341-0.66
	c-0.132-0.248-0.265-0.496-0.403-0.74c-0.122-0.217-0.249-0.432-0.376-0.646c-0.143-0.24-0.289-0.478-0.438-0.713
	c-0.135-0.213-0.272-0.423-0.412-0.633c-0.155-0.231-0.312-0.46-0.473-0.687c-0.146-0.207-0.295-0.412-0.446-0.615
	c-0.033-0.044-0.067-0.087-0.1-0.13l1.967-1.967l-1.414-1.414l-1.816,1.816c-0.056-0.064-0.11-0.129-0.166-0.193
	c-0.169-0.193-0.338-0.386-0.513-0.575c-0.187-0.204-0.38-0.403-0.573-0.602c-0.181-0.186-0.361-0.372-0.547-0.554
	c-0.06-0.059-0.117-0.121-0.178-0.18C36.696,23.362,43.223,21,50,21s13.304,2.362,18.501,6.674c-0.061,0.059-0.117,0.121-0.178,0.18
	c-0.186,0.182-0.366,0.368-0.547,0.554c-0.193,0.199-0.386,0.398-0.573,0.602c-0.174,0.189-0.343,0.382-0.513,0.575
	c-0.017,0.019-0.033,0.039-0.05,0.058l-1.681-1.681l-1.414,1.414l1.826,1.826c-0.07,0.091-0.141,0.181-0.21,0.273
	c-0.151,0.203-0.299,0.407-0.444,0.613c-0.161,0.228-0.319,0.457-0.474,0.689c-0.14,0.209-0.277,0.42-0.412,0.632
	c-0.149,0.236-0.295,0.474-0.438,0.713c-0.128,0.214-0.254,0.429-0.376,0.646c-0.138,0.245-0.272,0.492-0.403,0.74
	c-0.116,0.219-0.231,0.438-0.341,0.66c-0.126,0.253-0.246,0.507-0.366,0.763c-0.104,0.223-0.208,0.446-0.306,0.672
	c-0.105,0.239-0.203,0.481-0.301,0.723l-2.97-1.294l-0.799,1.834l3.073,1.339c-0.042,0.121-0.085,0.241-0.124,0.363
	c-0.088,0.276-0.168,0.555-0.249,0.833c-0.067,0.23-0.136,0.459-0.197,0.69c-0.076,0.286-0.142,0.575-0.209,0.863
	c-0.053,0.227-0.11,0.454-0.158,0.683c-0.063,0.298-0.115,0.598-0.169,0.898c-0.04,0.224-0.085,0.446-0.12,0.671
	c-0.05,0.315-0.087,0.633-0.127,0.95c-0.026,0.211-0.059,0.422-0.081,0.634c-0.037,0.352-0.06,0.707-0.085,1.061
	c-0.013,0.18-0.032,0.359-0.041,0.539c-0.011,0.203-0.01,0.407-0.016,0.61h-3.609v2h3.609c0.007,0.203,0.006,0.407,0.016,0.61
	c0.009,0.18,0.029,0.359,0.041,0.539c0.025,0.354,0.048,0.709,0.085,1.061c0.022,0.212,0.055,0.423,0.081,0.635
	c0.04,0.317,0.077,0.635,0.127,0.95c0.035,0.225,0.08,0.447,0.12,0.671c0.054,0.3,0.106,0.6,0.169,0.898
	c0.048,0.229,0.105,0.455,0.158,0.682c0.068,0.289,0.134,0.578,0.21,0.864c0.061,0.231,0.13,0.46,0.197,0.69
	c0.081,0.279,0.161,0.557,0.249,0.834c0.043,0.136,0.091,0.27,0.137,0.404l-3.069,1.343l0.803,1.832l2.965-1.298
	c0.093,0.229,0.186,0.457,0.285,0.683c0.099,0.225,0.202,0.448,0.306,0.671c0.119,0.256,0.24,0.511,0.366,0.764
	c0.111,0.222,0.225,0.441,0.341,0.659c0.132,0.248,0.265,0.496,0.403,0.741c0.122,0.217,0.248,0.432,0.376,0.646
	c0.143,0.24,0.289,0.478,0.438,0.714c0.135,0.213,0.272,0.424,0.412,0.633c0.155,0.231,0.312,0.46,0.473,0.687
	c0.146,0.206,0.294,0.411,0.445,0.614c0.068,0.092,0.14,0.182,0.209,0.272l-1.825,1.825l1.414,1.414l1.681-1.681
	c0.017,0.019,0.033,0.039,0.05,0.059c0.169,0.193,0.338,0.386,0.513,0.575c0.187,0.204,0.38,0.403,0.573,0.602
	c0.181,0.186,0.361,0.372,0.547,0.554c0.06,0.059,0.117,0.121,0.178,0.18C63.305,76.639,56.778,79,50,79z"/>
<path d="M70.007,70.987c-0.079-0.076-0.161-0.149-0.239-0.225c-0.17-0.166-0.337-0.334-0.502-0.504
	c-0.186-0.191-0.37-0.383-0.551-0.579c-0.16-0.173-0.318-0.349-0.473-0.526c-0.062-0.071-0.122-0.143-0.183-0.214l3.03-3.029
	l-1.414-1.414l-2.878,2.877c-0.001-0.001-0.001-0.002-0.002-0.003c-0.14-0.187-0.278-0.374-0.413-0.564
	c-0.154-0.217-0.305-0.436-0.453-0.657c-0.129-0.192-0.257-0.385-0.381-0.581c-0.143-0.225-0.282-0.453-0.419-0.681
	c-0.118-0.197-0.236-0.395-0.349-0.595c-0.132-0.232-0.258-0.468-0.383-0.704c-0.107-0.202-0.215-0.405-0.318-0.609
	c-0.12-0.24-0.234-0.483-0.348-0.727c-0.096-0.206-0.193-0.411-0.284-0.619c-0.105-0.238-0.202-0.48-0.3-0.721l3.143-1.375
	l-0.803-1.832l-3.033,1.327c-0.02-0.06-0.042-0.12-0.062-0.18c-0.085-0.263-0.161-0.529-0.238-0.795
	c-0.061-0.211-0.126-0.421-0.182-0.634c-0.072-0.272-0.135-0.546-0.199-0.82c-0.049-0.211-0.103-0.42-0.148-0.632
	c-0.059-0.282-0.108-0.566-0.16-0.85c-0.037-0.207-0.079-0.413-0.112-0.621c-0.047-0.299-0.083-0.601-0.12-0.902
	c-0.025-0.195-0.055-0.389-0.075-0.585c-0.035-0.336-0.058-0.675-0.081-1.013c-0.011-0.163-0.029-0.324-0.038-0.487
	c-0.009-0.17-0.008-0.342-0.014-0.512h3.057v-2h-3.057c0.006-0.171,0.005-0.342,0.014-0.512c0.009-0.163,0.026-0.325,0.038-0.487
	c0.023-0.338,0.046-0.677,0.081-1.013c0.021-0.196,0.051-0.39,0.075-0.585c0.038-0.301,0.073-0.603,0.121-0.902
	c0.033-0.207,0.075-0.413,0.112-0.619c0.051-0.284,0.1-0.569,0.16-0.851c0.045-0.212,0.098-0.421,0.147-0.631
	c0.064-0.274,0.127-0.549,0.199-0.82c0.057-0.213,0.121-0.423,0.182-0.634c0.077-0.266,0.153-0.532,0.238-0.796
	c0.015-0.047,0.033-0.094,0.048-0.141l3.034,1.322l0.799-1.834l-3.142-1.369c0.001-0.003,0.003-0.007,0.004-0.01
	c0.102-0.25,0.203-0.5,0.312-0.748c0.091-0.208,0.188-0.414,0.285-0.62c0.113-0.243,0.227-0.486,0.347-0.725
	c0.103-0.205,0.211-0.408,0.318-0.61c0.125-0.235,0.251-0.47,0.383-0.703c0.114-0.201,0.232-0.399,0.35-0.597
	c0.136-0.228,0.274-0.455,0.417-0.679c0.125-0.196,0.253-0.39,0.383-0.583c0.148-0.22,0.298-0.439,0.452-0.656
	c0.135-0.19,0.273-0.378,0.413-0.565c0.001-0.001,0.001-0.002,0.002-0.003l2.878,2.877l1.414-1.414l-3.03-3.029
	c0.061-0.071,0.121-0.143,0.183-0.213c0.156-0.177,0.314-0.353,0.474-0.527c0.18-0.195,0.364-0.387,0.55-0.578
	c0.166-0.17,0.332-0.338,0.502-0.504c0.078-0.076,0.16-0.15,0.239-0.225C75.734,34.477,79,42.073,79,50S75.734,65.524,70.007,70.987
	z"/>
</svg>
