<?xml version="1.0" encoding="utf-8"?>
<!-- Generator: Adobe Illustrator 17.0.0, SVG Export Plug-In . SVG Version: 6.00 Build 0)  -->
<!DOCTYPE svg PUBLIC "-//W3C//DTD SVG 1.1//EN" "http://www.w3.org/Graphics/SVG/1.1/DTD/svg11.dtd">
<svg version="1.1" id="Layer_1" xmlns="http://www.w3.org/2000/svg" xmlns:xlink="http://www.w3.org/1999/xlink" x="0px" y="0px"
	 width="100px" height="100px" viewBox="0 0 100 100" enable-background="new 0 0 100 100" xml:space="preserve">
<path d="M39.014,49.191c0,2.376,1.933,4.309,4.309,4.309c2.359,0,4.276-1.906,4.304-4.259l-2.618,2.618l-4.243-4.243l2.719-2.719
	c-0.055-0.002-0.106-0.016-0.161-0.016C40.947,44.882,39.014,46.815,39.014,49.191z"/>
<path d="M34.264,49.191c0,4.996,4.064,9.059,9.059,9.059s9.059-4.063,9.059-9.059c0-1.374-0.316-2.672-0.866-3.839l-2.127,2.127
	c0.154,0.545,0.242,1.118,0.242,1.713c0,3.479-2.83,6.309-6.309,6.309c-3.479,0-6.309-2.83-6.309-6.309s2.83-6.309,6.309-6.309
	c0.657,0,1.292,0.102,1.888,0.289l2.101-2.101c-1.206-0.595-2.556-0.938-3.989-0.938C38.328,40.132,34.264,44.196,34.264,49.191z"/>
<path d="M29.764,49.191c0,7.476,6.083,13.559,13.559,13.559s13.559-6.083,13.559-13.559c0-2.625-0.762-5.069-2.058-7.147
	l-1.817,1.817c0.874,1.582,1.375,3.398,1.375,5.33c0,6.098-4.961,11.059-11.059,11.059c-6.098,0-11.059-4.961-11.059-11.059
	s4.961-11.059,11.059-11.059c1.99,0,3.853,0.536,5.468,1.459l1.817-1.817c-2.107-1.349-4.603-2.142-7.285-2.142
	C35.847,35.632,29.764,41.714,29.764,49.191z"/>
<path d="M58.882,49.191c0,8.58-6.979,15.559-15.559,15.559s-15.559-6.979-15.559-15.559c0-8.579,6.98-15.559,15.559-15.559
	c3.236,0,6.243,0.995,8.735,2.692l2.942-2.942c-3.271-2.423-7.303-3.875-11.677-3.875c-10.854,0-19.684,8.83-19.684,19.684
	s8.83,19.684,19.684,19.684c10.854,0,19.684-8.83,19.684-19.684c0-4.318-1.414-8.302-3.78-11.55l-2.95,2.95
	C57.92,43.056,58.882,46.012,58.882,49.191z"/>
<polygon points="64.188,32.354 64.188,30.354 62.271,30.354 62.271,28.437 60.271,28.437 60.271,30.939 59.001,32.21 59.001,31.839 
	57.001,31.839 57.001,34.21 43.594,47.617 45.008,49.031 58.416,35.624 60.785,35.624 60.785,33.624 60.416,33.624 61.686,32.354 
	"/>
</svg>
