<?xml version="1.0" encoding="utf-8"?>
<!-- Generator: Adobe Illustrator 17.0.0, SVG Export Plug-In . SVG Version: 6.00 Build 0)  -->
<!DOCTYPE svg PUBLIC "-//W3C//DTD SVG 1.1//EN" "http://www.w3.org/Graphics/SVG/1.1/DTD/svg11.dtd">
<svg version="1.1" id="Layer_1" xmlns="http://www.w3.org/2000/svg" xmlns:xlink="http://www.w3.org/1999/xlink" x="0px" y="0px"
	 width="100px" height="100px" viewBox="0 0 100 100" enable-background="new 0 0 100 100" xml:space="preserve">
<g>
	<path d="M53.865,87.529c-1.789,0-3.244-1.455-3.244-3.244V59.229c-0.596,0.556-1.382,0.868-2.21,0.868l0,0
		c-0.76,0-1.5-0.27-2.083-0.758c-1.371-1.152-1.55-3.203-0.4-4.572l5.601-6.646c0.032-0.043,0.137-0.143,0.248-0.236
		c0.064-0.056,0.119-0.103,0.177-0.146c0.137-0.097,0.264-0.172,0.395-0.241c0.059-0.035,0.119-0.068,0.185-0.098
		c0.158-0.071,0.317-0.122,0.478-0.166c0.051-0.017,0.103-0.033,0.156-0.045c0.479-0.105,0.917-0.104,1.382-0.004l0.173,0.049
		c0.153,0.041,0.314,0.093,0.468,0.161c0.079,0.037,0.138,0.069,0.195,0.103c0.131,0.069,0.26,0.145,0.382,0.234
		c0.069,0.051,0.124,0.098,0.179,0.146c0.119,0.099,0.229,0.203,0.328,0.314l5.53,6.576c0.558,0.663,0.822,1.504,0.747,2.368
		c-0.075,0.863-0.482,1.646-1.146,2.202c-1.222,1.024-3.148,0.956-4.294-0.108v25.056C57.108,86.074,55.653,87.529,53.865,87.529z
		 M52.621,53.775v30.51c0,0.686,0.559,1.244,1.244,1.244s1.243-0.559,1.243-1.244V53.773l3.255,3.879
		c0.237,0.282,0.586,0.444,0.955,0.444c0.206,0,0.512-0.051,0.8-0.291c0.253-0.213,0.409-0.513,0.438-0.845
		c0.029-0.331-0.073-0.653-0.286-0.908l-5.48-6.517c-0.046-0.052-0.081-0.083-0.116-0.112l0.517-0.873l-0.609,0.792
		c-0.032-0.023-0.079-0.048-0.127-0.074l-0.106-0.06c-0.03-0.013-0.092-0.029-0.153-0.046l-0.112-0.034
		c-0.092-0.018-0.304-0.027-0.479,0.011l-0.073,0.025c-0.05,0.014-0.113,0.03-0.172,0.056c-0.13,0.073-0.181,0.102-0.228,0.135
		c-0.108,0.095-0.146,0.129-0.181,0.167l-0.077,0.079l-5.413,6.45c-0.441,0.525-0.373,1.313,0.153,1.755
		c0.286,0.239,0.592,0.29,0.798,0.29l0,0c0.37,0,0.717-0.162,0.954-0.444L52.621,53.775z"/>
</g>
<g>
	<path d="M43.667,74.833c-5.335,0-10.303-2.08-14.059-5.872c-1.892,0.579-3.831,0.872-5.774,0.872C12.897,69.833,4,60.936,4,50
		c0-10.558,8.425-19.312,18.908-19.799c3.337-6.724,10.24-11.034,17.758-11.034c5.185,0,10.037,1.97,13.756,5.567
		c3.173-2.009,6.813-3.067,10.582-3.067c9.07,0,16.9,6.078,19.175,14.828c5.239,3.724,8.355,9.741,8.355,16.172
		c0,10.936-8.897,19.833-19.833,19.833c-3.573,0-7.087-0.978-10.174-2.83c-0.888-0.111-1.787-0.289-2.679-0.527l-0.741-0.198v-6.78
		l0.874-0.111c0.998-0.127,1.935-0.537,2.706-1.184c1.072-0.9,1.73-2.165,1.853-3.56c0.122-1.396-0.307-2.756-1.207-3.829
		l-5.688-6.752c-0.16-0.158-0.269-0.259-0.364-0.337c-0.127-0.112-0.232-0.198-0.332-0.27c-0.182-0.133-0.37-0.25-0.579-0.362
		c-0.111-0.063-0.202-0.111-0.297-0.157l-0.076-0.035c-0.239-0.107-0.469-0.182-0.673-0.239l-0.351-0.096
		c-0.74-0.161-1.479-0.161-2.229,0.001c-0.1,0.022-0.199,0.05-0.3,0.081c-0.209,0.06-0.449,0.135-0.718,0.254l-0.089,0.042
		c-0.084,0.04-0.175,0.089-0.268,0.143c-0.21,0.114-0.391,0.225-0.549,0.338c-0.129,0.091-0.244,0.185-0.351,0.277
		c-0.104,0.09-0.205,0.183-0.315,0.293l-0.329,0.348l-5.431,6.472c-1.859,2.214-1.568,5.53,0.648,7.393
		c0.769,0.644,1.705,1.053,2.705,1.182l0.872,0.113v12.053L47.83,74.39C46.459,74.684,45.059,74.833,43.667,74.833z"/>
</g>
</svg>
