<?xml version="1.0" encoding="utf-8"?>
<!-- Generator: Adobe Illustrator 17.0.0, SVG Export Plug-In . SVG Version: 6.00 Build 0)  -->
<!DOCTYPE svg PUBLIC "-//W3C//DTD SVG 1.1//EN" "http://www.w3.org/Graphics/SVG/1.1/DTD/svg11.dtd">
<svg version="1.1" id="Layer_1" xmlns="http://www.w3.org/2000/svg" xmlns:xlink="http://www.w3.org/1999/xlink" x="0px" y="0px"
	 width="100px" height="100px" viewBox="0 0 100 100" enable-background="new 0 0 100 100" xml:space="preserve">
<path d="M52.25,18.375c-16.569,0-30,13.431-30,30s13.431,30,30,30s30-13.431,30-30S68.819,18.375,52.25,18.375z M62.31,63.338h-2
	V45.833c0-3.954-3.218-7.172-7.172-7.172c-3.955,0-7.172,3.218-7.172,7.172v1.438h-0.007l-0.059,12.235l5.76-5.759l1.414,1.414
	l-8.178,8.178l-8.038-8.038l1.414-1.414l5.629,5.629l0.063-13.255h0.002v-0.427c0-5.058,4.115-9.172,9.172-9.172
	c5.058,0,9.172,4.114,9.172,9.172V63.338z"/>
</svg>
