<?xml version="1.0" encoding="utf-8"?>
<!-- Generator: Adobe Illustrator 17.0.0, SVG Export Plug-In . SVG Version: 6.00 Build 0)  -->
<!DOCTYPE svg PUBLIC "-//W3C//DTD SVG 1.1//EN" "http://www.w3.org/Graphics/SVG/1.1/DTD/svg11.dtd">
<svg version="1.1" id="Layer_1" xmlns="http://www.w3.org/2000/svg" xmlns:xlink="http://www.w3.org/1999/xlink" x="0px" y="0px"
	 width="100px" height="100px" viewBox="0 0 100 100" enable-background="new 0 0 100 100" xml:space="preserve">
<g>
	<path d="M42.167,43.25c3.907,0,7.494,1.394,10.292,3.709c2.798-2.316,6.385-3.709,10.292-3.709c1.242,0,2.447,0.154,3.609,0.421
		c0.016-0.279,0.042-0.555,0.042-0.837c0-7.812-6.355-14.167-14.167-14.167s-14.167,6.355-14.167,14.167
		c0,0.321,0.027,0.635,0.048,0.951C39.413,43.448,40.766,43.25,42.167,43.25z M52.234,30.667c6.197,0,11.327,4.657,12.073,10.655
		c-0.523-0.047-1.043-0.071-1.558-0.071c-3.677,0-7.275,1.129-10.292,3.205c-3.016-2.076-6.614-3.205-10.292-3.205
		c-0.664,0-1.335,0.04-2.011,0.119C40.881,35.348,46.021,30.667,52.234,30.667z"/>
	<path d="M56.02,56.471c-0.549-2.585-1.811-4.904-3.562-6.76c-1.775,1.882-3.052,4.239-3.589,6.868
		C49.95,56.844,51.073,57,52.234,57C53.547,57,54.813,56.807,56.02,56.471z M52.457,52.954c0.398,0.629,0.737,1.291,1.013,1.979
		C53.056,54.978,52.644,55,52.234,55c-0.266,0-0.534-0.01-0.806-0.029C51.707,54.27,52.051,53.595,52.457,52.954z"/>
	<path d="M38.381,45.779c0.987,4.647,4.26,8.452,8.581,10.192c0.635-2.91,2.059-5.522,4.031-7.617
		c-2.424-1.938-5.489-3.105-8.827-3.105C40.854,45.25,39.588,45.443,38.381,45.779z M45.727,53.101
		c-2.174-1.375-3.854-3.398-4.8-5.783c0.416-0.045,0.829-0.067,1.239-0.067c2.09,0,4.092,0.523,5.885,1.526
		C47.082,50.111,46.3,51.565,45.727,53.101z"/>
	<path d="M68.023,46.279c-1.148,5.264-4.866,9.572-9.771,11.548c0.051,0.524,0.081,1.054,0.081,1.591
		c0,4.28-1.684,8.167-4.409,11.062c2.424,1.938,5.489,3.104,8.826,3.104c7.812,0,14.167-6.354,14.167-14.166
		C76.917,53.47,73.229,48.376,68.023,46.279z M62.75,71.583c-2.089,0-4.091-0.522-5.884-1.525c2.249-3.09,3.467-6.792,3.467-10.641
		c0-0.11-0.001-0.222-0.003-0.334c4.148-2.069,7.333-5.626,8.932-9.935c3.493,2.205,5.655,6.037,5.655,10.269
		C74.917,66.125,69.459,71.583,62.75,71.583z"/>
	<path d="M70.4,42.962c0.001-0.043,0.001-0.086,0.001-0.128c0-10.017-8.149-18.167-18.167-18.167
		c-10.017,0-18.167,8.15-18.167,18.167c0,0.11,0.001,0.221,0.003,0.333C27.908,46.23,24,52.461,24,59.417
		c0,10.017,8.149,18.166,18.167,18.166c3.678,0,7.276-1.129,10.292-3.205c3.016,2.076,6.614,3.205,10.292,3.205
		c10.018,0,18.167-8.149,18.167-18.166C80.917,52.359,76.747,45.923,70.4,42.962z M62.75,75.583c-3.907,0-7.494-1.394-10.292-3.709
		c-2.798,2.315-6.385,3.709-10.292,3.709C33.252,75.583,26,68.331,26,59.417c0-6.786,4.209-12.6,10.148-14.993
		c-0.051-0.524-0.081-1.054-0.081-1.591c0-8.915,7.252-16.167,16.167-16.167s16.167,7.252,16.167,16.167
		c0,0.482-0.031,0.958-0.072,1.429c6.169,2.279,10.588,8.203,10.588,15.154C78.917,68.331,71.664,75.583,62.75,75.583z"/>
	<path d="M56.285,58.466C54.988,58.802,53.635,59,52.234,59c-1.242,0-2.446-0.154-3.608-0.42c-0.016,0.279-0.042,0.555-0.042,0.837
		c0,3.757,1.48,7.167,3.875,9.705c2.395-2.538,3.875-5.948,3.875-9.705C56.333,59.096,56.306,58.782,56.285,58.466z M52.458,65.878
		c-0.95-1.502-1.558-3.188-1.78-4.949C51.201,60.977,51.721,61,52.234,61c0.662,0,1.334-0.04,2.01-0.119
		C54.027,62.66,53.418,64.362,52.458,65.878z"/>
	<path d="M46.656,57.987c-5.066-1.871-8.941-6.199-10.167-11.541C31.498,48.64,28,53.625,28,59.417
		c0,7.812,6.355,14.166,14.167,14.166c3.337,0,6.403-1.167,8.826-3.104c-2.725-2.895-4.409-6.781-4.409-11.062
		C46.583,58.934,46.614,58.459,46.656,57.987z M48.05,70.058c-1.793,1.003-3.794,1.525-5.884,1.525
		C35.458,71.583,30,66.125,30,59.417c0-4.053,2.024-7.789,5.302-10.033c1.686,4.368,4.996,7.916,9.282,9.906
		c0,0.042,0,0.085,0,0.127C44.583,63.265,45.801,66.968,48.05,70.058z"/>
	<path d="M66.115,45.671c-1.081-0.265-2.204-0.421-3.365-0.421c-3.337,0-6.403,1.167-8.826,3.105
		c1.934,2.054,3.336,4.607,3.988,7.449C62.066,53.978,65.186,50.221,66.115,45.671z M62.75,47.25c0.267,0,0.537,0.01,0.81,0.03
		c-0.892,2.261-2.45,4.21-4.464,5.588c-0.563-1.45-1.313-2.827-2.231-4.091C58.658,47.773,60.66,47.25,62.75,47.25z"/>
</g>
</svg>
