<?xml version="1.0" encoding="utf-8"?>
<!-- Generator: Adobe Illustrator 17.0.0, SVG Export Plug-In . SVG Version: 6.00 Build 0)  -->
<!DOCTYPE svg PUBLIC "-//W3C//DTD SVG 1.1//EN" "http://www.w3.org/Graphics/SVG/1.1/DTD/svg11.dtd">
<svg version="1.1" id="Layer_1" xmlns="http://www.w3.org/2000/svg" xmlns:xlink="http://www.w3.org/1999/xlink" x="0px" y="0px"
	 width="100px" height="100px" viewBox="0 0 100 100" enable-background="new 0 0 100 100" xml:space="preserve">
<g>
	<path d="M52.288,41.446c-3.403,0-6.172,2.769-6.172,6.172c0,1.976,0.971,3.844,2.597,4.998l0.421,0.299v7.578
		c0,0.308,0.25,0.559,0.558,0.559h5.192c0.308,0,0.559-0.251,0.559-0.559v-7.578l0.421-0.299c1.625-1.153,2.596-3.022,2.596-4.998
		C58.459,44.215,55.69,41.446,52.288,41.446z"/>
	<path d="M52.288,25.701c-14.088,0-25.549,11.461-25.549,25.549S38.2,76.799,52.288,76.799S77.837,65.338,77.837,51.25
		S66.376,25.701,52.288,25.701z M57.442,53.927v6.566c0,1.411-1.147,2.559-2.559,2.559h-5.192c-1.411,0-2.558-1.147-2.558-2.559
		v-6.566c-1.898-1.541-3.018-3.862-3.018-6.309c0-4.506,3.666-8.172,8.172-8.172s8.171,3.666,8.171,8.172
		C60.459,50.065,59.34,52.387,57.442,53.927z"/>
</g>
</svg>
