<?xml version="1.0" encoding="utf-8"?>
<!-- Generator: Adobe Illustrator 17.0.0, SVG Export Plug-In . SVG Version: 6.00 Build 0)  -->
<!DOCTYPE svg PUBLIC "-//W3C//DTD SVG 1.1//EN" "http://www.w3.org/Graphics/SVG/1.1/DTD/svg11.dtd">
<svg version="1.1" id="Layer_1" xmlns="http://www.w3.org/2000/svg" xmlns:xlink="http://www.w3.org/1999/xlink" x="0px" y="0px"
	 width="100px" height="100px" viewBox="0 0 100 100" enable-background="new 0 0 100 100" xml:space="preserve">
<g>
	<path d="M45.23,86.646l4.27,0.042v-21.75h2v21.75l3.98-0.042V63.787V35.994H45.23V86.646z"/>
	<path d="M60.866,31.375c0.743-1.551,1.131-3.248,1.131-4.984c0-6.398-5.205-11.603-11.603-11.603s-11.603,5.205-11.603,11.603
		c0,1.738,0.391,3.431,1.141,4.984h-15.77v6h16.935v0.619h0.127l-0.132,52.874h18.387V37.375h17.146v-6H60.866z M74.625,35.375
		H57.481l-0.001,0.033v0.586v27.794v2v22.859v0.221H43.098l0.132-52.874h-0.132v-0.618H26.163v-2h18.236l-1.824-1.451
		c-1.115-1.566-1.784-3.469-1.784-5.534c0-5.295,4.308-9.603,9.603-9.603s9.603,4.308,9.603,9.603c0,1.932-0.576,3.731-1.565,5.237
		l-2.237,1.748h18.429V35.375z"/>
	<path d="M50.395,18.786c-4.193,0-7.603,3.411-7.603,7.603c0,3.129,1.9,5.82,4.606,6.986h5.993c2.707-1.165,4.607-3.857,4.607-6.986
		C57.998,22.197,54.588,18.786,50.395,18.786z"/>
</g>
</svg>
