<?xml version="1.0" encoding="utf-8"?>
<!-- Generator: Adobe Illustrator 16.0.0, SVG Export Plug-In . SVG Version: 6.00 Build 0)  -->
<!DOCTYPE svg PUBLIC "-//W3C//DTD SVG 1.1//EN" "http://www.w3.org/Graphics/SVG/1.1/DTD/svg11.dtd">
<svg version="1.1" id="Layer_1" xmlns="http://www.w3.org/2000/svg" xmlns:xlink="http://www.w3.org/1999/xlink" x="0px" y="0px"
	 width="100px" height="100px" viewBox="0 0 100 100" enable-background="new 0 0 100 100" xml:space="preserve">
<line fill="none" stroke="#000000" stroke-width="2" stroke-miterlimit="10" x1="78.479" y1="22.478" x2="78.479" y2="22.805"/>
<path fill="none" stroke="#000000" stroke-width="2" stroke-miterlimit="10" d="M58.479,22.805"/>
<g>
	<path d="M59.656,21.478v20h-3.479v2h3.479v18h-18v-18h3.355v-2h-3.355v-19v-1.327H19.329v21.327v20v21h0.327v0.326h21h20h21v-0.326
		h0.327v-21v-20v-21H59.656z M79.656,81.479h-18v-18h18V81.479z M59.656,81.479h-18v-18h18V81.479z M39.656,81.479h-18v-18h18
		V81.479z M61.656,23.478h18v18h-18V23.478z M79.656,43.478v18h-18v-18H79.656z M39.656,61.479h-18v-18h18V61.479z M39.656,23.151
		v18.327H21.329V23.151H39.656z"/>
	<path d="M49.656,37.599v14.88h2v-14.88c3.663-0.491,6.5-3.629,6.5-7.425c0-4.136-3.364-7.5-7.5-7.5s-7.5,3.364-7.5,7.5
		C43.156,33.969,45.993,37.107,49.656,37.599z"/>
</g>
</svg>
