<?xml version="1.0" encoding="utf-8"?>
<!-- Generator: Adobe Illustrator 16.0.0, SVG Export Plug-In . SVG Version: 6.00 Build 0)  -->
<!DOCTYPE svg PUBLIC "-//W3C//DTD SVG 1.1//EN" "http://www.w3.org/Graphics/SVG/1.1/DTD/svg11.dtd">
<svg version="1.1" id="Layer_1" xmlns="http://www.w3.org/2000/svg" xmlns:xlink="http://www.w3.org/1999/xlink" x="0px" y="0px"
	 width="100px" height="100px" viewBox="0 0 100 100" enable-background="new 0 0 100 100" xml:space="preserve">
<g>
	<path d="M51.336,24.333c-8.145,0-15.512,3.38-20.785,8.807c0.483,0.579,0.786,1.313,0.786,2.126c0,1.842-1.493,3.334-3.333,3.334
		c-0.516,0-0.999-0.127-1.434-0.336c-2.684,4.395-4.232,9.555-4.232,15.07c0,15.99,13.009,29,29,29c15.991,0,29-13.01,29-29
		C80.336,37.343,67.327,24.333,51.336,24.333z M51.336,80.334c-14.888,0-27-12.112-27-27c0-4.466,1.105-8.845,3.208-12.754
		c0.152,0.014,0.305,0.021,0.458,0.021c2.941,0,5.333-2.393,5.333-5.334c0-0.599-0.105-1.192-0.305-1.754
		c5.007-4.64,11.452-7.178,18.304-7.178c14.888,0,27,12.112,27,27C78.336,68.222,66.224,80.334,51.336,80.334z"/>
	<path d="M51.336,20.333c-8.795,0-17.006,3.401-23.236,9.6c-0.033,0-0.065-0.001-0.097-0.001c-2.941,0-5.333,2.393-5.333,5.334
		c0,0.479,0.066,0.951,0.196,1.41c-2.966,5.051-4.529,10.788-4.529,16.658c0,18.196,14.804,33,33,33c18.196,0,33-14.804,33-33
		S69.532,20.333,51.336,20.333z M51.336,84.334c-17.093,0-31-13.907-31-31c0-6.05,1.749-11.696,4.757-16.472
		c-0.262-0.476-0.424-1.015-0.424-1.596c0-1.841,1.493-3.334,3.333-3.334c0.288,0,0.562,0.048,0.828,0.116
		c5.655-5.976,13.649-9.715,22.505-9.715c17.094,0,31,13.907,31,31C82.336,70.427,68.43,84.334,51.336,84.334z"/>
	<path d="M51.336,30.333c-12.682,0-23,10.318-23,23c0,9.945,6.455,18.756,15.842,21.834c0.754,2.047,2.727,3.5,4.991,3.5
		c1.87,0,3.539-0.955,4.494-2.479c11.688-1.173,20.673-10.987,20.673-22.855C74.336,40.651,64.019,30.333,51.336,30.333z
		 M52.35,74.282c-0.41,1.377-1.672,2.386-3.18,2.386c-1.755,0-3.178-1.36-3.308-3.083c-8.929-2.418-15.525-10.568-15.525-20.251
		c0-11.58,9.42-21,21-21c11.58,0,21,9.42,21,21C72.336,64.571,63.457,73.749,52.35,74.282z"/>
	<path d="M51.336,34.333c-10.476,0-19,8.523-19,19c0,8.735,5.934,16.094,13.978,18.305C46.895,70.662,47.951,70,49.169,70
		c1.471,0,2.707,0.961,3.149,2.284c10.02-0.516,18.018-8.805,18.018-18.95C70.336,42.857,61.812,34.333,51.336,34.333z
		 M53.455,70.178C52.471,68.833,50.894,68,49.169,68c-1.302,0-2.55,0.49-3.512,1.337c-6.725-2.39-11.321-8.801-11.321-16.003
		c0-9.374,7.626-17,17-17c9.374,0,17,7.626,17,17C68.336,61.957,61.894,69.13,53.455,70.178z"/>
	<path d="M58.008,46.677c-0.584,0.506-1.338,0.823-2.172,0.823c-1.84,0-3.333-1.492-3.333-3.333c0-0.062,0.015-0.119,0.019-0.18
		c-0.389-0.049-0.783-0.083-1.186-0.083c-5.199,0-9.429,4.23-9.429,9.43c0,5.199,4.23,9.43,9.429,9.43c5.199,0,9.43-4.23,9.43-9.43
		C60.766,50.738,59.711,48.384,58.008,46.677z M51.336,60.764c-4.096,0-7.429-3.333-7.429-7.43c0-3.917,3.046-7.135,6.893-7.411
		c0.295,0.841,0.802,1.579,1.445,2.168c1.027,0.178,1.948,0.65,2.686,1.327c0.295,0.051,0.597,0.081,0.905,0.081
		c0.575,0,1.145-0.096,1.686-0.279c0.81,1.21,1.244,2.629,1.244,4.113C58.766,57.431,55.433,60.764,51.336,60.764z"/>
	<path d="M61.17,44.214c0-0.016,0-0.032,0-0.047c0-2.941-2.393-5.333-5.334-5.333c-1.197,0-2.341,0.404-3.269,1.134
		c-0.423-0.042-0.83-0.063-1.231-0.063c-7.405,0-13.429,6.024-13.429,13.43s6.024,13.43,13.429,13.43
		c7.405,0,13.43-6.024,13.43-13.43C64.766,49.959,63.467,46.69,61.17,44.214z M51.336,64.764c-6.302,0-11.429-5.128-11.429-11.43
		c0-6.303,5.127-11.43,11.429-11.43c0.656,0,1.295,0.068,1.922,0.174c0.61-0.754,1.533-1.246,2.578-1.246
		c1.842,0,3.334,1.493,3.334,3.333c0,0.269-0.04,0.526-0.1,0.776c2.266,2.09,3.695,5.073,3.695,8.392
		C62.766,59.636,57.639,64.764,51.336,64.764z"/>
	<path d="M46.003,53.334c0,2.94,2.393,5.333,5.333,5.333c2.941,0,5.334-2.393,5.334-5.333c0-1.553-0.678-2.939-1.739-3.915
		c-1.026-0.176-1.947-0.652-2.686-1.327C51.948,48.041,51.647,48,51.336,48C48.396,48,46.003,50.393,46.003,53.334z M54.67,53.334
		c0,1.841-1.492,3.333-3.334,3.333c-1.84,0-3.333-1.492-3.333-3.333c0-1.842,1.493-3.334,3.333-3.334
		C53.178,50,54.67,51.492,54.67,53.334z"/>
</g>
</svg>
