<?xml version="1.0" encoding="utf-8"?>
<!-- Generator: Adobe Illustrator 17.0.0, SVG Export Plug-In . SVG Version: 6.00 Build 0)  -->
<!DOCTYPE svg PUBLIC "-//W3C//DTD SVG 1.1//EN" "http://www.w3.org/Graphics/SVG/1.1/DTD/svg11.dtd">
<svg version="1.1" id="Layer_1" xmlns="http://www.w3.org/2000/svg" xmlns:xlink="http://www.w3.org/1999/xlink" x="0px" y="0px"
	 width="100px" height="100px" viewBox="0 0 100 100" enable-background="new 0 0 100 100" xml:space="preserve">
<path d="M64.771,72.501c-1.702-3.023-5.514-5.376-10.271-6.304v-3.527c3.416-2.119,5.775-6.558,5.775-11.707
	c0-7.201-4.6-13.038-10.275-13.038s-10.275,5.837-10.275,13.038c0,5.15,2.359,9.589,5.775,11.707v3.528
	c-5.011,0.974-8.98,3.524-10.536,6.775C26.897,68.053,21.5,59.17,21.5,49.049c0-15.439,12.561-28,28-28s28,12.561,28,28
	C77.5,58.858,72.427,67.498,64.771,72.501z"/>
</svg>
