<?xml version="1.0" encoding="utf-8"?>
<!-- Generator: Adobe Illustrator 17.0.0, SVG Export Plug-In . SVG Version: 6.00 Build 0)  -->
<!DOCTYPE svg PUBLIC "-//W3C//DTD SVG 1.1//EN" "http://www.w3.org/Graphics/SVG/1.1/DTD/svg11.dtd">
<svg version="1.1" id="Layer_1" xmlns="http://www.w3.org/2000/svg" xmlns:xlink="http://www.w3.org/1999/xlink" x="0px" y="0px"
	 width="100px" height="100px" viewBox="0 0 100 100" enable-background="new 0 0 100 100" xml:space="preserve">
<path d="M85.721,27.516L60.378,12.128c-0.318-0.193-0.719-0.193-1.037,0L47.8,19.135c-0.105,0.023-0.208,0.058-0.303,0.116
	L22.041,34.707c-0.04,0.025-0.073,0.058-0.109,0.087c-0.027,0.022-0.057,0.041-0.082,0.065c-0.019,0.019-0.033,0.041-0.05,0.062
	l-11.49,6.976c-0.299,0.182-0.481,0.505-0.481,0.855s0.182,0.673,0.481,0.855l11.25,6.83v21.123c0,0.35,0.182,0.674,0.481,0.854
	l25.456,15.456c0.005,0.003,0.011,0.004,0.016,0.007c0.05,0.029,0.104,0.048,0.158,0.068c0.029,0.011,0.057,0.027,0.086,0.035
	c0.085,0.023,0.172,0.035,0.259,0.035c0.087,0,0.174-0.013,0.259-0.035c0.029-0.008,0.056-0.024,0.084-0.034
	c0.054-0.02,0.109-0.039,0.16-0.069c0.005-0.003,0.011-0.004,0.016-0.007l25.456-15.456c0.299-0.181,0.481-0.505,0.481-0.854V36.056
	l11.249-6.83c0.299-0.182,0.481-0.505,0.481-0.855S86.02,27.697,85.721,27.516z M47.016,85.24L23.56,70.999V51.652l12.093,7.342
	c0.16,0.097,0.339,0.146,0.519,0.146s0.359-0.049,0.519-0.146l10.324-6.269V85.24z M48.072,49.813L48.072,49.813l-0.056,0.034
	l-12.459-7.565l-11.069-6.721l0,0l0.056-0.034L47.959,21.31l0.056-0.034l23.529,14.286l-0.056,0.034L48.072,49.813z M72.472,70.999
	L49.016,85.24V51.58l3.215-1.952l20.241-12.289V70.999z"/>
</svg>
