<?xml version="1.0" encoding="utf-8"?>
<!-- Generator: Adobe Illustrator 16.0.0, SVG Export Plug-In . SVG Version: 6.00 Build 0)  -->
<!DOCTYPE svg PUBLIC "-//W3C//DTD SVG 1.1//EN" "http://www.w3.org/Graphics/SVG/1.1/DTD/svg11.dtd">
<svg version="1.1" id="Layer_1" xmlns="http://www.w3.org/2000/svg" xmlns:xlink="http://www.w3.org/1999/xlink" x="0px" y="0px"
	 width="100px" height="100px" viewBox="0 0 100 100" enable-background="new 0 0 100 100" xml:space="preserve">
<g>
	<path d="M45.834,55.481c-0.749,0-1.75,0.517-2.55,1.317c-1.294,1.295-1.544,2.697-1.148,3.094c0.139,0.139,0.372,0.168,0.543,0.168
		c0.749,0,1.75-0.517,2.55-1.317c0.621-0.621,1.075-1.361,1.246-2.031c0.123-0.481,0.086-0.879-0.097-1.062
		C46.239,55.511,46.006,55.481,45.834,55.481z"/>
	<path d="M57.32,52.191c-0.748,0-1.75,0.517-2.551,1.317c-0.621,0.621-1.075,1.361-1.246,2.031
		c-0.122,0.481-0.086,0.879,0.098,1.062c0.14,0.139,0.372,0.168,0.543,0.168c0.749,0,1.75-0.517,2.551-1.317
		c0.947-0.947,1.331-1.949,1.315-2.575h-0.002v-0.075c-0.016-0.193-0.07-0.349-0.165-0.443C57.724,52.22,57.491,52.191,57.32,52.191
		z"/>
	<path d="M50,19c-17.093,0-31,13.907-31,31c0,17.094,13.907,31,31,31c17.094,0,31-13.906,31-31C81,32.907,67.094,19,50,19z
		 M60.028,52.878h-0.005c0.007,1.265-0.654,2.747-1.895,3.989c-1.191,1.192-2.674,1.903-3.965,1.903
		c-0.787,0-1.464-0.261-1.957-0.754c-0.698-0.698-0.925-1.78-0.621-2.97c0.261-1.023,0.889-2.071,1.77-2.952
		c1.192-1.192,2.675-1.904,3.965-1.904c0.25,0,0.483,0.036,0.709,0.087l0.003-9.851l-9.485,3.871v12.125h-0.032
		c-0.075,1.207-0.712,2.573-1.872,3.733c-1.192,1.192-2.674,1.903-3.964,1.903c-0.788,0-1.464-0.261-1.958-0.754
		c-1.338-1.338-0.833-3.938,1.148-5.922c1.192-1.192,2.674-1.903,3.965-1.903c0.251,0,0.486,0.036,0.712,0.088V42.955l13.485-5.504
		L60.028,52.878z"/>
	<path d="M47.792,54.235c-0.336-0.336-0.762-0.555-1.245-0.666v2.854h1.968C48.568,55.568,48.348,54.791,47.792,54.235z"/>
	<path d="M58.029,50.278l-0.001,2.524c0.002,0.024,0.002,0.05,0.002,0.075h1.993c-0.004-0.755-0.246-1.433-0.746-1.933
		C58.94,50.608,58.514,50.39,58.029,50.278z"/>
</g>
</svg>
