<?xml version="1.0" encoding="utf-8"?>
<!-- Generator: Adobe Illustrator 17.0.0, SVG Export Plug-In . SVG Version: 6.00 Build 0)  -->
<!DOCTYPE svg PUBLIC "-//W3C//DTD SVG 1.1//EN" "http://www.w3.org/Graphics/SVG/1.1/DTD/svg11.dtd">
<svg version="1.1" id="Layer_1" xmlns="http://www.w3.org/2000/svg" xmlns:xlink="http://www.w3.org/1999/xlink" x="0px" y="0px"
	 width="100px" height="100px" viewBox="0 0 100 100" enable-background="new 0 0 100 100" xml:space="preserve">
<g>
	<path d="M68.746,54.43c-1.259,0-2.741,0.471-4.065,1.292c-1.313,0.814-2.354,1.878-2.931,2.997
		c-0.534,1.034-0.597,1.978-0.177,2.654c0.409,0.661,1.254,1.024,2.379,1.024c1.259,0,2.74-0.471,4.064-1.292
		c2.589-1.604,4.012-4.193,3.108-5.652C70.716,54.793,69.87,54.43,68.746,54.43z"/>
	<path d="M65.752,52.331c2.589-1.604,4.012-4.192,3.107-5.651c-0.409-0.66-1.255-1.024-2.38-1.024c-1.259,0-2.74,0.471-4.064,1.292
		c-2.589,1.605-4.012,4.194-3.107,5.652c0.409,0.66,1.254,1.023,2.379,1.023C62.945,53.623,64.427,53.152,65.752,52.331z"/>
	<path d="M50,27.363c-13.647,0-24.75,12.494-24.75,27.853c0,5.904,1.626,11.55,4.702,16.326l0.314,0.491
		c1.775,2.77,3.787,5.908,6.91,6.985c0.147,0.051,0.283,0.057,0.374,0.057l0.232-0.007c3.037,0,5.758-1.699,7.101-4.434
		c0.35-0.709,0.501-1.479,0.647-2.223c0.041-0.213,0.084-0.429,0.131-0.644c0.939-4.289,4.905-6.533,8.338-6.533
		c2.575,0,5.896,0.959,6.782,3.663c0.083,0.252,0.159,0.504,0.234,0.753c0.387,1.276,0.752,2.483,1.812,3.332
		c0.996,0.797,2.176,1.218,3.42,1.218c0.744,0,1.588,0,2.235-0.496c1.304-0.998,2.015-2.529,2.701-4.01
		c0.152-0.329,0.305-0.656,0.463-0.977c2.029-4.111,3.103-8.781,3.103-13.503C74.75,39.857,63.647,27.363,50,27.363z M38.25,72.235
		c-2.113,0-3.833-1.72-3.833-3.834c0-2.113,1.72-3.833,3.833-3.833s3.833,1.72,3.833,3.833
		C42.083,70.515,40.363,72.235,38.25,72.235z M52.853,49.003c-1.483,0-2.63-0.531-3.229-1.496c-1.23-1.986,0.276-5.073,3.431-7.028
		c1.501-0.931,3.132-1.442,4.593-1.442c1.483,0,2.63,0.531,3.229,1.496c1.23,1.986-0.276,5.073-3.431,7.028
		C55.944,48.492,54.313,49.003,52.853,49.003z M58.458,53.126c-1.231-1.985,0.275-5.073,3.43-7.029
		c1.501-0.93,3.131-1.442,4.592-1.442c1.484,0,2.631,0.532,3.229,1.497c1.23,1.986-0.275,5.073-3.43,7.028
		c-1.501,0.931-3.132,1.442-4.593,1.442C60.202,54.623,59.056,54.091,58.458,53.126z M68.544,61.956
		c-1.501,0.93-3.131,1.442-4.592,1.442c-1.484,0-2.631-0.532-3.229-1.497c-0.612-0.987-0.563-2.28,0.138-3.641
		c0.658-1.276,1.827-2.479,3.292-3.388c1.501-0.931,3.132-1.442,4.593-1.442c1.483,0,2.63,0.531,3.229,1.496
		C73.205,56.913,71.698,60,68.544,61.956z"/>
	<circle cx="38.25" cy="68.401" r="2.833"/>
	<path d="M60.026,41.06c-0.409-0.66-1.254-1.023-2.379-1.023c-1.259,0-2.74,0.471-4.065,1.292c-2.589,1.604-4.013,4.193-3.108,5.651
		c0.409,0.66,1.254,1.023,2.379,1.023c1.259,0,2.74-0.471,4.065-1.292C59.507,45.107,60.931,42.518,60.026,41.06z"/>
</g>
</svg>
