<?xml version="1.0" encoding="utf-8"?>
<!-- Generator: Adobe Illustrator 17.0.0, SVG Export Plug-In . SVG Version: 6.00 Build 0)  -->
<!DOCTYPE svg PUBLIC "-//W3C//DTD SVG 1.1//EN" "http://www.w3.org/Graphics/SVG/1.1/DTD/svg11.dtd">
<svg version="1.1" id="Layer_1" xmlns="http://www.w3.org/2000/svg" xmlns:xlink="http://www.w3.org/1999/xlink" x="0px" y="0px"
	 width="100px" height="100px" viewBox="0 0 100 100" enable-background="new 0 0 100 100" xml:space="preserve">
<g>
	<path d="M36.728,42.189c0.449,5.245,3.794,9.673,8.431,11.666c0.404-3.01,1.632-5.761,3.472-8.002
		c-2.512-2.388-5.899-3.865-9.631-3.865C38.225,41.988,37.469,42.068,36.728,42.189z"/>
	<path d="M64.586,42.471c-1.147-0.305-2.345-0.483-3.586-0.483c-3.732,0-7.119,1.477-9.631,3.865
		c1.936,2.358,3.212,5.277,3.544,8.472C60.109,52.668,63.995,48.055,64.586,42.471z"/>
	<path d="M45.003,55.933c-5.535-2.105-9.616-7.183-10.249-13.283C29.105,44.453,25,49.749,25,55.988c0,7.72,6.28,14,14,14
		c3.732,0,7.119-1.477,9.631-3.865C46.364,63.361,45,59.831,45,55.988C45,55.97,45.003,55.952,45.003,55.933z"/>
	<path d="M52.939,54.787c-0.239-2.791-1.3-5.346-2.939-7.43c-1.584,2.015-2.636,4.467-2.919,7.149
		c1.147,0.305,2.345,0.483,3.586,0.483C51.442,54.988,52.198,54.909,52.939,54.787z"/>
	<path d="M50.667,56.988c-1.253,0-2.467-0.16-3.638-0.433c0.122,3.036,1.209,5.824,2.971,8.065c1.714-2.18,2.788-4.876,2.959-7.815
		C52.208,56.913,51.447,56.988,50.667,56.988z"/>
	<path d="M50,22.167c-16.569,0-30,13.431-30,30s13.431,30,30,30s30-13.431,30-30S66.569,22.167,50,22.167z M61,71.988
		c-4.262,0-8.13-1.685-11-4.411c-2.87,2.726-6.738,4.411-11,4.411c-8.822,0-16-7.178-16-16c0-7.326,4.956-13.503,11.687-15.393
		c0.211-8.64,7.29-15.607,15.98-15.607c8.822,0,16,7.178,16,16c0,0.018-0.003,0.036-0.003,0.055C72.695,43.337,77,49.162,77,55.988
		C77,64.81,69.822,71.988,61,71.988z"/>
	<path d="M50,44.399c2.87-2.726,6.738-4.411,11-4.411c1.253,0,2.467,0.16,3.638,0.433c-0.301-7.456-6.443-13.433-13.971-13.433
		c-7.444,0-13.532,5.844-13.959,13.183c0.75-0.108,1.512-0.183,2.292-0.183C43.262,39.988,47.13,41.673,50,44.399z"/>
	<path d="M66.508,43.121c-0.854,6.371-5.463,11.558-11.528,13.26c-0.09,3.689-1.422,7.076-3.611,9.742
		c2.512,2.388,5.899,3.865,9.631,3.865c7.72,0,14-6.28,14-14C75,50.223,71.496,45.264,66.508,43.121z"/>
</g>
</svg>
