<?xml version="1.0" encoding="utf-8"?>
<!-- Generator: Adobe Illustrator 17.0.0, SVG Export Plug-In . SVG Version: 6.00 Build 0)  -->
<!DOCTYPE svg PUBLIC "-//W3C//DTD SVG 1.1//EN" "http://www.w3.org/Graphics/SVG/1.1/DTD/svg11.dtd">
<svg version="1.1" id="Layer_1" xmlns="http://www.w3.org/2000/svg" xmlns:xlink="http://www.w3.org/1999/xlink" x="0px" y="0px"
	 width="100px" height="100px" viewBox="0 0 100 100" enable-background="new 0 0 100 100" xml:space="preserve">
<g>
	<path d="M48.641,40.099l-0.966-0.033V33.77L33.887,47.452l13.788,13.682v-7.576h1c13.119,0,18.842,5.354,20.893,8.05
		C68.451,41.017,49.472,40.127,48.641,40.099z"/>
	<path d="M51.333,17.452c-16.569,0-30,13.431-30,30s13.431,30,30,30s30-13.431,30-30S67.901,17.452,51.333,17.452z M71.618,64.535
		h-2.633l-0.271-0.574c-0.037-0.078-4.06-8.051-19.04-8.392v10.367L31.047,47.452l18.628-18.484v9.217
		c4.357,0.507,21.943,3.889,21.943,25.35V64.535z"/>
</g>
</svg>
