<?xml version="1.0" encoding="utf-8"?>
<!-- Generator: Adobe Illustrator 17.0.0, SVG Export Plug-In . SVG Version: 6.00 Build 0)  -->
<!DOCTYPE svg PUBLIC "-//W3C//DTD SVG 1.1//EN" "http://www.w3.org/Graphics/SVG/1.1/DTD/svg11.dtd">
<svg version="1.1" id="Layer_1" xmlns="http://www.w3.org/2000/svg" xmlns:xlink="http://www.w3.org/1999/xlink" x="0px" y="0px"
	 width="100px" height="100px" viewBox="0 0 100 100" enable-background="new 0 0 100 100" xml:space="preserve">
<g>
	<path d="M50.325,48.732c1.448-0.493,2.563-1.528,2.563-3.054c0-1.347-0.803-2.744-2.847-2.744c-1.89,0-2.925,1.241-2.925,2.691
		C47.115,47.308,48.384,48.214,50.325,48.732z"/>
	<path d="M50,36c-7.72,0-14,6.28-14,14c0,7.72,6.28,14,14,14c7.719,0,14-6.28,14-14C64,42.281,57.719,36,50,36z M49.962,58.697
		c-3.522,0-5.644-2.097-5.644-4.554c0-2.122,1.269-3.625,3.34-4.504l-0.027-0.078c-1.863-0.881-2.666-2.331-2.666-3.779
		c0-2.666,2.253-4.478,5.203-4.478c3.26,0,4.891,2.044,4.891,4.141c0,1.425-0.698,2.95-2.769,3.935v0.078
		c2.097,0.828,3.391,2.303,3.391,4.348C55.682,56.73,53.172,58.697,49.962,58.697z"/>
	<path d="M49.678,50.364c-1.968,0.569-3.028,1.863-3.028,3.467c-0.078,1.709,1.216,3.21,3.364,3.21c2.044,0,3.366-1.269,3.366-3.003
		C53.378,51.993,51.954,51.011,49.678,50.364z"/>
	<path d="M50,19c-17.093,0-31,13.906-31,31c0,17.094,13.907,31,31,31s31-13.906,31-31C81,32.906,67.094,19,50,19z M50,66
		c-8.822,0-16-7.178-16-16s7.178-16,16-16c8.822,0,16,7.177,16,16S58.822,66,50,66z"/>
</g>
</svg>
