<?xml version="1.0" encoding="utf-8"?>
<!-- Generator: Adobe Illustrator 16.0.0, SVG Export Plug-In . SVG Version: 6.00 Build 0)  -->
<!DOCTYPE svg PUBLIC "-//W3C//DTD SVG 1.1//EN" "http://www.w3.org/Graphics/SVG/1.1/DTD/svg11.dtd">
<svg version="1.1" id="Layer_1" xmlns="http://www.w3.org/2000/svg" xmlns:xlink="http://www.w3.org/1999/xlink" x="0px" y="0px"
	 width="100px" height="100px" viewBox="0 0 100 100" enable-background="new 0 0 100 100" xml:space="preserve">
<g>
	<path d="M62.922,25.968c-6.624,0-12.098,4.957-12.94,11.354c-0.074,0.562-0.125,1.13-0.125,1.711c0,0.004,0,0.009,0,0.013
		c0.002,1.894,0.417,3.689,1.147,5.315c1.312,2.922,3.663,5.274,6.584,6.587c1.625,0.73,3.42,1.146,5.312,1.149
		c0.008,0,0.015,0.001,0.021,0.001c0.579,0,1.146-0.051,1.705-0.124c6.4-0.84,11.361-6.317,11.361-12.942
		C75.988,31.829,70.127,25.968,62.922,25.968z"/>
	<path d="M95.961,35.574h-6.05c-0.61-4.808-2.479-9.324-5.45-13.163l4.275-4.276c0.188-0.187,0.293-0.442,0.293-0.707
		s-0.105-0.519-0.293-0.707l-3.479-3.479c-0.392-0.391-1.023-0.391-1.414,0l-4.274,4.273c-3.837-2.976-8.354-4.852-13.165-5.467
		v-6.03c0-0.552-0.447-1-1-1h-4.919c-0.552,0-1,0.448-1,1v2.397c-0.001,0.015-0.001,0.029-0.001,0.043v3.585
		c-4.814,0.608-9.337,2.479-13.181,5.455l-4.257-4.256c-0.391-0.391-1.023-0.391-1.414,0l-1.586,1.59
		c-0.038,0.028-0.141,0.114-0.174,0.148c-0.055,0.056-0.103,0.114-0.096,0.118l-1.623,1.623c-0.188,0.187-0.293,0.442-0.293,0.707
		s0.105,0.519,0.293,0.707l4.253,4.254c-2.979,3.843-4.856,8.367-5.469,13.185h-6.008c-0.552,0-1,0.448-1,1v2.205
		c-0.011,0.084-0.02,0.168-0.02,0.255s0.009,0.171,0.02,0.188v1.601l-3.427-3.426c-0.327-0.328-0.856-0.328-1.183,0l-1.327,1.33
		c-0.032,0.024-0.119,0.096-0.146,0.124c-0.046,0.046-0.086,0.095-0.081,0.099l-1.358,1.358c-0.157,0.157-0.246,0.37-0.246,0.592
		c0,0.222,0.088,0.434,0.246,0.591l3.558,3.559c-2.493,3.215-4.063,7.001-4.576,11.032h-5.027c-0.462,0-0.836,0.373-0.836,0.836
		v1.844c-0.009,0.07-0.017,0.143-0.017,0.215s0.008,0.143,0.017,0.156v1.902c0,0.461,0.375,0.836,0.836,0.836h5.027
		c0.513,4.031,2.083,7.816,4.577,11.031l-3.559,3.561c-0.157,0.154-0.246,0.369-0.246,0.592c0,0.221,0.088,0.434,0.246,0.592
		l1.313,1.307c0.023,0.031,0.093,0.117,0.12,0.143c0.047,0.049,0.09,0.104,0.103,0.084l1.375,1.375c0.328,0.328,0.856,0.328,1.183,0
		l3.562-3.562c3.214,2.49,6.998,4.057,11.028,4.566V86.6c0,0.463,0.374,0.836,0.836,0.836h4.116c0.463,0,0.836-0.377,0.837-0.836
		v-5.045c4.025-0.516,7.804-2.084,11.016-4.574l3.575,3.574c0.327,0.326,0.854,0.326,1.183,0l2.91-2.912
		c0.157-0.154,0.245-0.367,0.245-0.59s-0.088-0.436-0.245-0.592l-3.413-3.412h4.251c0.554,0,1-0.449,1.001-1V66.02
		c4.811-0.615,9.328-2.492,13.166-5.467l4.273,4.271c0.391,0.391,1.022,0.391,1.414,0l3.479-3.479
		c0.188-0.188,0.293-0.441,0.293-0.707s-0.105-0.52-0.293-0.707l-4.275-4.275c2.971-3.838,4.842-8.354,5.452-13.164h6.048
		c0.553,0,1-0.446,1-1v-4.919C96.961,36.021,96.514,35.574,95.961,35.574z M42.968,68.234c-5.104,0-9.258-4.152-9.258-9.258
		c0-3.463,1.914-6.483,4.736-8.071c0.816,1.679,1.802,3.278,2.961,4.772l-4.254,4.256c-0.188,0.186-0.293,0.441-0.293,0.707
		s0.105,0.518,0.293,0.707l1.57,1.564c0.027,0.035,0.111,0.137,0.143,0.168c0.056,0.059,0.108,0.125,0.122,0.102l1.643,1.643
		c0.391,0.393,1.023,0.393,1.414,0l4.258-4.258c1.482,1.148,3.068,2.128,4.732,2.938C49.446,66.323,46.428,68.234,42.968,68.234z
		 M71.447,57.036c-0.559,0.266-1.13,0.504-1.716,0.718c-2.129,0.777-4.415,1.223-6.81,1.223c-1.121,0-2.213-0.115-3.283-0.294
		c-0.573-0.096-1.136-0.216-1.691-0.359c-1.506-0.389-2.948-0.937-4.295-1.647c-0.755-0.397-1.477-0.845-2.17-1.332
		c-1.895-1.333-3.545-2.984-4.876-4.879c-0.487-0.693-0.933-1.416-1.331-2.17c-0.71-1.348-1.257-2.79-1.645-4.296
		c-0.143-0.556-0.263-1.118-0.358-1.691c-0.177-1.067-0.292-2.156-0.292-3.273c0-2.399,0.448-4.69,1.228-6.822
		c0.211-0.578,0.447-1.143,0.709-1.695c3.203-6.742,10.058-11.426,18.005-11.426c10.998,0,19.943,8.946,19.943,19.943
		C82.865,46.978,78.186,53.832,71.447,57.036z"/>
</g>
</svg>
