<?xml version="1.0" encoding="utf-8"?>
<!-- Generator: Adobe Illustrator 17.0.0, SVG Export Plug-In . SVG Version: 6.00 Build 0)  -->
<!DOCTYPE svg PUBLIC "-//W3C//DTD SVG 1.1//EN" "http://www.w3.org/Graphics/SVG/1.1/DTD/svg11.dtd">
<svg version="1.1" id="Layer_1" xmlns="http://www.w3.org/2000/svg" xmlns:xlink="http://www.w3.org/1999/xlink" x="0px" y="0px"
	 width="100px" height="100px" viewBox="0 0 100 100" enable-background="new 0 0 100 100" xml:space="preserve">
<g>
	<path d="M60.006,35.188H37.887v21.687h22.119V35.188z M55.415,46.032c0,1.519-0.53,2.915-1.411,4.02l2.263,2.263l-1.414,1.414
		l-2.32-2.32c-1.028,0.688-2.261,1.09-3.588,1.09c-1.423,0-2.736-0.468-3.805-1.249l-2.333,2.333l-1.414-1.414l2.333-2.333
		c-0.782-1.069-1.249-2.382-1.249-3.805c0-1.401,0.453-2.696,1.212-3.756l-2.151-2.151l1.414-1.414l2.139,2.139
		c1.078-0.804,2.409-1.286,3.854-1.286c1.497,0,2.874,0.516,3.971,1.374l2.081-2.081l1.414,1.414l-2.123,2.123
		C54.999,43.43,55.415,44.683,55.415,46.032z"/>
	<path d="M48.946,41.563c-2.464,0-4.468,2.005-4.468,4.469s2.004,4.468,4.468,4.468s4.469-2.004,4.469-4.468
		S51.41,41.563,48.946,41.563z"/>
	<path d="M28.25,25.688v40.687h8.637v1.5h4.988v-1.5h14.143v1.5h4.988v-1.5h8.636V25.688H28.25z M62.006,58.875H35.887v-2.292
		h-1.494v-2.5h1.494V37.625h-1.494v-2.5h1.494v-1.937h26.119V58.875z"/>
</g>
</svg>
