<?xml version="1.0" encoding="utf-8"?>
<!-- Generator: Adobe Illustrator 17.0.0, SVG Export Plug-In . SVG Version: 6.00 Build 0)  -->
<!DOCTYPE svg PUBLIC "-//W3C//DTD SVG 1.1//EN" "http://www.w3.org/Graphics/SVG/1.1/DTD/svg11.dtd">
<svg version="1.1" id="Layer_1" xmlns="http://www.w3.org/2000/svg" xmlns:xlink="http://www.w3.org/1999/xlink" x="0px" y="0px"
	 width="100px" height="100px" viewBox="0 0 100 100" enable-background="new 0 0 100 100" xml:space="preserve">
<g>
	<path d="M77.997,38.895c0-0.021,0.003-0.041,0.003-0.061c0-0.049-0.021-0.091-0.028-0.139c-0.01-0.071-0.017-0.141-0.042-0.209
		c-0.026-0.069-0.067-0.126-0.106-0.186c-0.026-0.04-0.038-0.086-0.07-0.123L69,28.126v-4.959c0-0.552-0.447-1-1-1H33.334
		c-0.553,0-1,0.448-1,1v4.919l-10.04,10.039c-0.093,0.092-0.166,0.203-0.217,0.326C22.026,38.574,22,38.704,22,38.834
		c0,2.69,1.944,4.932,4.5,5.404v31.929c0,0.553,0.447,1,1,1h5.834H45.5h27c0.553,0,1-0.447,1-1V44.238
		c2.532-0.468,4.46-2.673,4.496-5.33C77.997,38.904,77.997,38.9,77.997,38.895z M46.5,75.167V53.001c0-0.553-0.447-1-1-1H33.334
		c-0.553,0-1,0.447-1,1v22.166H28.5V44.238c1.442-0.266,2.687-1.096,3.5-2.252c0.996,1.417,2.64,2.348,4.5,2.348
		s3.504-0.931,4.5-2.348c0.996,1.417,2.64,2.348,4.5,2.348s3.504-0.931,4.5-2.348c0.996,1.417,2.64,2.348,4.5,2.348
		s3.504-0.931,4.5-2.348c0.996,1.417,2.64,2.348,4.5,2.348s3.504-0.931,4.5-2.348c0.813,1.157,2.058,1.986,3.5,2.252v30.929H46.5z"
		/>
	<path d="M69.167,64.334h-1.5V53.001c0-0.553-0.447-1-1-1H52c-0.553,0-1,0.447-1,1v11.333h-1.5c-0.553,0-1,0.447-1,1v2.667
		c0,0.553,0.447,1,1,1h19.667c0.553,0,1-0.447,1-1v-2.667C70.167,64.781,69.72,64.334,69.167,64.334z M65.667,64.334h-5.333V54.001
		h5.333V64.334z M53,54.001h5.334v10.333H53V54.001z"/>
</g>
</svg>
