<?xml version="1.0" encoding="utf-8"?>
<!-- Generator: Adobe Illustrator 17.0.0, SVG Export Plug-In . SVG Version: 6.00 Build 0)  -->
<!DOCTYPE svg PUBLIC "-//W3C//DTD SVG 1.1//EN" "http://www.w3.org/Graphics/SVG/1.1/DTD/svg11.dtd">
<svg version="1.1" id="Layer_1" xmlns="http://www.w3.org/2000/svg" xmlns:xlink="http://www.w3.org/1999/xlink" x="0px" y="0px"
	 width="100px" height="100px" viewBox="0 0 100 100" enable-background="new 0 0 100 100" xml:space="preserve">
<g>
	<circle cx="51.969" cy="80.266" r="1.401"/>
	<rect x="28.718" y="18.358" width="46.5" height="54.25"/>
	<path d="M79.234,11.892H24.702c-0.552,0-1,0.448-1,1v74.217c0,0.553,0.448,1,1,1h54.532c0.553,0,1-0.447,1-1V12.892
		C80.234,12.339,79.787,11.892,79.234,11.892z M51.969,83.667c-1.876,0-3.401-1.525-3.401-3.401c0-1.875,1.525-3.4,3.401-3.4
		c1.875,0,3.4,1.525,3.4,3.4C55.369,82.142,53.844,83.667,51.969,83.667z M77.219,73.608c0,0.553-0.447,1-1,1h-48.5
		c-0.552,0-1-0.447-1-1v-56.25c0-0.552,0.448-1,1-1h48.5c0.553,0,1,0.448,1,1V73.608z"/>
</g>
</svg>
