<?xml version="1.0" encoding="utf-8"?>
<!-- Generator: Adobe Illustrator 17.0.0, SVG Export Plug-In . SVG Version: 6.00 Build 0)  -->
<!DOCTYPE svg PUBLIC "-//W3C//DTD SVG 1.1//EN" "http://www.w3.org/Graphics/SVG/1.1/DTD/svg11.dtd">
<svg version="1.1" id="Layer_1" xmlns="http://www.w3.org/2000/svg" xmlns:xlink="http://www.w3.org/1999/xlink" x="0px" y="0px"
	 width="100px" height="100px" viewBox="0 0 100 100" enable-background="new 0 0 100 100" xml:space="preserve">
<g>
	<path d="M80.688,41.216L50,22.883L19.312,41.216L50,59.55L80.688,41.216z M50,25.213l26.788,16.003L50,57.219L23.212,41.217
		L50,25.213z"/>
	<path d="M72.888,41.217L50,27.543L27.112,41.217L50,54.889L72.888,41.217z M50,29.872l18.988,11.344L50,52.56L31.012,41.216
		L50,29.872z"/>
	<path d="M50,62.56L24.983,47.615l-3.076,5.151L50,69.55l28.093-16.783l-3.076-5.151L50,62.56z M50,67.219L24.649,52.075
		l1.025-1.717L50,64.889l24.325-14.531l1.025,1.717L50,67.219z"/>
	<path d="M50,72.56L24.983,57.615l-3.077,5.151L50,79.55l28.093-16.783l-3.076-5.151L50,72.56z M50,77.219L24.649,62.075
		l1.025-1.717L50,74.889l24.325-14.531l1.025,1.717L50,77.219z"/>
</g>
</svg>
