<?xml version="1.0" encoding="utf-8"?>
<!-- Generator: Adobe Illustrator 16.0.0, SVG Export Plug-In . SVG Version: 6.00 Build 0)  -->
<!DOCTYPE svg PUBLIC "-//W3C//DTD SVG 1.1//EN" "http://www.w3.org/Graphics/SVG/1.1/DTD/svg11.dtd">
<svg version="1.1" id="Layer_1" xmlns="http://www.w3.org/2000/svg" xmlns:xlink="http://www.w3.org/1999/xlink" x="0px" y="0px"
	 width="100px" height="100px" viewBox="0 0 100 100" enable-background="new 0 0 100 100" xml:space="preserve">
<g>
	<path d="M49.999,40.41c-2.562,0-4.969,0.998-6.78,2.809c-1.812,1.811-2.81,4.218-2.81,6.781c0,2.562,0.998,4.97,2.809,6.779
		c1.811,1.812,4.219,2.809,6.781,2.809c2.562,0,4.97-0.997,6.78-2.808c1.812-1.812,2.81-4.22,2.81-6.78
		c0-2.562-0.998-4.97-2.809-6.78C54.969,41.408,52.561,40.41,49.999,40.41z M55.365,55.366c-1.433,1.433-3.339,2.222-5.366,2.222
		s-3.933-0.789-5.366-2.223C43.199,53.933,42.41,52.026,42.41,50c0-2.028,0.79-3.934,2.223-5.366
		c1.433-1.434,3.339-2.224,5.366-2.224c2.028,0,3.934,0.79,5.366,2.224c1.434,1.433,2.224,3.338,2.224,5.366
		C57.589,52.026,56.799,53.933,55.365,55.366z"/>
	<path d="M49.999,44.41c-1.493,0-2.896,0.582-3.952,1.638C44.991,47.104,44.41,48.507,44.41,50c0,1.492,0.582,2.896,1.637,3.951
		s2.459,1.637,3.952,1.637s2.896-0.581,3.952-1.637s1.638-2.459,1.638-3.951c0-1.493-0.582-2.896-1.638-3.952
		S51.492,44.41,49.999,44.41z M52.537,52.537c-0.678,0.678-1.579,1.051-2.538,1.051s-1.86-0.373-2.538-1.051S46.41,50.958,46.41,50
		c0-0.958,0.374-1.86,1.052-2.538c0.678-0.678,1.579-1.052,2.537-1.052c0.958,0,1.859,0.374,2.538,1.052
		c0.678,0.679,1.052,1.58,1.052,2.538C53.589,50.958,53.215,51.858,52.537,52.537z"/>
	<path d="M50,33.821c-4.321,0-8.384,1.683-11.439,4.738l-1.415,1.414l4.243,4.242l1.414-1.414c1.922-1.922,4.479-2.981,7.197-2.981
		c2.719,0,5.276,1.059,7.198,2.98l1.414,1.415l4.242-4.243l-1.414-1.414C58.384,35.504,54.321,33.821,50,33.821z M58.611,41.388
		c-2.3-2.3-5.358-3.566-8.612-3.566c-3.253,0-6.311,1.267-8.611,3.566l-1.414-1.414c2.678-2.678,6.238-4.152,10.025-4.152
		c3.789,0,7.348,1.475,10.026,4.152L58.611,41.388z"/>
	<path d="M70.757,29.242c-5.543-5.544-12.915-8.598-20.758-8.598c-7.842,0-15.214,3.053-20.757,8.598l-1.414,1.414l4.242,4.243
		l1.414-1.415c4.411-4.411,10.275-6.84,16.515-6.84s12.104,2.429,16.516,6.84l1.414,1.415l4.242-4.243L70.757,29.242z M67.929,32.07
		c-4.789-4.789-11.156-7.426-17.93-7.426c-6.773,0-13.14,2.637-17.929,7.426l-1.414-1.414c5.166-5.167,12.035-8.012,19.343-8.012
		s14.178,2.845,19.344,8.012L67.929,32.07z"/>
	<path d="M50,27.243c-6.088,0-11.805,2.364-16.099,6.658l-1.415,1.414l4.243,4.242l1.414-1.414
		c3.161-3.161,7.372-4.901,11.856-4.901s8.696,1.741,11.857,4.901l1.414,1.414l4.242-4.242L66.099,33.9
		C61.805,29.607,56.087,27.243,50,27.243z M63.271,36.729c-7.317-7.315-19.225-7.315-26.542,0l-1.414-1.414
		c8.097-8.096,21.272-8.096,29.37,0L63.271,36.729z"/>
</g>
<text transform="matrix(1 0 0 1 400 300)" font-family="'MyriadPro-Regular'" font-size="12">100%</text>
<text transform="matrix(1 0 0 1 400 300)" font-family="'MyriadPro-Regular'" font-size="12">100%</text>
</svg>
