<?xml version="1.0" encoding="utf-8"?>
<!-- Generator: Adobe Illustrator 17.0.0, SVG Export Plug-In . SVG Version: 6.00 Build 0)  -->
<!DOCTYPE svg PUBLIC "-//W3C//DTD SVG 1.1//EN" "http://www.w3.org/Graphics/SVG/1.1/DTD/svg11.dtd">
<svg version="1.1" id="Layer_1" xmlns="http://www.w3.org/2000/svg" xmlns:xlink="http://www.w3.org/1999/xlink" x="0px" y="0px"
	 width="100px" height="100px" viewBox="0 0 100 100" enable-background="new 0 0 100 100" xml:space="preserve">
<g>
	<path d="M54.024,40.099l0.966-0.033V33.77l13.788,13.683L54.99,61.134v-7.576h-1c-13.119,0-18.842,5.354-20.893,8.05
		C34.214,41.017,53.193,40.127,54.024,40.099z"/>
	<path d="M21.333,47.452c0,16.569,13.431,30,30,30s30-13.431,30-30s-13.431-30-30-30S21.333,30.884,21.333,47.452z M31.047,63.535
		c0-21.461,17.586-24.843,21.943-25.35v-9.217l18.628,18.484L52.99,65.937V55.569c-14.98,0.341-19.003,8.313-19.04,8.392
		l-0.271,0.574h-2.633V63.535z"/>
</g>
</svg>
