<?xml version="1.0" encoding="utf-8"?>
<!-- Generator: Adobe Illustrator 17.0.0, SVG Export Plug-In . SVG Version: 6.00 Build 0)  -->
<!DOCTYPE svg PUBLIC "-//W3C//DTD SVG 1.1//EN" "http://www.w3.org/Graphics/SVG/1.1/DTD/svg11.dtd">
<svg version="1.1" id="Layer_1" xmlns="http://www.w3.org/2000/svg" xmlns:xlink="http://www.w3.org/1999/xlink" x="0px" y="0px"
	 width="100px" height="100px" viewBox="0 0 100 100" enable-background="new 0 0 100 100" xml:space="preserve">
<rect x="42.167" y="26.467" width="14.333" height="18.249"/>
<polygon points="63.5,69.65 42.167,69.65 42.167,46.716 58.5,46.716 63.5,46.716 "/>
<path d="M69.833,73.817H40.427c-0.909-1.891-2.58-3.303-4.593-3.875V16.983H27.5v2h6.333V69.65c-4.044,0-7.333,3.29-7.333,7.333
	c0,4.044,3.29,7.334,7.333,7.334c4.043,0,7.333-3.29,7.333-7.334c0-0.39-0.04-0.779-0.104-1.166h28.77V73.817z M33.833,82.317
	c-2.941,0-5.333-2.393-5.333-5.334c0-2.94,2.393-5.333,5.333-5.333c0.255,0,0.531,0.024,0.843,0.073
	c1.906,0.304,3.5,1.62,4.163,3.437c0.217,0.597,0.328,1.21,0.328,1.823C39.167,79.925,36.774,82.317,33.833,82.317z"/>
<path d="M34.541,72.543c-0.231-0.036-0.466-0.06-0.708-0.06c-2.481,0-4.5,2.019-4.5,4.5s2.019,4.5,4.5,4.5s4.5-2.019,4.5-4.5
	c0-0.521-0.093-1.038-0.275-1.54C37.5,73.91,36.152,72.799,34.541,72.543z M33.833,79.483c-1.378,0-2.5-1.121-2.5-2.5
	s1.122-2.5,2.5-2.5c0.136,0,0.268,0.016,0.396,0.035c0.893,0.143,1.64,0.759,1.95,1.609c0.103,0.282,0.154,0.569,0.154,0.855
	C36.333,78.362,35.212,79.483,33.833,79.483z"/>
</svg>
