<?xml version="1.0" encoding="utf-8"?>
<!-- Generator: Adobe Illustrator 17.0.0, SVG Export Plug-In . SVG Version: 6.00 Build 0)  -->
<!DOCTYPE svg PUBLIC "-//W3C//DTD SVG 1.1//EN" "http://www.w3.org/Graphics/SVG/1.1/DTD/svg11.dtd">
<svg version="1.1" id="Layer_1" xmlns="http://www.w3.org/2000/svg" xmlns:xlink="http://www.w3.org/1999/xlink" x="0px" y="0px"
	 width="100px" height="100px" viewBox="0 0 100 100" enable-background="new 0 0 100 100" xml:space="preserve">
<g>
	<path d="M47.432,65.726v-1c-0.009,0-0.017,0.001-0.025,0.002L47.432,65.726z"/>
	<path d="M35.551,53.092c0.062,3.644,0.748,8.104,2.137,9.493c1.591,1.591,6.774,2.088,9.492,2.138
		c-0.068-3.466-0.667-8.024-2.135-9.492C43.462,53.646,38.44,53.146,35.551,53.092z"/>
	<path d="M49.63,37.247c-1.888,1.957-5.201,5.972-5.201,8.222c0,1.964,2.666,5.6,5.201,8.223c2.532-2.62,5.2-6.258,5.2-8.223
		C54.83,43.505,52.165,39.87,49.63,37.247z"/>
	<path d="M49.628,19.943c-17.093,0-31,13.906-31,31c0,17.094,13.907,31,31,31s31-13.906,31-31
		C80.629,33.849,66.722,19.943,49.628,19.943z M48.689,66.207c-0.337,0.335-0.783,0.519-1.257,0.519h0h-0.028
		c-1.43-0.014-8.611-0.208-11.129-2.727c-2.45-2.449-2.706-9.124-2.726-11.112c-0.002-0.481,0.189-0.946,0.525-1.279
		c0.322-0.323,0.795-0.519,1.262-0.519c2,0.021,8.678,0.28,11.124,2.728c2.279,2.277,2.663,8.205,2.719,10.771
		c0.024,0.117,0.036,0.238,0.036,0.359C49.214,65.423,49.028,65.871,48.689,66.207z M48.363,55.258
		c-1.395-1.423-5.935-6.323-5.935-9.789c0-3.563,4.941-8.777,5.932-9.786c0.652-0.665,1.888-0.665,2.539,0
		c1.392,1.419,5.931,6.32,5.931,9.785c0,3.466-4.539,8.366-5.931,9.786c-0.336,0.34-0.798,0.532-1.27,0.532
		S48.696,55.595,48.363,55.258z M62.982,63.999c-2.445,2.446-9.124,2.705-11.112,2.727h-0.006h-0.012c-0.471,0-0.93-0.19-1.26-0.523
		c-0.332-0.331-0.521-0.795-0.52-1.269c0.012-1.416,0.198-8.592,2.727-11.118c2.443-2.446,9.123-2.705,11.112-2.727
		c0.482,0,0.94,0.189,1.273,0.521c0.335,0.332,0.525,0.796,0.523,1.272C65.695,54.301,65.501,61.481,62.982,63.999z"/>
	<path d="M52.076,64.723c2.89-0.054,7.909-0.555,9.492-2.138c1.591-1.591,2.088-6.775,2.138-9.493
		c-2.886,0.053-7.909,0.555-9.491,2.139C52.616,56.826,52.122,62.008,52.076,64.723z"/>
</g>
</svg>
