<?xml version="1.0" encoding="utf-8"?>
<!-- Generator: Adobe Illustrator 17.0.0, SVG Export Plug-In . SVG Version: 6.00 Build 0)  -->
<!DOCTYPE svg PUBLIC "-//W3C//DTD SVG 1.1//EN" "http://www.w3.org/Graphics/SVG/1.1/DTD/svg11.dtd">
<svg version="1.1" id="Layer_1" xmlns="http://www.w3.org/2000/svg" xmlns:xlink="http://www.w3.org/1999/xlink" x="0px" y="0px"
	 width="100px" height="100px" viewBox="0 0 100 100" enable-background="new 0 0 100 100" xml:space="preserve">
<g>
	<rect x="43.568" y="29.625" width="25.182" height="36.75"/>
	<circle cx="56.159" cy="73.373" r="1.401"/>
	<path d="M72.777,19.5H39.541c-0.552,0-1,0.448-1,1v59.28c0,0.553,0.448,1,1,1h33.236c0.553,0,1-0.447,1-1V20.5
		C73.777,19.948,73.33,19.5,72.777,19.5z M53.758,24.5h4.802c0.553,0,1,0.448,1,1s-0.447,1-1,1h-4.802c-0.553,0-1-0.448-1-1
		S53.205,24.5,53.758,24.5z M49.993,24.5h0.205c0.552,0,1,0.448,1,1s-0.448,1-1,1h-0.205c-0.552,0-1-0.448-1-1
		S49.44,24.5,49.993,24.5z M56.159,76.773c-1.876,0-3.401-1.525-3.401-3.4c0-1.876,1.525-3.401,3.401-3.401
		c1.875,0,3.4,1.525,3.4,3.401C59.56,75.248,58.034,76.773,56.159,76.773z M70.75,67.375c0,0.553-0.447,1-1,1H42.568
		c-0.552,0-1-0.447-1-1v-38.75c0-0.552,0.448-1,1-1H69.75c0.553,0,1,0.448,1,1V67.375z"/>
</g>
</svg>
