<?xml version="1.0" encoding="utf-8"?>
<!-- Generator: Adobe Illustrator 17.0.0, SVG Export Plug-In . SVG Version: 6.00 Build 0)  -->
<!DOCTYPE svg PUBLIC "-//W3C//DTD SVG 1.1//EN" "http://www.w3.org/Graphics/SVG/1.1/DTD/svg11.dtd">
<svg version="1.1" id="Layer_1" xmlns="http://www.w3.org/2000/svg" xmlns:xlink="http://www.w3.org/1999/xlink" x="0px" y="0px"
	 width="100px" height="100px" viewBox="0 0 100 100" enable-background="new 0 0 100 100" xml:space="preserve">
<path d="M65.521,35.336c-2.141,1.153-4.963,0.704-6.664-1.054l-0.72-0.744l-0.719,0.744c-1.055,1.093-2.523,1.72-4.028,1.72
	c-1.504,0-2.973-0.627-4.03-1.72l-0.719-0.744l-0.719,0.744c-1.056,1.093-2.524,1.72-4.029,1.72c-1.503,0-2.971-0.627-4.028-1.72
	l-0.719-0.744l-0.719,0.744c-1.698,1.756-4.524,2.207-6.666,1.053l-1.474-0.794v35.014h36.708V34.542L65.521,35.336z M61.667,61
	H35.833v-2h25.833V61z M61.667,57H35.833v-2h25.833V57z M61.667,53H35.833v-2h25.833V53z M61.667,49H35.833v-2h25.833V49z
	 M61.667,45H35.833v-2h25.833V45z"/>
</svg>
