<?xml version="1.0" encoding="utf-8"?>
<!-- Generator: Adobe Illustrator 17.0.0, SVG Export Plug-In . SVG Version: 6.00 Build 0)  -->
<!DOCTYPE svg PUBLIC "-//W3C//DTD SVG 1.1//EN" "http://www.w3.org/Graphics/SVG/1.1/DTD/svg11.dtd">
<svg version="1.1" id="Layer_1" xmlns="http://www.w3.org/2000/svg" xmlns:xlink="http://www.w3.org/1999/xlink" x="0px" y="0px"
	 width="100px" height="100px" viewBox="0 0 100 100" enable-background="new 0 0 100 100" xml:space="preserve">
<path d="M96.895,45.141L61.72,33.824l1.209-3.759l-1.702-0.548l-9.799,30.455l-9.799-30.455l-1.702,0.548l1.209,3.759L5.961,45.141
	l2.236,6.95l0,0l3.468,10.779l0.001,0l2.236,6.95l35.175-11.318l1.412,4.389l-2.131,6.623l1.702,0.548l1.368-4.252l1.368,4.252
	l1.702-0.548l-2.131-6.623l1.412-4.389l35.175,11.318l2.236-6.95l0.001,0l3.468-10.779l0,0L96.895,45.141z M8.21,46.295
	l33.473-10.77l1.689,5.249L9.899,51.544L8.21,46.295z M15.056,67.572l-1.689-5.249l33.473-10.77l1.689,5.249L15.056,67.572z
	 M94.646,46.295l-1.689,5.249l-33.473-10.77l1.689-5.249L94.646,46.295z M87.801,67.572L54.327,56.801l1.689-5.249l33.474,10.77
	L87.801,67.572z"/>
</svg>
