<?xml version="1.0" encoding="utf-8"?>
<!-- Generator: Adobe Illustrator 17.0.0, SVG Export Plug-In . SVG Version: 6.00 Build 0)  -->
<!DOCTYPE svg PUBLIC "-//W3C//DTD SVG 1.1//EN" "http://www.w3.org/Graphics/SVG/1.1/DTD/svg11.dtd">
<svg version="1.1" id="Layer_1" xmlns="http://www.w3.org/2000/svg" xmlns:xlink="http://www.w3.org/1999/xlink" x="0px" y="0px"
	 width="100px" height="100px" viewBox="0 0 100 100" enable-background="new 0 0 100 100" xml:space="preserve">
<g>
	<rect x="32.881" y="52.69" width="5.759" height="5.759"/>
	<rect x="54.603" y="41.827" width="5.76" height="5.759"/>
	<rect x="54.603" y="52.687" width="5.76" height="5.759"/>
	<rect x="54.603" y="63.55" width="5.76" height="5.759"/>
	<rect x="43.742" y="41.828" width="5.759" height="5.759"/>
	<rect x="32.881" y="41.83" width="5.759" height="5.759"/>
	<rect x="43.742" y="63.552" width="5.759" height="5.759"/>
	<rect x="43.742" y="52.688" width="5.759" height="5.759"/>
	<rect x="32.881" y="63.554" width="5.759" height="5.759"/>
	<path d="M25.625,23.725v52.831h52.357V23.725H25.625z M40.64,71.312h-9.759v-9.759h9.759V71.312z M40.64,60.449h-9.759V50.69h9.759
		V60.449z M40.64,49.589h-9.759V39.83h9.759V49.589z M51.501,71.311h-9.759v-9.759h9.759V71.311z M51.501,60.447h-9.759v-9.759
		h9.759V60.447z M51.501,49.587h-9.759v-9.759h9.759V49.587z M62.362,71.309h-9.76V61.55h9.76V71.309z M62.362,60.445h-9.76v-9.759
		h9.76V60.445z M62.362,49.585h-9.76v-9.759h9.76V49.585z M73.225,71.308h-9.759V50.687h9.759V71.308z M73.225,49.584h-9.759v-9.759
		h9.759V49.584z M73.225,38.727H30.881v-9.759h42.344V38.727z"/>
	<rect x="65.466" y="41.825" width="5.759" height="5.759"/>
	<rect x="32.881" y="30.968" width="38.344" height="5.759"/>
	<rect x="65.466" y="52.687" width="5.759" height="16.621"/>
</g>
</svg>
