<?xml version="1.0" encoding="utf-8"?>
<!-- Generator: Adobe Illustrator 16.0.0, SVG Export Plug-In . SVG Version: 6.00 Build 0)  -->
<!DOCTYPE svg PUBLIC "-//W3C//DTD SVG 1.1//EN" "http://www.w3.org/Graphics/SVG/1.1/DTD/svg11.dtd">
<svg version="1.1" id="Layer_1" xmlns="http://www.w3.org/2000/svg" xmlns:xlink="http://www.w3.org/1999/xlink" x="0px" y="0px"
	 width="100px" height="100px" viewBox="0 0 100 100" enable-background="new 0 0 100 100" xml:space="preserve">
<g>
	<circle cx="60.823" cy="36.119" r="1.174"/>
	<path d="M56.917,51.151c0.27,0.522,0.794,0.862,1.391,0.862h12.25c0.871,0,1.579-0.708,1.579-1.58v-17.3
		c0-0.871-0.708-1.579-1.579-1.579h-12.25c-0.871,0-1.579,0.708-1.579,1.579v0.812h0.188V51.151z M60.823,32.945
		c1.75,0,3.174,1.424,3.174,3.174s-1.424,3.174-3.174,3.174s-3.174-1.424-3.174-3.174S59.073,32.945,60.823,32.945z"/>
	<path d="M31.013,54.057h6.914l-0.012,1.012c-0.027,2.263,0.022,5.859,0.104,11.819l0.012,0.871c0.014,0.857,0.723,1.556,1.58,1.556
		h4.728c0.603,0,1.145-0.334,1.413-0.872l9.019-18.04h0.146V34.92l-1.075,0.045l-2.513-2.869c-0.299-0.345-0.731-0.541-1.188-0.541
		H31.016c-0.871,0-1.58,0.708-1.58,1.579v19.345C29.436,53.349,30.143,54.057,31.013,54.057z"/>
</g>
</svg>
