<?xml version="1.0" encoding="utf-8"?>
<!-- Generator: Adobe Illustrator 16.0.0, SVG Export Plug-In . SVG Version: 6.00 Build 0)  -->
<!DOCTYPE svg PUBLIC "-//W3C//DTD SVG 1.1//EN" "http://www.w3.org/Graphics/SVG/1.1/DTD/svg11.dtd">
<svg version="1.1" id="Layer_1" xmlns="http://www.w3.org/2000/svg" xmlns:xlink="http://www.w3.org/1999/xlink" x="0px" y="0px"
	 width="100px" height="100px" viewBox="0 0 100 100" enable-background="new 0 0 100 100" xml:space="preserve">
<g>
	<path d="M51,35.518c-7.72,0-14,6.28-14,14s6.28,14,14,14s14-6.28,14-14S58.72,35.518,51,35.518z M51,61.518
		c-6.617,0-12-5.383-12-12c0-6.617,5.383-12,12-12c6.617,0,12,5.383,12,12C63,56.135,57.617,61.518,51,61.518z"/>
	<path d="M81.351,52.518v-6H68.731c-0.447-2.684-1.49-5.198-3.074-7.414l8.925-8.925l-4.242-4.243l-8.925,8.926
		c-2.217-1.584-4.731-2.627-7.415-3.075V19.167h-6v12.619c-2.684,0.448-5.198,1.491-7.414,3.075l-8.926-8.926l-4.243,4.243
		l8.926,8.926c-1.584,2.216-2.627,4.73-3.075,7.414H20.649v6h12.619c0.448,2.684,1.491,5.198,3.075,7.414l-8.926,8.927l4.242,4.242
		l8.926-8.927c2.216,1.585,4.73,2.628,7.414,3.075v12.619h6V67.249c2.684-0.447,5.197-1.49,7.414-3.075L70.34,73.1l4.242-4.242
		l-8.926-8.926c1.585-2.217,2.628-4.73,3.075-7.414H81.351z M62.981,60.085l8.772,8.772l-1.414,1.414l-8.772-8.772
		c-2.587,2.284-5.909,3.74-9.567,3.968v12.401h-2V65.467c-3.658-0.228-6.98-1.683-9.567-3.968l-8.772,8.773l-1.414-1.414
		l8.772-8.773c-2.285-2.587-3.74-5.909-3.968-9.567H22.649v-2h12.401c0.228-3.658,1.683-6.98,3.968-9.567l-8.772-8.772l1.414-1.414
		l8.772,8.772c2.587-2.285,5.91-3.74,9.567-3.968V21.167h2v12.401c3.658,0.228,6.98,1.683,9.568,3.968l8.771-8.772l1.414,1.414
		l-8.771,8.772c2.284,2.587,3.739,5.91,3.967,9.567h12.401v2H66.949C66.722,54.176,65.266,57.498,62.981,60.085z"/>
</g>
</svg>
