<?xml version="1.0" encoding="utf-8"?>
<!-- Generator: Adobe Illustrator 17.0.0, SVG Export Plug-In . SVG Version: 6.00 Build 0)  -->
<!DOCTYPE svg PUBLIC "-//W3C//DTD SVG 1.1//EN" "http://www.w3.org/Graphics/SVG/1.1/DTD/svg11.dtd">
<svg version="1.1" id="Layer_1" xmlns="http://www.w3.org/2000/svg" xmlns:xlink="http://www.w3.org/1999/xlink" x="0px" y="0px"
	 width="100px" height="100px" viewBox="0 0 100 100" enable-background="new 0 0 100 100" xml:space="preserve">
<g>
	<rect x="33.683" y="47.667" width="2.333" height="0.167"/>
	<path d="M28.033,70.088h13.633V32.314H28.033V70.088z M31.683,35.667h6.333v4.167h-6.333V35.667z M31.683,40.667h6.333v4.167
		h-6.333V40.667z M31.683,45.667h6.333v4.167h-6.333V45.667z M31.683,61.667h6.333V68h-6.333V61.667z"/>
	<rect x="33.683" y="63.667" width="2.333" height="2.333"/>
	<rect x="33.683" y="37.667" width="2.333" height="0.167"/>
	<rect x="33.683" y="42.667" width="2.333" height="0.167"/>
	<rect x="49.317" y="47.667" width="2.333" height="0.167"/>
	<rect x="49.317" y="37.667" width="2.333" height="0.167"/>
	<rect x="49.317" y="42.667" width="2.333" height="0.167"/>
	<rect x="49.317" y="63.667" width="2.333" height="2.333"/>
	<path d="M43.667,70.088h13.634V32.314H43.667V70.088z M47.317,35.667h6.333v4.167h-6.333V35.667z M47.317,40.667h6.333v4.167
		h-6.333V40.667z M47.317,45.667h6.333v4.167h-6.333V45.667z M47.317,61.667h6.333V68h-6.333V61.667z"/>
	<path d="M59.301,32.314v37.774h13.633V32.314H59.301z M69.284,68H62.95v-6.333h6.334V68z M69.284,49.833H62.95v-4.167h6.334V49.833
		z M69.284,44.833H62.95v-4.167h6.334V44.833z M69.284,39.833H62.95v-4.167h6.334V39.833z"/>
	<rect x="64.95" y="37.667" width="2.334" height="0.167"/>
	<rect x="64.95" y="47.667" width="2.334" height="0.167"/>
	<rect x="64.95" y="63.667" width="2.334" height="2.333"/>
	<rect x="64.95" y="42.667" width="2.334" height="0.167"/>
</g>
</svg>
