<?xml version="1.0" encoding="utf-8"?>
<!-- Generator: Adobe Illustrator 17.0.0, SVG Export Plug-In . SVG Version: 6.00 Build 0)  -->
<!DOCTYPE svg PUBLIC "-//W3C//DTD SVG 1.1//EN" "http://www.w3.org/Graphics/SVG/1.1/DTD/svg11.dtd">
<svg version="1.1" id="Layer_1" xmlns="http://www.w3.org/2000/svg" xmlns:xlink="http://www.w3.org/1999/xlink" x="0px" y="0px"
	 width="100px" height="100px" viewBox="0 0 100 100" enable-background="new 0 0 100 100" xml:space="preserve">
<polygon points="39,79 39,21 67,21 67,25 60.5,25 60.5,27 67,27 67,29 53,29 53,31 67,31 67,35 60.5,35 60.5,37 67,37 67,39 53,39 
	53,41 67,41 67,45 60.5,45 60.5,47 67,47 67,49 53,49 53,51 67,51 67,55 60.5,55 60.5,57 67,57 67,59 53,59 53,61 67,61 67,65 
	60.5,65 60.5,67 67,67 67,69 53,69 53,71 67,71 67,79 "/>
</svg>
