<?xml version="1.0" encoding="utf-8"?>
<!-- Generator: Adobe Illustrator 17.0.0, SVG Export Plug-In . SVG Version: 6.00 Build 0)  -->
<!DOCTYPE svg PUBLIC "-//W3C//DTD SVG 1.1//EN" "http://www.w3.org/Graphics/SVG/1.1/DTD/svg11.dtd">
<svg version="1.1" id="Layer_1" xmlns="http://www.w3.org/2000/svg" xmlns:xlink="http://www.w3.org/1999/xlink" x="0px" y="0px"
	 width="100px" height="100px" viewBox="0 0 100 100" enable-background="new 0 0 100 100" xml:space="preserve">
<g>
	<rect x="61.003" y="62.098" width="2.477" height="2.478"/>
	<rect x="53.291" y="35.461" width="2.478" height="29.197"/>
	<rect x="37.814" y="61.979" width="2.477" height="2.477"/>
	<rect x="45.814" y="35.341" width="2.477" height="20.561"/>
	<rect x="30.104" y="35.341" width="2.477" height="29.197"/>
	<rect x="68.479" y="35.461" width="2.477" height="29.197"/>
	<rect x="37.814" y="35.341" width="2.477" height="20.561"/>
	<rect x="61.003" y="35.461" width="2.477" height="20.561"/>
	<rect x="45.814" y="61.979" width="2.477" height="2.477"/>
	<path d="M23.141,27.922v44.156H77.92V27.922H23.141z M34.581,66.538h-6.477V33.341h6.477V66.538z M42.292,66.455h-6.477v-6.477
		h6.477V66.455z M42.292,57.902h-6.477V33.341h6.477V57.902z M50.291,66.455h-6.477v-6.477h6.477V66.455z M50.291,57.902h-6.477
		V33.341h6.477V57.902z M57.769,66.658h-6.478V33.461h6.478V66.658z M65.479,66.575h-6.477v-6.478h6.477V66.575z M65.479,58.022
		h-6.477V33.461h6.477V58.022z M72.956,66.658h-6.477V33.461h6.477V66.658z"/>
</g>
</svg>
