<?xml version="1.0" encoding="utf-8"?>
<!-- Generator: Adobe Illustrator 16.0.0, SVG Export Plug-In . SVG Version: 6.00 Build 0)  -->
<!DOCTYPE svg PUBLIC "-//W3C//DTD SVG 1.1//EN" "http://www.w3.org/Graphics/SVG/1.1/DTD/svg11.dtd">
<svg version="1.1" id="Layer_1" xmlns="http://www.w3.org/2000/svg" xmlns:xlink="http://www.w3.org/1999/xlink" x="0px" y="0px"
	 width="100px" height="100px" viewBox="0 0 100 100" enable-background="new 0 0 100 100" xml:space="preserve">
<g>
	<polygon points="51,16.5 56.75,16.5 56.75,14.5 43,14.5 43,16.5 49,16.5 49,19 50,19 51,19 	"/>
	<path d="M75.562,28.502l4.065,4.066l1.414-1.414l-9.723-9.723l-1.414,1.414l4.243,4.243l-1.635,1.634C66.858,22.743,58.86,19,50,19
		c-17.093,0-31,13.907-31,31c0,17.094,13.907,31,31,31c17.094,0,31-13.906,31-31c0-7.514-2.689-14.411-7.153-19.783L75.562,28.502z
		 M51,50h-2V27h2V50z"/>
</g>
</svg>
