<?xml version="1.0" encoding="utf-8"?>
<!-- Generator: Adobe Illustrator 17.0.0, SVG Export Plug-In . SVG Version: 6.00 Build 0)  -->
<!DOCTYPE svg PUBLIC "-//W3C//DTD SVG 1.1//EN" "http://www.w3.org/Graphics/SVG/1.1/DTD/svg11.dtd">
<svg version="1.1" id="Layer_1" xmlns="http://www.w3.org/2000/svg" xmlns:xlink="http://www.w3.org/1999/xlink" x="0px" y="0px"
	 width="100px" height="100px" viewBox="0 0 100 100" enable-background="new 0 0 100 100" xml:space="preserve">
<path d="M79.663,41.302c-0.006-0.089-0.023-0.175-0.052-0.259c-0.011-0.032-0.019-0.062-0.033-0.093
	c-0.049-0.106-0.11-0.207-0.196-0.293L52.393,13.668c-0.086-0.086-0.186-0.147-0.292-0.195c-0.031-0.015-0.063-0.023-0.096-0.034
	c-0.083-0.028-0.166-0.045-0.253-0.05c-0.023-0.002-0.043-0.013-0.065-0.013H24.125c-0.552,0-1,0.448-1,1v71.25c0,0.553,0.448,1,1,1
	h54.55c0.553,0,1-0.447,1-1V41.364C79.675,41.342,79.664,41.323,79.663,41.302z M45.809,57.956l-13.322,6.678v0.068l13.322,6.679
	v2.351l-15.81-8.144v-1.84l15.81-8.144V57.956z M73.345,65.622l-15.81,8.109v-2.351l13.425-6.679v-0.068l-13.425-6.678v-2.352
	l15.81,8.109V65.622z M52.686,40.364V16.789l11.788,11.787l11.788,11.787H52.686z"/>
</svg>
