<?xml version="1.0" encoding="utf-8"?>
<!-- Generator: Adobe Illustrator 17.0.0, SVG Export Plug-In . SVG Version: 6.00 Build 0)  -->
<!DOCTYPE svg PUBLIC "-//W3C//DTD SVG 1.1//EN" "http://www.w3.org/Graphics/SVG/1.1/DTD/svg11.dtd">
<svg version="1.1" id="Layer_1" xmlns="http://www.w3.org/2000/svg" xmlns:xlink="http://www.w3.org/1999/xlink" x="0px" y="0px"
	 width="100px" height="100px" viewBox="0 0 100 100" enable-background="new 0 0 100 100" xml:space="preserve">
<g>
	<path d="M28.582,68.519c-1.072,0-2.077-0.417-2.831-1.173L14.85,56.441c-0.363-0.354-0.666-0.808-0.869-1.304
		c-0.201-0.492-0.303-1.005-0.303-1.524c0-0.512,0.099-1.017,0.292-1.501c0.223-0.534,0.517-0.974,0.905-1.354l10.879-10.88
		c1.513-1.509,4.136-1.51,5.653-0.007c1.56,1.566,1.562,4.105,0.01,5.664l-4.078,4.077h37.25c2.207,0,4.002,1.795,4.002,4.002
		c0,2.206-1.795,4-4.002,4H27.339l4.073,4.072c1.552,1.563,1.553,4.101,0.005,5.656C30.654,68.103,29.649,68.519,28.582,68.519z"/>
</g>
<g>
	<polygon points="89.186,80.267 34.667,80.267 34.667,58.614 36.667,58.614 36.667,78.267 87.186,78.267 87.186,27.748 
		36.667,27.748 36.667,48.612 34.667,48.612 34.667,25.748 89.186,25.748 	"/>
</g>
</svg>
