<?xml version="1.0" encoding="utf-8"?>
<!-- Generator: Adobe Illustrator 17.0.0, SVG Export Plug-In . SVG Version: 6.00 Build 0)  -->
<!DOCTYPE svg PUBLIC "-//W3C//DTD SVG 1.1//EN" "http://www.w3.org/Graphics/SVG/1.1/DTD/svg11.dtd">
<svg version="1.1" id="Layer_1" xmlns="http://www.w3.org/2000/svg" xmlns:xlink="http://www.w3.org/1999/xlink" x="0px" y="0px"
	 width="100px" height="100px" viewBox="0 0 100 100" enable-background="new 0 0 100 100" xml:space="preserve">
<g>
	<path d="M64.137,57.256l0.545-0.077c3.341-0.472,5.861-3.357,5.861-6.711c0-3.264-2.332-6.074-5.545-6.683l-0.648-0.123v-1.534
		c0-0.341-0.277-0.619-0.618-0.619h-6.47V30.63c0-0.341-0.278-0.619-0.619-0.619c-0.341,0-0.618,0.278-0.618,0.619v10.879h-4.412
		V30.63c0-0.341-0.278-0.619-0.618-0.619c-0.341,0-0.619,0.278-0.619,0.619v10.879h-4.612V30.63c0-0.341-0.277-0.619-0.618-0.619
		c-0.341,0-0.619,0.278-0.619,0.619v10.879h-6.269c-0.341,0-0.618,0.278-0.618,0.619v12.737c0,5.433,3.257,10.282,8.298,12.354
		l3.729,1.533H33.394c-0.341,0-0.619,0.278-0.619,0.619s0.278,0.619,0.619,0.619h35.202c0.341,0,0.619-0.278,0.619-0.619
		s-0.278-0.619-0.619-0.619H52.321l3.733-1.533c4.031-1.656,7.008-5.179,7.963-9.425L64.137,57.256z M64.349,54.886l0.002-10.042
		l1.034,0.323c2.346,0.734,3.922,2.864,3.922,5.3c0,2.44-1.58,4.57-3.93,5.301l-1.051,0.327L64.349,54.886z"/>
	<path d="M67.713,50.467c0-1.349-0.681-2.567-1.77-3.289v6.576C67.034,53.033,67.713,51.817,67.713,50.467z"/>
	<path d="M51.659,20c-16.569,0-30,13.431-30,30s13.431,30,30,30s30-13.431,30-30S68.228,20,51.659,20z M68.596,67.158
		c1.22,0,2.212,0.992,2.212,2.212c0,1.22-0.992,2.212-2.212,2.212H33.394c-1.22,0-2.212-0.992-2.212-2.212
		c0-1.22,0.992-2.212,2.212-2.212h9.107c-3.998-2.753-6.453-7.303-6.453-12.294V42.127c0-1.22,0.992-2.212,2.211-2.212h4.676V30.63
		c0-1.22,0.992-2.212,2.212-2.212c1.219,0,2.211,0.992,2.211,2.212v9.286h1.426V30.63c0-1.22,0.992-2.212,2.212-2.212
		c1.22,0,2.211,0.992,2.211,2.212v9.286h1.226V30.63c0-1.22,0.992-2.212,2.211-2.212c1.22,0,2.212,0.992,2.212,2.212v9.286h4.877
		c1.219,0,2.21,0.992,2.21,2.212v0.241c3.625,0.988,6.193,4.294,6.193,8.099c0,3.96-2.841,7.391-6.692,8.195
		c-0.914,3.475-3.047,6.481-5.961,8.496H68.596z"/>
</g>
</svg>
