<?xml version="1.0" encoding="utf-8"?>
<!-- Generator: Adobe Illustrator 16.0.0, SVG Export Plug-In . SVG Version: 6.00 Build 0)  -->
<!DOCTYPE svg PUBLIC "-//W3C//DTD SVG 1.1//EN" "http://www.w3.org/Graphics/SVG/1.1/DTD/svg11.dtd">
<svg version="1.1" id="Layer_1" xmlns="http://www.w3.org/2000/svg" xmlns:xlink="http://www.w3.org/1999/xlink" x="0px" y="0px"
	 width="100px" height="100px" viewBox="0 0 100 100" enable-background="new 0 0 100 100" xml:space="preserve">
<g>
	<polygon points="54.067,46.755 52.187,52.548 46.1,52.548 51.022,56.126 49.141,61.918 54.065,58.338 58.993,61.918 57.111,56.126 
		62.036,52.548 55.949,52.548 	"/>
	<path d="M35.707,28.25v51.327l17.751-7.018c0.382-0.152,0.837-0.148,1.218-0.001l17.753,7.019V28.25H35.707z M63.502,53.955
		l-4.039,2.935l1.543,4.749c0.254,0.777-0.021,1.625-0.685,2.106c-0.333,0.237-0.713,0.36-1.106,0.36
		c-0.393,0-0.786-0.128-1.106-0.359l-4.043-2.936l-4.037,2.934c-0.659,0.474-1.567,0.47-2.214,0.002
		c-0.663-0.479-0.939-1.326-0.687-2.106l1.543-4.75l-4.038-2.936c-0.661-0.48-0.937-1.325-0.685-2.104
		c0.255-0.78,0.975-1.303,1.792-1.303h4.993l1.541-4.747c0.24-0.741,0.961-1.238,1.793-1.238c0.831,0,1.552,0.498,1.793,1.237
		l1.542,4.748h4.993c0.822,0,1.542,0.525,1.792,1.307C64.439,52.627,64.165,53.474,63.502,53.955z"/>
</g>
</svg>
