<?xml version="1.0" encoding="utf-8"?>
<!-- Generator: Adobe Illustrator 17.0.0, SVG Export Plug-In . SVG Version: 6.00 Build 0)  -->
<!DOCTYPE svg PUBLIC "-//W3C//DTD SVG 1.1//EN" "http://www.w3.org/Graphics/SVG/1.1/DTD/svg11.dtd">
<svg version="1.1" id="Layer_1" xmlns="http://www.w3.org/2000/svg" xmlns:xlink="http://www.w3.org/1999/xlink" x="0px" y="0px"
	 width="100px" height="100px" viewBox="0 0 100 100" enable-background="new 0 0 100 100" xml:space="preserve">
<g>
	<path d="M68.808,51.756c-0.242-5.404-2.411-10.313-5.837-14.056L48.914,51.756H68.808z M60.431,47.695L52.656,51l-0.783-1.84
		l7.775-3.305L60.431,47.695z"/>
	<path d="M45.5,75.073V55.17L31.434,69.236C35.179,72.664,40.093,74.834,45.5,75.073z M45.496,58.053l-3.162,7.834l-1.855-0.748
		l3.162-7.834L45.496,58.053z"/>
	<path d="M45.5,50.342v-3.844l-1.783,0.757l-3.304-7.775l1.84-0.781L45.5,46.34V30.457c-5.403,0.239-10.313,2.405-14.056,5.828
		L45.5,50.342z"/>
	<path d="M41.109,53.756l0.703,1.655l-7.775,3.304l-0.781-1.84l7.341-3.119H24.191c0.237,5.406,2.404,10.32,5.829,14.066
		l14.066-14.066H41.109z"/>
	<path d="M41.706,49.376l-0.63,1.564l-7.834-3.162l0.748-1.855l7.148,2.885L30.03,37.699c-3.427,3.743-5.596,8.653-5.838,14.057
		h19.894L41.706,49.376z"/>
	<path d="M53.272,65.092l-1.84,0.781l-3.304-7.775l1.614-0.685L47.5,55.17v19.903c5.407-0.24,10.321-2.409,14.066-5.838
		l-11.36-11.36L53.272,65.092z"/>
	<path d="M47.5,30.457v19.885l14.056-14.056C57.813,32.862,52.903,30.696,47.5,30.457z M48.189,46.519l3.161-7.835l1.855,0.748
		l-3.161,7.835L48.189,46.519z"/>
	<path d="M52.917,53.756l7.527,3.037l-0.748,1.855l-7.834-3.161l0.698-1.731h-3.645L62.98,67.821
		c3.425-3.746,5.591-8.659,5.828-14.065H52.917z"/>
	<path d="M46.5,21.766c-17.094,0-31,13.906-31,31s13.906,31,31,31s31-13.906,31-31S63.594,21.766,46.5,21.766z M46.5,77.099
		c-13.418,0-24.334-10.916-24.334-24.333c0-13.418,10.916-24.334,24.334-24.334c13.417,0,24.333,10.916,24.333,24.334
		C70.833,66.183,59.917,77.099,46.5,77.099z"/>
</g>
</svg>
