<?xml version="1.0" encoding="utf-8"?>
<!-- Generator: Adobe Illustrator 17.0.0, SVG Export Plug-In . SVG Version: 6.00 Build 0)  -->
<!DOCTYPE svg PUBLIC "-//W3C//DTD SVG 1.1//EN" "http://www.w3.org/Graphics/SVG/1.1/DTD/svg11.dtd">
<svg version="1.1" id="Layer_1" xmlns="http://www.w3.org/2000/svg" xmlns:xlink="http://www.w3.org/1999/xlink" x="0px" y="0px"
	 width="100px" height="100px" viewBox="0 0 100 100" enable-background="new 0 0 100 100" xml:space="preserve">
<g>
	<path d="M52,44c0-1.103-0.897-2-2-2s-2,0.897-2,2v4h4V44z"/>
	<polygon points="46,50 45,50 45,58 55,58 55,50 54,50 	"/>
	<path d="M50,19c-17.093,0-31,13.906-31,31c0,17.094,13.907,31,31,31s31-13.906,31-31C81,32.906,67.093,19,50,19z M57,60H43V48h3v-4
		c0-2.206,1.794-4,4-4s4,1.794,4,4v4h3V60z"/>
</g>
</svg>
