<?xml version="1.0" encoding="utf-8"?>
<!-- Generator: Adobe Illustrator 17.0.0, SVG Export Plug-In . SVG Version: 6.00 Build 0)  -->
<!DOCTYPE svg PUBLIC "-//W3C//DTD SVG 1.1//EN" "http://www.w3.org/Graphics/SVG/1.1/DTD/svg11.dtd">
<svg version="1.1" id="Layer_1" xmlns="http://www.w3.org/2000/svg" xmlns:xlink="http://www.w3.org/1999/xlink" x="0px" y="0px"
	 width="100px" height="100px" viewBox="0 0 100 100" enable-background="new 0 0 100 100" xml:space="preserve">
<path d="M53.554,22.202c8.781,0,16.658,3.929,21.98,10.115L53.517,49.951L30.506,33.629C35.809,26.69,44.166,22.202,53.554,22.202z"
	/>
<path d="M24.554,51.202c0-5.886,1.768-11.366,4.793-15.944l22.96,16.285L40.827,77.253C31.2,72.531,24.554,62.629,24.554,51.202z"/>
<path d="M53.554,80.202c-3.855,0-7.533-0.762-10.9-2.134l11.715-26.237l22.424-17.959c3.617,4.838,5.762,10.838,5.762,17.33
	C82.554,67.192,69.544,80.202,53.554,80.202z"/>
</svg>
