<?xml version="1.0" encoding="utf-8"?>
<!-- Generator: Adobe Illustrator 17.0.0, SVG Export Plug-In . SVG Version: 6.00 Build 0)  -->
<!DOCTYPE svg PUBLIC "-//W3C//DTD SVG 1.1//EN" "http://www.w3.org/Graphics/SVG/1.1/DTD/svg11.dtd">
<svg version="1.1" id="Layer_1" xmlns="http://www.w3.org/2000/svg" xmlns:xlink="http://www.w3.org/1999/xlink" x="0px" y="0px"
	 width="100px" height="100px" viewBox="0 0 100 100" enable-background="new 0 0 100 100" xml:space="preserve">
<g>
	<path d="M59.232,53.141c-2.184,0-3.961,1.776-3.961,3.96s1.777,3.961,3.961,3.961s3.961-1.777,3.961-3.961
		S61.416,53.141,59.232,53.141z"/>
	<path d="M45.727,39.506c-2.184,0-3.961,1.776-3.961,3.96c0,2.184,1.777,3.961,3.961,3.961c2.185,0,3.961-1.777,3.961-3.961
		C49.688,41.282,47.912,39.506,45.727,39.506z"/>
	<path d="M52.479,30.234c-11.02,0-19.985,8.965-19.985,19.985c0,11.019,8.965,19.982,19.985,19.982
		c11.021,0,19.986-8.964,19.986-19.982C72.465,39.199,63.499,30.234,52.479,30.234z M45.727,49.427
		c-3.287,0-5.961-2.674-5.961-5.961c0-3.286,2.674-5.96,5.961-5.96s5.961,2.674,5.961,5.96
		C51.688,46.753,49.014,49.427,45.727,49.427z M59.232,63.062c-3.287,0-5.961-2.674-5.961-5.961c0-3.286,2.674-5.96,5.961-5.96
		s5.961,2.674,5.961,5.96C65.193,60.388,62.52,63.062,59.232,63.062z"/>
	<path d="M52.479,23.045c-14.983,0-27.173,12.19-27.173,27.174s12.19,27.173,27.173,27.173s27.174-12.189,27.174-27.173
		S67.462,23.045,52.479,23.045z M52.479,72.201c-12.123,0-21.985-9.861-21.985-21.982c0-12.123,9.863-21.985,21.985-21.985
		c12.123,0,21.986,9.862,21.986,21.985C74.465,62.34,64.602,72.201,52.479,72.201z"/>
</g>
</svg>
