<?xml version="1.0" encoding="utf-8"?>
<!-- Generator: Adobe Illustrator 17.0.0, SVG Export Plug-In . SVG Version: 6.00 Build 0)  -->
<!DOCTYPE svg PUBLIC "-//W3C//DTD SVG 1.1//EN" "http://www.w3.org/Graphics/SVG/1.1/DTD/svg11.dtd">
<svg version="1.1" id="Layer_1" xmlns="http://www.w3.org/2000/svg" xmlns:xlink="http://www.w3.org/1999/xlink" x="0px" y="0px"
	 width="100px" height="100px" viewBox="0 0 100 100" enable-background="new 0 0 100 100" xml:space="preserve">
<path d="M46.667,81.644c-12.551,0-23.261-8.016-27.29-19.195l33.795,0.066l-6.057,6.057l1.522,1.522l8.649-8.65l-8.8-8.8
	l-1.522,1.522l6.197,6.198l-34.462-0.068c-0.668-2.439-1.032-5.003-1.032-7.651c0-15.991,13.009-29,29-29
	c12.55,0,23.261,8.015,27.29,19.195l-33.626-0.065l6.057-6.057l-1.522-1.522l-8.649,8.65l8.8,8.8l1.522-1.522l-6.197-6.198
	l34.293,0.068c0.668,2.44,1.032,5.004,1.032,7.653C75.667,68.634,62.657,81.644,46.667,81.644z"/>
</svg>
