<?xml version="1.0" encoding="utf-8"?>
<!-- Generator: Adobe Illustrator 17.0.0, SVG Export Plug-In . SVG Version: 6.00 Build 0)  -->
<!DOCTYPE svg PUBLIC "-//W3C//DTD SVG 1.1//EN" "http://www.w3.org/Graphics/SVG/1.1/DTD/svg11.dtd">
<svg version="1.1" id="Layer_1" xmlns="http://www.w3.org/2000/svg" xmlns:xlink="http://www.w3.org/1999/xlink" x="0px" y="0px"
	 width="100px" height="100px" viewBox="0 0 100 100" enable-background="new 0 0 100 100" xml:space="preserve">
<g>
	<path d="M53.181,32.517c-5.119,0-9.284,4.165-9.284,9.285s4.165,9.285,9.284,9.285c5.12,0,9.285-4.165,9.285-9.285
		C62.465,36.682,58.3,32.517,53.181,32.517z M53.181,48.531c-3.709,0-6.727-3.019-6.727-6.73c0-3.709,3.018-6.728,6.727-6.728
		c3.71,0,6.728,3.018,6.728,6.728C59.908,45.512,56.891,48.531,53.181,48.531z"/>
	<path d="M53.181,13.614c-14.365,0-26.052,11.687-26.052,26.052c0,12.839,19.143,39.556,22.981,44.782l0.856,1.163
		c0.515,0.704,1.343,1.124,2.215,1.124c0.873,0,1.7-0.419,2.212-1.118l0.859-1.169c2.353-3.199,22.98-31.633,22.98-44.782
		C79.232,25.301,67.546,13.614,53.181,13.614z M53.181,53.086c-6.222,0-11.284-5.062-11.284-11.285s5.062-11.285,11.284-11.285
		c6.222,0,11.284,5.062,11.285,11.285C64.466,48.023,59.403,53.086,53.181,53.086z"/>
	<path d="M53.181,37.074c-2.606,0-4.727,2.121-4.727,4.728c0,2.608,2.121,4.73,4.727,4.73s4.728-2.122,4.728-4.73
		C57.908,39.194,55.787,37.074,53.181,37.074z"/>
</g>
</svg>
