<?xml version="1.0" encoding="utf-8"?>
<!-- Generator: Adobe Illustrator 17.0.0, SVG Export Plug-In . SVG Version: 6.00 Build 0)  -->
<!DOCTYPE svg PUBLIC "-//W3C//DTD SVG 1.1//EN" "http://www.w3.org/Graphics/SVG/1.1/DTD/svg11.dtd">
<svg version="1.1" id="Layer_1" xmlns="http://www.w3.org/2000/svg" xmlns:xlink="http://www.w3.org/1999/xlink" x="0px" y="0px"
	 width="100px" height="100px" viewBox="0 0 100 100" enable-background="new 0 0 100 100" xml:space="preserve">
<g>
	<path d="M69.885,51.652H57.992l-5.409-10.701c-0.397-0.784-1.409-1.125-2.204-0.723c-0.806,0.408-1.13,1.396-0.723,2.202
		l4.662,9.223h-13.29v-1.899c0-0.904-0.735-1.639-1.639-1.639c-0.904,0-1.64,0.735-1.64,1.639v7.078c0,0.903,0.736,1.639,1.64,1.639
		c0.904,0,1.639-0.735,1.639-1.639v-1.901h13.623l-4.995,9.884c-0.408,0.807-0.083,1.795,0.723,2.204
		c0.781,0.396,1.807,0.062,2.203-0.725l5.743-11.361h11.559c0.903,0,1.639-0.735,1.639-1.64S70.788,51.652,69.885,51.652z"/>
	<path d="M54.637,22.623c-17.093,0-31,13.906-31,31c0,17.094,13.906,31,31,31c17.094,0,31-13.906,31-31
		C85.637,36.529,71.73,22.623,54.637,22.623z M69.885,56.933H59.557l-5.188,10.265c-0.624,1.231-1.869,1.996-3.25,1.996
		c-0.577,0-1.129-0.132-1.642-0.391c-1.79-0.907-2.509-3.101-1.605-4.891l3.528-6.981h-8.372c-0.052,1.961-1.664,3.54-3.637,3.54
		c-2.007,0-3.64-1.632-3.64-3.639v-7.078c0-2.006,1.633-3.639,3.64-3.639c1.973,0,3.583,1.578,3.637,3.538h8.039l-3.195-6.321
		c-0.905-1.791-0.185-3.983,1.605-4.889c0.507-0.256,1.075-0.392,1.64-0.392c1.382,0,2.627,0.765,3.251,1.997l4.854,9.604h10.662
		c2.007,0,3.639,1.633,3.639,3.641C73.523,55.3,71.892,56.933,69.885,56.933z"/>
</g>
</svg>
