<?xml version="1.0" encoding="utf-8"?>
<!-- Generator: Adobe Illustrator 17.0.0, SVG Export Plug-In . SVG Version: 6.00 Build 0)  -->
<!DOCTYPE svg PUBLIC "-//W3C//DTD SVG 1.1//EN" "http://www.w3.org/Graphics/SVG/1.1/DTD/svg11.dtd">
<svg version="1.1" id="Layer_1" xmlns="http://www.w3.org/2000/svg" xmlns:xlink="http://www.w3.org/1999/xlink" x="0px" y="0px"
	 width="100px" height="100px" viewBox="0 0 100 100" enable-background="new 0 0 100 100" xml:space="preserve">
<g>
	<path d="M75.185,38.777l-0.29-0.02l-5.236-3.858l-0.104-0.272c-1.834-4.747-6.511-7.937-11.636-7.937
		c-1.203,0-2.398,0.176-3.554,0.524c-3.639,1.096-6.538,3.748-7.956,7.274l-0.066,0.166l-2.813,3.104l-2.743,1.426
		c-2.867,1.756-5.221,4.289-6.748,7.288l-0.11,0.216l-4.49,3.232l-0.239,0.036c-0.521,0.078-1.033,0.192-1.521,0.339
		c-2.793,0.842-5.094,2.726-6.479,5.304s-1.683,5.536-0.841,8.33c1.381,4.585,5.692,7.787,10.482,7.787
		c1.063,0,2.123-0.157,3.149-0.466c0.489-0.147,0.977-0.334,1.451-0.557l0.22-0.104l5.529,0.213l0.211,0.119
		c4.355,2.458,9.54,3.031,14.326,1.593c4.578-1.38,8.385-4.434,10.718-8.599l0.149-0.269l6.079-3.047l0.304,0.04
		c1.533,0.2,3.086,0.072,4.579-0.376c2.808-0.847,5.119-2.739,6.511-5.329c1.391-2.591,1.691-5.564,0.846-8.372
		C83.582,42.147,79.764,39.091,75.185,38.777z M82.306,53.991c-1.139,2.119-3.03,3.668-5.324,4.359
		c-0.848,0.255-1.72,0.384-2.593,0.384c-0.384,0-0.771-0.025-1.149-0.074l-0.913-0.121l-7.18,3.599L64.7,62.94
		c-2.078,3.711-5.47,6.432-9.548,7.661c-1.53,0.459-3.116,0.692-4.716,0.692c-2.82,0-5.604-0.73-8.052-2.111l-0.633-0.357
		l-6.5-0.251l-0.662,0.312c-0.381,0.179-0.777,0.331-1.175,0.451c-0.842,0.253-1.708,0.381-2.574,0.381
		c-3.916,0-7.438-2.617-8.567-6.364c-0.688-2.282-0.443-4.699,0.688-6.807c1.131-2.108,3.012-3.647,5.292-4.335
		c0.397-0.119,0.815-0.212,1.244-0.276l0.717-0.108l5.276-3.798l0.33-0.648c1.349-2.649,3.406-4.879,5.953-6.454l2.997-1.559
		l3.295-3.636l0.199-0.497c1.189-2.96,3.623-5.185,6.677-6.105c0.968-0.292,1.969-0.439,2.977-0.439
		c4.306,0,8.231,2.676,9.769,6.654l0.314,0.818l6.177,4.551l0.87,0.059c3.741,0.256,6.861,2.756,7.95,6.37
		C83.689,49.438,83.443,51.871,82.306,53.991z"/>
	<path d="M88.742,45.412c-1.717-5.7-6.536-9.781-12.372-10.535l-3.439-2.536c-2.632-5.795-8.592-9.651-15.013-9.651
		c-1.594,0-3.178,0.233-4.707,0.694c-4.619,1.392-8.354,4.696-10.295,9.094l-1.87,2.063l-2.167,1.129l-0.12,0.068
		c-3.337,2.042-6.071,4.889-7.932,8.254l-2.974,2.14c-0.454,0.092-0.9,0.204-1.329,0.334c-3.817,1.149-6.959,3.721-8.849,7.24
		c-1.889,3.52-2.296,7.56-1.147,11.376c1.886,6.261,7.771,10.634,14.312,10.634c1.454,0,2.901-0.214,4.3-0.635
		c0.433-0.13,0.866-0.283,1.294-0.458l3.659,0.141c3.195,1.666,6.745,2.544,10.299,2.544h0.001c2.186-0.001,4.368-0.325,6.485-0.964
		c5.262-1.584,9.705-5.001,12.573-9.654l3.967-1.989c0.324,0.021,0.649,0.032,0.972,0.032c1.46,0,2.912-0.215,4.317-0.639
		c3.831-1.153,6.985-3.733,8.882-7.267C89.487,53.298,89.896,49.243,88.742,45.412z M85.829,55.883
		c-1.644,3.062-4.377,5.299-7.696,6.298c-1.662,0.501-3.388,0.663-5.105,0.481l-4.991,2.502c-2.599,4.482-6.754,7.768-11.732,9.267
		c-1.934,0.583-3.922,0.878-5.91,0.879c-3.381,0-6.751-0.872-9.762-2.524l-4.567-0.176c-0.491,0.219-0.994,0.406-1.499,0.558
		c-1.213,0.365-2.467,0.551-3.726,0.551c-5.666,0-10.764-3.787-12.397-9.211c-0.996-3.305-0.643-6.804,0.994-9.853
		s4.358-5.276,7.664-6.271c0.502-0.152,1.025-0.274,1.557-0.364l3.71-2.67c1.696-3.234,4.263-5.962,7.434-7.903l2.485-1.294
		l2.334-2.576c1.669-4.01,5-7.02,9.166-8.275c1.342-0.404,2.731-0.609,4.13-0.609c5.846,0,11.189,3.581,13.392,8.941l4.307,3.174
		c5.286,0.479,9.667,4.056,11.211,9.183C87.827,49.308,87.473,52.822,85.829,55.883z"/>
</g>
</svg>
