<?xml version="1.0" encoding="utf-8"?>
<!-- Generator: Adobe Illustrator 17.0.0, SVG Export Plug-In . SVG Version: 6.00 Build 0)  -->
<!DOCTYPE svg PUBLIC "-//W3C//DTD SVG 1.1//EN" "http://www.w3.org/Graphics/SVG/1.1/DTD/svg11.dtd">
<svg version="1.1" id="Layer_1" xmlns="http://www.w3.org/2000/svg" xmlns:xlink="http://www.w3.org/1999/xlink" x="0px" y="0px"
	 width="100px" height="100px" viewBox="0 0 100 100" enable-background="new 0 0 100 100" xml:space="preserve">
<g>
	<path d="M57.943,88.206V69.279l-4.428-6.791V44.752l12.104-4.693V62.43l-5.33,6.809l0.72,18.176
		C60.003,87.721,58.984,87.991,57.943,88.206z"/>
</g>
<g>
	<rect x="31.666" y="41.582" width="2.657" height="20.076"/>
</g>
<g>
	<rect x="36.666" y="41.582" width="2.657" height="20.076"/>
</g>
<g>
	<rect x="41.666" y="41.582" width="2.657" height="20.076"/>
</g>
<path d="M51.001,18.856c-19.591,0-35.529,15.938-35.529,35.528c0,13.913,8.228,26.617,20.962,32.365l0.232,0.105V63.021h-6.362
	V40.219h15.445v22.802h-6.426v24.865c3.817,1.338,7.742,2.023,11.677,2.023c1.447,0,2.945-0.112,4.716-0.354l0.865-0.118V69.683
	l-4.43-6.792V43.817l14.828-5.748v24.833l-5.312,6.786l0.729,18.335l1.302-0.5c13.655-5.248,22.829-18.566,22.829-33.14
	C86.528,34.793,70.591,18.856,51.001,18.856z"/>
</svg>
