<?xml version="1.0" encoding="utf-8"?>
<!-- Generator: Adobe Illustrator 17.0.0, SVG Export Plug-In . SVG Version: 6.00 Build 0)  -->
<!DOCTYPE svg PUBLIC "-//W3C//DTD SVG 1.1//EN" "http://www.w3.org/Graphics/SVG/1.1/DTD/svg11.dtd">
<svg version="1.1" id="Layer_1" xmlns="http://www.w3.org/2000/svg" xmlns:xlink="http://www.w3.org/1999/xlink" x="0px" y="0px"
	 width="100px" height="100px" viewBox="0 0 100 100" enable-background="new 0 0 100 100" xml:space="preserve">
<g>
	<path d="M52.564,33.083c-1.056-3.456-2.084-4.859-2.5-5.239c-0.417,0.38-1.445,1.783-2.501,5.239
		c0.807,0.552,1.644,1.159,2.501,1.812C50.915,34.247,51.752,33.641,52.564,33.083z"/>
	<path d="M63.739,39.786c1.647-3.095,1.947-4.807,1.94-5.422c-0.029-0.001-0.061-0.002-0.095-0.002c-1.201,0-3.14,0.675-5.387,1.868
		c0.188,1.01,0.354,2.036,0.493,3.066C61.728,39.437,62.747,39.601,63.739,39.786z"/>
	<path d="M53.352,46.638c-0.458-0.458-0.914-0.901-1.368-1.333c-1.254-0.031-2.583-0.032-3.837,0
		c-0.454,0.432-0.909,0.875-1.367,1.333c-0.464,0.464-0.905,0.921-1.336,1.375c-0.017,0.625-0.028,1.258-0.028,1.912
		c0,0.654,0.012,1.289,0.028,1.915c0.43,0.453,0.87,0.909,1.333,1.372c0.458,0.458,0.915,0.9,1.369,1.332
		c1.255,0.035,2.585,0.035,3.84,0c0.454-0.432,0.91-0.876,1.368-1.333c0.462-0.461,0.9-0.917,1.33-1.37
		c0.017-0.626,0.028-1.261,0.028-1.916c0-0.654-0.012-1.289-0.027-1.915C54.254,47.557,53.813,47.101,53.352,46.638z"/>
	<path d="M47.564,66.769c1.055,3.454,2.083,4.857,2.5,5.237c0.416-0.381,1.445-1.783,2.5-5.238
		c-0.805-0.552-1.641-1.157-2.499-1.812C49.213,65.605,48.376,66.212,47.564,66.769z"/>
	<path d="M36.39,60.063c-1.647,3.095-1.947,4.806-1.94,5.42c0.029,0.001,0.062,0.002,0.096,0.002c1.205,0,3.143-0.674,5.383-1.864
		c-0.188-1.009-0.353-2.035-0.493-3.067C38.401,60.413,37.381,60.249,36.39,60.063z"/>
	<path d="M39.435,39.295c0.141-1.037,0.306-2.063,0.493-3.066c-2.244-1.192-4.182-1.867-5.384-1.867c-0.034,0-0.066,0-0.095,0.002
		c-0.007,0.613,0.291,2.324,1.938,5.422C37.391,39.599,38.411,39.435,39.435,39.295z"/>
	<path d="M33.224,47.423c-3.454,1.056-4.858,2.083-5.24,2.5c0.382,0.417,1.787,1.447,5.244,2.502
		c0.573-0.837,1.178-1.673,1.807-2.499C34.4,49.092,33.794,48.254,33.224,47.423z"/>
	<path d="M60.693,60.554c-0.14,1.036-0.306,2.063-0.493,3.068c2.24,1.189,4.18,1.864,5.386,1.866c0.034,0,0.064-0.001,0.093-0.002
		c0.007-0.614-0.292-2.326-1.939-5.422C62.746,60.25,61.727,60.413,60.693,60.554z"/>
	<path d="M65.095,49.927c0.635,0.835,1.239,1.671,1.808,2.498c3.456-1.055,4.861-2.084,5.243-2.501
		c-0.382-0.417-1.787-1.444-5.241-2.5C66.332,48.258,65.727,49.096,65.095,49.927z"/>
	<path d="M50.066,19.925c-16.569,0-30,13.431-30,30s13.431,30,30,30s30-13.431,30-30S66.634,19.925,50.066,19.925z M70.454,70.316
		c-0.842,0.842-2.37,1.846-4.87,1.846c-1.979,0-4.364-0.654-7.101-1.946c-2.515,7.027-5.937,8.545-8.419,8.545
		c-2.483,0-5.904-1.518-8.419-8.544c-2.735,1.291-5.119,1.944-7.098,1.944c-2.502,0-4.03-1.005-4.872-1.847
		c-1.753-1.754-3.098-5.241,0.082-11.977c-7.011-2.513-8.527-5.933-8.527-8.415c0-2.48,1.515-5.897,8.526-8.41
		c-3.18-6.737-1.834-10.224-0.081-11.978c0.843-0.843,2.372-1.847,4.87-1.847c1.98,0,4.365,0.655,7.101,1.948
		c2.516-7.029,5.937-8.547,8.419-8.547s5.904,1.518,8.419,8.547c2.735-1.293,5.12-1.948,7.102-1.948
		c2.499,0,4.028,1.004,4.871,1.847c1.753,1.754,3.099,5.241-0.083,11.978c7.014,2.513,8.527,5.931,8.527,8.412
		c-0.001,2.48-1.517,5.897-8.529,8.411C73.553,65.073,72.208,68.562,70.454,70.316z"/>
	<path d="M68.668,43.047l-1.127-0.36l0.542-1.051c1.808-3.504,3.441-8.203,0.96-10.687c-0.575-0.575-1.643-1.261-3.457-1.261
		c-1.88,0-4.379,0.774-7.227,2.239l-1.051,0.541l-0.359-1.126c-1.199-3.765-3.368-8.253-6.884-8.253s-5.685,4.488-6.885,8.253
		l-0.359,1.126l-1.051-0.541c-2.847-1.465-5.345-2.239-7.225-2.239c-1.814,0-2.88,0.686-3.456,1.261
		c-2.482,2.483-0.849,7.182,0.958,10.687l0.542,1.051l-1.126,0.36c-3.755,1.199-8.231,3.365-8.232,6.876
		c0.001,3.515,4.479,5.682,8.234,6.88l1.127,0.36l-0.542,1.052c-1.808,3.503-3.441,8.201-0.959,10.685
		c0.575,0.575,1.641,1.261,3.457,1.261c1.878,0,4.375-0.773,7.222-2.236l1.051-0.54l0.359,1.126c1.2,3.764,3.369,8.25,6.885,8.25
		c3.516,0,5.685-4.487,6.884-8.251l0.359-1.126l1.051,0.54c2.849,1.465,5.348,2.238,7.226,2.238c1.815,0,2.881-0.686,3.456-1.26
		c2.482-2.485,0.849-7.185-0.959-10.689l-0.542-1.051l1.127-0.359c3.756-1.199,8.233-3.366,8.235-6.878
		C76.901,46.412,72.424,44.246,68.668,43.047z M32.98,32.839c0.316-0.317,0.843-0.478,1.563-0.478c2.139,0,4.983,1.341,6.993,2.467
		l0.634,0.355l-0.142,0.713c-0.284,1.427-0.523,2.913-0.709,4.415l-0.096,0.774l-0.774,0.096c-1.48,0.183-2.959,0.42-4.396,0.706
		l-0.714,0.142l-0.354-0.635C33.849,39.354,31.377,34.44,32.98,32.839z M40.889,45.028c-0.009,0.131-0.014,0.264-0.019,0.396
		l-0.034,0.682l-1.537,1.72l-0.738-0.983c-0.276-0.368-0.533-0.727-0.787-1.083l-0.93-1.302l1.571-0.275
		c0.441-0.074,0.878-0.147,1.336-0.211l1.217-0.17L40.889,45.028z M40.96,56.051l-1.21-0.173c-0.458-0.065-0.896-0.139-1.33-0.211
		l-1.576-0.263l0.925-1.303c0.256-0.361,0.516-0.723,0.794-1.093l0.735-0.977l1.538,1.71L40.96,56.051z M25.903,49.923
		c0-2.263,5.222-3.99,7.467-4.627l0.701-0.199l0.404,0.606c0.795,1.193,1.673,2.407,2.61,3.609l0.479,0.615l-0.479,0.615
		c-0.924,1.186-1.801,2.397-2.607,3.604l-0.404,0.605l-0.7-0.199C31.127,53.916,25.903,52.189,25.903,49.923z M41.538,65.021
		c-2.006,1.125-4.848,2.465-6.992,2.465c-0.722,0-1.249-0.16-1.566-0.478c-1.603-1.601,0.871-6.514,2.009-8.552l0.355-0.636
		l0.714,0.143c1.41,0.282,2.888,0.52,4.393,0.706l0.774,0.096l0.096,0.773c0.184,1.491,0.422,2.977,0.709,4.415l0.142,0.713
		L41.538,65.021z M55.806,38.271c0.072,0.438,0.145,0.877,0.212,1.338l0.176,1.223L54.96,40.75c-0.14-0.009-0.279-0.015-0.42-0.021
		l-0.641-0.03l-1.729-1.545l0.977-0.731c0.367-0.276,0.731-0.545,1.092-0.802l1.306-0.932L55.806,38.271z M45.435,33.23
		c0.637-2.245,2.363-7.466,4.629-7.466c2.265,0,3.992,5.221,4.628,7.466l0.199,0.702l-0.607,0.404
		c-1.153,0.767-2.366,1.646-3.605,2.611l-0.615,0.479l-0.614-0.479c-1.254-0.977-2.467-1.855-3.605-2.61l-0.609-0.404L45.435,33.23z
		 M44.111,39.61c0.066-0.462,0.138-0.905,0.211-1.343l0.266-1.581l1.303,0.935c0.359,0.258,0.723,0.526,1.09,0.801l0.978,0.732
		l-1.727,1.543l-2.296,0.13L44.111,39.61z M44.324,61.584c-0.074-0.44-0.146-0.882-0.212-1.344l-0.174-1.215l2.293,0.127
		l1.732,1.537l-0.977,0.737c-0.367,0.277-0.733,0.546-1.093,0.805l-1.305,0.936L44.324,61.584z M54.692,66.621
		c-0.637,2.244-2.363,7.465-4.628,7.465c-2.266,0-3.991-5.22-4.628-7.465l-0.199-0.701l0.608-0.404
		c1.151-0.765,2.364-1.643,3.605-2.61l0.614-0.479l0.614,0.479c1.258,0.979,2.471,1.856,3.604,2.609l0.608,0.403L54.692,66.621z
		 M56.017,60.241c-0.066,0.461-0.139,0.902-0.211,1.339l-0.263,1.583l-1.306-0.934c-0.359-0.257-0.722-0.524-1.09-0.801
		l-0.979-0.733l1.73-1.547l2.294-0.118L56.017,60.241z M56.673,52.28l-0.012,0.381l-0.262,0.276
		c-0.526,0.558-1.062,1.119-1.634,1.689c-0.564,0.563-1.125,1.107-1.687,1.635l-0.276,0.26l-0.379,0.012
		c-0.771,0.022-1.55,0.04-2.36,0.04c-0.809,0-1.589-0.018-2.358-0.04l-0.38-0.012l-0.276-0.261c-0.56-0.528-1.122-1.07-1.687-1.635
		c-0.571-0.57-1.107-1.131-1.634-1.688l-0.262-0.277l-0.011-0.381c-0.022-0.77-0.04-1.548-0.04-2.354s0.017-1.583,0.04-2.351
		l0.011-0.38l0.261-0.277c0.528-0.56,1.066-1.121,1.638-1.693c0.564-0.565,1.125-1.107,1.686-1.636l0.277-0.262l0.381-0.01
		c1.539-0.043,3.173-0.041,4.71,0l0.382,0.01l0.278,0.263c0.56,0.528,1.122,1.071,1.687,1.636c0.57,0.571,1.108,1.131,1.636,1.689
		l0.262,0.277l0.011,0.381c0.021,0.768,0.038,1.546,0.038,2.353C56.712,50.733,56.695,51.512,56.673,52.28z M58.59,34.829
		c2.012-1.125,4.857-2.467,6.995-2.467c0.726,0,1.253,0.162,1.569,0.482c1.596,1.601-0.877,6.512-2.014,8.549l-0.354,0.636
		l-0.714-0.143c-1.411-0.281-2.89-0.519-4.396-0.706l-0.774-0.096l-0.095-0.774c-0.184-1.486-0.422-2.972-0.709-4.414l-0.143-0.713
		L58.59,34.829z M61.568,46.844l-0.736,0.979l-1.541-1.72l-0.124-2.3l1.21,0.169c0.455,0.063,0.89,0.136,1.322,0.208l1.576,0.264
		l-0.912,1.305C62.106,46.11,61.848,46.472,61.568,46.844z M63.297,55.4l-1.716,0.286c-0.394,0.066-0.791,0.132-1.205,0.189
		l-1.205,0.167l0.122-2.293l1.538-1.721l0.736,0.98c0.249,0.331,0.483,0.656,0.714,0.978L63.297,55.4z M67.15,67.009
		c-0.318,0.318-0.845,0.479-1.565,0.479c-2.146-0.003-4.988-1.343-6.993-2.467l-0.635-0.354l0.143-0.714
		c0.285-1.43,0.524-2.915,0.709-4.414l0.095-0.774l0.774-0.096c1.501-0.186,2.979-0.423,4.395-0.705l0.714-0.143l0.354,0.636
		C66.277,60.494,68.75,65.404,67.15,67.009z M66.756,54.553l-0.7,0.199l-0.404-0.606c-0.792-1.188-1.669-2.399-2.607-3.604
		l-0.479-0.614l0.479-0.615c0.931-1.195,1.809-2.409,2.609-3.609l0.404-0.605l0.701,0.199c2.245,0.637,7.468,2.364,7.468,4.627
		C74.227,52.189,69.002,53.916,66.756,54.553z"/>
</g>
</svg>
