<?xml version="1.0" encoding="utf-8"?>
<!-- Generator: Adobe Illustrator 17.0.0, SVG Export Plug-In . SVG Version: 6.00 Build 0)  -->
<!DOCTYPE svg PUBLIC "-//W3C//DTD SVG 1.1//EN" "http://www.w3.org/Graphics/SVG/1.1/DTD/svg11.dtd">
<svg version="1.1" id="Layer_1" xmlns="http://www.w3.org/2000/svg" xmlns:xlink="http://www.w3.org/1999/xlink" x="0px" y="0px"
	 width="100px" height="100px" viewBox="0 0 100 100" enable-background="new 0 0 100 100" xml:space="preserve">
<g>
	<path d="M30.232,37.602c-2.885,0-5.232,2.347-5.232,5.232s2.347,5.232,5.232,5.232s5.232-2.347,5.232-5.232
		S33.117,37.602,30.232,37.602z"/>
	<rect x="25" y="56.014" width="10.464" height="10.464"/>
	<path d="M15.304,26.822v52.492h66.771V26.822H15.304z M37.464,68.478H23V54.014h14.464V68.478z M30.232,50.065
		c-3.988,0-7.232-3.244-7.232-7.232s3.244-7.232,7.232-7.232s7.232,3.244,7.232,7.232S34.22,50.065,30.232,50.065z M74,67.602H50v-2
		h24V67.602z M74,57.602H50v-2h24V57.602z M74,47.602H50v-2h24V47.602z M74,37.602H50v-2h24V37.602z"/>
</g>
</svg>
