<?xml version="1.0" encoding="utf-8"?>
<!-- Generator: Adobe Illustrator 17.0.0, SVG Export Plug-In . SVG Version: 6.00 Build 0)  -->
<!DOCTYPE svg PUBLIC "-//W3C//DTD SVG 1.1//EN" "http://www.w3.org/Graphics/SVG/1.1/DTD/svg11.dtd">
<svg version="1.1" id="Layer_1" xmlns="http://www.w3.org/2000/svg" xmlns:xlink="http://www.w3.org/1999/xlink" x="0px" y="0px"
	 width="100px" height="100px" viewBox="0 0 100 100" enable-background="new 0 0 100 100" xml:space="preserve">
<g>
	<path d="M34.377,34.353v29.492l28.635-29.492H34.377z M36.377,36.354h21.906L36.377,58.915V36.354z"/>
	<path d="M64.377,64.95V35.819L36.092,64.95H64.377z M62.377,62.95H40.822l21.555-22.2V62.95z"/>
	<path d="M68.377,62.95V30.354h-32v-6.57h-6v6.57h-7.166v6h7.166v28.74l-7.546,7.772l4.307,4.178l7.859-8.094h27.381v6.57h6v-6.57
		h7.167v-6H68.377z M73.544,66.95h-7.167v6.57h-2v-6.57H34.15l-7.055,7.267l-1.436-1.393l6.718-6.919V34.353h-7.166v-2h7.166v-6.57
		h2v6.57h32V64.95h7.167V66.95z"/>
</g>
</svg>
