<?xml version="1.0" encoding="utf-8"?>
<!-- Generator: Adobe Illustrator 17.0.0, SVG Export Plug-In . SVG Version: 6.00 Build 0)  -->
<!DOCTYPE svg PUBLIC "-//W3C//DTD SVG 1.1//EN" "http://www.w3.org/Graphics/SVG/1.1/DTD/svg11.dtd">
<svg version="1.1" id="Layer_1" xmlns="http://www.w3.org/2000/svg" xmlns:xlink="http://www.w3.org/1999/xlink" x="0px" y="0px"
	 width="100px" height="100px" viewBox="0 0 100 100" enable-background="new 0 0 100 100" xml:space="preserve">
<g>
	<path d="M63.057,47.821c2.053-2.323,3.229-5.351,3.229-8.593c0-7.157-5.822-12.979-12.979-12.979s-12.98,5.822-12.98,12.979
		c0,2.943,2.394,5.337,5.337,5.337S51,42.171,51,39.228c0-1.271,1.035-2.304,2.307-2.304c1.271,0,2.305,1.034,2.305,2.304
		c0,1.271-1.034,2.306-2.305,2.306c-2.943,0-5.337,2.394-5.337,5.337v0.196C32.889,48.818,22.132,57.78,22.132,68.85
		c0,2.942,2.395,5.337,5.337,5.337h51.675c2.943,0,5.338-2.395,5.338-5.337C84.48,59.066,75.709,50.691,63.057,47.821z
		 M79.145,72.187H27.469c-1.84,0-3.337-1.497-3.337-3.337c0-10.381,11.041-18.852,25.838-19.965v-2.013
		c0-1.84,1.497-3.337,3.337-3.337c2.374,0,4.305-1.932,4.305-4.306c0-2.374-1.931-4.304-4.305-4.304
		c-2.375,0-4.307,1.931-4.307,4.304c0,1.84-1.497,3.337-3.337,3.337s-3.337-1.497-3.337-3.337c0-6.054,4.926-10.979,10.98-10.979
		c6.054,0,10.979,4.925,10.979,10.979c0,4.231-2.387,7.977-6.034,9.808c13.98,1.584,24.229,9.813,24.23,19.814
		C82.482,70.689,80.985,72.187,79.145,72.187z"/>
	<path d="M55.59,50.82l-0.946-0.051v-2.626l0.766-0.185c4.049-0.976,6.877-4.566,6.877-8.731c0-4.951-4.028-8.979-8.979-8.979
		c-4.952,0-8.98,4.028-8.98,8.979c0,0.737,0.6,1.337,1.337,1.337S47,39.965,47,39.228c0-3.476,2.829-6.304,6.307-6.304
		c3.477,0,6.305,2.828,6.305,6.304c0,3.477-2.828,6.306-6.305,6.306c-0.737,0-1.337,0.6-1.337,1.337v3.898l-0.946,0.051
		c-14.191,0.759-24.892,8.51-24.892,18.029c0,0.737,0.6,1.337,1.337,1.337h51.675c0.737,0,1.338-0.6,1.338-1.337
		C80.48,59.33,69.779,51.579,55.59,50.82z M28.152,68.187c0.502-8.135,10.211-14.687,22.979-15.369l2.176-0.117l2.177,0.117
		c12.765,0.683,22.475,7.235,22.979,15.369H28.152z"/>
</g>
</svg>
