<?xml version="1.0" encoding="utf-8"?>
<!-- Generator: Adobe Illustrator 17.0.0, SVG Export Plug-In . SVG Version: 6.00 Build 0)  -->
<!DOCTYPE svg PUBLIC "-//W3C//DTD SVG 1.1//EN" "http://www.w3.org/Graphics/SVG/1.1/DTD/svg11.dtd">
<svg version="1.1" id="Layer_1" xmlns="http://www.w3.org/2000/svg" xmlns:xlink="http://www.w3.org/1999/xlink" x="0px" y="0px"
	 width="100px" height="100px" viewBox="0 0 100 100" enable-background="new 0 0 100 100" xml:space="preserve">
<g>
	<path d="M72.677,47.278l-5.043-5.043l-4.242,4.243l12.285,12.285l12.577-12.577l-4.242-4.243l-5.335,5.335V30.271h-56.5v6h50.5
		V47.278z M24.177,34.271v-2h52.5v19.836l7.335-7.335l1.414,1.414l-9.749,9.749l-9.457-9.457l1.414-1.414l7.043,7.043V34.271H24.177
		z"/>
	<path d="M27.323,52.722l5.043,5.043l4.243-4.242L24.323,41.236L11.746,53.813l4.243,4.242l5.334-5.334v17.008h56.5v-6h-50.5V52.722
		z M75.823,65.729v2h-52.5V47.893l-7.334,7.334l-1.414-1.414l9.749-9.749l9.457,9.458l-1.414,1.414l-7.043-7.043v17.836H75.823z"/>
</g>
</svg>
