<?xml version="1.0" encoding="utf-8"?>
<!-- Generator: Adobe Illustrator 17.0.0, SVG Export Plug-In . SVG Version: 6.00 Build 0)  -->
<!DOCTYPE svg PUBLIC "-//W3C//DTD SVG 1.1//EN" "http://www.w3.org/Graphics/SVG/1.1/DTD/svg11.dtd">
<svg version="1.1" id="Layer_1" xmlns="http://www.w3.org/2000/svg" xmlns:xlink="http://www.w3.org/1999/xlink" x="0px" y="0px"
	 width="100px" height="100px" viewBox="0 0 100 100" enable-background="new 0 0 100 100" xml:space="preserve">
<g>
	<path d="M30.964,45.568c-7.408,7.408-7.408,19.462,0,26.87c7.408,7.408,19.462,7.408,26.87,0c7.408-7.408,7.408-19.462,0-26.87
		C50.427,38.16,38.373,38.16,30.964,45.568z M56.42,71.024c-3.205,3.205-7.474,4.971-12.021,4.971
		c-4.547,0-8.816-1.766-12.021-4.971c-6.628-6.629-6.628-17.413,0-24.042c3.206-3.205,7.475-4.97,12.021-4.97
		s8.816,1.765,12.021,4.97C63.049,53.61,63.048,64.396,56.42,71.024z"/>
	<path d="M60.333,29.918v6h2.909l-4.858,4.858c-4.004-3.076-8.912-4.75-14.016-4.75c-6.138,0-11.903,2.385-16.232,6.715
		c-4.338,4.337-6.727,10.113-6.727,16.264c0,6.149,2.389,11.925,6.727,16.263s10.114,6.728,16.264,6.728
		c6.149,0,11.926-2.39,16.263-6.728c8.233-8.232,8.955-21.175,1.966-30.25l4.787-4.787v3.09h6V29.918H60.333z M71.415,41.32h-2
		v-5.918l-9.495,9.495c7.486,8.232,7.278,21.007-0.672,28.956c-8.188,8.188-21.51,8.188-29.698,0c-8.188-8.188-8.188-21.51,0-29.698
		c7.949-7.949,20.725-8.157,28.956-0.672l9.564-9.565h-5.737v-2h9.082V41.32z"/>
</g>
</svg>
