<?xml version="1.0" encoding="utf-8"?>
<!-- Generator: Adobe Illustrator 17.0.0, SVG Export Plug-In . SVG Version: 6.00 Build 0)  -->
<!DOCTYPE svg PUBLIC "-//W3C//DTD SVG 1.1//EN" "http://www.w3.org/Graphics/SVG/1.1/DTD/svg11.dtd">
<svg version="1.1" id="Layer_1" xmlns="http://www.w3.org/2000/svg" xmlns:xlink="http://www.w3.org/1999/xlink" x="0px" y="0px"
	 width="100px" height="100px" viewBox="0 0 100 100" enable-background="new 0 0 100 100" xml:space="preserve">
<g>
	<g>
		<path d="M33.345,53.969l-0.865-0.664c-2.848-2.047-4.548-5.366-4.548-8.88c0.002-6.029,4.907-10.935,10.934-10.935
			c4.185,0,7.934,2.324,9.783,6.066l0.477,0.964l-0.997,0.405c-0.063,0.026-0.123,0.056-0.184,0.084l-0.178,0.084
			c-0.173,0.075-0.328,0.146-0.481,0.221c-0.307,0.15-0.604,0.314-0.896,0.486l-0.175,0.102c-0.065,0.038-0.131,0.074-0.194,0.116
			c-0.45,0.289-0.834,0.564-1.179,0.846c-0.39,0.328-0.717,0.632-1.056,0.981c-0.064,0.065-0.122,0.13-0.179,0.195l-0.128,0.142
			c-0.222,0.245-0.439,0.505-0.648,0.774c-0.098,0.127-0.196,0.261-0.293,0.398c-0.197,0.278-0.379,0.564-0.553,0.858l-0.08,0.132
			c-0.052,0.084-0.103,0.168-0.151,0.256c-0.256,0.469-0.462,0.902-0.63,1.317l-0.198,0.492l-0.518,0.112
			c-0.349,0.075-0.718,0.181-1.162,0.333c-0.077,0.026-0.145,0.053-0.212,0.079l-0.132,0.051c-0.263,0.102-0.527,0.214-0.784,0.339
			c-0.12,0.057-0.231,0.109-0.34,0.168c-0.291,0.155-0.569,0.32-0.841,0.499l-0.119,0.074c-0.381,0.258-0.694,0.502-1.003,0.771
			l-0.24,0.225c-0.212,0.199-0.419,0.404-0.616,0.621c-0.095,0.104-0.182,0.204-0.27,0.306c-0.184,0.221-0.367,0.461-0.542,0.708
			l-0.245,0.341L33.345,53.969z"/>
	</g>
	<g>
		<path d="M54.677,75.193C54.677,75.193,54.677,75.193,54.677,75.193c-2.721,0-5.265-1.145-7.166-3.223l-0.724-0.791l-0.93,0.534
			c-0.73,0.419-1.496,0.631-2.276,0.631c-2.549,0-4.623-2.075-4.623-4.625c0-0.508,0.097-1.023,0.298-1.576l0.187-0.515
			c-2.723-1.227-4.548-3.968-4.548-6.992v-0.214c0-1.547,0.507-3.011,1.465-4.235c1.302-1.854,3.388-3.04,5.692-3.211l0.946-0.07
			l0.247-0.915c0.991-3.665,4.042-6.463,7.773-7.127c3.388-0.606,6.679,0.518,9.001,3.058l0.723,0.791l0.93-0.534
			c0.731-0.419,1.497-0.631,2.277-0.631c2.549,0,4.623,2.075,4.623,4.625c0,0.509-0.098,1.024-0.299,1.577l-0.187,0.514
			c2.723,1.227,4.548,3.968,4.548,6.992v0.214c0,1.546-0.507,3.011-1.465,4.236c-1.303,1.854-3.389,3.04-5.692,3.21l-0.946,0.07
			L64.285,67.9c-0.991,3.665-4.042,6.463-7.772,7.128C55.897,75.138,55.279,75.193,54.677,75.193z"/>
	</g>
</g>
</svg>
