<?xml version="1.0" encoding="utf-8"?>
<!-- Generator: Adobe Illustrator 17.0.0, SVG Export Plug-In . SVG Version: 6.00 Build 0)  -->
<!DOCTYPE svg PUBLIC "-//W3C//DTD SVG 1.1//EN" "http://www.w3.org/Graphics/SVG/1.1/DTD/svg11.dtd">
<svg version="1.1" id="Layer_1" xmlns="http://www.w3.org/2000/svg" xmlns:xlink="http://www.w3.org/1999/xlink" x="0px" y="0px"
	 width="100px" height="100px" viewBox="0 0 100 100" enable-background="new 0 0 100 100" xml:space="preserve">
<g>
	<path d="M71.59,74.234H56.327c-1.377,0-2.612-0.82-3.146-2.091c-0.128-0.305-0.211-0.63-0.245-0.966
		c-0.107-1.013,0.241-2.015,0.958-2.745c0.987-1.004,1.531-2.33,1.531-3.735c0-1.084-0.327-2.13-0.946-3.024
		c-0.72-1.039-1.787-1.791-3.007-2.119c-0.93-0.25-1.827-0.25-2.757,0c-1.219,0.328-2.287,1.08-3.006,2.119
		c-0.619,0.895-0.946,1.94-0.946,3.024c0,1.405,0.543,2.731,1.53,3.734c0.718,0.73,1.066,1.732,0.959,2.75
		c-0.035,0.331-0.117,0.653-0.243,0.958c-0.536,1.274-1.771,2.095-3.148,2.095H28.597c-1.88,0-3.41-1.53-3.41-3.41V60.556
		c-1.47,0.607-3.054,0.924-4.659,0.924c-6.701,0-12.152-5.452-12.152-12.153s5.452-12.152,12.152-12.152
		c1.606,0,3.19,0.316,4.659,0.923V27.83c0-1.88,1.53-3.41,3.41-3.41H71.59c1.88,0,3.41,1.53,3.41,3.41v10.269
		c1.469-0.607,3.054-0.923,4.659-0.923c6.701,0,12.152,5.451,12.152,12.152S86.36,61.479,79.659,61.479
		c-1.605,0-3.189-0.316-4.659-0.924v10.267C75,72.704,73.47,74.234,71.59,74.234z"/>
</g>
</svg>
