<?xml version="1.0" encoding="utf-8"?>
<!-- Generator: Adobe Illustrator 17.0.0, SVG Export Plug-In . SVG Version: 6.00 Build 0)  -->
<!DOCTYPE svg PUBLIC "-//W3C//DTD SVG 1.1//EN" "http://www.w3.org/Graphics/SVG/1.1/DTD/svg11.dtd">
<svg version="1.1" id="Layer_1" xmlns="http://www.w3.org/2000/svg" xmlns:xlink="http://www.w3.org/1999/xlink" x="0px" y="0px"
	 width="100px" height="100px" viewBox="0 0 100 100" enable-background="new 0 0 100 100" xml:space="preserve">
<path d="M67.75,46.804c-1.532,0-2.974,0.376-4.253,1.03l-1.363-1.86l-1.779-10.703c-0.007-0.04-0.03-0.07-0.041-0.108
	c-0.019-0.066-0.04-0.129-0.072-0.189c-0.03-0.056-0.064-0.104-0.103-0.152c-0.042-0.052-0.084-0.099-0.135-0.142
	c-0.047-0.039-0.095-0.07-0.148-0.1c-0.059-0.034-0.117-0.062-0.182-0.083c-0.061-0.02-0.121-0.029-0.186-0.038
	c-0.041-0.005-0.077-0.024-0.119-0.024h-6.994c-0.553,0-1,0.448-1,1s0.447,1,1,1h6.147l0.64,3.847L47.123,45.24l-5.921-4.125
	c-0.028-0.02-0.061-0.023-0.09-0.039c-0.06-0.034-0.12-0.06-0.186-0.081c-0.066-0.021-0.131-0.034-0.199-0.04
	c-0.033-0.003-0.062-0.02-0.097-0.02H26.25c-0.553,0-1,0.448-1,1v3c0,0.05,0.021,0.092,0.028,0.14
	c0.01,0.066,0.017,0.131,0.039,0.193c0.022,0.062,0.055,0.115,0.088,0.17c0.033,0.055,0.062,0.108,0.104,0.155
	c0.043,0.049,0.094,0.086,0.146,0.125c0.05,0.038,0.098,0.076,0.155,0.104c0.06,0.03,0.125,0.045,0.191,0.062
	c0.046,0.012,0.085,0.038,0.133,0.043l11.907,1.383l5.115,7.874h-1.582c-0.501-4.704-4.491-8.381-9.326-8.381
	c-5.173,0-9.381,4.208-9.381,9.381s4.208,9.381,9.381,9.381c4.835,0,8.825-3.677,9.326-8.381h9.799c0.13,0,0.26-0.026,0.382-0.077
	c0.123-0.051,0.234-0.124,0.326-0.217l8.987-8.987l0.748,1.021c-2.103,1.722-3.449,4.336-3.449,7.26
	c0,5.173,4.208,9.381,9.381,9.381s9.381-4.208,9.381-9.381S72.923,46.804,67.75,46.804z"/>
</svg>
