<?xml version="1.0" encoding="utf-8"?>
<!-- Generator: Adobe Illustrator 17.0.0, SVG Export Plug-In . SVG Version: 6.00 Build 0)  -->
<!DOCTYPE svg PUBLIC "-//W3C//DTD SVG 1.1//EN" "http://www.w3.org/Graphics/SVG/1.1/DTD/svg11.dtd">
<svg version="1.1" id="Layer_1" xmlns="http://www.w3.org/2000/svg" xmlns:xlink="http://www.w3.org/1999/xlink" x="0px" y="0px"
	 width="100px" height="100px" viewBox="0 0 100 100" enable-background="new 0 0 100 100" xml:space="preserve">
<g>
	<path d="M41.903,58.388c-4.724,0-8.567,3.844-8.567,8.567s3.844,8.567,8.567,8.567c4.725,0,8.568-3.844,8.568-8.567
		S46.627,58.388,41.903,58.388z M41.902,73.523c-3.621,0-6.567-2.946-6.567-6.567s2.946-6.567,6.567-6.567
		c3.622,0,6.568,2.946,6.568,6.567S45.524,73.523,41.902,73.523z"/>
	<path d="M64.193,54.389c-1.384,0-2.73,0.223-4.021,0.665l-3.354-5.397l15.817-25.448l-5.098-3.167L53.285,43.973L39.032,21.042
		l-5.097,3.167l15.816,25.448l-3.441,5.537c-1.406-0.529-2.902-0.805-4.408-0.805c-6.93,0-12.567,5.638-12.567,12.567
		s5.638,12.567,12.567,12.567c4.838,0,9.046-2.747,11.146-6.764c2.101,4.017,6.309,6.764,11.146,6.764
		c6.931,0,12.568-5.638,12.568-12.567S71.124,54.389,64.193,54.389z M53.046,61.153c-0.481-0.92-1.077-1.782-1.779-2.565
		l2.019-3.248l1.829,2.943C54.285,59.146,53.591,60.112,53.046,61.153z M64.194,77.523c-5.827,0-10.567-4.74-10.567-10.567
		c0-3.375,1.596-6.377,4.066-8.313l-4.407-7.091l-4.564,7.343c2.29,1.94,3.75,4.831,3.75,8.061c0,5.827-4.741,10.567-10.568,10.567
		s-10.567-4.74-10.567-10.567s4.74-10.567,10.567-10.567c1.88,0,3.642,0.499,5.173,1.362l5.031-8.094L36.69,24.852l1.699-1.056
		l14.896,23.965l14.896-23.965l1.699,1.056L54.463,49.657l4.913,7.905c1.446-0.745,3.081-1.173,4.817-1.173
		c5.827,0,10.568,4.74,10.568,10.567S70.021,77.523,64.194,77.523z"/>
	<path d="M64.194,58.388c-4.724,0-8.567,3.844-8.567,8.567s3.844,8.567,8.567,8.567c4.725,0,8.568-3.844,8.568-8.567
		S68.918,58.388,64.194,58.388z M64.193,73.523c-3.621,0-6.567-2.946-6.567-6.567s2.946-6.567,6.567-6.567
		c3.622,0,6.568,2.946,6.568,6.567S67.815,73.523,64.193,73.523z"/>
</g>
</svg>
