<?xml version="1.0" encoding="utf-8"?>
<!-- Generator: Adobe Illustrator 16.0.0, SVG Export Plug-In . SVG Version: 6.00 Build 0)  -->
<!DOCTYPE svg PUBLIC "-//W3C//DTD SVG 1.1//EN" "http://www.w3.org/Graphics/SVG/1.1/DTD/svg11.dtd">
<svg version="1.1" id="Layer_1" xmlns="http://www.w3.org/2000/svg" xmlns:xlink="http://www.w3.org/1999/xlink" x="0px" y="0px"
	 width="100px" height="100px" viewBox="0 0 100 100" enable-background="new 0 0 100 100" xml:space="preserve">
<g>
	<path d="M53.732,61.701c-0.224,0-0.454-0.025-0.686-0.075l-0.176-0.05c-0.15-0.04-0.312-0.093-0.464-0.161
		c-0.075-0.035-0.125-0.062-0.174-0.09c-0.154-0.082-0.282-0.158-0.405-0.248c-0.059-0.043-0.118-0.093-0.177-0.145
		c-0.117-0.098-0.226-0.199-0.324-0.31l-0.072-0.072l-5.461-6.506c-1.149-1.368-0.97-3.419,0.398-4.57
		c1.223-1.023,3.148-0.958,4.294,0.107V24.527c0-1.789,1.455-3.244,3.244-3.244s3.244,1.455,3.244,3.244v25.056
		c1.146-1.067,3.077-1.13,4.294-0.11c1.371,1.151,1.551,3.202,0.402,4.572l-5.61,6.653c-0.024,0.035-0.128,0.136-0.236,0.227
		c-0.079,0.067-0.134,0.113-0.191,0.155c-0.121,0.087-0.246,0.161-0.375,0.23c-0.081,0.045-0.128,0.07-0.177,0.094
		c-0.174,0.078-0.332,0.129-0.495,0.174c-0.057,0.02-0.12,0.038-0.184,0.051C54.187,61.676,53.956,61.701,53.732,61.701z
		 M53.008,59.462c0.043,0.031,0.091,0.057,0.14,0.083l-0.354,0.946l0.458-0.889c0.03,0.014,0.092,0.029,0.152,0.046l0.113,0.035
		c0.092,0.016,0.291,0.028,0.477-0.013l0.078-0.025c0.046-0.013,0.108-0.028,0.167-0.055c0.124-0.07,0.177-0.1,0.225-0.134
		c0.111-0.096,0.15-0.132,0.186-0.171l0.078-0.079l5.411-6.447c0.44-0.525,0.371-1.313-0.154-1.755
		c-0.287-0.239-0.593-0.29-0.8-0.29c-0.369,0-0.717,0.162-0.954,0.444l-3.256,3.879V24.527c0-0.686-0.559-1.244-1.244-1.244
		s-1.244,0.558-1.244,1.244V55.04l-3.254-3.88c-0.237-0.282-0.585-0.444-0.955-0.444c-0.206,0-0.512,0.05-0.799,0.291
		c-0.524,0.44-0.593,1.228-0.152,1.753l5.504,6.544c0.021,0.023,0.058,0.057,0.096,0.088l-0.534,0.858L53.008,59.462z"/>
</g>
<g>
	<path d="M57.975,35.008V47.89c0.389-0.115,0.795-0.175,1.21-0.175c0.995,0,1.963,0.352,2.727,0.991
		c1.794,1.507,2.029,4.189,0.525,5.982l-5.567,6.634l-0.085,0.073c-0.1,0.104-0.206,0.203-0.316,0.295
		c-0.092,0.079-0.168,0.143-0.249,0.2c-0.158,0.114-0.32,0.212-0.487,0.302c-0.084,0.047-0.15,0.082-0.219,0.115
		c-0.242,0.109-0.447,0.177-0.66,0.235c-0.044,0.017-0.148,0.047-0.255,0.067c-0.269,0.059-0.57,0.092-0.865,0.092
		s-0.597-0.033-0.896-0.098l-0.114-0.025l-0.141-0.045c-0.217-0.061-0.404-0.125-0.583-0.205c-0.119-0.057-0.188-0.094-0.257-0.133
		c-0.172-0.091-0.341-0.192-0.502-0.31c-0.081-0.059-0.163-0.127-0.246-0.199c-0.105-0.088-0.215-0.189-0.32-0.299l-0.047-0.041
		l-0.131-0.145l-5.467-6.514c-1.503-1.791-1.27-4.473,0.521-5.979c0.767-0.642,1.734-0.994,2.729-0.994
		c0.415,0,0.821,0.06,1.209,0.175V35.008H33.534v40.396H73.93V35.008H57.975z"/>
</g>
</svg>
