<?xml version="1.0" encoding="utf-8"?>
<!-- Generator: Adobe Illustrator 17.0.0, SVG Export Plug-In . SVG Version: 6.00 Build 0)  -->
<!DOCTYPE svg PUBLIC "-//W3C//DTD SVG 1.1//EN" "http://www.w3.org/Graphics/SVG/1.1/DTD/svg11.dtd">
<svg version="1.1" id="Layer_1" xmlns="http://www.w3.org/2000/svg" xmlns:xlink="http://www.w3.org/1999/xlink" x="0px" y="0px"
	 width="100px" height="100px" viewBox="0 0 100 100" enable-background="new 0 0 100 100" xml:space="preserve">
<g>
	<path d="M32,35.375c-7.72,0-14,6.28-14,14s6.28,14,14,14c6.789,0,14.98-11.357,16.795-14C46.98,46.732,38.789,35.375,32,35.375z
		 M32,61.375c-6.617,0-12-5.383-12-12c0-6.617,5.383-12,12-12c4.245,0,10.196,6.228,14.35,12C42.196,55.147,36.245,61.375,32,61.375
		z"/>
	<path d="M68,35.342c-6.789,0-14.98,11.357-16.795,14c1.814,2.643,10.006,14,16.795,14c7.72,0,14-6.28,14-14S75.72,35.342,68,35.342
		z M68,61.342c-4.245,0-10.196-6.228-14.351-12c4.154-5.772,10.105-12,14.351-12c6.617,0,12,5.383,12,12
		C80,55.959,74.617,61.342,68,61.342z"/>
	<path d="M68,31.342c-7.017,0-14.128,7.79-18.013,12.862C46.105,39.144,39.004,31.375,32,31.375c-9.925,0-18,8.075-18,18
		c0,9.925,8.075,18,18,18c7.02,0,14.129-7.79,18.013-12.862C53.895,59.573,60.995,67.342,68,67.342c9.925,0,18-8.075,18-18
		C86,39.417,77.925,31.342,68,31.342z M68,65.342c-7.348,0-15.387-10.508-17.988-14.207C47.435,54.804,39.37,65.375,32,65.375
		c-8.822,0-16-7.178-16-16s7.178-16,16-16c7.348,0,15.387,10.508,17.988,14.207C52.565,43.913,60.63,33.342,68,33.342
		c8.822,0,16,7.178,16,16S76.822,65.342,68,65.342z"/>
</g>
</svg>
