<?xml version="1.0" encoding="utf-8"?>
<!-- Generator: Adobe Illustrator 17.0.0, SVG Export Plug-In . SVG Version: 6.00 Build 0)  -->
<!DOCTYPE svg PUBLIC "-//W3C//DTD SVG 1.1//EN" "http://www.w3.org/Graphics/SVG/1.1/DTD/svg11.dtd">
<svg version="1.1" id="Layer_1" xmlns="http://www.w3.org/2000/svg" xmlns:xlink="http://www.w3.org/1999/xlink" x="0px" y="0px"
	 width="100px" height="100px" viewBox="0 0 100 100" enable-background="new 0 0 100 100" xml:space="preserve">
<g>
	<polygon points="51.5,86.688 53.48,86.646 53.48,74.5 51.5,74.5 	"/>
	<path d="M50.395,33.992c4.193,0,7.603-3.411,7.603-7.603c0-4.192-3.41-7.603-7.603-7.603s-7.603,3.411-7.603,7.603
		C42.792,30.582,46.202,33.992,50.395,33.992z"/>
	<polygon points="47.23,86.646 49.5,86.688 49.5,74.5 47.23,74.5 	"/>
	<path d="M55.48,63.46v-2V35.994H45.23V61.46v2l-4.154,9.04h4.063h2.091h2.27h2h1.98h2h3.446l-1.446-3.991L55.48,63.46z"/>
	<path d="M59.479,36.236l17.868-17.869l-4.242-4.243l-11.16,11.161c-0.559-5.882-5.525-10.499-11.551-10.499
		c-6.05,0-11.033,4.654-11.558,10.57l-11.94-11.941l-4.243,4.243l18.444,18.445v1.889h0.158l0.322,24.656L35.077,76.5h8.052
		l-0.036,14.367h14.387V76.5h7.149l-5.149-14.213V36.236z M61.777,74.5H55.48v14.146v0.221H45.098L45.134,74.5h-6.909l5.359-11.417
		l-0.353-27.09h-0.132v-0.718L25.482,17.66l1.414-1.414l15.679,15.679c-1.115-1.566-1.784-3.469-1.784-5.534
		c0-5.295,4.308-9.603,9.603-9.603s9.603,4.308,9.603,9.603c0,1.932-0.576,3.731-1.565,5.237l14.673-14.673l1.414,1.414
		l-17.04,17.04v0.586v26.645L61.777,74.5z"/>
</g>
</svg>
