<?xml version="1.0" encoding="utf-8"?>
<!-- Generator: Adobe Illustrator 17.0.0, SVG Export Plug-In . SVG Version: 6.00 Build 0)  -->
<!DOCTYPE svg PUBLIC "-//W3C//DTD SVG 1.1//EN" "http://www.w3.org/Graphics/SVG/1.1/DTD/svg11.dtd">
<svg version="1.1" id="Layer_1" xmlns="http://www.w3.org/2000/svg" xmlns:xlink="http://www.w3.org/1999/xlink" x="0px" y="0px"
	 width="100px" height="100px" viewBox="0 0 100 100" enable-background="new 0 0 100 100" xml:space="preserve">
<g>
	<path d="M68.138,45.553l-0.815-0.082l-0.08-0.815c-0.81-8.268-7.689-14.503-16.002-14.503c-8.297,0-15.175,6.219-15.999,14.466
		l-0.084,0.846l-0.848,0.053c-6.243,0.39-11.133,5.599-11.133,11.86c0,6.554,5.331,11.885,11.884,11.885
		c0.827,0,1.663-0.09,2.484-0.268l1.211-0.262v8.542c0,0.737,0.601,1.337,1.338,1.337h21.812c0.737,0,1.338-0.6,1.338-1.337v-8.542
		l1.212,0.263c0.816,0.177,1.652,0.267,2.485,0.267c6.552,0,11.883-5.331,11.883-11.885C78.824,51.246,74.23,46.164,68.138,45.553z
		 M66.941,67.262c-0.69,0-1.384-0.074-2.062-0.222l-3.636-0.787v10.358H40.756V66.254l-3.634,0.785
		c-0.682,0.147-1.375,0.223-2.062,0.223c-5.45,0-9.884-4.435-9.884-9.885c0-5.207,4.066-9.54,9.257-9.864l2.545-0.158l0.253-2.538
		c0.721-7.22,6.744-12.665,14.009-12.665c7.279,0,13.303,5.459,14.012,12.698l0.24,2.446l2.446,0.246
		c5.065,0.507,8.886,4.735,8.886,9.833C76.824,62.827,72.391,67.262,66.941,67.262z"/>
	<path d="M70.869,41.98c-1.965-9.253-10.006-15.828-19.629-15.828c-9.573,0-17.598,6.523-19.605,15.712
		c-7.199,1.58-12.459,8.004-12.459,15.512c0,8.657,6.961,15.72,15.58,15.882v4.016c0,2.942,2.395,5.337,5.338,5.337h21.812
		c2.943,0,5.338-2.395,5.338-5.337v-4.016c8.619-0.162,15.58-7.224,15.58-15.882C82.824,50.001,77.877,43.741,70.869,41.98z
		 M66.941,71.262c-0.566,0-1.134-0.035-1.697-0.105v6.118c0,1.84-1.497,3.337-3.338,3.337H40.094c-1.841,0-3.338-1.497-3.338-3.337
		v-6.119c-0.565,0.071-1.132,0.106-1.696,0.106c-7.656,0-13.884-6.229-13.884-13.885c0-7.034,5.284-12.932,12.176-13.779
		c1.288-8.862,8.837-15.445,17.889-15.445c9.078,0,16.637,6.614,17.897,15.514c6.717,1.061,11.687,6.819,11.687,13.71
		C80.824,65.033,74.597,71.262,66.941,71.262z"/>
</g>
</svg>
