<?xml version="1.0" encoding="utf-8"?>
<!-- Generator: Adobe Illustrator 16.0.0, SVG Export Plug-In . SVG Version: 6.00 Build 0)  -->
<!DOCTYPE svg PUBLIC "-//W3C//DTD SVG 1.1//EN" "http://www.w3.org/Graphics/SVG/1.1/DTD/svg11.dtd">
<svg version="1.1" id="Layer_1" xmlns="http://www.w3.org/2000/svg" xmlns:xlink="http://www.w3.org/1999/xlink" x="0px" y="0px"
	 width="100px" height="100px" viewBox="0 0 100 100" enable-background="new 0 0 100 100" xml:space="preserve">
<path d="M62.833,59.772c-2.93,0-5.55,1.35-7.274,3.459l-12.697-7.413c1.269-1.602,2.033-3.621,2.033-5.818
	c0-2.037-0.658-3.918-1.764-5.459l12.111-6.862c1.709,2.348,4.471,3.883,7.591,3.883c5.18,0,9.395-4.214,9.395-9.395
	s-4.215-9.395-9.395-9.395s-9.395,4.214-9.395,9.395c0,1.345,0.289,2.623,0.801,3.781l-12.477,7.07
	c-1.664-1.494-3.855-2.412-6.263-2.412c-5.18,0-9.395,4.214-9.395,9.395c0,5.18,4.214,9.395,9.395,9.395
	c2.241,0,4.298-0.791,5.915-2.105l13.054,7.621c-0.653,1.279-1.03,2.724-1.03,4.257c0,5.18,4.215,9.395,9.395,9.395
	s9.395-4.215,9.395-9.395S68.013,59.772,62.833,59.772z"/>
</svg>
