<?xml version="1.0" encoding="utf-8"?>
<!-- Generator: Adobe Illustrator 17.0.0, SVG Export Plug-In . SVG Version: 6.00 Build 0)  -->
<!DOCTYPE svg PUBLIC "-//W3C//DTD SVG 1.1//EN" "http://www.w3.org/Graphics/SVG/1.1/DTD/svg11.dtd">
<svg version="1.1" id="Layer_1" xmlns="http://www.w3.org/2000/svg" xmlns:xlink="http://www.w3.org/1999/xlink" x="0px" y="0px"
	 width="100px" height="100px" viewBox="0 0 100 100" enable-background="new 0 0 100 100" xml:space="preserve">
<path d="M85.207,34.793l-11-11C74.02,23.605,73.766,23.5,73.5,23.5h-21V13c0-0.552-0.447-1-1-1s-1,0.448-1,1v10.5H27
	c-0.553,0-1,0.448-1,1v22c0,0.553,0.447,1,1,1h23.5V86H39c-0.553,0-1,0.447-1,1s0.447,1,1,1h25c0.553,0,1-0.447,1-1s-0.447-1-1-1
	H52.5V47.5h21c0.266,0,0.52-0.105,0.707-0.293l11-11C85.598,35.816,85.598,35.184,85.207,34.793z"/>
</svg>
