<?xml version="1.0" encoding="utf-8"?>
<!-- Generator: Adobe Illustrator 16.0.0, SVG Export Plug-In . SVG Version: 6.00 Build 0)  -->
<!DOCTYPE svg PUBLIC "-//W3C//DTD SVG 1.1//EN" "http://www.w3.org/Graphics/SVG/1.1/DTD/svg11.dtd">
<svg version="1.1" id="Layer_1" xmlns="http://www.w3.org/2000/svg" xmlns:xlink="http://www.w3.org/1999/xlink" x="0px" y="0px"
	 width="100px" height="100px" viewBox="0 0 100 100" enable-background="new 0 0 100 100" xml:space="preserve">
<g>
	<path d="M51,24.072v24.75h24.75v-24.75H51z M68.625,37.565h-10v-2h10V37.565z"/>
	<path d="M24.25,48.94H49V24.19H24.25V48.94z M31.625,35.447h4v-4h2v4h4v2h-4v4h-2v-4h-4V35.447z"/>
	<path d="M24.25,75.927H49v-24.75H24.25V75.927z M32.382,60.605l1.414-1.414l2.829,2.828l2.829-2.828l1.414,1.414l-2.829,2.828
		l2.829,2.828l-1.414,1.414l-2.829-2.828l-2.829,2.828l-1.414-1.414l2.829-2.828L32.382,60.605z"/>
	<path d="M51,75.809h24.75v-24.75H51V75.809z M58.375,59.898h10v2h-10V59.898z M58.375,64.969h10v2h-10V64.969z"/>
</g>
</svg>
