<?xml version="1.0" encoding="utf-8"?>
<!-- Generator: Adobe Illustrator 16.0.0, SVG Export Plug-In . SVG Version: 6.00 Build 0)  -->
<!DOCTYPE svg PUBLIC "-//W3C//DTD SVG 1.1//EN" "http://www.w3.org/Graphics/SVG/1.1/DTD/svg11.dtd">
<svg version="1.1" id="Layer_1" xmlns="http://www.w3.org/2000/svg" xmlns:xlink="http://www.w3.org/1999/xlink" x="0px" y="0px"
	 width="100px" height="100px" viewBox="0 0 100 100" enable-background="new 0 0 100 100" xml:space="preserve">
<g>
	<path d="M48.718,42.451c-0.157-0.114-0.344-0.175-0.539-0.175c-0.144,0-0.288,0.034-0.417,0.101c-0.308,0.156-0.5,0.469-0.5,0.814
		v8.431c0,0.346,0.192,0.658,0.502,0.816c0.299,0.153,0.678,0.123,0.957-0.078l5.784-4.214c0.234-0.172,0.376-0.449,0.376-0.74
		s-0.142-0.568-0.378-0.742L48.718,42.451z"/>
	<path d="M27.954,31.58v31.949h45.163V31.58H27.954z M55.685,49.762l-5.789,4.217c-0.506,0.366-1.1,0.559-1.718,0.559
		c-0.457,0-0.913-0.109-1.321-0.316c-0.984-0.503-1.595-1.498-1.595-2.599v-8.431c0-1.1,0.61-2.096,1.592-2.598
		c0.967-0.49,2.17-0.393,3.041,0.24l5.788,4.216c0.751,0.55,1.198,1.431,1.198,2.356S56.434,49.213,55.685,49.762z"/>
</g>
</svg>
