<?xml version="1.0" encoding="utf-8"?>
<!-- Generator: Adobe Illustrator 17.0.0, SVG Export Plug-In . SVG Version: 6.00 Build 0)  -->
<!DOCTYPE svg PUBLIC "-//W3C//DTD SVG 1.1//EN" "http://www.w3.org/Graphics/SVG/1.1/DTD/svg11.dtd">
<svg version="1.1" id="Layer_1" xmlns="http://www.w3.org/2000/svg" xmlns:xlink="http://www.w3.org/1999/xlink" x="0px" y="0px"
	 width="100px" height="100px" viewBox="0 0 100 100" enable-background="new 0 0 100 100" xml:space="preserve">
<g>
	<path d="M24.069,25.568c-9.653,0-17.507,7.854-17.507,17.507c0,8.578,12.669,26.252,15.208,29.709l0.563,0.765
		c0.402,0.552,1.051,0.882,1.735,0.882c0.488,0,0.955-0.174,1.329-0.469h2.597v-2h-1.029c3.495-4.833,14.609-20.836,14.609-28.887
		C41.577,33.422,33.723,25.568,24.069,25.568z M24.069,52.26c-4.288,0-7.776-3.489-7.776-7.777s3.488-7.777,7.776-7.777
		c4.288,0,7.776,3.489,7.777,7.777C31.846,48.771,28.357,52.26,24.069,52.26z"/>
	<circle cx="24.069" cy="44.484" r="2.775"/>
	<path d="M24.069,38.706c-3.185,0-5.776,2.591-5.776,5.777s2.591,5.777,5.776,5.777c3.186,0,5.777-2.591,5.777-5.777
		C29.846,41.297,27.254,38.706,24.069,38.706z M24.069,49.258c-2.632,0-4.774-2.142-4.774-4.775c0-2.632,2.142-4.774,4.774-4.774
		c2.633,0,4.774,2.142,4.774,4.774C28.844,47.116,26.702,49.258,24.069,49.258z"/>
	<path d="M75.931,25.568c-9.654,0-17.508,7.854-17.508,17.507c0,8.571,12.669,26.251,15.209,29.709l0.226,0.307v0.871h0.746
		c0.375,0.295,0.84,0.469,1.327,0.469c0.683,0,1.33-0.328,1.732-0.876l0.566-0.771c2.539-3.453,15.208-21.112,15.208-29.709
		C93.438,33.422,85.584,25.568,75.931,25.568z M75.931,52.26c-4.288,0-7.777-3.489-7.777-7.777s3.489-7.777,7.777-7.777
		c4.287,0,7.775,3.489,7.776,7.776C83.707,48.771,80.219,52.26,75.931,52.26z"/>
	<path d="M75.931,38.706c-3.186,0-5.777,2.591-5.777,5.777s2.592,5.777,5.777,5.777s5.776-2.591,5.776-5.777
		C81.706,41.298,79.115,38.706,75.931,38.706z M75.931,49.258c-2.633,0-4.774-2.142-4.774-4.775c0-2.632,2.142-4.774,4.774-4.774
		c2.632,0,4.773,2.142,4.773,4.774C80.704,47.116,78.562,49.258,75.931,49.258z"/>
	<path d="M75.931,41.709c-1.53,0-2.774,1.244-2.774,2.774c0,1.53,1.244,2.775,2.774,2.775c1.529,0,2.773-1.245,2.773-2.775
		C78.704,42.953,77.46,41.709,75.931,41.709z"/>
	<rect x="34.548" y="71.963" width="6.552" height="2"/>
	<rect x="47.651" y="71.963" width="6.551" height="2"/>
	<rect x="60.754" y="71.963" width="6.552" height="2"/>
</g>
</svg>
