<?xml version="1.0" encoding="utf-8"?>
<!-- Generator: Adobe Illustrator 17.0.0, SVG Export Plug-In . SVG Version: 6.00 Build 0)  -->
<!DOCTYPE svg PUBLIC "-//W3C//DTD SVG 1.1//EN" "http://www.w3.org/Graphics/SVG/1.1/DTD/svg11.dtd">
<svg version="1.1" id="Layer_1" xmlns="http://www.w3.org/2000/svg" xmlns:xlink="http://www.w3.org/1999/xlink" x="0px" y="0px"
	 width="100px" height="100px" viewBox="0 0 100 100" enable-background="new 0 0 100 100" xml:space="preserve">
<path d="M83.356,38.423l-4.752,4.752C75.612,27.947,62.12,16.544,46.23,16.544c-18.196,0-33,14.804-33,33s14.804,33,33,33
	c9.61,0,18.724-4.178,25.004-11.463l1.306-1.515l-4.545-3.919l-1.306,1.516c-5.139,5.962-12.597,9.381-20.459,9.381
	c-14.888,0-27-12.112-27-27s12.112-27,27-27c11.846,0,22.128,7.822,25.674,18.68l-2.134-2.134l-4.242,4.243l9.167,9.167h3.07
	l9.833-9.834L83.356,38.423z M76.937,50.5h-1.414l-7.167-7.167l1.414-1.414l5.363,5.363C73.974,32.346,61.458,20.544,46.23,20.544
	c-15.99,0-29,13.009-29,29c0,15.99,13.01,29,29,29c8.445,0,16.454-3.672,21.974-10.075l1.516,1.307
	c-5.9,6.844-14.462,10.769-23.489,10.769c-17.094,0-31-13.906-31-31c0-17.093,13.906-31,31-31c16.392,0,29.844,12.79,30.922,28.913
	l6.204-6.205l1.414,1.414L76.937,50.5z"/>
</svg>
