<?xml version="1.0" encoding="utf-8"?>
<!-- Generator: Adobe Illustrator 17.0.0, SVG Export Plug-In . SVG Version: 6.00 Build 0)  -->
<!DOCTYPE svg PUBLIC "-//W3C//DTD SVG 1.1//EN" "http://www.w3.org/Graphics/SVG/1.1/DTD/svg11.dtd">
<svg version="1.1" id="Layer_1" xmlns="http://www.w3.org/2000/svg" xmlns:xlink="http://www.w3.org/1999/xlink" x="0px" y="0px"
	 width="100px" height="100px" viewBox="0 0 100 100" enable-background="new 0 0 100 100" xml:space="preserve">
<g>
	<path d="M54.839,38.664l-4.419,4.42l1.504,1.504c0.756,0.756,1.172,1.76,1.172,2.828c0,1.069-0.416,2.073-1.172,2.828l-1.679,1.68
		c-1.511,1.512-4.146,1.512-5.657,0l-1.504-1.504l-4.419,4.419l5.083,5.083c0.755,0.754,2.073,0.754,2.829,0l13.347-13.347
		c0.779-0.78,0.779-2.049,0-2.829L54.839,38.664z"/>
	<path d="M50,19c-17.093,0-31,13.906-31,31s13.907,31,31,31s31-13.906,31-31S67.093,19,50,19z M61.336,47.989L47.989,61.336
		c-0.756,0.755-1.76,1.171-2.829,1.171s-2.073-0.416-2.828-1.171l-5.083-5.083c-0.377-0.376-0.585-0.878-0.586-1.412
		c0-0.535,0.208-1.038,0.586-1.416l4.419-4.419c0.756-0.756,2.074-0.756,2.829,0l1.504,1.504c0.756,0.756,2.073,0.756,2.829,0
		l1.679-1.68c0.378-0.378,0.586-0.88,0.586-1.414s-0.208-1.036-0.586-1.414l-1.504-1.504c-0.378-0.378-0.586-0.881-0.586-1.416
		c0-0.534,0.208-1.036,0.587-1.413l4.418-4.419c0.753-0.755,2.072-0.757,2.828,0l5.082,5.081
		C62.895,43.892,62.895,46.43,61.336,47.989z"/>
</g>
</svg>
