<?xml version="1.0" encoding="utf-8"?>
<!-- Generator: Adobe Illustrator 17.0.0, SVG Export Plug-In . SVG Version: 6.00 Build 0)  -->
<!DOCTYPE svg PUBLIC "-//W3C//DTD SVG 1.1//EN" "http://www.w3.org/Graphics/SVG/1.1/DTD/svg11.dtd">
<svg version="1.1" id="Layer_1" xmlns="http://www.w3.org/2000/svg" xmlns:xlink="http://www.w3.org/1999/xlink" x="0px" y="0px"
	 width="100px" height="100px" viewBox="0 0 100 100" enable-background="new 0 0 100 100" xml:space="preserve">
<g>
	<path d="M45.23,86.646l4.27,0.042v-21.75h2v21.75l3.98-0.042V63.787V35.994H45.23V86.646z"/>
	<path d="M50.395,18.786c-4.193,0-7.603,3.411-7.603,7.603c0,4.193,3.41,7.603,7.603,7.603s7.603-3.411,7.603-7.603
		C57.998,22.197,54.588,18.786,50.395,18.786z"/>
	<path d="M73.105,14.125l-11.16,11.161c-0.559-5.882-5.525-10.499-11.551-10.499c-6.05,0-11.033,4.654-11.558,10.57l-11.94-11.941
		l-4.243,4.243l18.445,18.445v1.889h0.127l-0.132,52.874h18.386V36.236l17.868-17.869L73.105,14.125z M57.48,35.408v0.586v27.794
		v24.859v0.221H43.098l0.132-52.874h-0.132v-0.718L25.482,17.66l1.414-1.414l15.679,15.679c-1.115-1.566-1.784-3.469-1.784-5.534
		c0-5.295,4.308-9.603,9.603-9.603s9.603,4.308,9.603,9.603c0,1.932-0.576,3.731-1.565,5.237l14.673-14.673l1.414,1.414
		L57.48,35.408z"/>
</g>
</svg>
