<?xml version="1.0" encoding="utf-8"?>
<!-- Generator: Adobe Illustrator 17.0.0, SVG Export Plug-In . SVG Version: 6.00 Build 0)  -->
<!DOCTYPE svg PUBLIC "-//W3C//DTD SVG 1.1//EN" "http://www.w3.org/Graphics/SVG/1.1/DTD/svg11.dtd">
<svg version="1.1" id="Layer_1" xmlns="http://www.w3.org/2000/svg" xmlns:xlink="http://www.w3.org/1999/xlink" x="0px" y="0px"
	 width="100px" height="100px" viewBox="0 0 100 100" enable-background="new 0 0 100 100" xml:space="preserve">
<g>
	<path d="M26.924,71.745h23.953V48.457H26.924V71.745z M43.681,52.02c1.76,0,3.187,1.427,3.187,3.187s-1.427,3.187-3.187,3.187
		s-3.187-1.427-3.187-3.187S41.921,52.02,43.681,52.02z M43.681,62.035c1.76,0,3.187,1.427,3.187,3.187s-1.427,3.187-3.187,3.187
		s-3.187-1.427-3.187-3.187S41.921,62.035,43.681,62.035z M34.119,51.79c1.761,0,3.188,1.427,3.188,3.188
		c0,1.761-1.427,3.188-3.188,3.188s-3.188-1.427-3.188-3.188C30.931,53.217,32.358,51.79,34.119,51.79z M34.119,61.807
		c1.761,0,3.188,1.427,3.188,3.188s-1.427,3.188-3.188,3.188s-3.188-1.427-3.188-3.188S32.358,61.807,34.119,61.807z"/>
	<path d="M56.434,27.4L39.497,44.336l3.277,3.276h8.525c0.232,0,0.422,0.19,0.422,0.423v8.526l4.244,4.241l16.937-16.935
		L56.434,27.4z M56.363,33.506c1.76,0,3.187,1.427,3.187,3.187s-1.427,3.187-3.187,3.187s-3.187-1.427-3.187-3.187
		S54.603,33.506,56.363,33.506z M59.662,43.826c0,1.76-1.427,3.187-3.187,3.187s-3.187-1.427-3.187-3.187s1.427-3.187,3.187-3.187
		S59.662,42.066,59.662,43.826z M56.035,54.696c-1.761,0-3.188-1.427-3.188-3.188s1.427-3.188,3.188-3.188
		c1.761,0,3.188,1.427,3.188,3.188S57.796,54.696,56.035,54.696z"/>
</g>
</svg>
