<?xml version="1.0" encoding="utf-8"?>
<!-- Generator: Adobe Illustrator 17.0.0, SVG Export Plug-In . SVG Version: 6.00 Build 0)  -->
<!DOCTYPE svg PUBLIC "-//W3C//DTD SVG 1.1//EN" "http://www.w3.org/Graphics/SVG/1.1/DTD/svg11.dtd">
<svg version="1.1" id="Layer_1" xmlns="http://www.w3.org/2000/svg" xmlns:xlink="http://www.w3.org/1999/xlink" x="0px" y="0px"
	 width="100px" height="100px" viewBox="0 0 100 100" enable-background="new 0 0 100 100" xml:space="preserve">
<path d="M69.266,29.743c0.166-0.17,0.332-0.338,0.502-0.504c0.078-0.076,0.16-0.15,0.239-0.225
	c5.485,5.233,8.705,12.423,8.967,19.986H61.027c0.006-0.171,0.005-0.342,0.014-0.512c0.009-0.163,0.026-0.325,0.038-0.487
	c0.023-0.338,0.046-0.677,0.081-1.013c0.021-0.196,0.051-0.39,0.075-0.585c0.038-0.301,0.073-0.603,0.121-0.902
	c0.033-0.207,0.075-0.413,0.112-0.619c0.051-0.284,0.1-0.569,0.16-0.851c0.045-0.212,0.098-0.421,0.147-0.631
	c0.064-0.274,0.127-0.549,0.199-0.82c0.057-0.213,0.121-0.423,0.182-0.634c0.077-0.266,0.153-0.532,0.238-0.796
	c0.068-0.212,0.143-0.421,0.216-0.632c0.09-0.258,0.179-0.517,0.275-0.772c0.08-0.211,0.166-0.419,0.251-0.629
	c0.102-0.25,0.203-0.5,0.312-0.748c0.091-0.208,0.188-0.414,0.285-0.62c0.113-0.243,0.227-0.486,0.347-0.725
	c0.103-0.205,0.211-0.408,0.318-0.61c0.125-0.235,0.251-0.47,0.383-0.703c0.114-0.201,0.232-0.399,0.35-0.597
	c0.136-0.228,0.274-0.455,0.417-0.679c0.125-0.196,0.253-0.39,0.383-0.583c0.148-0.22,0.298-0.439,0.452-0.656
	c0.135-0.19,0.273-0.378,0.413-0.565c0.159-0.212,0.32-0.423,0.485-0.631c0.145-0.184,0.293-0.366,0.443-0.546
	c0.17-0.204,0.342-0.405,0.518-0.605c0.156-0.177,0.314-0.353,0.474-0.527C68.896,30.126,69.08,29.934,69.266,29.743z"/>
<path d="M68.323,27.854c-0.186,0.182-0.366,0.368-0.547,0.554c-0.193,0.199-0.386,0.398-0.573,0.602
	c-0.174,0.189-0.343,0.382-0.513,0.575c-0.183,0.209-0.365,0.419-0.542,0.633c-0.163,0.196-0.321,0.395-0.479,0.595
	c-0.172,0.219-0.343,0.439-0.509,0.662c-0.151,0.203-0.299,0.407-0.444,0.613c-0.161,0.228-0.319,0.457-0.474,0.689
	c-0.14,0.209-0.277,0.42-0.412,0.632c-0.149,0.236-0.295,0.474-0.438,0.713c-0.128,0.214-0.254,0.429-0.376,0.646
	c-0.138,0.245-0.272,0.492-0.403,0.74c-0.116,0.219-0.231,0.438-0.341,0.66c-0.126,0.253-0.246,0.507-0.366,0.763
	c-0.104,0.223-0.208,0.446-0.306,0.672c-0.114,0.26-0.221,0.523-0.328,0.786c-0.092,0.227-0.184,0.453-0.27,0.681
	c-0.101,0.268-0.195,0.538-0.288,0.808c-0.079,0.229-0.16,0.458-0.234,0.689c-0.088,0.276-0.168,0.555-0.249,0.833
	c-0.067,0.23-0.136,0.459-0.197,0.69c-0.076,0.286-0.142,0.575-0.209,0.863c-0.053,0.227-0.11,0.454-0.158,0.683
	c-0.063,0.298-0.115,0.598-0.169,0.898c-0.04,0.224-0.085,0.446-0.12,0.671c-0.05,0.315-0.087,0.633-0.127,0.95
	c-0.026,0.211-0.059,0.422-0.081,0.634c-0.037,0.352-0.06,0.707-0.085,1.061c-0.013,0.18-0.032,0.359-0.041,0.539
	c-0.011,0.203-0.01,0.407-0.016,0.61H51V21.044c6.416,0.221,12.561,2.532,17.501,6.63C68.44,27.732,68.384,27.795,68.323,27.854z"/>
<path d="M49,21.044V49h-8.027c-0.007-0.203-0.006-0.407-0.016-0.61c-0.009-0.18-0.029-0.359-0.041-0.539
	c-0.025-0.354-0.048-0.709-0.085-1.061c-0.022-0.212-0.055-0.422-0.081-0.634c-0.04-0.317-0.077-0.635-0.127-0.95
	c-0.035-0.226-0.081-0.449-0.121-0.674c-0.054-0.299-0.105-0.597-0.168-0.894c-0.048-0.23-0.106-0.458-0.159-0.688
	c-0.067-0.287-0.133-0.574-0.208-0.859c-0.061-0.232-0.13-0.461-0.197-0.69c-0.081-0.279-0.161-0.557-0.249-0.833
	c-0.074-0.231-0.155-0.459-0.234-0.689c-0.094-0.27-0.187-0.541-0.288-0.808c-0.086-0.229-0.179-0.455-0.27-0.681
	c-0.107-0.263-0.214-0.526-0.328-0.786c-0.099-0.226-0.202-0.449-0.306-0.672c-0.119-0.256-0.24-0.511-0.366-0.763
	c-0.111-0.221-0.225-0.441-0.341-0.66c-0.132-0.248-0.265-0.496-0.403-0.74c-0.122-0.217-0.249-0.432-0.376-0.646
	c-0.143-0.24-0.289-0.478-0.438-0.713c-0.135-0.213-0.272-0.423-0.412-0.633c-0.155-0.231-0.312-0.46-0.473-0.687
	c-0.146-0.207-0.295-0.412-0.446-0.615c-0.166-0.223-0.336-0.442-0.508-0.66c-0.158-0.2-0.316-0.399-0.479-0.595
	c-0.177-0.214-0.359-0.424-0.542-0.633c-0.169-0.193-0.338-0.386-0.513-0.575c-0.187-0.204-0.38-0.403-0.573-0.602
	c-0.181-0.186-0.361-0.372-0.547-0.554c-0.06-0.059-0.117-0.121-0.178-0.18C36.439,23.576,42.584,21.265,49,21.044z"/>
<path d="M29.993,29.014c0.079,0.076,0.161,0.149,0.239,0.225c0.17,0.166,0.337,0.335,0.502,0.504c0.186,0.19,0.37,0.383,0.55,0.578
	c0.16,0.174,0.318,0.35,0.474,0.527c0.176,0.2,0.348,0.401,0.518,0.605c0.15,0.18,0.298,0.362,0.443,0.546
	c0.165,0.208,0.326,0.419,0.485,0.631c0.14,0.187,0.278,0.375,0.413,0.565c0.154,0.216,0.304,0.435,0.452,0.656
	c0.129,0.193,0.258,0.387,0.383,0.583c0.143,0.224,0.281,0.451,0.417,0.679c0.119,0.198,0.237,0.396,0.35,0.597
	c0.132,0.232,0.258,0.467,0.383,0.703c0.108,0.203,0.215,0.405,0.318,0.61c0.12,0.24,0.234,0.482,0.347,0.725
	c0.096,0.206,0.193,0.412,0.285,0.62c0.108,0.247,0.21,0.498,0.312,0.748c0.085,0.209,0.171,0.418,0.251,0.629
	c0.097,0.255,0.186,0.514,0.275,0.772c0.073,0.21,0.148,0.42,0.216,0.632c0.085,0.263,0.161,0.53,0.238,0.796
	c0.061,0.211,0.126,0.421,0.182,0.634c0.072,0.272,0.135,0.546,0.199,0.82c0.049,0.21,0.103,0.42,0.147,0.631
	c0.06,0.282,0.109,0.567,0.16,0.851c0.037,0.206,0.079,0.412,0.112,0.619c0.047,0.299,0.083,0.601,0.121,0.902
	c0.025,0.195,0.055,0.389,0.075,0.585c0.035,0.336,0.058,0.675,0.081,1.013c0.011,0.163,0.029,0.324,0.038,0.487
	c0.009,0.17,0.008,0.342,0.014,0.512H21.026C21.288,41.437,24.508,34.247,29.993,29.014z"/>
<path d="M30.734,70.258c-0.165,0.169-0.332,0.338-0.502,0.504c-0.078,0.076-0.16,0.15-0.239,0.225
	C24.508,65.754,21.288,58.563,21.026,51h17.948c-0.006,0.171-0.005,0.342-0.014,0.512c-0.009,0.163-0.026,0.325-0.038,0.487
	c-0.023,0.338-0.046,0.677-0.081,1.013c-0.021,0.196-0.051,0.39-0.075,0.585c-0.038,0.301-0.073,0.602-0.12,0.902
	c-0.033,0.208-0.075,0.414-0.112,0.621c-0.051,0.284-0.1,0.568-0.16,0.85c-0.045,0.212-0.098,0.422-0.148,0.632
	c-0.064,0.274-0.127,0.548-0.199,0.82c-0.056,0.213-0.121,0.423-0.182,0.634c-0.077,0.266-0.153,0.532-0.238,0.795
	c-0.068,0.212-0.144,0.422-0.217,0.633c-0.09,0.258-0.178,0.516-0.275,0.772c-0.08,0.211-0.166,0.419-0.251,0.628
	c-0.102,0.251-0.203,0.501-0.312,0.749c-0.091,0.208-0.188,0.413-0.284,0.619c-0.114,0.243-0.228,0.487-0.348,0.727
	c-0.103,0.205-0.21,0.407-0.318,0.609c-0.125,0.236-0.251,0.471-0.383,0.704c-0.113,0.2-0.231,0.398-0.349,0.595
	c-0.137,0.229-0.275,0.456-0.419,0.681c-0.124,0.195-0.252,0.388-0.381,0.581c-0.148,0.221-0.298,0.44-0.453,0.657
	c-0.135,0.19-0.273,0.377-0.413,0.564c-0.159,0.212-0.32,0.423-0.485,0.631c-0.146,0.184-0.294,0.366-0.444,0.547
	c-0.17,0.204-0.343,0.405-0.518,0.605c-0.156,0.177-0.313,0.352-0.473,0.526C31.104,69.875,30.92,70.067,30.734,70.258z"/>
<path d="M50,79c-6.778,0-13.305-2.361-18.501-6.673c0.061-0.059,0.117-0.121,0.178-0.18c0.186-0.182,0.366-0.368,0.547-0.554
	c0.193-0.199,0.386-0.398,0.573-0.602c0.174-0.189,0.343-0.382,0.513-0.575c0.183-0.209,0.365-0.419,0.542-0.633
	c0.163-0.196,0.321-0.395,0.479-0.595c0.172-0.218,0.342-0.438,0.508-0.66c0.152-0.204,0.3-0.409,0.447-0.617
	c0.16-0.227,0.318-0.455,0.472-0.685c0.14-0.21,0.278-0.421,0.413-0.634c0.15-0.236,0.295-0.474,0.438-0.714
	c0.128-0.214,0.254-0.429,0.376-0.646c0.138-0.245,0.272-0.492,0.403-0.741c0.116-0.219,0.231-0.438,0.341-0.659
	c0.126-0.253,0.247-0.508,0.366-0.764c0.104-0.223,0.207-0.446,0.306-0.671c0.114-0.26,0.221-0.524,0.328-0.787
	c0.092-0.226,0.184-0.452,0.27-0.681c0.101-0.268,0.195-0.538,0.288-0.809c0.079-0.229,0.16-0.457,0.234-0.688
	c0.088-0.276,0.168-0.555,0.249-0.834c0.067-0.23,0.136-0.459,0.197-0.69c0.075-0.285,0.141-0.573,0.209-0.86
	c0.054-0.229,0.111-0.457,0.159-0.687c0.062-0.297,0.114-0.596,0.168-0.894c0.04-0.224,0.085-0.448,0.121-0.673
	c0.05-0.315,0.087-0.633,0.127-0.95c0.027-0.212,0.059-0.422,0.081-0.635c0.037-0.352,0.06-0.707,0.085-1.061
	c0.013-0.18,0.032-0.359,0.041-0.539c0.011-0.203,0.01-0.407,0.016-0.61H49v27.864h2V51h8.027c0.007,0.203,0.006,0.407,0.016,0.61
	c0.009,0.18,0.029,0.359,0.041,0.539c0.025,0.354,0.048,0.709,0.085,1.061c0.022,0.212,0.055,0.423,0.081,0.635
	c0.04,0.317,0.077,0.635,0.127,0.95c0.035,0.225,0.08,0.447,0.12,0.671c0.054,0.3,0.106,0.6,0.169,0.898
	c0.048,0.229,0.105,0.455,0.158,0.682c0.068,0.289,0.134,0.578,0.21,0.864c0.061,0.231,0.13,0.46,0.197,0.69
	c0.081,0.279,0.161,0.557,0.249,0.834c0.074,0.231,0.155,0.459,0.234,0.688c0.094,0.271,0.187,0.541,0.288,0.809
	c0.086,0.229,0.179,0.454,0.27,0.681c0.107,0.264,0.214,0.527,0.328,0.787c0.099,0.225,0.202,0.448,0.306,0.671
	c0.119,0.256,0.24,0.511,0.366,0.764c0.111,0.222,0.225,0.441,0.341,0.659c0.132,0.248,0.265,0.496,0.403,0.741
	c0.122,0.217,0.248,0.432,0.376,0.646c0.143,0.24,0.289,0.478,0.438,0.714c0.135,0.213,0.272,0.424,0.412,0.633
	c0.155,0.231,0.312,0.46,0.473,0.687c0.146,0.206,0.294,0.411,0.445,0.614c0.166,0.223,0.336,0.443,0.509,0.662
	c0.157,0.2,0.316,0.399,0.479,0.595c0.177,0.214,0.359,0.424,0.542,0.633c0.169,0.193,0.338,0.386,0.513,0.575
	c0.187,0.204,0.38,0.403,0.573,0.602c0.181,0.186,0.361,0.372,0.547,0.554c0.06,0.059,0.117,0.121,0.178,0.18
	C63.305,76.639,56.778,79,50,79z"/>
<path d="M70.007,70.987c-0.079-0.076-0.161-0.149-0.239-0.225c-0.17-0.166-0.337-0.334-0.502-0.504
	c-0.186-0.191-0.37-0.383-0.551-0.579c-0.16-0.173-0.318-0.349-0.473-0.526c-0.176-0.2-0.348-0.401-0.518-0.605
	c-0.15-0.181-0.298-0.363-0.444-0.547c-0.165-0.208-0.326-0.419-0.485-0.631c-0.14-0.187-0.278-0.374-0.413-0.564
	c-0.154-0.217-0.305-0.436-0.453-0.657c-0.129-0.192-0.257-0.385-0.381-0.581c-0.143-0.225-0.282-0.453-0.419-0.681
	c-0.118-0.197-0.236-0.395-0.349-0.595c-0.132-0.232-0.258-0.468-0.383-0.704c-0.107-0.202-0.215-0.405-0.318-0.609
	c-0.12-0.24-0.234-0.483-0.348-0.727c-0.096-0.206-0.193-0.411-0.284-0.619c-0.109-0.248-0.21-0.499-0.312-0.749
	c-0.085-0.209-0.171-0.417-0.251-0.628c-0.097-0.255-0.186-0.514-0.275-0.772c-0.073-0.211-0.148-0.42-0.217-0.633
	c-0.085-0.263-0.161-0.529-0.238-0.795c-0.061-0.211-0.126-0.421-0.182-0.634c-0.072-0.272-0.135-0.546-0.199-0.82
	c-0.049-0.211-0.103-0.42-0.148-0.632c-0.059-0.282-0.108-0.566-0.16-0.85c-0.037-0.207-0.079-0.413-0.112-0.621
	c-0.047-0.299-0.083-0.601-0.12-0.902c-0.025-0.195-0.055-0.389-0.075-0.585c-0.035-0.336-0.058-0.675-0.081-1.013
	c-0.011-0.163-0.029-0.324-0.038-0.487c-0.009-0.17-0.008-0.342-0.014-0.512h17.948C78.712,58.563,75.492,65.754,70.007,70.987z"/>
</svg>
