<?xml version="1.0" encoding="utf-8"?>
<!-- Generator: Adobe Illustrator 17.0.0, SVG Export Plug-In . SVG Version: 6.00 Build 0)  -->
<!DOCTYPE svg PUBLIC "-//W3C//DTD SVG 1.1//EN" "http://www.w3.org/Graphics/SVG/1.1/DTD/svg11.dtd">
<svg version="1.1" id="Layer_1" xmlns="http://www.w3.org/2000/svg" xmlns:xlink="http://www.w3.org/1999/xlink" x="0px" y="0px"
	 width="100px" height="100px" viewBox="0 0 100 100" enable-background="new 0 0 100 100" xml:space="preserve">
<g>
	<path d="M40.094,46.31l0.078,0.078c0.473,0.473,1.072,0.835,1.785,1.079c0.253-0.036,0.497-0.064,0.734-0.085
		c-0.174-0.204-0.341-0.413-0.501-0.627c-0.652-0.294-1.319-0.444-1.987-0.444H40.094z"/>
	<path d="M48.146,41.924c0.022-0.262,0.054-0.529,0.095-0.804c-0.251-0.665-0.617-1.24-1.089-1.713l-0.074-0.074v0.106
		c0,0.666,0.149,1.333,0.443,1.985C47.735,41.584,47.943,41.751,48.146,41.924z"/>
	<path d="M29.83,46.408c-2.342,0.398-4.117,2.445-4.117,4.841c0.001,2.397,1.777,4.444,4.12,4.841l4.84-4.841L29.83,46.408z"/>
	<path d="M39.751,38.985v-6.847c-1.93-1.395-4.679-1.144-6.337,0.514c-1.693,1.693-1.885,4.396-0.511,6.333H39.751z"/>
	<path d="M63.858,46.388l0.074-0.074h-0.105c-0.67,0-1.34,0.15-1.993,0.445c-0.158,0.212-0.324,0.42-0.496,0.622
		c0.237,0.021,0.482,0.049,0.735,0.085C62.787,47.222,63.387,46.86,63.858,46.388z"/>
	<path d="M56.854,29.066c-0.396-2.343-2.442-4.119-4.84-4.119c-2.398,0-4.444,1.777-4.839,4.121l4.84,4.84L56.854,29.066z"/>
	<path d="M70.616,32.651c-1.659-1.659-4.407-1.913-6.338-0.515v6.851l6.847-0.003C72.5,37.047,72.309,34.345,70.616,32.651z"/>
	<path d="M56.506,41.428c0.295-0.652,0.444-1.32,0.444-1.989v-0.104l-0.071,0.071c-0.475,0.474-0.843,1.051-1.096,1.72
		c0.038,0.268,0.068,0.538,0.09,0.808C56.078,41.759,56.289,41.59,56.506,41.428z"/>
	<path d="M64.277,63.513v6.834c0.82,0.567,1.827,0.876,2.882,0.876c1.321,0,2.58-0.501,3.454-1.374
		c1.695-1.694,1.885-4.398,0.508-6.336H64.277z"/>
	<path d="M63.931,56.187l-0.074-0.074c-0.471-0.47-1.043-0.835-1.704-1.087c-0.278,0.041-0.549,0.073-0.812,0.096
		c0.171,0.201,0.336,0.407,0.494,0.619c0.653,0.296,1.322,0.446,1.993,0.446H63.931z"/>
	<path d="M85.646,51.249c0-4.698-2.762-9.017-6.968-11.044c1.54-4.407,0.439-9.413-2.882-12.735
		c-2.316-2.317-5.396-3.594-8.674-3.594c-1.395,0-2.759,0.234-4.069,0.698c-2.029-4.198-6.346-6.954-11.041-6.954
		s-9.012,2.757-11.041,6.956c-1.309-0.463-2.673-0.698-4.068-0.698c-3.276,0-6.355,1.275-8.671,3.591
		c-3.323,3.321-4.424,8.327-2.884,12.735c-4.205,2.028-6.966,6.347-6.966,11.044c0.001,4.7,2.763,9.02,6.967,11.047
		c-1.539,4.405-0.437,9.411,2.885,12.734c2.315,2.316,5.395,3.592,8.671,3.592c1.392,0,2.755-0.234,4.066-0.697
		C43,82.123,47.317,84.88,52.013,84.88s9.012-2.758,11.041-6.956c1.309,0.464,2.673,0.698,4.068,0.698
		c3.275,0,6.354-1.275,8.671-3.592c3.324-3.324,4.425-8.331,2.884-12.737C82.881,60.266,85.644,55.947,85.646,51.249z
		 M62.263,39.776c0.007-0.112,0.016-0.224,0.016-0.336v-8.246l0.349-0.299c1.269-1.09,2.866-1.69,4.498-1.69
		c1.854,0,3.596,0.722,4.906,2.034c2.529,2.531,2.68,6.659,0.342,9.396l-0.3,0.351l-8.253,0.003c-0.107,0-0.213,0.008-0.318,0.016
		l-1.313,0.073L62.263,39.776z M60.362,45.385l0.144-0.201l0.221-0.111c1-0.503,2.044-0.758,3.101-0.758h4.936l-3.49,3.489
		c-0.753,0.751-1.703,1.305-2.827,1.645l-0.219,0.066L62,49.479c-1.144-0.182-1.955-0.193-3.138-0.019l-3.918,0.576l3.175-2.367
		C58.986,47.022,59.741,46.254,60.362,45.385z M58.95,39.439c0,1.056-0.255,2.098-0.758,3.097l-0.111,0.221l-0.201,0.144
		c-0.873,0.624-1.644,1.381-2.291,2.253l-2.375,3.199l0.583-3.942c0.159-1.074,0.149-2.156-0.027-3.215l-0.041-0.245l0.078-0.235
		c0.353-1.062,0.911-1.979,1.659-2.725l3.484-3.486V39.439z M53.579,51.89l-0.298,0.298c-0.043,0.043-0.089,0.084-0.135,0.124
		l-0.07,0.071c-0.038,0.043-0.075,0.085-0.114,0.125l-0.3,0.305l-0.427-0.005c-0.058-0.001-0.114-0.004-0.171-0.009l-0.051-0.003
		c-0.104,0.008-0.16,0.011-0.217,0.012l-0.427,0.006l-0.3-0.305c-0.038-0.04-0.075-0.082-0.111-0.123l-0.504-0.476v-0.43
		c0-0.064,0.004-0.129,0.009-0.192l-0.02-0.69l0.507-0.48c0.038-0.043,0.076-0.086,0.116-0.127l0.3-0.305l0.427,0.005
		c0.058,0.001,0.113,0.004,0.17,0.008c0.156-0.004,0.213-0.007,0.271-0.008l0.438-0.005l0.907,0.913l-0.014,0.706L53.579,51.89z
		 M45.127,29.355c0.277-3.593,3.302-6.408,6.887-6.408c3.584,0,6.609,2.813,6.888,6.405l0.035,0.458l-5.826,5.831
		c-0.076,0.076-0.144,0.154-0.212,0.231l-0.888,0.975l-0.879-0.972c-0.069-0.079-0.138-0.159-0.214-0.235l-5.826-5.827
		L45.127,29.355z M45.078,34.503l3.489,3.491c0.746,0.748,1.301,1.662,1.65,2.718l0.078,0.235l-0.041,0.244
		c-0.102,0.612-0.152,1.171-0.152,1.708c0,0.45,0.04,0.942,0.123,1.505l0.576,3.926l-2.368-3.184
		c-0.648-0.871-1.417-1.627-2.288-2.247l-0.202-0.145l-0.111-0.222c-0.501-1-0.755-2.04-0.755-3.092V34.503z M43.519,45.178
		l0.144,0.201c0.622,0.872,1.378,1.642,2.247,2.289l3.175,2.366l-3.917-0.575c-1.196-0.175-1.989-0.163-3.136,0.019l-0.226,0.036
		l-0.22-0.066c-1.123-0.339-2.074-0.893-2.827-1.646l-3.493-3.492h4.938c1.054,0,2.096,0.255,3.095,0.757L43.519,45.178z M32,31.237
		c1.311-1.31,3.052-2.031,4.904-2.031c1.632,0,3.229,0.6,4.498,1.689l0.349,0.299v8.245c0,0.109,0.008,0.216,0.016,0.324
		l0.072,1.307l-1.298-0.07c-0.111-0.008-0.223-0.016-0.336-0.016h-8.249l-0.299-0.351C29.318,37.896,29.469,33.769,32,31.237z
		 M23.712,51.249c0-3.581,2.812-6.607,6.401-6.89l0.459-0.036l5.833,5.831c0.078,0.078,0.16,0.149,0.242,0.221l0.969,0.874
		l-0.97,0.874c-0.082,0.072-0.164,0.144-0.242,0.221l-5.83,5.831l-0.459-0.036C26.527,57.859,23.713,54.833,23.712,51.249z
		 M41.767,62.733c-0.007,0.108-0.016,0.217-0.016,0.327v8.242l-0.354,0.3c-1.236,1.044-2.843,1.619-4.525,1.619
		c-1.875,0-3.603-0.695-4.867-1.959c-2.532-2.535-2.683-6.664-0.343-9.4l0.299-0.35h8.245c0.106,0,0.21-0.008,0.315-0.015
		l1.318-0.069L41.767,62.733z M43.663,57.114l-0.143,0.199l-0.219,0.111c-0.996,0.504-2.039,0.76-3.098,0.76h-4.938l3.49-3.489
		c0.743-0.741,1.652-1.295,2.703-1.648l0.238-0.079l0.247,0.041c1.111,0.188,1.979,0.215,3.219,0.03l3.921-0.58l-3.176,2.371
		C45.04,55.478,44.284,56.246,43.663,57.114z M45.077,63.06c0.001-1.056,0.257-2.097,0.76-3.097l0.111-0.22l0.201-0.144
		c0.873-0.624,1.644-1.383,2.292-2.255l2.374-3.198l-0.582,3.94c-0.159,1.073-0.15,2.156,0.026,3.217l0.041,0.243l-0.077,0.234
		c-0.35,1.061-0.906,1.978-1.652,2.726l-3.493,3.49V63.06z M58.901,73.146c-0.276,3.593-3.302,6.407-6.888,6.407
		c-3.583,0-6.608-2.813-6.887-6.406l-0.036-0.459l5.832-5.828c0.081-0.081,0.154-0.167,0.229-0.252l0.857-0.965l0.882,0.979
		c0.071,0.08,0.142,0.162,0.218,0.238l5.828,5.827L58.901,73.146z M58.95,67.996l-3.488-3.488c-0.746-0.748-1.302-1.665-1.652-2.727
		l-0.077-0.233l0.04-0.243c0.176-1.062,0.185-2.146,0.026-3.222l-0.581-3.945l2.374,3.204c0.643,0.868,1.413,1.627,2.289,2.256
		l0.199,0.144l0.11,0.219c0.504,0.999,0.76,2.042,0.76,3.101V67.996z M60.504,57.315l-0.143-0.201
		c-0.62-0.867-1.374-1.635-2.241-2.281l-3.166-2.359l3.907,0.568c1.257,0.183,2.089,0.158,3.223-0.03l0.245-0.041l0.235,0.079
		c1.053,0.351,1.963,0.905,2.706,1.648l3.488,3.488h-4.932c-1.059,0-2.102-0.256-3.103-0.761L60.504,57.315z M72.027,71.263
		c-1.265,1.264-2.994,1.96-4.868,1.96c-1.684,0-3.291-0.575-4.527-1.62l-0.354-0.3v-8.242c0-0.106-0.008-0.212-0.015-0.317
		l-0.069-1.32l1.293,0.073c0.112,0.008,0.226,0.017,0.341,0.017h8.241l0.299,0.35C74.71,64.602,74.561,68.73,72.027,71.263z
		 M73.911,58.136l-0.459,0.035l-5.828-5.825c-0.077-0.077-0.159-0.147-0.24-0.219l-0.972-0.876l0.966-0.871
		c0.084-0.073,0.168-0.147,0.247-0.226l5.832-5.831l0.46,0.036c3.589,0.284,6.4,3.31,6.4,6.888
		C80.318,54.831,77.505,57.856,73.911,58.136z"/>
	<path d="M74.2,46.408l-4.843,4.842l4.84,4.838c2.344-0.396,4.121-2.442,4.12-4.841C78.317,48.853,76.542,46.808,74.2,46.408z"/>
	<path d="M33.419,69.849c0.873,0.872,2.131,1.373,3.452,1.373c1.053,0,2.06-0.309,2.88-0.875v-6.834h-6.843
		C31.533,65.448,31.725,68.152,33.419,69.849z"/>
	<path d="M40.168,56.11l-0.074,0.074h0.109c0.671,0,1.339-0.149,1.987-0.444c0.159-0.213,0.324-0.419,0.496-0.62
		c-0.266-0.023-0.537-0.056-0.814-0.097C41.211,55.276,40.639,55.642,40.168,56.11z"/>
	<path d="M47.523,61.072c-0.295,0.652-0.445,1.32-0.445,1.988h-0.001v0.11l0.078-0.077c0.472-0.474,0.839-1.052,1.09-1.722
		c-0.039-0.268-0.068-0.537-0.089-0.807C47.951,60.741,47.74,60.91,47.523,61.072z"/>
	<path d="M55.875,60.563c-0.021,0.271-0.051,0.54-0.09,0.809c0.253,0.67,0.619,1.249,1.092,1.723l0.073,0.073v-0.107
		c0-0.671-0.149-1.34-0.445-1.992C56.289,60.906,56.079,60.738,55.875,60.563z"/>
	<path d="M47.175,73.433c0.395,2.344,2.441,4.12,4.838,4.12c2.399,0,4.445-1.777,4.84-4.121l-4.838-4.837L47.175,73.433z"/>
</g>
</svg>
