<?xml version="1.0" encoding="utf-8"?>
<!-- Generator: Adobe Illustrator 16.0.0, SVG Export Plug-In . SVG Version: 6.00 Build 0)  -->
<!DOCTYPE svg PUBLIC "-//W3C//DTD SVG 1.1//EN" "http://www.w3.org/Graphics/SVG/1.1/DTD/svg11.dtd">
<svg version="1.1" id="Layer_1" xmlns="http://www.w3.org/2000/svg" xmlns:xlink="http://www.w3.org/1999/xlink" x="0px" y="0px"
	 width="100px" height="100px" viewBox="0 0 100 100" enable-background="new 0 0 100 100" xml:space="preserve">
<g>
	<path d="M50.316,45.016c-3.404,0-6.173,2.769-6.173,6.172c0,3.402,2.77,6.171,6.173,6.171c3.402,0,6.171-2.769,6.171-6.171
		C56.487,47.785,53.719,45.016,50.316,45.016z M50.316,54.643c-1.906,0-3.457-1.55-3.457-3.454c0-1.907,1.551-3.458,3.457-3.458
		c1.905,0,3.455,1.551,3.455,3.458C53.771,53.093,52.222,54.643,50.316,54.643z"/>
	<circle cx="50.316" cy="51.186" r="1.456"/>
	<path d="M57.611,41.714l-7.294-13.339l-7.299,13.343c-0.309,0.564-0.771,1.026-1.335,1.335l-13.34,7.296l7.042,3.852l6.298,3.445
		c0.563,0.307,1.025,0.769,1.335,1.335l7.299,13.342l7.296-13.341c0.306-0.563,0.768-1.025,1.335-1.335l13.344-7.298l-13.344-7.297
		C58.382,42.744,57.92,42.281,57.611,41.714z M50.316,59.359c-4.507,0-8.173-3.665-8.173-8.171c0-4.506,3.667-8.172,8.173-8.172
		c4.506,0,8.171,3.666,8.171,8.172C58.487,55.694,54.822,59.359,50.316,59.359z"/>
	<path d="M80.898,47.404l-10.114-5.532l3.238-11.062c0.347-1.177,0.022-2.448-0.847-3.32c-0.856-0.855-2.185-1.187-3.318-0.847
		l-11.062,3.24L53.261,19.77c-0.589-1.078-1.718-1.748-2.946-1.748c-1.227,0-2.355,0.669-2.945,1.747l-5.535,10.115l-11.059-3.24
		c-1.167-0.346-2.459-0.015-3.321,0.847c-0.871,0.87-1.196,2.142-0.849,3.319l3.239,11.064l-10.115,5.532
		c-1.078,0.591-1.748,1.72-1.748,2.946s0.669,2.355,1.749,2.946l10.114,5.532l-3.239,11.062c-0.347,1.181-0.021,2.453,0.847,3.317
		c0.85,0.853,2.168,1.186,3.317,0.85l11.064-3.241l5.535,10.114c0.59,1.079,1.719,1.749,2.945,1.749c1.228,0,2.357-0.67,2.945-1.748
		l5.536-10.115l11.065,3.242c1.166,0.338,2.467-0.001,3.313-0.849c0.871-0.868,1.196-2.141,0.849-3.319L70.784,58.83L80.9,53.297
		c1.076-0.591,1.744-1.72,1.744-2.945C82.645,49.125,81.977,47.996,80.898,47.404z M59.907,59.401
		c-0.229,0.126-0.415,0.312-0.539,0.539l-9.051,16.551L41.264,59.94c-0.125-0.229-0.312-0.415-0.539-0.539L24.175,50.35l9.783-5.351
		v-0.407l0.746-0.001l6.019-3.292c0.229-0.125,0.415-0.311,0.54-0.54l9.054-16.552l9.05,16.549c0.125,0.23,0.312,0.416,0.539,0.541
		l16.553,9.052L59.907,59.401z"/>
</g>
</svg>
