<?xml version="1.0" encoding="utf-8"?>
<!-- Generator: Adobe Illustrator 16.0.0, SVG Export Plug-In . SVG Version: 6.00 Build 0)  -->
<!DOCTYPE svg PUBLIC "-//W3C//DTD SVG 1.1//EN" "http://www.w3.org/Graphics/SVG/1.1/DTD/svg11.dtd">
<svg version="1.1" id="Layer_1" xmlns="http://www.w3.org/2000/svg" xmlns:xlink="http://www.w3.org/1999/xlink" x="0px" y="0px"
	 width="100px" height="100px" viewBox="0 0 100 100" enable-background="new 0 0 100 100" xml:space="preserve">
<g>
	<circle cx="40.75" cy="64.75" r="1.174"/>
	<path d="M44.656,49.718c-0.27-0.523-0.794-0.863-1.391-0.863h-12.25c-0.871,0-1.58,0.708-1.58,1.58v17.3
		c0,0.871,0.708,1.579,1.58,1.579h12.25c0.871,0,1.58-0.708,1.58-1.579v-0.812h-0.188V49.718z M40.75,67.924
		c-1.75,0-3.174-1.424-3.174-3.174S39,61.576,40.75,61.576S43.924,63,43.924,64.75S42.5,67.924,40.75,67.924z"/>
	<path d="M70.56,46.813h-6.914l0.012-1.012c0.027-2.263-0.022-5.86-0.104-11.82l-0.012-0.871c-0.014-0.857-0.723-1.556-1.58-1.556
		h-4.728c-0.603,0-1.145,0.334-1.413,0.873l-9.019,18.04h-0.146v15.482l1.075-0.045l2.512,2.869
		c0.299,0.345,0.732,0.541,1.188,0.541h19.125c0.871,0,1.58-0.708,1.58-1.579V48.391C72.137,47.521,71.43,46.813,70.56,46.813z"/>
</g>
</svg>
