<?xml version="1.0" encoding="utf-8"?>
<!-- Generator: Adobe Illustrator 17.0.0, SVG Export Plug-In . SVG Version: 6.00 Build 0)  -->
<!DOCTYPE svg PUBLIC "-//W3C//DTD SVG 1.1//EN" "http://www.w3.org/Graphics/SVG/1.1/DTD/svg11.dtd">
<svg version="1.1" id="Layer_1" xmlns="http://www.w3.org/2000/svg" xmlns:xlink="http://www.w3.org/1999/xlink" x="0px" y="0px"
	 width="100px" height="100px" viewBox="0 0 100 100" enable-background="new 0 0 100 100" xml:space="preserve">
<g>
	<path d="M51.939,41.328c-1.242,0-2.455,0.258-3.603,0.769c-4.47,1.989-6.49,7.247-4.501,11.719
		c1.423,3.202,4.609,5.271,8.116,5.271c1.242,0,2.454-0.258,3.603-0.768c4.472-1.99,6.491-7.248,4.501-11.719
		C58.631,43.396,55.445,41.328,51.939,41.328z"/>
	<path d="M83.557,44.713c-0.128-0.748-0.568-1.416-1.208-1.832c-0.635-0.412-1.42-0.544-2.163-0.36
		c-0.871,0.22-1.779,0.168-2.593-0.145c-2.217-0.852-3.328-3.35-2.477-5.568c0.32-0.834,0.902-1.543,1.682-2.05
		c0.639-0.414,1.079-1.081,1.209-1.829c0.13-0.748-0.059-1.524-0.518-2.128c-1.983-2.617-4.349-4.904-7.032-6.798
		c-0.614-0.431-1.357-0.6-2.14-0.442c-0.741,0.155-1.392,0.614-1.786,1.263c-0.457,0.755-1.123,1.342-1.926,1.699
		c-0.559,0.248-1.146,0.374-1.748,0.374c-1.701,0-3.248-1.004-3.94-2.559c-0.367-0.825-0.462-1.734-0.275-2.629
		c0.156-0.741-0.004-1.521-0.439-2.145c-0.436-0.618-1.116-1.033-1.866-1.137c-3.231-0.45-6.582-0.4-9.766,0.144
		c-0.747,0.128-1.414,0.564-1.831,1.198c-0.417,0.635-0.553,1.422-0.371,2.159c0.211,0.862,0.158,1.75-0.156,2.566
		c-0.636,1.655-2.252,2.767-4.023,2.767c-0.523,0-1.043-0.098-1.544-0.29c-0.837-0.322-1.547-0.904-2.053-1.686
		c-0.413-0.637-1.078-1.079-1.824-1.21c-0.748-0.131-1.525,0.058-2.126,0.508c-2.63,1.979-4.928,4.34-6.831,7.02
		c-0.441,0.622-0.605,1.407-0.448,2.152c0.156,0.747,0.622,1.399,1.276,1.791c0.764,0.457,1.358,1.126,1.719,1.938
		c0.468,1.051,0.498,2.222,0.086,3.295c-0.414,1.075-1.221,1.923-2.271,2.391c-0.837,0.37-1.781,0.461-2.682,0.263
		c-0.743-0.166-1.53-0.012-2.157,0.421c-0.625,0.432-1.046,1.112-1.156,1.87c-0.466,3.29-0.423,6.595,0.125,9.821
		c0.127,0.755,0.57,1.429,1.217,1.847c0.637,0.411,1.425,0.544,2.182,0.349c0.879-0.229,1.8-0.183,2.628,0.134
		c1.074,0.412,1.923,1.219,2.392,2.27c0.468,1.051,0.498,2.222,0.085,3.296c-0.33,0.857-0.935,1.579-1.752,2.089
		c-0.651,0.408-1.104,1.072-1.242,1.819c-0.142,0.754,0.041,1.539,0.503,2.154c1.995,2.655,4.374,4.967,7.069,6.871
		c0.632,0.448,1.456,0.605,2.171,0.44c0.752-0.163,1.404-0.64,1.79-1.307c0.459-0.795,1.142-1.41,1.973-1.78
		c0.556-0.247,1.144-0.373,1.747-0.373c1.701,0,3.248,1.005,3.94,2.558c0.382,0.861,0.469,1.806,0.253,2.731
		c-0.176,0.751-0.027,1.545,0.408,2.176c0.435,0.635,1.123,1.06,1.885,1.165c1.464,0.205,2.953,0.309,4.425,0.309
		c1.814,0,3.643-0.158,5.434-0.469c0.758-0.132,1.43-0.579,1.844-1.228c0.413-0.649,0.536-1.447,0.336-2.187
		c-0.242-0.898-0.2-1.815,0.122-2.653c0.637-1.655,2.255-2.767,4.026-2.767c0.521,0,1.041,0.097,1.539,0.287
		c0.856,0.331,1.579,0.937,2.089,1.751c0.407,0.65,1.074,1.103,1.829,1.242c0.756,0.14,1.546-0.053,2.151-0.512
		c2.641-2,4.941-4.383,6.842-7.086c0.437-0.627,0.595-1.413,0.433-2.159c-0.162-0.747-0.634-1.396-1.296-1.784
		c-0.783-0.458-1.391-1.135-1.757-1.958c-0.965-2.171,0.015-4.723,2.183-5.688c0.836-0.37,1.764-0.467,2.683-0.262
		c0.192,0.042,0.39,0.062,0.587,0.062c0,0,0,0,0.001,0c0.564,0,1.107-0.169,1.569-0.49c0.627-0.436,1.047-1.121,1.151-1.882
		C84.182,51.241,84.119,47.944,83.557,44.713z M56.365,60.146c-1.405,0.623-2.891,0.939-4.414,0.939c-4.297,0-8.2-2.535-9.944-6.458
		c-2.436-5.479,0.039-11.921,5.517-14.359c1.406-0.625,2.892-0.941,4.416-0.941c4.295,0,8.198,2.535,9.943,6.458
		C64.32,51.266,61.846,57.707,56.365,60.146z"/>
</g>
</svg>
