<?xml version="1.0" encoding="utf-8"?>
<!-- Generator: Adobe Illustrator 17.0.0, SVG Export Plug-In . SVG Version: 6.00 Build 0)  -->
<!DOCTYPE svg PUBLIC "-//W3C//DTD SVG 1.1//EN" "http://www.w3.org/Graphics/SVG/1.1/DTD/svg11.dtd">
<svg version="1.1" id="Layer_1" xmlns="http://www.w3.org/2000/svg" xmlns:xlink="http://www.w3.org/1999/xlink" x="0px" y="0px"
	 width="100px" height="100px" viewBox="0 0 100 100" enable-background="new 0 0 100 100" xml:space="preserve">
<path d="M71.438,62.96h5.346V31.166h-6.907c2.281-1.757,3.759-4.508,3.759-7.603c0-5.295-4.308-9.603-9.603-9.603
	s-9.603,4.308-9.603,9.603c0,3.095,1.478,5.846,3.759,7.603h-4.586h-2.321h-4.586c2.281-1.757,3.759-4.508,3.759-7.603
	c0-5.295-4.308-9.603-9.603-9.603s-9.603,4.308-9.603,9.603c0,3.095,1.478,5.846,3.759,7.603h-6.907V62.96h5.136L26.821,74h6.738
	v12.04h14.38V74H50h4.677h2.061v12.04h14.38V74h6.738L71.438,62.96z M53.604,62.96h2.815l-4.08,7.018l-4.08-7.018h3.025H53.604z"/>
</svg>
