<?xml version="1.0" encoding="utf-8"?>
<!-- Generator: Adobe Illustrator 17.0.0, SVG Export Plug-In . SVG Version: 6.00 Build 0)  -->
<!DOCTYPE svg PUBLIC "-//W3C//DTD SVG 1.1//EN" "http://www.w3.org/Graphics/SVG/1.1/DTD/svg11.dtd">
<svg version="1.1" id="Layer_1" xmlns="http://www.w3.org/2000/svg" xmlns:xlink="http://www.w3.org/1999/xlink" x="0px" y="0px"
	 width="100px" height="100px" viewBox="0 0 100 100" enable-background="new 0 0 100 100" xml:space="preserve">
<path d="M50,35.003c-10.395,0-20.099,5.548-25.397,14.5c5.299,8.951,15.003,14.5,25.397,14.5c10.394,0,20.098-5.549,25.397-14.5
	C70.098,40.551,60.394,35.003,50,35.003z M60.666,49.848H56.5v1.833h-1v-1.833h-2v1.833h-1v-1.833h-2v1.833h-1v-1.833h-2v1.833h-1
	v-1.833h-2v1.833h-1v-1.833h-4.167v-1H43.5v-1.834h1v1.834h2v-1.834h1v1.834h2v-1.834h1v1.834h2v-1.834h1v1.834h2v-1.834h1v1.834
	h4.166V49.848z"/>
</svg>
