<?xml version="1.0" encoding="utf-8"?>
<!-- Generator: Adobe Illustrator 17.0.0, SVG Export Plug-In . SVG Version: 6.00 Build 0)  -->
<!DOCTYPE svg PUBLIC "-//W3C//DTD SVG 1.1//EN" "http://www.w3.org/Graphics/SVG/1.1/DTD/svg11.dtd">
<svg version="1.1" id="Layer_1" xmlns="http://www.w3.org/2000/svg" xmlns:xlink="http://www.w3.org/1999/xlink" x="0px" y="0px"
	 width="100px" height="100px" viewBox="0 0 100 100" enable-background="new 0 0 100 100" xml:space="preserve">
<path d="M81.887,18.113l-15.79,1.471L18.113,67.569l14.319,14.319l47.985-47.985L81.887,18.113z M68.902,24.313l-37.83,37.83
	l-2.353-2.353l37.83-37.83L68.902,24.313z M70.316,25.727l3.957,3.957l-37.83,37.83l-3.957-3.957L70.316,25.727z M75.687,31.098
	l2.353,2.353l-37.83,37.83l-2.353-2.353L75.687,31.098z M77.101,29.684l-6.785-6.785l-1.554-1.554l5.37-0.5l5.024,5.024l-0.5,5.37
	L77.101,29.684z"/>
</svg>
