<?xml version="1.0" encoding="utf-8"?>
<!-- Generator: Adobe Illustrator 17.0.0, SVG Export Plug-In . SVG Version: 6.00 Build 0)  -->
<!DOCTYPE svg PUBLIC "-//W3C//DTD SVG 1.1//EN" "http://www.w3.org/Graphics/SVG/1.1/DTD/svg11.dtd">
<svg version="1.1" id="Layer_1" xmlns="http://www.w3.org/2000/svg" xmlns:xlink="http://www.w3.org/1999/xlink" x="0px" y="0px"
	 width="100px" height="100px" viewBox="0 0 100 100" enable-background="new 0 0 100 100" xml:space="preserve">
<g>
	<path d="M73.256,59.633L82.889,50l-9.633-9.633V26.743H59.633L50,17.111l-9.633,9.633H26.744v13.624L17.111,50l9.633,9.633v13.624
		h13.623L50,82.889l9.633-9.633h13.624V59.633z M34.969,65.031l-8.226-8.226v0L19.939,50L50,19.939l15.03,15.031l8.226,8.226v0
		L80.061,50L50,80.061L34.969,65.031z"/>
	<path d="M36.22,36.22c-1.395,1.394-1.395,3.663,0,5.059c0.676,0.676,1.574,1.048,2.529,1.048c0.956,0,1.854-0.372,2.529-1.048
		c0.676-0.676,1.048-1.574,1.048-2.529c0-0.956-0.372-1.854-1.048-2.529C39.93,34.87,37.573,34.869,36.22,36.22z M39.865,39.865
		c-0.595,0.596-1.634,0.597-2.23,0c-0.614-0.615-0.614-1.616,0-2.23c0.298-0.298,0.694-0.462,1.115-0.462
		c0.422,0,0.817,0.164,1.115,0.462s0.462,0.693,0.462,1.115C40.327,39.171,40.163,39.567,39.865,39.865z"/>
</g>
</svg>
