<?xml version="1.0" encoding="utf-8"?>
<!-- Generator: Adobe Illustrator 16.0.0, SVG Export Plug-In . SVG Version: 6.00 Build 0)  -->
<!DOCTYPE svg PUBLIC "-//W3C//DTD SVG 1.1//EN" "http://www.w3.org/Graphics/SVG/1.1/DTD/svg11.dtd">
<svg version="1.1" id="Layer_1" xmlns="http://www.w3.org/2000/svg" xmlns:xlink="http://www.w3.org/1999/xlink" x="0px" y="0px"
	 width="100px" height="100px" viewBox="0 0 100 100" enable-background="new 0 0 100 100" xml:space="preserve">
<g>
	<path d="M50,57.589c-2.027,0-3.933-0.79-5.366-2.224C43.2,53.933,42.411,52.026,42.411,50c0-2.027,0.789-3.933,2.223-5.366
		C46.067,43.2,47.973,42.41,50,42.41c2.028,0,3.933,0.79,5.366,2.223c1.434,1.433,2.224,3.339,2.224,5.366
		c0,2.028-0.79,3.933-2.224,5.366C53.933,56.799,52.027,57.589,50,57.589z M50,44.41c-1.493,0-2.896,0.582-3.952,1.637
		S44.411,48.506,44.411,50c0,1.493,0.581,2.896,1.637,3.952s2.459,1.638,3.952,1.638s2.896-0.582,3.952-1.638
		s1.638-2.459,1.638-3.952c0-1.493-0.582-2.896-1.638-3.952C52.896,44.992,51.492,44.41,50,44.41z"/>
</g>
<g>
	<path d="M39.975,60.025c-2.678-2.678-4.152-6.237-4.152-10.025c0-3.787,1.475-7.348,4.152-10.025l1.414,1.414
		c-2.3,2.3-3.566,5.358-3.566,8.611s1.267,6.312,3.566,8.611L39.975,60.025z"/>
</g>
<g>
	<path d="M60.025,60.025l-1.414-1.414c2.3-2.3,3.566-5.358,3.566-8.611s-1.267-6.311-3.566-8.611l1.414-1.414
		c2.678,2.678,4.152,6.238,4.152,10.025C64.178,53.788,62.703,57.348,60.025,60.025z"/>
</g>
<g>
	<path d="M30.657,69.343C25.49,64.177,22.645,57.307,22.645,50c0-7.308,2.846-14.177,8.012-19.343l1.414,1.414
		C27.282,36.859,24.645,43.227,24.645,50s2.638,13.14,7.426,17.929L30.657,69.343z"/>
</g>
<g>
	<path d="M69.343,69.343l-1.414-1.414C72.718,63.14,75.354,56.772,75.354,50s-2.637-13.14-7.426-17.929l1.414-1.414
		C74.51,35.823,77.354,42.692,77.354,50C77.354,57.307,74.51,64.177,69.343,69.343z"/>
</g>
<g>
	<path d="M35.315,64.685c-8.097-8.098-8.097-21.272,0-29.369l1.414,1.414c-7.317,7.317-7.317,19.224,0,26.541L35.315,64.685z"/>
</g>
<g>
	<path d="M64.685,64.685l-1.414-1.414c7.315-7.317,7.315-19.224,0-26.541l1.414-1.414C72.78,43.412,72.78,56.587,64.685,64.685z"/>
</g>
<text transform="matrix(1 0 0 1 400 300)" font-family="'MyriadPro-Regular'" font-size="12">100%</text>
<text transform="matrix(1 0 0 1 400 300)" font-family="'MyriadPro-Regular'" font-size="12">100%</text>
</svg>
