<?xml version="1.0" encoding="utf-8"?>
<!-- Generator: Adobe Illustrator 16.0.0, SVG Export Plug-In . SVG Version: 6.00 Build 0)  -->
<!DOCTYPE svg PUBLIC "-//W3C//DTD SVG 1.1//EN" "http://www.w3.org/Graphics/SVG/1.1/DTD/svg11.dtd">
<svg version="1.1" id="Layer_1" xmlns="http://www.w3.org/2000/svg" xmlns:xlink="http://www.w3.org/1999/xlink" x="0px" y="0px"
	 width="100px" height="100px" viewBox="0 0 100 100" enable-background="new 0 0 100 100" xml:space="preserve">
<g>
	<path d="M50,81c-17.093,0-31-13.906-31-31c0-17.093,13.907-31,31-31c17.094,0,31,13.907,31,31C81,67.094,67.094,81,50,81z M50,21
		c-15.991,0-29,13.009-29,29c0,15.99,13.009,29,29,29c15.99,0,29-13.01,29-29C79,34.009,65.99,21,50,21z"/>
</g>
<g>
	<polygon points="49,52.414 49,28.757 51,28.757 51,47.586 58.109,40.477 59.523,41.891 	"/>
</g>
</svg>
