<?xml version="1.0" encoding="utf-8"?>
<!-- Generator: Adobe Illustrator 17.0.0, SVG Export Plug-In . SVG Version: 6.00 Build 0)  -->
<!DOCTYPE svg PUBLIC "-//W3C//DTD SVG 1.1//EN" "http://www.w3.org/Graphics/SVG/1.1/DTD/svg11.dtd">
<svg version="1.1" id="Layer_1" xmlns="http://www.w3.org/2000/svg" xmlns:xlink="http://www.w3.org/1999/xlink" x="0px" y="0px"
	 width="100px" height="100px" viewBox="0 0 100 100" enable-background="new 0 0 100 100" xml:space="preserve">
<path d="M62,35.902c-0.289,0-0.573,0.025-0.857,0.043C62.314,33.994,63,31.72,63,29.284c0-7.168-5.832-13-13-13s-13,5.832-13,13
	c0,2.437,0.686,4.71,1.857,6.662c-0.285-0.019-0.568-0.043-0.857-0.043c-7.168,0-13,5.832-13,13c0,6.943,5.477,12.617,12.335,12.966
	L50,90.364l12.665-28.496C69.523,61.519,75,55.845,75,48.902C75,41.734,69.168,35.902,62,35.902z M50,18.284c6.065,0,11,4.935,11,11
	c0,2.73-1.006,5.226-2.659,7.151c-1.479,1.723-3.48,2.978-5.757,3.529c-0.83,0.201-1.693,0.319-2.584,0.319
	s-1.754-0.118-2.584-0.319c-2.277-0.551-4.277-1.806-5.757-3.529C40.006,34.51,39,32.014,39,29.284
	C39,23.218,43.935,18.284,50,18.284z M55.104,59.902H44.896c2.263-1.424,4.063-3.516,5.104-6.008
	C51.041,56.386,52.841,58.478,55.104,59.902z M27,48.902c0-6.065,4.935-11,11-11c0.891,0,1.754,0.118,2.584,0.319
	c1.557,1.64,3.531,2.875,5.757,3.529C47.994,43.676,49,46.172,49,48.902c0,6.065-4.935,11-11,11S27,54.967,27,48.902z M50,85.44
	L39.539,61.902h20.922L50,85.44z M62,59.902c-6.065,0-11-4.935-11-11c0-2.73,1.006-5.226,2.659-7.151
	c2.226-0.654,4.2-1.89,5.757-3.529c0.83-0.201,1.693-0.319,2.584-0.319c6.065,0,11,4.935,11,11S68.065,59.902,62,59.902z"/>
</svg>
