<?xml version="1.0" encoding="utf-8"?>
<!-- Generator: Adobe Illustrator 17.0.0, SVG Export Plug-In . SVG Version: 6.00 Build 0)  -->
<!DOCTYPE svg PUBLIC "-//W3C//DTD SVG 1.1//EN" "http://www.w3.org/Graphics/SVG/1.1/DTD/svg11.dtd">
<svg version="1.1" id="Layer_1" xmlns="http://www.w3.org/2000/svg" xmlns:xlink="http://www.w3.org/1999/xlink" x="0px" y="0px"
	 width="100px" height="100px" viewBox="0 0 100 100" enable-background="new 0 0 100 100" xml:space="preserve">
<g>
	<path d="M50,20.426c-17.094,0-31,13.906-31,31s13.906,31,31,31s31-13.906,31-31S67.094,20.426,50,20.426z M50,80.426
		c-15.99,0-29-13.01-29-29s13.01-29,29-29s29,13.01,29,29S65.99,80.426,50,80.426z"/>
	<path d="M39.334,47.759c2.39,0,4.333-1.943,4.333-4.333s-1.943-4.334-4.333-4.334S35,41.036,35,43.426S36.944,47.759,39.334,47.759
		z M39.334,41.092c1.286,0,2.333,1.047,2.333,2.334c0,1.286-1.047,2.333-2.333,2.333c-1.287,0-2.334-1.047-2.334-2.333
		C37,42.139,38.047,41.092,39.334,41.092z"/>
	<path d="M60.667,47.759c2.39,0,4.333-1.943,4.333-4.333s-1.943-4.334-4.333-4.334s-4.333,1.944-4.333,4.334
		S58.277,47.759,60.667,47.759z M60.667,41.092c1.286,0,2.333,1.047,2.333,2.334c0,1.286-1.047,2.333-2.333,2.333
		s-2.333-1.047-2.333-2.333C58.334,42.139,59.381,41.092,60.667,41.092z"/>
	<path d="M71,54.833H29v2h0.186C29.713,67.872,38.833,76.697,50,76.697c11.167,0,20.287-8.825,20.814-19.864H71V54.833z M50,74.697
		c-10.064,0-18.289-7.929-18.814-17.864h37.627C68.289,66.768,60.064,74.697,50,74.697z"/>
</g>
</svg>
