<?xml version="1.0" encoding="utf-8"?>
<!-- Generator: Adobe Illustrator 17.0.0, SVG Export Plug-In . SVG Version: 6.00 Build 0)  -->
<!DOCTYPE svg PUBLIC "-//W3C//DTD SVG 1.1//EN" "http://www.w3.org/Graphics/SVG/1.1/DTD/svg11.dtd">
<svg version="1.1" id="Layer_1" xmlns="http://www.w3.org/2000/svg" xmlns:xlink="http://www.w3.org/1999/xlink" x="0px" y="0px"
	 width="100px" height="100px" viewBox="0 0 100 100" enable-background="new 0 0 100 100" xml:space="preserve">
<g>
	<g>
		<path d="M53.181,86.735c-0.872,0-1.7-0.42-2.215-1.124l-0.856-1.163c-3.838-5.227-22.981-31.943-22.981-44.782
			c0-14.365,11.687-26.052,26.052-26.052c14.365,0,26.052,11.687,26.052,26.052c0,13.149-20.628,41.583-22.98,44.782l-0.859,1.169
			C54.881,86.316,54.054,86.735,53.181,86.735z M53.181,15.614c-13.262,0-24.052,10.79-24.052,24.052
			c0,12.474,20.28,40.449,22.592,43.598l0.858,1.165c0.279,0.385,0.927,0.379,1.2,0.006l0.861-1.172
			c2.312-3.145,22.592-31.085,22.592-43.597C77.232,26.403,66.442,15.614,53.181,15.614z"/>
	</g>
	<g>
		<path d="M53.181,53.086c-6.222,0-11.284-5.062-11.284-11.285s5.062-11.285,11.284-11.285c6.222,0,11.284,5.062,11.285,11.285
			C64.466,48.023,59.403,53.086,53.181,53.086z M53.181,32.517c-5.119,0-9.284,4.165-9.284,9.285s4.165,9.285,9.284,9.285
			c5.12,0,9.285-4.165,9.285-9.285C62.465,36.682,58.3,32.517,53.181,32.517z M53.181,48.531c-3.709,0-6.727-3.019-6.727-6.73
			c0-3.709,3.018-6.728,6.727-6.728c3.71,0,6.728,3.018,6.728,6.728C59.908,45.512,56.891,48.531,53.181,48.531z M53.181,37.074
			c-2.606,0-4.727,2.121-4.727,4.728c0,2.608,2.121,4.73,4.727,4.73s4.728-2.122,4.728-4.73
			C57.908,39.194,55.787,37.074,53.181,37.074z"/>
	</g>
</g>
</svg>
