<?xml version="1.0" encoding="utf-8"?>
<!-- Generator: Adobe Illustrator 17.0.0, SVG Export Plug-In . SVG Version: 6.00 Build 0)  -->
<!DOCTYPE svg PUBLIC "-//W3C//DTD SVG 1.1//EN" "http://www.w3.org/Graphics/SVG/1.1/DTD/svg11.dtd">
<svg version="1.1" id="Layer_1" xmlns="http://www.w3.org/2000/svg" xmlns:xlink="http://www.w3.org/1999/xlink" x="0px" y="0px"
	 width="100px" height="100px" viewBox="0 0 100 100" enable-background="new 0 0 100 100" xml:space="preserve">
<g>
	<path d="M52.506,75.833L28.884,54.336c-0.755-0.805-1.434-1.697-2.016-2.652c-0.574-0.941-1.052-1.945-1.422-2.985
		c-0.627-1.765-0.946-3.585-0.946-5.411c0-8.915,7.252-16.167,16.167-16.167c4.488,0,8.72,1.855,11.75,5.062
		c3.029-3.207,7.262-5.062,11.75-5.062c8.914,0,16.166,7.252,16.166,16.167c0,1.795-0.308,3.587-0.914,5.325
		c-0.387,1.106-0.896,2.174-1.516,3.172c-0.521,0.84-1.122,1.636-1.787,2.367l-0.127,0.128L52.506,75.833z M31.749,51.543
		l20.746,18.872l20.722-19.019c0.479-0.533,0.911-1.111,1.287-1.718c0.466-0.751,0.849-1.554,1.14-2.385
		c0.458-1.313,0.69-2.661,0.69-4.006c0-6.709-5.458-12.167-12.166-12.167c-4.05,0-7.823,2.007-10.092,5.369l-1.658,2.456
		L50.76,36.49c-2.271-3.362-6.043-5.37-10.093-5.37c-6.708,0-12.167,5.458-12.167,12.167c0,1.368,0.24,2.737,0.714,4.071
		c0.278,0.781,0.638,1.536,1.069,2.243C30.709,50.3,31.202,50.952,31.749,51.543z"/>
</g>
</svg>
