<?xml version="1.0" encoding="utf-8"?>
<!-- Generator: Adobe Illustrator 17.0.0, SVG Export Plug-In . SVG Version: 6.00 Build 0)  -->
<!DOCTYPE svg PUBLIC "-//W3C//DTD SVG 1.1//EN" "http://www.w3.org/Graphics/SVG/1.1/DTD/svg11.dtd">
<svg version="1.1" id="Layer_1" xmlns="http://www.w3.org/2000/svg" xmlns:xlink="http://www.w3.org/1999/xlink" x="0px" y="0px"
	 width="100px" height="100px" viewBox="0 0 100 100" enable-background="new 0 0 100 100" xml:space="preserve">
<g>
	<path d="M50.394,75.31c-3.381,0-6.751-0.872-9.762-2.524l-4.567-0.176c-0.491,0.219-0.994,0.406-1.499,0.558
		c-1.213,0.365-2.467,0.551-3.726,0.551c-5.666,0-10.764-3.787-12.397-9.211c-0.996-3.305-0.643-6.804,0.994-9.853
		s4.358-5.276,7.664-6.271c0.502-0.152,1.025-0.274,1.557-0.364l3.71-2.67c1.696-3.234,4.263-5.962,7.434-7.903l2.485-1.294
		l2.334-2.576c1.669-4.01,5-7.02,9.166-8.275c1.342-0.404,2.731-0.609,4.13-0.609c5.846,0,11.189,3.581,13.392,8.941l4.307,3.174
		c5.286,0.479,9.667,4.056,11.211,9.183c1,3.319,0.646,6.833-0.998,9.894c-1.644,3.062-4.377,5.299-7.696,6.298
		c-1.662,0.501-3.388,0.663-5.105,0.481l-4.991,2.502c-2.599,4.482-6.754,7.768-11.732,9.267
		C54.37,75.014,52.382,75.309,50.394,75.31z M35.662,70.592l5.529,0.213l0.211,0.119c4.355,2.458,9.54,3.031,14.326,1.593
		c4.578-1.38,8.385-4.434,10.718-8.599l0.149-0.269l6.079-3.047l0.304,0.04c1.533,0.2,3.086,0.072,4.579-0.376
		c2.808-0.847,5.119-2.739,6.511-5.329c1.391-2.591,1.691-5.564,0.846-8.372c-1.331-4.418-5.149-7.475-9.729-7.788l-0.29-0.02
		l-5.236-3.858l-0.104-0.272c-1.834-4.747-6.511-7.937-11.636-7.937c-1.203,0-2.398,0.176-3.554,0.524
		c-3.639,1.096-6.538,3.748-7.956,7.274l-0.066,0.166l-2.813,3.104l-2.743,1.426c-2.867,1.756-5.221,4.289-6.748,7.288l-0.11,0.216
		l-4.49,3.232l-0.239,0.036c-0.521,0.078-1.033,0.192-1.521,0.339c-2.793,0.842-5.094,2.726-6.479,5.304s-1.683,5.536-0.841,8.33
		c1.381,4.585,5.692,7.787,10.482,7.787c1.063,0,2.123-0.157,3.149-0.466c0.489-0.147,0.977-0.334,1.451-0.557L35.662,70.592z"/>
</g>
</svg>
