<?xml version="1.0" encoding="utf-8"?>
<!-- Generator: Adobe Illustrator 17.0.0, SVG Export Plug-In . SVG Version: 6.00 Build 0)  -->
<!DOCTYPE svg PUBLIC "-//W3C//DTD SVG 1.1//EN" "http://www.w3.org/Graphics/SVG/1.1/DTD/svg11.dtd">
<svg version="1.1" id="Layer_1" xmlns="http://www.w3.org/2000/svg" xmlns:xlink="http://www.w3.org/1999/xlink" x="0px" y="0px"
	 width="100px" height="100px" viewBox="0 0 100 100" enable-background="new 0 0 100 100" xml:space="preserve">
<g>
	<path d="M38.017,61.667h-6.333V68h6.333V61.667z M36.017,66h-2.333v-2.333h2.333V66z"/>
	<path d="M38.017,45.667h-6.333v4.167h6.333V45.667z M36.017,47.833h-2.333v-0.167h2.333V47.833z"/>
	<path d="M38.017,40.667h-6.333v4.167h6.333V40.667z M36.017,42.833h-2.333v-0.167h2.333V42.833z"/>
	<path d="M38.017,35.667h-6.333v4.167h6.333V35.667z M36.017,37.833h-2.333v-0.167h2.333V37.833z"/>
	<path d="M53.65,61.667h-6.333V68h6.333V61.667z M51.65,66h-2.333v-2.333h2.333V66z"/>
	<path d="M53.65,45.667h-6.333v4.167h6.333V45.667z M51.65,47.833h-2.333v-0.167h2.333V47.833z"/>
	<path d="M53.65,40.667h-6.333v4.167h6.333V40.667z M51.65,42.833h-2.333v-0.167h2.333V42.833z"/>
	<path d="M53.65,35.667h-6.333v4.167h6.333V35.667z M51.65,37.833h-2.333v-0.167h2.333V37.833z"/>
	<path d="M59.301,30.314h-2H43.667h-2H26.033v41.774h15.633h2h13.634h2h15.633V30.314H59.301z M41.667,70.088H28.033V32.314h13.633
		V70.088z M57.301,70.088H43.667V32.314h13.634V70.088z M72.934,70.088H59.301V32.314h13.633V70.088z"/>
	<path d="M69.284,61.667H62.95V68h6.334V61.667z M67.284,66H64.95v-2.333h2.334V66z"/>
	<path d="M69.284,45.667H62.95v4.167h6.334V45.667z M67.284,47.833H64.95v-0.167h2.334V47.833z"/>
	<path d="M69.284,40.667H62.95v4.167h6.334V40.667z M67.284,42.833H64.95v-0.167h2.334V42.833z"/>
	<path d="M69.284,35.667H62.95v4.167h6.334V35.667z M67.284,37.833H64.95v-0.167h2.334V37.833z"/>
</g>
</svg>
