<?xml version="1.0" encoding="utf-8"?>
<!-- Generator: Adobe Illustrator 17.0.0, SVG Export Plug-In . SVG Version: 6.00 Build 0)  -->
<!DOCTYPE svg PUBLIC "-//W3C//DTD SVG 1.1//EN" "http://www.w3.org/Graphics/SVG/1.1/DTD/svg11.dtd">
<svg version="1.1" id="Layer_1" xmlns="http://www.w3.org/2000/svg" xmlns:xlink="http://www.w3.org/1999/xlink" x="0px" y="0px"
	 width="100px" height="100px" viewBox="0 0 100 100" enable-background="new 0 0 100 100" xml:space="preserve">
<g>
	<path d="M91.394,27.777c-0.215-0.155-0.491-0.196-0.741-0.113l-18.642,6.214c1.634-3.503,2.761-6.813,2.761-9.289
		c0-9.356-7.611-16.967-16.967-16.967c-9.355,0-16.967,7.611-16.967,16.967c0,1.354,0.33,2.946,0.889,4.675l-4.801-1.6
		c-0.023-0.008-0.047,0-0.071-0.006c-0.063-0.015-0.124-0.016-0.189-0.016c-0.065,0-0.126,0.001-0.189,0.016
		c-0.023,0.006-0.048-0.002-0.071,0.006L9.283,36.705c-0.336,0.112-0.562,0.425-0.562,0.779V86.8c0,0.264,0.127,0.512,0.341,0.667
		c0.142,0.102,0.311,0.155,0.481,0.155c0.087,0,0.175-0.014,0.26-0.043l26.863-8.954l26.863,8.954c0.001,0,0.003,0,0.004,0.001
		c0.083,0.027,0.169,0.042,0.256,0.042s0.173-0.015,0.256-0.042c0.001,0,0.003,0,0.004-0.001l27.123-9.041
		c0.336-0.112,0.562-0.425,0.562-0.779V28.443C91.735,28.179,91.608,27.931,91.394,27.777z M35.845,77.166l-25.479,8.493V38.077
		l25.479-8.493V77.166z M57.805,8.924c8.637,0,15.664,7.027,15.664,15.664c0,2.562-1.306,6.117-3.143,9.851
		c-0.34,0.692-0.699,1.39-1.071,2.09c-1.444,2.713-3.086,5.439-4.643,7.878c-0.564,0.884-1.116,1.729-1.644,2.523
		c-2.056,3.093-3.731,5.397-4.212,6.051l-0.561,0.763c-0.178,0.243-0.6,0.247-0.782-0.004l-0.559-0.759
		c-1.146-1.561-9.07-12.492-12.79-21.206c-0.291-0.681-0.555-1.348-0.789-1.996c-0.705-1.953-1.134-3.736-1.134-5.191
		C42.141,15.951,49.168,8.924,57.805,8.924z M62.968,85.659l-25.479-8.493V29.584l4.946,1.649
		c3.444,8.746,11.425,19.872,13.371,22.521l0.557,0.757c0.335,0.459,0.875,0.732,1.443,0.732c0.569,0,1.107-0.273,1.44-0.728
		l0.56-0.761c0.398-0.541,1.602-2.197,3.162-4.494V85.659z M90.091,77.166l-25.479,8.493V46.795
		c2.079-3.178,4.457-7.052,6.391-10.849l19.089-6.363V77.166z"/>
	<path d="M57.805,33.328c4.053,0,7.35-3.297,7.35-7.349c-0.001-4.053-3.298-7.349-7.35-7.349c-4.052,0-7.349,3.297-7.349,7.349
		C50.456,30.031,53.753,33.328,57.805,33.328z M57.805,19.932c3.334,0,6.046,2.713,6.047,6.047c0,3.334-2.713,6.047-6.047,6.047
		c-3.334,0-6.047-2.713-6.047-6.047S54.471,19.932,57.805,19.932z"/>
</g>
</svg>
