<?xml version="1.0" encoding="utf-8"?>
<!-- Generator: Adobe Illustrator 17.0.0, SVG Export Plug-In . SVG Version: 6.00 Build 0)  -->
<!DOCTYPE svg PUBLIC "-//W3C//DTD SVG 1.1//EN" "http://www.w3.org/Graphics/SVG/1.1/DTD/svg11.dtd">
<svg version="1.1" id="Layer_1" xmlns="http://www.w3.org/2000/svg" xmlns:xlink="http://www.w3.org/1999/xlink" x="0px" y="0px"
	 width="100px" height="100px" viewBox="0 0 100 100" enable-background="new 0 0 100 100" xml:space="preserve">
<path d="M60.517,27.968l-13.213-0.062l-0.523-0.002l-0.523,0.002l-13.213,0.062l-7.148,12.774l20.445,24.703l0.44,0.531l0.44-0.531
	l20.445-24.703L60.517,27.968z M45.84,28.908l-7.588,10.849l-4.185-10.794L45.84,28.908z M33.256,29.638l4.116,10.617L27.35,40.193
	L33.256,29.638z M27.568,41.194l10.184,0.063l7.559,21.375L27.568,41.194z M46.228,62.225l-7.413-20.961l7.46,0.046L46.228,62.225z
	 M46.277,40.309l-7.159-0.044l7.145-10.216l0.037-0.053l-0.019,8.38L46.277,40.309z M66.212,40.193L56.19,40.254l4.116-10.617
	L66.212,40.193z M59.494,28.963l-4.185,10.794l-7.588-10.849L59.494,28.963z M47.281,38.376l-0.019-8.38l0.037,0.053l7.145,10.216
	l-7.159,0.044L47.281,38.376z M47.287,41.309l7.46-0.046l-7.413,20.961L47.287,41.309z M48.251,62.632l7.559-21.375l10.184-0.063
	L48.251,62.632z"/>
</svg>
