<?xml version="1.0" encoding="utf-8"?>
<!-- Generator: Adobe Illustrator 17.0.0, SVG Export Plug-In . SVG Version: 6.00 Build 0)  -->
<!DOCTYPE svg PUBLIC "-//W3C//DTD SVG 1.1//EN" "http://www.w3.org/Graphics/SVG/1.1/DTD/svg11.dtd">
<svg version="1.1" id="Layer_1" xmlns="http://www.w3.org/2000/svg" xmlns:xlink="http://www.w3.org/1999/xlink" x="0px" y="0px"
	 width="100px" height="100px" viewBox="0 0 100 100" enable-background="new 0 0 100 100" xml:space="preserve">
<g>
	<path d="M67.688,34.062v-4.75h-9.875v4.75H43.688v-4.75h-9.875v4.75h-8.125v36.625h48.625V34.062H67.688z M59.812,31.312h5.875
		v2.167h-5.875V31.312z M35.812,31.312h5.875v2.167h-5.875V31.312z M72.312,68.688H27.688V36.062h44.625V68.688z"/>
	<rect x="58.812" y="45.688" width="7.875" height="2"/>
	<polygon points="37.75,50.625 39.75,50.625 39.75,47.688 42.688,47.688 42.688,45.688 39.75,45.688 39.75,42.75 37.75,42.75 
		37.75,45.688 34.812,45.688 34.812,47.688 37.75,47.688 	"/>
</g>
</svg>
