<?xml version="1.0" encoding="utf-8"?>
<!-- Generator: Adobe Illustrator 17.0.0, SVG Export Plug-In . SVG Version: 6.00 Build 0)  -->
<!DOCTYPE svg PUBLIC "-//W3C//DTD SVG 1.1//EN" "http://www.w3.org/Graphics/SVG/1.1/DTD/svg11.dtd">
<svg version="1.1" id="Layer_1" xmlns="http://www.w3.org/2000/svg" xmlns:xlink="http://www.w3.org/1999/xlink" x="0px" y="0px"
	 width="100px" height="100px" viewBox="0 0 100 100" enable-background="new 0 0 100 100" xml:space="preserve">
<g>
	<path d="M55.875,51.991H47.75v7.066h8.125V51.991z M54.875,58.057H48.75v-5.066h6.125V58.057z"/>
	<path d="M66.562,51.991h-8.125v7.066h8.125V51.991z M65.562,58.057h-6.125v-5.066h6.125V58.057z"/>
	<path d="M73.688,69.737V43.171h-7.125V28.605h-8.125v14.566h-2.562V28.605H47.75v14.566H23.875v26.565h-3.188v3.465h56.188v-3.465
		H73.688z M59.438,29.605h6.125v13.566h-6.125V29.605z M48.75,29.605h6.125v13.566H48.75V29.605z M24.875,44.171H47.75h8.125h2.562
		h8.125h6.125v25.565H44V51.991H27.5v17.746h-2.625V44.171z M43,69.737H28.5V52.991H43V69.737z M75.875,72.202H21.688v-1.465h2.188
		H27.5H44h29.688h2.188V72.202z"/>
	<rect x="24.375" y="38.888" width="19.125" height="1"/>
</g>
</svg>
