<?xml version="1.0" encoding="utf-8"?>
<!-- Generator: Adobe Illustrator 17.0.0, SVG Export Plug-In . SVG Version: 6.00 Build 0)  -->
<!DOCTYPE svg PUBLIC "-//W3C//DTD SVG 1.1//EN" "http://www.w3.org/Graphics/SVG/1.1/DTD/svg11.dtd">
<svg version="1.1" id="Layer_1" xmlns="http://www.w3.org/2000/svg" xmlns:xlink="http://www.w3.org/1999/xlink" x="0px" y="0px"
	 width="100px" height="100px" viewBox="0 0 100 100" enable-background="new 0 0 100 100" xml:space="preserve">
<path d="M71.438,62.96h5.346V31.166h-6.907c2.281-1.757,3.759-4.508,3.759-7.603c0-5.295-4.308-9.603-9.603-9.603
	s-9.603,4.308-9.603,9.603c0,3.095,1.478,5.846,3.759,7.603h-4.586h-2.321h-4.586c2.281-1.757,3.759-4.508,3.759-7.603
	c0-5.295-4.308-9.603-9.603-9.603s-9.603,4.308-9.603,9.603c0,3.095,1.478,5.846,3.759,7.603h-6.907V62.96h5.136L26.821,74h6.738
	v12.04h14.38V74H50h4.677h2.061v12.04h14.38V74h6.738L71.438,62.96z M56.431,23.562c0-4.192,3.41-7.603,7.603-7.603
	s7.603,3.411,7.603,7.603c0,4.192-3.41,7.603-7.603,7.603S56.431,27.755,56.431,23.562z M53.604,62.96h2.815l-4.08,7.018
	l-4.08-7.018h3.025H53.604z M33.251,23.562c0-4.192,3.41-7.603,7.603-7.603s7.603,3.411,7.603,7.603c0,4.192-3.41,7.603-7.603,7.603
	S33.251,27.755,33.251,23.562z M47.939,72h-2v2v10.04h-10.38V74v-2h-2h-3.262l3.262-5.61l2-3.44V60.96h-1.157h-4.298V33.166h21.179
	V60.96h-4.188h-1.157v1.989l2,3.44l3.243,5.578L51.163,72H47.939z M69.118,72v2v10.04h-10.38V74v-2h-2h-3.224l-0.019-0.032
	l3.243-5.578l2-3.44V60.96h-1.157h-3.978V33.166h21.179V60.96h-4.508h-1.157v1.989l2,3.44L74.38,72h-3.262H69.118z"/>
</svg>
