<?xml version="1.0" encoding="utf-8"?>
<!-- Generator: Adobe Illustrator 17.0.0, SVG Export Plug-In . SVG Version: 6.00 Build 0)  -->
<!DOCTYPE svg PUBLIC "-//W3C//DTD SVG 1.1//EN" "http://www.w3.org/Graphics/SVG/1.1/DTD/svg11.dtd">
<svg version="1.1" id="Layer_1" xmlns="http://www.w3.org/2000/svg" xmlns:xlink="http://www.w3.org/1999/xlink" x="0px" y="0px"
	 width="100px" height="100px" viewBox="0 0 100 100" enable-background="new 0 0 100 100" xml:space="preserve">
<path d="M64.194,56.388c-1.736,0-3.371,0.428-4.817,1.173l-4.913-7.905L69.88,24.852l-1.699-1.056L53.285,47.761L38.389,23.796
	l-1.699,1.056l15.417,24.805l-5.031,8.094c-1.531-0.864-3.294-1.362-5.173-1.362c-5.827,0-10.567,4.74-10.567,10.567
	s4.74,10.567,10.567,10.567s10.568-4.74,10.568-10.567c0-3.229-1.46-6.121-3.75-8.061l4.564-7.343l4.407,7.091
	c-2.47,1.936-4.066,4.939-4.066,8.313c0,5.827,4.74,10.567,10.567,10.567s10.568-4.74,10.568-10.567S70.021,56.388,64.194,56.388z
	 M50.471,66.956c0,4.724-3.844,8.567-8.568,8.567c-4.724,0-8.567-3.844-8.567-8.567s3.844-8.567,8.567-8.567
	C46.627,58.388,50.471,62.232,50.471,66.956z M64.194,75.523c-4.724,0-8.567-3.844-8.567-8.567s3.844-8.567,8.567-8.567
	c4.725,0,8.568,3.844,8.568,8.567S68.918,75.523,64.194,75.523z"/>
</svg>
