<?xml version="1.0" encoding="utf-8"?>
<!-- Generator: Adobe Illustrator 17.0.0, SVG Export Plug-In . SVG Version: 6.00 Build 0)  -->
<!DOCTYPE svg PUBLIC "-//W3C//DTD SVG 1.1//EN" "http://www.w3.org/Graphics/SVG/1.1/DTD/svg11.dtd">
<svg version="1.1" id="Layer_1" xmlns="http://www.w3.org/2000/svg" xmlns:xlink="http://www.w3.org/1999/xlink" x="0px" y="0px"
	 width="100px" height="100px" viewBox="0 0 100 100" enable-background="new 0 0 100 100" xml:space="preserve">
<g>
	<polygon points="51,38 49,38 49,49 38,49 38,51 49,51 49,62 51,62 51,51 62,51 62,49 51,49 	"/>
	<path d="M86.083,49.083h-5.106C80.499,32.746,67.327,19.547,51,19.025V14h-2v5.025c-16.327,0.521-29.499,13.721-29.977,30.058
		h-5.107v2h5.111C19.59,67.344,32.729,80.455,49,80.975v5.192h2v-5.192c16.271-0.519,29.41-13.63,29.973-29.891h5.11V49.083z M50,79
		c-15.99,0-29-13.01-29-29s13.01-29,29-29s29,13.01,29,29S65.99,79,50,79z"/>
</g>
</svg>
