<?xml version="1.0" encoding="utf-8"?>
<!-- Generator: Adobe Illustrator 17.0.0, SVG Export Plug-In . SVG Version: 6.00 Build 0)  -->
<!DOCTYPE svg PUBLIC "-//W3C//DTD SVG 1.1//EN" "http://www.w3.org/Graphics/SVG/1.1/DTD/svg11.dtd">
<svg version="1.1" id="Layer_1" xmlns="http://www.w3.org/2000/svg" xmlns:xlink="http://www.w3.org/1999/xlink" x="0px" y="0px"
	 width="100px" height="100px" viewBox="0 0 100 100" enable-background="new 0 0 100 100" xml:space="preserve">
<g>
	<g>
		<path d="M32.03,78.414c-0.684,0-1.333-0.329-1.735-0.88l-0.564-0.766c-2.54-3.46-15.208-21.147-15.208-29.71
			c0-9.654,7.854-17.507,17.507-17.507c9.653,0,17.507,7.854,17.507,17.507c0,8.588-12.669,26.255-15.208,29.71l-0.566,0.771
			C33.361,78.086,32.713,78.414,32.03,78.414z M32.03,31.551c-8.551,0-15.507,6.957-15.507,15.507
			c0,8.106,13.303,26.459,14.82,28.525l0.565,0.768c0.057,0.078,0.189,0.074,0.242,0.004l0.567-0.772
			c5.504-7.486,14.82-21.92,14.82-28.524C47.537,38.508,40.58,31.551,32.03,31.551z"/>
	</g>
	<g>
		<path d="M32.03,56.242c-4.288,0-7.777-3.488-7.777-7.776s3.489-7.777,7.777-7.777c4.287,0,7.776,3.489,7.776,7.777
			C39.806,52.754,36.318,56.242,32.03,56.242z M32.03,42.689c-3.186,0-5.777,2.591-5.777,5.777s2.591,5.776,5.777,5.776
			c3.185,0,5.776-2.591,5.776-5.776C37.806,45.28,35.214,42.689,32.03,42.689z M32.03,53.241c-2.633,0-4.774-2.143-4.774-4.775
			s2.142-4.774,4.774-4.774c2.632,0,4.774,2.142,4.774,4.774S34.662,53.241,32.03,53.241z M32.03,45.691
			c-1.53,0-2.774,1.245-2.774,2.774c0,1.53,1.245,2.775,2.774,2.775s2.774-1.245,2.774-2.775
			C34.804,46.936,33.56,45.691,32.03,45.691z"/>
	</g>
</g>
<g>
	<path d="M69.51,78.784c-0.725,0-1.395-0.405-1.791-1.083l-0.564-0.96c-2.53-4.312-15.151-26.357-15.151-36.939
		c0-11.94,7.854-21.655,17.507-21.655s17.507,9.714,17.507,21.655c0,10.838-13.601,34.3-15.151,36.939l-0.566,0.964
		C70.903,78.38,70.234,78.784,69.51,78.784z M69.51,20.147c-8.551,0-15.507,8.817-15.507,19.655
		c0,10.278,13.354,33.332,14.876,35.927l0.565,0.961c0.024,0.042,0.049,0.068,0.065,0.083c0.018-0.015,0.041-0.04,0.063-0.079
		l0.567-0.966c1.522-2.591,14.876-25.617,14.876-35.926C85.017,28.964,78.061,20.147,69.51,20.147z"/>
</g>
<g>
	<path d="M69.51,47.725c-4.288,0-7.776-3.489-7.776-7.777s3.488-7.777,7.776-7.777s7.776,3.489,7.776,7.777
		S73.798,47.725,69.51,47.725z M69.51,34.171c-3.186,0-5.776,2.591-5.776,5.777s2.591,5.777,5.776,5.777s5.776-2.591,5.776-5.777
		S72.695,34.171,69.51,34.171z M69.51,44.724c-2.633,0-4.774-2.143-4.774-4.776c0-2.632,2.142-4.774,4.774-4.774
		s4.774,2.142,4.774,4.774C74.284,42.582,72.143,44.724,69.51,44.724z M69.51,37.174c-1.53,0-2.774,1.244-2.774,2.774
		c0,1.531,1.244,2.776,2.774,2.776s2.774-1.245,2.774-2.776C72.284,38.418,71.04,37.174,69.51,37.174z"/>
</g>
</svg>
