<?xml version="1.0" encoding="utf-8"?>
<!-- Generator: Adobe Illustrator 17.0.0, SVG Export Plug-In . SVG Version: 6.00 Build 0)  -->
<!DOCTYPE svg PUBLIC "-//W3C//DTD SVG 1.1//EN" "http://www.w3.org/Graphics/SVG/1.1/DTD/svg11.dtd">
<svg version="1.1" id="Layer_1" xmlns="http://www.w3.org/2000/svg" xmlns:xlink="http://www.w3.org/1999/xlink" x="0px" y="0px"
	 width="100px" height="100px" viewBox="0 0 100 100" enable-background="new 0 0 100 100" xml:space="preserve">
<path d="M75.5,40.167c0-4.52-1.147-8.982-3.319-12.904l-0.571-1.031h-6.316H34.707h-6.316l-0.571,1.031
	c-2.172,3.922-3.32,8.384-3.32,12.904c0,13.737,10.372,25.027,23.5,26.078V75H36v4h28.667v-4H52v-8.755
	C65.128,65.194,75.5,53.903,75.5,40.167z M71.5,40.167c0,6.93-3.102,13.125-7.948,17.193C66.318,52.757,68,46.744,68,40.167
	c0-3.415-0.463-6.798-1.34-9.936h2.557C70.714,33.303,71.5,36.714,71.5,40.167z M62.49,30.231c0.99,3.077,1.51,6.483,1.51,9.936
	c0,12.222-6.28,22.167-14,22.167s-14-9.944-14-22.167c0-3.452,0.52-6.857,1.51-9.936H62.49z M28.5,40.167
	c0-3.453,0.787-6.863,2.283-9.936h2.557C32.463,33.37,32,36.752,32,40.167c0,6.577,1.682,12.59,4.448,17.192
	C31.602,53.291,28.5,47.096,28.5,40.167z"/>
</svg>
