<?xml version="1.0" encoding="utf-8"?>
<!-- Generator: Adobe Illustrator 17.0.0, SVG Export Plug-In . SVG Version: 6.00 Build 0)  -->
<!DOCTYPE svg PUBLIC "-//W3C//DTD SVG 1.1//EN" "http://www.w3.org/Graphics/SVG/1.1/DTD/svg11.dtd">
<svg version="1.1" id="Layer_1" xmlns="http://www.w3.org/2000/svg" xmlns:xlink="http://www.w3.org/1999/xlink" x="0px" y="0px"
	 width="100px" height="100px" viewBox="0 0 100 100" enable-background="new 0 0 100 100" xml:space="preserve">
<path d="M81.117,36.096l-7.669-9.001c-0.572-0.669-1.404-1.053-2.282-1.053H59.25h-0.334v-2.377c0-1.654-1.346-3-3-3h-6.083
	c-1.654,0-3,1.346-3,3v2.377h-16c-1.654,0-3,1.346-3,3v18c0,1.654,1.346,3,3,3h15.958v25c0,1.654,1.346,3,3,3h6.083
	c1.654,0,3-1.346,3-3v-25h12.292c0.882,0,1.715-0.385,2.284-1.055l7.666-9C82.077,38.861,82.077,37.225,81.117,36.096z
	 M49.833,22.664h6.083c0.552,0,1,0.449,1,1v2.377h-8.083v-2.377C48.833,23.113,49.282,22.664,49.833,22.664z M55.874,76.041h-6.083
	c-0.551,0-1-0.448-1-1v-25h8.083v25C56.874,75.593,56.426,76.041,55.874,76.041z M79.595,38.689l-7.668,9.001
	c-0.189,0.223-0.467,0.351-0.761,0.351H57.874h-1h-8.083h-1H30.833c-0.551,0-1-0.449-1-1v-18c0-0.551,0.449-1,1-1h17h1h8.083h2.334
	h11.916c0.293,0,0.57,0.129,0.762,0.352l7.666,9C79.914,37.769,79.915,38.314,79.595,38.689z"/>
</svg>
