<?xml version="1.0" encoding="utf-8"?>
<!-- Generator: Adobe Illustrator 17.0.0, SVG Export Plug-In . SVG Version: 6.00 Build 0)  -->
<!DOCTYPE svg PUBLIC "-//W3C//DTD SVG 1.1//EN" "http://www.w3.org/Graphics/SVG/1.1/DTD/svg11.dtd">
<svg version="1.1" id="Layer_1" xmlns="http://www.w3.org/2000/svg" xmlns:xlink="http://www.w3.org/1999/xlink" x="0px" y="0px"
	 width="100px" height="100px" viewBox="0 0 100 100" enable-background="new 0 0 100 100" xml:space="preserve">
<path d="M92.202,61.632c-0.193-21.135-16.853-38.403-37.747-39.565v-1.733c0-1.239-1.005-2.244-2.244-2.244
	s-2.244,1.005-2.244,2.244v1.733c-20.59,1.145-37.066,17.934-37.724,38.65c-0.29,1.011-0.454,2.075-0.454,3.178h4
	c0-0.655,0.092-1.288,0.25-1.895h0.172c0-0.207,0.012-0.411,0.016-0.617c1.039-2.939,3.838-5.054,7.128-5.054
	c4.171,0,7.565,3.394,7.565,7.565h4c0-4.172,3.394-7.565,7.565-7.565c3.807,0,6.958,2.83,7.481,6.495v20.219
	c0,1.961-1.596,3.556-3.556,3.556c-1.961,0-3.557-1.594-3.557-3.555c0-1.239-1.004-2.244-2.244-2.244
	c-1.239,0-2.244,1.005-2.244,2.244c0,4.435,3.608,8.043,8.045,8.043c4.436,0,8.044-3.609,8.044-8.045V62h-0.153
	c0.844-3.256,3.799-5.671,7.316-5.671c4.172,0,7.565,3.394,7.565,7.565h4c0-0.253-0.022-0.5-0.038-0.748h0.038
	c0-4.172,3.394-7.566,7.565-7.566c3.767,0,6.89,2.771,7.463,6.379c0,0.014,0.001,0.027,0.001,0.041h0.005
	c0.057,0.375,0.096,0.756,0.096,1.146h4C92.312,62.632,92.267,62.129,92.202,61.632z M80.747,51.58
	c-4.145,0-7.777,2.199-9.819,5.484c-2.107-2.865-5.491-4.735-9.312-4.735c-3.972,0-7.482,2.014-9.565,5.074
	c-2.083-3.06-5.593-5.074-9.565-5.074s-7.482,2.014-9.565,5.074c-2.083-3.06-5.593-5.074-9.565-5.074
	c-2.316,0-4.471,0.691-6.282,1.869C20.647,38.087,35.04,26,52.211,26c16.941,0,31.178,11.766,34.99,27.553
	C85.356,52.308,83.135,51.58,80.747,51.58z"/>
</svg>
