<?xml version="1.0" encoding="utf-8"?>
<!-- Generator: Adobe Illustrator 17.0.0, SVG Export Plug-In . SVG Version: 6.00 Build 0)  -->
<!DOCTYPE svg PUBLIC "-//W3C//DTD SVG 1.1//EN" "http://www.w3.org/Graphics/SVG/1.1/DTD/svg11.dtd">
<svg version="1.1" id="Layer_1" xmlns="http://www.w3.org/2000/svg" xmlns:xlink="http://www.w3.org/1999/xlink" x="0px" y="0px"
	 width="100px" height="100px" viewBox="0 0 100 100" enable-background="new 0 0 100 100" xml:space="preserve">
<path d="M57.625,35.263L74.52,18.368l-1.414-1.414L58.432,31.627c0.988-1.506,1.565-3.304,1.565-5.237
	c0-5.295-4.308-9.603-9.603-9.603s-9.603,4.308-9.603,9.603c0,2.065,0.668,3.968,1.784,5.534L26.896,16.246l-1.414,1.414L43,35.178
	v28.697H30v18.5h7V72.75h26.375v9.625h7v-18.5h-12.75V35.263z M50.395,18.786c4.193,0,7.603,3.411,7.603,7.603
	c0,3.026-1.782,5.638-4.348,6.861h-6.511c-2.566-1.223-4.347-3.834-4.347-6.861C42.792,22.197,46.202,18.786,50.395,18.786z
	 M68.375,65.875v14.5h-3V70.75H35v9.625h-3v-14.5h13v-1h0.23V35.994h10.25v27.794v1.088h0.145v1H68.375z"/>
</svg>
