<?xml version="1.0" encoding="utf-8"?>
<!-- Generator: Adobe Illustrator 17.0.0, SVG Export Plug-In . SVG Version: 6.00 Build 0)  -->
<!DOCTYPE svg PUBLIC "-//W3C//DTD SVG 1.1//EN" "http://www.w3.org/Graphics/SVG/1.1/DTD/svg11.dtd">
<svg version="1.1" id="Layer_1" xmlns="http://www.w3.org/2000/svg" xmlns:xlink="http://www.w3.org/1999/xlink" x="0px" y="0px"
	 width="100px" height="100px" viewBox="0 0 100 100" enable-background="new 0 0 100 100" xml:space="preserve">
<path d="M91.166,20.155c-0.215-0.155-0.491-0.196-0.741-0.113l-26.863,8.955l-26.863-8.955c-0.023-0.008-0.047-0.001-0.071-0.006
	c-0.063-0.015-0.124-0.016-0.189-0.016c-0.065,0-0.126,0.001-0.189,0.016c-0.023,0.006-0.048-0.002-0.071,0.006L9.055,29.084
	c-0.336,0.112-0.562,0.425-0.562,0.779v49.315c0,0.264,0.127,0.512,0.341,0.667C8.976,79.947,9.145,80,9.315,80
	c0.087,0,0.175-0.014,0.26-0.043l26.863-8.954l26.863,8.954c0.001,0,0.003,0,0.004,0.001C63.388,79.985,63.475,80,63.562,80
	c0.087,0,0.173-0.015,0.256-0.042c0.001,0,0.003,0,0.004-0.001l27.123-9.041c0.336-0.112,0.562-0.425,0.562-0.779V20.822
	C91.507,20.558,91.38,20.31,91.166,20.155z M10.137,30.455l25.479-8.493v47.583l-25.479,8.493V30.455z M37.26,21.962l25.479,8.493
	v47.582L37.26,69.545V21.962z M89.863,69.545l-25.479,8.493V30.455l25.479-8.493V69.545z"/>
</svg>
