<?xml version="1.0" encoding="utf-8"?>
<!-- Generator: Adobe Illustrator 17.0.0, SVG Export Plug-In . SVG Version: 6.00 Build 0)  -->
<!DOCTYPE svg PUBLIC "-//W3C//DTD SVG 1.1//EN" "http://www.w3.org/Graphics/SVG/1.1/DTD/svg11.dtd">
<svg version="1.1" id="Layer_1" xmlns="http://www.w3.org/2000/svg" xmlns:xlink="http://www.w3.org/1999/xlink" x="0px" y="0px"
	 width="100px" height="100px" viewBox="0 0 100 100" enable-background="new 0 0 100 100" xml:space="preserve">
<path d="M66.664,41.043c0-0.018,0.003-0.036,0.003-0.055c0-8.822-7.178-16-16-16c-8.69,0-15.769,6.968-15.98,15.607
	C27.956,42.485,23,48.662,23,55.988c0,8.822,7.178,16,16,16c4.262,0,8.13-1.685,11-4.411c2.87,2.726,6.738,4.411,11,4.411
	c8.822,0,16-7.178,16-16C77,49.162,72.695,43.337,66.664,41.043z M54.913,54.326c-0.332-3.196-1.608-6.114-3.544-8.472
	c2.512-2.388,5.899-3.865,9.631-3.865c1.242,0,2.44,0.178,3.586,0.483C63.995,48.055,60.109,52.668,54.913,54.326z M50,64.62
	c-1.763-2.241-2.849-5.029-2.971-8.065c1.171,0.274,2.385,0.433,3.638,0.433c0.78,0,1.541-0.075,2.292-0.183
	C52.788,59.744,51.714,62.44,50,64.62z M50.667,54.988c-1.242,0-2.44-0.178-3.586-0.483c0.284-2.682,1.335-5.134,2.919-7.149
	c1.639,2.085,2.7,4.639,2.939,7.43C52.198,54.908,51.442,54.988,50.667,54.988z M45.159,53.855
	c-4.638-1.993-7.982-6.421-8.431-11.666c0.741-0.122,1.497-0.201,2.272-0.201c3.732,0,7.119,1.477,9.631,3.865
	C46.791,48.094,45.563,50.846,45.159,53.855z M50.667,26.988c7.528,0,13.671,5.977,13.971,13.433
	c-1.171-0.274-2.385-0.433-3.638-0.433c-4.262,0-8.13,1.685-11,4.411c-2.87-2.726-6.738-4.411-11-4.411
	c-0.78,0-1.541,0.075-2.292,0.183C37.135,32.833,43.223,26.988,50.667,26.988z M25,55.988c0-6.24,4.105-11.535,9.754-13.338
	c0.633,6.1,4.714,11.177,10.249,13.283c0,0.018-0.003,0.036-0.003,0.055c0,3.843,1.364,7.373,3.631,10.135
	c-2.512,2.388-5.899,3.865-9.631,3.865C31.28,69.988,25,63.708,25,55.988z M61,69.988c-3.732,0-7.119-1.477-9.631-3.865
	c2.189-2.666,3.521-6.053,3.611-9.742c6.065-1.702,10.673-6.889,11.528-13.26C71.496,45.264,75,50.223,75,55.988
	C75,63.708,68.72,69.988,61,69.988z"/>
</svg>
