<?xml version="1.0" encoding="utf-8"?>
<!-- Generator: Adobe Illustrator 17.0.0, SVG Export Plug-In . SVG Version: 6.00 Build 0)  -->
<!DOCTYPE svg PUBLIC "-//W3C//DTD SVG 1.1//EN" "http://www.w3.org/Graphics/SVG/1.1/DTD/svg11.dtd">
<svg version="1.1" id="Layer_1" xmlns="http://www.w3.org/2000/svg" xmlns:xlink="http://www.w3.org/1999/xlink" x="0px" y="0px"
	 width="100px" height="100px" viewBox="0 0 100 100" enable-background="new 0 0 100 100" xml:space="preserve">
<g>
	<path d="M51.782,38.375L40.641,27.234l-1.414,1.414l9.727,9.727H23.496v34.186h55.745V38.375H51.782z M77.241,70.561H25.496V40.375
		h51.745V70.561z"/>
	<path d="M35,63.958h5.5v-5.699h5.7v-5.5h-5.7v-5.7H35v5.7h-5.7v5.5H35V63.958z M31.3,56.259v-1.5H37v-5.7h1.5v5.7h5.7v1.5h-5.7
		v5.699H37v-5.699H31.3z"/>
	<path d="M61.052,50.835h-9.76v9.76h9.76V50.835z M59.052,58.595h-5.76v-5.76h5.76V58.595z"/>
	<path d="M72.716,50.835h-9.761v9.76h9.761V50.835z M70.716,58.595h-5.761v-5.76h5.761V58.595z"/>
</g>
</svg>
