<?xml version="1.0" encoding="utf-8"?>
<!-- Generator: Adobe Illustrator 17.0.0, SVG Export Plug-In . SVG Version: 6.00 Build 0)  -->
<!DOCTYPE svg PUBLIC "-//W3C//DTD SVG 1.1//EN" "http://www.w3.org/Graphics/SVG/1.1/DTD/svg11.dtd">
<svg version="1.1" id="Layer_1" xmlns="http://www.w3.org/2000/svg" xmlns:xlink="http://www.w3.org/1999/xlink" x="0px" y="0px"
	 width="100px" height="100px" viewBox="0 0 100 100" enable-background="new 0 0 100 100" xml:space="preserve">
<g>
	<path d="M51.976,82.293c-1.472,0-2.96-0.104-4.425-0.309c-0.762-0.105-1.45-0.53-1.885-1.165c-0.435-0.631-0.584-1.425-0.408-2.176
		c0.216-0.926,0.129-1.87-0.253-2.731c-0.692-1.553-2.239-2.558-3.94-2.558c-0.604,0-1.191,0.126-1.747,0.373
		c-0.832,0.37-1.514,0.985-1.973,1.78c-0.385,0.667-1.038,1.144-1.79,1.307c-0.715,0.165-1.54,0.008-2.171-0.44
		c-2.695-1.904-5.074-4.216-7.069-6.871c-0.462-0.615-0.645-1.4-0.503-2.154c0.138-0.747,0.591-1.411,1.242-1.819
		c0.817-0.51,1.422-1.231,1.752-2.089c0.413-1.074,0.383-2.245-0.085-3.296c-0.468-1.051-1.317-1.857-2.392-2.27
		c-0.828-0.316-1.749-0.362-2.628-0.134c-0.757,0.195-1.545,0.062-2.182-0.349c-0.647-0.418-1.09-1.092-1.217-1.847
		c-0.548-3.227-0.591-6.531-0.125-9.821c0.11-0.758,0.531-1.438,1.156-1.87c0.627-0.433,1.414-0.586,2.157-0.421
		c0.901,0.198,1.845,0.107,2.682-0.263c1.051-0.467,1.858-1.316,2.271-2.391c0.412-1.074,0.381-2.245-0.086-3.295
		c-0.361-0.812-0.955-1.482-1.719-1.938c-0.655-0.392-1.12-1.044-1.276-1.791c-0.157-0.745,0.006-1.53,0.448-2.152
		c1.902-2.68,4.2-5.042,6.831-7.02c0.601-0.45,1.379-0.639,2.126-0.508c0.747,0.132,1.411,0.573,1.824,1.21
		c0.506,0.781,1.215,1.364,2.053,1.686c0.501,0.192,1.021,0.29,1.544,0.29c1.771,0,3.388-1.112,4.023-2.767
		c0.314-0.816,0.368-1.704,0.156-2.566c-0.182-0.737-0.047-1.524,0.371-2.159c0.417-0.634,1.084-1.07,1.831-1.198
		c3.185-0.544,6.535-0.594,9.766-0.144c0.75,0.104,1.431,0.519,1.866,1.137c0.436,0.624,0.596,1.404,0.439,2.145
		c-0.187,0.895-0.092,1.804,0.275,2.629c0.692,1.555,2.239,2.559,3.94,2.559c0.602,0,1.189-0.126,1.748-0.374
		c0.803-0.357,1.469-0.944,1.926-1.699c0.395-0.648,1.045-1.108,1.786-1.263c0.782-0.158,1.525,0.012,2.14,0.442
		c2.684,1.894,5.049,4.181,7.032,6.798c0.459,0.604,0.647,1.38,0.518,2.128c-0.13,0.749-0.57,1.415-1.209,1.829
		c-0.779,0.507-1.361,1.216-1.682,2.05c-0.852,2.219,0.26,4.717,2.477,5.568c0.813,0.313,1.722,0.365,2.593,0.145
		c0.743-0.184,1.528-0.051,2.163,0.36c0.64,0.416,1.08,1.083,1.208,1.832c0.562,3.23,0.625,6.528,0.185,9.799
		c-0.104,0.761-0.524,1.446-1.151,1.882c-0.462,0.321-1.005,0.49-1.569,0.49c-0.001,0-0.001,0-0.001,0
		c-0.197,0-0.395-0.021-0.587-0.062c-0.919-0.205-1.847-0.108-2.683,0.262c-2.168,0.965-3.147,3.517-2.183,5.688
		c0.366,0.823,0.974,1.5,1.757,1.958c0.662,0.388,1.134,1.037,1.296,1.784c0.162,0.746,0.004,1.532-0.433,2.159
		c-1.9,2.703-4.201,5.086-6.842,7.086c-0.605,0.459-1.396,0.651-2.151,0.512c-0.755-0.14-1.422-0.592-1.829-1.242
		c-0.51-0.814-1.232-1.42-2.089-1.751c-0.498-0.19-1.018-0.287-1.539-0.287c-1.771,0-3.39,1.111-4.026,2.767
		c-0.322,0.838-0.364,1.755-0.122,2.653c0.2,0.739,0.077,1.537-0.336,2.187c-0.414,0.648-1.086,1.096-1.844,1.228
		C55.618,82.135,53.79,82.293,51.976,82.293z M41.065,71.354c2.49,0,4.754,1.47,5.768,3.745c0.561,1.264,0.689,2.646,0.373,4
		c-0.048,0.204-0.008,0.417,0.108,0.587c0.119,0.174,0.305,0.288,0.512,0.317c3.067,0.427,6.2,0.378,9.241-0.15
		c0.205-0.035,0.387-0.156,0.499-0.332c0.111-0.176,0.146-0.392,0.092-0.59c-0.354-1.311-0.289-2.656,0.186-3.893
		c0.933-2.422,3.301-4.049,5.894-4.049c0.767,0,1.525,0.142,2.256,0.42c1.267,0.489,2.325,1.372,3.067,2.556
		c0.11,0.177,0.291,0.3,0.496,0.338c0.202,0.036,0.418-0.017,0.582-0.139c2.475-1.875,4.632-4.109,6.41-6.64
		c0.12-0.171,0.162-0.381,0.117-0.587c-0.044-0.201-0.172-0.378-0.352-0.483c-1.146-0.669-2.037-1.662-2.575-2.871
		c-1.412-3.179,0.022-6.915,3.199-8.328c1.226-0.543,2.602-0.679,3.923-0.388c0.049,0.011,0.104,0.017,0.158,0.017
		c0.001,0,0.001,0,0.001,0c0.155,0,0.303-0.046,0.429-0.133c0.169-0.117,0.282-0.303,0.311-0.509
		c0.412-3.065,0.354-6.158-0.174-9.189c-0.035-0.203-0.153-0.383-0.326-0.495c-0.171-0.111-0.387-0.147-0.59-0.097
		c-1.266,0.316-2.6,0.242-3.795-0.219c-3.246-1.247-4.873-4.904-3.626-8.152c0.473-1.231,1.323-2.272,2.46-3.011
		c0.173-0.112,0.292-0.292,0.327-0.495c0.035-0.203-0.016-0.413-0.14-0.576c-1.86-2.454-4.077-4.597-6.59-6.371
		c-0.165-0.115-0.379-0.161-0.588-0.119c-0.194,0.041-0.371,0.165-0.478,0.341c-0.669,1.104-1.645,1.965-2.823,2.489
		c-0.816,0.363-1.678,0.546-2.561,0.546c-2.49,0-4.754-1.47-5.767-3.746c-0.539-1.21-0.68-2.543-0.406-3.853
		c0.042-0.204-0.001-0.416-0.119-0.585c-0.116-0.165-0.301-0.277-0.505-0.305c-3.028-0.423-6.17-0.375-9.154,0.135
		c-0.202,0.035-0.383,0.153-0.497,0.326c-0.112,0.17-0.148,0.382-0.1,0.582c0.31,1.262,0.229,2.562-0.231,3.762
		c-0.931,2.422-3.298,4.049-5.891,4.049c-0.77,0-1.531-0.142-2.261-0.423c-1.235-0.475-2.277-1.327-3.014-2.466
		c-0.112-0.172-0.292-0.292-0.492-0.328c-0.2-0.035-0.417,0.016-0.58,0.138c-2.463,1.853-4.617,4.067-6.4,6.578
		c-0.12,0.169-0.164,0.381-0.122,0.583c0.042,0.203,0.168,0.379,0.346,0.485c1.119,0.669,1.991,1.652,2.52,2.842
		c0.685,1.539,0.729,3.252,0.126,4.826c-0.605,1.574-1.787,2.817-3.327,3.501c-1.227,0.543-2.603,0.679-3.926,0.388
		c-0.211-0.047-0.418-0.003-0.588,0.115c-0.168,0.116-0.282,0.301-0.312,0.507c-0.437,3.082-0.397,6.179,0.117,9.204
		c0.035,0.206,0.155,0.388,0.33,0.502c0.17,0.108,0.391,0.146,0.594,0.092c1.271-0.334,2.628-0.266,3.847,0.202
		c1.573,0.604,2.817,1.784,3.502,3.323c0.685,1.54,0.729,3.254,0.125,4.827c-0.487,1.267-1.372,2.327-2.559,3.066
		c-0.175,0.11-0.298,0.289-0.335,0.491c-0.039,0.207,0.011,0.42,0.136,0.586c1.87,2.488,4.099,4.655,6.625,6.44
		c0.169,0.12,0.385,0.165,0.582,0.12c0.211-0.046,0.388-0.175,0.492-0.355c0.672-1.162,1.672-2.063,2.891-2.606
		C39.317,71.538,40.179,71.354,41.065,71.354z M51.951,61.086c-4.297,0-8.2-2.535-9.944-6.458
		c-2.436-5.479,0.039-11.921,5.517-14.359c1.406-0.625,2.892-0.941,4.416-0.941c4.295,0,8.198,2.535,9.943,6.458
		c2.438,5.479-0.037,11.921-5.518,14.36C54.96,60.77,53.475,61.086,51.951,61.086z M51.939,41.328c-1.242,0-2.455,0.258-3.603,0.769
		c-4.47,1.989-6.49,7.247-4.501,11.719c1.423,3.202,4.609,5.271,8.116,5.271c1.242,0,2.454-0.258,3.603-0.768
		c4.472-1.99,6.491-7.248,4.501-11.719C58.631,43.396,55.445,41.328,51.939,41.328z"/>
</g>
</svg>
