<?xml version="1.0" encoding="utf-8"?>
<!-- Generator: Adobe Illustrator 17.0.0, SVG Export Plug-In . SVG Version: 6.00 Build 0)  -->
<!DOCTYPE svg PUBLIC "-//W3C//DTD SVG 1.1//EN" "http://www.w3.org/Graphics/SVG/1.1/DTD/svg11.dtd">
<svg version="1.1" id="Layer_1" xmlns="http://www.w3.org/2000/svg" xmlns:xlink="http://www.w3.org/1999/xlink" x="0px" y="0px"
	 width="100px" height="100px" viewBox="0 0 100 100" enable-background="new 0 0 100 100" xml:space="preserve">
<g>
	<path d="M67.407,68.439c-7.636,0-13.848-6.189-13.848-13.798c0-0.594,0.039-1.097,0.115-1.642h-4.343
		c0.077,0.548,0.117,1.066,0.117,1.667c0,7.594-6.211,13.772-13.846,13.772c-7.636,0-13.848-6.189-13.848-13.798
		c0-0.594,0.039-1.098,0.115-1.642h-1.736c-1.728,0-3.244-1.636-3.244-3.5s1.516-3.5,3.244-3.5h4.375
		c2.893-3.525,7.005-5.616,11.094-5.616s8.2,2.09,11.09,5.616h9.622c2.893-3.525,7.005-5.616,11.092-5.616
		c4.089,0,8.201,2.091,11.093,5.616h3.481c1.729,0,3.244,1.636,3.244,3.5S83.709,53,81.981,53H81.14
		c0.075,0.545,0.115,1.062,0.115,1.667C81.255,62.261,75.043,68.439,67.407,68.439z M46.933,51h9.142l-0.23,1.189
		c-0.192,0.997-0.284,1.618-0.284,2.452c0,6.505,5.314,11.798,11.848,11.798s11.848-5.281,11.848-11.772
		c0-0.86-0.096-1.509-0.283-2.477L78.74,51h3.241c0.616,0,1.243-0.757,1.243-1.5c0-0.757-0.616-1.5-1.244-1.5h-4.455l-0.301-0.389
		c-1.95-2.527-5.554-5.227-9.818-5.227c-4.263,0-7.866,2.7-9.817,5.228L57.288,48H45.719l-0.3-0.389
		c-1.95-2.527-5.553-5.227-9.816-5.227c-4.264,0-7.869,2.7-9.82,5.228L25.481,48h-5.349c-0.616,0-1.244,0.757-1.244,1.5
		c0,0.757,0.616,1.5,1.244,1.5h4.135l-0.23,1.189c-0.192,0.996-0.284,1.616-0.284,2.452c0,6.505,5.315,11.798,11.848,11.798
		c6.532,0,11.846-5.281,11.846-11.772c0-0.851-0.096-1.502-0.285-2.477L46.933,51z"/>
</g>
</svg>
