<?xml version="1.0" encoding="utf-8"?>
<!-- Generator: Adobe Illustrator 16.0.0, SVG Export Plug-In . SVG Version: 6.00 Build 0)  -->
<!DOCTYPE svg PUBLIC "-//W3C//DTD SVG 1.1//EN" "http://www.w3.org/Graphics/SVG/1.1/DTD/svg11.dtd">
<svg version="1.1" id="Layer_1" xmlns="http://www.w3.org/2000/svg" xmlns:xlink="http://www.w3.org/1999/xlink" x="0px" y="0px"
	 width="100px" height="100px" viewBox="0 0 100 100" enable-background="new 0 0 100 100" xml:space="preserve">
<g>
	<g>
		<g>
			<path d="M37.391,61.028c-1.08,0-2.094-0.42-2.857-1.184c-0.763-0.763-1.183-1.777-1.183-2.856s0.42-2.094,1.183-2.856
				c0.763-0.764,1.777-1.184,2.857-1.184c1.079,0,2.094,0.42,2.856,1.184c0.763,0.764,1.183,1.777,1.183,2.856
				s-0.42,2.094-1.183,2.856C39.484,60.608,38.47,61.028,37.391,61.028z M37.391,54.948c-0.545,0-1.058,0.212-1.443,0.598
				c-0.385,0.385-0.597,0.897-0.597,1.442s0.212,1.058,0.597,1.442c0.77,0.771,2.114,0.771,2.885,0
				c0.385-0.385,0.597-0.897,0.597-1.442s-0.212-1.057-0.597-1.442S37.936,54.948,37.391,54.948z"/>
		</g>
	</g>
	<g>
		<path d="M46.298,57.654h-2c0-2.023-0.788-3.925-2.218-5.355c-1.431-1.431-3.333-2.219-5.355-2.219v-2
			c2.557,0,4.961,0.996,6.77,2.805C45.303,52.692,46.299,55.097,46.298,57.654z"/>
	</g>
	<g>
		<path d="M52.917,57.697h-2c0-3.938-1.533-7.639-4.317-10.423s-6.486-4.317-10.423-4.317v-2c4.472,0,8.675,1.741,11.837,4.903
			C51.177,49.022,52.918,53.226,52.917,57.697z"/>
	</g>
	<g>
		<path d="M58.204,57.697C58.203,45.552,48.322,35.67,36.177,35.67v-2c13.248,0,24.026,10.779,24.027,24.027H58.204z"/>
	</g>
</g>
<g>
	<path d="M66,66.571H27.555V28.126H66V66.571z M29.555,64.571H64V30.126H29.555V64.571z"/>
</g>
</svg>
