<?xml version="1.0" encoding="utf-8"?>
<!-- Generator: Adobe Illustrator 17.0.0, SVG Export Plug-In . SVG Version: 6.00 Build 0)  -->
<!DOCTYPE svg PUBLIC "-//W3C//DTD SVG 1.1//EN" "http://www.w3.org/Graphics/SVG/1.1/DTD/svg11.dtd">
<svg version="1.1" id="Layer_1" xmlns="http://www.w3.org/2000/svg" xmlns:xlink="http://www.w3.org/1999/xlink" x="0px" y="0px"
	 width="100px" height="100px" viewBox="0 0 100 100" enable-background="new 0 0 100 100" xml:space="preserve">
<path d="M74.308,33.121L50.502,19.315c-0.311-0.18-0.693-0.18-1.004,0L25.692,33.121c-0.309,0.179-0.498,0.509-0.498,0.865v28.5
	c0,0.319,0.153,0.62,0.411,0.809l23.807,17.333c0.019,0.014,0.042,0.019,0.062,0.031c0.026,0.016,0.047,0.038,0.074,0.052
	c0.016,0.008,0.035,0.005,0.052,0.012c0.128,0.057,0.262,0.096,0.401,0.096s0.273-0.039,0.401-0.096
	c0.017-0.007,0.036-0.004,0.052-0.012c0.027-0.014,0.048-0.035,0.074-0.052c0.02-0.012,0.043-0.018,0.062-0.031l23.806-17.333
	c0.258-0.188,0.411-0.489,0.411-0.809v-28.5C74.806,33.63,74.617,33.3,74.308,33.121z M50,21.337l21.812,12.649L50,46.636
	l-21.813-12.65L50,21.337z M27.194,35.723l6.346,3.68L49,48.368v29.486L27.194,61.978V35.723z M72.806,61.978L51,77.854V48.368
	l17.092-9.912l4.714-2.734V61.978z"/>
</svg>
