<?xml version="1.0" encoding="utf-8"?>
<!-- Generator: Adobe Illustrator 17.0.0, SVG Export Plug-In . SVG Version: 6.00 Build 0)  -->
<!DOCTYPE svg PUBLIC "-//W3C//DTD SVG 1.1//EN" "http://www.w3.org/Graphics/SVG/1.1/DTD/svg11.dtd">
<svg version="1.1" id="Layer_1" xmlns="http://www.w3.org/2000/svg" xmlns:xlink="http://www.w3.org/1999/xlink" x="0px" y="0px"
	 width="100px" height="100px" viewBox="0 0 100 100" enable-background="new 0 0 100 100" xml:space="preserve">
<g>
	<path d="M57.375,89h-7.5V49h-5.5V25.741l13-9.455V89z M51.875,87h3.5V20.214l-9,6.545V47h5.5V87z"/>
</g>
<g>
	<path d="M35.625,89h-8V48.5h1.125v-6h-6.125V17.25h6V36.5V17.25h6V36.5V17.25h6V42.5H34.5v6h1.125V89z M29.625,87h4V50.5H32.5v-10
		h6.125V19.25h-2V38.5h-4V19.25h-2V38.5h-4V19.25h-2V40.5h6.125v10h-1.125V87z"/>
</g>
<g>
	<path d="M78.023,89h-7.5V49.064c-3.828-2.45-6.362-8.5-6.362-15.333c0-9.242,4.441-16.482,10.112-16.482s10.113,7.24,10.113,16.482
		c0,6.833-2.534,12.883-6.363,15.333V89z M72.523,87h3.5V47.896l0.526-0.283c3.437-1.847,5.837-7.554,5.837-13.88
		c0-7.85-3.716-14.482-8.113-14.482s-8.112,6.632-8.112,14.482c0,6.326,2.399,12.034,5.836,13.88l0.526,0.283V87z"/>
</g>
</svg>
