<?xml version="1.0" encoding="utf-8"?>
<!-- Generator: Adobe Illustrator 17.0.0, SVG Export Plug-In . SVG Version: 6.00 Build 0)  -->
<!DOCTYPE svg PUBLIC "-//W3C//DTD SVG 1.1//EN" "http://www.w3.org/Graphics/SVG/1.1/DTD/svg11.dtd">
<svg version="1.1" id="Layer_1" xmlns="http://www.w3.org/2000/svg" xmlns:xlink="http://www.w3.org/1999/xlink" x="0px" y="0px"
	 width="100px" height="100px" viewBox="0 0 100 100" enable-background="new 0 0 100 100" xml:space="preserve">
<path d="M57.48,35.993v-0.586l17.04-17.04l-1.414-1.414L58.432,31.627c0.988-1.506,1.565-3.304,1.565-5.237
	c0-5.295-4.308-9.603-9.603-9.603s-9.603,4.308-9.603,9.603c0,2.065,0.668,3.968,1.784,5.534L26.896,16.246l-1.414,1.414
	l17.616,17.616v0.718h0.132l0.353,27.09l0,0L38.225,74.5h6.909l-0.036,14.367H55.48v-0.221V74.5h6.297L57.48,62.639V35.993z
	 M42.792,26.389c0-4.192,3.41-7.603,7.603-7.603s7.603,3.411,7.603,7.603c0,4.192-3.41,7.603-7.603,7.603
	S42.792,30.582,42.792,26.389z M49.5,86.688l-2.27-0.042V74.5h2.27V86.688z M53.48,86.646l-1.98,0.042V74.5h1.98V86.646z
	 M58.926,72.5H55.48h-2H51.5h-2h-2.27h-2.091h-4.063l4.154-9.04v-2V35.994h10.25V61.46v2l2,5.049L58.926,72.5z"/>
</svg>
