<?xml version="1.0" encoding="utf-8"?>
<!-- Generator: Adobe Illustrator 17.0.0, SVG Export Plug-In . SVG Version: 6.00 Build 0)  -->
<!DOCTYPE svg PUBLIC "-//W3C//DTD SVG 1.1//EN" "http://www.w3.org/Graphics/SVG/1.1/DTD/svg11.dtd">
<svg version="1.1" id="Layer_1" xmlns="http://www.w3.org/2000/svg" xmlns:xlink="http://www.w3.org/1999/xlink" x="0px" y="0px"
	 width="100px" height="100px" viewBox="0 0 100 100" enable-background="new 0 0 100 100" xml:space="preserve">
<path d="M71.312,31.38l-0.727-1.866l-1.99-0.234c-5.725-0.673-10.856-2.244-14.84-4.541l-1.665-0.96l-1.665,0.96
	c-3.985,2.297-9.117,3.868-14.84,4.541l-1.989,0.234l-0.728,1.866c-1.614,4.144-2.466,8.828-2.466,13.545
	c0,26.01,21.049,29.043,21.265,29.071l0.513,0.065l0.517-0.094c0.56-0.106,5.608-1.152,10.641-5.151
	c4.763-3.778,10.439-10.99,10.439-23.891C73.778,40.208,72.926,35.524,71.312,31.38z M68.361,31.266l0.797,0.094l0.291,0.746
	c1.524,3.915,2.329,8.348,2.328,12.821c0,1.434-0.079,2.787-0.217,4.073h-18.47V26.65C57.259,28.981,62.523,30.579,68.361,31.266z
	 M34.732,32.106l0.291-0.747l0.796-0.094c5.838-0.687,11.102-2.284,15.271-4.616V49H32.6c-0.127-1.311-0.197-2.666-0.197-4.074
	C32.403,40.454,33.208,36.021,34.732,32.106z M32.85,51h18.241v20.849c-1.615-0.369-5.34-1.466-9.028-4.301
	C37.013,63.666,33.933,58.111,32.85,51z M62.095,67.251c-3.699,2.939-7.442,4.158-9.004,4.571V51h18.197
	C69.887,59.359,65.709,64.383,62.095,67.251z"/>
</svg>
