<?xml version="1.0" encoding="utf-8"?>
<!-- Generator: Adobe Illustrator 16.0.0, SVG Export Plug-In . SVG Version: 6.00 Build 0)  -->
<!DOCTYPE svg PUBLIC "-//W3C//DTD SVG 1.1//EN" "http://www.w3.org/Graphics/SVG/1.1/DTD/svg11.dtd">
<svg version="1.1" id="Layer_1" xmlns="http://www.w3.org/2000/svg" xmlns:xlink="http://www.w3.org/1999/xlink" x="0px" y="0px"
	 width="100px" height="100px" viewBox="0 0 100 100" enable-background="new 0 0 100 100" xml:space="preserve">
<g>
	<g>
		<path d="M35.707,79.577V28.25h36.722v51.327l-17.753-7.019c-0.381-0.147-0.836-0.151-1.218,0.001L35.707,79.577z M54.065,70.445
			c0.461,0,0.912,0.085,1.341,0.252l15.022,5.938V30.25H37.707v46.386l15.018-5.937C53.152,70.53,53.603,70.445,54.065,70.445z"/>
	</g>
	<g>
		<path d="M59.215,64.105c-0.393,0-0.786-0.128-1.106-0.359l-4.043-2.936l-4.037,2.934c-0.659,0.474-1.567,0.47-2.214,0.002
			c-0.663-0.479-0.939-1.326-0.687-2.106l1.543-4.75l-4.038-2.936c-0.661-0.48-0.937-1.325-0.685-2.104
			c0.255-0.78,0.975-1.303,1.792-1.303h4.993l1.541-4.747c0.24-0.741,0.961-1.238,1.793-1.238c0.831,0,1.552,0.498,1.793,1.237
			l1.542,4.748h4.993c0.822,0,1.542,0.525,1.792,1.307c0.252,0.772-0.022,1.619-0.686,2.101l-4.039,2.935l1.543,4.749
			c0.254,0.777-0.021,1.625-0.685,2.106C59.988,63.982,59.608,64.105,59.215,64.105z M54.065,58.338l4.928,3.58l-1.882-5.792
			l4.925-3.578h-6.087l-1.882-5.792l-1.881,5.792H46.1l4.923,3.578l-1.882,5.792L54.065,58.338z"/>
	</g>
</g>
</svg>
