<?xml version="1.0" encoding="utf-8"?>
<!-- Generator: Adobe Illustrator 17.0.0, SVG Export Plug-In . SVG Version: 6.00 Build 0)  -->
<!DOCTYPE svg PUBLIC "-//W3C//DTD SVG 1.1//EN" "http://www.w3.org/Graphics/SVG/1.1/DTD/svg11.dtd">
<svg version="1.1" id="Layer_1" xmlns="http://www.w3.org/2000/svg" xmlns:xlink="http://www.w3.org/1999/xlink" x="0px" y="0px"
	 width="100px" height="100px" viewBox="0 0 100 100" enable-background="new 0 0 100 100" xml:space="preserve">
<g>
	<rect x="35.833" y="43" width="25.833" height="2"/>
</g>
<g>
	<rect x="35.833" y="47" width="25.833" height="2"/>
</g>
<g>
	<rect x="35.833" y="51" width="25.833" height="2"/>
</g>
<g>
	<rect x="35.833" y="55" width="25.833" height="2"/>
</g>
<g>
	<rect x="35.833" y="59" width="25.833" height="2"/>
</g>
<g>
	<path d="M66.995,69.556H30.287V34.542l1.474,0.794c2.142,1.153,4.968,0.703,6.666-1.053l0.719-0.744l0.719,0.744
		c1.057,1.093,2.525,1.72,4.028,1.72c1.504,0,2.973-0.627,4.029-1.72l0.719-0.744l0.719,0.744c1.057,1.093,2.526,1.72,4.03,1.72
		c1.505,0,2.974-0.627,4.028-1.72l0.719-0.744l0.72,0.744c1.701,1.758,4.523,2.207,6.664,1.054l1.475-0.794V69.556z M32.287,67.556
		h32.708V37.701c-2.335,0.68-4.955,0.145-6.857-1.374c-1.343,1.074-3.027,1.676-4.748,1.676c-1.72,0-3.404-0.602-4.749-1.676
		c-1.343,1.074-3.027,1.676-4.748,1.676c-1.719,0-3.403-0.602-4.747-1.676c-1.9,1.518-4.524,2.053-6.859,1.374V67.556z"/>
</g>
</svg>
