<?xml version="1.0" encoding="utf-8"?>
<!-- Generator: Adobe Illustrator 16.0.0, SVG Export Plug-In . SVG Version: 6.00 Build 0)  -->
<!DOCTYPE svg PUBLIC "-//W3C//DTD SVG 1.1//EN" "http://www.w3.org/Graphics/SVG/1.1/DTD/svg11.dtd">
<svg version="1.1" id="Layer_1" xmlns="http://www.w3.org/2000/svg" xmlns:xlink="http://www.w3.org/1999/xlink" x="0px" y="0px"
	 width="100px" height="100px" viewBox="0 0 100 100" enable-background="new 0 0 100 100" xml:space="preserve">
<g>
	<path d="M28.25,38v2v7.75v2v7.75v2v9.75H40V59.5v-2v-7.75v-2V40v-2v-9.75H28.25V38z M38,67.25h-7.75V59.5H38V67.25z M38,57.5h-7.75
		v-7.75H38V57.5z M38,47.75h-7.75V40H38V47.75z M30.25,30.25H38V38h-7.75V30.25z"/>
	<path d="M63.5,28.25V38v2v7.75v2v7.75v2v9.75h11.75V59.5v-2v-7.75v-2V40v-2v-9.75H63.5z M73.25,67.25H65.5V59.5h7.75V67.25z
		 M73.25,57.5H65.5v-7.75h7.75V57.5z M73.25,47.75H65.5V40h7.75V47.75z M65.5,38v-7.75h7.75V38H65.5z"/>
	<path d="M41,47.75v1.829V69.25h21.5V49.579V47.75V28.079H41V47.75z M60.5,67.25H43v-17.5h17.5V67.25z M43,30.079h17.5v17.5H43
		V30.079z"/>
</g>
</svg>
