<?xml version="1.0" encoding="utf-8"?>
<!-- Generator: Adobe Illustrator 17.0.0, SVG Export Plug-In . SVG Version: 6.00 Build 0)  -->
<!DOCTYPE svg PUBLIC "-//W3C//DTD SVG 1.1//EN" "http://www.w3.org/Graphics/SVG/1.1/DTD/svg11.dtd">
<svg version="1.1" id="Layer_1" xmlns="http://www.w3.org/2000/svg" xmlns:xlink="http://www.w3.org/1999/xlink" x="0px" y="0px"
	 width="100px" height="100px" viewBox="0 0 100 100" enable-background="new 0 0 100 100" xml:space="preserve">
<g>
	<path d="M50,21.5c-17.094,0-31,13.906-31,31s13.906,31,31,31s31-13.906,31-31S67.094,21.5,50,21.5z M30.884,74.28l4.09-4.09
		l-1.414-1.414l-4.136,4.136c-4.707-4.745-7.783-11.104-8.328-18.162h6.654v-2h-6.744C21.006,52.666,21,52.584,21,52.5
		c0-7.319,2.731-14.008,7.22-19.116l5.34,5.34l1.414-1.414l-5.386-5.386C34.832,26.72,42.047,23.5,50,23.5s15.168,3.22,20.412,8.424
		l-5.386,5.386l1.414,1.414l5.34-5.34C76.269,38.492,79,45.181,79,52.5c0,0.084-0.006,0.166-0.006,0.25H72.25v2h6.654
		c-0.545,7.058-3.62,13.418-8.328,18.162l-4.136-4.136l-1.414,1.414l4.09,4.09C64.008,78.769,57.319,81.5,50,81.5
		S35.992,78.769,30.884,74.28z"/>
	<rect x="49" y="34.25" width="2" height="18.25"/>
	<rect x="49" y="23.75" width="2" height="7.75"/>
</g>
</svg>
