<?xml version="1.0" encoding="utf-8"?>
<!-- Generator: Adobe Illustrator 17.0.0, SVG Export Plug-In . SVG Version: 6.00 Build 0)  -->
<!DOCTYPE svg PUBLIC "-//W3C//DTD SVG 1.1//EN" "http://www.w3.org/Graphics/SVG/1.1/DTD/svg11.dtd">
<svg version="1.1" id="Layer_1" xmlns="http://www.w3.org/2000/svg" xmlns:xlink="http://www.w3.org/1999/xlink" x="0px" y="0px"
	 width="100px" height="100px" viewBox="0 0 100 100" enable-background="new 0 0 100 100" xml:space="preserve">
<path d="M67.667,44.049v29.263c0,6.456-5.253,11.708-11.709,11.708S44.25,79.768,44.25,73.312V30.625
	c0-4.342,3.533-7.875,7.875-7.875c4.343,0,7.875,3.533,7.875,7.875v32.933c0,2.481-2.019,4.5-4.5,4.5s-4.5-2.019-4.5-4.5V44.049h-2
	v19.509c0,3.584,2.916,6.5,6.5,6.5c3.435,0,6.249-2.68,6.478-6.058H62V30.625c0-5.445-4.43-9.875-9.875-9.875
	s-9.875,4.43-9.875,9.875V74.5h0.06c0.605,7.003,6.49,12.52,13.648,12.52c7.56,0,13.709-6.149,13.709-13.708V44.049H67.667z"/>
</svg>
