<?xml version="1.0" encoding="utf-8"?>
<!-- Generator: Adobe Illustrator 17.0.0, SVG Export Plug-In . SVG Version: 6.00 Build 0)  -->
<!DOCTYPE svg PUBLIC "-//W3C//DTD SVG 1.1//EN" "http://www.w3.org/Graphics/SVG/1.1/DTD/svg11.dtd">
<svg version="1.1" id="Layer_1" xmlns="http://www.w3.org/2000/svg" xmlns:xlink="http://www.w3.org/1999/xlink" x="0px" y="0px"
	 width="100px" height="100px" viewBox="0 0 100 100" enable-background="new 0 0 100 100" xml:space="preserve">
<g>
	<path d="M50,81c-17.093,0-31-13.906-31-31c0-17.093,13.907-31,31-31c17.094,0,31,13.907,31,31C81,67.094,67.094,81,50,81z M50,21
		c-15.991,0-29,13.009-29,29c0,15.99,13.009,29,29,29c15.99,0,29-13.01,29-29C79,34.009,65.99,21,50,21z"/>
</g>
<g>
	<g>
		<path d="M48.841,63.987v-3.441c-1.976-0.034-4.021-0.647-5.213-1.5l0.818-2.282c1.227,0.817,2.998,1.465,4.907,1.465
			c2.419,0,4.055-1.396,4.055-3.339c0-1.874-1.329-3.032-3.851-4.055c-3.476-1.363-5.622-2.931-5.622-5.896
			c0-2.828,2.01-4.975,5.145-5.485v-3.441h2.113v3.305c2.044,0.068,3.441,0.613,4.429,1.192l-0.852,2.249
			c-0.716-0.409-2.112-1.158-4.293-1.158c-2.624,0-3.612,1.567-3.612,2.93c0,1.772,1.261,2.659,4.225,3.885
			c3.51,1.431,5.281,3.202,5.281,6.235c0,2.691-1.874,5.213-5.384,5.792v3.544H48.841z"/>
	</g>
</g>
</svg>
