<?xml version="1.0" encoding="utf-8"?>
<!-- Generator: Adobe Illustrator 17.0.0, SVG Export Plug-In . SVG Version: 6.00 Build 0)  -->
<!DOCTYPE svg PUBLIC "-//W3C//DTD SVG 1.1//EN" "http://www.w3.org/Graphics/SVG/1.1/DTD/svg11.dtd">
<svg version="1.1" id="Layer_1" xmlns="http://www.w3.org/2000/svg" xmlns:xlink="http://www.w3.org/1999/xlink" x="0px" y="0px"
	 width="100px" height="100px" viewBox="0 0 100 100" enable-background="new 0 0 100 100" xml:space="preserve">
<path d="M71.655,39.429c-0.006-0.089-0.023-0.175-0.052-0.259c-0.011-0.032-0.019-0.062-0.033-0.093
	c-0.049-0.106-0.11-0.207-0.196-0.293L54.05,21.459c-0.086-0.086-0.186-0.147-0.292-0.195c-0.032-0.015-0.064-0.023-0.097-0.034
	c-0.082-0.028-0.166-0.044-0.253-0.05c-0.023-0.002-0.043-0.013-0.066-0.013h-24.01c-0.553,0-1,0.448-1,1v55.667
	c0,0.553,0.447,1,1,1h41.334c0.553,0,1-0.447,1-1V39.491C71.667,39.469,71.656,39.45,71.655,39.429z M68.253,38.491h-13.91v-13.91
	L68.253,38.491z M30.333,76.833V23.167h22.01v16.324c0,0.552,0.447,1,1,1h16.324v36.343H30.333z"/>
</svg>
