<?xml version="1.0" encoding="utf-8"?>
<!-- Generator: Adobe Illustrator 17.0.0, SVG Export Plug-In . SVG Version: 6.00 Build 0)  -->
<!DOCTYPE svg PUBLIC "-//W3C//DTD SVG 1.1//EN" "http://www.w3.org/Graphics/SVG/1.1/DTD/svg11.dtd">
<svg version="1.1" id="Layer_1" xmlns="http://www.w3.org/2000/svg" xmlns:xlink="http://www.w3.org/1999/xlink" x="0px" y="0px"
	 width="100px" height="100px" viewBox="0 0 100 100" enable-background="new 0 0 100 100" xml:space="preserve">
<g>
	<path d="M46.106,69.51c-0.221,0-0.45-0.024-0.68-0.073l-0.183-0.053c-0.163-0.046-0.32-0.095-0.47-0.164
		c-0.072-0.034-0.128-0.065-0.183-0.098c-0.122-0.062-0.248-0.139-0.368-0.223c-0.092-0.067-0.148-0.116-0.205-0.167
		c-0.098-0.078-0.208-0.184-0.311-0.299l-0.073-0.077l-5.449-6.503c-1.145-1.364-0.958-3.415,0.416-4.57
		c1.246-1.046,3.259-0.949,4.399,0.176v-14.76c-0.022-0.157-0.048-0.345-0.02-0.561c0.296-4.76,4.206-8.481,8.922-8.481
		c5.007,0,9.082,4.056,9.083,9.042c0,1.789-1.437,3.244-3.202,3.244c-1.773,0-3.163-1.425-3.163-3.244
		c0-1.456-1.028-2.553-2.392-2.553c-1.531,0-2.229,1.324-2.229,2.553v14.413c1.092-0.816,2.531-0.764,3.645,0.17
		c1.37,1.151,1.55,3.202,0.401,4.571l-5.568,6.615c-0.093,0.1-0.192,0.191-0.295,0.275c-0.055,0.048-0.103,0.089-0.154,0.128
		c-0.162,0.112-0.287,0.188-0.417,0.255c-0.035,0.022-0.094,0.056-0.158,0.086c-0.168,0.077-0.324,0.126-0.486,0.172
		c-0.054,0.019-0.11,0.036-0.168,0.049C46.55,69.486,46.328,69.51,46.106,69.51z M40.7,58.523c-0.3,0-0.589,0.104-0.813,0.291
		c-0.531,0.446-0.607,1.232-0.17,1.754l5.443,6.496c0.062,0.062,0.091,0.094,0.124,0.119l-0.508,0.882l0.618-0.786
		c0.015,0.009,0.063,0.039,0.114,0.065l0.121,0.068c0.038,0.017,0.1,0.03,0.163,0.048l0.113,0.035
		c0.062,0.008,0.273,0.024,0.471-0.017c-0.016-0.002,0.041-0.02,0.099-0.032c0.01-0.005,0.074-0.019,0.133-0.046l0.095-0.056
		c0.053-0.027,0.104-0.059,0.152-0.092c0.102-0.091,0.134-0.12,0.164-0.153l0.083-0.084l5.412-6.448
		c0.44-0.525,0.371-1.312-0.154-1.754c-0.157-0.132-0.401-0.29-0.663-0.29c-0.303,0-0.559,0.212-0.73,0.405L48,63.44V42.699
		c0-2.596,1.818-4.553,4.229-4.553c2.463,0,4.392,2,4.392,4.553c0,0.709,0.5,1.244,1.163,1.244c0.674,0,1.202-0.546,1.202-1.244
		c-0.001-3.883-3.179-7.042-7.083-7.042c-3.673,0-6.716,2.918-6.928,6.645l-0.003,0.056C44.99,42.501,45,42.6,45,42.699v20.053
		l-3.31-3.766C41.438,58.686,41.083,58.523,40.7,58.523z"/>
</g>
<g>
	<path d="M49.209,82.582c-17.093,0-31-13.906-31-31c0-17.093,13.907-31,31-31c17.094,0,31,13.907,31,31
		C80.209,68.676,66.303,82.582,49.209,82.582z M49.209,22.582c-15.991,0-29,13.009-29,29c0,15.99,13.009,29,29,29
		c15.99,0,29-13.01,29-29C78.209,35.591,65.199,22.582,49.209,22.582z"/>
</g>
</svg>
