<?xml version="1.0" encoding="utf-8"?>
<!-- Generator: Adobe Illustrator 17.0.0, SVG Export Plug-In . SVG Version: 6.00 Build 0)  -->
<!DOCTYPE svg PUBLIC "-//W3C//DTD SVG 1.1//EN" "http://www.w3.org/Graphics/SVG/1.1/DTD/svg11.dtd">
<svg version="1.1" id="Layer_1" xmlns="http://www.w3.org/2000/svg" xmlns:xlink="http://www.w3.org/1999/xlink" x="0px" y="0px"
	 width="100px" height="100px" viewBox="0 0 100 100" enable-background="new 0 0 100 100" xml:space="preserve">
<g>
	<g>
		<path d="M56.159,76.773c-1.876,0-3.401-1.525-3.401-3.4c0-1.876,1.525-3.401,3.401-3.401c1.875,0,3.4,1.525,3.4,3.401
			C59.56,75.248,58.034,76.773,56.159,76.773z M56.159,71.972c-0.772,0-1.401,0.629-1.401,1.401s0.629,1.4,1.401,1.4
			s1.4-0.628,1.4-1.4S56.932,71.972,56.159,71.972z"/>
	</g>
</g>
<g>
	<path d="M72.777,80.78H39.541c-0.552,0-1-0.447-1-1V20.5c0-0.552,0.448-1,1-1h33.236c0.553,0,1,0.448,1,1v59.28
		C73.777,80.333,73.33,80.78,72.777,80.78z M40.541,78.78h31.236V21.5H40.541V78.78z"/>
</g>
<g>
	<path d="M69.75,68.375H42.568c-0.552,0-1-0.447-1-1v-38.75c0-0.552,0.448-1,1-1H69.75c0.553,0,1,0.448,1,1v38.75
		C70.75,67.928,70.303,68.375,69.75,68.375z M43.568,66.375H68.75v-36.75H43.568V66.375z"/>
</g>
<g>
	<path d="M58.56,26.5h-4.802c-0.553,0-1-0.448-1-1s0.447-1,1-1h4.802c0.553,0,1,0.448,1,1S59.112,26.5,58.56,26.5z"/>
</g>
<g>
	<path d="M50.198,26.5h-0.205c-0.552,0-1-0.448-1-1s0.448-1,1-1h0.205c0.552,0,1,0.448,1,1S50.75,26.5,50.198,26.5z"/>
</g>
</svg>
