<?xml version="1.0" encoding="utf-8"?>
<!-- Generator: Adobe Illustrator 17.0.0, SVG Export Plug-In . SVG Version: 6.00 Build 0)  -->
<!DOCTYPE svg PUBLIC "-//W3C//DTD SVG 1.1//EN" "http://www.w3.org/Graphics/SVG/1.1/DTD/svg11.dtd">
<svg version="1.1" id="Layer_1" xmlns="http://www.w3.org/2000/svg" xmlns:xlink="http://www.w3.org/1999/xlink" x="0px" y="0px"
	 width="100px" height="100px" viewBox="0 0 100 100" enable-background="new 0 0 100 100" xml:space="preserve">
<g>
	<path d="M68.137,27.193V22h-2v5.193H40.48V22h-2v5.193H26.019v54.862h54.863V27.193H68.137z M38.48,29.193V32.5h2v-3.307h25.656
		V32.5h2v-3.307h10.745v9.641H28.019v-9.641H38.48z M28.019,80.055V40.833h50.863v39.221H28.019z"/>
	<path d="M43.194,66.314l1.569-1.448c4.136-3.984,6.761-6.913,6.761-10.536c0-2.807-1.779-5.704-6.006-5.704
		c-2.263,0-4.195,0.845-5.554,1.993l0.845,1.87c0.906-0.754,2.385-1.659,4.166-1.659c2.927,0,3.893,1.841,3.893,3.834
		c-0.03,2.956-2.294,5.493-7.304,10.26l-2.083,2.023v1.629h12.528v-2.202h-8.814V66.314z"/>
	<path d="M62.76,57.986v-0.061c2.413-0.875,3.622-2.595,3.622-4.618c0-2.384-1.752-4.679-5.616-4.679
		c-2.111,0-4.104,0.754-5.129,1.509l0.693,1.932c0.845-0.602,2.354-1.298,3.925-1.298c2.443,0,3.441,1.388,3.441,2.959
		c0,2.325-2.445,3.32-4.377,3.32H57.84v1.991h1.479c2.566,0,5.04,1.177,5.07,3.925c0.029,1.629-1.025,3.802-4.436,3.802
		c-1.841,0-3.593-0.754-4.347-1.236l-0.723,2.052c0.966,0.634,2.898,1.327,5.099,1.327c4.709,0,7.154-2.745,7.154-5.886
		C67.137,60.279,65.173,58.467,62.76,57.986z"/>
</g>
</svg>
