<?xml version="1.0" encoding="utf-8"?>
<!-- Generator: Adobe Illustrator 17.0.0, SVG Export Plug-In . SVG Version: 6.00 Build 0)  -->
<!DOCTYPE svg PUBLIC "-//W3C//DTD SVG 1.1//EN" "http://www.w3.org/Graphics/SVG/1.1/DTD/svg11.dtd">
<svg version="1.1" id="Layer_1" xmlns="http://www.w3.org/2000/svg" xmlns:xlink="http://www.w3.org/1999/xlink" x="0px" y="0px"
	 width="100px" height="100px" viewBox="0 0 100 100" enable-background="new 0 0 100 100" xml:space="preserve">
<path d="M84.532,48.202h-5.724c-0.52-16.299-13.676-29.454-29.975-29.975v-5.724h-2v5.724c-16.299,0.52-29.454,13.676-29.975,29.975
	h-5.724v2h5.724c0.52,16.299,13.676,29.454,29.975,29.975v5.725h2v-5.725c16.299-0.52,29.454-13.676,29.975-29.975h5.724V48.202z
	 M76.808,48.202h-7.975v-5.333h-2v5.333h-8v-5.333h-2v5.333h-8v-8h5.333v-2h-5.333v-8h5.333v-2h-5.333v-7.975
	C64.029,20.746,76.289,33.006,76.808,48.202z M46.833,20.227v7.975H41.5v2h5.333v8H41.5v2h5.333v8h-8v-5.333h-2v5.333h-8v-5.333h-2
	v5.333h-7.975C19.377,33.006,31.638,20.746,46.833,20.227z M18.859,50.202h7.975v5.334h2v-5.334h8v5.334h2v-5.334h8v8H41.5v2h5.333
	v8H41.5v2h5.333v7.975C31.638,77.658,19.377,65.397,18.859,50.202z M48.833,78.176v-7.975h5.333v-2h-5.333v-8h5.333v-2h-5.333v-8h8
	v5.334h2v-5.334h8v5.334h2v-5.334h7.975C76.289,65.397,64.029,77.658,48.833,78.176z"/>
</svg>
