<?xml version="1.0" encoding="utf-8"?>
<!-- Generator: Adobe Illustrator 16.0.0, SVG Export Plug-In . SVG Version: 6.00 Build 0)  -->
<!DOCTYPE svg PUBLIC "-//W3C//DTD SVG 1.1//EN" "http://www.w3.org/Graphics/SVG/1.1/DTD/svg11.dtd">
<svg version="1.1" id="Layer_1" xmlns="http://www.w3.org/2000/svg" xmlns:xlink="http://www.w3.org/1999/xlink" x="0px" y="0px"
	 width="100px" height="100px" viewBox="0 0 100 100" enable-background="new 0 0 100 100" xml:space="preserve">
<g>
	<path d="M64.5,81.049h-29V27.024L50,17l14.5,10.024V81.049z M37.5,79.049h25V28.073L50,19.432l-12.5,8.642V79.049z"/>
</g>
<g>
	<path d="M50,29.715c-2.297,0-4.167-1.869-4.167-4.167s1.869-4.167,4.167-4.167s4.167,1.869,4.167,4.167S52.298,29.715,50,29.715z
		 M50,23.382c-1.195,0-2.167,0.972-2.167,2.167s0.972,2.167,2.167,2.167s2.167-0.972,2.167-2.167S51.195,23.382,50,23.382z"/>
</g>
</svg>
