<?xml version="1.0" encoding="utf-8"?>
<!-- Generator: Adobe Illustrator 17.0.0, SVG Export Plug-In . SVG Version: 6.00 Build 0)  -->
<!DOCTYPE svg PUBLIC "-//W3C//DTD SVG 1.1//EN" "http://www.w3.org/Graphics/SVG/1.1/DTD/svg11.dtd">
<svg version="1.1" id="Layer_1" xmlns="http://www.w3.org/2000/svg" xmlns:xlink="http://www.w3.org/1999/xlink" x="0px" y="0px"
	 width="100px" height="100px" viewBox="0 0 100 100" enable-background="new 0 0 100 100" xml:space="preserve">
<path d="M73.813,20.196l-1.538,1.538C59.182,11.382,40.698,11.409,27.634,21.8l-1.604-1.604l-5.834,5.834l1.604,1.604
	c-10.391,13.064-10.418,31.548-0.066,44.642l-1.538,1.538l5.834,5.834l1.523-1.523c13.112,10.492,31.663,10.519,44.803,0.065
	l1.457,1.457l5.834-5.834l-1.457-1.457c10.454-13.14,10.426-31.691-0.066-44.803l1.523-1.523L73.813,20.196z M56.816,62.649
	l1.548,1.548c-5.175,3.052-11.671,3.03-16.828-0.057l1.491-1.491l-5.834-5.834l-1.459,1.459c-2.972-5.122-2.95-11.545,0.057-16.649
	l1.402,1.402l5.834-5.834l-1.402-1.402c5.104-3.007,11.528-3.029,16.649-0.057l-1.459,1.459l5.834,5.834l1.491-1.491
	c3.087,5.157,3.109,11.653,0.057,16.828l-1.548-1.548L56.816,62.649z M23.025,73.813l13.827-13.827l0.343-0.343l3.005,3.005
	l-0.358,0.358L26.03,76.819L23.025,73.813z M62.65,40.199l-3.005-3.005l0.343-0.343l13.827-13.827l3.005,3.005L63.007,39.841
	L62.65,40.199z M70.857,23.152L59.733,34.276c-5.96-3.694-13.624-3.671-19.565,0.059L29.051,23.218
	C41.318,13.593,58.563,13.566,70.857,23.152z M23.025,26.03l3.005-3.005l0.05,0.05l13.842,13.842l0.277,0.277l-3.005,3.005
	l-0.277-0.277L23.075,26.08L23.025,26.03z M23.218,29.051l11.117,11.117c-3.73,5.941-3.753,13.605-0.059,19.565L23.152,70.858
	C13.566,58.563,13.593,41.318,23.218,29.051z M28.97,76.707l11.111-11.111c5.992,3.813,13.727,3.837,19.741,0.059l11.117,11.117
	C58.598,86.458,41.282,86.431,28.97,76.707z M60.068,63.073l-0.423-0.423l3.005-3.005l0.423,0.423l13.746,13.746l-3.005,3.005
	L60.068,63.073z M76.772,70.939L65.655,59.822c3.778-6.014,3.754-13.749-0.059-19.741l11.11-11.11
	C86.431,41.283,86.457,58.598,76.772,70.939z"/>
</svg>
