<?xml version="1.0" encoding="utf-8"?>
<!-- Generator: Adobe Illustrator 17.0.0, SVG Export Plug-In . SVG Version: 6.00 Build 0)  -->
<!DOCTYPE svg PUBLIC "-//W3C//DTD SVG 1.1//EN" "http://www.w3.org/Graphics/SVG/1.1/DTD/svg11.dtd">
<svg version="1.1" id="Layer_1" xmlns="http://www.w3.org/2000/svg" xmlns:xlink="http://www.w3.org/1999/xlink" x="0px" y="0px"
	 width="100px" height="100px" viewBox="0 0 100 100" enable-background="new 0 0 100 100" xml:space="preserve">
<g>
	<path d="M25.667,86.92V70.464C17.492,64.561,12.833,56.076,12.833,47c0-17.111,16.673-31.032,37.167-31.032
		c20.494,0,37.167,13.921,37.167,31.032S70.494,78.032,50,78.032c-2.428,0-4.873-0.203-7.281-0.604L25.667,86.92z M50,20.968
		c-17.737,0-32.167,11.678-32.167,26.032c0,7.781,4.272,15.1,11.722,20.079l1.111,0.742v10.593l11.186-6.226l0.888,0.167
		c2.395,0.449,4.837,0.677,7.26,0.677c17.737,0,32.167-11.678,32.167-26.032C82.167,32.646,67.737,20.968,50,20.968z"/>
</g>
</svg>
