<?xml version="1.0" encoding="utf-8"?>
<!-- Generator: Adobe Illustrator 17.0.0, SVG Export Plug-In . SVG Version: 6.00 Build 0)  -->
<!DOCTYPE svg PUBLIC "-//W3C//DTD SVG 1.1//EN" "http://www.w3.org/Graphics/SVG/1.1/DTD/svg11.dtd">
<svg version="1.1" id="Layer_1" xmlns="http://www.w3.org/2000/svg" xmlns:xlink="http://www.w3.org/1999/xlink" x="0px" y="0px"
	 width="100px" height="100px" viewBox="0 0 100 100" enable-background="new 0 0 100 100" xml:space="preserve">
<path d="M82.53,25.818c-0.139-0.072-0.293-0.097-0.443-0.081L53.049,5.436c-0.271-0.19-0.634-0.19-0.905,0l-29.037,20.3
	c-0.15-0.015-0.304,0.009-0.443,0.082c-0.262,0.136-0.426,0.405-0.426,0.701v41.818c0,0.256,0.124,0.496,0.334,0.644l29.57,20.908
	c0.013,0.01,0.029,0.013,0.043,0.022c0.017,0.011,0.031,0.025,0.049,0.035c0.027,0.014,0.056,0.021,0.084,0.031
	c0.022,0.008,0.043,0.018,0.066,0.025c0.07,0.02,0.141,0.033,0.213,0.033c0.072,0,0.144-0.013,0.214-0.033
	c0.022-0.006,0.043-0.016,0.065-0.024c0.028-0.011,0.057-0.017,0.084-0.032c0.018-0.009,0.032-0.024,0.049-0.035
	c0.014-0.009,0.03-0.012,0.043-0.022l29.57-20.908c0.21-0.148,0.334-0.388,0.334-0.644V26.519
	C82.956,26.224,82.792,25.954,82.53,25.818z M52.597,7.046l28.03,19.595l-28.03,19.82l-28.029-19.82L52.597,7.046z M23.816,28.27
	l27.991,19.569v39.882L23.816,67.929V28.27z M53.386,87.721V47.839L81.378,28.27v39.659L53.386,87.721z"/>
</svg>
