<?xml version="1.0" encoding="utf-8"?>
<!-- Generator: Adobe Illustrator 17.0.0, SVG Export Plug-In . SVG Version: 6.00 Build 0)  -->
<!DOCTYPE svg PUBLIC "-//W3C//DTD SVG 1.1//EN" "http://www.w3.org/Graphics/SVG/1.1/DTD/svg11.dtd">
<svg version="1.1" id="Layer_1" xmlns="http://www.w3.org/2000/svg" xmlns:xlink="http://www.w3.org/1999/xlink" x="0px" y="0px"
	 width="100px" height="100px" viewBox="0 0 100 100" enable-background="new 0 0 100 100" xml:space="preserve">
<g>
	<path d="M77.92,72.078H23.141V27.922H77.92V72.078z M25.141,70.078H75.92V29.922H25.141V70.078z"/>
</g>
<g>
	<g>
		<path d="M34.581,66.538h-6.477V33.341h6.477V66.538z M30.104,64.538h2.477V35.341h-2.477V64.538z"/>
	</g>
	<g>
		<path d="M42.292,57.902h-6.477V33.341h6.477V57.902z M37.814,55.902h2.477V35.341h-2.477V55.902z"/>
	</g>
	<g>
		<path d="M42.292,66.455h-6.477v-6.477h6.477V66.455z M37.814,64.455h2.477v-2.477h-2.477V64.455z"/>
	</g>
	<g>
		<path d="M57.769,66.658h-6.478V33.461h6.478V66.658z M53.291,64.658h2.478V35.461h-2.478V64.658z"/>
	</g>
	<g>
		<path d="M72.956,66.658h-6.477V33.461h6.477V66.658z M68.479,64.658h2.477V35.461h-2.477V64.658z"/>
	</g>
	<g>
		<path d="M65.479,58.022h-6.477V33.461h6.477V58.022z M61.003,56.022h2.477V35.461h-2.477V56.022z"/>
	</g>
	<g>
		<path d="M65.479,66.575h-6.477v-6.478h6.477V66.575z M61.003,64.575h2.477v-2.478h-2.477V64.575z"/>
	</g>
	<g>
		<path d="M50.291,57.902h-6.477V33.341h6.477V57.902z M45.814,55.902h2.477V35.341h-2.477V55.902z"/>
	</g>
	<g>
		<path d="M50.291,66.455h-6.477v-6.477h6.477V66.455z M45.814,64.455h2.477v-2.477h-2.477V64.455z"/>
	</g>
</g>
</svg>
