<?xml version="1.0" encoding="utf-8"?>
<!-- Generator: Adobe Illustrator 17.0.0, SVG Export Plug-In . SVG Version: 6.00 Build 0)  -->
<!DOCTYPE svg PUBLIC "-//W3C//DTD SVG 1.1//EN" "http://www.w3.org/Graphics/SVG/1.1/DTD/svg11.dtd">
<svg version="1.1" id="Layer_1" xmlns="http://www.w3.org/2000/svg" xmlns:xlink="http://www.w3.org/1999/xlink" x="0px" y="0px"
	 width="100px" height="100px" viewBox="0 0 100 100" enable-background="new 0 0 100 100" xml:space="preserve">
<g>
	<path d="M50.137,79.031c-1.84,0-3.337-1.497-3.337-3.337V75.57l-1.202,1.202c-1.261,1.262-3.458,1.262-4.718,0
		c-0.567-0.567-0.906-1.303-0.967-2.094c-0.44,0.213-0.933,0.333-1.454,0.333c-1.84,0-3.337-1.497-3.337-3.337v-1.584l-0.902,0.902
		c-1.256,1.259-3.457,1.263-4.718,0c-0.63-0.631-0.978-1.469-0.978-2.359c0-0.892,0.348-1.729,0.979-2.359l1.019-1.02h-1.817
		c-1.84,0-3.337-1.497-3.337-3.337c0-0.529,0.124-1.03,0.344-1.476c-0.464-0.163-0.889-0.431-1.248-0.789
		c-0.63-0.63-0.978-1.468-0.978-2.359s0.348-1.729,0.978-2.36l1.119-1.119h-1.275c-1.84,0-3.337-1.497-3.337-3.337
		c0-1.84,1.497-3.337,3.337-3.337h1.44l-1.284-1.284c-0.63-0.63-0.978-1.469-0.978-2.36c0-0.892,0.348-1.73,0.978-2.36
		c0.46-0.46,1.031-0.77,1.652-0.903c-0.324-0.514-0.511-1.123-0.511-1.774c0-1.84,1.497-3.337,3.337-3.337h1.584l-0.902-0.902
		c-0.63-0.63-0.978-1.468-0.978-2.359c0-0.892,0.348-1.729,0.978-2.36c1.26-1.261,3.458-1.261,4.719,0l1.019,1.018v-1.815
		c0-1.84,1.497-3.338,3.337-3.338c0.53,0,1.031,0.124,1.477,0.345c0.16-0.457,0.422-0.884,0.787-1.249
		c1.26-1.261,3.458-1.261,4.719,0l1.12,1.12v-1.276c0-1.84,1.497-3.337,3.337-3.337c1.84,0,3.337,1.497,3.337,3.337v1.441
		l1.285-1.285c1.262-1.261,3.457-1.261,4.719,0c0.37,0.37,0.643,0.812,0.805,1.293c0.578-0.48,1.32-0.77,2.129-0.77
		c1.841,0,3.338,1.498,3.338,3.338v1.699l0.087-0.087c1.259-1.261,3.456-1.262,4.719,0c1.301,1.301,1.301,3.418,0,4.719
		l-0.087,0.087h1.7c1.84,0,3.337,1.497,3.337,3.337c0,0.83-0.304,1.589-0.807,2.173c0.782,0.067,1.509,0.403,2.071,0.965
		c0.631,0.63,0.978,1.468,0.978,2.36c0,0.891-0.347,1.729-0.978,2.36l-1.202,1.202h0.123c1.84,0,3.337,1.497,3.337,3.337
		c0,1.84-1.499,3.337-3.341,3.337h-0.122l1.201,1.201c0.631,0.631,0.978,1.469,0.978,2.36s-0.347,1.729-0.978,2.359
		c-0.46,0.461-1.031,0.771-1.653,0.904c0.324,0.514,0.512,1.122,0.512,1.773c0,1.84-1.497,3.337-3.338,3.337h-1.699l0.087,0.087
		c0.631,0.631,0.978,1.469,0.978,2.359s-0.347,1.729-0.978,2.359c-1.258,1.262-3.458,1.262-4.72,0l-0.087-0.087v1.7
		c0,1.84-1.497,3.337-3.337,3.337c-0.829,0-1.588-0.304-2.172-0.806c-0.066,0.782-0.403,1.51-0.966,2.071
		c-1.267,1.26-3.451,1.26-4.718,0.002l-1.203-1.204v0.125C53.474,77.534,51.977,79.031,50.137,79.031z M48.799,70.742v4.952
		c0,0.737,0.6,1.337,1.337,1.337s1.337-0.6,1.337-1.337v-4.953l4.616,4.616c0.507,0.505,1.384,0.505,1.892-0.002
		c0.252-0.251,0.391-0.587,0.391-0.944c0-0.356-0.139-0.692-0.392-0.945l-6.507-6.508V53.244l9.722,9.723v9.202
		c0,0.737,0.6,1.337,1.337,1.337s1.337-0.6,1.337-1.337v-6.528l3.501,3.501c0.505,0.505,1.386,0.505,1.891,0.001
		c0.254-0.254,0.393-0.59,0.393-0.946s-0.139-0.692-0.392-0.945l-3.501-3.501h6.527c0.737,0,1.338-0.6,1.338-1.337
		s-0.601-1.338-1.338-1.338h-9.203l-9.261-9.261h13.131l6.508,6.507c0.506,0.506,1.386,0.505,1.89,0.001
		c0.254-0.254,0.393-0.589,0.393-0.946s-0.139-0.693-0.392-0.946l-4.617-4.615h4.952c0.739,0,1.341-0.6,1.341-1.337
		c0-0.737-0.6-1.337-1.337-1.337h-4.951l4.616-4.616c0.253-0.253,0.392-0.589,0.392-0.946s-0.139-0.693-0.392-0.945
		c-0.506-0.506-1.385-0.506-1.891,0L66.96,49.14H53.244l9.723-9.722h9.203c0.737,0,1.337-0.6,1.337-1.338
		c0-0.737-0.6-1.337-1.337-1.337h-6.528l3.501-3.501c0.521-0.521,0.521-1.37,0-1.891c-0.507-0.506-1.386-0.505-1.891,0l-3.501,3.501
		v-6.527c0-0.738-0.601-1.338-1.338-1.338s-1.337,0.601-1.337,1.338l-0.001,9.202l-9.599,9.6V34.358l6.589-6.59
		c0.521-0.521,0.521-1.37,0-1.891c-0.506-0.505-1.385-0.505-1.891,0l-4.699,4.698v-6.269c0-0.737-0.6-1.337-1.337-1.337
		s-1.337,0.6-1.337,1.337v6.105l-4.534-4.535c-0.506-0.504-1.385-0.505-1.891,0c-0.521,0.521-0.521,1.37,0,1.891l6.425,6.425v12.596
		l-8.766-8.767v-9.318c0-0.738-0.6-1.338-1.337-1.338s-1.337,0.6-1.337,1.338v6.643l-4.433-4.432c-0.506-0.505-1.385-0.504-1.891,0
		c-0.252,0.253-0.392,0.588-0.392,0.946c0,0.357,0.14,0.692,0.392,0.945l4.316,4.316h-6.412c-0.737,0-1.337,0.6-1.337,1.337
		c0,0.738,0.6,1.338,1.337,1.338h9.086l9.343,9.343H34.357l-6.589-6.59c-0.505-0.505-1.386-0.505-1.891,0
		c-0.521,0.521-0.521,1.37,0,1.892l4.698,4.698h-6.268c-0.737,0-1.337,0.6-1.337,1.337c0,0.738,0.6,1.337,1.337,1.337h6.105
		l-4.535,4.533c-0.252,0.253-0.392,0.589-0.392,0.946s0.139,0.692,0.392,0.945c0.508,0.507,1.386,0.504,1.89,0.001l6.426-6.426
		h12.595l-8.766,8.767h-9.318c-0.737,0-1.337,0.6-1.337,1.337s0.6,1.337,1.337,1.337h6.643l-4.431,4.434
		c-0.253,0.253-0.393,0.588-0.393,0.945c0,0.356,0.14,0.692,0.392,0.945c0.505,0.506,1.386,0.504,1.889,0.001l4.317-4.317v6.412
		c0,0.737,0.6,1.337,1.337,1.337s1.337-0.6,1.337-1.337l0.001-9.087l9.004-9.007v13.378l-6.507,6.508
		c-0.252,0.253-0.392,0.589-0.392,0.946c0,0.356,0.14,0.692,0.392,0.945c0.505,0.506,1.385,0.505,1.89,0L48.799,70.742z
		 M53.474,66.13l5.722,5.723v-8.058l-5.722-5.723V66.13z M41.796,63.416l-0.001,7.721l5.005-5.006v-7.72L41.796,63.416z
		 M63.913,59.075h7.476l-5.262-5.261h-7.475L63.913,59.075z M30.254,58.581h6.939l4.766-4.767h-6.939L30.254,58.581z M58.072,47.14
		h8.06l5.722-5.722h-8.059L58.072,47.14z M35.186,47.14h7.357l-5.343-5.343h-7.355L35.186,47.14z M53.477,35.186v7.111l5.599-5.599
		l0.001-7.113L53.477,35.186z M42.036,37.194l4.766,4.766v-6.938l-4.766-4.766V37.194z"/>
</g>
</svg>
