<?xml version="1.0" encoding="utf-8"?>
<!-- Generator: Adobe Illustrator 17.0.0, SVG Export Plug-In . SVG Version: 6.00 Build 0)  -->
<!DOCTYPE svg PUBLIC "-//W3C//DTD SVG 1.1//EN" "http://www.w3.org/Graphics/SVG/1.1/DTD/svg11.dtd">
<svg version="1.1" id="Layer_1" xmlns="http://www.w3.org/2000/svg" xmlns:xlink="http://www.w3.org/1999/xlink" x="0px" y="0px"
	 width="100px" height="100px" viewBox="0 0 100 100" enable-background="new 0 0 100 100" xml:space="preserve">
<g>
	<path d="M54.103,23.172c0-5.295-4.308-9.603-9.603-9.603s-9.603,4.308-9.603,9.603c0,3.095,1.478,5.846,3.759,7.603H31.75V62.57
		h5.455v23.08h14.38V62.57h5.665V30.775h-6.907C52.624,29.018,54.103,26.268,54.103,23.172z M36.897,23.172
		c0-4.192,3.41-7.603,7.603-7.603s7.603,3.411,7.603,7.603c0,4.192-3.41,7.603-7.603,7.603S36.897,27.365,36.897,23.172z
		 M55.25,32.775V60.57h-5.665v23.08h-10.38V60.57H33.75V32.775H55.25z"/>
	<path d="M63.875,64.812v-4.5h-2v4.5H57.5V86.43h10.75V64.812H63.875z M66.25,84.43H59.5V66.812h6.75V84.43z"/>
	<rect x="43.5" y="35.253" width="2" height="2.684"/>
	<rect x="43.5" y="38.749" width="2" height="14.813"/>
</g>
</svg>
