<?xml version="1.0" encoding="utf-8"?>
<!-- Generator: Adobe Illustrator 16.0.0, SVG Export Plug-In . SVG Version: 6.00 Build 0)  -->
<!DOCTYPE svg PUBLIC "-//W3C//DTD SVG 1.1//EN" "http://www.w3.org/Graphics/SVG/1.1/DTD/svg11.dtd">
<svg version="1.1" id="Layer_1" xmlns="http://www.w3.org/2000/svg" xmlns:xlink="http://www.w3.org/1999/xlink" x="0px" y="0px"
	 width="100px" height="100px" viewBox="0 0 100 100" enable-background="new 0 0 100 100" xml:space="preserve">
<path d="M78.944,40.814l0.062-0.054l-0.132-0.155C74.886,28.091,63.152,19,49.333,19c-17.094,0-31,13.907-31,31
	c0,17.094,13.907,31,31,31c17.093,0,31-13.906,31-31C80.334,46.803,79.847,43.718,78.944,40.814z M76.616,40.173L61.313,53.254
	l7.63-24.597C72.354,31.793,75.012,35.732,76.616,40.173z M67.285,27.25l-5.975,19.264L54.054,21.39
	C58.995,22.203,63.516,24.269,67.285,27.25z M58.279,43.622l0.146,0.11l0.042,0.145C58.408,43.79,58.341,43.708,58.279,43.622z
	 M58.334,50c0,4.492-3.312,8.215-7.62,8.883l-1.409,0.115c-1.204-0.003-2.353-0.246-3.402-0.682l-2.421-1.492
	c-0.523-0.45-0.991-0.959-1.4-1.517l-1.269-2.432c-0.306-0.904-0.479-1.869-0.479-2.876c0-2.016,0.674-3.873,1.798-5.374
	l2.107-2.037c1.45-1,3.205-1.589,5.095-1.589C54.296,41,58.334,45.038,58.334,50z M49.333,21c0.863,0,1.715,0.045,2.56,0.12
	l5.604,19.402L36.014,24.253C40.006,22.179,44.533,21,49.333,21z M34.118,25.326l18.926,14.332C51.883,39.24,50.637,39,49.333,39
	H22.506C24.847,33.313,28.942,28.529,34.118,25.326z M20.333,50c0-3.142,0.509-6.165,1.437-9h21.259
	c-0.909,0.639-1.713,1.412-2.392,2.29L22.454,60.867C21.091,57.508,20.333,53.842,20.333,50z M23.323,62.807l14.974-14.475
	L36.838,76.15C30.981,73.338,26.201,68.627,23.323,62.807z M49.333,79c-3.718,0-7.269-0.715-10.538-1.995l1.122-21.391
	c0.149,0.249,0.287,0.506,0.455,0.742l11.74,22.508C51.197,78.951,50.271,79,49.333,79z M54.221,78.58l-9.775-18.74
	c0.175,0.087,0.348,0.177,0.527,0.254l21.515,13.27C62.929,75.983,58.752,77.808,54.221,78.58z M68.151,72.039L50.183,60.957
	c0.242-0.019,0.481-0.048,0.718-0.082l26.087-2.143C75.332,63.964,72.228,68.553,68.151,72.039z M77.549,56.679l-18.989,1.56
	l18.712-15.995c0.688,2.471,1.062,5.07,1.062,7.757C78.334,52.299,78.057,54.533,77.549,56.679z"/>
</svg>
