<?xml version="1.0" encoding="utf-8"?>
<!-- Generator: Adobe Illustrator 16.0.0, SVG Export Plug-In . SVG Version: 6.00 Build 0)  -->
<!DOCTYPE svg PUBLIC "-//W3C//DTD SVG 1.1//EN" "http://www.w3.org/Graphics/SVG/1.1/DTD/svg11.dtd">
<svg version="1.1" id="Layer_1" xmlns="http://www.w3.org/2000/svg" xmlns:xlink="http://www.w3.org/1999/xlink" x="0px" y="0px"
	 width="100px" height="100px" viewBox="0 0 100 100" enable-background="new 0 0 100 100" xml:space="preserve">
<path d="M66.197,27.614c-2.168-0.849-4.477-1.262-7.057-1.262c-3.144,0-6.29,0.616-9.333,1.212
	c-2.949,0.578-5.999,1.175-8.949,1.175c-2.325,0-4.395-0.368-6.327-1.125l-1.365-0.534v27.981l0.635,0.248
	c2.169,0.85,4.477,1.263,7.057,1.263c3.144,0,6.29-0.616,9.333-1.212c2.949-0.577,5.999-1.175,8.949-1.175
	c2.076,0,3.94,0.311,5.692,0.911v18.552h2V55.845V28.545v-0.682L66.197,27.614z M59.141,52.186c-3.144,0-6.291,0.616-9.334,1.212
	c-2.949,0.577-5.999,1.175-8.948,1.175c-2.072,0-3.942-0.292-5.692-0.892V29.948c1.771,0.531,3.646,0.791,5.692,0.791
	c3.144,0,6.29-0.616,9.333-1.212c2.949-0.578,5.999-1.175,8.949-1.175c2.073,0,3.942,0.292,5.692,0.892v23.733
	C63.062,52.445,61.188,52.186,59.141,52.186z"/>
</svg>
