<?xml version="1.0" encoding="utf-8"?>
<!-- Generator: Adobe Illustrator 17.0.0, SVG Export Plug-In . SVG Version: 6.00 Build 0)  -->
<!DOCTYPE svg PUBLIC "-//W3C//DTD SVG 1.1//EN" "http://www.w3.org/Graphics/SVG/1.1/DTD/svg11.dtd">
<svg version="1.1" id="Layer_1" xmlns="http://www.w3.org/2000/svg" xmlns:xlink="http://www.w3.org/1999/xlink" x="0px" y="0px"
	 width="100px" height="100px" viewBox="0 0 100 100" enable-background="new 0 0 100 100" xml:space="preserve">
<g>
	<g>
		<g>
			<path d="M34.202,40.218c-3.075,0-5.576-2.502-5.576-5.579c0-3.075,2.501-5.577,5.576-5.577c3.076,0,5.578,2.502,5.578,5.577
				C39.78,37.715,37.278,40.218,34.202,40.218z M34.202,31.062c-1.972,0-3.576,1.604-3.576,3.577c0,1.973,1.604,3.579,3.576,3.579
				c1.973,0,3.578-1.605,3.578-3.579C37.78,32.667,36.175,31.062,34.202,31.062z"/>
		</g>
	</g>
	<g>
		<g>
			<path d="M50.202,40.159c-3.075,0-5.576-2.503-5.576-5.579c0-3.075,2.501-5.577,5.576-5.577c3.076,0,5.578,2.502,5.578,5.577
				C55.78,37.656,53.278,40.159,50.202,40.159z M50.202,31.003c-1.972,0-3.576,1.604-3.576,3.577c0,1.974,1.604,3.579,3.576,3.579
				c1.973,0,3.578-1.605,3.578-3.579C53.78,32.607,52.175,31.003,50.202,31.003z"/>
		</g>
	</g>
	<g>
		<g>
			<path d="M65.933,40.159c-3.075,0-5.577-2.503-5.577-5.579c0-3.075,2.502-5.577,5.577-5.577c3.076,0,5.578,2.502,5.578,5.577
				C71.511,37.656,69.009,40.159,65.933,40.159z M65.933,31.003c-1.973,0-3.577,1.604-3.577,3.577c0,1.974,1.604,3.579,3.577,3.579
				s3.578-1.605,3.578-3.579C69.511,32.607,67.905,31.003,65.933,31.003z"/>
		</g>
	</g>
	<g>
		<g>
			<path d="M34.067,56.308c-3.076,0-5.578-2.502-5.578-5.577c0-3.076,2.502-5.578,5.578-5.578c1.488,0,2.888,0.581,3.943,1.635
				c1.055,1.055,1.636,2.455,1.635,3.943C39.645,53.806,37.143,56.308,34.067,56.308z M34.067,47.153
				c-1.973,0-3.578,1.605-3.578,3.578s1.605,3.577,3.578,3.577s3.578-1.604,3.578-3.577c0-0.954-0.372-1.852-1.049-2.528
				C35.919,47.525,35.021,47.153,34.067,47.153z"/>
		</g>
	</g>
	<g>
		<g>
			<path d="M50.067,56.25c-3.076,0-5.578-2.503-5.578-5.579c0-3.075,2.502-5.577,5.578-5.577s5.578,2.501,5.578,5.577
				C55.645,53.747,53.143,56.25,50.067,56.25z M50.067,47.094c-1.973,0-3.578,1.604-3.578,3.577c0,1.974,1.605,3.579,3.578,3.579
				s3.578-1.605,3.578-3.579C53.645,48.699,52.04,47.094,50.067,47.094z"/>
		</g>
	</g>
	<g>
		<g>
			<path d="M65.933,56.25c-3.075,0-5.577-2.503-5.577-5.579c0-3.075,2.502-5.577,5.577-5.577c3.076,0,5.578,2.501,5.578,5.577
				C71.511,53.747,69.009,56.25,65.933,56.25z M65.933,47.094c-1.973,0-3.577,1.604-3.577,3.577c0,1.974,1.604,3.579,3.577,3.579
				s3.578-1.605,3.578-3.579C69.511,48.699,67.905,47.094,65.933,47.094z"/>
		</g>
	</g>
	<g>
		<g>
			<path d="M34.202,72.546c-3.075,0-5.576-2.503-5.576-5.579c0-3.075,2.501-5.577,5.576-5.577c3.076,0,5.578,2.502,5.578,5.577
				C39.78,70.043,37.278,72.546,34.202,72.546z M34.202,63.39c-1.972,0-3.576,1.604-3.576,3.577c0,1.974,1.604,3.579,3.576,3.579
				c1.973,0,3.578-1.605,3.578-3.579C37.78,64.994,36.175,63.39,34.202,63.39z"/>
		</g>
	</g>
	<g>
		<g>
			<path d="M50.202,72.485c-3.075,0-5.576-2.502-5.576-5.578c0-3.075,2.501-5.577,5.576-5.577c3.076,0,5.578,2.502,5.578,5.577
				C55.78,69.983,53.278,72.485,50.202,72.485z M50.202,63.33c-1.972,0-3.576,1.604-3.576,3.577s1.604,3.578,3.576,3.578
				c1.973,0,3.578-1.605,3.578-3.578S52.175,63.33,50.202,63.33z"/>
		</g>
	</g>
	<g>
		<g>
			<path d="M65.933,72.485c-3.075,0-5.577-2.502-5.577-5.578c0-3.075,2.502-5.577,5.577-5.577c3.076,0,5.578,2.502,5.578,5.577
				C71.511,69.983,69.009,72.485,65.933,72.485z M65.933,63.33c-1.973,0-3.577,1.604-3.577,3.577s1.604,3.578,3.577,3.578
				s3.578-1.605,3.578-3.578S67.905,63.33,65.933,63.33z"/>
		</g>
	</g>
</g>
</svg>
