<?xml version="1.0" encoding="utf-8"?>
<!-- Generator: Adobe Illustrator 17.0.0, SVG Export Plug-In . SVG Version: 6.00 Build 0)  -->
<!DOCTYPE svg PUBLIC "-//W3C//DTD SVG 1.1//EN" "http://www.w3.org/Graphics/SVG/1.1/DTD/svg11.dtd">
<svg version="1.1" id="Layer_1" xmlns="http://www.w3.org/2000/svg" xmlns:xlink="http://www.w3.org/1999/xlink" x="0px" y="0px"
	 width="100px" height="100px" viewBox="0 0 100 100" enable-background="new 0 0 100 100" xml:space="preserve">
<path d="M70.08,42.938c0.882,0,1.715-0.385,2.284-1.055l7.666-9c0.961-1.126,0.961-2.762,0.001-3.891l-7.669-9.001
	c-0.572-0.669-1.404-1.053-2.282-1.053H58.164H57.83v-2.377c0-1.654-1.346-3-3-3h-6.083c-1.654,0-3,1.346-3,3v2.377h-16
	c-1.654,0-3,1.346-3,3v18c0,1.654,1.346,3,3,3h15.958v2.209h-1.493h-2H29.92c-0.882,0-1.715,0.385-2.284,1.055l-7.666,9
	c-0.961,1.126-0.961,2.762-0.001,3.891l7.669,9.001c0.572,0.669,1.404,1.053,2.282,1.053h3.292h8.624h0.334h2h1.535v18.791
	c0,1.654,1.346,3,3,3h6.083c1.654,0,3-1.346,3-3V69.147h4.174h8.291c1.654,0,3-1.346,3-3v-18c0-1.654-1.346-3-3-3h-8.291h-4.174
	v-2.209H70.08z M47.747,16.562c0-0.551,0.449-1,1-1h6.083c0.552,0,1,0.449,1,1v2.377h-8.083V16.562z M55.788,87.938
	c0,0.552-0.448,1-1,1h-6.083c-0.551,0-1-0.448-1-1V69.147h4.548h2h1.535V87.938z M70.253,47.147c0.551,0,1,0.449,1,1v18
	c0,0.551-0.449,1-1,1H57.788h-2h-2.535h-1h-4.548h-2H44.17h-2.334H29.92c-0.293,0-0.57-0.129-0.762-0.352l-7.666-9
	c-0.32-0.376-0.321-0.922-0.001-1.297l7.668-9.001c0.189-0.223,0.467-0.351,0.761-0.351h13.292h1h1.493h2h4.59h1h2.493h2H70.253z
	 M54.295,45.147h-2h-4.59v-2.209h8.083v2.209H54.295z M56.788,40.938h-1h-8.083h-1H29.747c-0.551,0-1-0.449-1-1v-18
	c0-0.551,0.449-1,1-1h17h1h8.083h2.334H70.08c0.293,0,0.57,0.129,0.762,0.352l7.666,9c0.32,0.376,0.321,0.922,0.001,1.297
	l-7.668,9.001c-0.189,0.223-0.467,0.351-0.761,0.351H56.788z"/>
</svg>
