<?xml version="1.0" encoding="utf-8"?>
<!-- Generator: Adobe Illustrator 16.0.0, SVG Export Plug-In . SVG Version: 6.00 Build 0)  -->
<!DOCTYPE svg PUBLIC "-//W3C//DTD SVG 1.1//EN" "http://www.w3.org/Graphics/SVG/1.1/DTD/svg11.dtd">
<svg version="1.1" id="Layer_1" xmlns="http://www.w3.org/2000/svg" xmlns:xlink="http://www.w3.org/1999/xlink" x="0px" y="0px"
	 width="100px" height="100px" viewBox="0 0 100 100" enable-background="new 0 0 100 100" xml:space="preserve">
<g>
	<path d="M53.732,61.701c-0.224,0-0.454-0.025-0.686-0.075l-0.176-0.05c-0.15-0.04-0.312-0.093-0.464-0.161
		c-0.075-0.035-0.125-0.062-0.174-0.09c-0.154-0.082-0.282-0.158-0.405-0.248c-0.059-0.043-0.118-0.093-0.177-0.145
		c-0.117-0.098-0.226-0.199-0.324-0.31l-0.072-0.072l-5.461-6.506c-1.149-1.368-0.97-3.419,0.398-4.57
		c1.223-1.023,3.148-0.958,4.294,0.107V24.527c0-1.789,1.455-3.244,3.244-3.244s3.244,1.455,3.244,3.244v25.056
		c1.146-1.067,3.077-1.13,4.294-0.11c1.371,1.151,1.551,3.202,0.402,4.572l-5.61,6.653c-0.024,0.035-0.128,0.136-0.236,0.227
		c-0.079,0.067-0.134,0.113-0.191,0.155c-0.121,0.087-0.246,0.161-0.375,0.23c-0.081,0.045-0.128,0.07-0.177,0.094
		c-0.174,0.078-0.332,0.129-0.495,0.174c-0.057,0.02-0.12,0.038-0.184,0.051C54.187,61.676,53.956,61.701,53.732,61.701z
		 M53.008,59.462c0.043,0.031,0.091,0.057,0.14,0.083l-0.354,0.946l0.458-0.889c0.03,0.014,0.092,0.029,0.152,0.046l0.113,0.035
		c0.092,0.016,0.291,0.028,0.477-0.013l0.078-0.025c0.046-0.013,0.108-0.028,0.167-0.055c0.124-0.07,0.177-0.1,0.225-0.134
		c0.111-0.096,0.15-0.132,0.186-0.171l0.078-0.079l5.411-6.447c0.44-0.525,0.371-1.313-0.154-1.755
		c-0.287-0.239-0.593-0.29-0.8-0.29c-0.369,0-0.717,0.162-0.954,0.444l-3.256,3.879V24.527c0-0.686-0.559-1.244-1.244-1.244
		s-1.244,0.558-1.244,1.244V55.04l-3.254-3.88c-0.237-0.282-0.585-0.444-0.955-0.444c-0.206,0-0.512,0.05-0.799,0.291
		c-0.524,0.44-0.593,1.228-0.152,1.753l5.504,6.544c0.021,0.023,0.058,0.057,0.096,0.088l-0.534,0.858L53.008,59.462z"/>
</g>
<g>
	<polygon points="74.93,76.404 32.534,76.404 32.534,34.008 49.486,34.008 49.486,36.008 34.534,36.008 34.534,74.404 72.93,74.404 
		72.93,36.008 57.975,36.008 57.975,34.008 74.93,34.008 	"/>
</g>
</svg>
