<?xml version="1.0" encoding="utf-8"?>
<!-- Generator: Adobe Illustrator 17.0.0, SVG Export Plug-In . SVG Version: 6.00 Build 0)  -->
<!DOCTYPE svg PUBLIC "-//W3C//DTD SVG 1.1//EN" "http://www.w3.org/Graphics/SVG/1.1/DTD/svg11.dtd">
<svg version="1.1" id="Layer_1" xmlns="http://www.w3.org/2000/svg" xmlns:xlink="http://www.w3.org/1999/xlink" x="0px" y="0px"
	 width="100px" height="100px" viewBox="0 0 100 100" enable-background="new 0 0 100 100" xml:space="preserve">
<g>
	<g>
		<path d="M39.707,75.953H29.279c-1.84,0-3.338-1.497-3.338-3.337V31.819c0-0.96,0.414-1.875,1.135-2.507l5.215-4.583
			c1.219-1.071,3.186-1.071,4.406-0.001l5.213,4.584c0.411,0.361,0.723,0.813,0.914,1.313c0.191-0.5,0.501-0.952,0.912-1.313
			l5.216-4.583c1.22-1.071,3.186-1.071,4.407,0l5.215,4.583c0.41,0.361,0.721,0.813,0.912,1.313c0.191-0.5,0.503-0.953,0.915-1.313
			l5.215-4.583c1.221-1.07,3.187-1.07,4.405-0.001l5.214,4.584c0.721,0.632,1.135,1.546,1.135,2.506v40.797
			c0,1.84-1.497,3.337-3.338,3.337H62.603c-1.42,0-2.636-0.891-3.117-2.144c-0.481,1.253-1.696,2.144-3.115,2.144H45.94
			c-1.419,0-2.634-0.891-3.115-2.144C42.343,75.062,41.127,75.953,39.707,75.953z M34.494,25.899c-0.325,0-0.639,0.118-0.883,0.333
			l-5.215,4.583c-0.29,0.254-0.455,0.62-0.455,1.005v40.797c0,0.737,0.6,1.337,1.338,1.337h10.428c0.738,0,1.338-0.6,1.338-1.337
			V61.414h3.559v11.201c0,0.737,0.599,1.337,1.336,1.337h10.43c0.736,0,1.336-0.6,1.336-1.337V61.414h3.559v11.201
			c0,0.737,0.601,1.337,1.338,1.337h10.429c0.737,0,1.338-0.6,1.338-1.337V31.818c0-0.384-0.166-0.75-0.454-1.003l-5.214-4.583
			c-0.488-0.428-1.277-0.428-1.766,0l-5.216,4.583c-0.289,0.254-0.455,0.62-0.455,1.005v8.03h-3.559v-8.03
			c0-0.385-0.165-0.751-0.454-1.005l-5.214-4.583c-0.488-0.428-1.278-0.429-1.767,0.001l-5.214,4.582
			c-0.288,0.253-0.453,0.62-0.453,1.005v8.03h-3.559v-8.03c0-0.385-0.166-0.751-0.455-1.004l-5.213-4.583
			C35.133,26.017,34.819,25.899,34.494,25.899z M61.266,58.74h-3.559V42.522h3.559V58.74z M44.605,58.74h-3.559V42.522h3.559V58.74z
			"/>
	</g>
</g>
</svg>
