<?xml version="1.0" encoding="utf-8"?>
<!-- Generator: Adobe Illustrator 16.0.0, SVG Export Plug-In . SVG Version: 6.00 Build 0)  -->
<!DOCTYPE svg PUBLIC "-//W3C//DTD SVG 1.1//EN" "http://www.w3.org/Graphics/SVG/1.1/DTD/svg11.dtd">
<svg version="1.1" id="Layer_1" xmlns="http://www.w3.org/2000/svg" xmlns:xlink="http://www.w3.org/1999/xlink" x="0px" y="0px"
	 width="100px" height="100px" viewBox="0 0 100 100" enable-background="new 0 0 100 100" xml:space="preserve">
<g>
	<path d="M79.4,33.965l-0.585-0.999l-0.037,0.03c-5.418-8.885-15.2-14.831-26.347-14.831C35.43,18.166,21.598,31.998,21.598,49
		S35.43,79.834,52.432,79.834c3.784,0,7.409-0.688,10.761-1.941c2.298-0.806,4.51-1.875,6.582-3.229l0.621-0.405l-0.054-0.184
		c5.87-4.205,10.211-10.412,12.007-17.62l0.323,0.278L83,55.041c0.377-1.938,0.567-3.887,0.567-5.792
		C83.567,43.907,82.126,38.623,79.4,33.965z M81.025,52.06c-0.261-0.267-0.611-0.415-0.987-0.418h-0.011
		c-0.148,0-0.29,0.025-0.421,0.074l-0.021-0.017l-0.001,0.024c-0.302,0.117-0.541,0.355-0.655,0.669
		c-0.252,0.695,0.198,1.376,0.588,1.801c-0.076,0.76-0.292,1.675-0.441,2.176c-0.197,0.653-1.126,1.707-2.463,2.389
		c-0.053-0.23-0.131-0.494-0.317-0.728c-0.535-0.67-1.48-1.024-2.733-1.024c-1.084,0-2.375,0.271-3.455,0.727
		c-1.476,0.618-2.124,1.507-2.598,2.155c-0.167,0.228-0.311,0.424-0.447,0.547c-0.654,0.588-2.511,1.134-3.739,1.496
		c-0.327,0.097-0.638,0.188-0.915,0.275c-1.761,0.556-1.703,2.454-1.661,3.84c0.017,0.559,0.034,1.136-0.033,1.631
		c-0.142,1.048,0.036,1.901,0.529,2.538c0.428,0.552,1.085,0.905,1.85,0.995c0.585,0.068,1.521,0.026,2.463-0.022
		c0.712-0.037,1.504-0.067,1.852-0.049c0.148,0.389,0.352,1.134,0.509,1.708c0.034,0.127,0.07,0.259,0.106,0.39
		c-1.762,1.137-3.65,2.094-5.646,2.829c-2.938,1.012-6.029,1.545-9.17,1.545l-0.001,0.204c-0.002,0-0.004,0-0.006,0V77.61
		c-11.562,0-22.061-7.177-26.337-17.927c0.524-0.639,0.647-1.425,0.729-1.949c0.097-0.629,0.229-1.49,0.794-2.784
		c0.783-1.79,1.003-2.52,1.073-2.938c0.065-0.103,0.167-0.252,0.326-0.489l0.188-0.282c1.407-2.106,1.586-3.639,1.813-5.579
		l0.013-0.109c0.064-0.554,0.135-1.174,0.247-1.897c0.321-2.077,1.256-3.269,2.158-4.417c0.282-0.356,0.547-0.694,0.772-1.023
		c0.493-0.711,0.822-1.646,1.169-2.635c0.176-0.499,0.621-1.755,0.852-2.14c0.352,0.039,0.947,0.258,1.333,0.681
		c0.222,0.245,0.31,0.48,0.283,0.767c-0.1,1.114-0.623,2.426-1.106,3.637c-0.621,1.55-1.111,2.774-0.87,3.967
		c0.422,2.11,2.22,2.986,3.072,3.4c0.283,0.145,0.658,0.235,0.977,0.235c1.371,0,1.974-1.081,2.467-1.966
		c0.145-0.261,0.585-1.055,0.731-1.178c1.344-0.476,2.374-1.516,3.287-2.437l0.09-0.092c0.213-0.217,0.418-0.425,0.593-0.58
		c0.58,0.817,1.346,1.272,1.87,1.583c0.105,0.062,0.357,0.212,0.476,0.302c0.057,0.371,0.106,0.951,0.157,1.562l0.016,0.191
		c0.241,2.882,0.442,4.709,1.199,5.772c0.159,0.224,0.332,0.42,0.513,0.594c-0.253,0.057-0.55,0.196-0.841,0.496
		c-0.88,0.909-1.362,3.089-1.339,3.803c0.029,0.965,0.374,3.986,1.542,5.18c1.038,1.05,3.898,1.936,5.267,1.524
		c0.462-0.138,0.807-0.456,1.11-0.737c0.401-0.371,0.619-0.57,0.93-0.508c1.018,0.192,1.844-0.447,2.255-1.64
		c0.315-0.915,0.472-2.634-0.449-3.355c-0.324-0.252-0.733-0.375-1.252-0.375c-0.43,0-0.885,0.083-1.325,0.163
		c-0.353,0.064-0.718,0.131-0.966,0.131c-0.054,0-0.087-0.002-0.089,0.002c-0.663-0.42-1.745-1.134-2.828-3.362
		c-0.027-0.056-0.055-0.11-0.083-0.163c0.107,0.042,0.21,0.081,0.308,0.117c0.107,0.041,0.224,0.079,0.315,0.126
		c0.33,0.399,0.997,1.119,2.06,1.119c0.791,0,2.164-0.376,2.479-2.916c0.156-1.362-0.304-2.29-0.65-2.84
		c0.045-0.055,0.098-0.118,0.16-0.189c0.866-0.983,1.256-1.28,1.719-1.632c0.541-0.405,1.154-0.865,2.293-2.147
		c2.267-2.548,3.77-6.569,3.77-8.111c0-0.655-0.23-1.175-0.498-1.575c0.642-0.475,1.157-0.94,1.638-1.373
		c1.015-0.916,1.574-1.42,2.896-1.594c0.897-0.119,1.544-0.125,1.866-0.062c-0.125,0.346-0.351,0.897-0.756,1.775l-0.079,0.175
		c-0.08,0.175-0.155,0.342-0.225,0.499c-1.057,0.208-1.728,0.908-1.798,1.884c-0.114,1.598,1.139,2.017,2.353,2.422
		c2.553,0.852,3.611,0.499,4.75-0.009l0.676-0.295c0.271-0.114,0.557-0.265,0.85-0.442c1.993,3.917,3.125,8.343,3.125,13.031
		c0,1.062-0.062,2.11-0.175,3.144C81.068,52.116,81.051,52.086,81.025,52.06z M52.391,52.257c1.325,2.64,2.737,3.533,3.505,4.02
		c0.592,0.373,1.541,0.285,2.445,0.121c0.328-0.06,0.667-0.121,0.912-0.13c0.048,0.404-0.087,1.118-0.271,1.381
		c-1.223-0.163-2.015,0.565-2.515,1.027c-0.114,0.105-0.287,0.266-0.327,0.29c-0.03,0.009-0.12,0.03-0.297,0.03
		c-0.981,0-2.532-0.599-2.97-1.041c-0.475-0.484-0.93-2.516-0.97-3.839C51.898,53.764,52.135,52.851,52.391,52.257z M77.176,34.216
		c-0.235,0.147-0.462,0.269-0.67,0.355l-0.704,0.308c-0.59,0.262-0.868,0.378-1.304,0.378c-0.464,0-1.1-0.14-2.002-0.44
		c-0.372-0.125-0.826-0.276-0.996-0.381c0.025-0.016,0.092-0.045,0.212-0.067c0.364-0.066,1.042-0.188,1.284-0.814
		c0.093-0.231,0.22-0.51,0.359-0.817l0.078-0.172c0.47-1.02,0.765-1.734,0.928-2.257C75.402,31.529,76.347,32.834,77.176,34.216z
		 M52.432,20.166c7.586,0,14.493,2.949,19.646,7.756c-0.506-0.02-1.1,0.019-1.837,0.117c-1.936,0.254-2.88,1.105-3.996,2.112
		c-0.501,0.452-1.067,0.963-1.776,1.453c-0.271,0.186-0.485,0.361-0.654,0.536l-0.652,0.675l0.804,0.875
		c0.294,0.315,0.503,0.562,0.503,0.873c0,0.95-1.233,4.498-3.265,6.782c-1.005,1.132-1.509,1.51-2.021,1.894
		c-0.491,0.374-0.999,0.761-1.996,1.893c-0.741,0.842-0.836,1.264-0.836,1.538v0.201l0.078,0.186
		c0.044,0.105,0.093,0.187,0.274,0.45c0.262,0.389,0.588,0.873,0.487,1.753c-0.094,0.756-0.259,1.139-0.491,1.139
		c-0.186,0-0.382-0.224-0.645-0.543c-0.279-0.29-0.674-0.439-1.048-0.582c-0.633-0.239-1.349-0.509-1.806-1.15
		c-0.493-0.693-0.675-2.863-0.835-4.778l-0.016-0.191c-0.062-0.733-0.114-1.366-0.19-1.808c-0.14-0.852-0.758-1.22-1.414-1.61
		c-0.476-0.283-1.016-0.604-1.349-1.156c-0.461-0.767-1.028-0.928-1.423-0.928c-0.512,0-0.871,0.271-1.083,0.43
		c-0.351,0.252-0.693,0.6-1.055,0.968l-0.089,0.09c-0.758,0.765-1.618,1.632-2.53,1.955c-0.749,0.266-1.264,1.105-1.82,2.106
		c-0.311,0.558-0.528,0.924-0.699,0.924l-0.1-0.027c-0.896-0.437-1.789-0.951-2-2.003c-0.123-0.609,0.289-1.638,0.789-2.886
		c0.512-1.285,1.092-2.74,1.218-4.144c0.077-0.842-0.197-1.634-0.796-2.294c-1.092-1.195-2.742-1.536-3.562-1.238l-0.158,0.071
		c-0.698,0.385-1.146,1.373-1.83,3.308c-0.289,0.821-0.587,1.671-0.93,2.165c-0.204,0.297-0.441,0.599-0.696,0.92
		c-0.964,1.228-2.164,2.756-2.564,5.351c-0.116,0.752-0.19,1.398-0.257,1.974l0.994,0.114l-1.006-0.01
		c-0.211,1.804-0.351,2.996-1.49,4.702l-0.188,0.281c-0.325,0.486-0.447,0.669-0.532,0.845l-0.083,0.172l-0.014,0.19
		c-0.01,0.137-0.122,0.658-0.94,2.529c-0.67,1.533-0.832,2.586-0.938,3.28c-0.094,0.601-0.183,0.907-0.402,1.07
		c-1.042-2.977-1.615-6.171-1.615-9.499C23.598,33.101,36.533,20.166,52.432,20.166z M69.764,72.026
		c-0.466-1.701-0.722-2.508-1.466-2.758c-0.289-0.097-0.658-0.138-1.233-0.138c-0.471,0-1.04,0.029-1.614,0.06
		c-0.798,0.042-1.62,0.095-2.121,0.033c-0.163-0.02-0.382-0.075-0.505-0.234c-0.148-0.19-0.193-0.562-0.128-1.044
		c0.089-0.66,0.068-1.32,0.05-1.959c-0.03-1.005-0.03-1.78,0.263-1.873c0.266-0.084,0.564-0.171,0.88-0.265
		c1.649-0.485,3.519-1.035,4.51-1.926c0.292-0.262,0.513-0.563,0.726-0.855c0.409-0.56,0.794-1.087,1.758-1.491
		c0.849-0.357,1.85-0.57,2.681-0.57c0.621,0,0.963,0.121,1.105,0.217c0.006,0.025,0.011,0.052,0.017,0.078
		c0.32,1.492,1.298,2.005,2.783,1.267c0.709-0.355,1.354-0.805,1.901-1.3C77.417,64.372,74.059,68.786,69.764,72.026z"/>
	<path d="M66.834,43.797c-0.523,0-1.3,0.214-2.021,1.235c-0.736,1.041-1.037,1.332-1.304,1.589c-0.252,0.243-0.49,0.473-0.886,1.067
		l-2.965,4.473l2.125-0.234c0.297-0.034,0.548-0.028,0.724-0.007c0.288,0.04,0.444,0.134,0.66,0.264
		c0.268,0.161,0.636,0.382,1.154,0.382c0.555,0,1.124-0.248,1.903-0.829c2.314-1.718,3.408-3.472,3.25-5.208
		C69.396,45.602,68.392,43.797,66.834,43.797z M65.032,50.131c-0.478,0.355-0.673,0.421-0.659,0.439
		c-0.06-0.024-0.114-0.063-0.177-0.102c-0.185-0.111-0.43-0.258-0.768-0.375l0.86-1.299c0.274-0.412,0.4-0.534,0.609-0.735
		c0.313-0.302,0.702-0.678,1.547-1.873c0.208-0.293,0.359-0.382,0.385-0.389c0.206,0.033,0.61,0.634,0.652,0.907
		C67.571,47.676,66.701,48.893,65.032,50.131z"/>
</g>
</svg>
