<?xml version="1.0" encoding="utf-8"?>
<!-- Generator: Adobe Illustrator 17.0.0, SVG Export Plug-In . SVG Version: 6.00 Build 0)  -->
<!DOCTYPE svg PUBLIC "-//W3C//DTD SVG 1.1//EN" "http://www.w3.org/Graphics/SVG/1.1/DTD/svg11.dtd">
<svg version="1.1" id="Layer_1" xmlns="http://www.w3.org/2000/svg" xmlns:xlink="http://www.w3.org/1999/xlink" x="0px" y="0px"
	 width="100px" height="100px" viewBox="0 0 100 100" enable-background="new 0 0 100 100" xml:space="preserve">
<g>
	<path d="M52.013,84.88c-4.695,0-9.012-2.757-11.041-6.955c-1.312,0.463-2.675,0.697-4.066,0.697c-3.276,0-6.355-1.275-8.671-3.592
		c-3.322-3.323-4.423-8.329-2.885-12.734c-4.204-2.027-6.966-6.347-6.967-11.047c0-4.698,2.761-9.017,6.966-11.044
		c-1.54-4.408-0.439-9.415,2.884-12.735c2.316-2.315,5.396-3.591,8.671-3.591c1.395,0,2.759,0.234,4.068,0.698
		c2.029-4.199,6.345-6.956,11.041-6.956s9.012,2.756,11.041,6.954c1.311-0.464,2.675-0.698,4.069-0.698
		c3.277,0,6.357,1.276,8.674,3.594c3.321,3.322,4.422,8.328,2.882,12.735c4.206,2.028,6.968,6.346,6.968,11.044
		c-0.003,4.698-2.766,9.017-6.97,11.044c1.541,4.406,0.44,9.413-2.884,12.737c-2.316,2.316-5.396,3.592-8.671,3.592
		c-1.396,0-2.76-0.234-4.068-0.698C61.024,82.122,56.708,84.88,52.013,84.88z M42.059,75.294l0.378,0.984
		c1.516,3.948,5.364,6.602,9.576,6.602c4.212,0,8.061-2.653,9.577-6.604l0.379-0.986l0.964,0.433
		c1.331,0.597,2.74,0.899,4.189,0.899c2.741,0,5.318-1.067,7.257-3.006c2.98-2.98,3.824-7.581,2.098-11.448l-0.431-0.963
		l0.985-0.378c3.954-1.516,6.612-5.365,6.615-9.579c0-4.212-2.657-8.061-6.611-9.577l-0.985-0.377l0.43-0.963
		c1.724-3.867,0.882-8.467-2.097-11.446c-1.938-1.939-4.517-3.008-7.26-3.008c-1.448,0-2.858,0.303-4.192,0.9l-0.963,0.432
		l-0.379-0.986c-1.516-3.949-5.364-6.602-9.576-6.602s-8.06,2.654-9.576,6.604l-0.378,0.986l-0.964-0.432
		c-1.333-0.597-2.743-0.899-4.191-0.899c-2.742,0-5.319,1.067-7.257,3.005c-2.98,2.978-3.823,7.578-2.098,11.446l0.429,0.963
		l-0.985,0.377c-3.954,1.516-6.61,5.365-6.61,9.578c0.001,4.215,2.658,8.065,6.611,9.58l0.985,0.377L27.55,62.17
		c-1.724,3.866-0.88,8.466,2.099,11.446c1.938,1.938,4.515,3.006,7.257,3.006c1.444,0,2.854-0.303,4.19-0.898L42.059,75.294z
		 M52.014,79.553c-3.583,0-6.608-2.813-6.887-6.406l-0.036-0.459l5.832-5.828c0.081-0.081,0.154-0.167,0.229-0.252l0.857-0.965
		l0.882,0.979c0.071,0.08,0.142,0.162,0.218,0.238l5.828,5.827l-0.035,0.459C58.625,76.738,55.6,79.553,52.014,79.553z
		 M47.175,73.433c0.395,2.344,2.441,4.12,4.838,4.12c2.399,0,4.445-1.777,4.84-4.121l-4.838-4.837L47.175,73.433z M67.159,73.223
		c-1.684,0-3.291-0.575-4.527-1.62l-0.354-0.3v-8.242c0-0.106-0.008-0.212-0.015-0.317l-0.069-1.32l1.293,0.073
		c0.112,0.008,0.226,0.017,0.341,0.017h8.241l0.299,0.35c2.343,2.739,2.193,6.868-0.34,9.4
		C70.763,72.526,69.033,73.223,67.159,73.223z M64.277,70.347c0.82,0.567,1.827,0.876,2.882,0.876c1.321,0,2.58-0.501,3.454-1.374
		c1.695-1.694,1.885-4.398,0.508-6.336h-6.844V70.347z M36.872,73.222c-1.875,0-3.603-0.695-4.867-1.959
		c-2.532-2.535-2.683-6.664-0.343-9.4l0.299-0.35h8.245c0.106,0,0.21-0.008,0.315-0.015l1.318-0.069l-0.071,1.305
		c-0.007,0.108-0.016,0.217-0.016,0.327v8.242l-0.354,0.3C40.161,72.646,38.554,73.222,36.872,73.222z M32.908,63.513
		c-1.375,1.936-1.183,4.64,0.511,6.336c0.873,0.872,2.131,1.373,3.452,1.373c1.053,0,2.06-0.309,2.88-0.875v-6.834H32.908z
		 M45.077,67.997V63.06c0.001-1.056,0.257-2.097,0.76-3.097l0.111-0.22l0.201-0.144c0.873-0.624,1.644-1.383,2.292-2.255
		l2.374-3.198l-0.582,3.94c-0.159,1.073-0.15,2.156,0.026,3.217l0.041,0.243l-0.077,0.234c-0.35,1.061-0.906,1.978-1.652,2.726
		L45.077,67.997z M47.077,63.061v0.11l0.078-0.077c0.472-0.474,0.839-1.052,1.09-1.722c-0.039-0.268-0.068-0.537-0.089-0.807
		c-0.205,0.176-0.416,0.345-0.633,0.507C47.228,61.725,47.078,62.393,47.077,63.061L47.077,63.061z M58.95,67.996l-3.488-3.488
		c-0.746-0.748-1.302-1.665-1.652-2.727l-0.077-0.233l0.04-0.243c0.176-1.062,0.185-2.146,0.026-3.222l-0.581-3.945l2.374,3.204
		c0.643,0.868,1.413,1.627,2.289,2.256l0.199,0.144l0.11,0.219c0.504,0.999,0.76,2.042,0.76,3.101V67.996z M55.785,61.372
		c0.253,0.67,0.619,1.249,1.092,1.723l0.073,0.073v-0.107c0-0.671-0.149-1.34-0.445-1.992c-0.216-0.162-0.426-0.33-0.63-0.505
		C55.854,60.834,55.824,61.104,55.785,61.372z M68.759,58.187h-4.932c-1.059,0-2.102-0.256-3.103-0.761l-0.221-0.11l-0.143-0.201
		c-0.62-0.867-1.374-1.635-2.241-2.281l-3.166-2.359l3.907,0.568c1.257,0.183,2.089,0.158,3.223-0.03l0.245-0.041l0.235,0.079
		c1.053,0.351,1.963,0.905,2.706,1.648L68.759,58.187z M61.834,55.74c0.653,0.296,1.322,0.446,1.993,0.446h0.104l-0.074-0.074
		c-0.471-0.47-1.043-0.835-1.704-1.087c-0.278,0.041-0.549,0.073-0.812,0.096C61.511,55.322,61.676,55.528,61.834,55.74z
		 M40.203,58.185h-4.938l3.49-3.489c0.743-0.741,1.652-1.295,2.703-1.648l0.238-0.079l0.247,0.041
		c1.111,0.188,1.979,0.215,3.219,0.03l3.921-0.58l-3.176,2.371c-0.868,0.647-1.623,1.416-2.245,2.284l-0.143,0.199l-0.219,0.111
		C42.305,57.929,41.263,58.185,40.203,58.185z M40.094,56.185h0.109c0.671,0,1.339-0.149,1.987-0.444
		c0.159-0.213,0.324-0.419,0.496-0.62c-0.266-0.023-0.537-0.056-0.814-0.097c-0.662,0.253-1.234,0.618-1.704,1.087L40.094,56.185z
		 M30.577,58.175l-0.459-0.036c-3.591-0.279-6.404-3.306-6.405-6.89c0-3.581,2.812-6.607,6.401-6.89l0.459-0.036l5.833,5.831
		c0.078,0.078,0.16,0.149,0.242,0.221l0.969,0.874l-0.97,0.874c-0.082,0.072-0.164,0.144-0.242,0.221L30.577,58.175z M29.83,46.408
		c-2.342,0.398-4.117,2.445-4.117,4.841c0.001,2.397,1.777,4.444,4.12,4.841l4.84-4.841L29.83,46.408z M73.452,58.171l-5.828-5.825
		c-0.077-0.077-0.159-0.147-0.24-0.219l-0.972-0.876l0.966-0.871c0.084-0.073,0.168-0.147,0.247-0.226l5.832-5.831l0.46,0.036
		c3.589,0.284,6.4,3.31,6.4,6.888c0.001,3.584-2.812,6.609-6.406,6.889L73.452,58.171z M69.357,51.25l4.84,4.838
		c2.344-0.396,4.121-2.442,4.12-4.841c0-2.394-1.775-4.439-4.117-4.839L69.357,51.25z M51.37,52.813l-0.3-0.305
		c-0.038-0.04-0.075-0.082-0.111-0.123l-0.504-0.476v-0.43c0-0.064,0.004-0.129,0.009-0.192l-0.02-0.69l0.507-0.48
		c0.038-0.043,0.076-0.086,0.116-0.127l0.3-0.305l0.427,0.005c0.058,0.001,0.113,0.004,0.17,0.008
		c0.156-0.004,0.213-0.007,0.271-0.008l0.438-0.005l0.907,0.913l-0.014,0.706l0.013,0.586l-0.298,0.298
		c-0.043,0.043-0.089,0.084-0.135,0.124l-0.07,0.071c-0.038,0.043-0.075,0.085-0.114,0.125l-0.3,0.305l-0.427-0.005
		c-0.058-0.001-0.114-0.004-0.171-0.009l-0.051-0.003c-0.104,0.008-0.16,0.011-0.217,0.012L51.37,52.813z M54.944,50.035
		l3.175-2.367c0.867-0.646,1.622-1.415,2.243-2.284l0.144-0.201l0.221-0.111c1-0.503,2.044-0.758,3.101-0.758h4.936l-3.49,3.489
		c-0.753,0.751-1.703,1.305-2.827,1.645l-0.219,0.066L62,49.479c-1.144-0.182-1.955-0.193-3.138-0.019L54.944,50.035z
		 M61.338,47.381c0.237,0.021,0.482,0.049,0.735,0.085c0.714-0.245,1.313-0.607,1.785-1.079l0.074-0.074h-0.105
		c-0.67,0-1.34,0.15-1.993,0.445C61.676,46.972,61.51,47.18,61.338,47.381z M49.084,50.034l-3.917-0.575
		c-1.196-0.175-1.989-0.163-3.136,0.019l-0.226,0.036l-0.22-0.066c-1.123-0.339-2.074-0.893-2.827-1.646l-3.493-3.492h4.938
		c1.054,0,2.096,0.255,3.095,0.757l0.221,0.111l0.144,0.201c0.622,0.872,1.378,1.642,2.247,2.289L49.084,50.034z M40.094,46.31
		l0.078,0.078c0.473,0.473,1.072,0.835,1.785,1.079c0.253-0.036,0.497-0.064,0.734-0.085c-0.174-0.204-0.341-0.413-0.501-0.627
		c-0.652-0.294-1.319-0.444-1.987-0.444H40.094z M53.214,48.353l0.583-3.942c0.159-1.074,0.149-2.156-0.027-3.215l-0.041-0.245
		l0.078-0.235c0.353-1.062,0.911-1.979,1.659-2.725l3.484-3.486v4.934c0,1.056-0.255,2.098-0.758,3.097l-0.111,0.221l-0.201,0.144
		c-0.873,0.624-1.644,1.381-2.291,2.253L53.214,48.353z M55.783,41.127c0.038,0.268,0.068,0.538,0.09,0.808
		c0.205-0.176,0.416-0.345,0.633-0.506c0.295-0.652,0.444-1.32,0.444-1.989v-0.104l-0.071,0.071
		C56.404,39.88,56.036,40.458,55.783,41.127z M50.802,48.329l-2.368-3.184c-0.648-0.871-1.417-1.627-2.288-2.247l-0.202-0.145
		l-0.111-0.222c-0.501-1-0.755-2.04-0.755-3.092v-4.937l3.489,3.491c0.746,0.748,1.301,1.662,1.65,2.718l0.078,0.235l-0.041,0.244
		c-0.102,0.612-0.152,1.171-0.152,1.708c0,0.45,0.04,0.942,0.123,1.505L50.802,48.329z M47.521,41.425
		c0.214,0.16,0.422,0.326,0.625,0.499c0.022-0.262,0.054-0.529,0.095-0.804c-0.251-0.665-0.617-1.24-1.089-1.713l-0.074-0.074v0.106
		C47.078,40.105,47.227,40.772,47.521,41.425z M62.188,41.076l0.074-1.3c0.007-0.112,0.016-0.224,0.016-0.336v-8.246l0.349-0.299
		c1.269-1.09,2.866-1.69,4.498-1.69c1.854,0,3.596,0.722,4.906,2.034c2.529,2.531,2.68,6.659,0.342,9.396l-0.3,0.351l-8.253,0.003
		c-0.107,0-0.213,0.008-0.318,0.016L62.188,41.076z M64.278,32.136v6.851l6.847-0.003c1.375-1.937,1.184-4.639-0.509-6.333
		C68.957,30.992,66.209,30.739,64.278,32.136z M41.839,41.071l-1.298-0.07c-0.111-0.008-0.223-0.016-0.336-0.016h-8.249
		l-0.299-0.351c-2.338-2.738-2.187-6.866,0.344-9.397c1.311-1.31,3.052-2.031,4.904-2.031c1.632,0,3.229,0.6,4.498,1.689
		l0.349,0.299v8.245c0,0.109,0.008,0.216,0.016,0.324L41.839,41.071z M32.904,38.985h6.848v-6.847
		c-1.93-1.395-4.679-1.144-6.337,0.514C31.721,34.345,31.53,37.047,32.904,38.985z M52.011,36.848l-0.879-0.972
		c-0.069-0.079-0.138-0.159-0.214-0.235l-5.826-5.827l0.035-0.458c0.277-3.593,3.302-6.408,6.887-6.408
		c3.584,0,6.609,2.813,6.888,6.405l0.035,0.458l-5.826,5.831c-0.076,0.076-0.144,0.154-0.212,0.231L52.011,36.848z M47.175,29.068
		l4.84,4.84l4.839-4.842c-0.396-2.343-2.442-4.119-4.84-4.119C49.615,24.947,47.569,26.725,47.175,29.068z"/>
</g>
</svg>
