<?xml version="1.0" encoding="utf-8"?>
<!-- Generator: Adobe Illustrator 17.0.0, SVG Export Plug-In . SVG Version: 6.00 Build 0)  -->
<!DOCTYPE svg PUBLIC "-//W3C//DTD SVG 1.1//EN" "http://www.w3.org/Graphics/SVG/1.1/DTD/svg11.dtd">
<svg version="1.1" id="Layer_1" xmlns="http://www.w3.org/2000/svg" xmlns:xlink="http://www.w3.org/1999/xlink" x="0px" y="0px"
	 width="100px" height="100px" viewBox="0 0 100 100" enable-background="new 0 0 100 100" xml:space="preserve">
<path d="M74.249,59.789c-0.001-0.117-0.028-0.231-0.069-0.341c-0.011-0.029-0.023-0.055-0.036-0.083
	c-0.014-0.029-0.021-0.06-0.038-0.088l-10-16.5c-0.182-0.299-0.506-0.482-0.855-0.482h-5.149l11.61-11.61
	c0.391-0.391,0.391-1.023,0-1.414l-16.44-16.44c-0.391-0.391-1.023-0.391-1.414,0L30.29,34.397c-0.391,0.391-0.391,1.023,0,1.414
	l6.483,6.483H36.75c-0.35,0-0.674,0.183-0.855,0.482l-10,16.5c-0.017,0.028-0.025,0.059-0.038,0.088
	c-0.013,0.027-0.025,0.054-0.036,0.082c-0.041,0.111-0.068,0.225-0.069,0.342c0,0.002-0.001,0.004-0.001,0.006v26.667
	c0,0.553,0.447,1,1,1h46.5c0.553,0,1-0.447,1-1V59.795C74.25,59.793,74.249,59.791,74.249,59.789z M52.563,14.952L67.59,29.978
	L47.438,50.131l-7.543-7.543l-7.483-7.483L52.563,14.952z M37.313,44.295h1.46l7.956,7.956c0.092,0.093,0.203,0.166,0.326,0.217
	c0.122,0.051,0.252,0.077,0.382,0.077h8.646c0.553,0,1-0.448,1-1s-0.447-1-1-1h-6.232l6.25-6.25h6.585l8.788,14.5H28.525
	L37.313,44.295z M72.25,85.462h-44.5V60.795h44.5V85.462z"/>
</svg>
