<?xml version="1.0" encoding="utf-8"?>
<!-- Generator: Adobe Illustrator 17.0.0, SVG Export Plug-In . SVG Version: 6.00 Build 0)  -->
<!DOCTYPE svg PUBLIC "-//W3C//DTD SVG 1.1//EN" "http://www.w3.org/Graphics/SVG/1.1/DTD/svg11.dtd">
<svg version="1.1" id="Layer_1" xmlns="http://www.w3.org/2000/svg" xmlns:xlink="http://www.w3.org/1999/xlink" x="0px" y="0px"
	 width="100px" height="100px" viewBox="0 0 100 100" enable-background="new 0 0 100 100" xml:space="preserve">
<path d="M74.167,36c0-4.992-3.805-9.112-8.667-9.615v-0.052h-31v0.052c-4.862,0.502-8.666,4.622-8.666,9.615
	c0,4.993,3.804,9.112,8.666,9.615V47.5c0,8.209,6.42,14.93,14.5,15.449v8.717H37.167v2H62.5v-2H51V62.95
	c8.08-0.519,14.5-7.24,14.5-15.449v-1.886C70.362,45.112,74.167,40.993,74.167,36z M27.833,36c0-3.888,2.911-7.101,6.666-7.594
	v15.187C30.744,43.101,27.833,39.887,27.833,36z M63.5,47.5C63.5,54.945,57.444,61,50,61s-13.5-6.056-13.5-13.5V28.333h27V47.5z
	 M65.5,43.594V28.406c3.756,0.492,6.667,3.706,6.667,7.594C72.167,39.887,69.255,43.101,65.5,43.594z"/>
</svg>
