<?xml version="1.0" encoding="utf-8"?>
<!-- Generator: Adobe Illustrator 17.0.0, SVG Export Plug-In . SVG Version: 6.00 Build 0)  -->
<!DOCTYPE svg PUBLIC "-//W3C//DTD SVG 1.1//EN" "http://www.w3.org/Graphics/SVG/1.1/DTD/svg11.dtd">
<svg version="1.1" id="Layer_1" xmlns="http://www.w3.org/2000/svg" xmlns:xlink="http://www.w3.org/1999/xlink" x="0px" y="0px"
	 width="100px" height="100px" viewBox="0 0 100 100" enable-background="new 0 0 100 100" xml:space="preserve">
<path d="M67.924,18.407v2h5.737l-9.56,9.56C60.37,26.571,55.43,24.482,50,24.482c-3.432,0-6.666,0.844-9.529,2.31
	c-0.145,0.073-0.294,0.134-0.437,0.211c-0.177,0.096-0.343,0.209-0.517,0.31c-1.562,0.898-3.041,1.995-4.376,3.33
	c-1.411,1.411-2.561,2.981-3.485,4.644c-0.043,0.076-0.091,0.148-0.133,0.225c-0.247,0.458-0.464,0.927-0.675,1.399
	c-0.073,0.162-0.155,0.319-0.224,0.484c-0.17,0.408-0.311,0.823-0.454,1.239c-0.084,0.243-0.179,0.481-0.254,0.727
	c-0.112,0.368-0.196,0.741-0.287,1.114c-0.074,0.3-0.159,0.596-0.219,0.901c-0.074,0.375-0.119,0.754-0.173,1.133
	c-0.043,0.304-0.101,0.602-0.131,0.91c-0.062,0.632-0.091,1.266-0.096,1.901c0,0.055-0.008,0.108-0.008,0.163
	c0,0.002,0,0.003,0,0.005c0,0.698,0.037,1.395,0.106,2.09c0.019,0.188,0.056,0.369,0.08,0.556c0.064,0.505,0.131,1.01,0.231,1.51
	c0.034,0.167,0.083,0.328,0.12,0.493c0.117,0.518,0.242,1.034,0.398,1.544c0.026,0.084,0.059,0.164,0.086,0.247
	c0.986,3.078,2.681,5.976,5.119,8.414c2.437,2.437,5.334,4.132,8.41,5.118c0.085,0.027,0.166,0.061,0.251,0.088
	c0.508,0.156,1.023,0.28,1.54,0.397c0.167,0.038,0.329,0.087,0.497,0.121c0.5,0.1,1.004,0.167,1.508,0.231
	c0.187,0.024,0.369,0.061,0.557,0.08c0.364,0.036,0.73,0.042,1.095,0.059v9.555h-4.5v2H49v4.333h2V77.99h4.5v-2H51v-9.556
	c0.355-0.017,0.71-0.022,1.064-0.057c0.304-0.03,0.599-0.087,0.9-0.13c0.382-0.054,0.764-0.1,1.143-0.175
	c0.301-0.06,0.592-0.144,0.889-0.217c0.377-0.092,0.754-0.177,1.126-0.29c0.242-0.074,0.475-0.167,0.714-0.249
	c0.42-0.144,0.84-0.288,1.253-0.459c0.159-0.067,0.311-0.146,0.468-0.217c0.478-0.213,0.952-0.433,1.416-0.683
	c0.068-0.037,0.131-0.079,0.198-0.117c1.672-0.927,3.251-2.082,4.668-3.499c1.355-1.355,2.468-2.859,3.373-4.449
	c0.085-0.148,0.182-0.289,0.263-0.439c0.093-0.172,0.166-0.351,0.253-0.525C70.17,52.085,71,48.882,71,45.482
	c0-5.43-2.089-10.37-5.484-14.101l9.49-9.49v5.918h2v-9.402H67.924z M64.777,33.565c0.378,0.468,0.733,0.949,1.06,1.443
	c0.046,0.07,0.085,0.144,0.13,0.214c0.297,0.463,0.581,0.932,0.834,1.414c0.019,0.037,0.035,0.075,0.054,0.112
	c2.511,4.851,2.786,10.561,0.839,15.607c-0.044,0.113-0.08,0.231-0.126,0.343c-0.146,0.356-0.319,0.703-0.487,1.051
	c-0.111,0.228-0.211,0.462-0.33,0.685c-0.123,0.231-0.268,0.453-0.401,0.68c-0.19,0.321-0.372,0.646-0.58,0.954
	c-0.07,0.104-0.151,0.201-0.223,0.304c-1.656,2.357-3.827,4.325-6.357,5.729c-0.055,0.03-0.107,0.066-0.162,0.096
	c-0.423,0.229-0.862,0.431-1.303,0.629c-0.134,0.06-0.265,0.129-0.4,0.185c-0.38,0.159-0.772,0.292-1.164,0.427
	c-0.205,0.07-0.407,0.151-0.614,0.214c-0.349,0.107-0.707,0.188-1.064,0.274c-0.253,0.061-0.503,0.134-0.758,0.185
	c-0.365,0.073-0.74,0.119-1.112,0.17c-0.245,0.034-0.489,0.082-0.736,0.106c-0.617,0.061-1.242,0.095-1.875,0.095
	c-0.643,0-1.278-0.034-1.905-0.096c-0.131-0.013-0.261-0.041-0.392-0.056c-0.498-0.06-0.993-0.128-1.478-0.226
	c-0.122-0.024-0.242-0.062-0.363-0.089c-0.5-0.112-0.997-0.232-1.481-0.382c-0.049-0.015-0.098-0.036-0.147-0.051
	c-5.847-1.868-10.471-6.493-12.336-12.342c-0.014-0.046-0.033-0.09-0.047-0.136c-0.152-0.489-0.273-0.991-0.385-1.496
	c-0.026-0.117-0.061-0.232-0.085-0.349c-0.1-0.492-0.169-0.994-0.229-1.499c-0.015-0.124-0.041-0.247-0.054-0.372
	C31.034,46.761,31,46.126,31,45.482c0-0.633,0.034-1.258,0.095-1.875c0.024-0.244,0.071-0.485,0.105-0.727
	c0.052-0.375,0.098-0.752,0.171-1.12c0.051-0.254,0.123-0.504,0.184-0.756c0.087-0.357,0.168-0.717,0.275-1.066
	c0.063-0.207,0.144-0.409,0.214-0.614c0.135-0.391,0.268-0.784,0.427-1.163c0.057-0.137,0.127-0.268,0.187-0.404
	c0.197-0.44,0.398-0.877,0.626-1.299c0.032-0.058,0.07-0.114,0.102-0.172c1.399-2.517,3.355-4.677,5.697-6.329
	c0.113-0.079,0.22-0.169,0.334-0.245c0.3-0.202,0.617-0.38,0.929-0.565c0.235-0.139,0.466-0.289,0.706-0.416
	c0.215-0.115,0.441-0.211,0.66-0.319c0.357-0.172,0.712-0.35,1.076-0.499c0.104-0.043,0.212-0.075,0.317-0.116
	c5.054-1.958,10.779-1.684,15.639,0.835c0.033,0.017,0.068,0.031,0.1,0.048c0.485,0.255,0.958,0.54,1.423,0.84
	c0.067,0.043,0.139,0.081,0.205,0.125c0.497,0.329,0.98,0.685,1.451,1.066c0.021,0.017,0.044,0.032,0.065,0.049
	c0.495,0.404,0.975,0.836,1.436,1.297c0.461,0.461,0.893,0.94,1.297,1.435C64.741,33.515,64.758,33.541,64.777,33.565z"/>
</svg>
