<?xml version="1.0" encoding="utf-8"?>
<!-- Generator: Adobe Illustrator 17.0.0, SVG Export Plug-In . SVG Version: 6.00 Build 0)  -->
<!DOCTYPE svg PUBLIC "-//W3C//DTD SVG 1.1//EN" "http://www.w3.org/Graphics/SVG/1.1/DTD/svg11.dtd">
<svg version="1.1" id="Layer_1" xmlns="http://www.w3.org/2000/svg" xmlns:xlink="http://www.w3.org/1999/xlink" x="0px" y="0px"
	 width="100px" height="100px" viewBox="0 0 100 100" enable-background="new 0 0 100 100" xml:space="preserve">
<path d="M66.652,61.177h-2.536c-2.825-2.209-6.07-8.312-8.99-16.902c3.027-1.803,4.94-5.107,4.94-8.649
	c0-5.55-4.516-10.066-10.066-10.066c-5.55,0-10.066,4.516-10.066,10.066c0,3.541,1.912,6.845,4.938,8.648
	c-2.916,8.587-6.161,14.69-8.99,16.903h-2.534h-6.125v12.248h45.555V61.177H66.652z M41.934,35.626c0-4.448,3.618-8.066,8.066-8.066
	c4.448,0,8.066,3.618,8.066,8.066c0,3.007-1.731,5.792-4.416,7.167h-7.301C43.665,41.418,41.934,38.633,41.934,35.626z
	 M46.804,44.793h6.39c2.57,7.592,5.369,13.257,8.074,16.384H38.73C41.437,58.048,44.236,52.382,46.804,44.793z M70.778,71.425
	H29.223v-8.248h4.125h3.183h26.936h3.186h4.126V71.425z"/>
</svg>
