<?xml version="1.0" encoding="utf-8"?>
<!-- Generator: Adobe Illustrator 17.0.0, SVG Export Plug-In . SVG Version: 6.00 Build 0)  -->
<!DOCTYPE svg PUBLIC "-//W3C//DTD SVG 1.1//EN" "http://www.w3.org/Graphics/SVG/1.1/DTD/svg11.dtd">
<svg version="1.1" id="Layer_1" xmlns="http://www.w3.org/2000/svg" xmlns:xlink="http://www.w3.org/1999/xlink" x="0px" y="0px"
	 width="100px" height="100px" viewBox="0 0 100 100" enable-background="new 0 0 100 100" xml:space="preserve">
<path d="M95.583,53.022h-4.666v-9.673h-13v-9.464h-15v19.137H37.083V33.885h-15v9.464h-13v9.673H4.417v2h4.666v9.674h13v9.464h15
	V55.022h25.834V74.16h15v-9.464h13v-9.674h4.666V53.022z M11.083,62.696V45.349h11v17.347H11.083z M35.083,72.16h-11v-7.464V43.349
	v-7.464h11V72.16z M75.917,72.16h-11V35.885h11v7.464v21.347V72.16z M88.917,62.696h-11V45.349h11V62.696z"/>
</svg>
