<?xml version="1.0" encoding="utf-8"?>
<!-- Generator: Adobe Illustrator 17.0.0, SVG Export Plug-In . SVG Version: 6.00 Build 0)  -->
<!DOCTYPE svg PUBLIC "-//W3C//DTD SVG 1.1//EN" "http://www.w3.org/Graphics/SVG/1.1/DTD/svg11.dtd">
<svg version="1.1" id="Layer_1" xmlns="http://www.w3.org/2000/svg" xmlns:xlink="http://www.w3.org/1999/xlink" x="0px" y="0px"
	 width="100px" height="100px" viewBox="0 0 100 100" enable-background="new 0 0 100 100" xml:space="preserve">
<path d="M80.788,39.5c0-9.533-7.756-17.288-17.288-17.288c-1.825,0-3.583,0.289-5.236,0.816c-4.411-3.977-10.247-6.402-16.639-6.402
	c-13.716,0-24.875,11.159-24.875,24.875c0,10.243,6.225,19.058,15.09,22.866c-0.135,0.734-0.215,1.486-0.215,2.259
	c0,6.893,5.607,12.5,12.5,12.5c4.304,0,8.107-2.187,10.356-5.508c2.224,1.492,4.896,2.365,7.769,2.365
	c7.71,0,13.982-6.272,13.982-13.982c0-3.14-1.053-6.031-2.807-8.368C77.871,50.501,80.788,45.339,80.788,39.5z M78.788,39.5
	c0,5.231-2.644,9.854-6.663,12.611c-1.792-1.789-4.07-3.082-6.611-3.693C66.151,46.22,66.5,43.901,66.5,41.5
	c0-6.493-2.503-12.41-6.592-16.844c1.154-0.279,2.353-0.444,3.592-0.444C71.93,24.212,78.788,31.07,78.788,39.5z M54.625,66.625
	c0,1.385-0.276,2.704-0.765,3.916c-1.599-1.571-2.753-3.586-3.275-5.842c1.182-0.458,2.32-1.004,3.407-1.63
	C54.394,64.181,54.625,65.375,54.625,66.625z M50.301,62.661c-0.012-0.22-0.034-0.438-0.034-0.661c0-1.212,0.184-2.38,0.52-3.484
	c0.933,0.768,1.722,1.699,2.345,2.741C52.226,61.787,51.281,62.258,50.301,62.661z M48.337,63.368
	c-2.124,0.653-4.377,1.007-6.712,1.007c-2.587,0-5.073-0.438-7.394-1.233c1.441-4.08,5.326-7.017,9.894-7.017
	c1.788,0,3.472,0.452,4.948,1.243c-0.512,1.452-0.805,3.006-0.805,4.632C48.268,62.462,48.293,62.918,48.337,63.368z M51.566,56.604
	c0.546-1.077,1.246-2.061,2.077-2.921c1.643,1.146,3.496,2.002,5.485,2.523c-1.262,1.5-2.714,2.833-4.316,3.968
	C53.969,58.783,52.866,57.572,51.566,56.604z M64.5,41.5c0,2.288-0.342,4.497-0.97,6.582c-0.422-0.039-0.848-0.065-1.28-0.065
	c-3.291,0-6.315,1.15-8.706,3.06c-3.258-2.806-5.332-6.951-5.332-11.577c0-6.41,3.97-11.903,9.577-14.171
	C61.933,29.472,64.5,35.192,64.5,41.5z M55.209,52.326c1.979-1.445,4.409-2.308,7.041-2.308c0.198,0,0.391,0.02,0.587,0.03
	c-0.636,1.571-1.439,3.057-2.391,4.433C58.547,54.094,56.782,53.346,55.209,52.326z M64.88,50.318
	c2.065,0.465,3.925,1.466,5.436,2.847c-2.055,1.03-4.365,1.624-6.816,1.624c-0.282,0-0.557-0.027-0.836-0.042
	C63.543,53.356,64.288,51.875,64.88,50.318z M18.75,41.5c0-12.613,10.262-22.875,22.875-22.875c5.522,0,10.594,1.967,14.551,5.238
	c-5.876,2.764-9.964,8.725-9.964,15.637c0,5.151,2.277,9.77,5.863,12.94c-0.869,0.924-1.616,1.96-2.21,3.093
	c-1.721-0.894-3.67-1.408-5.74-1.408c-5.413,0-10.019,3.464-11.754,8.287C24.356,58.852,18.75,50.82,18.75,41.5z M44.125,77.125
	c-5.79,0-10.5-4.71-10.5-10.5c0-0.523,0.051-1.033,0.125-1.535c2.477,0.829,5.123,1.285,7.875,1.285
	c2.454,0,4.823-0.363,7.064-1.028c0.68,2.752,2.173,5.181,4.214,7.023C51.026,75.23,47.794,77.125,44.125,77.125z M74.232,62
	c0,6.607-5.375,11.982-11.982,11.982c-2.52,0-4.858-0.786-6.79-2.12c0.74-1.595,1.165-3.366,1.165-5.237
	c0-1.642-0.326-3.207-0.904-4.645c2.141-1.478,4.038-3.283,5.623-5.342c0.708,0.089,1.425,0.149,2.157,0.149
	c2.978,0,5.782-0.757,8.231-2.088C73.293,56.724,74.232,59.251,74.232,62z"/>
</svg>
