<?xml version="1.0" encoding="utf-8"?>
<!-- Generator: Adobe Illustrator 17.0.0, SVG Export Plug-In . SVG Version: 6.00 Build 0)  -->
<!DOCTYPE svg PUBLIC "-//W3C//DTD SVG 1.1//EN" "http://www.w3.org/Graphics/SVG/1.1/DTD/svg11.dtd">
<svg version="1.1" id="Layer_1" xmlns="http://www.w3.org/2000/svg" xmlns:xlink="http://www.w3.org/1999/xlink" x="0px" y="0px"
	 width="100px" height="100px" viewBox="0 0 100 100" enable-background="new 0 0 100 100" xml:space="preserve">
<g>
	<path d="M58.75,84.875h-15v-47.43l-10-14v-8.32h36v8.346l-11,14V84.875z M45.75,82.875h11V36.779l11-14v-5.654h-32v5.68l10,14
		V82.875z"/>
</g>
<g>
	<path d="M51.75,48.5c-2.206,0-4-1.794-4-4s1.794-4,4-4c2.206,0,4,1.794,4,4S53.956,48.5,51.75,48.5z M51.75,42.5
		c-1.103,0-2,0.897-2,2s0.897,2,2,2s2-0.897,2-2S52.853,42.5,51.75,42.5z"/>
</g>
</svg>
