<?xml version="1.0" encoding="utf-8"?>
<!-- Generator: Adobe Illustrator 17.0.0, SVG Export Plug-In . SVG Version: 6.00 Build 0)  -->
<!DOCTYPE svg PUBLIC "-//W3C//DTD SVG 1.1//EN" "http://www.w3.org/Graphics/SVG/1.1/DTD/svg11.dtd">
<svg version="1.1" id="Layer_1" xmlns="http://www.w3.org/2000/svg" xmlns:xlink="http://www.w3.org/1999/xlink" x="0px" y="0px"
	 width="100px" height="100px" viewBox="0 0 100 100" enable-background="new 0 0 100 100" xml:space="preserve">
<g>
	<g>
		<g>
			<path d="M25.916,66.35c-6.466,0-11.727-5.26-11.727-11.726s5.261-11.726,11.727-11.726s11.727,5.26,11.727,11.726
				S32.382,66.35,25.916,66.35z M25.916,44.898c-5.363,0-9.727,4.363-9.727,9.726c0,5.362,4.364,9.726,9.727,9.726
				s9.727-4.363,9.727-9.726C35.643,49.261,31.279,44.898,25.916,44.898z"/>
		</g>
	</g>
	<g>
		<g>
			<path d="M50.065,66.35c-6.466,0-11.726-5.26-11.726-11.726s5.26-11.726,11.726-11.726c6.465,0,11.726,5.26,11.726,11.726
				S56.53,66.35,50.065,66.35z M50.065,44.898c-5.363,0-9.726,4.363-9.726,9.726c0,5.362,4.363,9.726,9.726,9.726
				s9.726-4.363,9.726-9.726C59.791,49.261,55.428,44.898,50.065,44.898z"/>
		</g>
	</g>
	<g>
		<g>
			<path d="M75.513,66.35c-6.467,0-11.728-5.26-11.728-11.726s5.261-11.726,11.728-11.726c6.466,0,11.727,5.26,11.727,11.726
				C87.238,61.09,81.978,66.35,75.513,66.35z M75.513,44.898c-5.364,0-9.728,4.363-9.728,9.726c0,5.362,4.363,9.726,9.728,9.726
				c5.362,0,9.726-4.363,9.727-9.726C85.239,49.261,80.876,44.898,75.513,44.898z"/>
		</g>
	</g>
</g>
</svg>
