<?xml version="1.0" encoding="utf-8"?>
<!-- Generator: Adobe Illustrator 16.0.0, SVG Export Plug-In . SVG Version: 6.00 Build 0)  -->
<!DOCTYPE svg PUBLIC "-//W3C//DTD SVG 1.1//EN" "http://www.w3.org/Graphics/SVG/1.1/DTD/svg11.dtd">
<svg version="1.1" id="Layer_1" xmlns="http://www.w3.org/2000/svg" xmlns:xlink="http://www.w3.org/1999/xlink" x="0px" y="0px"
	 width="100px" height="100px" viewBox="0 0 100 100" enable-background="new 0 0 100 100" xml:space="preserve">
<g>
	<path d="M57.589,50c0,2.026-0.79,3.933-2.224,5.366c-1.433,1.433-3.339,2.222-5.366,2.222s-3.933-0.789-5.366-2.223
		C43.199,53.933,42.41,52.026,42.41,50c0-2.028,0.79-3.934,2.223-5.366c1.433-1.434,3.339-2.224,5.366-2.224
		c2.028,0,3.934,0.79,5.366,2.224C56.799,46.066,57.589,47.972,57.589,50z M44.41,50c0,1.492,0.582,2.896,1.637,3.951
		s2.459,1.637,3.952,1.637s2.896-0.581,3.952-1.637s1.638-2.459,1.638-3.951c0-1.493-0.582-2.896-1.638-3.952
		s-2.459-1.638-3.952-1.638s-2.896,0.582-3.952,1.638C44.991,47.104,44.41,48.507,44.41,50z"/>
</g>
<g>
	<path d="M60.025,39.974l-1.414,1.414c-2.3-2.3-5.358-3.566-8.612-3.566c-3.253,0-6.311,1.267-8.611,3.566l-1.414-1.414
		c2.678-2.678,6.238-4.152,10.025-4.152C53.788,35.821,57.348,37.296,60.025,39.974z"/>
</g>
<g>
	<path d="M69.343,30.656l-1.414,1.414c-4.789-4.789-11.156-7.426-17.93-7.426c-6.773,0-13.14,2.637-17.929,7.426l-1.414-1.414
		c5.166-5.167,12.035-8.012,19.343-8.012S64.177,25.489,69.343,30.656z"/>
</g>
<g>
	<path d="M64.685,35.314l-1.414,1.414c-7.317-7.315-19.225-7.315-26.542,0l-1.414-1.414C43.412,27.219,56.587,27.219,64.685,35.314z
		"/>
</g>
<text transform="matrix(1 0 0 1 400 300)" font-family="'MyriadPro-Regular'" font-size="12">100%</text>
<text transform="matrix(1 0 0 1 400 300)" font-family="'MyriadPro-Regular'" font-size="12">100%</text>
</svg>
