<?xml version="1.0" encoding="utf-8"?>
<!-- Generator: Adobe Illustrator 17.0.0, SVG Export Plug-In . SVG Version: 6.00 Build 0)  -->
<!DOCTYPE svg PUBLIC "-//W3C//DTD SVG 1.1//EN" "http://www.w3.org/Graphics/SVG/1.1/DTD/svg11.dtd">
<svg version="1.1" id="Layer_1" xmlns="http://www.w3.org/2000/svg" xmlns:xlink="http://www.w3.org/1999/xlink" x="0px" y="0px"
	 width="100px" height="100px" viewBox="0 0 100 100" enable-background="new 0 0 100 100" xml:space="preserve">
<path d="M88.993,22.471l0.02-0.051c0.031-0.079,0.045-0.153,0.045-0.226c0-0.07-0.016-0.148-0.051-0.239l-0.008-0.024
	c-0.059-0.119-0.154-0.218-0.272-0.278l-0.053-0.021c-0.08-0.031-0.156-0.047-0.225-0.047H71.937c-0.068,0-0.143,0.016-0.223,0.047
	l-0.043,0.016c-0.061,0.029-0.115,0.067-0.166,0.119L60.828,32.441L42.404,14.018c-0.047-0.047-0.101-0.085-0.161-0.115
	l-0.092-0.026l-0.031-0.019c-0.051-0.014-0.102-0.021-0.151-0.021H15.672c-0.051,0-0.103,0.007-0.157,0.023l-0.038,0.022
	l-0.079,0.022c-0.113,0.057-0.207,0.15-0.265,0.262l-0.024,0.09l-0.024,0.041c-0.014,0.051-0.021,0.102-0.021,0.151
	c0,0.072,0.016,0.146,0.052,0.24l0.007,0.019c0.03,0.065,0.07,0.122,0.121,0.173l26.118,26.119v10.602L30.38,62.583l-0.713,0.667
	l0.176,21.734c0,0.038,0.011,0.094,0.032,0.17l0.087,0.303l-0.072,0.308c-0.024,0.108-0.062,0.377,0.131,0.569
	c0.155,0.155,0.338,0.178,0.433,0.178c0.095,0,0.278-0.023,0.433-0.178L72.37,44.845c0.043-0.042,0.081-0.096,0.122-0.179
	l0.012-0.032c0.029-0.072,0.043-0.145,0.043-0.219V38.96l16.33-16.329C88.925,22.583,88.963,22.53,88.993,22.471z M41.357,39.271
	l-24.21-24.211h24.21V39.271z M31.063,84.424V64.852l9.786,9.785L31.063,84.424z M41.357,73.416L31.316,63.375l10.041-10.044V73.416
	z M42.58,72.907V15.925l28.49,28.491L42.58,72.907z M71.324,42.941l-9.634-9.636l9.634-9.635V42.941z M72.547,37.231V22.806h14.426
	L72.547,37.231z"/>
</svg>
