<?xml version="1.0" encoding="utf-8"?>
<!-- Generator: Adobe Illustrator 17.0.0, SVG Export Plug-In . SVG Version: 6.00 Build 0)  -->
<!DOCTYPE svg PUBLIC "-//W3C//DTD SVG 1.1//EN" "http://www.w3.org/Graphics/SVG/1.1/DTD/svg11.dtd">
<svg version="1.1" id="Layer_1" xmlns="http://www.w3.org/2000/svg" xmlns:xlink="http://www.w3.org/1999/xlink" x="0px" y="0px"
	 width="100px" height="100px" viewBox="0 0 100 100" enable-background="new 0 0 100 100" xml:space="preserve">
<path d="M29.69,11.917v76.167h40.33V11.917H29.69z M31.69,86.083V13.917h36.33V19.5H44.5v2h23.52v2H50v2h18.02v2H50v2h18.02v2H50v2
	h18.02v2H50v2h18.02v2H44.5v2h23.52v2H50v2h18.02v2H50v2h18.02v2H50v2h18.02v2H50v2h18.02v2H44.5v2h23.52v2H50v2h18.02v2H50v2h18.02
	v2H50v2h18.02v2H50v2h18.02v2H44.5v2h23.52v4.583H31.69z"/>
</svg>
