<?xml version="1.0" encoding="utf-8"?>
<!-- Generator: Adobe Illustrator 17.0.0, SVG Export Plug-In . SVG Version: 6.00 Build 0)  -->
<!DOCTYPE svg PUBLIC "-//W3C//DTD SVG 1.1//EN" "http://www.w3.org/Graphics/SVG/1.1/DTD/svg11.dtd">
<svg version="1.1" id="Layer_1" xmlns="http://www.w3.org/2000/svg" xmlns:xlink="http://www.w3.org/1999/xlink" x="0px" y="0px"
	 width="100px" height="100px" viewBox="0 0 100 100" enable-background="new 0 0 100 100" xml:space="preserve">
<path d="M57.219,60.167c5.327-3.447,8.868-9.429,8.868-16.233c0-0.553-0.447-1-1-1s-1,0.447-1,1c0,5.979-3.043,11.26-7.662,14.378
	l-2.037-4.762c2.96-1.654,4.968-4.816,4.968-8.441c0-4.992-3.804-9.112-8.666-9.615V28.61c0-0.552-0.447-1-1-1s-1,0.448-1,1v6.885
	c-4.862,0.502-8.667,4.622-8.667,9.615c0,3.42,1.79,6.423,4.478,8.142L32.629,76.996c-0.247,0.494-0.047,1.095,0.447,1.342
	c0.144,0.071,0.296,0.105,0.446,0.105c0.367,0,0.72-0.202,0.896-0.553l11.872-23.744c1.06,0.4,2.203,0.629,3.401,0.629
	c0.996,0,1.958-0.152,2.863-0.433l2.133,4.986c-2.38,1.231-5.073,1.939-7.932,1.939c-0.553,0-1,0.447-1,1s0.447,1,1,1
	c3.138,0,6.095-0.768,8.718-2.101l7.131,16.669c0.162,0.379,0.531,0.606,0.919,0.606c0.132,0,0.265-0.025,0.394-0.081
	c0.508-0.217,0.743-0.805,0.525-1.312L57.219,60.167z M42.023,45.109c0-4.228,3.439-7.667,7.667-7.667s7.666,3.439,7.666,7.667
	c0,2.8-1.514,5.248-3.761,6.586l-2.986-6.98c-0.018-0.043-0.052-0.071-0.076-0.11c-0.037-0.063-0.072-0.124-0.123-0.178
	c-0.049-0.052-0.106-0.088-0.164-0.128c-0.039-0.027-0.066-0.064-0.11-0.086c-0.013-0.006-0.026-0.005-0.039-0.01
	c-0.07-0.032-0.143-0.044-0.218-0.059c-0.053-0.01-0.104-0.028-0.157-0.03c-0.064-0.002-0.127,0.014-0.191,0.025
	c-0.067,0.011-0.132,0.017-0.195,0.041c-0.013,0.005-0.027,0.003-0.041,0.009c-0.044,0.019-0.074,0.055-0.115,0.079
	c-0.06,0.036-0.12,0.069-0.172,0.118c-0.052,0.049-0.089,0.107-0.129,0.165c-0.027,0.039-0.064,0.066-0.086,0.109l-3.398,6.796
	C43.363,50.078,42.023,47.747,42.023,45.109z M49.69,52.776c-0.877,0-1.716-0.155-2.502-0.427l2.431-4.862l2.138,4.999
	C51.099,52.67,50.407,52.776,49.69,52.776z"/>
</svg>
