<?xml version="1.0" encoding="utf-8"?>
<!-- Generator: Adobe Illustrator 17.0.0, SVG Export Plug-In . SVG Version: 6.00 Build 0)  -->
<!DOCTYPE svg PUBLIC "-//W3C//DTD SVG 1.1//EN" "http://www.w3.org/Graphics/SVG/1.1/DTD/svg11.dtd">
<svg version="1.1" id="Layer_1" xmlns="http://www.w3.org/2000/svg" xmlns:xlink="http://www.w3.org/1999/xlink" x="0px" y="0px"
	 width="100px" height="100px" viewBox="0 0 100 100" enable-background="new 0 0 100 100" xml:space="preserve">
<g>
	<path d="M51.985,78.039c-9.506,0-18.012-5.244-21.708-13.213c-0.989,0.71-2.4,0.852-3.55,0.273c-0.82-0.413-1.431-1.12-1.719-1.992
		c-0.289-0.873-0.22-1.805,0.193-2.625l4.375-8.695l8.695,4.379c0.82,0.413,1.43,1.121,1.718,1.993s0.219,1.804-0.194,2.624
		c-0.566,1.123-1.678,1.837-2.926,1.889c2.221,4.115,6.521,7.16,11.576,8.137V47.582h-2.734c-1.896,0-3.438-1.542-3.438-3.438
		c0-1.896,1.542-3.439,3.438-3.439h2.734v-0.863c-4.047-1.445-6.812-5.307-6.812-9.646c0-5.652,4.598-10.25,10.25-10.25
		s10.249,4.598,10.249,10.25c0,4.34-2.765,8.203-6.812,9.646v0.863h2.933c1.896,0,3.438,1.542,3.438,3.439
		c0,1.896-1.543,3.438-3.438,3.438h-2.933v23.267c5.165-0.935,9.535-3.994,11.784-8.18c-1.36,0.078-2.629-0.67-3.242-1.887
		c-0.853-1.693-0.169-3.765,1.523-4.617l8.695-4.379l4.376,8.696c0.851,1.692,0.168,3.764-1.523,4.616
		c-1.028,0.523-2.342,0.463-3.315-0.133C69.887,72.844,61.386,78.039,51.985,78.039z M30.706,60.399l0.795,2.159
		c2.968,8.063,11.2,13.48,20.485,13.48c9.12,0,17.303-5.295,20.363-13.176l0.762-1.961l1.04,1.829
		c0.373,0.656,1.243,0.91,1.882,0.583c0.71-0.358,0.996-1.225,0.64-1.934l-3.476-6.909l-6.908,3.48
		c-0.708,0.356-0.994,1.223-0.638,1.931c0.346,0.688,1.232,0.986,1.932,0.637l3.109-1.562l-0.8,2.321
		c-2.156,6.263-8.222,10.864-15.451,11.724l-1.118,0.133V45.582h4.933c0.793,0,1.438-0.645,1.438-1.438
		c0-0.793-0.646-1.439-1.438-1.439h-4.933v-4.358l0.735-0.202c3.578-0.98,6.076-4.249,6.076-7.949c0-4.549-3.7-8.25-8.249-8.25
		s-8.25,3.701-8.25,8.25c0,3.699,2.499,6.968,6.077,7.949l0.735,0.202v4.358h-4.734c-0.793,0-1.438,0.646-1.438,1.439
		c0,0.792,0.645,1.438,1.438,1.438h4.734V73.12l-1.128-0.146c-7.025-0.909-12.978-5.419-15.164-11.489l-0.848-2.354l2.771,1.39
		c0.701,0.349,1.586,0.051,1.933-0.638c0.173-0.343,0.202-0.732,0.081-1.097s-0.376-0.661-0.719-0.833l-6.908-3.48l-3.476,6.909
		c-0.173,0.344-0.202,0.732-0.081,1.098s0.375,0.661,0.718,0.833c0.698,0.353,1.585,0.052,1.931-0.637L30.706,60.399z
		 M51.885,35.569c-2.963,0-5.374-2.41-5.374-5.373s2.411-5.374,5.374-5.374s5.374,2.411,5.374,5.374S54.848,35.569,51.885,35.569z
		 M51.885,26.822c-1.86,0-3.374,1.513-3.374,3.374c0,1.86,1.513,3.373,3.374,3.373s3.374-1.513,3.374-3.373
		C55.259,28.335,53.745,26.822,51.885,26.822z"/>
</g>
</svg>
