<?xml version="1.0" encoding="utf-8"?>
<!-- Generator: Adobe Illustrator 17.0.0, SVG Export Plug-In . SVG Version: 6.00 Build 0)  -->
<!DOCTYPE svg PUBLIC "-//W3C//DTD SVG 1.1//EN" "http://www.w3.org/Graphics/SVG/1.1/DTD/svg11.dtd">
<svg version="1.1" id="Layer_1" xmlns="http://www.w3.org/2000/svg" xmlns:xlink="http://www.w3.org/1999/xlink" x="0px" y="0px"
	 width="100px" height="100px" viewBox="0 0 100 100" enable-background="new 0 0 100 100" xml:space="preserve">
<g>
	<path d="M77.982,76.556H25.625V23.725h52.357V76.556z M27.625,74.556h48.357V25.725H27.625V74.556z"/>
</g>
<g>
	<path d="M73.225,38.727H30.881v-9.759h42.344V38.727z M32.881,36.727h38.344v-5.759H32.881V36.727z"/>
</g>
<g>
	<path d="M40.64,49.589h-9.759V39.83h9.759V49.589z M32.881,47.589h5.759V41.83h-5.759V47.589z"/>
</g>
<g>
	<path d="M40.64,60.449h-9.759V50.69h9.759V60.449z M32.881,58.449h5.759V52.69h-5.759V58.449z"/>
</g>
<g>
	<path d="M40.64,71.312h-9.759v-9.759h9.759V71.312z M32.881,69.312h5.759v-5.759h-5.759V69.312z"/>
</g>
<g>
	<path d="M51.501,49.587h-9.759v-9.759h9.759V49.587z M43.742,47.587h5.759v-5.759h-5.759V47.587z"/>
</g>
<g>
	<path d="M51.501,60.447h-9.759v-9.759h9.759V60.447z M43.742,58.447h5.759v-5.759h-5.759V58.447z"/>
</g>
<g>
	<path d="M51.501,71.311h-9.759v-9.759h9.759V71.311z M43.742,69.311h5.759v-5.759h-5.759V69.311z"/>
</g>
<g>
	<path d="M62.362,49.585h-9.76v-9.759h9.76V49.585z M54.603,47.585h5.76v-5.759h-5.76V47.585z"/>
</g>
<g>
	<path d="M62.362,60.445h-9.76v-9.759h9.76V60.445z M54.603,58.445h5.76v-5.759h-5.76V58.445z"/>
</g>
<g>
	<path d="M62.362,71.309h-9.76V61.55h9.76V71.309z M54.603,69.309h5.76V63.55h-5.76V69.309z"/>
</g>
<g>
	<path d="M73.225,49.584h-9.759v-9.759h9.759V49.584z M65.466,47.584h5.759v-5.759h-5.759V47.584z"/>
</g>
<g>
	<path d="M73.225,71.308h-9.759V50.687h9.759V71.308z M65.466,69.308h5.759V52.687h-5.759V69.308z"/>
</g>
</svg>
