<?xml version="1.0" encoding="utf-8"?>
<!-- Generator: Adobe Illustrator 17.0.0, SVG Export Plug-In . SVG Version: 6.00 Build 0)  -->
<!DOCTYPE svg PUBLIC "-//W3C//DTD SVG 1.1//EN" "http://www.w3.org/Graphics/SVG/1.1/DTD/svg11.dtd">
<svg version="1.1" id="Layer_1" xmlns="http://www.w3.org/2000/svg" xmlns:xlink="http://www.w3.org/1999/xlink" x="0px" y="0px"
	 width="100px" height="100px" viewBox="0 0 100 100" enable-background="new 0 0 100 100" xml:space="preserve">
<path d="M75.331,70.179L64.229,43.116v-6.729h0.816c0.312,0,0.628-0.034,0.963-0.103l1.005-0.036v-0.293
	c1.744-0.77,2.906-2.5,2.906-4.444v-3.632c0-2.688-2.187-4.875-4.875-4.875H35.743c-2.688,0-4.874,2.187-4.874,4.875v3.632
	c0,1.945,1.162,3.676,2.905,4.445v0.329h1.007c0.334,0.069,0.65,0.103,0.961,0.103h0.816v6.729l-11.317,27.59
	c-0.62,1.506-0.449,3.213,0.458,4.565c0.907,1.354,2.421,2.162,4.05,2.162h41.514l0.101-0.008c2.574-0.149,4.59-2.286,4.59-4.865
	C75.953,71.726,75.738,70.903,75.331,70.179z M35.742,34.386c-0.156,0-0.319-0.016-0.496-0.05l-0.221-0.057
	c-1.27-0.33-2.156-1.469-2.156-2.77v-3.632c0-1.585,1.289-2.875,2.874-2.875h29.301c1.585,0,2.875,1.29,2.875,2.875v3.632
	c0,1.3-0.888,2.438-2.158,2.77l-0.122,0.038c-0.215,0.047-0.409,0.069-0.594,0.069h-1.816h-1h-23.67h-1H35.742z M71.22,75.434
	H29.749c-0.96,0-1.854-0.477-2.389-1.275c-0.534-0.797-0.635-1.803-0.269-2.691L38.558,43.51v-7.124h23.67v7.124l11.277,27.488
	l0.061,0.123c0.253,0.435,0.387,0.933,0.387,1.439C73.953,74.065,72.789,75.315,71.22,75.434z"/>
</svg>
