<?xml version="1.0" encoding="utf-8"?>
<!-- Generator: Adobe Illustrator 17.0.0, SVG Export Plug-In . SVG Version: 6.00 Build 0)  -->
<!DOCTYPE svg PUBLIC "-//W3C//DTD SVG 1.1//EN" "http://www.w3.org/Graphics/SVG/1.1/DTD/svg11.dtd">
<svg version="1.1" id="Layer_1" xmlns="http://www.w3.org/2000/svg" xmlns:xlink="http://www.w3.org/1999/xlink" x="0px" y="0px"
	 width="100px" height="100px" viewBox="0 0 100 100" enable-background="new 0 0 100 100" xml:space="preserve">
<g>
	<path d="M33.332,27.609v15.479v2v13.479v2v15.479h36.513V60.567v-2V45.088v-2V27.609H33.332z M67.845,74.046H35.332V60.567h32.513
		V74.046z M67.845,58.567H35.332V45.088h32.513V58.567z M35.332,43.088V29.609h32.513v13.479H35.332z"/>
	<polygon points="58.005,37.432 45.172,37.432 45.172,34.265 43.172,34.265 43.172,39.432 60.005,39.432 60.005,34.265 
		58.005,34.265 	"/>
	<polygon points="60.005,49.744 58.005,49.744 58.005,52.911 45.172,52.911 45.172,49.744 43.172,49.744 43.172,54.911 
		60.005,54.911 	"/>
	<polygon points="60.005,65.224 58.005,65.224 58.005,68.39 45.172,68.39 45.172,65.224 43.172,65.224 43.172,70.39 60.005,70.39 	
		"/>
</g>
</svg>
