<?xml version="1.0" encoding="utf-8"?>
<!-- Generator: Adobe Illustrator 17.0.0, SVG Export Plug-In . SVG Version: 6.00 Build 0)  -->
<!DOCTYPE svg PUBLIC "-//W3C//DTD SVG 1.1//EN" "http://www.w3.org/Graphics/SVG/1.1/DTD/svg11.dtd">
<svg version="1.1" id="Layer_1" xmlns="http://www.w3.org/2000/svg" xmlns:xlink="http://www.w3.org/1999/xlink" x="0px" y="0px"
	 width="100px" height="100px" viewBox="0 0 100 100" enable-background="new 0 0 100 100" xml:space="preserve">
<path d="M79.711,59.238h-4.933v-6.557h3.732l-0.176-1.151c-1.605-10.514-13.105-18.442-26.751-18.442S26.438,41.017,24.831,51.53
	l-0.109,1.151h2.502v6.557h-4.933v9.572l0.097,1h2.337v5.866h52.55v-5.866h2.436V59.238z M51.584,35.088
	c12.151,0,22.448,6.625,24.552,15.594H27.031C29.135,41.713,39.432,35.088,51.584,35.088z M29.224,58.5v-5.23h43.554v5.23H29.224z
	 M75.275,73.677h-48.55V70.36h48.55V73.677z M77.711,67.811h-53.42v-6.572h53.42V67.811z"/>
</svg>
