<?xml version="1.0" encoding="utf-8"?>
<!-- Generator: Adobe Illustrator 17.0.0, SVG Export Plug-In . SVG Version: 6.00 Build 0)  -->
<!DOCTYPE svg PUBLIC "-//W3C//DTD SVG 1.1//EN" "http://www.w3.org/Graphics/SVG/1.1/DTD/svg11.dtd">
<svg version="1.1" id="Layer_1" xmlns="http://www.w3.org/2000/svg" xmlns:xlink="http://www.w3.org/1999/xlink" x="0px" y="0px"
	 width="100px" height="100px" viewBox="0 0 100 100" enable-background="new 0 0 100 100" xml:space="preserve">
<g>
	<path d="M66.38,76.194H49.438l1.843-4.204c0.266-0.604,0.399-1.247,0.399-1.913c0-2.642-2.149-4.791-4.791-4.791
		s-4.791,2.149-4.791,4.791c0,0.666,0.134,1.31,0.398,1.914l1.84,4.202H27.399v-38.98h15.49c0.03-0.044,0.047-0.092,0.047-0.13
		c0-0.006,0-0.012-0.001-0.018c-0.146-0.124-0.261-0.223-0.415-0.374c-1.132-1.165-1.746-2.675-1.746-4.27
		c0-3.372,2.744-6.116,6.116-6.116c3.372,0,6.116,2.744,6.116,6.116c0,1.597-0.614,3.107-1.729,4.252l-0.383,0.339
		c-0.014,0.033-0.019,0.057-0.019,0.069c0,0.044,0.017,0.089,0.045,0.13H66.38v15.477c0.043,0.024,0.097,0.042,0.151,0.042
		c0.093-0.099,0.207-0.234,0.372-0.4c1.165-1.13,2.675-1.744,4.267-1.744c3.372,0,6.116,2.744,6.116,6.116s-2.744,6.116-6.116,6.116
		c-1.594,0-3.104-0.614-4.254-1.731l-0.337-0.369c-0.063-0.011-0.144,0.006-0.199,0.034V76.194z M52.499,74.194H64.38V60.5
		c0-0.238,0.063-0.473,0.183-0.676c0.603-1.041,2.14-1.431,3.181-0.751l0.198,0.17l0.37,0.412c0.772,0.75,1.788,1.164,2.858,1.164
		c2.27,0,4.116-1.847,4.116-4.116s-1.847-4.116-4.116-4.116c-1.069,0-2.085,0.414-2.86,1.166c-0.089,0.09-0.158,0.175-0.227,0.26
		c-0.127,0.16-0.298,0.322-0.438,0.416c-1.237,0.688-2.502,0.184-3.084-0.817c-0.12-0.209-0.181-0.438-0.181-0.672V39.213H50.687
		c-0.234,0-0.465-0.062-0.667-0.178c-0.706-0.408-1.144-1.156-1.144-1.952c0-0.426,0.133-0.853,0.385-1.237l0.276-0.305l0.273-0.229
		c0.794-0.833,1.195-1.833,1.195-2.891c0-2.27-1.846-4.116-4.116-4.116s-4.116,1.846-4.116,4.116c0,1.071,0.414,2.086,1.164,2.859
		c0.09,0.088,0.167,0.152,0.243,0.212c0.17,0.137,0.338,0.313,0.433,0.454c0.229,0.411,0.322,0.774,0.322,1.136
		c0,0.793-0.435,1.539-1.136,1.947c-0.206,0.12-0.439,0.183-0.675,0.183H29.399v34.98h11.879l-0.613-1.4
		c-0.375-0.859-0.566-1.772-0.566-2.716c0-3.744,3.046-6.791,6.791-6.791s6.791,3.047,6.791,6.791c0,0.945-0.191,1.858-0.567,2.717
		L52.499,74.194z"/>
</g>
</svg>
