<?xml version="1.0" encoding="utf-8"?>
<!-- Generator: Adobe Illustrator 17.0.0, SVG Export Plug-In . SVG Version: 6.00 Build 0)  -->
<!DOCTYPE svg PUBLIC "-//W3C//DTD SVG 1.1//EN" "http://www.w3.org/Graphics/SVG/1.1/DTD/svg11.dtd">
<svg version="1.1" id="Layer_1" xmlns="http://www.w3.org/2000/svg" xmlns:xlink="http://www.w3.org/1999/xlink" x="0px" y="0px"
	 width="100px" height="100px" viewBox="0 0 100 100" enable-background="new 0 0 100 100" xml:space="preserve">
<polygon points="40.797,57.896 42.211,59.31 50.249,51.272 42.071,43.094 40.657,44.508 46.417,50.268 14.171,50.204 14.171,52.204 
	46.426,52.267 "/>
<polygon points="62.869,44.508 61.455,43.094 53.417,51.132 61.595,59.31 63.009,57.896 57.25,52.136 89.495,52.199 89.495,50.199 
	57.24,50.137 "/>
<polygon points="58.527,62.238 59.941,60.824 51.903,52.786 43.725,60.964 45.139,62.378 50.899,56.619 50.836,88.864 
	52.836,88.864 52.898,56.609 "/>
<polygon points="45.139,40.166 43.725,41.58 51.763,49.618 59.941,41.44 58.527,40.026 52.767,45.785 52.831,13.54 50.831,13.54 
	50.768,45.795 "/>
</svg>
