<?xml version="1.0" encoding="utf-8"?>
<!-- Generator: Adobe Illustrator 17.0.0, SVG Export Plug-In . SVG Version: 6.00 Build 0)  -->
<!DOCTYPE svg PUBLIC "-//W3C//DTD SVG 1.1//EN" "http://www.w3.org/Graphics/SVG/1.1/DTD/svg11.dtd">
<svg version="1.1" id="Layer_1" xmlns="http://www.w3.org/2000/svg" xmlns:xlink="http://www.w3.org/1999/xlink" x="0px" y="0px"
	 width="100px" height="100px" viewBox="0 0 100 100" enable-background="new 0 0 100 100" xml:space="preserve">
<g>
	<path d="M72.266,81.48H28.067c-1.531,0-2.777-1.246-2.777-2.777s1.246-2.777,2.777-2.777h11.435
		c-5.02-3.456-8.102-9.17-8.102-15.436V44.498c0-1.531,1.245-2.777,2.776-2.777h5.871V30.062c0-1.531,1.246-2.777,2.777-2.777
		c1.531,0,2.776,1.246,2.776,2.777v11.659h1.791V30.062c0-1.531,1.246-2.777,2.777-2.777s2.776,1.246,2.776,2.777v11.659h1.539
		V30.062c0-1.531,1.245-2.777,2.775-2.777c1.531,0,2.777,1.246,2.777,2.777v11.659h6.123c1.53,0,2.775,1.246,2.775,2.777v0.303
		c4.552,1.241,7.775,5.392,7.775,10.168c0,4.973-3.566,9.28-8.402,10.289c-1.147,4.363-3.826,8.137-7.484,10.667h11.442
		c1.531,0,2.777,1.246,2.777,2.777S73.797,81.48,72.266,81.48z M28.067,77.926c-0.428,0-0.777,0.349-0.777,0.777
		s0.349,0.777,0.777,0.777h44.199c0.429,0,0.777-0.349,0.777-0.777s-0.349-0.777-0.777-0.777H51.831l4.687-1.925
		c5.062-2.079,8.799-6.503,9.998-11.834l0.151-0.674l0.685-0.097c4.195-0.593,7.358-4.215,7.358-8.427
		c0-4.098-2.928-7.626-6.962-8.391l-0.813-0.154v-1.926c0-0.428-0.348-0.777-0.775-0.777h-8.123V30.062
		c0-0.428-0.349-0.777-0.777-0.777c-0.428,0-0.775,0.349-0.775,0.777v13.659h-5.539V30.062c0-0.428-0.349-0.777-0.776-0.777
		c-0.428,0-0.777,0.349-0.777,0.777v13.659H43.6V30.062c0-0.428-0.348-0.777-0.776-0.777c-0.429,0-0.777,0.349-0.777,0.777v13.659
		h-7.871c-0.428,0-0.776,0.349-0.776,0.777V60.49c0,6.821,4.089,12.909,10.418,15.511l4.683,1.925H28.067z M66.903,62.036
		l0.029-1.519l0.002-12.608l1.299,0.406c2.945,0.921,4.924,3.596,4.924,6.654c0,3.063-1.983,5.738-4.935,6.656L66.903,62.036z
		 M68.935,50.841v8.257c1.369-0.906,2.223-2.434,2.223-4.128C71.157,53.276,70.303,51.747,68.935,50.841z"/>
</g>
</svg>
