<?xml version="1.0" encoding="utf-8"?>
<!-- Generator: Adobe Illustrator 17.0.0, SVG Export Plug-In . SVG Version: 6.00 Build 0)  -->
<!DOCTYPE svg PUBLIC "-//W3C//DTD SVG 1.1//EN" "http://www.w3.org/Graphics/SVG/1.1/DTD/svg11.dtd">
<svg version="1.1" id="Layer_1" xmlns="http://www.w3.org/2000/svg" xmlns:xlink="http://www.w3.org/1999/xlink" x="0px" y="0px"
	 width="100px" height="100px" viewBox="0 0 100 100" enable-background="new 0 0 100 100" xml:space="preserve">
<g>
	<path d="M39.698,67.573c3.578,0,8.394-2.502,12.269-6.375c4.651-4.652,7.169-10.429,6.121-14.047l-0.472-1.625l-21.319,21.32
		l1.601,0.482C38.436,67.491,39.042,67.573,39.698,67.573z M56.285,49.686c-0.29,2.681-2.118,6.483-5.732,10.099
		c-3.244,3.242-7.119,5.427-10.114,5.748L56.285,49.686z"/>
	<path d="M78.678,47.791c-1.08-3.503-3.422-7.182-6.597-10.356c-4.474-4.475-9.988-7.255-14.392-7.255
		c-1.922,0-3.6,0.522-4.922,1.506L67.282,17.17c0.975-0.974,0.975-2.56,0-3.535c-1.407-1.408-3.373-2.152-5.684-2.152
		c-4.401,0-9.915,2.779-14.391,7.254c-7.058,7.058-9.299,15.875-5.101,20.076c0.473,0.471,1.101,0.73,1.767,0.73
		c0.666,0,1.293-0.259,1.768-0.732l0.091-0.091c-0.501,0.845-0.794,1.826-0.794,2.878c0,0.084,0.009,0.167,0.013,0.25L27.65,24.549
		c-0.943-0.943-2.589-0.945-3.535,0c-2.214,2.214-2.746,5.665-1.496,9.716c1.08,3.504,3.423,7.182,6.596,10.356
		c4.476,4.475,9.991,7.255,14.392,7.255c1.922,0,3.6-0.523,4.923-1.507L34.015,64.884c-0.472,0.473-0.732,1.1-0.732,1.768
		s0.26,1.295,0.732,1.768c1.409,1.409,3.374,2.153,5.683,2.153c2.543,0,5.479-0.92,8.408-2.615v18.474c0,1.379,1.122,2.5,2.5,2.5
		s2.5-1.121,2.5-2.5V64.253c0.332-0.302,0.66-0.611,0.981-0.934c7.059-7.059,9.301-15.876,5.104-20.075
		c-0.799-0.799-2.12-0.911-3.073-0.35c0.098-0.417,0.155-0.85,0.155-1.296c0-0.607-0.098-1.191-0.276-1.739l17.65,17.649
		c0.474,0.472,1.101,0.731,1.768,0.731c0.668,0,1.295-0.26,1.768-0.732C79.397,55.293,79.928,51.842,78.678,47.791z M44.23,37.395
		c-0.191,0.19-0.525,0.187-0.71,0.002c-3.347-3.349-1.058-11.085,5.103-17.246c4.114-4.113,9.086-6.668,12.977-6.668
		c1.769,0,3.245,0.542,4.27,1.566c0.194,0.195,0.194,0.512,0,0.707L44.23,37.395z M50.606,45.265c-2.022,0-3.667-1.645-3.667-3.667
		s1.645-3.667,3.667-3.667s3.667,1.645,3.667,3.667S52.629,45.265,50.606,45.265z M47.877,48.309
		c-1.026,1.025-2.502,1.567-4.27,1.567c-3.891,0-8.863-2.556-12.978-6.669c-2.947-2.948-5.113-6.333-6.099-9.532
		c-1.021-3.309-0.666-6.048,0.999-7.712c0.095-0.095,0.22-0.147,0.354-0.147c0.077,0,0.226,0.019,0.354,0.146l21.641,21.638
		c0.094,0.095,0.146,0.221,0.146,0.354C48.023,48.087,47.97,48.216,47.877,48.309z M49.9,47.216
		c0.232,0.029,0.467,0.049,0.706,0.049c0.391,0,0.774-0.04,1.143-0.116l-2.09,2.09c0.232-0.385,0.363-0.823,0.363-1.284
		C50.023,47.7,49.974,47.454,49.9,47.216z M57.777,44.658c3.347,3.349,1.058,11.086-5.104,17.247
		c-0.402,0.402-0.815,0.784-1.232,1.156l-0.335,0.298v23.071c0,0.275-0.225,0.5-0.5,0.5c-0.276,0-0.5-0.225-0.5-0.5V64.269
		l-1.56,1.053c-3.105,2.097-6.248,3.251-8.848,3.251c-1.768,0-3.244-0.542-4.269-1.567c-0.127-0.128-0.146-0.276-0.146-0.354
		s0.019-0.226,0.146-0.354l21.64-21.641C57.256,44.47,57.59,44.469,57.777,44.658z M50.606,35.931c-1.052,0-2.034,0.293-2.879,0.794
		l3.909-3.91c-0.232,0.384-0.363,0.822-0.363,1.284c0,0.667,0.26,1.294,0.731,1.768l0.34,0.34
		C51.797,36.029,51.213,35.931,50.606,35.931z M75.769,56.093c-0.128,0.127-0.276,0.146-0.354,0.146
		c-0.134,0-0.26-0.053-0.354-0.146l-21.64-21.639c-0.093-0.093-0.146-0.223-0.146-0.355c0-0.134,0.052-0.26,0.146-0.354
		c1.025-1.024,2.501-1.566,4.27-1.566c3.893,0,8.865,2.555,12.978,6.669c2.948,2.949,5.114,6.333,6.1,9.532
		C77.787,51.688,77.434,54.428,75.769,56.093z"/>
	<path d="M69.959,39.556c-3.874-3.874-8.69-6.376-12.271-6.376c-0.661,0-1.268,0.083-1.803,0.245l-1.597,0.484l21.312,21.312
		l0.482-1.6c0.405-1.344,0.311-3.054-0.274-4.946C74.869,45.628,72.792,42.39,69.959,39.556z M58.43,35.221
		c2.996,0.321,6.871,2.506,10.115,5.749c2.606,2.607,4.508,5.553,5.354,8.295c0.197,0.638,0.327,1.249,0.39,1.813L58.43,35.221z"/>
	<path d="M61.6,14.483c-3.579,0-8.396,2.502-12.27,6.375c-4.652,4.653-7.169,10.429-6.122,14.046l0.471,1.625l21.322-21.32
		l-1.6-0.483C62.864,14.565,62.259,14.483,61.6,14.483z M45.011,32.37c0.29-2.681,2.119-6.482,5.733-10.098
		c3.243-3.242,7.118-5.426,10.114-5.748L45.011,32.37z"/>
	<path d="M25.211,28.435c-0.404,1.339-0.31,3.049,0.275,4.944c0.939,3.048,3.017,6.287,5.851,9.121
		c3.873,3.873,8.689,6.376,12.27,6.376c0.662,0,1.269-0.083,1.805-0.245l1.596-0.485l-21.313-21.31L25.211,28.435z M42.868,46.835
		c-2.997-0.32-6.874-2.505-10.117-5.749c-2.607-2.607-4.508-5.553-5.354-8.295c-0.197-0.639-0.327-1.249-0.389-1.813L42.868,46.835z
		"/>
	<path d="M50.606,38.931c-1.471,0-2.667,1.196-2.667,2.667s1.197,2.667,2.667,2.667s2.667-1.196,2.667-2.667
		S52.077,38.931,50.606,38.931z M50.606,42.265c-0.368,0-0.667-0.299-0.667-0.667s0.299-0.667,0.667-0.667s0.667,0.299,0.667,0.667
		S50.975,42.265,50.606,42.265z"/>
</g>
</svg>
