<?xml version="1.0" encoding="utf-8"?>
<!-- Generator: Adobe Illustrator 17.0.0, SVG Export Plug-In . SVG Version: 6.00 Build 0)  -->
<!DOCTYPE svg PUBLIC "-//W3C//DTD SVG 1.1//EN" "http://www.w3.org/Graphics/SVG/1.1/DTD/svg11.dtd">
<svg version="1.1" id="Layer_1" xmlns="http://www.w3.org/2000/svg" xmlns:xlink="http://www.w3.org/1999/xlink" x="0px" y="0px"
	 width="100px" height="100px" viewBox="0 0 100 100" enable-background="new 0 0 100 100" xml:space="preserve">
<g>
	<path d="M34.179,73.057l-7.778-7.778l24.526-24.525l-1.24-1.241l3.755-14.014l14.015-3.755l2.028,2.03l-4.459,4.459l1.311,4.89
		l4.891,1.311l4.459-4.459l2.029,2.029L73.96,46.016l-14.015,3.755l-1.24-1.24L34.179,73.057z M29.229,65.278l4.95,4.95
		l24.526-24.526l1.838,1.839l11.784-3.158l3.01-11.233l-3.513,3.513l-7.121-1.908l-1.908-7.121l3.513-3.513l-11.233,3.01
		l-3.157,11.784l1.838,1.838L29.229,65.278z"/>
</g>
</svg>
