<?xml version="1.0" encoding="utf-8"?>
<!-- Generator: Adobe Illustrator 17.0.0, SVG Export Plug-In . SVG Version: 6.00 Build 0)  -->
<!DOCTYPE svg PUBLIC "-//W3C//DTD SVG 1.1//EN" "http://www.w3.org/Graphics/SVG/1.1/DTD/svg11.dtd">
<svg version="1.1" id="Layer_1" xmlns="http://www.w3.org/2000/svg" xmlns:xlink="http://www.w3.org/1999/xlink" x="0px" y="0px"
	 width="100px" height="100px" viewBox="0 0 100 100" enable-background="new 0 0 100 100" xml:space="preserve">
<g>
	<path d="M50,81c-17.093,0-31-13.906-31-31s13.907-31,31-31s31,13.906,31,31S67.093,81,50,81z M50,21c-15.991,0-29,13.01-29,29
		s13.009,29,29,29s29-13.01,29-29S65.991,21,50,21z"/>
</g>
<g>
	<path d="M45.161,62.507c-1.068,0-2.073-0.416-2.828-1.171l-5.083-5.083c-0.377-0.376-0.585-0.878-0.586-1.412
		c0-0.535,0.208-1.038,0.586-1.416l4.419-4.419c0.756-0.756,2.074-0.756,2.829,0l1.504,1.504c0.756,0.756,2.073,0.756,2.829,0
		l1.679-1.68c0.378-0.378,0.586-0.88,0.586-1.414s-0.208-1.036-0.586-1.414l-1.504-1.504c-0.378-0.378-0.586-0.881-0.586-1.416
		c0-0.534,0.208-1.036,0.587-1.413l4.418-4.419c0.753-0.755,2.072-0.757,2.828,0l5.082,5.081c1.56,1.561,1.56,4.099,0,5.658
		L47.989,61.336C47.233,62.091,46.229,62.507,45.161,62.507z M43.083,50.42l-4.419,4.419l5.083,5.083
		c0.755,0.754,2.073,0.754,2.829,0l13.347-13.347c0.779-0.78,0.779-2.049,0-2.829l-5.083-5.082l-4.419,4.42l1.504,1.504
		c0.756,0.756,1.172,1.76,1.172,2.828c0,1.069-0.416,2.073-1.172,2.828l-1.679,1.68c-1.511,1.512-4.146,1.512-5.657,0L43.083,50.42z
		"/>
</g>
</svg>
