<?xml version="1.0" encoding="utf-8"?>
<!-- Generator: Adobe Illustrator 16.0.0, SVG Export Plug-In . SVG Version: 6.00 Build 0)  -->
<!DOCTYPE svg PUBLIC "-//W3C//DTD SVG 1.1//EN" "http://www.w3.org/Graphics/SVG/1.1/DTD/svg11.dtd">
<svg version="1.1" id="Layer_1" xmlns="http://www.w3.org/2000/svg" xmlns:xlink="http://www.w3.org/1999/xlink" x="0px" y="0px"
	 width="100px" height="100px" viewBox="0 0 100 100" enable-background="new 0 0 100 100" xml:space="preserve">
<g>
	<path d="M46.239,60.951c-0.616,0-1.228-0.147-1.771-0.426c-1.312-0.667-2.128-1.999-2.128-3.474V44.29
		c0-1.474,0.816-2.806,2.131-3.476c1.295-0.653,2.902-0.523,4.064,0.324l8.763,6.38c1.004,0.732,1.604,1.91,1.604,3.152
		s-0.6,2.421-1.604,3.152l-8.763,6.381C47.865,60.692,47.071,60.951,46.239,60.951z M46.24,42.391c-0.298,0-0.597,0.071-0.863,0.206
		c-0.639,0.326-1.037,0.975-1.037,1.693v12.762c0,0.719,0.398,1.367,1.038,1.692c0.626,0.322,1.408,0.259,1.979-0.156l8.763-6.382
		c0.489-0.356,0.781-0.93,0.781-1.535c0-0.605-0.292-1.179-0.781-1.536l-8.763-6.38C47.031,42.517,46.645,42.391,46.24,42.391z"/>
</g>
<g>
	<path d="M50.62,81.671c-17.093,0-31-13.906-31-31c0-17.093,13.907-31,31-31c17.094,0,31,13.907,31,31
		C81.62,67.765,67.714,81.671,50.62,81.671z M50.62,21.671c-15.991,0-29,13.009-29,29c0,15.99,13.009,29,29,29
		c15.99,0,29-13.01,29-29C79.62,34.68,66.61,21.671,50.62,21.671z"/>
</g>
</svg>
