<?xml version="1.0" encoding="utf-8"?>
<!-- Generator: Adobe Illustrator 17.0.0, SVG Export Plug-In . SVG Version: 6.00 Build 0)  -->
<!DOCTYPE svg PUBLIC "-//W3C//DTD SVG 1.1//EN" "http://www.w3.org/Graphics/SVG/1.1/DTD/svg11.dtd">
<svg version="1.1" id="Layer_1" xmlns="http://www.w3.org/2000/svg" xmlns:xlink="http://www.w3.org/1999/xlink" x="0px" y="0px"
	 width="100px" height="100px" viewBox="0 0 100 100" enable-background="new 0 0 100 100" xml:space="preserve">
<path d="M67.093,31.166c2.281-1.757,3.759-4.508,3.759-7.603c0-5.295-4.308-9.603-9.603-9.603s-9.603,4.308-9.603,9.603
	c0,3.095,1.478,5.846,3.759,7.603H50h-1.5h-5.407c2.281-1.757,3.759-4.508,3.759-7.603c0-5.295-4.308-9.603-9.603-9.603
	s-9.603,4.308-9.603,9.603c0,3.095,1.478,5.846,3.759,7.603H24.5V62.96h5.455v23.08h14.38V62.96H48.5H50h3.955v23.08h14.38V62.96H74
	V31.166H67.093z M29.647,23.562c0-4.192,3.41-7.603,7.603-7.603s7.603,3.411,7.603,7.603c0,4.192-3.41,7.603-7.603,7.603
	S29.647,27.755,29.647,23.562z M48,60.96h-5.665v23.08h-10.38V60.96H26.5V33.166H48V60.96z M53.647,23.562
	c0-4.192,3.41-7.603,7.603-7.603s7.603,3.411,7.603,7.603c0,4.192-3.41,7.603-7.603,7.603S53.647,27.755,53.647,23.562z M72,60.96
	h-5.665v23.08h-10.38V60.96H50.5V33.166H72V60.96z"/>
</svg>
