<?xml version="1.0" encoding="utf-8"?>
<!-- Generator: Adobe Illustrator 16.0.0, SVG Export Plug-In . SVG Version: 6.00 Build 0)  -->
<!DOCTYPE svg PUBLIC "-//W3C//DTD SVG 1.1//EN" "http://www.w3.org/Graphics/SVG/1.1/DTD/svg11.dtd">
<svg version="1.1" id="Layer_1" xmlns="http://www.w3.org/2000/svg" xmlns:xlink="http://www.w3.org/1999/xlink" x="0px" y="0px"
	 width="100px" height="100px" viewBox="0 0 100 100" enable-background="new 0 0 100 100" xml:space="preserve">
<g>
	<path d="M50.034,65.328c-8.822,0-16-7.178-16-16c0-6.258,3.691-11.976,9.405-14.566l1.562-0.708l-0.153,1.708
		c-0.037,0.417-0.064,0.836-0.064,1.262c0,7.72,6.28,14,14,14c1.992,0,3.933-0.422,5.769-1.255l1.562-0.708l-0.152,1.708
		C65.22,59.069,58.373,65.328,50.034,65.328z M42.788,37.362c-4.15,2.517-6.754,7.051-6.754,11.966c0,7.72,6.28,14,14,14
		c6.734,0,12.356-4.665,13.692-11.094c-1.598,0.524-3.254,0.789-4.942,0.789C50.075,53.023,42.969,46.029,42.788,37.362z"/>
</g>
<g>
	<path d="M50,71c-11.579,0-21-9.421-21-21c0-11.58,9.421-21,21-21s21,9.42,21,21C71,61.579,61.579,71,50,71z M50,31
		c-10.477,0-19,8.523-19,19s8.523,19,19,19s19-8.523,19-19S60.477,31,50,31z"/>
</g>
</svg>
