<?xml version="1.0" encoding="utf-8"?>
<!-- Generator: Adobe Illustrator 17.0.0, SVG Export Plug-In . SVG Version: 6.00 Build 0)  -->
<!DOCTYPE svg PUBLIC "-//W3C//DTD SVG 1.1//EN" "http://www.w3.org/Graphics/SVG/1.1/DTD/svg11.dtd">
<svg version="1.1" id="Layer_1" xmlns="http://www.w3.org/2000/svg" xmlns:xlink="http://www.w3.org/1999/xlink" x="0px" y="0px"
	 width="100px" height="100px" viewBox="0 0 100 100" enable-background="new 0 0 100 100" xml:space="preserve">
<path d="M50,19c-17.093,0-31,13.907-31,31c0,17.094,13.907,31,31,31c17.094,0,31-13.906,31-31C81,32.907,67.094,19,50,19z M50,79
	c-15.991,0-29-13.01-29-29c0-15.991,13.009-29,29-29c15.654,0,28.444,12.47,28.975,27.998l-32.44-0.063l5.629-5.629l-1.414-1.414
	l-8.038,8.038l8.178,8.178l1.414-1.414l-5.759-5.76l32.431,0.064C78.446,66.527,65.656,79,50,79z"/>
</svg>
