<?xml version="1.0" encoding="utf-8"?>
<!-- Generator: Adobe Illustrator 16.0.0, SVG Export Plug-In . SVG Version: 6.00 Build 0)  -->
<!DOCTYPE svg PUBLIC "-//W3C//DTD SVG 1.1//EN" "http://www.w3.org/Graphics/SVG/1.1/DTD/svg11.dtd">
<svg version="1.1" id="Layer_1" xmlns="http://www.w3.org/2000/svg" xmlns:xlink="http://www.w3.org/1999/xlink" x="0px" y="0px"
	 width="100px" height="100px" viewBox="0 0 100 100" enable-background="new 0 0 100 100" xml:space="preserve">
<g>
	<path d="M68.899,40.976l1.414-1.414L59.969,29.217v31c-0.724-0.447-1.599-0.686-2.583-0.686c-2.333,0-5.022,1.297-7.196,3.471
		c-3.569,3.568-4.54,8.188-2.21,10.519c0.825,0.825,1.973,1.261,3.32,1.261c2.333,0,5.024-1.297,7.198-3.471
		c2.204-2.205,3.414-4.81,3.47-7.029h0.001v-0.021c0.001-0.05,0-0.099,0-0.148V34.045L68.899,40.976z M57.084,69.897
		c-1.78,1.779-3.997,2.885-5.784,2.885c-0.817,0-1.458-0.227-1.906-0.675c-1.485-1.485-0.473-5.008,2.21-7.69
		c1.779-1.779,3.995-2.885,5.782-2.885c0.817,0,1.459,0.227,1.907,0.675c0.429,0.429,0.644,1.031,0.676,1.73v0.345h0.001
		C59.906,65.963,58.867,68.113,57.084,69.897z"/>
	<rect x="34.25" y="31.417" width="15.75" height="2"/>
	<rect x="34.25" y="35.25" width="15.75" height="2"/>
	<rect x="34.25" y="39.25" width="15.75" height="2"/>
</g>
</svg>
