<?xml version="1.0" encoding="utf-8"?>
<!-- Generator: Adobe Illustrator 17.0.0, SVG Export Plug-In . SVG Version: 6.00 Build 0)  -->
<!DOCTYPE svg PUBLIC "-//W3C//DTD SVG 1.1//EN" "http://www.w3.org/Graphics/SVG/1.1/DTD/svg11.dtd">
<svg version="1.1" id="Layer_1" xmlns="http://www.w3.org/2000/svg" xmlns:xlink="http://www.w3.org/1999/xlink" x="0px" y="0px"
	 width="100px" height="100px" viewBox="0 0 100 100" enable-background="new 0 0 100 100" xml:space="preserve">
<path d="M73.106,16.954L58.432,31.627c0.988-1.506,1.565-3.304,1.565-5.237c0-5.295-4.308-9.603-9.603-9.603
	s-9.603,4.308-9.603,9.603c0,2.065,0.668,3.968,1.784,5.534L26.896,16.246l-1.414,1.414l17.616,17.616v0.718h0.132l-0.132,52.874
	H57.48v-0.221V63.787V35.993v-0.586l17.04-17.04L73.106,16.954z M55.48,63.787v22.859l-3.98,0.042v-21.75h-2v21.75l-4.27-0.042
	V35.994h10.25V63.787z M50.395,33.992c-4.193,0-7.603-3.41-7.603-7.603c0-4.192,3.41-7.603,7.603-7.603s7.603,3.411,7.603,7.603
	C57.998,30.581,54.588,33.992,50.395,33.992z"/>
</svg>
