<?xml version="1.0" encoding="utf-8"?>
<!-- Generator: Adobe Illustrator 17.0.0, SVG Export Plug-In . SVG Version: 6.00 Build 0)  -->
<!DOCTYPE svg PUBLIC "-//W3C//DTD SVG 1.1//EN" "http://www.w3.org/Graphics/SVG/1.1/DTD/svg11.dtd">
<svg version="1.1" id="Layer_1" xmlns="http://www.w3.org/2000/svg" xmlns:xlink="http://www.w3.org/1999/xlink" x="0px" y="0px"
	 width="100px" height="100px" viewBox="0 0 100 100" enable-background="new 0 0 100 100" xml:space="preserve">
<path d="M69.625,23.375c-4.691,0-8.617,3.33-9.543,7.75h-8.958v10.426c-4.908,0.502-8.75,4.661-8.75,9.699s3.842,9.197,8.75,9.699
	v8.426h-6.762c-0.134-5.26-4.446-9.5-9.737-9.5c-5.376,0-9.75,4.374-9.75,9.75s4.374,9.75,9.75,9.75c4.778,0,8.756-3.457,9.584-8
	h8.915V60.949c4.908-0.502,8.75-4.661,8.75-9.699s-3.842-9.197-8.75-9.699v-8.426h6.75c0,5.376,4.374,9.75,9.751,9.75
	c5.376,0,9.75-4.374,9.75-9.75S75.001,23.375,69.625,23.375z M34.625,77.375c-4.273,0-7.75-3.477-7.75-7.75s3.477-7.75,7.75-7.75
	s7.75,3.477,7.75,7.75S38.898,77.375,34.625,77.375z M59.874,51.25c0,4.273-3.477,7.75-7.75,7.75c-4.273,0-7.75-3.477-7.75-7.75
	s3.477-7.75,7.75-7.75C56.397,43.5,59.874,46.977,59.874,51.25z M69.625,40.875c-4.273,0-7.751-3.477-7.751-7.75
	s3.478-7.75,7.751-7.75s7.75,3.477,7.75,7.75S73.898,40.875,69.625,40.875z"/>
</svg>
