<?xml version="1.0" encoding="utf-8"?>
<!-- Generator: Adobe Illustrator 17.0.0, SVG Export Plug-In . SVG Version: 6.00 Build 0)  -->
<!DOCTYPE svg PUBLIC "-//W3C//DTD SVG 1.1//EN" "http://www.w3.org/Graphics/SVG/1.1/DTD/svg11.dtd">
<svg version="1.1" id="Layer_1" xmlns="http://www.w3.org/2000/svg" xmlns:xlink="http://www.w3.org/1999/xlink" x="0px" y="0px"
	 width="100px" height="100px" viewBox="0 0 100 100" enable-background="new 0 0 100 100" xml:space="preserve">
<g>
	<path d="M71.59,74.234H56.327c-1.377,0-2.612-0.82-3.146-2.091c-0.128-0.305-0.211-0.63-0.245-0.966
		c-0.107-1.013,0.241-2.015,0.958-2.745c0.987-1.004,1.531-2.33,1.531-3.735c0-1.084-0.327-2.13-0.946-3.024
		c-0.72-1.039-1.787-1.791-3.007-2.119c-0.93-0.25-1.827-0.25-2.757,0c-1.219,0.328-2.287,1.08-3.006,2.119
		c-0.619,0.895-0.946,1.94-0.946,3.024c0,1.405,0.543,2.731,1.53,3.734c0.718,0.73,1.066,1.732,0.959,2.75
		c-0.035,0.331-0.117,0.653-0.243,0.958c-0.536,1.274-1.771,2.095-3.148,2.095H28.597c-1.88,0-3.41-1.53-3.41-3.41V60.556
		c-1.47,0.607-3.054,0.924-4.659,0.924c-6.701,0-12.152-5.452-12.152-12.153s5.452-12.152,12.152-12.152
		c1.606,0,3.19,0.316,4.659,0.923V27.83c0-1.88,1.53-3.41,3.41-3.41H71.59c1.88,0,3.41,1.53,3.41,3.41v10.269
		c1.469-0.607,3.054-0.923,4.659-0.923c6.701,0,12.152,5.451,12.152,12.152S86.36,61.479,79.659,61.479
		c-1.605,0-3.189-0.316-4.659-0.924v10.267C75,72.704,73.47,74.234,71.59,74.234z M50.093,57.365c0.625,0,1.263,0.087,1.898,0.257
		c1.676,0.451,3.143,1.485,4.132,2.912c0.852,1.23,1.302,2.67,1.302,4.163c0,1.933-0.747,3.757-2.104,5.137
		c-0.296,0.302-0.44,0.716-0.396,1.136c0.015,0.144,0.048,0.276,0.1,0.398c0.221,0.526,0.732,0.866,1.303,0.866H71.59
		c0.777,0,1.41-0.633,1.41-1.41V57.195l1.507,0.886c1.556,0.915,3.338,1.398,5.152,1.398c5.598,0,10.152-4.555,10.152-10.153
		c0-5.598-4.555-10.152-10.152-10.152c-1.816,0-3.598,0.483-5.152,1.397L73,41.458V27.83c0-0.777-0.633-1.41-1.41-1.41H28.597
		c-0.777,0-1.41,0.633-1.41,1.41v13.628l-1.507-0.886c-1.554-0.914-3.336-1.397-5.152-1.397c-5.598,0-10.152,4.554-10.152,10.152
		c0,5.598,4.554,10.153,10.152,10.153c1.815,0,3.597-0.483,5.152-1.398l1.507-0.886v13.627c0,0.778,0.633,1.412,1.41,1.412H43.86
		c0.57,0,1.082-0.34,1.303-0.866c0.051-0.122,0.084-0.256,0.099-0.396c0.045-0.423-0.1-0.838-0.396-1.14
		c-1.356-1.377-2.104-3.202-2.104-5.136c0-1.493,0.45-2.933,1.302-4.163c0.988-1.427,2.456-2.461,4.131-2.912
		C48.83,57.452,49.469,57.365,50.093,57.365z"/>
</g>
</svg>
