<?xml version="1.0" encoding="utf-8"?>
<!-- Generator: Adobe Illustrator 17.0.0, SVG Export Plug-In . SVG Version: 6.00 Build 0)  -->
<!DOCTYPE svg PUBLIC "-//W3C//DTD SVG 1.1//EN" "http://www.w3.org/Graphics/SVG/1.1/DTD/svg11.dtd">
<svg version="1.1" id="Layer_1" xmlns="http://www.w3.org/2000/svg" xmlns:xlink="http://www.w3.org/1999/xlink" x="0px" y="0px"
	 width="100px" height="100px" viewBox="0 0 100 100" enable-background="new 0 0 100 100" xml:space="preserve">
<g>
	<g>
		<polygon points="75.42,75.419 68.42,75.419 68.42,73.419 73.42,73.419 73.42,68.419 75.42,68.419 		"/>
	</g>
	<g>
		<rect x="43.86" y="73.419" width="12.28" height="2"/>
	</g>
	<g>
		<polygon points="31.58,75.419 24.58,75.419 24.58,68.419 26.58,68.419 26.58,73.419 31.58,73.419 		"/>
	</g>
	<g>
		<rect x="24.58" y="43.86" width="2" height="12.28"/>
	</g>
	<g>
		<polygon points="26.58,31.581 24.58,31.581 24.58,24.581 31.58,24.581 31.58,26.581 26.58,26.581 		"/>
	</g>
	<g>
		<rect x="43.86" y="24.581" width="12.28" height="2"/>
	</g>
	<g>
		<polygon points="75.42,31.581 73.42,31.581 73.42,26.581 68.42,26.581 68.42,24.581 75.42,24.581 		"/>
	</g>
	<g>
		<rect x="73.42" y="43.86" width="2" height="12.279"/>
	</g>
</g>
</svg>
