<?xml version="1.0" encoding="utf-8"?>
<!-- Generator: Adobe Illustrator 17.0.0, SVG Export Plug-In . SVG Version: 6.00 Build 0)  -->
<!DOCTYPE svg PUBLIC "-//W3C//DTD SVG 1.1//EN" "http://www.w3.org/Graphics/SVG/1.1/DTD/svg11.dtd">
<svg version="1.1" id="Layer_1" xmlns="http://www.w3.org/2000/svg" xmlns:xlink="http://www.w3.org/1999/xlink" x="0px" y="0px"
	 width="100px" height="100px" viewBox="0 0 100 100" enable-background="new 0 0 100 100" xml:space="preserve">
<path d="M84.207,32.793l-11-11C73.02,21.605,72.766,21.5,72.5,21.5h-21V11c0-0.552-0.447-1-1-1s-1,0.448-1,1v10.5H26
	c-0.553,0-1,0.448-1,1v22c0,0.553,0.447,1,1,1h23.5V48H24.75c-0.266,0-0.52,0.105-0.707,0.293l-11,11
	c-0.391,0.391-0.391,1.023,0,1.414l11,11C24.23,71.895,24.484,72,24.75,72H49.5v12H38c-0.553,0-1,0.447-1,1s0.447,1,1,1h25
	c0.553,0,1-0.447,1-1s-0.447-1-1-1H51.5V72h19.75c0.553,0,1-0.447,1-1V49c0-0.553-0.447-1-1-1H51.5v-2.5h21
	c0.266,0,0.52-0.105,0.707-0.293l11-11C84.598,33.816,84.598,33.184,84.207,32.793z M70.25,70H25.164l-10-10l10-10H70.25V70z
	 M72.086,43.5H27v-20h45.086l10,10L72.086,43.5z"/>
</svg>
