<?xml version="1.0" encoding="utf-8"?>
<!-- Generator: Adobe Illustrator 16.0.0, SVG Export Plug-In . SVG Version: 6.00 Build 0)  -->
<!DOCTYPE svg PUBLIC "-//W3C//DTD SVG 1.1//EN" "http://www.w3.org/Graphics/SVG/1.1/DTD/svg11.dtd">
<svg version="1.1" id="Layer_1" xmlns="http://www.w3.org/2000/svg" xmlns:xlink="http://www.w3.org/1999/xlink" x="0px" y="0px"
	 width="100px" height="100px" viewBox="0 0 100 100" enable-background="new 0 0 100 100" xml:space="preserve">
<g>
	<path d="M16.25,31.56v38.844h67.5V31.56H16.25z M81.75,33.56v21.31L69.652,43.004l-10.2,13.005l-13.147-6.105l-8.66,2.988
		l-10.261-6.926l-9.135,8.912V33.56H81.75z M18.25,68.403V57.672l9.365-9.137l9.739,6.574l8.84-3.051l13.853,6.434l9.8-12.495
		L81.75,57.67v10.733H18.25z"/>
	<path d="M38.25,47c2.895,0,5.25-2.355,5.25-5.25s-2.355-5.25-5.25-5.25S33,38.855,33,41.75S35.355,47,38.25,47z M38.25,38.5
		c1.792,0,3.25,1.458,3.25,3.25S40.042,45,38.25,45S35,43.542,35,41.75S36.458,38.5,38.25,38.5z"/>
</g>
</svg>
