<?xml version="1.0" encoding="utf-8"?>
<!-- Generator: Adobe Illustrator 17.0.0, SVG Export Plug-In . SVG Version: 6.00 Build 0)  -->
<!DOCTYPE svg PUBLIC "-//W3C//DTD SVG 1.1//EN" "http://www.w3.org/Graphics/SVG/1.1/DTD/svg11.dtd">
<svg version="1.1" id="Layer_1" xmlns="http://www.w3.org/2000/svg" xmlns:xlink="http://www.w3.org/1999/xlink" x="0px" y="0px"
	 width="100px" height="100px" viewBox="0 0 100 100" enable-background="new 0 0 100 100" xml:space="preserve">
<g>
	<path d="M69.688,80.611H33.871l-0.022-0.977c-0.211-9.18,2.388-14.68,4.361-18.019c3.847-6.508,5.756-10.905,6.19-14.259
		l0.113-0.872h14.532l0.112,0.872c0.436,3.353,2.345,7.75,6.191,14.259c1.974,3.338,4.574,8.837,4.362,18.019L69.688,80.611z
		 M35.836,78.611h31.886c0.004-8.082-2.317-12.97-4.096-15.978c-3.68-6.226-5.658-10.648-6.313-14.148H46.245
		c-0.656,3.5-2.634,7.923-6.313,14.148C38.154,65.642,35.833,70.53,35.836,78.611z M59.03,45.486h-14.5l-0.117-0.866
		c-0.269-1.98-1.155-3.665-2.198-5.504c-3.88-6.845-2.949-11.249-2.369-12.825l0.157-0.427l0.425-0.162
		c0.86-0.328,1.755-0.494,2.661-0.494c4.586,0,8.277,4.189,8.313,4.231c0.161,0.186,0.596,0.183,0.757-0.001
		c0.152-0.174,3.753-4.23,8.312-4.23c0.899,0,1.791,0.164,2.649,0.488l0.436,0.164l0.155,0.439
		c0.564,1.602,1.466,6.058-2.366,12.816c-1.043,1.84-1.929,3.525-2.197,5.504L59.03,45.486z M46.243,43.486h11.076
		c0.423-1.955,1.322-3.653,2.287-5.356c3.132-5.524,2.742-9.222,2.356-10.711c-0.489-0.139-0.988-0.209-1.49-0.209
		c-3.643,0-6.774,3.511-6.806,3.546c-0.92,1.057-2.851,1.059-3.772-0.003c-0.027-0.03-3.184-3.543-6.804-3.543
		c-0.508,0-1.013,0.072-1.505,0.214c-0.394,1.459-0.801,5.111,2.371,10.707C44.92,39.832,45.82,41.529,46.243,43.486z"/>
</g>
</svg>
