<?xml version="1.0" encoding="utf-8"?>
<!-- Generator: Adobe Illustrator 17.0.0, SVG Export Plug-In . SVG Version: 6.00 Build 0)  -->
<!DOCTYPE svg PUBLIC "-//W3C//DTD SVG 1.1//EN" "http://www.w3.org/Graphics/SVG/1.1/DTD/svg11.dtd">
<svg version="1.1" id="Layer_1" xmlns="http://www.w3.org/2000/svg" xmlns:xlink="http://www.w3.org/1999/xlink" x="0px" y="0px"
	 width="100px" height="100px" viewBox="0 0 100 100" enable-background="new 0 0 100 100" xml:space="preserve">
<path d="M49.5,17.049c-17.645,0-32,14.355-32,32c0,12.174,6.834,22.779,16.866,28.187c4.509,2.431,9.663,3.813,15.134,3.813
	c5.911,0,11.448-1.617,16.204-4.423C75.147,71.057,81.5,60.784,81.5,49.049C81.5,31.404,67.145,17.049,49.5,17.049z M64.771,72.501
	c-1.702-3.023-5.514-5.376-10.271-6.304v-3.527c3.416-2.119,5.775-6.558,5.775-11.707c0-7.201-4.6-13.038-10.275-13.038
	s-10.275,5.837-10.275,13.038c0,5.15,2.359,9.589,5.775,11.707v3.528c-5.011,0.974-8.98,3.524-10.536,6.775
	C26.897,68.053,21.5,59.17,21.5,49.049c0-15.439,12.561-28,28-28s28,12.561,28,28C77.5,58.858,72.427,67.498,64.771,72.501z"/>
</svg>
