<?xml version="1.0" encoding="utf-8"?>
<!-- Generator: Adobe Illustrator 17.0.0, SVG Export Plug-In . SVG Version: 6.00 Build 0)  -->
<!DOCTYPE svg PUBLIC "-//W3C//DTD SVG 1.1//EN" "http://www.w3.org/Graphics/SVG/1.1/DTD/svg11.dtd">
<svg version="1.1" id="Layer_1" xmlns="http://www.w3.org/2000/svg" xmlns:xlink="http://www.w3.org/1999/xlink" x="0px" y="0px"
	 width="100px" height="100px" viewBox="0 0 100 100" enable-background="new 0 0 100 100" xml:space="preserve">
<g>
	<path d="M50,19c-17.094,0-31,13.906-31,31s13.906,31,31,31s31-13.906,31-31S67.094,19,50,19z M50,79c-15.99,0-29-13.01-29-29
		s13.01-29,29-29s29,13.01,29,29S65.99,79,50,79z"/>
	<polygon points="51,38 49,38 49,49 38,49 38,51 49,51 49,62 51,62 51,51 62,51 62,49 51,49 	"/>
</g>
</svg>
