<?xml version="1.0" encoding="utf-8"?>
<!-- Generator: Adobe Illustrator 17.0.0, SVG Export Plug-In . SVG Version: 6.00 Build 0)  -->
<!DOCTYPE svg PUBLIC "-//W3C//DTD SVG 1.1//EN" "http://www.w3.org/Graphics/SVG/1.1/DTD/svg11.dtd">
<svg version="1.1" id="Layer_1" xmlns="http://www.w3.org/2000/svg" xmlns:xlink="http://www.w3.org/1999/xlink" x="0px" y="0px"
	 width="100px" height="100px" viewBox="0 0 100 100" enable-background="new 0 0 100 100" xml:space="preserve">
<polygon points="52.241,36.292 52.241,38.292 60.287,38.293 50.003,48.537 39.699,38.193 47.66,38.193 47.66,36.193 36.292,36.193 
	36.292,47.759 38.292,47.759 38.293,39.713 48.537,49.997 38.193,60.301 38.193,52.34 36.193,52.34 36.193,63.708 47.759,63.708 
	47.759,61.708 39.713,61.707 49.997,51.463 60.301,61.807 52.34,61.807 52.34,63.807 63.708,63.807 63.708,52.241 61.708,52.241 
	61.707,60.287 51.463,50.003 61.807,39.699 61.807,47.66 63.807,47.66 63.807,36.292 "/>
</svg>
