<?xml version="1.0" encoding="utf-8"?>
<!-- Generator: Adobe Illustrator 17.0.0, SVG Export Plug-In . SVG Version: 6.00 Build 0)  -->
<!DOCTYPE svg PUBLIC "-//W3C//DTD SVG 1.1//EN" "http://www.w3.org/Graphics/SVG/1.1/DTD/svg11.dtd">
<svg version="1.1" id="Layer_1" xmlns="http://www.w3.org/2000/svg" xmlns:xlink="http://www.w3.org/1999/xlink" x="0px" y="0px"
	 width="100px" height="100px" viewBox="0 0 100 100" enable-background="new 0 0 100 100" xml:space="preserve">
<path d="M70.92,28.08c-4.289-4.289-11.267-4.289-15.556,0L27.08,56.364c-4.289,4.289-4.289,11.267,0,15.556
	c4.289,4.289,11.267,4.289,15.556,0L70.92,43.636C75.209,39.347,75.209,32.369,70.92,28.08z M69.506,29.494
	c3.509,3.509,3.509,9.219,0,12.728s-9.219,3.509-12.728,0c-3.509-3.509-3.509-9.219,0-12.728
	C60.287,25.985,65.997,25.985,69.506,29.494z M28.494,70.506c-3.509-3.509-3.509-9.219,0-12.728s9.219-3.509,12.728,0
	s3.509,9.219,0,12.728S32.003,74.015,28.494,70.506z M45.68,66.048c0.596-3.413-0.414-7.054-3.044-9.684
	c-2.63-2.63-6.271-3.64-9.684-3.044L52.32,33.952c-0.596,3.413,0.414,7.054,3.044,9.684s6.271,3.64,9.684,3.044L45.68,66.048z"/>
</svg>
