<?xml version="1.0" encoding="utf-8"?>
<!-- Generator: Adobe Illustrator 17.0.0, SVG Export Plug-In . SVG Version: 6.00 Build 0)  -->
<!DOCTYPE svg PUBLIC "-//W3C//DTD SVG 1.1//EN" "http://www.w3.org/Graphics/SVG/1.1/DTD/svg11.dtd">
<svg version="1.1" id="Layer_1" xmlns="http://www.w3.org/2000/svg" xmlns:xlink="http://www.w3.org/1999/xlink" x="0px" y="0px"
	 width="100px" height="100px" viewBox="0 0 100 100" enable-background="new 0 0 100 100" xml:space="preserve">
<g>
	<path d="M50.064,78.761c-2.483,0-5.904-1.518-8.419-8.544c-2.735,1.291-5.119,1.944-7.098,1.944c-2.502,0-4.03-1.005-4.872-1.847
		c-1.753-1.754-3.098-5.241,0.082-11.977c-7.011-2.513-8.527-5.933-8.527-8.415c0-2.48,1.515-5.897,8.526-8.41
		c-3.18-6.737-1.834-10.224-0.081-11.978c0.843-0.843,2.372-1.847,4.87-1.847c1.98,0,4.365,0.655,7.101,1.948
		c2.516-7.029,5.937-8.547,8.419-8.547s5.904,1.518,8.419,8.547c2.735-1.293,5.12-1.948,7.102-1.948
		c2.499,0,4.028,1.004,4.871,1.847c1.753,1.754,3.099,5.241-0.083,11.978c7.014,2.513,8.527,5.931,8.527,8.412
		c-0.001,2.48-1.517,5.897-8.529,8.411c3.181,6.737,1.836,10.226,0.082,11.98c-0.842,0.842-2.37,1.846-4.87,1.846
		c-1.979,0-4.364-0.654-7.101-1.946C55.969,77.243,52.547,78.761,50.064,78.761z M42.82,67.385l0.359,1.126
		c1.2,3.764,3.369,8.25,6.885,8.25c3.516,0,5.685-4.487,6.884-8.251l0.359-1.126l1.051,0.54c2.849,1.465,5.348,2.238,7.226,2.238
		c1.815,0,2.881-0.686,3.456-1.26c2.482-2.485,0.849-7.185-0.959-10.689l-0.542-1.051l1.127-0.359
		c3.756-1.199,8.233-3.366,8.235-6.878c0-3.512-4.478-5.679-8.233-6.877l-1.127-0.36l0.542-1.051
		c1.808-3.504,3.441-8.203,0.96-10.687c-0.575-0.575-1.643-1.261-3.457-1.261c-1.88,0-4.379,0.774-7.227,2.239l-1.051,0.541
		l-0.359-1.126c-1.199-3.765-3.368-8.253-6.884-8.253s-5.685,4.488-6.885,8.253l-0.359,1.126l-1.051-0.541
		c-2.847-1.465-5.345-2.239-7.225-2.239c-1.814,0-2.88,0.686-3.456,1.261c-2.482,2.483-0.849,7.182,0.958,10.687l0.542,1.051
		l-1.126,0.36c-3.755,1.199-8.231,3.365-8.232,6.876c0.001,3.515,4.479,5.682,8.234,6.88l1.127,0.36l-0.542,1.052
		c-1.808,3.503-3.441,8.201-0.959,10.685c0.575,0.575,1.641,1.261,3.457,1.261c1.878,0,4.375-0.773,7.222-2.236L42.82,67.385z
		 M50.064,74.086c-2.266,0-3.991-5.22-4.628-7.465l-0.199-0.701l0.608-0.404c1.151-0.765,2.364-1.643,3.605-2.61l0.614-0.479
		l0.614,0.479c1.258,0.979,2.471,1.856,3.604,2.609l0.608,0.403l-0.199,0.703C54.056,68.865,52.329,74.086,50.064,74.086z
		 M47.564,66.769c1.055,3.454,2.083,4.857,2.5,5.237c0.416-0.381,1.445-1.783,2.5-5.238c-0.805-0.552-1.641-1.157-2.499-1.812
		C49.213,65.605,48.376,66.212,47.564,66.769z M65.585,67.488c-2.146-0.003-4.988-1.343-6.993-2.467l-0.635-0.354l0.143-0.714
		c0.285-1.43,0.524-2.915,0.709-4.414l0.095-0.774l0.774-0.096c1.501-0.186,2.979-0.423,4.395-0.705l0.714-0.143l0.354,0.636
		c1.137,2.037,3.609,6.947,2.01,8.552C66.832,67.327,66.306,67.488,65.585,67.488z M60.2,63.622c2.24,1.189,4.18,1.864,5.386,1.866
		c0.034,0,0.064-0.001,0.093-0.002c0.007-0.614-0.292-2.326-1.939-5.422c-0.993,0.186-2.013,0.349-3.046,0.489
		C60.554,61.59,60.388,62.617,60.2,63.622z M34.546,67.485c-0.722,0-1.249-0.16-1.566-0.478c-1.603-1.601,0.871-6.514,2.009-8.552
		l0.355-0.636l0.714,0.143c1.41,0.282,2.888,0.52,4.393,0.706l0.774,0.096l0.096,0.773c0.184,1.491,0.422,2.977,0.709,4.415
		l0.142,0.713l-0.634,0.354C39.531,66.146,36.69,67.485,34.546,67.485z M34.45,65.483c0.029,0.001,0.062,0.002,0.096,0.002
		c1.205,0,3.143-0.674,5.383-1.864c-0.188-1.009-0.353-2.035-0.493-3.067c-1.035-0.141-2.054-0.305-3.046-0.49
		C34.742,63.158,34.443,64.869,34.45,65.483z M44.588,63.167l-0.265-1.583c-0.074-0.44-0.146-0.882-0.212-1.344l-0.174-1.215
		l2.293,0.127l1.732,1.537l-0.977,0.737c-0.367,0.277-0.733,0.546-1.093,0.805L44.588,63.167z M55.543,63.163l-1.306-0.934
		c-0.359-0.257-0.722-0.524-1.09-0.801l-0.979-0.733l1.73-1.547l2.294-0.118l-0.176,1.211c-0.066,0.461-0.139,0.902-0.211,1.339
		L55.543,63.163z M50.064,56.573c-0.809,0-1.589-0.018-2.358-0.04l-0.38-0.012l-0.276-0.261c-0.56-0.528-1.122-1.07-1.687-1.635
		c-0.571-0.57-1.107-1.131-1.634-1.688l-0.262-0.277l-0.011-0.381c-0.022-0.77-0.04-1.548-0.04-2.354s0.017-1.583,0.04-2.351
		l0.011-0.38l0.261-0.277c0.528-0.56,1.066-1.121,1.638-1.693c0.564-0.565,1.125-1.107,1.686-1.636l0.277-0.262l0.381-0.01
		c1.539-0.043,3.173-0.041,4.71,0l0.382,0.01l0.278,0.263c0.56,0.528,1.122,1.071,1.687,1.636c0.57,0.571,1.108,1.131,1.636,1.689
		l0.262,0.277l0.011,0.381c0.021,0.768,0.038,1.546,0.038,2.353c0,0.809-0.017,1.587-0.039,2.355l-0.012,0.381l-0.262,0.276
		c-0.526,0.558-1.062,1.119-1.634,1.689c-0.564,0.563-1.125,1.107-1.687,1.635l-0.276,0.26l-0.379,0.012
		C51.653,56.556,50.874,56.573,50.064,56.573z M48.145,54.544c1.255,0.035,2.585,0.035,3.84,0c0.454-0.432,0.91-0.876,1.368-1.333
		c0.462-0.461,0.9-0.917,1.33-1.37c0.017-0.626,0.028-1.261,0.028-1.916c0-0.654-0.012-1.289-0.027-1.915
		c-0.431-0.453-0.871-0.909-1.333-1.372c-0.458-0.458-0.914-0.901-1.368-1.333c-1.254-0.031-2.583-0.032-3.837,0
		c-0.454,0.432-0.909,0.875-1.367,1.333c-0.464,0.464-0.905,0.921-1.336,1.375c-0.017,0.625-0.028,1.258-0.028,1.912
		c0,0.654,0.012,1.289,0.028,1.915c0.43,0.453,0.87,0.909,1.333,1.372C47.234,53.67,47.69,54.112,48.145,54.544z M40.96,56.051
		l-1.21-0.173c-0.458-0.065-0.896-0.139-1.33-0.211l-1.576-0.263l0.925-1.303c0.256-0.361,0.516-0.723,0.794-1.093l0.735-0.977
		l1.538,1.71L40.96,56.051z M59.171,56.043l0.122-2.293l1.538-1.721l0.736,0.98c0.249,0.331,0.483,0.656,0.714,0.978l1.016,1.413
		l-1.716,0.286c-0.394,0.066-0.791,0.132-1.205,0.189L59.171,56.043z M66.056,54.752l-0.404-0.606
		c-0.792-1.188-1.669-2.399-2.607-3.604l-0.479-0.614l0.479-0.615c0.931-1.195,1.809-2.409,2.609-3.609l0.404-0.605l0.701,0.199
		c2.245,0.637,7.468,2.364,7.468,4.627c0,2.267-5.225,3.993-7.471,4.63L66.056,54.752z M65.095,49.927
		c0.635,0.835,1.239,1.671,1.808,2.498c3.456-1.055,4.861-2.084,5.243-2.501c-0.382-0.417-1.787-1.444-5.241-2.5
		C66.332,48.258,65.727,49.096,65.095,49.927z M34.073,54.752l-0.7-0.199c-2.246-0.637-7.47-2.363-7.47-4.63
		c0-2.263,5.222-3.99,7.467-4.627l0.701-0.199l0.404,0.606c0.795,1.193,1.673,2.407,2.61,3.609l0.479,0.615l-0.479,0.615
		c-0.924,1.186-1.801,2.397-2.607,3.604L34.073,54.752z M27.984,49.923c0.382,0.417,1.787,1.447,5.244,2.502
		c0.573-0.837,1.178-1.673,1.807-2.499c-0.634-0.834-1.24-1.672-1.81-2.503C29.771,48.479,28.366,49.506,27.984,49.923z
		 M39.3,47.827l-0.738-0.983c-0.276-0.368-0.533-0.727-0.787-1.083l-0.93-1.302l1.571-0.275c0.441-0.074,0.878-0.147,1.336-0.211
		l1.217-0.17l-0.081,1.226c-0.009,0.131-0.014,0.264-0.019,0.396l-0.034,0.682L39.3,47.827z M60.832,47.823l-1.541-1.72l-0.124-2.3
		l1.21,0.169c0.455,0.063,0.89,0.136,1.322,0.208l1.576,0.264l-0.912,1.305c-0.257,0.361-0.516,0.723-0.795,1.095L60.832,47.823z
		 M64.786,42.029l-0.714-0.143c-1.411-0.281-2.89-0.519-4.396-0.706l-0.774-0.096l-0.095-0.774
		c-0.184-1.486-0.422-2.972-0.709-4.414l-0.143-0.713l0.635-0.355c2.012-1.125,4.857-2.467,6.995-2.467
		c0.726,0,1.253,0.162,1.569,0.482c1.596,1.601-0.877,6.512-2.014,8.549L64.786,42.029z M60.691,39.296
		c1.036,0.141,2.056,0.305,3.048,0.49c1.647-3.095,1.947-4.807,1.94-5.422c-0.029-0.001-0.061-0.002-0.095-0.002
		c-1.201,0-3.14,0.675-5.387,1.868C60.387,37.239,60.552,38.266,60.691,39.296z M35.34,42.028l-0.354-0.635
		c-1.137-2.039-3.608-6.953-2.005-8.554c0.316-0.317,0.843-0.478,1.563-0.478c2.139,0,4.983,1.341,6.993,2.467l0.634,0.355
		l-0.142,0.713c-0.284,1.427-0.523,2.913-0.709,4.415l-0.096,0.774l-0.774,0.096c-1.48,0.183-2.959,0.42-4.396,0.706L35.34,42.028z
		 M34.449,34.364c-0.007,0.613,0.291,2.324,1.938,5.422c1.004-0.187,2.024-0.351,3.048-0.49c0.141-1.037,0.306-2.063,0.493-3.066
		c-2.244-1.192-4.182-1.867-5.384-1.867C34.51,34.362,34.478,34.362,34.449,34.364z M56.193,40.833L54.96,40.75
		c-0.14-0.009-0.279-0.015-0.42-0.021l-0.641-0.03l-1.729-1.545l0.977-0.731c0.367-0.276,0.731-0.545,1.092-0.802l1.306-0.932
		l0.262,1.583c0.072,0.438,0.145,0.877,0.212,1.338L56.193,40.833z M43.937,40.828l0.174-1.217c0.066-0.462,0.138-0.905,0.211-1.343
		l0.266-1.581l1.303,0.935c0.359,0.258,0.723,0.526,1.09,0.801l0.978,0.732l-1.727,1.543L43.937,40.828z M50.064,37.425
		l-0.614-0.479c-1.254-0.977-2.467-1.855-3.605-2.61l-0.609-0.404l0.2-0.703c0.637-2.245,2.363-7.466,4.629-7.466
		c2.265,0,3.992,5.221,4.628,7.466l0.199,0.702l-0.607,0.404c-1.153,0.767-2.366,1.646-3.605,2.611L50.064,37.425z M47.563,33.083
		c0.807,0.552,1.644,1.159,2.501,1.812c0.851-0.648,1.688-1.254,2.5-1.812c-1.056-3.456-2.084-4.859-2.5-5.239
		C49.647,28.224,48.619,29.627,47.563,33.083z"/>
</g>
</svg>
