<?xml version="1.0" encoding="utf-8"?>
<!-- Generator: Adobe Illustrator 16.0.0, SVG Export Plug-In . SVG Version: 6.00 Build 0)  -->
<!DOCTYPE svg PUBLIC "-//W3C//DTD SVG 1.1//EN" "http://www.w3.org/Graphics/SVG/1.1/DTD/svg11.dtd">
<svg version="1.1" id="Layer_1" xmlns="http://www.w3.org/2000/svg" xmlns:xlink="http://www.w3.org/1999/xlink" x="0px" y="0px"
	 width="100px" height="100px" viewBox="0 0 100 100" enable-background="new 0 0 100 100" xml:space="preserve">
<path d="M76.865,22.852c-0.265-0.188-0.604-0.237-0.907-0.13l-16.979,5.887l-16.978-5.887c-0.216-0.075-0.446-0.07-0.655,0.004
	c-0.21-0.074-0.44-0.079-0.655-0.004l-17.305,6c-0.402,0.14-0.672,0.519-0.672,0.945v46.667c0,0.324,0.157,0.627,0.42,0.814
	c0.171,0.123,0.375,0.186,0.58,0.186c0.11,0,0.221-0.018,0.328-0.055l17.305-6l17.306,6c0.004,0,0.008,0,0.012,0.002
	c0.103,0.033,0.208,0.053,0.315,0.053s0.213-0.02,0.315-0.053c0.004-0.002,0.008-0.002,0.012-0.002l17.306-6
	c0.403-0.141,0.673-0.52,0.673-0.945V23.667C77.285,23.343,77.129,23.04,76.865,22.852z M40.02,69.621l-15.305,5.307V30.379
	l15.305-5.307V69.621z M42.674,25.072l15.305,5.307v44.549l-15.305-5.307V25.072z M75.285,69.621l-15.306,5.307V30.379l15.306-5.307
	V69.621z"/>
</svg>
