<?xml version="1.0" encoding="utf-8"?>
<!-- Generator: Adobe Illustrator 17.0.0, SVG Export Plug-In . SVG Version: 6.00 Build 0)  -->
<!DOCTYPE svg PUBLIC "-//W3C//DTD SVG 1.1//EN" "http://www.w3.org/Graphics/SVG/1.1/DTD/svg11.dtd">
<svg version="1.1" id="Layer_1" xmlns="http://www.w3.org/2000/svg" xmlns:xlink="http://www.w3.org/1999/xlink" x="0px" y="0px"
	 width="100px" height="100px" viewBox="0 0 100 100" enable-background="new 0 0 100 100" xml:space="preserve">
<g>
	<path d="M50,81c-17.093,0-31-13.906-31-31c0-17.093,13.907-31,31-31s31,13.906,31,31C81,67.094,67.094,81,50,81z M50,21
		C34.01,21,21,34.01,21,50S34.01,79,50,79s29-13.01,29-29S65.991,21,50,21z"/>
</g>
<g>
	<path d="M50,66c-8.822,0-16-7.178-16-16s7.178-16,16-16c8.822,0,16,7.177,16,16S58.822,66,50,66z M50,36c-7.72,0-14,6.28-14,14
		c0,7.72,6.28,14,14,14c7.719,0,14-6.28,14-14C64,42.281,57.719,36,50,36z"/>
</g>
<g>
	<g>
		<path d="M44.318,54.142c0-2.122,1.269-3.625,3.34-4.504l-0.027-0.078c-1.863-0.881-2.666-2.331-2.666-3.779
			c0-2.666,2.253-4.478,5.203-4.478c3.26,0,4.891,2.044,4.891,4.141c0,1.425-0.698,2.95-2.769,3.935v0.078
			c2.097,0.828,3.391,2.303,3.391,4.348c0,2.925-2.51,4.891-5.72,4.891C46.441,58.697,44.318,56.6,44.318,54.142z M53.378,54.037
			c0-2.044-1.425-3.026-3.701-3.673c-1.968,0.569-3.028,1.863-3.028,3.467c-0.078,1.709,1.216,3.21,3.364,3.21
			C52.057,57.04,53.378,55.771,53.378,54.037z M47.115,45.626c0,1.682,1.269,2.588,3.21,3.106c1.448-0.493,2.563-1.528,2.563-3.054
			c0-1.347-0.803-2.744-2.847-2.744C48.15,42.935,47.115,44.176,47.115,45.626z"/>
	</g>
</g>
</svg>
