<?xml version="1.0" encoding="utf-8"?>
<!-- Generator: Adobe Illustrator 16.0.0, SVG Export Plug-In . SVG Version: 6.00 Build 0)  -->
<!DOCTYPE svg PUBLIC "-//W3C//DTD SVG 1.1//EN" "http://www.w3.org/Graphics/SVG/1.1/DTD/svg11.dtd">
<svg version="1.1" id="Layer_1" xmlns="http://www.w3.org/2000/svg" xmlns:xlink="http://www.w3.org/1999/xlink" x="0px" y="0px"
	 width="100px" height="100px" viewBox="0 0 100 100" enable-background="new 0 0 100 100" xml:space="preserve">
<g>
	<g>
		<path d="M51.367,81.395c-17.118,0-31.044-13.927-31.044-31.044c0-17.117,13.926-31.042,31.044-31.042
			c11.838,0,22.82,6.906,27.979,17.594c2.034,4.217,3.065,8.741,3.065,13.448C82.412,67.468,68.485,81.395,51.367,81.395z
			 M51.367,21.308c-16.015,0-29.044,13.028-29.044,29.042c0,16.015,13.029,29.044,29.044,29.044
			c16.016,0,29.045-13.029,29.045-29.044c0-4.403-0.965-8.636-2.866-12.579C72.718,27.77,62.442,21.308,51.367,21.308z"/>
	</g>
	<g>
		<g>
			<path d="M53.23,66.818l-0.193-0.004c-1.483-0.083-2.759-1.096-3.176-2.52l-2.419-8.267l-8.896-1.766
				c-1.46-0.287-2.583-1.474-2.792-2.952c-0.209-1.475,0.54-2.926,1.863-3.61l24.45-12.664c1.279-0.663,2.927-0.443,3.991,0.533
				c1.082,0.995,1.43,2.575,0.868,3.931L56.475,64.654C55.925,65.97,54.651,66.818,53.23,66.818z M63.68,36.643
				c-0.239,0-0.479,0.059-0.692,0.169L38.536,49.477c-0.57,0.294-0.892,0.918-0.802,1.553c0.09,0.637,0.572,1.147,1.199,1.271
				l10.087,2.001l2.759,9.431c0.18,0.613,0.729,1.05,1.368,1.086h0.082c0.612,0,1.16-0.366,1.397-0.934l10.45-25.15
				c0.242-0.583,0.092-1.264-0.373-1.692C64.424,36.785,64.06,36.643,63.68,36.643z"/>
		</g>
	</g>
</g>
</svg>
