<?xml version="1.0" encoding="utf-8"?>
<!-- Generator: Adobe Illustrator 17.0.0, SVG Export Plug-In . SVG Version: 6.00 Build 0)  -->
<!DOCTYPE svg PUBLIC "-//W3C//DTD SVG 1.1//EN" "http://www.w3.org/Graphics/SVG/1.1/DTD/svg11.dtd">
<svg version="1.1" id="Layer_1" xmlns="http://www.w3.org/2000/svg" xmlns:xlink="http://www.w3.org/1999/xlink" x="0px" y="0px"
	 width="100px" height="100px" viewBox="0 0 100 100" enable-background="new 0 0 100 100" xml:space="preserve">
<g>
	<path d="M72.721,76.148H27.278c-1.84,0-3.338-1.498-3.338-3.339V34.819c0-1.84,1.498-3.338,3.338-3.338h9.121v-4.634
		c0-1.411,1.148-2.559,2.559-2.559h22.084c1.41,0,2.558,1.148,2.558,2.559v4.634h9.122c0.892,0,1.729,0.347,2.36,0.978
		c0.63,0.63,0.978,1.469,0.977,2.361v37.99C76.059,74.65,74.562,76.148,72.721,76.148z M27.278,33.481
		c-0.738,0-1.338,0.6-1.338,1.338V72.81c0,0.738,0.6,1.339,1.338,1.339h45.443c0.737,0,1.338-0.601,1.338-1.339V34.819
		c0-0.358-0.139-0.693-0.392-0.946c-0.252-0.252-0.588-0.392-0.945-0.392H61.6v-6.634c0-0.308-0.25-0.559-0.558-0.559H38.958
		c-0.308,0-0.559,0.251-0.559,0.559v6.634H27.278z M52.428,65.079h-4.859v-8.835h-8.833v-4.857h8.833v-8.834h4.859v8.834h8.834
		v4.857h-8.834V65.079z M49.569,63.079h0.859v-7.056c0-0.981,0.798-1.779,1.779-1.779h7.055v-0.857h-7.055
		c-0.981,0-1.779-0.798-1.779-1.778v-7.056h-0.859v7.056c0,0.98-0.797,1.778-1.778,1.778h-7.055v0.857h7.055
		c0.98,0,1.778,0.798,1.778,1.779V63.079z M60.484,33.301H39.516v-5.896h20.968V33.301z M41.516,31.301h16.968v-1.896H41.516V31.301
		z"/>
</g>
</svg>
