<?xml version="1.0" encoding="utf-8"?>
<!-- Generator: Adobe Illustrator 17.0.0, SVG Export Plug-In . SVG Version: 6.00 Build 0)  -->
<!DOCTYPE svg PUBLIC "-//W3C//DTD SVG 1.1//EN" "http://www.w3.org/Graphics/SVG/1.1/DTD/svg11.dtd">
<svg version="1.1" id="Layer_1" xmlns="http://www.w3.org/2000/svg" xmlns:xlink="http://www.w3.org/1999/xlink" x="0px" y="0px"
	 width="100px" height="100px" viewBox="0 0 100 100" enable-background="new 0 0 100 100" xml:space="preserve">
<g>
	<path d="M74.64,69.587H62.29L62.289,45.06c0-5.55-5.531-10.604-11.604-10.604c-6.073,0-11.604,5.054-11.604,10.604v24.527h-12.35
		V48.14h6.586v-3.08c0-8.719,8.115-16.367,17.367-16.367c9.252,0,17.368,7.648,17.368,16.367v3.08h6.588V69.587z M64.29,67.587h8.35
		V50.14h-6.588v-5.08c0-7.653-7.182-14.367-15.368-14.367c-8.186,0-15.367,6.714-15.367,14.367v5.08h-6.586v17.447h8.35V45.06
		c0-6.714,6.357-12.604,13.604-12.604c7.247,0,13.604,5.89,13.604,12.604L64.29,67.587z"/>
</g>
</svg>
