<?xml version="1.0" encoding="utf-8"?>
<!-- Generator: Adobe Illustrator 17.0.0, SVG Export Plug-In . SVG Version: 6.00 Build 0)  -->
<!DOCTYPE svg PUBLIC "-//W3C//DTD SVG 1.1//EN" "http://www.w3.org/Graphics/SVG/1.1/DTD/svg11.dtd">
<svg version="1.1" id="Layer_1" xmlns="http://www.w3.org/2000/svg" xmlns:xlink="http://www.w3.org/1999/xlink" x="0px" y="0px"
	 width="100px" height="100px" viewBox="0 0 100 100" enable-background="new 0 0 100 100" xml:space="preserve">
<path d="M45.952,48.059h-6.244v6.243h6.244V48.059z M43.952,52.302h-2.244v-2.243h2.244V52.302z"/>
<path d="M45.952,62.087h-6.244v6.243h6.244V62.087z M43.952,66.33h-2.244v-2.243h2.244V66.33z"/>
<path d="M39.708,40.274h6.244v-6.243h-6.244V40.274z M41.708,36.031h2.244v2.243h-2.244V36.031z"/>
<path d="M32.421,29.139v14.027v2v12.028v2v14.027h42.001V59.194v-2V45.167v-2V29.139H32.421z M72.422,71.222H34.421V59.194h38.001
	V71.222z M72.422,57.194H34.421V45.167h38.001V57.194z M34.421,43.167V31.139h38.001v12.027H34.421z"/>
</svg>
