<?xml version="1.0" encoding="utf-8"?>
<!-- Generator: Adobe Illustrator 17.0.0, SVG Export Plug-In . SVG Version: 6.00 Build 0)  -->
<!DOCTYPE svg PUBLIC "-//W3C//DTD SVG 1.1//EN" "http://www.w3.org/Graphics/SVG/1.1/DTD/svg11.dtd">
<svg version="1.1" id="Layer_1" xmlns="http://www.w3.org/2000/svg" xmlns:xlink="http://www.w3.org/1999/xlink" x="0px" y="0px"
	 width="100px" height="100px" viewBox="0 0 100 100" enable-background="new 0 0 100 100" xml:space="preserve">
<g>
	<path d="M50,80c-17.093,0-31-13.906-31-31s13.907-31,31-31s31,13.906,31,31S67.093,80,50,80z M50,20c-15.991,0-29,13.01-29,29
		s13.009,29,29,29s29-13.01,29-29S65.991,20,50,20z"/>
</g>
<g>
	<path d="M51.881,33.75c0.05,1.515-1.06,2.726-2.826,2.726c-1.564,0-2.675-1.211-2.675-2.726c0-1.563,1.161-2.775,2.775-2.775
		C50.821,30.975,51.881,32.187,51.881,33.75z M46.936,65.036V40.613h4.44v24.423H46.936z"/>
</g>
</svg>
