<?xml version="1.0" encoding="utf-8"?>
<!-- Generator: Adobe Illustrator 17.0.0, SVG Export Plug-In . SVG Version: 6.00 Build 0)  -->
<!DOCTYPE svg PUBLIC "-//W3C//DTD SVG 1.1//EN" "http://www.w3.org/Graphics/SVG/1.1/DTD/svg11.dtd">
<svg version="1.1" id="Layer_1" xmlns="http://www.w3.org/2000/svg" xmlns:xlink="http://www.w3.org/1999/xlink" x="0px" y="0px"
	 width="100px" height="100px" viewBox="0 0 100 100" enable-background="new 0 0 100 100" xml:space="preserve">
<g>
	<g>
		<path d="M68.273,77.23h-30.88c-1.84,0-3.337-1.497-3.337-3.338V47.602c-0.637-0.128-1.223-0.441-1.694-0.913l-7.707-7.706
			c-0.63-0.63-0.978-1.469-0.978-2.36c0-0.892,0.347-1.729,0.978-2.359l10.078-10.079c0.622-0.622,1.481-0.978,2.359-0.978h7.706
			c1.84,0,3.337,1.497,3.337,3.337v0.892c0.605,1.245,1.888,2.251,3.484,2.729h4.202c1.597-0.477,2.879-1.483,3.483-2.729v-0.893
			c0-1.84,1.497-3.337,3.337-3.337h7.706c0.892,0,1.729,0.348,2.359,0.979l10.077,10.079c0.63,0.629,0.978,1.467,0.978,2.359
			c0,0.891-0.347,1.729-0.978,2.36l-7.707,7.706c-0.902,0.902-2.303,1.199-3.467,0.791v26.414c0.001,0.891-0.347,1.729-0.977,2.359
			C70.003,76.883,69.165,77.23,68.273,77.23z M36.056,45.485v28.408c0,0.737,0.6,1.338,1.337,1.338h30.88
			c0.357,0,0.693-0.139,0.946-0.392c0.252-0.253,0.391-0.588,0.391-0.944V43.117l2.161,2.157c0.506,0.506,1.385,0.506,1.892,0.001
			l7.707-7.706c0.253-0.253,0.392-0.589,0.392-0.946s-0.139-0.692-0.391-0.944l-10.078-10.08c-0.253-0.253-0.589-0.392-0.945-0.392
			h-7.706c-0.737,0-1.337,0.6-1.337,1.337v1.313l-0.08,0.188c-0.815,1.914-2.683,3.44-4.995,4.083l-0.268,0.037l-4.753-0.037
			c-2.31-0.644-4.177-2.17-4.994-4.083l-0.081-0.188v-1.313c0-0.737-0.6-1.337-1.337-1.337h-7.706c-0.351,0-0.695,0.143-0.945,0.392
			L26.069,35.678c-0.252,0.252-0.392,0.588-0.392,0.945c0,0.357,0.139,0.693,0.392,0.946l7.707,7.706
			c0.3,0.3,0.722,0.441,1.134,0.379L36.056,45.485z"/>
	</g>
</g>
</svg>
