<?xml version="1.0" encoding="utf-8"?>
<!-- Generator: Adobe Illustrator 17.0.0, SVG Export Plug-In . SVG Version: 6.00 Build 0)  -->
<!DOCTYPE svg PUBLIC "-//W3C//DTD SVG 1.1//EN" "http://www.w3.org/Graphics/SVG/1.1/DTD/svg11.dtd">
<svg version="1.1" id="Layer_1" xmlns="http://www.w3.org/2000/svg" xmlns:xlink="http://www.w3.org/1999/xlink" x="0px" y="0px"
	 width="100px" height="100px" viewBox="0 0 100 100" enable-background="new 0 0 100 100" xml:space="preserve">
<path d="M73.744,26.11c-0.873-0.799-2.229-0.979-3.275-0.436l-36.026,18.66c-1.084,0.562-1.698,1.754-1.526,2.963
	c0.171,1.212,1.092,2.186,2.292,2.423l14.468,2.866l3.955,13.513c0.342,1.171,1.39,2.003,2.634,2.071l0.132,0.002
	c1.169,0,2.214-0.697,2.662-1.776L74.454,29.34C74.919,28.226,74.634,26.929,73.744,26.11z M35.597,47.758
	c-0.367-0.073-0.648-0.37-0.7-0.741c-0.053-0.371,0.135-0.735,0.466-0.907l35.612-18.445L50.106,50.632L35.597,47.758z
	 M57.212,65.629c-0.137,0.33-0.457,0.543-0.814,0.543h-0.049c-0.372-0.021-0.692-0.275-0.797-0.635L51.584,51.98l20.817-22.911
	L57.212,65.629z"/>
</svg>
