<?xml version="1.0" encoding="utf-8"?>
<!-- Generator: Adobe Illustrator 17.0.0, SVG Export Plug-In . SVG Version: 6.00 Build 0)  -->
<!DOCTYPE svg PUBLIC "-//W3C//DTD SVG 1.1//EN" "http://www.w3.org/Graphics/SVG/1.1/DTD/svg11.dtd">
<svg version="1.1" id="Layer_1" xmlns="http://www.w3.org/2000/svg" xmlns:xlink="http://www.w3.org/1999/xlink" x="0px" y="0px"
	 width="100px" height="100px" viewBox="0 0 100 100" enable-background="new 0 0 100 100" xml:space="preserve">
<g>
	<path d="M51.845,20.625c0.512,0,1.017,0.098,1.499,0.29c0.545,0.23,0.981,0.524,1.354,0.906L65.58,32.702
		c0.756,0.759,1.171,1.763,1.171,2.828s-0.414,2.068-1.165,2.824c-1.522,1.517-4.153,1.514-5.664,0.011l-4.076-4.078v32.576
		c0,2.207-1.795,4.003-4.002,4.003c-2.206,0-4-1.796-4-4.003V34.286L43.77,38.36c-1.519,1.509-4.148,1.506-5.657,0.003
		c-0.759-0.761-1.175-1.767-1.175-2.834c0-1.069,0.416-2.074,1.173-2.829l10.906-10.902c0.352-0.362,0.807-0.667,1.304-0.869
		C50.809,20.728,51.323,20.625,51.845,20.625z M62.747,37.529c0.538,0,1.044-0.209,1.425-0.589c0.373-0.374,0.58-0.877,0.58-1.41
		s-0.208-1.035-0.586-1.415L53.277,23.228c-0.193-0.197-0.417-0.346-0.693-0.463c-0.456-0.182-1.007-0.189-1.505,0.015
		c-0.247,0.101-0.466,0.246-0.637,0.422L39.524,34.115c-0.378,0.378-0.586,0.88-0.586,1.414s0.209,1.039,0.589,1.42
		c0.75,0.746,2.074,0.746,2.832-0.006l7.485-7.485v37.405c0,1.104,0.897,2.003,2,2.003c1.104,0,2.002-0.898,2.002-2.003V29.457
		l7.489,7.492C61.71,37.322,62.212,37.529,62.747,37.529z"/>
</g>
<g>
	<polygon points="76.667,81.875 26.833,81.875 26.833,61.998 28.833,61.998 28.833,79.875 74.667,79.875 74.667,61.998 
		76.667,61.998 	"/>
</g>
</svg>
