<?xml version="1.0" encoding="utf-8"?>
<!-- Generator: Adobe Illustrator 17.0.0, SVG Export Plug-In . SVG Version: 6.00 Build 0)  -->
<!DOCTYPE svg PUBLIC "-//W3C//DTD SVG 1.1//EN" "http://www.w3.org/Graphics/SVG/1.1/DTD/svg11.dtd">
<svg version="1.1" id="Layer_1" xmlns="http://www.w3.org/2000/svg" xmlns:xlink="http://www.w3.org/1999/xlink" x="0px" y="0px"
	 width="100px" height="100px" viewBox="0 0 100 100" enable-background="new 0 0 100 100" xml:space="preserve">
<g>
	<path d="M82.075,79.313H15.304V26.822h66.771V79.313z M17.304,77.313h62.771V28.822H17.304V77.313z"/>
</g>
<g>
	<path d="M37.464,68.478H23V54.014h14.464V68.478z M25,66.478h10.464V56.014H25V66.478z"/>
</g>
<g>
	<path d="M30.232,50.065c-3.988,0-7.232-3.244-7.232-7.232s3.244-7.232,7.232-7.232s7.232,3.244,7.232,7.232
		S34.22,50.065,30.232,50.065z M30.232,37.602c-2.885,0-5.232,2.347-5.232,5.232s2.347,5.232,5.232,5.232s5.232-2.347,5.232-5.232
		S33.117,37.602,30.232,37.602z"/>
</g>
<g>
	<rect x="50" y="35.602" width="24" height="2"/>
</g>
<g>
	<rect x="50" y="45.602" width="24" height="2"/>
</g>
<g>
	<rect x="50" y="55.602" width="24" height="2"/>
</g>
<g>
	<rect x="50" y="65.602" width="24" height="2"/>
</g>
</svg>
