<?xml version="1.0" encoding="utf-8"?>
<!-- Generator: Adobe Illustrator 17.0.0, SVG Export Plug-In . SVG Version: 6.00 Build 0)  -->
<!DOCTYPE svg PUBLIC "-//W3C//DTD SVG 1.1//EN" "http://www.w3.org/Graphics/SVG/1.1/DTD/svg11.dtd">
<svg version="1.1" id="Layer_1" xmlns="http://www.w3.org/2000/svg" xmlns:xlink="http://www.w3.org/1999/xlink" x="0px" y="0px"
	 width="100px" height="100px" viewBox="0 0 100 100" enable-background="new 0 0 100 100" xml:space="preserve">
<g>
	<g>
		<path d="M75.15,83.579h-48.3c-0.989,0-1.92-0.435-2.556-1.193c-0.636-0.754-0.903-1.746-0.731-2.723l6.099-34.641
			c0.28-1.598,1.662-2.758,3.286-2.758h15.447v-0.645h-18.13c-1.84,0-3.337-1.498-3.337-3.338v-9.758
			c0-1.839,1.497-3.336,3.337-3.336s3.337,1.497,3.337,3.336v6.422h36.26v-6.422c0-1.839,1.497-3.336,3.337-3.336
			s3.337,1.497,3.337,3.336v9.758c0,1.841-1.497,3.338-3.337,3.338h-18.13v0.645h13.737c1.612,0,2.993,1.15,3.283,2.736
			l6.343,34.639c0.179,0.975-0.083,1.973-0.718,2.737C77.076,83.142,76.142,83.579,75.15,83.579z M32.948,44.264
			c-0.65,0-1.204,0.464-1.316,1.104l-6.099,34.643c-0.069,0.39,0.038,0.786,0.292,1.088c0.257,0.306,0.63,0.48,1.026,0.48h48.3
			c0.396,0,0.771-0.176,1.027-0.482c0.254-0.306,0.359-0.707,0.288-1.099L70.123,45.36c-0.116-0.635-0.67-1.096-1.316-1.096H53.069
			v-4.645h20.13c0.737,0,1.337-0.601,1.337-1.338v-9.758c0-0.737-0.6-1.336-1.337-1.336s-1.337,0.599-1.337,1.336v8.422h-40.26
			v-8.422c0-0.737-0.6-1.336-1.337-1.336s-1.337,0.599-1.337,1.336v9.758c0,0.738,0.6,1.338,1.337,1.338h20.13v4.645H32.948z"/>
	</g>
	<g>
		<path d="M51,70.488c-4.71,0-8.542-3.832-8.542-8.543c0-3.677,2.368-6.927,5.893-8.086l1.312-0.432v8.518
			c0,0.736,0.6,1.336,1.337,1.336s1.337-0.6,1.337-1.336v-8.518l1.312,0.432c3.524,1.159,5.893,4.409,5.893,8.086
			C59.542,66.656,55.71,70.488,51,70.488z M47.663,56.354c-1.961,1.159-3.205,3.264-3.205,5.591c0,3.607,2.935,6.543,6.542,6.543
			s6.542-2.936,6.542-6.543c0-2.327-1.244-4.432-3.205-5.591v5.591c0,1.84-1.497,3.336-3.337,3.336s-3.337-1.496-3.337-3.336V56.354
			z"/>
	</g>
</g>
</svg>
