<?xml version="1.0" encoding="utf-8"?>
<!-- Generator: Adobe Illustrator 17.0.0, SVG Export Plug-In . SVG Version: 6.00 Build 0)  -->
<!DOCTYPE svg PUBLIC "-//W3C//DTD SVG 1.1//EN" "http://www.w3.org/Graphics/SVG/1.1/DTD/svg11.dtd">
<svg version="1.1" id="Layer_1" xmlns="http://www.w3.org/2000/svg" xmlns:xlink="http://www.w3.org/1999/xlink" x="0px" y="0px"
	 width="100px" height="100px" viewBox="0 0 100 100" enable-background="new 0 0 100 100" xml:space="preserve">
<path d="M19,50c0,17.093,13.907,31,31,31c17.094,0,31-13.907,31-31c0-17.094-13.906-31-31-31C32.907,19,19,32.906,19,50z M79,50
	c0,15.991-13.01,29-29,29c-15.991,0-29-13.009-29-29c0-15.654,12.47-28.444,27.998-28.975l-0.063,32.44l-5.629-5.629l-1.414,1.414
	l8.038,8.038l8.178-8.178l-1.414-1.414l-5.76,5.759l0.064-32.431C66.527,21.554,79,34.344,79,50z"/>
</svg>
