<?xml version="1.0" encoding="utf-8"?>
<!-- Generator: Adobe Illustrator 16.0.0, SVG Export Plug-In . SVG Version: 6.00 Build 0)  -->
<!DOCTYPE svg PUBLIC "-//W3C//DTD SVG 1.1//EN" "http://www.w3.org/Graphics/SVG/1.1/DTD/svg11.dtd">
<svg version="1.1" id="Layer_1" xmlns="http://www.w3.org/2000/svg" xmlns:xlink="http://www.w3.org/1999/xlink" x="0px" y="0px"
	 width="100px" height="100px" viewBox="0 0 100 100" enable-background="new 0 0 100 100" xml:space="preserve">
<g>
	<g>
		<g>
			<path d="M51.13,84.131c-0.88,0-1.709-0.343-2.334-0.966L18.4,52.769c-0.614-0.613-0.967-1.464-0.967-2.334
				c0-0.882,0.343-1.711,0.967-2.335l30.396-30.395c1.248-1.247,3.42-1.249,4.669,0l30.396,30.395
				c0.614,0.616,0.967,1.467,0.967,2.335c0,0.87-0.353,1.72-0.967,2.334L53.465,83.164C52.838,83.788,52.01,84.131,51.13,84.131z
				 M51.131,18.737c-0.348,0-0.675,0.135-0.921,0.382L19.814,49.513c-0.246,0.246-0.381,0.573-0.381,0.921
				c0,0.343,0.139,0.678,0.381,0.919L50.209,81.75c0.492,0.489,1.348,0.493,1.844-0.002l30.395-30.394
				c0.242-0.242,0.381-0.577,0.381-0.92c0-0.343-0.139-0.679-0.382-0.921L52.051,19.119C51.805,18.873,51.478,18.737,51.131,18.737z
				"/>
		</g>
	</g>
	<g>
		<path d="M42.05,64.231c-1.822,0-3.304-1.481-3.304-3.303V46.344c0-1.821,1.482-3.303,3.304-3.303h10.171l-0.769-0.769
			c-1.288-1.288-1.288-3.382,0-4.67c1.247-1.249,3.427-1.249,4.671,0l6.422,6.422c1.288,1.286,1.289,3.381,0.002,4.669l-5.949,5.95
			c-1.252,1.25-3.415,1.248-4.669,0.002c-1.287-1.287-1.288-3.382-0.002-4.672l0.327-0.327h-6.901v11.282
			C45.353,62.75,43.871,64.231,42.05,64.231z M42.05,45.041c-0.719,0-1.304,0.584-1.304,1.303v14.584
			c0,0.719,0.585,1.303,1.304,1.303s1.303-0.584,1.303-1.303V47.646h13.733l-3.744,3.74c-0.507,0.509-0.508,1.336,0,1.843
			c0.493,0.49,1.346,0.493,1.843-0.001l5.948-5.948c0.507-0.507,0.506-1.333-0.002-1.841l-6.422-6.423
			c-0.491-0.493-1.35-0.493-1.843,0c-0.508,0.508-0.508,1.334,0,1.842l4.185,4.183H42.05z"/>
	</g>
</g>
</svg>
