<?xml version="1.0" encoding="utf-8"?>
<!-- Generator: Adobe Illustrator 17.0.0, SVG Export Plug-In . SVG Version: 6.00 Build 0)  -->
<!DOCTYPE svg PUBLIC "-//W3C//DTD SVG 1.1//EN" "http://www.w3.org/Graphics/SVG/1.1/DTD/svg11.dtd">
<svg version="1.1" id="Layer_1" xmlns="http://www.w3.org/2000/svg" xmlns:xlink="http://www.w3.org/1999/xlink" x="0px" y="0px"
	 width="100px" height="100px" viewBox="0 0 100 100" enable-background="new 0 0 100 100" xml:space="preserve">
<g>
	<polygon points="44.333,42.658 41.417,42.658 41.417,31.992 39.417,31.992 39.417,42.658 36.5,42.658 36.5,31.992 34.5,31.992 
		34.5,44.658 39.417,44.658 39.417,69.342 41.417,69.342 41.417,44.658 46.333,44.658 46.333,31.992 44.333,31.992 	"/>
	<path d="M57.5,32.612v-0.62h-2v37.35h2V51.667h8.544L57.5,32.612z M57.5,37.499l5.456,12.168H57.5V37.499z"/>
	<path d="M50,19.667c-17.093,0-31,13.907-31,31s13.907,31,31,31c17.094,0,31-13.906,31-31S67.094,19.667,50,19.667z M50,79.667
		c-15.991,0-29-13.01-29-29c0-15.991,13.009-29,29-29c15.99,0,29,13.01,29,29C79,66.657,65.99,79.667,50,79.667z"/>
</g>
</svg>
