<?xml version="1.0" encoding="utf-8"?>
<!-- Generator: Adobe Illustrator 17.0.0, SVG Export Plug-In . SVG Version: 6.00 Build 0)  -->
<!DOCTYPE svg PUBLIC "-//W3C//DTD SVG 1.1//EN" "http://www.w3.org/Graphics/SVG/1.1/DTD/svg11.dtd">
<svg version="1.1" id="Layer_1" xmlns="http://www.w3.org/2000/svg" xmlns:xlink="http://www.w3.org/1999/xlink" x="0px" y="0px"
	 width="100px" height="100px" viewBox="0 0 100 100" enable-background="new 0 0 100 100" xml:space="preserve">
<path d="M67.602,19.716c-6.499,0-12.548,1.953-17.602,5.294c-5.054-3.342-11.103-5.294-17.602-5.294c-17.645,0-32,14.355-32,32
	c0,12.174,6.834,22.779,16.866,28.187c4.509,2.431,9.663,3.813,15.134,3.813c5.911,0,11.448-1.617,16.204-4.423
	c0.476-0.281,0.938-0.582,1.398-0.886c0.801,0.53,1.618,1.038,2.467,1.496c4.509,2.431,9.663,3.813,15.134,3.813
	c5.911,0,11.448-1.617,16.204-4.423c9.443-5.57,15.796-15.843,15.796-27.578C99.602,34.071,85.246,19.716,67.602,19.716z
	 M82.873,75.167c-1.702-3.023-5.514-5.376-10.271-6.304v-3.527c0.911-0.565,1.739-1.305,2.475-2.169h5.274l-2-10.5h-0.012
	c-0.39-6.75-4.818-12.076-10.237-12.076c-1.864,0-3.604,0.642-5.109,1.743c-1.254,0.917-2.343,2.151-3.191,3.63
	c-1.094,1.909-1.793,4.207-1.937,6.703h-0.013l-2,10.5h2.082h3.193c0.257,0.301,0.528,0.581,0.807,0.85
	c0.52,0.503,1.075,0.951,1.668,1.319v3.528c-2.076,0.404-3.958,1.09-5.579,1.973c-2.291,1.247-4.046,2.899-4.957,4.802
	c-1.076-0.656-2.1-1.387-3.074-2.178c-0.746,0.604-1.516,1.18-2.321,1.706c-1.185-2.105-3.409-3.872-6.248-5.073
	c-1.237-0.523-2.579-0.95-4.023-1.231v-3.527c0.326-0.202,0.633-0.444,0.938-0.687c1.145-0.911,2.131-2.098,2.915-3.489
	c1.198-2.128,1.922-4.714,1.922-7.531c0-3.398-1.033-6.483-2.712-8.803c-0.918-1.269-2.028-2.305-3.277-3.034
	c-1.306-0.763-2.754-1.2-4.286-1.2c-5.675,0-10.275,5.837-10.275,13.038c0,5.15,2.359,9.589,5.775,11.707v3.528
	c-5.011,0.974-8.98,3.524-10.536,6.775C9.796,70.719,4.398,61.837,4.398,51.716c0-15.439,12.561-28,28-28
	c5.182,0,10.037,1.42,14.204,3.884c1.192,0.705,2.327,1.493,3.397,2.361c1.07-0.868,2.206-1.656,3.397-2.361
	c4.167-2.464,9.022-3.885,14.204-3.885c15.439,0,28,12.561,28,28C95.602,61.524,90.529,70.165,82.873,75.167z"/>
</svg>
