<?xml version="1.0" encoding="utf-8"?>
<!-- Generator: Adobe Illustrator 17.0.0, SVG Export Plug-In . SVG Version: 6.00 Build 0)  -->
<!DOCTYPE svg PUBLIC "-//W3C//DTD SVG 1.1//EN" "http://www.w3.org/Graphics/SVG/1.1/DTD/svg11.dtd">
<svg version="1.1" id="Layer_1" xmlns="http://www.w3.org/2000/svg" xmlns:xlink="http://www.w3.org/1999/xlink" x="0px" y="0px"
	 width="100px" height="100px" viewBox="0 0 100 100" enable-background="new 0 0 100 100" xml:space="preserve">
<path d="M62.333,31.918v2h5.737l-9.564,9.565c-8.231-7.486-21.007-7.278-28.956,0.672c-8.188,8.188-8.188,21.511,0,29.698
	c8.188,8.188,21.51,8.188,29.698,0c7.949-7.949,8.157-20.724,0.672-28.956l9.495-9.495v5.918h2v-9.402H62.333z M57.834,72.438
	c-7.408,7.408-19.462,7.408-26.87,0c-7.408-7.408-7.408-19.462,0-26.87c7.408-7.408,19.462-7.408,26.87,0
	C65.243,52.976,65.243,65.03,57.834,72.438z"/>
</svg>
