<?xml version="1.0" encoding="utf-8"?>
<!-- Generator: Adobe Illustrator 17.0.0, SVG Export Plug-In . SVG Version: 6.00 Build 0)  -->
<!DOCTYPE svg PUBLIC "-//W3C//DTD SVG 1.1//EN" "http://www.w3.org/Graphics/SVG/1.1/DTD/svg11.dtd">
<svg version="1.1" id="Layer_1" xmlns="http://www.w3.org/2000/svg" xmlns:xlink="http://www.w3.org/1999/xlink" x="0px" y="0px"
	 width="100px" height="100px" viewBox="0 0 100 100" enable-background="new 0 0 100 100" xml:space="preserve">
<g>
	<path d="M71.5,84.829h-42c-1.104,0-2-0.896-2-2l-3-30.425h-7.734c-0.809,0-1.538-0.487-1.848-1.235
		c-0.31-0.747-0.139-1.607,0.434-2.179l33.234-33.234c0.78-0.781,2.047-0.781,2.828,0L84.648,48.99
		c0.572,0.572,0.743,1.432,0.434,2.179c-0.31,0.748-1.039,1.235-1.848,1.235H75.5l-2,30.425C73.5,83.934,72.604,84.829,71.5,84.829z
		 M31.5,80.829h38l2-30.425c0-1.104,0.896-2,2-2h4.906L50,19.999L21.594,48.405H26.5c1.104,0,2,0.896,2,2L31.5,80.829z"/>
</g>
<g>
	<path d="M50,70.75c-5.928,0-10.75-4.822-10.75-10.75S44.072,49.25,50,49.25S60.75,54.072,60.75,60S55.928,70.75,50,70.75z
		 M50,53.25c-3.722,0-6.75,3.028-6.75,6.75s3.028,6.75,6.75,6.75c3.722,0,6.75-3.028,6.75-6.75S53.722,53.25,50,53.25z"/>
</g>
</svg>
