<?xml version="1.0" encoding="utf-8"?>
<!-- Generator: Adobe Illustrator 17.0.0, SVG Export Plug-In . SVG Version: 6.00 Build 0)  -->
<!DOCTYPE svg PUBLIC "-//W3C//DTD SVG 1.1//EN" "http://www.w3.org/Graphics/SVG/1.1/DTD/svg11.dtd">
<svg version="1.1" id="Layer_1" xmlns="http://www.w3.org/2000/svg" xmlns:xlink="http://www.w3.org/1999/xlink" x="0px" y="0px"
	 width="100px" height="100px" viewBox="0 0 100 100" enable-background="new 0 0 100 100" xml:space="preserve">
<path d="M81.049,45.847L50,37.706l-31.049,8.141l12.401,3.251v12.249c0,3.815,11.722,4.833,18.647,4.833
	c2.855,0,6.524-0.174,9.853-0.644v7.811h2v-8.14c3.829-0.73,6.795-1.941,6.795-3.86V49.098L81.049,45.847z M50,39.774l23.162,6.072
	l-12.249,3.211l-10.548-4.141l-0.73,1.861l7.998,3.14L50,51.918l-23.162-6.071L50,39.774z M50,64.18
	c-10.25,0-16.289-1.867-16.647-2.833V49.622L50,53.986l9.853-2.583v12.104C57.242,63.903,53.935,64.18,50,64.18z M66.652,61.311
	c-0.185,0.511-1.855,1.246-4.8,1.845V50.879l4.795-1.257L66.652,61.311z"/>
</svg>
