<?xml version="1.0" encoding="utf-8"?>
<!-- Generator: Adobe Illustrator 16.0.0, SVG Export Plug-In . SVG Version: 6.00 Build 0)  -->
<!DOCTYPE svg PUBLIC "-//W3C//DTD SVG 1.1//EN" "http://www.w3.org/Graphics/SVG/1.1/DTD/svg11.dtd">
<svg version="1.1" id="Layer_1" xmlns="http://www.w3.org/2000/svg" xmlns:xlink="http://www.w3.org/1999/xlink" x="0px" y="0px"
	 width="100px" height="100px" viewBox="0 0 100 100" enable-background="new 0 0 100 100" xml:space="preserve">
<g>
	<g>
		<path d="M50.315,82.682c-1.227,0-2.355-0.67-2.945-1.749l-5.535-10.114L30.771,74.06c-1.149,0.336-2.468,0.003-3.317-0.85
			c-0.868-0.864-1.193-2.137-0.847-3.317l3.239-11.062l-10.114-5.532c-1.079-0.591-1.749-1.72-1.749-2.946s0.669-2.355,1.748-2.946
			l10.115-5.532L26.607,30.81c-0.348-1.177-0.022-2.449,0.849-3.319c0.861-0.862,2.154-1.192,3.321-0.847l11.059,3.24l5.535-10.115
			c0.59-1.078,1.718-1.747,2.945-1.747c1.228,0,2.357,0.67,2.946,1.748l5.535,10.114l11.062-3.24
			c1.134-0.34,2.462-0.008,3.318,0.847c0.869,0.872,1.193,2.143,0.847,3.32l-3.238,11.062l10.114,5.532
			c1.078,0.592,1.746,1.721,1.746,2.948c0,1.225-0.668,2.354-1.744,2.945L70.784,58.83l3.239,11.062
			c0.348,1.179,0.022,2.451-0.849,3.319c-0.847,0.848-2.147,1.187-3.313,0.849l-11.065-3.242L53.26,80.934
			C52.672,82.012,51.543,82.682,50.315,82.682z M42.817,68.447l6.307,11.525c0.239,0.438,0.695,0.709,1.19,0.709
			c0.496,0,0.952-0.271,1.19-0.708l6.309-11.526L70.42,72.14c0.468,0.135,0.997,0.002,1.342-0.343
			c0.353-0.352,0.483-0.864,0.343-1.34l-3.691-12.609l11.526-6.304c0.434-0.239,0.705-0.696,0.705-1.192
			c0-0.497-0.271-0.954-0.707-1.194l-11.524-6.303l3.69-12.607c0.141-0.477,0.009-0.991-0.343-1.343
			c-0.344-0.343-0.87-0.481-1.336-0.343l-12.611,3.695l-6.308-11.527c-0.238-0.437-0.694-0.707-1.191-0.707
			c-0.496,0-0.952,0.271-1.19,0.707l-6.307,11.527l-12.606-3.693c-0.476-0.139-0.997-0.001-1.342,0.343
			c-0.353,0.352-0.484,0.865-0.344,1.34l3.693,12.611L20.692,49.16c-0.437,0.239-0.708,0.696-0.708,1.192s0.272,0.952,0.709,1.192
			l11.525,6.304l-3.692,12.607c-0.14,0.478-0.009,0.991,0.342,1.34c0.346,0.348,0.879,0.481,1.34,0.345L42.817,68.447z
			 M50.317,76.491L41.264,59.94c-0.125-0.229-0.312-0.415-0.539-0.539L24.175,50.35l9.783-5.351v-0.407l0.746-0.001l6.019-3.292
			c0.229-0.125,0.415-0.311,0.54-0.54l9.054-16.552l9.05,16.549c0.125,0.23,0.312,0.416,0.539,0.541l16.553,9.052l-16.552,9.053
			c-0.229,0.126-0.415,0.312-0.539,0.539L50.317,76.491z M35.386,54.201l6.298,3.445c0.563,0.307,1.025,0.769,1.335,1.335
			l7.299,13.342l7.296-13.341c0.306-0.563,0.768-1.025,1.335-1.335l13.344-7.298l-13.344-7.297
			c-0.566-0.309-1.028-0.771-1.337-1.338l-7.294-13.339l-7.299,13.343c-0.309,0.564-0.771,1.026-1.335,1.335l-13.34,7.296
			L35.386,54.201z"/>
	</g>
	<g>
		<path d="M50.316,59.359c-4.507,0-8.173-3.665-8.173-8.171c0-4.506,3.667-8.172,8.173-8.172c4.506,0,8.171,3.666,8.171,8.172
			C58.487,55.694,54.822,59.359,50.316,59.359z M50.316,45.016c-3.404,0-6.173,2.769-6.173,6.172c0,3.402,2.77,6.171,6.173,6.171
			c3.402,0,6.171-2.769,6.171-6.171C56.487,47.785,53.719,45.016,50.316,45.016z M50.316,54.643c-1.906,0-3.457-1.55-3.457-3.454
			c0-1.907,1.551-3.458,3.457-3.458c1.905,0,3.455,1.551,3.455,3.458C53.771,53.093,52.222,54.643,50.316,54.643z M50.316,49.73
			c-0.803,0-1.457,0.654-1.457,1.458c0,0.802,0.654,1.454,1.457,1.454c0.803,0,1.455-0.652,1.455-1.454
			C51.771,50.384,51.119,49.73,50.316,49.73z"/>
	</g>
</g>
</svg>
