<?xml version="1.0" encoding="utf-8"?>
<!-- Generator: Adobe Illustrator 17.0.0, SVG Export Plug-In . SVG Version: 6.00 Build 0)  -->
<!DOCTYPE svg PUBLIC "-//W3C//DTD SVG 1.1//EN" "http://www.w3.org/Graphics/SVG/1.1/DTD/svg11.dtd">
<svg version="1.1" id="Layer_1" xmlns="http://www.w3.org/2000/svg" xmlns:xlink="http://www.w3.org/1999/xlink" x="0px" y="0px"
	 width="100px" height="100px" viewBox="0 0 100 100" enable-background="new 0 0 100 100" xml:space="preserve">
<g>
	<path d="M69.643,25.688H28.25v40.687h8.637v1.5h4.988v-1.5h14.143v1.5h4.988v-1.5h8.636V25.688z M67.643,64.375H30.25V27.688
		h37.393V64.375z"/>
	<path d="M35.887,58.875h26.119V33.188H35.887v1.937h-1.494v2.5h1.494v16.458h-1.494v2.5h1.494V58.875z M37.887,35.188h22.119
		v21.687H37.887V35.188z"/>
	<path d="M54.999,38.855l-2.081,2.081c-1.098-0.857-2.474-1.374-3.971-1.374c-1.445,0-2.776,0.482-3.854,1.286l-2.139-2.139
		l-1.414,1.414l2.151,2.151c-0.76,1.06-1.212,2.355-1.212,3.756c0,1.423,0.468,2.736,1.249,3.805l-2.333,2.333l1.414,1.414
		l2.333-2.333c1.069,0.782,2.382,1.249,3.805,1.249c1.326,0,2.56-0.403,3.588-1.09l2.32,2.32l1.414-1.414l-2.263-2.263
		c0.88-1.105,1.411-2.501,1.411-4.02c0-1.349-0.416-2.602-1.125-3.639l2.123-2.123L54.999,38.855z M44.478,46.032
		c0-2.464,2.004-4.469,4.468-4.469s4.469,2.005,4.469,4.469S51.41,50.5,48.946,50.5S44.478,48.496,44.478,46.032z"/>
</g>
</svg>
