<?xml version="1.0" encoding="utf-8"?>
<!-- Generator: Adobe Illustrator 16.0.0, SVG Export Plug-In . SVG Version: 6.00 Build 0)  -->
<!DOCTYPE svg PUBLIC "-//W3C//DTD SVG 1.1//EN" "http://www.w3.org/Graphics/SVG/1.1/DTD/svg11.dtd">
<svg version="1.1" id="Layer_1" xmlns="http://www.w3.org/2000/svg" xmlns:xlink="http://www.w3.org/1999/xlink" x="0px" y="0px"
	 width="100px" height="100px" viewBox="0 0 100 100" enable-background="new 0 0 100 100" xml:space="preserve">
<path d="M79.351,50.518v-2H66.949c-0.228-3.658-1.683-6.98-3.967-9.567l8.771-8.772l-1.414-1.414l-8.771,8.772
	c-2.588-2.285-5.91-3.74-9.568-3.968V21.167h-2v12.401c-3.658,0.228-6.98,1.683-9.567,3.968l-8.772-8.772l-1.414,1.414l8.772,8.772
	c-2.285,2.587-3.74,5.91-3.968,9.567H22.649v2h12.401c0.228,3.658,1.683,6.98,3.968,9.567l-8.772,8.773l1.414,1.414l8.772-8.773
	c2.587,2.285,5.91,3.74,9.567,3.968v12.401h2V65.467c3.658-0.228,6.98-1.684,9.567-3.968l8.772,8.772l1.414-1.414l-8.772-8.772
	c2.284-2.587,3.74-5.909,3.968-9.567H79.351z M51,63.518c-7.72,0-14-6.28-14-14s6.28-14,14-14s14,6.28,14,14S58.72,63.518,51,63.518
	z"/>
</svg>
