<?xml version="1.0" encoding="utf-8"?>
<!-- Generator: Adobe Illustrator 17.0.0, SVG Export Plug-In . SVG Version: 6.00 Build 0)  -->
<!DOCTYPE svg PUBLIC "-//W3C//DTD SVG 1.1//EN" "http://www.w3.org/Graphics/SVG/1.1/DTD/svg11.dtd">
<svg version="1.1" id="Layer_1" xmlns="http://www.w3.org/2000/svg" xmlns:xlink="http://www.w3.org/1999/xlink" x="0px" y="0px"
	 width="100px" height="100px" viewBox="0 0 100 100" enable-background="new 0 0 100 100" xml:space="preserve">
<g>
	<path d="M30.618,17.654v6.247l10,19.001v39.443h18.765V42.902l10-19.001v-6.247H30.618z M67.382,19.654v3H32.618v-3H67.382z
		 M42.618,43.904h14.765v1H42.618V43.904z M42.618,46.904h14.765v27.167H42.618V46.904z M42.618,76.071h14.765v1H42.618V76.071z
		 M42.618,80.346v-1.274h14.765v1.274H42.618z M57.648,41.904H42.352l-9.078-17.25h33.452L57.648,41.904z"/>
	<path d="M46.875,65.154h6v-10h-6V65.154z M48.875,57.154h2v6h-2V57.154z"/>
	<path d="M47,48.154v6h6v-6H47z M51,52.154h-2v-2h2V52.154z"/>
</g>
</svg>
