<?xml version="1.0" encoding="utf-8"?>
<!-- Generator: Adobe Illustrator 16.0.0, SVG Export Plug-In . SVG Version: 6.00 Build 0)  -->
<!DOCTYPE svg PUBLIC "-//W3C//DTD SVG 1.1//EN" "http://www.w3.org/Graphics/SVG/1.1/DTD/svg11.dtd">
<svg version="1.1" id="Layer_1" xmlns="http://www.w3.org/2000/svg" xmlns:xlink="http://www.w3.org/1999/xlink" x="0px" y="0px"
	 width="100px" height="100px" viewBox="0 0 100 100" enable-background="new 0 0 100 100" xml:space="preserve">
<g>
	<path d="M50,81c-17.093,0-31-13.906-31-31c0-17.093,13.907-31,31-31c17.094,0,31,13.907,31,31C81,67.094,67.094,81,50,81z M50,21
		c-15.991,0-29,13.009-29,29c0,15.99,13.009,29,29,29c15.99,0,29-13.01,29-29C79,34.009,65.99,21,50,21z"/>
</g>
<g>
	<g>
		<path d="M42.679,62.061c-0.788,0-1.464-0.261-1.958-0.754c-1.338-1.338-0.833-3.938,1.148-5.922
			c1.192-1.192,2.674-1.903,3.965-1.903c0.788,0,1.464,0.261,1.958,0.754c1.338,1.338,0.834,3.939-1.148,5.922
			C45.452,61.35,43.97,62.061,42.679,62.061z M45.834,55.481c-0.749,0-1.75,0.517-2.55,1.317c-1.294,1.295-1.544,2.697-1.148,3.094
			c0.139,0.139,0.372,0.168,0.543,0.168c0.749,0,1.75-0.517,2.55-1.317c0.621-0.621,1.075-1.361,1.246-2.031
			c0.123-0.481,0.086-0.879-0.097-1.062C46.239,55.511,46.006,55.481,45.834,55.481z"/>
	</g>
	<g>
		<path d="M54.164,58.771c-0.787,0-1.464-0.261-1.957-0.754c-0.698-0.698-0.925-1.78-0.621-2.97c0.261-1.023,0.889-2.071,1.77-2.952
			c1.192-1.192,2.675-1.904,3.965-1.904c0.787,0,1.464,0.261,1.957,0.754c1.338,1.338,0.833,3.938-1.148,5.922
			C56.938,58.06,55.455,58.771,54.164,58.771z M57.32,52.191c-0.748,0-1.75,0.517-2.551,1.317c-0.621,0.621-1.075,1.361-1.246,2.031
			c-0.122,0.481-0.086,0.879,0.098,1.062c0.14,0.139,0.372,0.168,0.543,0.168c0.749,0,1.75-0.517,2.551-1.317
			c1.294-1.295,1.545-2.697,1.148-3.094C57.724,52.22,57.491,52.191,57.32,52.191z"/>
	</g>
	<g>
		<polygon points="48.547,56.424 46.547,56.424 46.547,42.955 60.032,37.451 60.028,52.878 58.028,52.878 58.032,40.428 
			48.547,44.299 		"/>
	</g>
</g>
</svg>
