<?xml version="1.0" encoding="utf-8"?>
<!-- Generator: Adobe Illustrator 17.0.0, SVG Export Plug-In . SVG Version: 6.00 Build 0)  -->
<!DOCTYPE svg PUBLIC "-//W3C//DTD SVG 1.1//EN" "http://www.w3.org/Graphics/SVG/1.1/DTD/svg11.dtd">
<svg version="1.1" id="Layer_1" xmlns="http://www.w3.org/2000/svg" xmlns:xlink="http://www.w3.org/1999/xlink" x="0px" y="0px"
	 width="100px" height="100px" viewBox="0 0 100 100" enable-background="new 0 0 100 100" xml:space="preserve">
<g>
	<g>
		<path d="M61.906,80.611H40.094c-1.841,0-3.338-1.497-3.338-3.337v-6.119c-0.565,0.071-1.132,0.106-1.696,0.106
			c-7.656,0-13.884-6.229-13.884-13.885c0-7.034,5.284-12.932,12.176-13.779c1.288-8.862,8.837-15.445,17.889-15.445
			c9.078,0,16.637,6.614,17.897,15.514c6.717,1.061,11.687,6.819,11.687,13.71c0,7.656-6.228,13.885-13.883,13.885
			c-0.566,0-1.134-0.035-1.697-0.105v6.118C65.244,79.114,63.747,80.611,61.906,80.611z M38.756,68.732v8.542
			c0,0.737,0.601,1.337,1.338,1.337h21.812c0.737,0,1.338-0.6,1.338-1.337v-8.542l1.212,0.263c0.816,0.177,1.652,0.267,2.485,0.267
			c6.552,0,11.883-5.331,11.883-11.885c0-6.131-4.594-11.213-10.687-11.824l-0.815-0.082l-0.08-0.815
			c-0.81-8.268-7.689-14.503-16.002-14.503c-8.297,0-15.175,6.219-15.999,14.466l-0.084,0.846l-0.848,0.053
			c-6.243,0.39-11.133,5.599-11.133,11.86c0,6.554,5.331,11.885,11.884,11.885c0.827,0,1.663-0.09,2.484-0.268L38.756,68.732z"/>
	</g>
</g>
</svg>
