<?xml version="1.0" encoding="utf-8"?>
<!-- Generator: Adobe Illustrator 17.0.0, SVG Export Plug-In . SVG Version: 6.00 Build 0)  -->
<!DOCTYPE svg PUBLIC "-//W3C//DTD SVG 1.1//EN" "http://www.w3.org/Graphics/SVG/1.1/DTD/svg11.dtd">
<svg version="1.1" id="Layer_1" xmlns="http://www.w3.org/2000/svg" xmlns:xlink="http://www.w3.org/1999/xlink" x="0px" y="0px"
	 width="100px" height="100px" viewBox="0 0 100 100" enable-background="new 0 0 100 100" xml:space="preserve">
<g>
	<path d="M46.5,21.766c-17.094,0-31,13.906-31,31s13.906,31,31,31s31-13.906,31-31S63.594,21.766,46.5,21.766z M46.5,81.766
		c-15.99,0-29-13.01-29-29s13.01-29,29-29s29,13.01,29,29S62.491,81.766,46.5,81.766z"/>
	<path d="M46.5,28.432c-13.418,0-24.334,10.916-24.334,24.334c0,13.417,10.916,24.333,24.334,24.333
		c13.417,0,24.333-10.916,24.333-24.333C70.833,39.348,59.917,28.432,46.5,28.432z M47.5,30.457
		c5.403,0.239,10.312,2.405,14.056,5.829L47.5,50.342V30.457z M45.5,46.34l-3.247-7.642l-1.84,0.781l3.304,7.775l1.783-0.757v3.844
		L31.444,36.285c3.744-3.423,8.654-5.589,14.056-5.828V46.34z M41.137,48.807l-7.148-2.885l-0.748,1.855l7.834,3.162l0.63-1.564
		l2.38,2.38H24.192c0.242-5.404,2.411-10.314,5.838-14.057L41.137,48.807z M40.596,53.756l-7.341,3.119l0.781,1.84l7.775-3.304
		l-0.703-1.655h2.977L30.02,67.822c-3.425-3.746-5.592-8.659-5.829-14.066H40.596z M45.5,55.17v19.903
		c-5.408-0.24-10.321-2.409-14.066-5.837L45.5,55.17z M47.5,55.17l2.242,2.242l-1.614,0.685l3.304,7.775l1.84-0.781l-3.066-7.217
		l11.36,11.36c-3.745,3.428-8.658,5.598-14.066,5.838V55.17z M48.914,53.756h3.645l-0.698,1.731l7.834,3.161l0.748-1.855
		l-7.527-3.037h15.891c-0.237,5.406-2.403,10.319-5.828,14.065L48.914,53.756z M48.914,51.756L62.971,37.7
		c3.426,3.743,5.595,8.653,5.837,14.056H48.914z"/>
	<rect x="46.473" y="41.975" transform="matrix(0.3742 -0.9274 0.9274 0.3742 -8.1253 73.9103)" width="8.449" height="2.001"/>
	<rect x="38.764" y="60.595" transform="matrix(0.3743 -0.9273 0.9273 0.3743 -30.2208 78.4033)" width="8.448" height="2.001"/>
	<rect x="51.927" y="47.428" transform="matrix(0.9203 -0.3912 0.3912 0.9203 -14.4689 25.8225)" width="8.449" height="2"/>
</g>
</svg>
