<?xml version="1.0" encoding="utf-8"?>
<!-- Generator: Adobe Illustrator 17.0.0, SVG Export Plug-In . SVG Version: 6.00 Build 0)  -->
<!DOCTYPE svg PUBLIC "-//W3C//DTD SVG 1.1//EN" "http://www.w3.org/Graphics/SVG/1.1/DTD/svg11.dtd">
<svg version="1.1" id="Layer_1" xmlns="http://www.w3.org/2000/svg" xmlns:xlink="http://www.w3.org/1999/xlink" x="0px" y="0px"
	 width="100px" height="100px" viewBox="0 0 100 100" enable-background="new 0 0 100 100" xml:space="preserve">
<g>
	<path d="M50,20.426c-17.094,0-31,13.906-31,31s13.906,31,31,31s31-13.906,31-31S67.094,20.426,50,20.426z M30.381,72.759h0.286
		c0-10.66,8.673-19.333,19.334-19.333c10.66,0,19.333,8.673,19.333,19.333h0.285C64.451,77.515,57.56,80.426,50,80.426
		S35.549,77.515,30.381,72.759z M71.251,71.13c-0.837-11.002-10.038-19.704-21.25-19.704c-11.214,0-20.415,8.703-21.252,19.705
		C23.945,65.954,21,59.029,21,51.426c0-15.99,13.01-29,29-29s29,13.01,29,29C79,59.028,76.055,65.953,71.251,71.13z"/>
	<path d="M39.334,39.092c-2.39,0-4.334,1.944-4.334,4.334s1.944,4.333,4.334,4.333s4.333-1.943,4.333-4.333
		S41.724,39.092,39.334,39.092z M39.334,45.759c-1.287,0-2.334-1.047-2.334-2.333c0-1.287,1.047-2.334,2.334-2.334
		c1.286,0,2.333,1.047,2.333,2.334C41.667,44.712,40.62,45.759,39.334,45.759z"/>
	<path d="M60.667,39.092c-2.39,0-4.333,1.944-4.333,4.334s1.943,4.333,4.333,4.333S65,45.816,65,43.426S63.057,39.092,60.667,39.092
		z M60.667,45.759c-1.286,0-2.333-1.047-2.333-2.333c0-1.287,1.047-2.334,2.333-2.334S63,42.139,63,43.426
		C63,44.712,61.953,45.759,60.667,45.759z"/>
</g>
</svg>
