<?xml version="1.0" encoding="utf-8"?>
<!-- Generator: Adobe Illustrator 17.0.0, SVG Export Plug-In . SVG Version: 6.00 Build 0)  -->
<!DOCTYPE svg PUBLIC "-//W3C//DTD SVG 1.1//EN" "http://www.w3.org/Graphics/SVG/1.1/DTD/svg11.dtd">
<svg version="1.1" id="Layer_1" xmlns="http://www.w3.org/2000/svg" xmlns:xlink="http://www.w3.org/1999/xlink" x="0px" y="0px"
	 width="100px" height="100px" viewBox="0 0 100 100" enable-background="new 0 0 100 100" xml:space="preserve">
<path d="M48.198,53.875c-2.376,0-4.309-1.933-4.309-4.309c0-2.376,1.933-4.309,4.309-4.309c0.055,0,0.106,0.014,0.161,0.016
	l1.727-1.727c-0.596-0.188-1.23-0.289-1.888-0.289c-3.479,0-6.309,2.83-6.309,6.309s2.83,6.309,6.309,6.309
	c3.479,0,6.309-2.83,6.309-6.309c0-0.594-0.088-1.167-0.242-1.713l-1.763,1.763C52.474,51.969,50.557,53.875,48.198,53.875z"/>
<path d="M57.257,49.566c0,4.996-4.063,9.059-9.059,9.059s-9.059-4.063-9.059-9.059c0-4.995,4.064-9.059,9.059-9.059
	c1.433,0,2.784,0.343,3.989,0.938l1.479-1.479c-1.615-0.924-3.479-1.459-5.468-1.459c-6.098,0-11.059,4.961-11.059,11.059
	S42.1,60.625,48.198,60.625c6.098,0,11.059-4.961,11.059-11.059c0-1.932-0.501-3.748-1.375-5.33l-1.491,1.491
	C56.941,46.894,57.257,48.192,57.257,49.566z"/>
<path d="M61.757,49.566c0,7.476-6.082,13.559-13.559,13.559s-13.559-6.083-13.559-13.559c0-7.477,6.083-13.559,13.559-13.559
	c2.682,0,5.178,0.793,7.285,2.142l1.45-1.45c-2.492-1.697-5.499-2.692-8.735-2.692c-8.579,0-15.559,6.98-15.559,15.559
	c0,8.58,6.98,15.559,15.559,15.559s15.559-6.979,15.559-15.559c0-3.178-0.962-6.135-2.604-8.601l-1.453,1.453
	C60.995,44.497,61.757,46.941,61.757,49.566z"/>
<path d="M65.882,49.566c0,9.751-7.933,17.684-17.684,17.684s-17.684-7.933-17.684-17.684c0-9.751,7.933-17.684,17.684-17.684
	c3.822,0,7.355,1.232,10.251,3.302l1.427-1.427c-3.271-2.423-7.303-3.875-11.677-3.875c-10.854,0-19.684,8.83-19.684,19.684
	s8.83,19.684,19.684,19.684c10.854,0,19.684-8.83,19.684-19.684c0-4.318-1.414-8.302-3.78-11.55l-1.427,1.427
	C64.689,42.313,65.882,45.8,65.882,49.566z"/>
<polygon points="69.063,32.729 69.063,30.729 67.146,30.729 67.146,28.812 65.146,28.812 65.146,31.314 63.876,32.585 
	63.876,32.214 61.876,32.214 61.876,34.585 48.469,47.992 49.883,49.406 63.291,35.999 65.66,35.999 65.66,33.999 65.291,33.999 
	66.561,32.729 "/>
</svg>
