<?xml version="1.0" encoding="utf-8"?>
<!-- Generator: Adobe Illustrator 17.0.0, SVG Export Plug-In . SVG Version: 6.00 Build 0)  -->
<!DOCTYPE svg PUBLIC "-//W3C//DTD SVG 1.1//EN" "http://www.w3.org/Graphics/SVG/1.1/DTD/svg11.dtd">
<svg version="1.1" id="Layer_1" xmlns="http://www.w3.org/2000/svg" xmlns:xlink="http://www.w3.org/1999/xlink" x="0px" y="0px"
	 width="100px" height="100px" viewBox="0 0 100 100" enable-background="new 0 0 100 100" xml:space="preserve">
<path d="M50,18c-8.204,0-15.668,3.209-21.218,8.43l-0.004-0.004l-0.167,0.167c-0.347,0.332-0.687,0.671-1.018,1.018l-0.229,0.229
	l0.005,0.005C22.184,33.39,19,40.828,19,49c0,17.094,13.907,31,31,31s31-13.906,31-31S67.093,18,50,18z M50,78
	c-15.991,0-29-13.01-29-29c0-7.62,2.959-14.56,7.783-19.741L69.733,70.21l1.414-1.414L30.195,27.844C35.383,22.984,42.348,20,50,20
	c15.991,0,29,13.01,29,29S65.991,78,50,78z"/>
</svg>
