<?xml version="1.0" encoding="utf-8"?>
<!-- Generator: Adobe Illustrator 17.0.0, SVG Export Plug-In . SVG Version: 6.00 Build 0)  -->
<!DOCTYPE svg PUBLIC "-//W3C//DTD SVG 1.1//EN" "http://www.w3.org/Graphics/SVG/1.1/DTD/svg11.dtd">
<svg version="1.1" id="Layer_1" xmlns="http://www.w3.org/2000/svg" xmlns:xlink="http://www.w3.org/1999/xlink" x="0px" y="0px"
	 width="100px" height="100px" viewBox="0 0 100 100" enable-background="new 0 0 100 100" xml:space="preserve">
<path d="M78.235,61.679l17.693-17.693L83.265,31.321l-8.77,8.77l-1.092-2.085c-0.257-0.489-0.859-0.678-1.35-0.422l-8.306,4.348
	l-4.349-8.306c-0.123-0.235-0.335-0.412-0.588-0.491c-0.131-0.041-0.267-0.054-0.401-0.04l-0.146-0.044
	c3.159-1.399,5.371-4.558,5.371-8.229c0-4.962-4.037-9-9-9c-4.963,0-9,4.038-9,9c0,1.807,0.54,3.489,1.461,4.901l-0.854-0.255
	c-0.185-0.128-0.406-0.195-0.657-0.176l-0.007,0.001c-0.11-0.011-0.22,0.001-0.325,0.028l-13.617,1.185
	c-0.55,0.048-0.957,0.533-0.909,1.083l1.214,13.947c0.022,0.264,0.149,0.508,0.353,0.679c0.203,0.17,0.459,0.254,0.73,0.23
	l3.611-0.314c0.55-0.048,0.957-0.533,0.909-1.083l-0.812-9.339l6.114-0.532L35.13,54.568c-0.045,0.111-0.068,0.229-0.071,0.348
	l-0.236,11.021h-9.021c-0.553,0-1,0.447-1,1v5.875c0,0.553,0.447,1,1,1h16.5c0.553,0,1-0.447,1-1V59.099l18.815,24.685
	c0.196,0.258,0.494,0.394,0.796,0.394c0.211,0,0.424-0.066,0.605-0.205l5.17-3.94c0.211-0.16,0.349-0.398,0.385-0.661
	c0.035-0.263-0.035-0.529-0.196-0.74L51.129,55.346l5.952-14.022l3.829,7.314c0.257,0.489,0.859,0.679,1.35,0.422l6.855-3.589
	l-3.544,3.544L78.235,61.679z M54.634,17.822c3.859,0,7,3.14,7,7c0,3.86-3.141,7-7,7c-0.201,0-0.399-0.013-0.597-0.03L51.3,30.976
	c-2.181-1.187-3.666-3.5-3.666-6.154C47.634,20.962,50.775,17.822,54.634,17.822z M62.217,46.825l-4.346-8.301
	c-0.179-0.343-0.535-0.549-0.926-0.535c-0.387,0.016-0.729,0.252-0.881,0.608L49.06,55.1c-0.14,0.331-0.092,0.711,0.126,0.997
	L66.68,79.048l-3.579,2.729L44.237,57.028c-0.128-0.168-0.307-0.292-0.51-0.353l-1.141-0.34c-0.094-0.028-0.189-0.042-0.285-0.042
	c-0.213,0-0.423,0.068-0.598,0.198c-0.253,0.189-0.402,0.486-0.402,0.802v14.519h-14.5v-3.875h9c0.544,0,0.988-0.435,1-0.979
	l0.254-11.819l8.247-20.73c0.129-0.322,0.081-0.688-0.126-0.966c-0.208-0.277-0.535-0.427-0.89-0.399l-8.726,0.759
	c-0.264,0.023-0.508,0.15-0.679,0.353c-0.171,0.203-0.254,0.465-0.23,0.73l0.812,9.339l-1.619,0.141l-1.04-11.955l12.625-1.099
	l5.161,1.538c0.944,0.477,1.978,0.799,3.075,0.917l4.207,1.254l4.567,8.723c0.257,0.489,0.859,0.679,1.35,0.422l8.306-4.348
	l0.754,1.44L62.217,46.825z M93.101,43.985L78.235,58.851l-9.836-9.836l14.865-14.865L93.101,43.985z"/>
</svg>
