<?xml version="1.0" encoding="utf-8"?>
<!-- Generator: Adobe Illustrator 17.0.0, SVG Export Plug-In . SVG Version: 6.00 Build 0)  -->
<!DOCTYPE svg PUBLIC "-//W3C//DTD SVG 1.1//EN" "http://www.w3.org/Graphics/SVG/1.1/DTD/svg11.dtd">
<svg version="1.1" id="Layer_1" xmlns="http://www.w3.org/2000/svg" xmlns:xlink="http://www.w3.org/1999/xlink" x="0px" y="0px"
	 width="100px" height="100px" viewBox="0 0 100 100" enable-background="new 0 0 100 100" xml:space="preserve">
<g>
	<g>
		<path d="M39.183,39.969H28.745V29.518h10.438V39.969z M30.745,37.969h6.438v-6.451h-6.438V37.969z"/>
	</g>
	<g>
		<path d="M39.183,55.867H28.745V45.413h10.438V55.867z M30.745,53.867h6.438v-6.454h-6.438V53.867z"/>
	</g>
	<g>
		<path d="M39.183,72.298H28.745V61.844h10.438V72.298z M30.745,70.298h6.438v-6.454h-6.438V70.298z"/>
	</g>
	<g>
		<path d="M55.489,39.702H45.05V29.249h10.439V39.702z M47.05,37.702h6.439v-6.453H47.05V37.702z"/>
	</g>
	<g>
		<path d="M55.489,55.596H45.05V45.144h10.439V55.596z M47.05,53.596h6.439v-6.452H47.05V53.596z"/>
	</g>
	<g>
		<path d="M55.489,72.029H45.05V61.577h10.439V72.029z M47.05,70.029h6.439v-6.452H47.05V70.029z"/>
	</g>
	<g>
		<path d="M71.794,39.703H61.356V29.25h10.438V39.703z M63.356,37.703h6.438V31.25h-6.438V37.703z"/>
	</g>
	<g>
		<path d="M71.794,55.599H61.356V45.146h10.438V55.599z M63.356,53.599h6.438v-6.453h-6.438V53.599z"/>
	</g>
	<g>
		<path d="M71.794,72.03H61.356V61.578h10.438V72.03z M63.356,70.03h6.438v-6.452h-6.438V70.03z"/>
	</g>
</g>
</svg>
