<?xml version="1.0" encoding="utf-8"?>
<!-- Generator: Adobe Illustrator 16.0.0, SVG Export Plug-In . SVG Version: 6.00 Build 0)  -->
<!DOCTYPE svg PUBLIC "-//W3C//DTD SVG 1.1//EN" "http://www.w3.org/Graphics/SVG/1.1/DTD/svg11.dtd">
<svg version="1.1" id="Layer_1" xmlns="http://www.w3.org/2000/svg" xmlns:xlink="http://www.w3.org/1999/xlink" x="0px" y="0px"
	 width="100px" height="100px" viewBox="0 0 100 100" enable-background="new 0 0 100 100" xml:space="preserve">
<g>
	<path d="M50,85.75c-17.093,0-31-13.906-31-31c0-15.112,10.794-27.954,25.667-30.535l0.342,1.971C31.097,28.6,21,40.613,21,54.75
		c0,15.99,13.009,29,29,29s29-13.01,29-29c0-14.136-10.098-26.149-24.009-28.563l0.342-1.971C70.205,26.797,81,39.639,81,54.75
		C81,71.844,67.093,85.75,50,85.75z"/>
</g>
<g>
	<rect x="49" y="15.25" width="2" height="18.167"/>
</g>
</svg>
