<?xml version="1.0" encoding="utf-8"?>
<!-- Generator: Adobe Illustrator 17.0.0, SVG Export Plug-In . SVG Version: 6.00 Build 0)  -->
<!DOCTYPE svg PUBLIC "-//W3C//DTD SVG 1.1//EN" "http://www.w3.org/Graphics/SVG/1.1/DTD/svg11.dtd">
<svg version="1.1" id="Layer_1" xmlns="http://www.w3.org/2000/svg" xmlns:xlink="http://www.w3.org/1999/xlink" x="0px" y="0px"
	 width="100px" height="100px" viewBox="0 0 100 100" enable-background="new 0 0 100 100" xml:space="preserve">
<g>
	<g>
		<rect x="48" y="33.937" width="21.833" height="2"/>
	</g>
</g>
<g>
	<g>
		<rect x="48" y="47.402" width="21.833" height="2"/>
	</g>
</g>
<g>
	<g>
		<rect x="48" y="60.866" width="21.833" height="2"/>
	</g>
</g>
<g>
	<path d="M83.5,88.667H23.167V19.333H83.5V88.667z M25.167,86.667H81.5V21.333H25.167V86.667z"/>
</g>
<g>
	<path d="M44.632,41.319H31.868V28.554h12.765V41.319z M33.868,39.319h8.765v-8.765h-8.765V39.319z"/>
</g>
<g>
	<path d="M44.632,54.784H31.868V42.02h12.765V54.784z M33.868,52.784h8.765V44.02h-8.765V52.784z"/>
</g>
<g>
	<path d="M44.632,68.249H31.868V55.483h12.765V68.249z M33.868,66.249h8.765v-8.766h-8.765V66.249z"/>
</g>
</svg>
