<?xml version="1.0" encoding="utf-8"?>
<!-- Generator: Adobe Illustrator 17.0.0, SVG Export Plug-In . SVG Version: 6.00 Build 0)  -->
<!DOCTYPE svg PUBLIC "-//W3C//DTD SVG 1.1//EN" "http://www.w3.org/Graphics/SVG/1.1/DTD/svg11.dtd">
<svg version="1.1" id="Layer_1" xmlns="http://www.w3.org/2000/svg" xmlns:xlink="http://www.w3.org/1999/xlink" x="0px" y="0px"
	 width="100px" height="100px" viewBox="0 0 100 100" enable-background="new 0 0 100 100" xml:space="preserve">
<line fill="none" stroke="#000000" stroke-width="2" stroke-miterlimit="10" x1="35.689" y1="22.167" x2="35.689" y2="35.833"/>
<g>
	<path d="M66.689,28v-5.833h-2V28h-8v-5.833h-2V28h-8v-5.833h-2V28H26.545v57.667h48.288V28H66.689z M72.833,83.667H28.545V30
		h16.144v5.833h2V30h8v5.833h2V30h8v5.833h2V30h6.144V83.667z"/>
	<rect x="35.833" y="47.882" width="30.189" height="2"/>
	<rect x="35.833" y="52.882" width="30.189" height="2"/>
	<rect x="35.833" y="57.882" width="30.189" height="2"/>
	<rect x="35.833" y="62.882" width="30.189" height="2"/>
</g>
</svg>
