<?xml version="1.0" encoding="utf-8"?>
<!-- Generator: Adobe Illustrator 17.0.0, SVG Export Plug-In . SVG Version: 6.00 Build 0)  -->
<!DOCTYPE svg PUBLIC "-//W3C//DTD SVG 1.1//EN" "http://www.w3.org/Graphics/SVG/1.1/DTD/svg11.dtd">
<svg version="1.1" id="Layer_1" xmlns="http://www.w3.org/2000/svg" xmlns:xlink="http://www.w3.org/1999/xlink" x="0px" y="0px"
	 width="100px" height="100px" viewBox="0 0 100 100" enable-background="new 0 0 100 100" xml:space="preserve">
<g>
	<path d="M73.808,87.764H29.542v-7.318h17.707V66.433c-10.155-1.762-17.707-10.65-17.707-21.03V21h42.731v24.402
		c0,10.379-7.553,19.269-17.707,21.031v14.012h19.242V87.764z M31.542,85.764h40.266v-3.318H52.565V64.697l0.87-0.114
		c9.599-1.262,16.837-9.507,16.837-19.181V23H31.542v22.402c0,9.674,7.238,17.919,16.837,19.18l0.87,0.114v17.749H31.542V85.764z
		 M50.908,61.45c-7.772,0-14.411-5.557-15.785-13.212l-0.211-1.177h31.99l-0.211,1.177C65.317,55.894,58.68,61.45,50.908,61.45z
		 M37.355,49.061C38.99,55.148,44.51,59.45,50.908,59.45c6.397,0,11.917-4.302,13.552-10.389H37.355z M66.956,43.745H34.858V26.319
		h32.098V43.745z M36.858,41.745h28.098V28.319H36.858V41.745z"/>
</g>
</svg>
