<?xml version="1.0" encoding="utf-8"?>
<!-- Generator: Adobe Illustrator 17.0.0, SVG Export Plug-In . SVG Version: 6.00 Build 0)  -->
<!DOCTYPE svg PUBLIC "-//W3C//DTD SVG 1.1//EN" "http://www.w3.org/Graphics/SVG/1.1/DTD/svg11.dtd">
<svg version="1.1" id="Layer_1" xmlns="http://www.w3.org/2000/svg" xmlns:xlink="http://www.w3.org/1999/xlink" x="0px" y="0px"
	 width="100px" height="100px" viewBox="0 0 100 100" enable-background="new 0 0 100 100" xml:space="preserve">
<path fill="none" d="M72.602,66.169v2.878c1.147-1.566,2.127-3.259,2.933-5.048h-0.458C74.341,64.865,73.513,65.604,72.602,66.169z"
	/>
<path d="M80.189,63.151c-0.101,0.287-0.218,0.566-0.327,0.849h0.488L80.189,63.151z"/>
<path d="M67.602,20.549c-3.048,0-5.991,0.444-8.785,1.245c-2.803-0.805-5.759-1.245-8.817-1.245c-3.058,0-6.014,0.44-8.817,1.245
	c-2.794-0.801-5.737-1.245-8.785-1.245c-17.645,0-32,14.355-32,32c0,12.174,6.834,22.779,16.866,28.187
	c4.509,2.431,9.663,3.813,15.134,3.813c3.056,0,6.009-0.44,8.809-1.245c2.796,0.802,5.742,1.245,8.793,1.245
	c3.056,0,6.009-0.44,8.809-1.245c2.796,0.802,5.742,1.245,8.793,1.245c5.911,0,11.448-1.617,16.204-4.423
	c9.443-5.57,15.796-15.843,15.796-27.578C99.602,34.904,85.246,20.549,67.602,20.549z M17.862,76.472
	C9.796,71.553,4.398,62.67,4.398,52.549c0-15.439,12.561-28,28-28c0.674,0,1.341,0.026,2.003,0.074
	C24.625,30.105,18,40.565,18,52.549c0,6.916,2.21,13.322,5.955,18.56C21.104,72.397,18.918,74.265,17.862,76.472z M55,69.697v-3.527
	c0.911-0.565,1.739-1.305,2.475-2.169c2.024-2.377,3.3-5.761,3.3-9.538c0-2.444-0.54-4.723-1.462-6.678
	c-1.795-3.804-5.065-6.36-8.813-6.36c-3.742,0-7.007,2.547-8.804,6.34c-0.928,1.959-1.471,4.245-1.471,6.698
	c0,2.446,0.545,4.721,1.47,6.673c1.022,2.159,2.511,3.922,4.305,5.034v3.528c-1.557,0.303-2.996,0.773-4.311,1.354
	c-2.916,1.288-5.153,3.181-6.225,5.422c-2.882-1.758-5.415-4.028-7.491-6.673C24.238,65.04,22,59.054,22,52.549
	c0-12.361,8.054-22.869,19.187-26.571c2.168-0.721,4.452-1.182,6.817-1.35c0.66-0.047,1.324-0.079,1.996-0.079
	c0.672,0,1.336,0.032,1.996,0.079c2.365,0.168,4.649,0.629,6.817,1.35c10.591,3.522,18.389,13.204,19.124,24.78
	C77.974,51.351,78,51.947,78,52.549c0,4.08-0.889,7.953-2.465,11.451c-0.806,1.788-1.786,3.482-2.933,5.048
	c-2.003,2.734-4.487,5.095-7.33,6.953c-1.148-2.038-3.27-3.759-5.979-4.957C57.984,70.465,56.549,69.999,55,69.697z M82.873,76.001
	c-1.235-2.194-3.591-4.026-6.603-5.225c1.456-2.091,2.663-4.363,3.592-6.775c0.109-0.283,0.225-0.562,0.327-0.849
	C81.359,59.832,82,56.265,82,52.549c0-11.984-6.626-22.444-16.402-27.926c0.662-0.047,1.33-0.074,2.004-0.074
	c15.439,0,28,12.561,28,28C95.602,62.358,90.529,70.998,82.873,76.001z"/>
</svg>
