<?xml version="1.0" encoding="utf-8"?>
<!-- Generator: Adobe Illustrator 17.0.0, SVG Export Plug-In . SVG Version: 6.00 Build 0)  -->
<!DOCTYPE svg PUBLIC "-//W3C//DTD SVG 1.1//EN" "http://www.w3.org/Graphics/SVG/1.1/DTD/svg11.dtd">
<svg version="1.1" id="Layer_1" xmlns="http://www.w3.org/2000/svg" xmlns:xlink="http://www.w3.org/1999/xlink" x="0px" y="0px"
	 width="100px" height="100px" viewBox="0 0 100 100" enable-background="new 0 0 100 100" xml:space="preserve">
<g>
	<path d="M38.335,44.98c-5.38,0-9.756-5.721-9.756-12.752s4.376-12.751,9.756-12.751c5.379,0,9.756,5.72,9.756,12.751
		S43.714,44.98,38.335,44.98z M38.335,21.477c-4.277,0-7.756,4.823-7.756,10.751c0,5.929,3.479,10.752,7.756,10.752
		c4.276,0,7.756-4.823,7.756-10.752C46.091,26.3,42.611,21.477,38.335,21.477z"/>
</g>
<g>
	<path d="M63.69,81.773c-2.632,0-4.904-1.495-7.31-3.078c-1.451-0.956-2.929-1.929-4.57-2.661c-0.237-0.051-1.205-0.171-2.659-0.171
		c-1.319,0-1.978,0.098-2.083,0.124c-1.62,0.677-3.194,1.646-4.717,2.582c-2.606,1.604-4.839,2.979-7.44,2.979
		c-1.321,0-2.575-0.377-3.728-1.121c-2.737-1.757-4.34-4.808-4.515-8.591c-0.16-3.45,0.915-7.16,3.026-10.445
		c0.22-0.341,0.462-0.639,0.713-0.938c0.099-0.118,0.281-0.337,0.325-0.416c2.495-5.127,8.716-10.615,18.684-10.615l0.377,0.002
		c10.123,0.143,16.394,5.936,18.688,10.854c0.057,0.123,0.222,0.347,0.367,0.544c0.292,0.396,0.53,0.727,0.746,1.105
		c4.144,7.295,3.012,15.786-2.521,18.931C66.01,81.465,64.871,81.773,63.69,81.773z M49.152,73.863c1.461,0,2.861,0.119,3.33,0.284
		c1.892,0.831,3.46,1.863,4.977,2.862c2.17,1.429,4.199,2.764,6.232,2.764c0.829,0,1.635-0.22,2.396-0.653
		c4.576-2.602,5.371-9.869,1.773-16.203c-0.162-0.284-0.365-0.564-0.595-0.876c-0.246-0.334-0.456-0.618-0.596-0.923
		c-2.049-4.389-7.704-9.565-16.895-9.695l-0.363-0.002c-9.039,0-14.649,4.907-16.883,9.5c-0.13,0.263-0.324,0.503-0.584,0.813
		c-0.197,0.236-0.396,0.476-0.565,0.738c-1.889,2.938-2.852,6.231-2.71,9.271c0.144,3.117,1.421,5.604,3.599,7.001
		c0.826,0.533,1.715,0.803,2.646,0.803c2.035,0,4.044-1.237,6.372-2.669c1.609-0.99,3.253-2.002,5.114-2.772
		C46.876,73.946,47.904,73.863,49.152,73.863z"/>
</g>
<g>
	<path d="M60.387,44.98c-5.38,0-9.756-5.721-9.756-12.752s4.376-12.751,9.756-12.751s9.757,5.72,9.757,12.751
		S65.767,44.98,60.387,44.98z M60.387,21.477c-4.276,0-7.756,4.823-7.756,10.751c0,5.929,3.479,10.752,7.756,10.752
		c4.277,0,7.757-4.823,7.757-10.752C68.144,26.3,64.664,21.477,60.387,21.477z"/>
</g>
<g>
	<path d="M77.183,61.185c-5.068,0-9.039-5.115-9.039-11.646c0-6.532,3.971-11.648,9.039-11.648c5.069,0,9.04,5.116,9.04,11.648
		C86.223,56.069,82.252,61.185,77.183,61.185z M77.183,39.891c-3.947,0-7.039,4.238-7.039,9.648c0,5.409,3.092,9.646,7.039,9.646
		s7.04-4.237,7.04-9.646C84.223,44.128,81.13,39.891,77.183,39.891z"/>
</g>
<g>
	<path d="M22.817,61.185c-5.069,0-9.04-5.115-9.04-11.646c0-6.532,3.971-11.648,9.04-11.648s9.04,5.116,9.04,11.648
		C31.857,56.069,27.886,61.185,22.817,61.185z M22.817,39.891c-3.948,0-7.04,4.238-7.04,9.648c0,5.409,3.092,9.646,7.04,9.646
		s7.04-4.237,7.04-9.646C29.857,44.128,26.765,39.891,22.817,39.891z"/>
</g>
</svg>
