<?xml version="1.0" encoding="utf-8"?>
<!-- Generator: Adobe Illustrator 17.0.0, SVG Export Plug-In . SVG Version: 6.00 Build 0)  -->
<!DOCTYPE svg PUBLIC "-//W3C//DTD SVG 1.1//EN" "http://www.w3.org/Graphics/SVG/1.1/DTD/svg11.dtd">
<svg version="1.1" id="Layer_1" xmlns="http://www.w3.org/2000/svg" xmlns:xlink="http://www.w3.org/1999/xlink" x="0px" y="0px"
	 width="100px" height="100px" viewBox="0 0 100 100" enable-background="new 0 0 100 100" xml:space="preserve">
<path d="M69.69,37.25H58.6c1.769-2.325,1.617-5.656-0.505-7.778c-1.122-1.122-2.613-1.739-4.199-1.739
	c-1.585,0-3.076,0.618-4.198,1.739c-0.127,0.127-0.241,0.269-0.347,0.417c-0.107-0.148-0.22-0.29-0.347-0.417
	c-1.121-1.122-2.612-1.739-4.198-1.739c-1.586,0-3.077,0.618-4.198,1.739c-2.123,2.123-2.275,5.453-0.505,7.778H29.011v16.875h3.916
	v21.701h32.848V54.125h3.916V37.25z M51.111,30.886c0.744-0.744,1.732-1.153,2.784-1.153c1.053,0,2.041,0.41,2.785,1.153
	c1.535,1.535,1.535,4.034,0,5.569c-0.513,0.513-1.671,0.795-3.26,0.795c-1.118,0-2.205-0.139-2.868-0.244
	c-0.088-0.535-0.159-1.134-0.201-1.746c0.039-0.633,0.047-1.316,0-2.001C50.431,32.238,50.651,31.346,51.111,30.886z M42.021,36.455
	c-1.535-1.535-1.535-4.034,0-5.569c0.744-0.744,1.732-1.153,2.784-1.153s2.041,0.41,2.784,1.153c0.462,0.462,0.682,1.355,0.76,2.38
	c-0.046,0.68-0.039,1.358,0,1.987c-0.042,0.614-0.113,1.216-0.202,1.753c-0.663,0.105-1.75,0.244-2.868,0.244
	C43.691,37.25,42.534,36.967,42.021,36.455z M31.011,52.125V39.25h17.687v12.875H32.926H31.011z M34.926,54.125h13.771v19.701
	H34.926V54.125z M63.774,73.826H50.697V54.125h13.077V73.826z M67.69,52.125h-1.916H50.697V39.25H67.69V52.125z"/>
</svg>
