<?xml version="1.0" encoding="utf-8"?>
<!-- Generator: Adobe Illustrator 17.0.0, SVG Export Plug-In . SVG Version: 6.00 Build 0)  -->
<!DOCTYPE svg PUBLIC "-//W3C//DTD SVG 1.1//EN" "http://www.w3.org/Graphics/SVG/1.1/DTD/svg11.dtd">
<svg version="1.1" id="Layer_1" xmlns="http://www.w3.org/2000/svg" xmlns:xlink="http://www.w3.org/1999/xlink" x="0px" y="0px"
	 width="100px" height="100px" viewBox="0 0 100 100" enable-background="new 0 0 100 100" xml:space="preserve">
<path d="M67.75,46.804c-1.532,0-2.974,0.376-4.253,1.03l-1.363-1.86l-1.779-10.703c-0.007-0.04-0.03-0.07-0.041-0.108
	c-0.019-0.066-0.04-0.129-0.072-0.189c-0.03-0.056-0.064-0.104-0.103-0.152c-0.042-0.052-0.084-0.099-0.135-0.142
	c-0.047-0.039-0.095-0.07-0.148-0.1c-0.059-0.034-0.117-0.062-0.182-0.083c-0.061-0.02-0.121-0.029-0.186-0.038
	c-0.041-0.005-0.077-0.024-0.119-0.024h-6.994c-0.553,0-1,0.448-1,1s0.447,1,1,1h6.147l0.64,3.847L47.123,45.24l-5.921-4.125
	c-0.028-0.02-0.061-0.023-0.09-0.039c-0.06-0.034-0.12-0.06-0.186-0.081c-0.066-0.021-0.131-0.034-0.199-0.04
	c-0.033-0.003-0.062-0.02-0.097-0.02H26.25c-0.553,0-1,0.448-1,1v3c0,0.05,0.021,0.092,0.028,0.14
	c0.01,0.066,0.017,0.131,0.039,0.193c0.022,0.062,0.055,0.115,0.088,0.17c0.033,0.055,0.062,0.108,0.104,0.155
	c0.043,0.049,0.094,0.086,0.146,0.125c0.05,0.038,0.098,0.076,0.155,0.104c0.06,0.03,0.125,0.045,0.191,0.062
	c0.046,0.012,0.085,0.038,0.133,0.043l11.907,1.383l5.115,7.874h-1.582c-0.501-4.704-4.491-8.381-9.326-8.381
	c-5.173,0-9.381,4.208-9.381,9.381s4.208,9.381,9.381,9.381c4.835,0,8.825-3.677,9.326-8.381h9.799c0.13,0,0.26-0.026,0.382-0.077
	c0.123-0.051,0.234-0.124,0.326-0.217l8.987-8.987l0.748,1.021c-2.103,1.722-3.449,4.336-3.449,7.26
	c0,5.173,4.208,9.381,9.381,9.381s9.381-4.208,9.381-9.381S72.923,46.804,67.75,46.804z M33.125,57.185h6.43
	c-0.491,3.597-3.576,6.381-7.305,6.381c-4.069,0-7.381-3.312-7.381-7.381s3.312-7.381,7.381-7.381c3.729,0,6.814,2.784,7.305,6.381
	h-6.43c-0.553,0-1,0.447-1,1S32.572,57.185,33.125,57.185z M50.961,55.185h-5.418l-6.079-9.357
	c-0.009-0.014-0.024-0.021-0.033-0.034c-0.041-0.056-0.092-0.1-0.144-0.147c-0.046-0.042-0.087-0.087-0.139-0.119
	c-0.049-0.03-0.105-0.046-0.159-0.068c-0.068-0.027-0.134-0.055-0.206-0.067c-0.015-0.002-0.027-0.012-0.042-0.014l-11.49-1.335
	v-1.11h13.068l6.111,4.258c0.003,0.002,0.007,0.003,0.011,0.005c0.063,0.043,0.132,0.072,0.203,0.099
	c0.023,0.009,0.044,0.024,0.067,0.031c0.08,0.024,0.164,0.034,0.248,0.038c0.014,0.001,0.027,0.006,0.041,0.006c0,0,0,0,0,0
	c0,0,0,0,0.001,0c0.127,0,0.256-0.024,0.381-0.075l12.117-4.99l0.619,3.722L50.961,55.185z M67.75,63.565
	c-4.069,0-7.381-3.312-7.381-7.381c0-2.262,1.025-4.288,2.633-5.643l4.566,6.234c0.196,0.268,0.5,0.409,0.808,0.409
	c0.205,0,0.412-0.062,0.59-0.193c0.445-0.326,0.542-0.952,0.216-1.397l-4.484-6.121c0.932-0.425,1.963-0.669,3.052-0.669
	c4.069,0,7.381,3.312,7.381,7.381S71.819,63.565,67.75,63.565z"/>
</svg>
