<?xml version="1.0" encoding="utf-8"?>
<!-- Generator: Adobe Illustrator 17.0.0, SVG Export Plug-In . SVG Version: 6.00 Build 0)  -->
<!DOCTYPE svg PUBLIC "-//W3C//DTD SVG 1.1//EN" "http://www.w3.org/Graphics/SVG/1.1/DTD/svg11.dtd">
<svg version="1.1" id="Layer_1" xmlns="http://www.w3.org/2000/svg" xmlns:xlink="http://www.w3.org/1999/xlink" x="0px" y="0px"
	 width="100px" height="100px" viewBox="0 0 100 100" enable-background="new 0 0 100 100" xml:space="preserve">
<g>
	<circle cx="34.119" cy="54.978" r="3.188"/>
	<circle cx="34.119" cy="64.995" r="3.188"/>
	<circle cx="43.681" cy="55.207" r="3.187"/>
	<circle cx="43.681" cy="65.222" r="3.187"/>
	<circle cx="56.363" cy="36.693" r="3.187"/>
	<circle cx="56.475" cy="43.826" r="3.187"/>
	<path d="M26.924,71.745h23.953V48.457H26.924V71.745z M28.924,50.457h19.953v19.288H28.924V50.457z"/>
	<path d="M56.434,27.4L39.497,44.336l3.277,3.276h8.525c0.232,0,0.422,0.19,0.422,0.423v8.526l4.244,4.241l16.937-16.935
		L56.434,27.4z M53.721,55.733V53.69c0.581,0.617,1.4,1.006,2.314,1.006c1.761,0,3.188-1.427,3.188-3.188s-1.427-3.188-3.188-3.188
		c-0.914,0-1.733,0.39-2.314,1.006v-1.291c0-1.336-1.087-2.423-2.422-2.423h-7.697l-1.276-1.276l14.108-14.108l13.64,13.64
		L55.965,57.975L53.721,55.733z"/>
</g>
</svg>
