<?xml version="1.0" encoding="utf-8"?>
<!-- Generator: Adobe Illustrator 17.0.0, SVG Export Plug-In . SVG Version: 6.00 Build 0)  -->
<!DOCTYPE svg PUBLIC "-//W3C//DTD SVG 1.1//EN" "http://www.w3.org/Graphics/SVG/1.1/DTD/svg11.dtd">
<svg version="1.1" id="Layer_1" xmlns="http://www.w3.org/2000/svg" xmlns:xlink="http://www.w3.org/1999/xlink" x="0px" y="0px"
	 width="100px" height="100px" viewBox="0 0 100 100" enable-background="new 0 0 100 100" xml:space="preserve">
<path d="M75.638,46.356L75.638,46.356v2.86h-6.359c0.751-0.557,1.436-1.188,2.056-1.893c2.572-2.929,3.41-6.497,3.647-9.11h8.393
	v-20h-20v20h8.474c-0.225,2.098-0.915,4.844-2.856,7.053c-1.724,1.963-4.205,3.183-7.368,3.678v-8.319h-20v8.59H27.594v-2.859
	h-8.833v8.833h8.833v-2.857h7.362c-4.001,3.095-5.615,7.819-6.268,11.002H19.75v20h20v-20h-7.926
	c0.829-3.704,3.178-9.232,9.801-10.65v7.941h20v-8.293h14.012v2.857h8.833v-8.833H75.638z M65.375,20.213h16v16h-16V20.213z
	 M37.75,81.334h-16v-16h16V81.334z M59.625,58.625h-16v-16h16V58.625z"/>
</svg>
