<?xml version="1.0" encoding="utf-8"?>
<!-- Generator: Adobe Illustrator 17.0.0, SVG Export Plug-In . SVG Version: 6.00 Build 0)  -->
<!DOCTYPE svg PUBLIC "-//W3C//DTD SVG 1.1//EN" "http://www.w3.org/Graphics/SVG/1.1/DTD/svg11.dtd">
<svg version="1.1" id="Layer_1" xmlns="http://www.w3.org/2000/svg" xmlns:xlink="http://www.w3.org/1999/xlink" x="0px" y="0px"
	 width="100px" height="100px" viewBox="0 0 100 100" enable-background="new 0 0 100 100" xml:space="preserve">
<g>
	<path d="M56.5,87.5h-13V46.165c-6.109-2.594-10.167-8.668-10.167-15.331c0-6.006,3.261-11.573,8.51-14.527l1.49-0.839V31.5h13.333
		V15.468l1.49,0.839c5.249,2.955,8.51,8.521,8.51,14.527c0,6.663-4.058,12.737-10.167,15.331V87.5z M45.5,85.5h9V44.795l0.648-0.243
		c5.693-2.138,9.519-7.651,9.519-13.718c0-4.691-2.261-9.077-6-11.822V33.5H41.333V19.011c-3.739,2.745-6,7.131-6,11.822
		c0,6.067,3.825,11.58,9.518,13.718l0.648,0.243V85.5z"/>
</g>
</svg>
