<?xml version="1.0" encoding="utf-8"?>
<!-- Generator: Adobe Illustrator 17.0.0, SVG Export Plug-In . SVG Version: 6.00 Build 0)  -->
<!DOCTYPE svg PUBLIC "-//W3C//DTD SVG 1.1//EN" "http://www.w3.org/Graphics/SVG/1.1/DTD/svg11.dtd">
<svg version="1.1" id="Layer_1" xmlns="http://www.w3.org/2000/svg" xmlns:xlink="http://www.w3.org/1999/xlink" x="0px" y="0px"
	 width="100px" height="100px" viewBox="0 0 100 100" enable-background="new 0 0 100 100" xml:space="preserve">
<path d="M86.464,79.452l-8.547-8.547l-6.808-6.808c3.502-4.926,5.582-10.93,5.582-17.422c0-16.639-13.537-30.176-30.176-30.176
	S16.341,30.036,16.341,46.675c0,16.638,13.535,30.174,30.174,30.174c6.951,0,13.341-2.385,18.447-6.348l11.7,11.7
	c0.144,0.144,0.305,0.258,0.462,0.377l3.107,3.107L86.464,79.452z M46.517,69.751C33.793,69.75,23.442,59.398,23.442,46.676
	c0-12.724,10.352-23.075,23.075-23.075s23.075,10.351,23.075,23.075c0,5.294-1.809,10.163-4.82,14.061
	c-0.995,1.287-2.113,2.475-3.354,3.527C57.394,67.678,52.196,69.751,46.517,69.751z"/>
</svg>
