<?xml version="1.0" encoding="utf-8"?>
<!-- Generator: Adobe Illustrator 17.0.0, SVG Export Plug-In . SVG Version: 6.00 Build 0)  -->
<!DOCTYPE svg PUBLIC "-//W3C//DTD SVG 1.1//EN" "http://www.w3.org/Graphics/SVG/1.1/DTD/svg11.dtd">
<svg version="1.1" id="Layer_1" xmlns="http://www.w3.org/2000/svg" xmlns:xlink="http://www.w3.org/1999/xlink" x="0px" y="0px"
	 width="100px" height="100px" viewBox="0 0 100 100" enable-background="new 0 0 100 100" xml:space="preserve">
<g>
	<path d="M45.314,56.69l-2.828-2.828c-3.509-3.509-3.509-9.219,0-12.728l16.971-16.971c3.509-3.509,9.219-3.509,12.728,0
		l2.828,2.828c3.509,3.509,3.509,9.219,0,12.728l-8.721,8.721l-1.414-1.414l8.721-8.721c2.729-2.729,2.729-7.171,0-9.899
		l-2.828-2.828c-2.729-2.729-7.17-2.729-9.899,0L43.9,42.547c-2.729,2.729-2.729,7.171,0,9.9l2.828,2.828L45.314,56.69z"/>
</g>
<g>
	<path d="M27.816,75.837l-2.828-2.828c-3.509-3.509-3.509-9.219,0-12.728l8.721-8.721l1.414,1.414l-8.721,8.721
		c-2.729,2.729-2.729,7.171,0,9.899l2.828,2.828c2.729,2.729,7.171,2.729,9.899,0l16.97-16.97c2.729-2.729,2.729-7.171,0-9.899
		l-2.828-2.828l1.414-1.414l2.828,2.828c3.509,3.509,3.509,9.219,0,12.728l-16.97,16.97C37.035,79.347,31.325,79.347,27.816,75.837z
		"/>
</g>
</svg>
