<?xml version="1.0" encoding="utf-8"?>
<!-- Generator: Adobe Illustrator 17.0.0, SVG Export Plug-In . SVG Version: 6.00 Build 0)  -->
<!DOCTYPE svg PUBLIC "-//W3C//DTD SVG 1.1//EN" "http://www.w3.org/Graphics/SVG/1.1/DTD/svg11.dtd">
<svg version="1.1" id="Layer_1" xmlns="http://www.w3.org/2000/svg" xmlns:xlink="http://www.w3.org/1999/xlink" x="0px" y="0px"
	 width="100px" height="100px" viewBox="0 0 100 100" enable-background="new 0 0 100 100" xml:space="preserve">
<g>
	<path d="M60.846,71.839c-3.897,2.055-7.869,2.835-12.621,2.835c-11.628,0-21.483-8.504-21.483-22.119
		c0-14.607,10.138-27.228,25.883-27.228c12.338,0,20.635,8.649,20.635,20.49c0,10.635-5.958,16.876-12.621,16.876
		c-2.841,0-5.462-1.917-5.248-6.241h-0.283c-2.483,4.186-5.745,6.241-10,6.241c-4.111,0-7.656-3.337-7.656-8.937
		c0-8.793,6.946-16.801,16.801-16.801c3.048,0,5.745,0.635,7.586,1.49l-2.408,12.829c-1.062,5.393-0.214,7.875,2.125,7.944
		c3.62,0.069,7.662-4.752,7.662-12.979c0-10.277-6.172-17.656-17.165-17.656c-11.553,0-21.27,9.151-21.27,23.545
		c0,11.842,7.731,19.145,18.221,19.145c4.042,0,7.8-0.854,10.71-2.483L60.846,71.839z M56.948,41.204
		c-0.71-0.208-1.917-0.491-3.545-0.491c-6.241,0-11.276,5.883-11.276,12.76c0,3.124,1.559,5.393,4.682,5.393
		c4.111,0,7.869-5.248,8.649-9.648L56.948,41.204z"/>
</g>
</svg>
