<?xml version="1.0" encoding="utf-8"?>
<!-- Generator: Adobe Illustrator 17.0.0, SVG Export Plug-In . SVG Version: 6.00 Build 0)  -->
<!DOCTYPE svg PUBLIC "-//W3C//DTD SVG 1.1//EN" "http://www.w3.org/Graphics/SVG/1.1/DTD/svg11.dtd">
<svg version="1.1" id="Layer_1" xmlns="http://www.w3.org/2000/svg" xmlns:xlink="http://www.w3.org/1999/xlink" x="0px" y="0px"
	 width="100px" height="100px" viewBox="0 0 100 100" enable-background="new 0 0 100 100" xml:space="preserve">
<g>
	<path d="M72.958,31.973H35.252v9.684h37.706V31.973z M70.958,39.657H37.252v-5.684h33.706V39.657z"/>
	<path d="M72.958,44.518H35.252v9.684h37.706V44.518z M70.958,52.202H37.252v-5.684h33.706V52.202z"/>
	<rect x="38.814" y="35.56" width="2.509" height="2.509"/>
	<rect x="42.577" y="35.56" width="2.509" height="2.509"/>
	<rect x="46.341" y="35.56" width="2.509" height="2.509"/>
	<rect x="38.814" y="48.105" width="2.509" height="2.508"/>
	<rect x="42.577" y="48.105" width="2.509" height="2.508"/>
	<rect x="46.341" y="48.105" width="2.509" height="2.508"/>
	<path d="M28.092,23.717v38.741h52.027V23.717H28.092z M78.119,60.458H30.092V25.717h48.027V60.458z"/>
	<path d="M61.5,67H46.711v4.75H29.092v2h17.619v4.75H61.5v-4.75h17.619v-2H61.5V67z M59.5,76.5H48.711V69H59.5V76.5z"/>
</g>
</svg>
