<?xml version="1.0" encoding="utf-8"?>
<!-- Generator: Adobe Illustrator 17.0.0, SVG Export Plug-In . SVG Version: 6.00 Build 0)  -->
<!DOCTYPE svg PUBLIC "-//W3C//DTD SVG 1.1//EN" "http://www.w3.org/Graphics/SVG/1.1/DTD/svg11.dtd">
<svg version="1.1" id="Layer_1" xmlns="http://www.w3.org/2000/svg" xmlns:xlink="http://www.w3.org/1999/xlink" x="0px" y="0px"
	 width="100px" height="100px" viewBox="0 0 100 100" enable-background="new 0 0 100 100" xml:space="preserve">
<g>
	<path d="M53.027,84.621c-1.598,0-2.897-1.3-2.897-2.897V65.267H26.942v-2.897c0-4.573,3.844-8.592,10.572-11.085l2.927-23.53
		c-7.297-1.972-8.862-5.139-8.862-7.491v-2.897h42.899v2.897c0,2.353-1.564,5.52-8.862,7.491l2.927,23.532
		c6.729,2.492,10.573,6.509,10.573,11.083v2.897H55.925v16.457C55.925,83.321,54.625,84.621,53.027,84.621z M28.942,63.267H52.13
		v18.457c0,0.495,0.402,0.897,0.897,0.897s0.897-0.402,0.897-0.897V63.267h23.191v-0.897c0-3.803-3.579-7.23-9.819-9.405
		L66.71,52.76l-3.297-26.518l0.867-0.21c5.287-1.281,8.198-3.33,8.198-5.769v-0.897H33.579v0.897c0,2.438,2.912,4.487,8.199,5.769
		l0.867,0.21l-3.299,26.515l-0.586,0.205c-6.24,2.177-9.818,5.605-9.818,9.407V63.267z"/>
</g>
</svg>
