<?xml version="1.0" encoding="utf-8"?>
<!-- Generator: Adobe Illustrator 17.0.0, SVG Export Plug-In . SVG Version: 6.00 Build 0)  -->
<!DOCTYPE svg PUBLIC "-//W3C//DTD SVG 1.1//EN" "http://www.w3.org/Graphics/SVG/1.1/DTD/svg11.dtd">
<svg version="1.1" id="Layer_1" xmlns="http://www.w3.org/2000/svg" xmlns:xlink="http://www.w3.org/1999/xlink" x="0px" y="0px"
	 width="100px" height="100px" viewBox="0 0 100 100" enable-background="new 0 0 100 100" xml:space="preserve">
<path d="M68.329,44.263c0.042-0.472,0.072-0.947,0.072-1.429c0-8.915-7.253-16.167-16.167-16.167s-16.167,7.252-16.167,16.167
	c0,0.537,0.029,1.067,0.081,1.591C30.209,46.817,26,52.631,26,59.417c0,8.914,7.252,16.166,16.167,16.166
	c3.907,0,7.494-1.394,10.292-3.709c2.798,2.315,6.385,3.709,10.292,3.709c8.914,0,16.167-7.252,16.167-16.166
	C78.917,52.466,74.498,46.542,68.329,44.263z M38.068,42.833c0-7.812,6.355-14.167,14.167-14.167s14.167,6.355,14.167,14.167
	c0,0.283-0.026,0.559-0.042,0.837c-1.162-0.266-2.367-0.421-3.609-0.421c-3.907,0-7.494,1.394-10.292,3.709
	c-2.798-2.316-6.385-3.709-10.292-3.709c-1.401,0-2.753,0.198-4.05,0.534C38.095,43.469,38.068,43.154,38.068,42.833z
	 M56.333,59.417c0,3.757-1.48,7.167-3.875,9.705c-2.395-2.538-3.875-5.948-3.875-9.705c0-0.283,0.026-0.559,0.042-0.837
	c1.162,0.266,2.367,0.42,3.608,0.42c1.401,0,2.753-0.198,4.05-0.534C56.306,58.782,56.333,59.096,56.333,59.417z M52.234,57
	c-1.161,0-2.284-0.156-3.365-0.421c0.537-2.629,1.813-4.986,3.589-6.868c1.751,1.856,3.013,4.174,3.562,6.76
	C54.813,56.807,53.547,57,52.234,57z M46.962,55.972c-4.321-1.741-7.594-5.546-8.581-10.192c1.207-0.336,2.473-0.529,3.786-0.529
	c3.337,0,6.403,1.167,8.827,3.105C49.021,50.45,47.597,53.062,46.962,55.972z M53.924,48.355c2.424-1.938,5.489-3.105,8.826-3.105
	c1.161,0,2.284,0.156,3.365,0.421c-0.929,4.55-4.049,8.308-8.204,10.133C57.259,52.962,55.857,50.409,53.924,48.355z M28,59.417
	c0-5.792,3.498-10.777,8.489-12.971c1.226,5.342,5.101,9.67,10.167,11.541c-0.042,0.472-0.072,0.947-0.072,1.43
	c0,4.28,1.684,8.167,4.409,11.062c-2.424,1.938-5.489,3.104-8.826,3.104C34.355,73.583,28,67.229,28,59.417z M62.75,73.583
	c-3.337,0-6.403-1.167-8.826-3.104c2.725-2.895,4.409-6.781,4.409-11.062c0-0.537-0.029-1.067-0.081-1.591
	c4.905-1.976,8.622-6.283,9.771-11.548c5.206,2.097,8.894,7.191,8.894,13.138C76.917,67.229,70.562,73.583,62.75,73.583z"/>
</svg>
