<?xml version="1.0" encoding="utf-8"?>
<!-- Generator: Adobe Illustrator 17.0.0, SVG Export Plug-In . SVG Version: 6.00 Build 0)  -->
<!DOCTYPE svg PUBLIC "-//W3C//DTD SVG 1.1//EN" "http://www.w3.org/Graphics/SVG/1.1/DTD/svg11.dtd">
<svg version="1.1" id="Layer_1" xmlns="http://www.w3.org/2000/svg" xmlns:xlink="http://www.w3.org/1999/xlink" x="0px" y="0px"
	 width="100px" height="100px" viewBox="0 0 100 100" enable-background="new 0 0 100 100" xml:space="preserve">
<path d="M88.167,15.579h-2h-8V26.5H27.15l-0.254-0.254L26.642,26.5h-4.475v-10h-8h-2h-8v21.333h8h2h8V28.5h4.156L43,45.178v28.697
	H30v18.5h7V82.75h26.375v9.625h7v-18.5h-12.75V45.263L74.388,28.5h3.779v8.413h8h2h8V15.579H88.167z M12.167,35.833h-6V18.5h6
	V35.833z M20.167,35.833h-6V18.5h6V35.833z M29.15,28.5h15.784c-2.5,1.735-4.143,4.623-4.143,7.89c0,2.065,0.668,3.968,1.784,5.534
	L29.15,28.5z M68.375,75.876v14.499h-3V80.75H35v9.625h-3v-14.5h13v-1h0.23V45.994h10.25v27.794v1.088h0.145v1H68.375z M53.65,43.25
	h-6.511c-2.566-1.223-4.347-3.834-4.347-6.861c0-4.192,3.41-7.603,7.603-7.603s7.603,3.411,7.603,7.603
	C57.998,39.415,56.216,42.027,53.65,43.25z M58.432,41.627c0.988-1.506,1.565-3.304,1.565-5.237c0-3.267-1.643-6.155-4.143-7.89
	H71.56L58.432,41.627z M86.167,34.913h-6V17.579h6V34.913z M94.167,34.913h-6V17.579h6V34.913z"/>
</svg>
