<?xml version="1.0" encoding="utf-8"?>
<!-- Generator: Adobe Illustrator 17.0.0, SVG Export Plug-In . SVG Version: 6.00 Build 0)  -->
<!DOCTYPE svg PUBLIC "-//W3C//DTD SVG 1.1//EN" "http://www.w3.org/Graphics/SVG/1.1/DTD/svg11.dtd">
<svg version="1.1" id="Layer_1" xmlns="http://www.w3.org/2000/svg" xmlns:xlink="http://www.w3.org/1999/xlink" x="0px" y="0px"
	 width="100px" height="100px" viewBox="0 0 100 100" enable-background="new 0 0 100 100" xml:space="preserve">
<g>
	<path d="M82,29h-6.125h-51.75H18v2h6.125v36.25h23.461l-10.48,10.48l1.414,1.414L49,68.664V79h2V68.664l10.199,10.199l1.414-1.414
		L52.414,67.25h23.461V31H82V29z M73.875,65.25h-47.75V31h47.75V65.25z"/>
	<polygon points="36.091,49.503 46.694,55.112 52.547,46.61 62.389,49.293 70.242,35.624 68.508,34.628 61.424,46.957 
		51.703,44.307 46.056,52.513 35.159,46.748 29.467,59.081 31.283,59.919 	"/>
</g>
</svg>
