<?xml version="1.0" encoding="utf-8"?>
<!-- Generator: Adobe Illustrator 16.0.0, SVG Export Plug-In . SVG Version: 6.00 Build 0)  -->
<!DOCTYPE svg PUBLIC "-//W3C//DTD SVG 1.1//EN" "http://www.w3.org/Graphics/SVG/1.1/DTD/svg11.dtd">
<svg version="1.1" id="Layer_1" xmlns="http://www.w3.org/2000/svg" xmlns:xlink="http://www.w3.org/1999/xlink" x="0px" y="0px"
	 width="100px" height="100px" viewBox="0 0 100 100" enable-background="new 0 0 100 100" xml:space="preserve">
<path d="M71.603,46.523c0-7.365-5.246-13.529-12.197-14.951V26H53.28v5.573c-6.951,1.422-12.197,7.586-12.197,14.96V72.41h9.227
	v4.582h12.064V72.41h9.228V46.523z M55.28,28h2.125v3.317c-0.353-0.024-0.704-0.054-1.062-0.054s-0.71,0.029-1.062,0.054V28z
	 M60.375,74.992h-8.064V72.41h8.064V74.992z M69.603,70.41h-7.228H50.311h-7.227l0-23.887c0-6.8,5.146-12.414,11.748-13.167h3.023
	c6.602,0.753,11.748,6.367,11.748,13.167V70.41z"/>
</svg>
