<?xml version="1.0" encoding="utf-8"?>
<!-- Generator: Adobe Illustrator 17.0.0, SVG Export Plug-In . SVG Version: 6.00 Build 0)  -->
<!DOCTYPE svg PUBLIC "-//W3C//DTD SVG 1.1//EN" "http://www.w3.org/Graphics/SVG/1.1/DTD/svg11.dtd">
<svg version="1.1" id="Layer_1" xmlns="http://www.w3.org/2000/svg" xmlns:xlink="http://www.w3.org/1999/xlink" x="0px" y="0px"
	 width="100px" height="100px" viewBox="0 0 100 100" enable-background="new 0 0 100 100" xml:space="preserve">
<g>
	<path d="M64.951,21h-2H51.285h-2.333H37.305h-2.021H21.305v14h-0.021v14v2v12v2v14h14h2h11.667h2.333h11.667h2h14V65v-2V51v-2V37
		v-2V21H64.951z M62.951,23v12H51.285V23H62.951z M62.951,49H51.285V37h11.667V49z M62.951,63H51.285V51h11.667V63z M37.285,51
		h11.667v12H37.285V51z M37.285,37h0.021h11.646v12H37.285V37z M48.951,23v12H37.305V23H48.951z M23.305,23h11.979v12H23.305V23z
		 M23.285,37h12v12h-12V37z M23.285,51h12v12h-12V51z M35.285,77h-12V65h12V77z M37.285,77V65h11.667v12H37.285z M62.951,77H51.285
		V65h11.667V77z M76.951,77h-12V65h12V77z M76.951,63h-12V51h12V63z M76.951,49h-12V37h12V49z M64.951,35V23h12v12H64.951z"/>
	<rect x="26.097" y="28" width="6.417" height="2"/>
	<rect x="39.979" y="28" width="6.417" height="2"/>
	<rect x="53.861" y="28" width="6.417" height="2"/>
	<rect x="26.076" y="42" width="6.417" height="2"/>
	<rect x="26.097" y="56" width="6.417" height="2"/>
	<rect x="26.076" y="70" width="6.417" height="2"/>
	<rect x="67.743" y="28" width="6.416" height="2"/>
</g>
</svg>
