<?xml version="1.0" encoding="utf-8"?>
<!-- Generator: Adobe Illustrator 17.0.0, SVG Export Plug-In . SVG Version: 6.00 Build 0)  -->
<!DOCTYPE svg PUBLIC "-//W3C//DTD SVG 1.1//EN" "http://www.w3.org/Graphics/SVG/1.1/DTD/svg11.dtd">
<svg version="1.1" id="Layer_1" xmlns="http://www.w3.org/2000/svg" xmlns:xlink="http://www.w3.org/1999/xlink" x="0px" y="0px"
	 width="100px" height="100px" viewBox="0 0 100 100" enable-background="new 0 0 100 100" xml:space="preserve">
<g>
	<path d="M52.64,47.262c-0.426,0-0.848-0.084-1.256-0.25c-0.428-0.178-0.794-0.424-1.101-0.735l-11.072-11.07
		c-1.295-1.294-1.295-3.402,0-4.697c1.254-1.255,3.443-1.256,4.698,0l5.412,5.411V23.867c0-1.832,1.49-3.321,3.321-3.321
		c1.832,0,3.322,1.49,3.322,3.321v12.054l5.413-5.412c1.251-1.254,3.439-1.255,4.696,0c1.294,1.296,1.294,3.403,0,4.698
		l-11.083,11.08c-0.301,0.303-0.661,0.545-1.07,0.716C53.492,47.177,53.065,47.262,52.64,47.262z M41.56,31.537
		c-0.354,0-0.686,0.137-0.935,0.387c-0.515,0.516-0.515,1.354,0,1.869l11.077,11.075c0.126,0.127,0.27,0.222,0.443,0.295
		c0.319,0.129,0.657,0.135,1.012-0.009c0.154-0.064,0.297-0.16,0.415-0.278l11.086-11.083c0.515-0.515,0.515-1.354,0-1.87
		c-0.5-0.497-1.37-0.498-1.868,0l-8.827,8.825V23.867c0-0.729-0.593-1.321-1.322-1.321c-0.729,0-1.321,0.593-1.321,1.321v16.882
		l-8.825-8.825C42.245,31.674,41.913,31.537,41.56,31.537z"/>
</g>
<g>
	<path d="M77.358,71.345H27.924V44.333h18.466v5.299h12.5v-5.299h18.467V71.345z M29.924,69.345h45.433V46.333H60.891v5.299h-16.5
		v-5.299H29.924V69.345z"/>
</g>
</svg>
