<?xml version="1.0" encoding="utf-8"?>
<!-- Generator: Adobe Illustrator 17.0.0, SVG Export Plug-In . SVG Version: 6.00 Build 0)  -->
<!DOCTYPE svg PUBLIC "-//W3C//DTD SVG 1.1//EN" "http://www.w3.org/Graphics/SVG/1.1/DTD/svg11.dtd">
<svg version="1.1" id="Layer_1" xmlns="http://www.w3.org/2000/svg" xmlns:xlink="http://www.w3.org/1999/xlink" x="0px" y="0px"
	 width="100px" height="100px" viewBox="0 0 100 100" enable-background="new 0 0 100 100" xml:space="preserve">
<path d="M63.875,64.812v-4.5h-2v4.5H57.5V86.43h10.75V64.812H63.875z M66.25,84.43H59.5V66.812h6.75V84.43z"/>
<rect x="43.5" y="35.253" width="2" height="2.684"/>
<rect x="43.5" y="38.749" width="2" height="14.813"/>
<path d="M52.009,62.96h5.346V31.166h-6.907c2.281-1.757,3.759-4.508,3.759-7.603c0-5.295-4.308-9.603-9.603-9.603
	s-9.603,4.308-9.603,9.603c0,3.095,1.478,5.846,3.759,7.603h-6.907V62.96h5.136L30.572,74h6.738v12.04h14.38V74h6.738L52.009,62.96z
	 M37.002,23.562c0-4.192,3.41-7.603,7.603-7.603s7.603,3.411,7.603,7.603s-3.41,7.603-7.603,7.603S37.002,27.755,37.002,23.562z
	 M49.69,72v2v10.04H39.31V74v-2h-2h-3.262l3.262-5.61l2-3.44v-1.99h-1.157h-4.298V33.166h21.5V60.96h-4.508H49.69v1.989l2,3.44
	L54.951,72h-3.262H49.69z"/>
</svg>
