<?xml version="1.0" encoding="utf-8"?>
<!-- Generator: Adobe Illustrator 16.0.0, SVG Export Plug-In . SVG Version: 6.00 Build 0)  -->
<!DOCTYPE svg PUBLIC "-//W3C//DTD SVG 1.1//EN" "http://www.w3.org/Graphics/SVG/1.1/DTD/svg11.dtd">
<svg version="1.1" id="Layer_1" xmlns="http://www.w3.org/2000/svg" xmlns:xlink="http://www.w3.org/1999/xlink" x="0px" y="0px"
	 width="100px" height="100px" viewBox="0 0 100 100" enable-background="new 0 0 100 100" xml:space="preserve">
<g>
	<path d="M43.953,57.291c-0.344,0-0.676-0.139-0.918-0.389c-0.281-0.291-0.409-0.697-0.342-1.098l0.6-3.613
		c0.044-0.262,0.169-0.504,0.357-0.692l20.277-21.276c0.498-0.499,1.308-0.499,1.806,0l3.115,3.116
		c0.239,0.239,0.373,0.563,0.373,0.903c0,0.339-0.134,0.663-0.373,0.903L48.572,56.42c-0.198,0.198-0.457,0.326-0.733,0.363
		l-3.716,0.497C44.065,57.287,44.009,57.291,43.953,57.291z M45.746,53.016l-0.25,1.504l1.576-0.211l19.068-20.066l-1.311-1.311
		L45.746,53.016z"/>
</g>
<g>
	<polygon points="70.221,80.651 18.418,80.651 18.418,28.849 61.661,28.849 61.661,30.849 20.418,30.849 20.418,78.651 
		68.221,78.651 68.221,37.8 70.221,37.8 	"/>
</g>
</svg>
