<?xml version="1.0" encoding="utf-8"?>
<!-- Generator: Adobe Illustrator 17.0.0, SVG Export Plug-In . SVG Version: 6.00 Build 0)  -->
<!DOCTYPE svg PUBLIC "-//W3C//DTD SVG 1.1//EN" "http://www.w3.org/Graphics/SVG/1.1/DTD/svg11.dtd">
<svg version="1.1" id="Layer_1" xmlns="http://www.w3.org/2000/svg" xmlns:xlink="http://www.w3.org/1999/xlink" x="0px" y="0px"
	 width="100px" height="100px" viewBox="0 0 100 100" enable-background="new 0 0 100 100" xml:space="preserve">
<g>
	<path d="M75,42.5h-7.068l-2.025-20.75H34.093L32.068,42.5H25v27h7v8.75h9V69.5h18v8.75h9V69.5h7V42.5z M35.907,23.75h28.186
		l1.805,18.5H34.103L35.907,23.75z M39,76.25h-5V69.5h5V76.25z M66,76.25h-5V69.5h5V76.25z M73,67.5h-5h-9H41h-9h-5v-23h46V67.5z"/>
	<path d="M36.5,61.25c3.277,0,5.943-2.666,5.943-5.943c0-3.276-2.666-5.942-5.943-5.942s-5.943,2.666-5.943,5.942
		C30.557,58.584,33.223,61.25,36.5,61.25z M36.5,51.364c2.175,0,3.943,1.769,3.943,3.942c0,2.175-1.769,3.943-3.943,3.943
		s-3.943-1.769-3.943-3.943C32.557,53.133,34.325,51.364,36.5,51.364z"/>
	<path d="M63.5,61.943c3.277,0,5.943-2.666,5.943-5.943s-2.666-5.943-5.943-5.943S57.557,52.723,57.557,56
		S60.223,61.943,63.5,61.943z M63.5,52.057c2.175,0,3.943,1.769,3.943,3.943s-1.769,3.943-3.943,3.943S59.557,58.175,59.557,56
		S61.325,52.057,63.5,52.057z"/>
</g>
</svg>
