<?xml version="1.0" encoding="utf-8"?>
<!-- Generator: Adobe Illustrator 17.0.0, SVG Export Plug-In . SVG Version: 6.00 Build 0)  -->
<!DOCTYPE svg PUBLIC "-//W3C//DTD SVG 1.1//EN" "http://www.w3.org/Graphics/SVG/1.1/DTD/svg11.dtd">
<svg version="1.1" id="Layer_1" xmlns="http://www.w3.org/2000/svg" xmlns:xlink="http://www.w3.org/1999/xlink" x="0px" y="0px"
	 width="100px" height="100px" viewBox="0 0 100 100" enable-background="new 0 0 100 100" xml:space="preserve">
<path d="M71,45.482c0-11.58-9.421-21-21-21c-11.58,0-21,9.42-21,21c0,11.242,8.886,20.423,20,20.95v9.558h-4.5v2H49v4.333h2V77.99
	h4.5v-2H51v-9.558C62.113,65.905,71,56.724,71,45.482z M31,45.482c0-10.477,8.523-19,19-19s19,8.523,19,19c0,10.477-8.523,19-19,19
	S31,55.959,31,45.482z"/>
</svg>
