<?xml version="1.0" encoding="utf-8"?>
<!-- Generator: Adobe Illustrator 17.0.0, SVG Export Plug-In . SVG Version: 6.00 Build 0)  -->
<!DOCTYPE svg PUBLIC "-//W3C//DTD SVG 1.1//EN" "http://www.w3.org/Graphics/SVG/1.1/DTD/svg11.dtd">
<svg version="1.1" id="Layer_1" xmlns="http://www.w3.org/2000/svg" xmlns:xlink="http://www.w3.org/1999/xlink" x="0px" y="0px"
	 width="100px" height="100px" viewBox="0 0 100 100" enable-background="new 0 0 100 100" xml:space="preserve">
<g>
	<path d="M57.943,88.206V69.279l-4.428-6.791V44.752l12.104-4.693V62.43l-5.33,6.809l0.72,18.176
		C60.003,87.721,58.984,87.991,57.943,88.206z"/>
</g>
<g>
	<path d="M51,89.908c-4.092,0-8.175-0.733-12.136-2.18l-0.657-0.24V63.021h7.542V40.219H30.304v22.802h7.542v24.366l-1.412-0.638
		C23.7,81.001,15.472,68.297,15.472,54.384c0-19.59,15.938-35.528,35.529-35.528c19.59,0,35.527,15.938,35.527,35.528
		c0,14.573-9.174,27.892-22.829,33.14l-1.302,0.5l-0.729-18.335l5.312-6.786V38.07l-14.828,5.748v19.073l4.43,6.792v19.754
		l-0.865,0.118C53.945,89.796,52.447,89.908,51,89.908z M40.208,86.082c3.534,1.212,7.161,1.826,10.792,1.826
		c1.115,0,2.271-0.072,3.581-0.226V70.276l-4.43-6.792V42.447l18.828-7.297v28.442l-5.284,6.751l0.588,14.781
		c12.165-5.278,20.245-17.457,20.245-30.74c0-18.487-15.04-33.528-33.527-33.528c-18.488,0-33.529,15.041-33.529,33.528
		c0,12.606,7.162,24.163,18.374,29.865V65.021h-7.542V38.219h19.445v26.802h-7.542V86.082z"/>
</g>
<g>
	<rect x="31.666" y="41.582" width="2.657" height="20.076"/>
</g>
<g>
	<rect x="36.666" y="41.582" width="2.657" height="20.076"/>
</g>
<g>
	<rect x="41.666" y="41.582" width="2.657" height="20.076"/>
</g>
</svg>
