<?xml version="1.0" encoding="utf-8"?>
<!-- Generator: Adobe Illustrator 17.0.0, SVG Export Plug-In . SVG Version: 6.00 Build 0)  -->
<!DOCTYPE svg PUBLIC "-//W3C//DTD SVG 1.1//EN" "http://www.w3.org/Graphics/SVG/1.1/DTD/svg11.dtd">
<svg version="1.1" id="Layer_1" xmlns="http://www.w3.org/2000/svg" xmlns:xlink="http://www.w3.org/1999/xlink" x="0px" y="0px"
	 width="100px" height="100px" viewBox="0 0 100 100" enable-background="new 0 0 100 100" xml:space="preserve">
<polygon points="61.278,41.892 59.864,43.306 65.552,48.996 51.037,48.967 51.065,34.367 56.694,39.996 58.108,38.582 50.07,30.544 
	41.892,38.722 43.306,40.136 48.996,34.448 48.967,48.963 34.367,48.935 39.996,43.306 38.582,41.892 30.544,49.93 38.722,58.108 
	40.136,56.694 34.448,51.004 48.963,51.033 48.935,65.633 43.306,60.004 41.892,61.418 49.93,69.456 58.108,61.278 56.694,59.864 
	51.004,65.552 51.033,51.037 65.633,51.065 60.004,56.694 61.418,58.108 69.456,50.07 "/>
</svg>
