<?xml version="1.0" encoding="utf-8"?>
<!-- Generator: Adobe Illustrator 17.0.0, SVG Export Plug-In . SVG Version: 6.00 Build 0)  -->
<!DOCTYPE svg PUBLIC "-//W3C//DTD SVG 1.1//EN" "http://www.w3.org/Graphics/SVG/1.1/DTD/svg11.dtd">
<svg version="1.1" id="Layer_1" xmlns="http://www.w3.org/2000/svg" xmlns:xlink="http://www.w3.org/1999/xlink" x="0px" y="0px"
	 width="100px" height="100px" viewBox="0 0 100 100" enable-background="new 0 0 100 100" xml:space="preserve">
<path d="M63.359,37.625c-6.065,0-11,4.935-11,11c0,3.72,1.861,7.008,4.695,9H39.664c2.835-1.992,4.695-5.28,4.695-9
	c0-6.065-4.935-11-11-11s-11,4.935-11,11c0,6.065,4.935,11,11,11h30c6.065,0,11-4.935,11-11
	C74.359,42.559,69.425,37.625,63.359,37.625z M24.359,48.625c0-4.962,4.038-9,9-9s9,4.038,9,9s-4.038,9-9,9
	S24.359,53.587,24.359,48.625z M63.359,57.624c-4.963,0-9-4.037-9-9s4.037-9,9-9s9,4.038,9,9S68.322,57.624,63.359,57.624z"/>
</svg>
