<?xml version="1.0" encoding="utf-8"?>
<!-- Generator: Adobe Illustrator 16.0.0, SVG Export Plug-In . SVG Version: 6.00 Build 0)  -->
<!DOCTYPE svg PUBLIC "-//W3C//DTD SVG 1.1//EN" "http://www.w3.org/Graphics/SVG/1.1/DTD/svg11.dtd">
<svg version="1.1" id="Layer_1" xmlns="http://www.w3.org/2000/svg" xmlns:xlink="http://www.w3.org/1999/xlink" x="0px" y="0px"
	 width="100px" height="100px" viewBox="0 0 100 100" enable-background="new 0 0 100 100" xml:space="preserve">
<path d="M76.072,30.757H27.796c-0.552,0-1,0.448-1,1V65.5c0,0.553,0.448,1,1,1h15.645l-5.234,6.828
	c-0.232,0.302-0.272,0.71-0.104,1.051c0.168,0.342,0.516,0.558,0.897,0.558h25.867c0.381,0,0.729-0.216,0.896-0.558
	c0.169-0.341,0.129-0.749-0.103-1.051L60.427,66.5h15.646c0.553,0,1-0.447,1-1V31.757C77.072,31.205,76.625,30.757,76.072,30.757z
	 M41.026,72.937l5.234-6.828l5.673-7.399l5.672,7.399l5.235,6.828H41.026z M75.072,64.5H58.894l-6.166-8.044
	c-0.189-0.247-0.482-0.392-0.794-0.392s-0.604,0.145-0.794,0.392L44.974,64.5H28.796V32.757h46.276V64.5z"/>
</svg>
