<?xml version="1.0" encoding="utf-8"?>
<!-- Generator: Adobe Illustrator 16.0.0, SVG Export Plug-In . SVG Version: 6.00 Build 0)  -->
<!DOCTYPE svg PUBLIC "-//W3C//DTD SVG 1.1//EN" "http://www.w3.org/Graphics/SVG/1.1/DTD/svg11.dtd">
<svg version="1.1" id="Layer_1" xmlns="http://www.w3.org/2000/svg" xmlns:xlink="http://www.w3.org/1999/xlink" x="0px" y="0px"
	 width="100px" height="100px" viewBox="0 0 100 100" enable-background="new 0 0 100 100" xml:space="preserve">
<path d="M73.125,23.999l-46.25,10.452v24.348l6.442,1.456c-0.074,0.532-0.125,1.062-0.125,1.582c0,6.431,5.232,11.663,11.663,11.663
	c5.152,0,9.587-3.295,11.109-8.127l17.16,3.878V23.999z M44.855,71.5c-5.328,0-9.663-4.335-9.663-9.663
	c0-0.375,0.028-0.757,0.076-1.141L54,64.93C52.691,68.843,49.064,71.5,44.855,71.5z M71.125,66.749l-15.654-3.538l-20.79-4.698
	l-5.806-1.312V36.049l42.25-9.548V66.749z"/>
</svg>
