<?xml version="1.0" encoding="utf-8"?>
<!-- Generator: Adobe Illustrator 17.0.0, SVG Export Plug-In . SVG Version: 6.00 Build 0)  -->
<!DOCTYPE svg PUBLIC "-//W3C//DTD SVG 1.1//EN" "http://www.w3.org/Graphics/SVG/1.1/DTD/svg11.dtd">
<svg version="1.1" id="Layer_1" xmlns="http://www.w3.org/2000/svg" xmlns:xlink="http://www.w3.org/1999/xlink" x="0px" y="0px"
	 width="100px" height="100px" viewBox="0 0 100 100" enable-background="new 0 0 100 100" xml:space="preserve">
<g>
	<path d="M28.582,68.519c-1.072,0-2.077-0.417-2.831-1.173L14.85,56.441c-0.363-0.354-0.666-0.808-0.869-1.304
		c-0.201-0.492-0.303-1.005-0.303-1.524c0-0.512,0.099-1.017,0.292-1.501c0.223-0.534,0.517-0.974,0.905-1.354l10.879-10.88
		c1.513-1.509,4.136-1.51,5.653-0.007c1.56,1.566,1.562,4.105,0.01,5.664l-4.078,4.077h37.25c2.207,0,4.002,1.795,4.002,4.002
		c0,2.206-1.795,4-4.002,4H27.339l4.073,4.072c1.552,1.563,1.553,4.101,0.005,5.656C30.654,68.103,29.649,68.519,28.582,68.519z
		 M28.584,40.708c-0.534,0-1.037,0.208-1.416,0.586L16.282,52.181c-0.2,0.196-0.348,0.419-0.46,0.688
		c-0.094,0.233-0.144,0.488-0.144,0.744c0,0.263,0.051,0.514,0.155,0.769c0.1,0.244,0.246,0.465,0.423,0.637l10.911,10.914
		c0.752,0.754,2.07,0.759,2.835-0.004c0.772-0.775,0.771-2.047-0.007-2.831l-7.485-7.483h42.081c1.104,0,2.002-0.897,2.002-2
		c0-1.104-0.898-2.002-2.002-2.002h-42.08l7.492-7.489c0.776-0.779,0.773-2.052-0.007-2.835
		C29.62,40.916,29.117,40.708,28.584,40.708z"/>
</g>
<g>
	<polygon points="89.186,80.267 34.667,80.267 34.667,58.614 36.667,58.614 36.667,78.267 87.186,78.267 87.186,27.748 
		36.667,27.748 36.667,48.612 34.667,48.612 34.667,25.748 89.186,25.748 	"/>
</g>
</svg>
