<?xml version="1.0" encoding="utf-8"?>
<!-- Generator: Adobe Illustrator 17.0.0, SVG Export Plug-In . SVG Version: 6.00 Build 0)  -->
<!DOCTYPE svg PUBLIC "-//W3C//DTD SVG 1.1//EN" "http://www.w3.org/Graphics/SVG/1.1/DTD/svg11.dtd">
<svg version="1.1" id="Layer_1" xmlns="http://www.w3.org/2000/svg" xmlns:xlink="http://www.w3.org/1999/xlink" x="0px" y="0px"
	 width="100px" height="100px" viewBox="0 0 100 100" enable-background="new 0 0 100 100" xml:space="preserve">
<g>
	<path d="M76.409,49.252C70.965,39.846,60.846,34.003,50,34.003c-10.847,0-20.966,5.843-26.409,15.25l-0.146,0.25l0.146,0.25
		c5.442,9.406,15.562,15.25,26.409,15.25c10.846,0,20.966-5.844,26.409-15.25l0.146-0.25L76.409,49.252z M50,64.002
		c-10.395,0-20.099-5.549-25.397-14.5c5.299-8.951,15.003-14.5,25.397-14.5c10.394,0,20.098,5.548,25.397,14.5
		C70.098,58.453,60.394,64.002,50,64.002z"/>
	<polygon points="56.5,47.014 55.5,47.014 55.5,48.848 53.5,48.848 53.5,47.014 52.5,47.014 52.5,48.848 50.5,48.848 50.5,47.014 
		49.5,47.014 49.5,48.848 47.5,48.848 47.5,47.014 46.5,47.014 46.5,48.848 44.5,48.848 44.5,47.014 43.5,47.014 43.5,48.848 
		39.333,48.848 39.333,49.848 43.5,49.848 43.5,51.681 44.5,51.681 44.5,49.848 46.5,49.848 46.5,51.681 47.5,51.681 47.5,49.848 
		49.5,49.848 49.5,51.681 50.5,51.681 50.5,49.848 52.5,49.848 52.5,51.681 53.5,51.681 53.5,49.848 55.5,49.848 55.5,51.681 
		56.5,51.681 56.5,49.848 60.666,49.848 60.666,48.848 56.5,48.848 	"/>
</g>
</svg>
