<?xml version="1.0" encoding="utf-8"?>
<!-- Generator: Adobe Illustrator 17.0.0, SVG Export Plug-In . SVG Version: 6.00 Build 0)  -->
<!DOCTYPE svg PUBLIC "-//W3C//DTD SVG 1.1//EN" "http://www.w3.org/Graphics/SVG/1.1/DTD/svg11.dtd">
<svg version="1.1" id="Layer_1" xmlns="http://www.w3.org/2000/svg" xmlns:xlink="http://www.w3.org/1999/xlink" x="0px" y="0px"
	 width="100px" height="100px" viewBox="0 0 100 100" enable-background="new 0 0 100 100" xml:space="preserve">
<g>
	<path d="M51.844,70.866c-0.512,0-1.017-0.098-1.499-0.29c-0.545-0.23-0.981-0.524-1.354-0.906L38.109,58.789
		c-0.756-0.759-1.171-1.763-1.171-2.828s0.414-2.068,1.165-2.824c1.522-1.517,4.153-1.514,5.664-0.011l4.076,4.078V24.628
		c0-2.207,1.795-4.003,4.002-4.003c2.206,0,4,1.796,4,4.003v32.577l4.074-4.074c1.519-1.509,4.148-1.506,5.657-0.003
		c0.759,0.761,1.175,1.767,1.175,2.834c0,1.069-0.416,2.074-1.173,2.829L54.672,69.693c-0.352,0.362-0.807,0.667-1.304,0.869
		C52.88,70.764,52.366,70.866,51.844,70.866z M40.942,53.962c-0.538,0-1.044,0.209-1.425,0.589c-0.373,0.374-0.58,0.877-0.58,1.41
		s0.208,1.035,0.586,1.415l10.888,10.888c0.193,0.197,0.417,0.346,0.693,0.463c0.456,0.182,1.007,0.189,1.505-0.015
		c0.247-0.101,0.466-0.246,0.637-0.422l10.918-10.914c0.378-0.378,0.586-0.88,0.586-1.414s-0.209-1.039-0.589-1.42
		c-0.75-0.746-2.074-0.746-2.832,0.006l-7.485,7.485V24.628c0-1.104-0.897-2.003-2-2.003c-1.104,0-2.002,0.898-2.002,2.003v37.406
		l-7.489-7.492C41.979,54.169,41.477,53.962,40.942,53.962z"/>
</g>
<g>
	<polygon points="76.667,81.875 26.833,81.875 26.833,61.998 28.833,61.998 28.833,79.875 74.667,79.875 74.667,61.998 
		76.667,61.998 	"/>
</g>
</svg>
