<?xml version="1.0" encoding="utf-8"?>
<!-- Generator: Adobe Illustrator 17.0.0, SVG Export Plug-In . SVG Version: 6.00 Build 0)  -->
<!DOCTYPE svg PUBLIC "-//W3C//DTD SVG 1.1//EN" "http://www.w3.org/Graphics/SVG/1.1/DTD/svg11.dtd">
<svg version="1.1" id="Layer_1" xmlns="http://www.w3.org/2000/svg" xmlns:xlink="http://www.w3.org/1999/xlink" x="0px" y="0px"
	 width="100px" height="100px" viewBox="0 0 100 100" enable-background="new 0 0 100 100" xml:space="preserve">
<path d="M67.731,48.992l5.759,5.76l-8.99-0.043v-0.023h-3.851l-8.275-7.992l8.27-7.988L73.5,38.767l-5.629,5.629l1.414,1.414
	l8.038-8.038l-8.178-8.178l-1.414,1.414l5.759,5.76l-8.99-0.043v-0.023h-4.255c-0.259,0-0.508,0.101-0.694,0.281l-8.616,8.321
	l-8.615-8.321c-0.187-0.18-0.436-0.281-0.695-0.281h-12v2h11.596l8.275,7.992l-8.275,7.992H29.625v2h12
	c0.259,0,0.508-0.101,0.695-0.28l8.615-8.321l8.616,8.321c0.186,0.18,0.435,0.28,0.694,0.28v0.003L73.5,56.751l-5.629,5.629
	l1.414,1.414l8.038-8.038l-8.178-8.178L67.731,48.992z"/>
</svg>
