<?xml version="1.0" encoding="utf-8"?>
<!-- Generator: Adobe Illustrator 17.0.0, SVG Export Plug-In . SVG Version: 6.00 Build 0)  -->
<!DOCTYPE svg PUBLIC "-//W3C//DTD SVG 1.1//EN" "http://www.w3.org/Graphics/SVG/1.1/DTD/svg11.dtd">
<svg version="1.1" id="Layer_1" xmlns="http://www.w3.org/2000/svg" xmlns:xlink="http://www.w3.org/1999/xlink" x="0px" y="0px"
	 width="100px" height="100px" viewBox="0 0 100 100" enable-background="new 0 0 100 100" xml:space="preserve">
<path d="M77.28,73.12l-8.215-8.401l4.022-3.933l2.145-2.097l-1.398-1.43l-2.145,2.097l-6.754-6.907l15.978-16.34l-3.181-10.156
	l-10.225-2.953L51.823,39.04L36.139,23.001l-10.225,2.953l-3.181,10.156l15.978,16.34l-6.754,6.907l-2.145-2.097l-1.398,1.43
	l2.145,2.097l4.022,3.933l-8.215,8.401l-2.234-2.185l-1.398,1.43l2.234,2.185l5.362,5.243l2.234,2.185l1.398-1.43l-2.234-2.185
	l8.215-8.401l4.022,3.933l2.145,2.097l1.398-1.43l-2.145-2.097l6.46-6.606l6.46,6.606l-2.145,2.097l1.398,1.43l2.145-2.097
	l4.022-3.933l8.215,8.401l-2.234,2.185l1.398,1.43l2.234-2.185l5.362-5.243l2.234-2.185l-1.398-1.43L77.28,73.12z M24.999,35.566
	l2.503-7.989l8.043-2.323L50.424,40.47L40.109,51.019L24.999,35.566z M30.298,76.965l-2.503-2.447l8.215-8.401l2.502,2.447
	L30.298,76.965z M50.424,64.428l-6.491,6.638l-2.592-2.534l-5.362-5.244l-2.592-2.534l6.722-6.875l1.399-1.43l10.315-10.549
	l1.399-1.43l14.879-15.217l8.043,2.323l2.503,7.989L63.536,51.019l-1.399,1.43L51.823,62.998L50.424,64.428z M62.304,68.532
	l-2.592,2.534l-6.491-6.638L63.536,53.88l6.722,6.875l-2.592,2.534L62.304,68.532z M73.348,76.965l-8.215-8.401l2.502-2.447
	l8.215,8.401L73.348,76.965z"/>
</svg>
