<?xml version="1.0" encoding="utf-8"?>
<!-- Generator: Adobe Illustrator 17.0.0, SVG Export Plug-In . SVG Version: 6.00 Build 0)  -->
<!DOCTYPE svg PUBLIC "-//W3C//DTD SVG 1.1//EN" "http://www.w3.org/Graphics/SVG/1.1/DTD/svg11.dtd">
<svg version="1.1" id="Layer_1" xmlns="http://www.w3.org/2000/svg" xmlns:xlink="http://www.w3.org/1999/xlink" x="0px" y="0px"
	 width="100px" height="100px" viewBox="0 0 100 100" enable-background="new 0 0 100 100" xml:space="preserve">
<path d="M73.501,35.398l0.006-0.975h-0.006V23.827H60.906v10.595v2v16.344c0,6.014-4.893,10.906-10.906,10.906
	S39.094,58.78,39.094,52.766V36.423v-2V23.827H26.499v10.595h-0.006l0.006,0.969v1.031h0.006l0.102,16.893
	C26.899,65.919,37.393,76.173,50,76.173c12.622,0,23.116-10.266,23.394-22.9l0.101-16.85h0.006V35.398z M62.906,25.827h8.595v8.595
	h-8.595V25.827z M28.499,25.827h8.595v8.595h-8.595V25.827z M71.394,53.245C71.141,64.784,61.543,74.173,50,74.173
	c-11.53,0-21.127-9.378-21.394-20.887l-0.102-16.863h8.589v16.344c0,7.116,5.79,12.906,12.907,12.906
	c7.116,0,12.906-5.79,12.906-12.906V36.423h8.589L71.394,53.245z"/>
</svg>
