<?xml version="1.0" encoding="utf-8"?>
<!-- Generator: Adobe Illustrator 17.0.0, SVG Export Plug-In . SVG Version: 6.00 Build 0)  -->
<!DOCTYPE svg PUBLIC "-//W3C//DTD SVG 1.1//EN" "http://www.w3.org/Graphics/SVG/1.1/DTD/svg11.dtd">
<svg version="1.1" id="Layer_1" xmlns="http://www.w3.org/2000/svg" xmlns:xlink="http://www.w3.org/1999/xlink" x="0px" y="0px"
	 width="100px" height="100px" viewBox="0 0 100 100" enable-background="new 0 0 100 100" xml:space="preserve">
<path d="M81.448,68.359c7.934,0,14.389-6.456,14.389-14.391c0-5.924-3.594-11.171-9.039-13.347c0.312-1.188,0.47-2.41,0.47-3.646
	c0-7.935-6.456-14.39-14.391-14.39c-4.586,0-8.668,2.164-11.305,5.517c-2.635-3.395-6.743-5.593-11.363-5.593
	c-4.62,0-8.727,2.198-11.362,5.593c-2.637-3.352-6.72-5.517-11.306-5.517c-7.934,0-14.389,6.456-14.389,14.39
	c0,1.311,0.177,2.604,0.527,3.858c-5.129,2.292-8.513,7.455-8.513,13.136c0,7.935,6.456,14.391,14.391,14.391
	c1.669,0,3.351-0.306,4.939-0.892v3.273H9.501v6.675H46V77.34h8.837v0.076h36.498V75.12c0.113-0.34,0.17-0.689,0.17-1.042
	s-0.057-0.702-0.17-1.042v-2.295H76.506v-3.273C78.095,68.053,79.778,68.359,81.448,68.359z M11.501,72.741h14.995v-8.409
	l-1.446,0.722c-1.714,0.854-3.614,1.306-5.493,1.306c-6.833,0-12.391-5.559-12.391-12.391c0-5.167,3.251-9.837,8.09-11.619
	l0.925-0.341l-0.328-0.93c-0.465-1.319-0.701-2.7-0.701-4.104c0-6.832,5.558-12.39,12.389-12.39c4.185,0,7.885,2.091,10.129,5.277
	c-1.174,2.083-1.851,4.481-1.851,7.037c0,1.311,0.177,2.604,0.527,3.858c-5.129,2.292-8.513,7.455-8.513,13.136
	c0,5.281,2.868,9.894,7.12,12.397c-1.493-0.146-2.973-0.559-4.337-1.238l-1.445-0.72v8.408h2.998v2.675H11.501V72.741z
	 M39.315,67.987c0.94,0.194,1.913,0.296,2.91,0.296c1.669,0,3.351-0.306,4.939-0.892v3.273H32.169v0.076h-0.998v-3.273
	c1.589,0.586,3.271,0.892,4.941,0.892C37.215,68.359,38.284,68.223,39.315,67.987z M46,75.34h-2h-9.831v-2.599v-0.076H46h3.165
	v-8.409l-1.446,0.722c-1.277,0.636-2.656,1.047-4.053,1.216c-0.479,0.058-0.96,0.089-1.44,0.089c-1.004,0-1.975-0.133-2.91-0.359
	c-5.431-1.314-9.481-6.203-9.481-12.031c0-5.167,3.251-9.837,8.09-11.619l0.925-0.341l-0.328-0.93
	c-0.465-1.319-0.701-2.7-0.701-4.104c0-1.759,0.374-3.431,1.038-4.948c0.324-0.74,0.717-1.441,1.172-2.097
	c2.239-3.225,5.964-5.345,10.179-5.345c4.215,0,7.941,2.12,10.18,5.345c0.456,0.656,0.849,1.357,1.173,2.097
	c0.664,1.517,1.038,3.189,1.038,4.948c0,1.347-0.218,2.674-0.646,3.946l-0.323,0.958l0.962,0.312
	c5.13,1.662,8.576,6.395,8.576,11.777c0,5.828-4.05,10.717-9.48,12.031c-0.935,0.226-1.906,0.359-2.909,0.359
	c-0.48,0-0.962-0.031-1.442-0.09c-1.397-0.17-2.776-0.581-4.054-1.217l-1.445-0.72v8.408h2.998h11.831v0.076v0.587l0.071,0.179
	c0.065,0.163,0.099,0.33,0.099,0.495s-0.033,0.332-0.099,0.495l-0.071,0.179v0.664h-9.831h-2H46z M64.893,68.359
	c1.669,0,3.351-0.306,4.939-0.892v3.273h-1.165v-0.076H53.839v-3.273c1.589,0.586,3.271,0.892,4.941,0.892
	c0.996,0,1.969-0.102,2.909-0.296C62.721,68.223,63.79,68.359,64.893,68.359z M89.334,72.741v0.663l0.071,0.179
	c0.065,0.163,0.099,0.33,0.099,0.495s-0.033,0.332-0.099,0.495l-0.071,0.179v0.664H68.667v-0.372c0.113-0.34,0.17-0.689,0.17-1.042
	s-0.057-0.702-0.17-1.042v-0.219h3.165v-8.409l-1.446,0.722c-1.362,0.679-2.842,1.091-4.335,1.237
	c4.251-2.504,7.119-7.117,7.119-12.397c0-5.924-3.594-11.171-9.039-13.347c0.312-1.188,0.47-2.41,0.47-3.646
	c0-2.556-0.677-4.954-1.851-7.037c2.244-3.186,5.944-5.277,10.128-5.277c6.832,0,12.391,5.558,12.391,12.39
	c0,1.347-0.218,2.674-0.646,3.946l-0.323,0.958l0.962,0.312c5.13,1.662,8.576,6.395,8.576,11.777
	c0,6.832-5.558,12.391-12.389,12.391c-1.879,0-3.779-0.452-5.496-1.307l-1.445-0.72v8.408H89.334z"/>
</svg>
