<?xml version="1.0" encoding="utf-8"?>
<!-- Generator: Adobe Illustrator 17.0.0, SVG Export Plug-In . SVG Version: 6.00 Build 0)  -->
<!DOCTYPE svg PUBLIC "-//W3C//DTD SVG 1.1//EN" "http://www.w3.org/Graphics/SVG/1.1/DTD/svg11.dtd">
<svg version="1.1" id="Layer_1" xmlns="http://www.w3.org/2000/svg" xmlns:xlink="http://www.w3.org/1999/xlink" x="0px" y="0px"
	 width="100px" height="100px" viewBox="0 0 100 100" enable-background="new 0 0 100 100" xml:space="preserve">
<g>
	<path d="M77.423,33.168l-9.546-9.545c-1.462-1.463-3.409-2.269-5.482-2.269s-4.021,0.806-5.482,2.269L24.231,56.304
		c-3.023,3.023-3.023,7.943,0,10.968l9.545,9.545c1.463,1.463,3.41,2.269,5.483,2.269c2.073,0,4.021-0.806,5.484-2.269
		l32.681-32.681C80.446,41.111,80.445,36.192,77.423,33.168z M76.01,42.721L43.329,75.402c-1.085,1.085-2.531,1.683-4.07,1.683
		s-2.984-0.598-4.069-1.683l-9.545-9.545c-2.244-2.244-2.244-5.896,0-8.14l32.681-32.681c1.085-1.085,2.529-1.683,4.068-1.683
		s2.983,0.598,4.068,1.683l9.546,9.545C78.252,36.826,78.252,40.478,76.01,42.721z"/>
	<path d="M57.199,43.846c0.193-1.201-0.173-2.476-1.097-3.4c-1.482-1.48-4.065-1.482-5.546,0c-1.005,1.006-1.349,2.427-1.031,3.717
		c-1.299-0.323-2.752,0.065-3.719,1.035c-0.741,0.74-1.149,1.724-1.149,2.772c0,0.26,0.025,0.517,0.074,0.767
		c-1.253-0.246-2.614,0.149-3.541,1.074c-1.527,1.529-1.527,4.017,0.001,5.548c0.891,0.89,2.179,1.293,3.401,1.097
		c-0.192,1.201,0.173,2.476,1.097,3.401c0.741,0.74,1.726,1.147,2.773,1.147c1.048,0,2.032-0.408,2.771-1.148
		c0.96-0.961,1.317-2.3,1.071-3.542c1.261,0.253,2.619-0.146,3.544-1.073c0.741-0.74,1.149-1.725,1.149-2.772
		c0-0.321-0.038-0.638-0.113-0.942c1.294,0.319,2.747-0.066,3.714-1.035c0.741-0.741,1.15-1.726,1.15-2.773
		c0-1.048-0.408-2.033-1.15-2.775C59.71,44.054,58.425,43.65,57.199,43.846z M45.323,53.943c-0.725,0.724-1.993,0.724-2.717,0.001
		c-0.749-0.751-0.749-1.972-0.001-2.72c0.363-0.363,0.846-0.563,1.36-0.563s0.996,0.2,1.357,0.562
		C46.07,51.974,46.07,53.193,45.323,53.943z M49.82,58.441c-0.724,0.727-1.991,0.725-2.716,0c-0.75-0.75-0.75-1.97,0-2.719
		c0.363-0.362,0.846-0.562,1.359-0.562c0.513,0,0.996,0.199,1.358,0.562C50.569,56.472,50.569,57.691,49.82,58.441z M49.231,53.235
		c-0.25-0.05-0.507-0.075-0.769-0.075c-0.213,0-0.424,0.017-0.63,0.05c0.074-0.462,0.066-0.935-0.025-1.394
		c0.454,0.089,0.938,0.099,1.398,0.025c-0.033,0.205-0.049,0.414-0.049,0.626C49.156,52.729,49.182,52.984,49.231,53.235z
		 M49.937,49.329c-0.726,0.726-1.991,0.726-2.716,0c-0.363-0.363-0.563-0.846-0.563-1.359c0-0.513,0.2-0.995,0.563-1.358
		c0.363-0.363,0.845-0.563,1.358-0.563s0.996,0.2,1.358,0.562c0.363,0.363,0.563,0.846,0.563,1.359
		C50.501,48.482,50.3,48.965,49.937,49.329z M54.436,53.826c-0.727,0.727-1.99,0.727-2.717,0c-0.362-0.363-0.562-0.846-0.562-1.358
		c0-0.514,0.2-0.996,0.562-1.358s0.845-0.562,1.358-0.562s0.996,0.199,1.358,0.562c0.363,0.363,0.563,0.846,0.563,1.358
		S54.799,53.463,54.436,53.826z M54.023,48.662c-0.306-0.075-0.623-0.114-0.946-0.114c-0.212,0-0.421,0.017-0.626,0.049
		c0.032-0.206,0.05-0.415,0.05-0.627c0-0.322-0.039-0.638-0.113-0.943c0.506,0.124,1.053,0.147,1.571,0.063
		C53.875,47.611,53.896,48.147,54.023,48.662z M54.689,44.577c-0.727,0.727-1.993,0.726-2.718,0.001
		c-0.749-0.75-0.749-1.969-0.001-2.718c0.363-0.363,0.846-0.562,1.358-0.562c0.514,0,0.997,0.2,1.359,0.562
		C55.438,42.609,55.438,43.828,54.689,44.577z M59.186,49.076c-0.726,0.726-1.993,0.723-2.716,0c-0.749-0.75-0.749-1.97-0.002-2.719
		c0.363-0.362,0.846-0.562,1.359-0.562s0.996,0.199,1.358,0.561c0.364,0.364,0.564,0.847,0.564,1.36
		C59.75,48.229,59.55,48.712,59.186,49.076z"/>
</g>
</svg>
