<?xml version="1.0" encoding="utf-8"?>
<!-- Generator: Adobe Illustrator 17.0.0, SVG Export Plug-In . SVG Version: 6.00 Build 0)  -->
<!DOCTYPE svg PUBLIC "-//W3C//DTD SVG 1.1//EN" "http://www.w3.org/Graphics/SVG/1.1/DTD/svg11.dtd">
<svg version="1.1" id="Layer_1" xmlns="http://www.w3.org/2000/svg" xmlns:xlink="http://www.w3.org/1999/xlink" x="0px" y="0px"
	 width="100px" height="100px" viewBox="0 0 100 100" enable-background="new 0 0 100 100" xml:space="preserve">
<g>
	<g>
		<path d="M56.984,87.559c-1.876,0-3.401-1.525-3.401-3.401c0-1.875,1.525-3.4,3.401-3.4c1.875,0,3.4,1.525,3.4,3.4
			C60.385,86.033,58.859,87.559,56.984,87.559z M56.984,82.757c-0.772,0-1.401,0.628-1.401,1.4s0.629,1.401,1.401,1.401
			s1.4-0.629,1.4-1.401S57.757,82.757,56.984,82.757z"/>
	</g>
</g>
<g>
	<path d="M84.25,92H29.718c-0.552,0-1-0.447-1-1V16.783c0-0.552,0.448-1,1-1H84.25c0.553,0,1,0.448,1,1V91
		C85.25,91.553,84.803,92,84.25,92z M30.718,90H83.25V17.783H30.718V90z"/>
</g>
<g>
	<path d="M81.234,78.5h-48.5c-0.552,0-1-0.447-1-1V21.25c0-0.552,0.448-1,1-1h48.5c0.553,0,1,0.448,1,1V77.5
		C82.234,78.053,81.787,78.5,81.234,78.5z M33.734,76.5h46.5V22.25h-46.5V76.5z"/>
</g>
</svg>
