<?xml version="1.0" encoding="utf-8"?>
<!-- Generator: Adobe Illustrator 17.0.0, SVG Export Plug-In . SVG Version: 6.00 Build 0)  -->
<!DOCTYPE svg PUBLIC "-//W3C//DTD SVG 1.1//EN" "http://www.w3.org/Graphics/SVG/1.1/DTD/svg11.dtd">
<svg version="1.1" id="Layer_1" xmlns="http://www.w3.org/2000/svg" xmlns:xlink="http://www.w3.org/1999/xlink" x="0px" y="0px"
	 width="100px" height="100px" viewBox="0 0 100 100" enable-background="new 0 0 100 100" xml:space="preserve">
<g>
	<path d="M39.539,37.086l-2.646-7.185h-6.572v2h5.178l2.374,6.447l3.694,21.23h20.035l8.078-22.492H39.539z M60.195,57.578H43.248
		l-3.217-18.492h26.805L60.195,57.578z"/>
	<path d="M45.446,61.526c-2.343,0-4.25,1.906-4.25,4.25s1.907,4.25,4.25,4.25s4.25-1.906,4.25-4.25S47.789,61.526,45.446,61.526z
		 M45.446,68.026c-1.241,0-2.25-1.01-2.25-2.25s1.009-2.25,2.25-2.25s2.25,1.01,2.25,2.25S46.687,68.026,45.446,68.026z"/>
	<path d="M56.446,61.526c-2.344,0-4.25,1.906-4.25,4.25s1.906,4.25,4.25,4.25s4.25-1.906,4.25-4.25S58.79,61.526,56.446,61.526z
		 M56.446,68.026c-1.24,0-2.25-1.01-2.25-2.25s1.01-2.25,2.25-2.25s2.25,1.01,2.25,2.25S57.686,68.026,56.446,68.026z"/>
</g>
</svg>
