<?xml version="1.0" encoding="utf-8"?>
<!-- Generator: Adobe Illustrator 17.0.0, SVG Export Plug-In . SVG Version: 6.00 Build 0)  -->
<!DOCTYPE svg PUBLIC "-//W3C//DTD SVG 1.1//EN" "http://www.w3.org/Graphics/SVG/1.1/DTD/svg11.dtd">
<svg version="1.1" id="Layer_1" xmlns="http://www.w3.org/2000/svg" xmlns:xlink="http://www.w3.org/1999/xlink" x="0px" y="0px"
	 width="100px" height="100px" viewBox="0 0 100 100" enable-background="new 0 0 100 100" xml:space="preserve">
<g>
	<path d="M49.625,19.129c15.228,0,27.744,11.802,28.903,26.738l-5.363-5.363l-1.414,1.414l7.167,7.167h1.414l7.833-7.834
		l-1.414-1.414l-6.204,6.205c-1.078-16.123-14.53-28.913-30.922-28.913c-17.094,0-31,13.907-31,31h2
		C20.625,32.139,33.635,19.129,49.625,19.129z"/>
	<path d="M49.625,80.871c-15.228,0-27.744-11.802-28.903-26.738l5.363,5.363l1.414-1.414l-7.167-7.167h-1.414l-7.833,7.833
		l1.414,1.414l6.204-6.204c1.078,16.123,14.53,28.913,30.922,28.913c17.094,0,31-13.906,31-31h-2
		C78.625,67.861,65.615,80.871,49.625,80.871z"/>
</g>
</svg>
