<?xml version="1.0" encoding="utf-8"?>
<!-- Generator: Adobe Illustrator 17.0.0, SVG Export Plug-In . SVG Version: 6.00 Build 0)  -->
<!DOCTYPE svg PUBLIC "-//W3C//DTD SVG 1.1//EN" "http://www.w3.org/Graphics/SVG/1.1/DTD/svg11.dtd">
<svg version="1.1" id="Layer_1" xmlns="http://www.w3.org/2000/svg" xmlns:xlink="http://www.w3.org/1999/xlink" x="0px" y="0px"
	 width="100px" height="100px" viewBox="0 0 100 100" enable-background="new 0 0 100 100" xml:space="preserve">
<g>
	<path d="M37.551,79.075c-0.091,0-0.227-0.006-0.374-0.057c-3.123-1.077-5.135-4.216-6.91-6.985l-0.314-0.491
		c-3.076-4.776-4.702-10.422-4.702-16.326c0-15.358,11.103-27.853,24.75-27.853s24.75,12.494,24.75,27.853
		c0,4.722-1.073,9.392-3.103,13.503c-0.158,0.32-0.311,0.647-0.463,0.977c-0.687,1.48-1.397,3.012-2.701,4.01
		c-0.647,0.496-1.491,0.496-2.235,0.496c-1.244,0-2.424-0.421-3.42-1.218c-1.06-0.849-1.425-2.056-1.812-3.332
		c-0.075-0.249-0.151-0.501-0.234-0.753c-0.886-2.704-4.207-3.663-6.782-3.663c-3.433,0-7.398,2.244-8.338,6.533
		c-0.047,0.215-0.09,0.431-0.131,0.644c-0.146,0.744-0.298,1.514-0.647,2.223c-1.343,2.734-4.063,4.434-7.101,4.434L37.551,79.075z
		 M50,28.363c-13.096,0-23.75,12.046-23.75,26.853c0,5.712,1.57,11.171,4.542,15.785l0.316,0.492
		c1.771,2.761,3.601,5.616,6.394,6.58l0.049,0.002l0.232-0.007c2.653,0,5.03-1.484,6.203-3.875c0.291-0.59,0.424-1.263,0.563-1.975
		c0.043-0.22,0.087-0.441,0.136-0.665c1.052-4.805,5.482-7.318,9.314-7.318c2.909,0,6.681,1.14,7.733,4.352
		c0.085,0.26,0.163,0.519,0.24,0.774c0.355,1.173,0.662,2.187,1.479,2.841c0.816,0.653,1.78,0.999,2.785,0.999
		c0.624,0,1.259,0,1.638-0.29c1.108-0.849,1.766-2.266,2.401-3.637c0.156-0.336,0.312-0.671,0.474-0.999
		c1.962-3.974,2.999-8.49,2.999-13.06C73.75,40.409,63.096,28.363,50,28.363z"/>
</g>
<g>
	<path d="M38.25,72.235c-2.113,0-3.833-1.72-3.833-3.834c0-2.113,1.72-3.833,3.833-3.833s3.833,1.72,3.833,3.833
		C42.083,70.515,40.363,72.235,38.25,72.235z M38.25,65.568c-1.562,0-2.833,1.271-2.833,2.833s1.271,2.834,2.833,2.834
		s2.833-1.271,2.833-2.834S39.812,65.568,38.25,65.568z"/>
</g>
<g>
	<path d="M52.853,49.003c-1.483,0-2.63-0.531-3.229-1.496c-1.23-1.986,0.276-5.073,3.431-7.028c1.501-0.931,3.132-1.442,4.593-1.442
		c1.483,0,2.63,0.531,3.229,1.496c1.23,1.986-0.276,5.073-3.431,7.028C55.944,48.492,54.313,49.003,52.853,49.003z M57.647,40.037
		c-1.259,0-2.74,0.471-4.065,1.292c-2.589,1.604-4.013,4.193-3.108,5.651c0.409,0.66,1.254,1.023,2.379,1.023
		c1.259,0,2.74-0.471,4.065-1.292c2.589-1.604,4.013-4.193,3.108-5.651C59.617,40.4,58.772,40.037,57.647,40.037z"/>
</g>
<g>
	<path d="M61.687,54.623c-1.484,0-2.631-0.531-3.229-1.496c-1.231-1.985,0.275-5.073,3.43-7.029c1.501-0.93,3.131-1.442,4.592-1.442
		c1.484,0,2.631,0.532,3.229,1.497c1.23,1.986-0.275,5.073-3.43,7.028C64.778,54.111,63.147,54.623,61.687,54.623z M66.479,45.655
		c-1.259,0-2.74,0.471-4.064,1.292c-2.589,1.605-4.012,4.194-3.107,5.652c0.409,0.66,1.254,1.023,2.379,1.023
		c1.259,0,2.74-0.471,4.065-1.292c2.589-1.604,4.012-4.192,3.107-5.651C68.45,46.019,67.604,45.655,66.479,45.655z"/>
</g>
<g>
	<path d="M63.952,63.398c-1.484,0-2.631-0.532-3.229-1.497c-0.612-0.987-0.563-2.28,0.138-3.641
		c0.658-1.276,1.827-2.479,3.292-3.388c1.501-0.931,3.132-1.442,4.593-1.442c1.483,0,2.63,0.531,3.229,1.496
		c1.23,1.986-0.276,5.074-3.431,7.029C67.043,62.885,65.413,63.398,63.952,63.398z M68.746,54.43c-1.259,0-2.741,0.471-4.065,1.292
		c-1.313,0.814-2.354,1.878-2.931,2.997c-0.534,1.034-0.597,1.978-0.177,2.654c0.409,0.661,1.254,1.024,2.379,1.024
		c1.259,0,2.74-0.471,4.064-1.292c2.589-1.604,4.012-4.193,3.108-5.652C70.716,54.793,69.87,54.43,68.746,54.43z"/>
</g>
</svg>
