<?xml version="1.0" encoding="utf-8"?>
<!-- Generator: Adobe Illustrator 17.0.0, SVG Export Plug-In . SVG Version: 6.00 Build 0)  -->
<!DOCTYPE svg PUBLIC "-//W3C//DTD SVG 1.1//EN" "http://www.w3.org/Graphics/SVG/1.1/DTD/svg11.dtd">
<svg version="1.1" id="Layer_1" xmlns="http://www.w3.org/2000/svg" xmlns:xlink="http://www.w3.org/1999/xlink" x="0px" y="0px"
	 width="100px" height="100px" viewBox="0 0 100 100" enable-background="new 0 0 100 100" xml:space="preserve">
<path d="M48.258,62.96h5.346V31.166h-6.907c2.281-1.757,3.759-4.508,3.759-7.603c0-5.295-4.308-9.603-9.603-9.603
	s-9.603,4.308-9.603,9.603c0,3.095,1.478,5.846,3.759,7.603h-6.907V62.96h5.136L26.821,74h6.738v12.04h14.38V74h6.738L48.258,62.96z
	 M33.251,23.562c0-4.192,3.41-7.603,7.603-7.603s7.603,3.411,7.603,7.603c0,4.192-3.41,7.603-7.603,7.603
	S33.251,27.755,33.251,23.562z M45.939,72v2v10.04h-10.38V74v-2h-2h-3.262l3.262-5.61l2-3.44V60.96h-1.157h-4.298V33.166h21.5V60.96
	h-4.508h-1.157v1.989l2,3.44L51.2,72h-3.262H45.939z"/>
<path d="M80.258,31.166c2.281-1.757,3.759-4.508,3.759-7.603c0-5.295-4.308-9.603-9.603-9.603s-9.603,4.308-9.603,9.603
	c0,3.095,1.478,5.846,3.759,7.603h-6.907V62.96h5.455v23.08H81.5V62.96h5.665V31.166H80.258z M66.812,23.562
	c0-4.192,3.41-7.603,7.603-7.603s7.603,3.411,7.603,7.603c0,4.192-3.41,7.603-7.603,7.603S66.812,27.755,66.812,23.562z
	 M85.165,60.96H79.5v23.08H69.12V60.96h-5.455V33.166h21.5V60.96z"/>
</svg>
