<?xml version="1.0" encoding="utf-8"?>
<!-- Generator: Adobe Illustrator 17.0.0, SVG Export Plug-In . SVG Version: 6.00 Build 0)  -->
<!DOCTYPE svg PUBLIC "-//W3C//DTD SVG 1.1//EN" "http://www.w3.org/Graphics/SVG/1.1/DTD/svg11.dtd">
<svg version="1.1" id="Layer_1" xmlns="http://www.w3.org/2000/svg" xmlns:xlink="http://www.w3.org/1999/xlink" x="0px" y="0px"
	 width="100px" height="100px" viewBox="0 0 100 100" enable-background="new 0 0 100 100" xml:space="preserve">
<g>
	<path d="M17.568,48.843h5.506v-5.505h-5.506V48.843z M19.568,45.338h1.506v1.505h-1.506V45.338z"/>
	<path d="M23.826,48.843h5.506v-5.505h-5.506V48.843z M25.826,45.338h1.506v1.505h-1.506V45.338z"/>
	<path d="M30.085,48.843h5.505v-5.505h-5.505V48.843z M32.085,45.338h1.505v1.505h-1.505V45.338z"/>
	<path d="M44.241,25.171h-5.506v5.505h5.506V25.171z M42.241,28.676h-1.506v-1.505h1.506V28.676z"/>
	<path d="M50.498,25.171h-5.506v5.505h5.506V25.171z M48.498,28.676h-1.506v-1.505h1.506V28.676z"/>
	<path d="M56.756,25.171h-5.505v5.505h5.505V25.171z M54.756,28.676h-1.505v-1.505h1.505V28.676z"/>
	<path d="M33.664,20.681v14.485v3.682H12.498v14.485v36.334h50.821V71.501h21.167V35.166V20.681H33.664z M61.319,69.501v2v16.167
		H14.498V53.333h19.167h2h25.655V69.501z M61.319,51.333H35.664h-2H14.498V40.848h19.167h2h25.655V51.333z M82.486,69.501H63.319
		V53.333V38.848H35.664v-3.682h46.821V69.501z M82.486,33.166H35.664V22.681h46.821V33.166z"/>
</g>
</svg>
