<?xml version="1.0" encoding="utf-8"?>
<!-- Generator: Adobe Illustrator 17.0.0, SVG Export Plug-In . SVG Version: 6.00 Build 0)  -->
<!DOCTYPE svg PUBLIC "-//W3C//DTD SVG 1.1//EN" "http://www.w3.org/Graphics/SVG/1.1/DTD/svg11.dtd">
<svg version="1.1" id="Layer_1" xmlns="http://www.w3.org/2000/svg" xmlns:xlink="http://www.w3.org/1999/xlink" x="0px" y="0px"
	 width="100px" height="100px" viewBox="0 0 100 100" enable-background="new 0 0 100 100" xml:space="preserve">
<g>
	<g>
		<g>
			<path d="M52.288,76.799c-14.088,0-25.549-11.461-25.549-25.549S38.2,25.701,52.288,25.701S77.837,37.162,77.837,51.25
				S66.376,76.799,52.288,76.799z M52.288,27.701c-12.985,0-23.549,10.564-23.549,23.549c0,12.985,10.564,23.549,23.549,23.549
				S75.837,64.235,75.837,51.25C75.837,38.265,65.273,27.701,52.288,27.701z"/>
		</g>
	</g>
	<g>
		<g>
			<path d="M54.884,63.052h-5.192c-1.411,0-2.558-1.147-2.558-2.559v-6.566c-1.898-1.541-3.018-3.862-3.018-6.309
				c0-4.506,3.666-8.172,8.172-8.172s8.171,3.666,8.171,8.172c0,2.447-1.119,4.769-3.017,6.309v6.566
				C57.442,61.904,56.295,63.052,54.884,63.052z M52.288,41.446c-3.403,0-6.172,2.769-6.172,6.172c0,1.976,0.971,3.844,2.597,4.998
				l0.421,0.299v7.578c0,0.308,0.25,0.559,0.558,0.559h5.192c0.308,0,0.559-0.251,0.559-0.559v-7.578l0.421-0.299
				c1.625-1.153,2.596-3.022,2.596-4.998C58.459,44.215,55.69,41.446,52.288,41.446z"/>
		</g>
	</g>
</g>
</svg>
