<?xml version="1.0" encoding="utf-8"?>
<!-- Generator: Adobe Illustrator 16.0.0, SVG Export Plug-In . SVG Version: 6.00 Build 0)  -->
<!DOCTYPE svg PUBLIC "-//W3C//DTD SVG 1.1//EN" "http://www.w3.org/Graphics/SVG/1.1/DTD/svg11.dtd">
<svg version="1.1" id="Layer_1" xmlns="http://www.w3.org/2000/svg" xmlns:xlink="http://www.w3.org/1999/xlink" x="0px" y="0px"
	 width="100px" height="100px" viewBox="0 0 100 100" enable-background="new 0 0 100 100" xml:space="preserve">
<g>
	<path d="M51.681,81.981c-17.093,0-31-13.906-31-31c0-17.093,13.907-31,31-31c17.094,0,31,13.907,31,31
		C82.681,68.075,68.774,81.981,51.681,81.981z M51.681,21.981c-15.991,0-29,13.009-29,29c0,15.99,13.009,29,29,29
		c15.99,0,29-13.01,29-29C80.681,34.991,67.671,21.981,51.681,21.981z"/>
</g>
<g>
	<g>
		<path d="M56.461,62.756C56.46,62.756,56.46,62.756,56.461,62.756c-0.821,0-1.63-0.319-2.277-0.9L48.436,56.7h-6.03
			c-1.787,0-3.24-1.453-3.24-3.239v-5.247c0-1.787,1.453-3.24,3.24-3.24h6.353l5.425-4.871c1.128-1.009,2.768-1.172,4.043-0.382
			c1.214,0.765,1.965,2.239,1.965,3.851V58.39c0,1.621-0.753,3.096-1.964,3.85C57.689,62.576,57.077,62.756,56.461,62.756z
			 M42.406,46.974c-0.684,0-1.24,0.556-1.24,1.24v5.247c0,0.684,0.556,1.239,1.24,1.239h6.795l6.318,5.667
			c0.284,0.254,0.609,0.389,0.94,0.389c0,0,0,0,0.001,0c0.243,0,0.481-0.071,0.706-0.213c0.624-0.388,1.024-1.232,1.024-2.153
			V43.573c0-0.917-0.402-1.763-1.025-2.155c-0.535-0.332-1.159-0.261-1.647,0.175l-5.994,5.381H42.406z"/>
	</g>
</g>
<g>
	<path d="M63.076,64.378l-1.414-1.414c6.607-6.607,6.607-17.358,0-23.966l1.414-1.414C70.463,44.971,70.463,56.991,63.076,64.378z"
		/>
</g>
<g>
	<path d="M67.21,68.513l-1.414-1.414c4.305-4.306,6.676-10.029,6.676-16.117c0-6.088-2.371-11.812-6.676-16.117l1.414-1.414
		c4.683,4.683,7.262,10.909,7.262,17.531C74.472,57.604,71.893,63.83,67.21,68.513z"/>
</g>
</svg>
