<?xml version="1.0" encoding="utf-8"?>
<!-- Generator: Adobe Illustrator 16.0.0, SVG Export Plug-In . SVG Version: 6.00 Build 0)  -->
<!DOCTYPE svg PUBLIC "-//W3C//DTD SVG 1.1//EN" "http://www.w3.org/Graphics/SVG/1.1/DTD/svg11.dtd">
<svg version="1.1" id="Layer_1" xmlns="http://www.w3.org/2000/svg" xmlns:xlink="http://www.w3.org/1999/xlink" x="0px" y="0px"
	 width="100px" height="100px" viewBox="0 0 100 100" enable-background="new 0 0 100 100" xml:space="preserve">
<path d="M52.42,19.763c-16.867,0-30.588,13.722-30.588,30.588S35.553,80.938,52.42,80.938c16.865,0,30.587-13.722,30.587-30.588
	S69.285,19.763,52.42,19.763z M48.266,63.301c-0.075-0.492,0.523-2.516,0.961-3.993c0.498-1.684,1.062-3.591,1.295-5.103
	c0.292-1.896,0.457-2.143,0.707-2.517c0.185-0.276,0.437-0.654,0.743-1.42c0.374-0.937,2.802-1.969,4.105-2.522
	c0.812-0.345,1.452-0.618,1.84-0.893c1.106-0.782,1.085-1.582,0.975-1.989c-0.331-1.215-2.035-1.509-3.482-1.63
	c-2.532-0.212-5.813-2.899-6.724-4.951c-0.451-1.016-0.403-1.931-0.275-2.536c0.754,0.128,1.871,0.097,2.91-0.2
	c0.055-0.016,0.091-0.02,0.111-0.02c0.289,0,0.776,0.978,1.066,1.562c0.5,1.003,1.066,2.141,2.08,2.721
	c1.315,0.752,2.742,1.004,3.783,1.189c0.462,0.082,0.897,0.159,1.16,0.253c0.196,0.07,0.396,0.106,0.597,0.106
	c1.352,0,2.231-1.408,2.623-4.19c0.518,0.111,1.146,0.079,1.872,0.01c0.644-0.062,1.459-0.11,2.14-0.02
	c0.353,0.221,0.619,1.983,0.423,3.841l-0.025,0.24l0.086,0.225c0.044,0.113,1.078,2.783,2.363,4.397
	c0.622,0.779,1.349,1.175,2.16,1.175c0.774,0,1.445-0.369,1.983-0.666c0.148-0.081,0.294-0.162,0.438-0.231
	c1.416-0.682,1.021-2.437,0.759-3.598c-0.083-0.371-0.188-0.833-0.177-1.026c0.028-0.541,0.015-1.2,0.001-1.837
	c-0.01-0.463-0.021-0.927-0.014-1.337c0.314-0.143,1.128-0.428,3.079-0.768c1.993,3.948,3.043,8.351,3.043,12.78
	C80.869,66.038,68.106,78.8,52.42,78.8c-15.688,0-28.452-12.762-28.452-28.448c0-2.13,0.268-4.33,0.798-6.546
	c0.199,0.013,0.581,0.08,1.219,0.342c1.589,0.655,3.399,3.53,3.989,4.63c0.077,0.126,1.897,3.119,3.485,4.927
	c0.309,0.352,0.604,0.674,0.885,0.981c1.131,1.236,1.949,2.129,2.693,3.801c0.389,0.872,0.629,2.246,0.862,3.575
	c0.353,2.015,0.686,3.917,1.595,4.978c0.588,0.688,1.239,1.022,1.988,1.022c0.525,0,1.001-0.168,1.461-0.33
	c0.477-0.169,0.97-0.343,1.555-0.343c1.397,0,2.71-0.687,3.428-1.791C48.443,64.802,48.557,63.933,48.266,63.301z M52.42,21.763
	c10.41,0,19.535,5.596,24.534,13.935c-3.417,0.64-4.144,1.282-4.19,2.185c-0.028,0.542-0.015,1.201-0.001,1.838
	c0.013,0.603,0.027,1.205,0.001,1.688c-0.024,0.47,0.096,1.006,0.224,1.573c0.09,0.399,0.251,1.112,0.213,1.412
	c-0.14,0.071-0.28,0.148-0.422,0.226c-0.373,0.206-0.76,0.418-1.02,0.418c-0.064,0-0.26,0-0.596-0.421
	c-0.903-1.134-1.716-3.022-1.976-3.655c0.139-1.549,0.242-5.436-2.137-5.776c-0.896-0.129-1.883-0.069-2.63,0.003
	c-0.439,0.042-0.865,0.081-1.161,0.042c-0.058-0.116-0.122-0.329-0.193-0.636c-0.154-0.668-0.507-1.007-1.047-1.007
	c-0.957,0-1.012,0.659-1.144,2.25c-0.188,2.244-0.611,3.202-0.831,3.482c-0.387-0.121-0.831-0.2-1.336-0.289
	c-0.996-0.177-2.125-0.376-3.139-0.956c-0.486-0.278-0.909-1.127-1.282-1.876c-0.624-1.251-1.33-2.67-2.857-2.67
	c-0.217,0-0.44,0.033-0.663,0.097c-0.473,0.136-0.936,0.205-1.377,0.205c-0.733,0-1.168-0.192-1.169-0.192l-0.873-0.439
	l-0.459,0.862c-0.051,0.095-1.224,2.354-0.032,5.036c1.181,2.662,5.019,5.85,8.386,6.132c0.541,0.045,0.93,0.106,1.207,0.167
	c-0.299,0.146-0.732,0.331-1.155,0.511c-2.004,0.852-4.497,1.911-5.181,3.621c-0.229,0.572-0.392,0.815-0.549,1.051
	c-0.422,0.633-0.678,1.099-1.021,3.323c-0.212,1.378-0.756,3.217-1.236,4.84c-0.877,2.962-1.281,4.424-0.899,5.285
	c0.017,0.045,0.002,0.251-0.188,0.524c-0.283,0.406-0.884,0.84-1.723,0.84c-0.927,0-1.644,0.253-2.22,0.456
	c-0.315,0.111-0.613,0.217-0.795,0.217c-0.057,0-0.192,0-0.469-0.324c-0.553-0.645-0.867-2.438-1.144-4.021
	c-0.254-1.448-0.516-2.946-1.005-4.045c-0.876-1.968-1.881-3.065-3.045-4.337c-0.273-0.299-0.559-0.61-0.858-0.951
	c-1.466-1.669-3.249-4.597-3.25-4.597c0,0,0,0,0,0c-0.241-0.452-2.43-4.445-4.965-5.49c-0.613-0.252-1.146-0.406-1.619-0.466
	C28.761,30.217,39.622,21.763,52.42,21.763z"/>
</svg>
