<?xml version="1.0" encoding="utf-8"?>
<!-- Generator: Adobe Illustrator 16.0.0, SVG Export Plug-In . SVG Version: 6.00 Build 0)  -->
<!DOCTYPE svg PUBLIC "-//W3C//DTD SVG 1.1//EN" "http://www.w3.org/Graphics/SVG/1.1/DTD/svg11.dtd">
<svg version="1.1" id="Layer_1" xmlns="http://www.w3.org/2000/svg" xmlns:xlink="http://www.w3.org/1999/xlink" x="0px" y="0px"
	 width="100px" height="100px" viewBox="0 0 100 100" enable-background="new 0 0 100 100" xml:space="preserve">
<g>
	<path d="M51.336,22.333c-8.856,0-16.851,3.739-22.505,9.715c-0.266-0.068-0.54-0.116-0.828-0.116c-1.841,0-3.333,1.493-3.333,3.334
		c0,0.582,0.162,1.12,0.424,1.596c-3.008,4.776-4.757,10.422-4.757,16.472c0,17.093,13.907,31,31,31c17.094,0,31-13.907,31-31
		C82.336,36.24,68.43,22.333,51.336,22.333z M51.336,82.334c-15.99,0-29-13.01-29-29c0-5.516,1.548-10.676,4.232-15.07
		c0.436,0.209,0.918,0.336,1.434,0.336c1.841,0,3.333-1.492,3.333-3.334c0-0.812-0.302-1.547-0.786-2.126
		c5.273-5.426,12.64-8.807,20.785-8.807c15.991,0,29,13.009,29,29C80.336,69.324,67.327,82.334,51.336,82.334z"/>
	<path d="M51.336,32.333c-11.579,0-21,9.42-21,21c0,9.683,6.596,17.833,15.525,20.251c0.13,1.723,1.553,3.083,3.308,3.083
		c1.508,0,2.77-1.009,3.18-2.386c11.107-0.533,19.986-9.711,19.986-20.948C72.336,41.754,62.916,32.333,51.336,32.333z
		 M52.318,72.284C51.876,70.961,50.641,70,49.169,70c-1.219,0-2.274,0.662-2.855,1.639c-8.043-2.211-13.978-9.569-13.978-18.305
		c0-10.477,8.523-19,19-19c10.477,0,19,8.523,19,19C70.336,63.479,62.338,71.769,52.318,72.284z"/>
	<path d="M59.07,44.942c0.06-0.25,0.1-0.507,0.1-0.776c0-1.841-1.492-3.333-3.334-3.333c-1.045,0-1.968,0.492-2.578,1.246
		c-0.627-0.106-1.266-0.174-1.922-0.174c-6.302,0-11.429,5.127-11.429,11.43c0,6.302,5.127,11.43,11.429,11.43
		c6.303,0,11.43-5.128,11.43-11.43C62.766,50.015,61.336,47.032,59.07,44.942z M51.336,62.764c-5.199,0-9.429-4.23-9.429-9.43
		c0-5.2,4.23-9.43,9.429-9.43c0.402,0,0.797,0.034,1.186,0.083c-0.004,0.061-0.019,0.118-0.019,0.18
		c0,1.841,1.493,3.333,3.333,3.333c0.834,0,1.588-0.317,2.172-0.823c1.703,1.707,2.758,4.062,2.758,6.657
		C60.766,58.533,56.535,62.764,51.336,62.764z"/>
	<circle cx="51.336" cy="53.333" r="3.333"/>
</g>
</svg>
