<?xml version="1.0" encoding="utf-8"?>
<!-- Generator: Adobe Illustrator 17.0.0, SVG Export Plug-In . SVG Version: 6.00 Build 0)  -->
<!DOCTYPE svg PUBLIC "-//W3C//DTD SVG 1.1//EN" "http://www.w3.org/Graphics/SVG/1.1/DTD/svg11.dtd">
<svg version="1.1" id="Layer_1" xmlns="http://www.w3.org/2000/svg" xmlns:xlink="http://www.w3.org/1999/xlink" x="0px" y="0px"
	 width="100px" height="100px" viewBox="0 0 100 100" enable-background="new 0 0 100 100" xml:space="preserve">
<path d="M61,19h-2H41h-2H19v20v2v18v2v20h20h2h18h2h20V61v-2V41v-2V19H61z M59,21v18H41V21H59z M59,41v18H41V41H59z M21,21h18v18H21
	V21z M21,41h18v18H21V41z M21,79V61h18v18H21z M41,79V61h18v18H41z M79,79H61V61h18V79z M79,59H61V41h18V59z M61,39V21h18v18H61z"/>
</svg>
