<?xml version="1.0" encoding="utf-8"?>
<!-- Generator: Adobe Illustrator 17.0.0, SVG Export Plug-In . SVG Version: 6.00 Build 0)  -->
<!DOCTYPE svg PUBLIC "-//W3C//DTD SVG 1.1//EN" "http://www.w3.org/Graphics/SVG/1.1/DTD/svg11.dtd">
<svg version="1.1" id="Layer_1" xmlns="http://www.w3.org/2000/svg" xmlns:xlink="http://www.w3.org/1999/xlink" x="0px" y="0px"
	 width="100px" height="100px" viewBox="0 0 100 100" enable-background="new 0 0 100 100" xml:space="preserve">
<g>
	<g>
		<g>
			<path d="M52.346,70.033c-9.734,0-19.238-5.369-28.247-15.958c-0.973-1.144-1.06-2.809-0.211-4.048
				c0.491-0.717,12.211-17.559,28.788-17.559c9.854,0,19.046,5.891,27.32,17.509c0.802,1.126,0.822,2.651,0.053,3.797
				C79.604,54.437,68.961,70.033,52.346,70.033z M52.676,34.468c-15.534,0-26.671,16.007-27.138,16.688
				c-0.34,0.497-0.306,1.164,0.084,1.622C34.234,62.9,43.225,68.033,52.346,68.033c15.56,0,25.622-14.746,26.042-15.374
				c0.31-0.46,0.301-1.071-0.021-1.522C70.489,40.076,61.846,34.468,52.676,34.468z"/>
		</g>
	</g>
	<g>
		<path d="M51.96,63.498c-6.753,0-12.247-5.494-12.247-12.247c0-6.753,5.494-12.248,12.247-12.248s12.247,5.495,12.247,12.248
			C64.207,58.004,58.713,63.498,51.96,63.498z M51.96,41.003c-5.65,0-10.247,4.597-10.247,10.248c0,5.65,4.597,10.247,10.247,10.247
			s10.247-4.597,10.247-10.247C62.207,45.6,57.61,41.003,51.96,41.003z M53.814,54.211c-3.052,0-5.534-2.481-5.534-5.531
			c0-3.051,2.482-5.533,5.534-5.533c3.051,0,5.532,2.482,5.532,5.533C59.347,51.729,56.865,54.211,53.814,54.211z M53.814,45.146
			c-1.948,0-3.534,1.585-3.534,3.533c0,1.947,1.585,3.531,3.534,3.531c1.947,0,3.532-1.584,3.532-3.531
			C57.347,46.731,55.762,45.146,53.814,45.146z"/>
	</g>
</g>
</svg>
