<?xml version="1.0" encoding="utf-8"?>
<!-- Generator: Adobe Illustrator 17.0.0, SVG Export Plug-In . SVG Version: 6.00 Build 0)  -->
<!DOCTYPE svg PUBLIC "-//W3C//DTD SVG 1.1//EN" "http://www.w3.org/Graphics/SVG/1.1/DTD/svg11.dtd">
<svg version="1.1" id="Layer_1" xmlns="http://www.w3.org/2000/svg" xmlns:xlink="http://www.w3.org/1999/xlink" x="0px" y="0px"
	 width="100px" height="100px" viewBox="0 0 100 100" enable-background="new 0 0 100 100" xml:space="preserve">
<g>
	<path d="M49.325,58.479h10.901c3.173,0,5.755-2.581,5.755-5.754c0-3.172-2.581-5.753-5.754-5.753H49.325
		c-3.173,0-5.754,2.581-5.754,5.753C43.571,55.897,46.152,58.479,49.325,58.479z M49.325,48.971h10.902
		c2.07,0,3.754,1.684,3.754,3.753c0,2.07-1.685,3.754-3.755,3.754H49.325c-2.07,0-3.754-1.684-3.754-3.754
		C45.571,50.655,47.255,48.971,49.325,48.971z"/>
	<path d="M83.444,27.742H25.627v16.153h3.366v30.766H80.5V43.895h2.944V27.742z M78.5,72.661H30.993V43.895H78.5V72.661z
		 M81.444,41.895H80.5H28.993h-1.366V29.742h53.817V41.895z"/>
</g>
</svg>
