<?xml version="1.0" encoding="utf-8"?>
<!-- Generator: Adobe Illustrator 16.0.0, SVG Export Plug-In . SVG Version: 6.00 Build 0)  -->
<!DOCTYPE svg PUBLIC "-//W3C//DTD SVG 1.1//EN" "http://www.w3.org/Graphics/SVG/1.1/DTD/svg11.dtd">
<svg version="1.1" id="Layer_1" xmlns="http://www.w3.org/2000/svg" xmlns:xlink="http://www.w3.org/1999/xlink" x="0px" y="0px"
	 width="100px" height="100px" viewBox="0 0 100 100" enable-background="new 0 0 100 100" xml:space="preserve">
<g>
	<path d="M62.922,19.091c-7.947,0-14.803,4.684-18.005,11.426c-0.262,0.552-0.498,1.117-0.709,1.695
		c-0.78,2.132-1.228,4.423-1.228,6.822c0,1.117,0.115,2.206,0.292,3.273c0.095,0.573,0.215,1.136,0.358,1.691
		c0.388,1.507,0.935,2.949,1.645,4.296c0.397,0.754,0.843,1.477,1.331,2.17c1.332,1.895,2.982,3.546,4.876,4.879
		c0.693,0.487,1.415,0.935,2.17,1.332c1.347,0.711,2.789,1.259,4.295,1.647c0.556,0.144,1.118,0.264,1.691,0.359
		c1.07,0.179,2.162,0.294,3.283,0.294c2.395,0,4.681-0.445,6.81-1.223c0.586-0.214,1.157-0.452,1.716-0.718
		c6.738-3.204,11.418-10.058,11.418-18.002C82.865,28.037,73.92,19.091,62.922,19.091z M68.488,56.082
		c-1.44,0.472-2.961,0.752-4.534,0.842c-0.344,0.021-0.684,0.053-1.032,0.053c-1.182,0-2.334-0.122-3.452-0.341
		c-0.597-0.117-1.184-0.262-1.758-0.437c-1.903-0.579-3.666-1.475-5.245-2.613c-1.58-1.139-2.965-2.524-4.103-4.105
		c-1.137-1.58-2.032-3.343-2.61-5.247c-0.174-0.574-0.318-1.161-0.435-1.757c-0.218-1.116-0.339-2.265-0.339-3.443
		c0-0.352,0.033-0.696,0.053-1.043c0.091-1.576,0.375-3.1,0.849-4.542c2.355-7.165,9.098-12.357,17.041-12.357
		c9.895,0,17.943,8.05,17.943,17.943C80.865,46.984,75.664,53.733,68.488,56.082z"/>
	<path d="M62.922,25.968c-6.624,0-12.098,4.957-12.94,11.354c-0.074,0.562-0.125,1.13-0.125,1.711c0,0.004,0,0.009,0,0.013
		c0.002,1.894,0.417,3.689,1.147,5.315c1.312,2.922,3.663,5.274,6.584,6.587c1.625,0.73,3.42,1.146,5.312,1.149
		c0.008,0,0.015,0.001,0.021,0.001c0.579,0,1.146-0.051,1.705-0.124c6.4-0.84,11.361-6.317,11.361-12.942
		C75.988,31.829,70.127,25.968,62.922,25.968z M63.908,50.049c-0.325,0.029-0.653,0.05-0.986,0.05c-0.288,0-0.571-0.021-0.854-0.043
		c-5.422-0.417-9.755-4.751-10.168-10.175c-0.021-0.281-0.043-0.561-0.043-0.847c0-0.335,0.021-0.665,0.05-0.993
		c0.505-5.638,5.249-10.073,11.016-10.073c6.103,0,11.066,4.964,11.066,11.066C73.988,44.801,69.55,49.547,63.908,50.049z"/>
	<path d="M95.961,35.574h-6.05c-0.61-4.808-2.479-9.324-5.45-13.163l4.275-4.276c0.188-0.187,0.293-0.442,0.293-0.707
		s-0.105-0.519-0.293-0.707l-3.479-3.479c-0.392-0.391-1.023-0.391-1.414,0l-4.274,4.273c-3.837-2.976-8.354-4.852-13.165-5.467
		v-6.03c0-0.552-0.447-1-1-1h-4.919c-0.552,0-1,0.448-1,1v2.397c-0.001,0.015-0.001,0.029-0.001,0.043v3.585
		c-4.814,0.608-9.337,2.479-13.181,5.455l-4.257-4.256c-0.391-0.391-1.023-0.391-1.414,0l-1.586,1.59
		c-0.038,0.028-0.141,0.114-0.174,0.148c-0.055,0.056-0.103,0.114-0.096,0.118l-1.623,1.623c-0.188,0.187-0.293,0.442-0.293,0.707
		s0.105,0.519,0.293,0.707l4.253,4.254c-2.979,3.843-4.856,8.367-5.469,13.185h-6.008c-0.552,0-1,0.448-1,1v2.205
		c-0.011,0.084-0.02,0.168-0.02,0.255s0.009,0.171,0.02,0.188v1.601l-3.427-3.426c-0.327-0.328-0.856-0.328-1.183,0l-1.327,1.33
		c-0.032,0.024-0.119,0.096-0.146,0.124c-0.046,0.046-0.086,0.095-0.081,0.099l-1.358,1.358c-0.157,0.157-0.246,0.37-0.246,0.592
		c0,0.222,0.088,0.434,0.246,0.591l3.558,3.559c-2.493,3.215-4.063,7.001-4.576,11.032h-5.027c-0.462,0-0.836,0.373-0.836,0.836
		v1.844c-0.009,0.07-0.017,0.143-0.017,0.215s0.008,0.143,0.017,0.156v1.902c0,0.461,0.375,0.836,0.836,0.836h5.027
		c0.513,4.031,2.083,7.816,4.577,11.031l-3.559,3.561c-0.157,0.154-0.246,0.369-0.246,0.592c0,0.221,0.088,0.434,0.246,0.592
		l1.313,1.307c0.023,0.031,0.093,0.117,0.12,0.143c0.047,0.049,0.09,0.104,0.103,0.084l1.375,1.375c0.328,0.328,0.856,0.328,1.183,0
		l3.562-3.562c3.214,2.49,6.998,4.057,11.028,4.566V86.6c0,0.463,0.374,0.836,0.836,0.836h4.116c0.463,0,0.836-0.377,0.837-0.836
		v-5.045c4.025-0.516,7.804-2.084,11.016-4.574l3.575,3.574c0.327,0.326,0.854,0.326,1.183,0l2.91-2.912
		c0.157-0.154,0.245-0.367,0.245-0.59s-0.088-0.436-0.245-0.592l-3.413-3.412h4.251c0.554,0,1-0.449,1.001-1V66.02
		c4.811-0.615,9.328-2.492,13.166-5.467l4.273,4.271c0.391,0.391,1.022,0.391,1.414,0l3.479-3.479
		c0.188-0.188,0.293-0.441,0.293-0.707s-0.105-0.52-0.293-0.707l-4.275-4.275c2.971-3.838,4.842-8.354,5.452-13.164h6.048
		c0.553,0,1-0.446,1-1v-4.919C96.961,36.021,96.514,35.574,95.961,35.574z M62.789,77.055l-1.727,1.725l-3.451-3.451
		c-0.019-0.021-0.039-0.045-0.059-0.064c-0.307-0.305-0.796-0.328-1.127-0.053c-3.279,2.723-7.253,4.369-11.492,4.764
		c-0.445,0.041-0.762,0.426-0.742,0.873c0.002,0.039,0.007,0.082,0.015,0.123v4.791h-2.441v-4.955c0-0.43-0.329-0.791-0.76-0.83
		c-4.229-0.395-8.195-2.035-11.47-4.75c-0.332-0.275-0.818-0.252-1.125,0.053l-3.501,3.502l-0.824-0.822l-0.051-0.041
		c-0.028-0.033-0.065-0.078-0.085-0.098l-0.766-0.766l3.498-3.498c0.305-0.307,0.328-0.795,0.051-1.127
		c-2.717-3.273-4.363-7.24-4.759-11.473c-0.041-0.432-0.402-0.76-0.833-0.76H16.2l-0.002-1.133l-0.013-0.07
		c0.006-0.039,0.016-0.139,0.016-0.178v-1.062h4.939c0.432,0,0.793-0.328,0.833-0.758c0.396-4.23,2.042-8.199,4.759-11.473
		c0.276-0.333,0.254-0.82-0.052-1.126l-3.498-3.498l0.802-0.803c0.017-0.019,0.033-0.038,0.05-0.06
		c0.032-0.028,0.074-0.062,0.093-0.081l0.783-0.783l3.5,3.499c0.305,0.306,0.793,0.329,1.125,0.054
		c0.104-0.086,0.216-0.163,0.322-0.247c0.025,0.002,0.046,0.015,0.072,0.015h6.008c0.055,0.428,0.131,0.851,0.206,1.274
		c-5.803,2.615-9.86,8.441-9.86,15.209c0,9.201,7.485,16.686,16.685,16.686c6.765,0,12.588-4.052,15.205-9.849
		c0.436,0.076,0.871,0.154,1.312,0.21v6.025c0,0.006,0.003,0.011,0.003,0.016c-0.097,0.122-0.184,0.249-0.283,0.369
		c-0.268,0.32-0.246,0.803,0.038,1.109c0.055,0.059,0.115,0.109,0.184,0.146L62.789,77.055z M37.153,61.348l1.57,1.564
		c0.027,0.035,0.111,0.137,0.143,0.168c0.056,0.059,0.108,0.125,0.122,0.102l1.643,1.643c0.391,0.393,1.023,0.393,1.414,0
		l4.258-4.258c1.482,1.148,3.068,2.128,4.732,2.938c-1.589,2.818-4.607,4.729-8.067,4.729c-5.104,0-9.258-4.152-9.258-9.258
		c0-3.463,1.914-6.483,4.736-8.071c0.816,1.679,1.802,3.278,2.961,4.772l-4.254,4.256c-0.188,0.186-0.293,0.441-0.293,0.707
		S36.965,61.158,37.153,61.348z M32.037,58.977c0,6.027,4.902,10.932,10.931,10.932c4.138,0,7.746-2.312,9.602-5.71
		c1.269,0.522,2.579,0.937,3.918,1.261c-2.425,5.037-7.565,8.529-13.52,8.529c-8.277,0-15.011-6.734-15.011-15.012
		c0-5.958,3.497-11.101,8.539-13.524c0.324,1.339,0.738,2.65,1.259,3.918C34.352,51.225,32.037,54.836,32.037,58.977z
		 M94.957,40.493h-5.748c-0.555-0.103-1.135,0.31-1.188,0.89c-0.47,5.064-2.438,9.815-5.693,13.735
		c-0.319,0.385-0.294,0.961,0.046,1.328c0.065,0.07,0.139,0.129,0.221,0.174l4.02,4.021l-2.064,2.062l-4.125-4.125
		c-0.021-0.027-0.047-0.055-0.07-0.078c-0.366-0.363-0.95-0.391-1.346-0.062c-3.92,3.256-8.67,5.223-13.736,5.693
		c-0.054,0.005-0.098,0.031-0.147,0.044c-0.448,0.116-0.761,0.52-0.739,0.999c0.002,0.049,0.009,0.1,0.019,0.148v1.313v4.413h-2.146
		h-0.771v-2v-3.922c0-0.516-0.394-0.947-0.908-0.994c-0.562-0.053-1.117-0.13-1.67-0.219c-0.559-0.09-1.11-0.202-1.658-0.328
		c-1.331-0.307-2.633-0.711-3.891-1.228c-0.519-0.213-1.028-0.449-1.532-0.697c-1.758-0.864-3.423-1.932-4.958-3.204
		c-0.397-0.33-0.979-0.303-1.345,0.062l-4.185,4.186l-0.985-0.982l-0.061-0.049c-0.034-0.041-0.078-0.094-0.102-0.117l-0.916-0.916
		l4.181-4.182c0.365-0.365,0.392-0.949,0.062-1.346c-1.283-1.545-2.357-3.224-3.228-4.997c-0.248-0.504-0.483-1.014-0.696-1.534
		c-0.515-1.258-0.919-2.56-1.224-3.892c-0.125-0.547-0.238-1.099-0.327-1.657c-0.086-0.541-0.164-1.084-0.215-1.634
		c-0.049-0.515-0.48-0.907-0.996-0.907h-3.994h-1.911l-0.001-0.82l-0.001-0.534l-0.015-0.086c0.007-0.045,0.019-0.164,0.019-0.211
		v-1.27h4.302h1.601c0.461,0,0.839-0.321,0.952-0.754c0.013-0.052,0.039-0.098,0.044-0.153c0.474-5.057,2.44-9.798,5.688-13.713
		c0.33-0.398,0.303-0.981-0.062-1.346l-4.181-4.181l0.958-0.959c0.02-0.023,0.039-0.046,0.059-0.072
		c0.04-0.033,0.089-0.074,0.112-0.097l0.936-0.936l4.183,4.183c0.365,0.364,0.948,0.392,1.345,0.063
		c3.916-3.243,8.656-5.205,13.709-5.673c0.515-0.048,0.908-0.479,0.908-0.996V8.491c0.001-0.014,0.001-0.028,0.001-0.042v-1.43
		h2.919v5.641c-0.022,0.074-0.035,0.153-0.039,0.234c-0.024,0.534,0.375,0.993,0.907,1.042c5.064,0.469,9.814,2.438,13.734,5.693
		c0.397,0.332,0.996,0.29,1.359-0.075c0.023-0.024,0.044-0.048,0.064-0.073l4.119-4.118l2.063,2.064l-4.017,4.016
		c-0.075,0.045-0.146,0.098-0.207,0.16c-0.365,0.366-0.393,0.949-0.062,1.346c3.254,3.922,5.223,8.672,5.692,13.736
		c0.054,0.579,0.659,0.999,1.208,0.889h5.73V40.493z"/>
</g>
</svg>
