<?xml version="1.0" encoding="utf-8"?>
<!-- Generator: Adobe Illustrator 17.0.0, SVG Export Plug-In . SVG Version: 6.00 Build 0)  -->
<!DOCTYPE svg PUBLIC "-//W3C//DTD SVG 1.1//EN" "http://www.w3.org/Graphics/SVG/1.1/DTD/svg11.dtd">
<svg version="1.1" id="Layer_1" xmlns="http://www.w3.org/2000/svg" xmlns:xlink="http://www.w3.org/1999/xlink" x="0px" y="0px"
	 width="100px" height="100px" viewBox="0 0 100 100" enable-background="new 0 0 100 100" xml:space="preserve">
<path d="M81,50c0-17.093-13.907-31-31-31c-17.094,0-31,13.907-31,31c0,17.094,13.906,31,31,31C67.093,81,81,67.094,81,50z M21,50
	c0-15.991,13.01-29,29-29c15.991,0,29,13.009,29,29c0,15.654-12.47,28.444-27.998,28.975l0.063-32.44l5.629,5.629l1.414-1.414
	l-8.038-8.038l-8.178,8.178l1.414,1.414l5.76-5.759l-0.064,32.431C33.473,78.446,21,65.656,21,50z"/>
</svg>
