<?xml version="1.0" encoding="utf-8"?>
<!-- Generator: Adobe Illustrator 17.0.0, SVG Export Plug-In . SVG Version: 6.00 Build 0)  -->
<!DOCTYPE svg PUBLIC "-//W3C//DTD SVG 1.1//EN" "http://www.w3.org/Graphics/SVG/1.1/DTD/svg11.dtd">
<svg version="1.1" id="Layer_1" xmlns="http://www.w3.org/2000/svg" xmlns:xlink="http://www.w3.org/1999/xlink" x="0px" y="0px"
	 width="100px" height="100px" viewBox="0 0 100 100" enable-background="new 0 0 100 100" xml:space="preserve">
<path d="M76.421,31.121c-0.009-0.033-0.026-0.062-0.038-0.093c-0.019-0.049-0.035-0.099-0.061-0.144
	c-0.019-0.034-0.047-0.063-0.07-0.094c-0.028-0.037-0.053-0.077-0.086-0.11c-0.028-0.028-0.062-0.049-0.093-0.074
	c-0.033-0.027-0.063-0.057-0.1-0.08L50.519,15.07c-0.318-0.193-0.719-0.193-1.037,0l-10.402,6.316l-0.1-0.063l-0.128,0.201
	l-14.826,9.002c-0.037,0.023-0.067,0.053-0.1,0.08c-0.031,0.025-0.065,0.046-0.093,0.074c-0.033,0.033-0.058,0.073-0.086,0.11
	c-0.023,0.032-0.051,0.06-0.07,0.094c-0.026,0.045-0.042,0.095-0.061,0.144c-0.012,0.031-0.029,0.06-0.038,0.093
	c-0.022,0.083-0.035,0.17-0.035,0.259v36c0,0.35,0.183,0.674,0.481,0.854l25.456,15.456c0.005,0.003,0.01,0.004,0.015,0.006
	c0.005,0.003,0.009,0.007,0.014,0.01c0.048,0.027,0.1,0.043,0.151,0.061c0.027,0.01,0.052,0.025,0.079,0.032
	c0.085,0.023,0.172,0.035,0.259,0.035s0.174-0.013,0.259-0.035c0.027-0.007,0.052-0.022,0.079-0.032
	c0.051-0.019,0.103-0.034,0.151-0.061c0.005-0.003,0.009-0.007,0.014-0.01c0.005-0.003,0.01-0.004,0.015-0.006l25.456-15.456
	c0.299-0.181,0.481-0.505,0.481-0.854v-36C76.456,31.292,76.444,31.205,76.421,31.121z M50,17.094l23.529,14.286l-9.564,5.807
	L40.963,22.582L50,17.094z M49,81.059L25.544,66.818v-33.66L49,47.399V81.059z M50,45.667L26.471,31.381l12.585-7.641l23.003,14.606
	L50,45.667z M74.456,66.818L51,81.059v-33.66l23.456-14.241V66.818z"/>
</svg>
