<?xml version="1.0" encoding="utf-8"?>
<!-- Generator: Adobe Illustrator 17.0.0, SVG Export Plug-In . SVG Version: 6.00 Build 0)  -->
<!DOCTYPE svg PUBLIC "-//W3C//DTD SVG 1.1//EN" "http://www.w3.org/Graphics/SVG/1.1/DTD/svg11.dtd">
<svg version="1.1" id="Layer_1" xmlns="http://www.w3.org/2000/svg" xmlns:xlink="http://www.w3.org/1999/xlink" x="0px" y="0px"
	 width="100px" height="100px" viewBox="0 0 100 100" enable-background="new 0 0 100 100" xml:space="preserve">
<path d="M77.667,52.643c0-17.093-13.907-31-31-31s-31,13.907-31,31s13.906,31,31,31S77.667,69.736,77.667,52.643z M17.667,52.643
	c0-12.551,8.016-23.261,19.195-27.29l-0.066,33.795l-6.057-6.057l-1.522,1.522l8.65,8.649l8.8-8.8l-1.522-1.522l-6.198,6.197
	l0.068-34.462c2.439-0.668,5.003-1.032,7.651-1.032c15.991,0,29,13.009,29,29c0,12.55-8.015,23.261-19.195,27.29l0.065-33.626
	l6.057,6.057l1.522-1.522l-8.65-8.649l-8.8,8.8l1.522,1.522l6.198-6.197l-0.068,34.293c-2.44,0.668-5.004,1.032-7.653,1.032
	C30.676,81.644,17.667,68.634,17.667,52.643z"/>
</svg>
