<?xml version="1.0" encoding="utf-8"?>
<!-- Generator: Adobe Illustrator 17.0.0, SVG Export Plug-In . SVG Version: 6.00 Build 0)  -->
<!DOCTYPE svg PUBLIC "-//W3C//DTD SVG 1.1//EN" "http://www.w3.org/Graphics/SVG/1.1/DTD/svg11.dtd">
<svg version="1.1" id="Layer_1" xmlns="http://www.w3.org/2000/svg" xmlns:xlink="http://www.w3.org/1999/xlink" x="0px" y="0px"
	 width="100px" height="100px" viewBox="0 0 100 100" enable-background="new 0 0 100 100" xml:space="preserve">
<path d="M67.747,51.737c-0.373-1.141-1.342-1.957-2.529-2.13l-3.938-0.572l2.746-19.452c0.126-0.898-0.143-1.806-0.736-2.491
	c-0.595-0.686-1.458-1.079-2.367-1.079H41.075c-0.909,0-1.771,0.393-2.365,1.078c-0.595,0.685-0.864,1.593-0.737,2.492l2.745,19.465
	l-3.844,0.558c-1.188,0.173-2.157,0.99-2.53,2.133c-0.37,1.143-0.066,2.374,0.794,3.212l5.68,5.537l-1.341,7.819
	c-0.202,1.184,0.276,2.358,1.249,3.066c0.946,0.686,2.264,0.78,3.299,0.236l7.021-3.692l7.023,3.693
	c0.448,0.234,0.952,0.358,1.457,0.359c0.665,0,1.301-0.206,1.844-0.599c0.969-0.708,1.445-1.881,1.245-3.065l-1.341-7.818
	l5.681-5.537C67.813,54.114,68.118,52.884,67.747,51.737z M46.466,44.937l-1.786-12.658h12.635l-1.765,12.51l-1.696-3.437
	c-0.532-1.077-1.609-1.746-2.811-1.746c-1.201,0-2.277,0.669-2.809,1.747L46.466,44.937z M40.22,28.402
	c0.214-0.248,0.526-0.389,0.855-0.389h19.848c0.329,0,0.642,0.142,0.856,0.389c0.215,0.248,0.312,0.577,0.267,0.902l-2.548,18.051
	l-2.132-0.31l-0.089-0.18l2.341-16.586H42.379l2.361,16.735l-2.239,0.354l-2.548-18.063C39.907,28.979,40.004,28.65,40.22,28.402z
	 M65.558,53.521l-6.433,6.27l1.518,8.854c0.073,0.43-0.101,0.856-0.449,1.111c-0.195,0.142-0.427,0.217-0.668,0.217
	c-0.183-0.001-0.365-0.046-0.526-0.13l-7.954-4.183l-7.951,4.183c-0.373,0.195-0.856,0.16-1.193-0.085
	c-0.352-0.256-0.525-0.683-0.452-1.111l1.519-8.855l-6.434-6.27c-0.312-0.304-0.422-0.75-0.289-1.162
	c0.135-0.413,0.486-0.709,0.916-0.772l8.894-1.292l3.973-8.056c0.192-0.39,0.582-0.632,1.016-0.632c0.435,0,0.825,0.242,1.018,0.631
	l3.976,8.056l8.893,1.292c0.424,0.062,0.783,0.365,0.916,0.77C65.979,52.771,65.869,53.217,65.558,53.521z"/>
</svg>
