<?xml version="1.0" encoding="utf-8"?>
<!-- Generator: Adobe Illustrator 17.0.0, SVG Export Plug-In . SVG Version: 6.00 Build 0)  -->
<!DOCTYPE svg PUBLIC "-//W3C//DTD SVG 1.1//EN" "http://www.w3.org/Graphics/SVG/1.1/DTD/svg11.dtd">
<svg version="1.1" id="Layer_1" xmlns="http://www.w3.org/2000/svg" xmlns:xlink="http://www.w3.org/1999/xlink" x="0px" y="0px"
	 width="100px" height="100px" viewBox="0 0 100 100" enable-background="new 0 0 100 100" xml:space="preserve">
<g>
	<path d="M50,82.426c-17.094,0-31-13.906-31-31s13.906-31,31-31s31,13.906,31,31S67.094,82.426,50,82.426z M50,22.426
		c-15.99,0-29,13.01-29,29s13.01,29,29,29s29-13.01,29-29S65.99,22.426,50,22.426z"/>
</g>
<g>
	<g>
		<path d="M39.334,47.759c-2.39,0-4.334-1.943-4.334-4.333s1.944-4.334,4.334-4.334s4.333,1.944,4.333,4.334
			S41.724,47.759,39.334,47.759z M39.334,41.092c-1.287,0-2.334,1.047-2.334,2.334c0,1.286,1.047,2.333,2.334,2.333
			c1.286,0,2.333-1.047,2.333-2.333C41.667,42.139,40.62,41.092,39.334,41.092z"/>
	</g>
	<g>
		<path d="M60.667,47.759c-2.39,0-4.333-1.943-4.333-4.333s1.943-4.334,4.333-4.334S65,41.036,65,43.426
			S63.057,47.759,60.667,47.759z M60.667,41.092c-1.286,0-2.333,1.047-2.333,2.334c0,1.286,1.047,2.333,2.333,2.333
			S63,44.712,63,43.426C63,42.139,61.953,41.092,60.667,41.092z"/>
	</g>
</g>
<g>
	<rect x="28.5" y="58.167" width="42" height="2"/>
</g>
</svg>
