<?xml version="1.0" encoding="utf-8"?>
<!-- Generator: Adobe Illustrator 17.0.0, SVG Export Plug-In . SVG Version: 6.00 Build 0)  -->
<!DOCTYPE svg PUBLIC "-//W3C//DTD SVG 1.1//EN" "http://www.w3.org/Graphics/SVG/1.1/DTD/svg11.dtd">
<svg version="1.1" id="Layer_1" xmlns="http://www.w3.org/2000/svg" xmlns:xlink="http://www.w3.org/1999/xlink" x="0px" y="0px"
	 width="100px" height="100px" viewBox="0 0 100 100" enable-background="new 0 0 100 100" xml:space="preserve">
<path d="M86.121,62.96h5.346V31.166H84.56c2.281-1.757,3.759-4.508,3.759-7.603c0-5.295-4.308-9.603-9.603-9.603
	s-9.603,4.308-9.603,9.603c0,3.095,1.478,5.846,3.759,7.603H68h-2.033h-4.874c2.281-1.757,3.759-4.508,3.759-7.603
	c0-5.295-4.308-9.603-9.603-9.603s-9.603,4.308-9.603,9.603c0,3.095,1.478,5.846,3.759,7.603h-4.586H42.5h-4.586
	c2.281-1.757,3.759-4.508,3.759-7.603c0-5.295-4.308-9.603-9.603-9.603s-9.603,4.308-9.603,9.603c0,3.095,1.478,5.846,3.759,7.603
	h-6.907V62.96h5.136L18.037,74h6.738v12.04h14.38V74h2.061h4.677h2.061v12.04h14.38V74h2.349h4.39h2.349v12.04h14.38V74h6.738
	L86.121,62.96z M71.114,23.562c0-4.192,3.41-7.603,7.603-7.603s7.603,3.411,7.603,7.603c0,4.192-3.41,7.603-7.603,7.603
	S71.114,27.755,71.114,23.562z M47.647,23.562c0-4.192,3.41-7.603,7.603-7.603s7.603,3.411,7.603,7.603
	c0,4.192-3.41,7.603-7.603,7.603S47.647,27.755,47.647,23.562z M44.821,62.96h2.815l-4.08,7.018l-4.08-7.018H42.5H44.821z
	 M24.468,23.562c0-4.192,3.41-7.603,7.603-7.603s7.603,3.411,7.603,7.603c0,4.192-3.41,7.603-7.603,7.603
	S24.468,27.755,24.468,23.562z M39.156,72h-2v2v10.04h-10.38V74v-2h-2h-3.262l3.262-5.61l2-3.44V60.96h-1.157h-4.298V33.166H42.5
	V60.96h-4.188h-1.157v1.989l2,3.44l3.243,5.578L42.38,72H39.156z M62.335,72h-2v2v10.04h-10.38V74v-2h-2h-3.224l-0.019-0.032
	l3.243-5.578l2-3.44V60.96h-1.157h-3.978V33.166h21.146V60.96h-4.475h-1.157v1.989l2,3.44L65.597,72H62.335z M62.654,62.96h3.312H68
	h3.102l-4.224,7.265L62.654,62.96z M83.802,72v2v10.04h-10.38V74v-2h-2H68.16l3.262-5.61l2-3.44V60.96h-1.157H68V33.166h21.467
	V60.96h-4.508h-1.157v1.989l2,3.44L89.063,72h-3.262H83.802z"/>
</svg>
