<?xml version="1.0" encoding="utf-8"?>
<!-- Generator: Adobe Illustrator 17.0.0, SVG Export Plug-In . SVG Version: 6.00 Build 0)  -->
<!DOCTYPE svg PUBLIC "-//W3C//DTD SVG 1.1//EN" "http://www.w3.org/Graphics/SVG/1.1/DTD/svg11.dtd">
<svg version="1.1" id="Layer_1" xmlns="http://www.w3.org/2000/svg" xmlns:xlink="http://www.w3.org/1999/xlink" x="0px" y="0px"
	 width="100px" height="100px" viewBox="0 0 100 100" enable-background="new 0 0 100 100" xml:space="preserve">
<polygon points="24.973,25.529 36.167,25.529 44.833,25.529 44.833,23.529 36.167,23.529 22.973,23.529 22.973,45.389 
	24.973,45.389 "/>
<polygon points="76.36,62.609 76.36,76.916 56.5,76.916 56.5,78.916 78.36,78.916 78.36,62.609 78.36,57.056 76.36,57.056 "/>
<polygon points="24.973,76.916 24.973,57.056 22.973,57.056 22.973,78.916 44.833,78.916 44.833,76.916 "/>
<polygon points="76.36,25.529 76.36,45.389 78.36,45.389 78.36,23.529 56.5,23.529 56.5,25.529 "/>
</svg>
