<?xml version="1.0" encoding="utf-8"?>
<!-- Generator: Adobe Illustrator 16.0.0, SVG Export Plug-In . SVG Version: 6.00 Build 0)  -->
<!DOCTYPE svg PUBLIC "-//W3C//DTD SVG 1.1//EN" "http://www.w3.org/Graphics/SVG/1.1/DTD/svg11.dtd">
<svg version="1.1" id="Layer_1" xmlns="http://www.w3.org/2000/svg" xmlns:xlink="http://www.w3.org/1999/xlink" x="0px" y="0px"
	 width="100px" height="100px" viewBox="0 0 100 100" enable-background="new 0 0 100 100" xml:space="preserve">
<g>
	<path d="M49,22.072v0.118H22.25v26.986v1.764v26.986H51v-0.118h26.75V50.822v-1.764V22.072H49z M75.75,24.072v24.75H51v-24.75
		H75.75z M24.25,24.19H49v24.75H24.25V24.19z M24.25,51.177H49v24.75H24.25V51.177z M75.75,75.809H51v-24.75h24.75V75.809z"/>
	<rect x="58.625" y="35.565" width="10" height="2"/>
	<rect x="58.375" y="59.898" width="10" height="2"/>
	<rect x="58.375" y="64.969" width="10" height="2"/>
	<polygon points="37.625,31.447 35.625,31.447 35.625,35.447 31.625,35.447 31.625,37.447 35.625,37.447 35.625,41.447 
		37.625,41.447 37.625,37.447 41.625,37.447 41.625,35.447 37.625,35.447 	"/>
	<polygon points="39.454,59.191 36.625,62.02 33.796,59.191 32.382,60.605 35.211,63.434 32.382,66.262 33.796,67.676 
		36.625,64.848 39.454,67.676 40.868,66.262 38.039,63.434 40.868,60.605 	"/>
</g>
</svg>
