<?xml version="1.0" encoding="utf-8"?>
<!-- Generator: Adobe Illustrator 17.0.0, SVG Export Plug-In . SVG Version: 6.00 Build 0)  -->
<!DOCTYPE svg PUBLIC "-//W3C//DTD SVG 1.1//EN" "http://www.w3.org/Graphics/SVG/1.1/DTD/svg11.dtd">
<svg version="1.1" id="Layer_1" xmlns="http://www.w3.org/2000/svg" xmlns:xlink="http://www.w3.org/1999/xlink" x="0px" y="0px"
	 width="100px" height="100px" viewBox="0 0 100 100" enable-background="new 0 0 100 100" xml:space="preserve">
<path d="M79.593,31.166c2.281-1.757,3.759-4.508,3.759-7.603c0-5.295-4.308-9.603-9.603-9.603s-9.603,4.308-9.603,9.603
	c0,3.095,1.478,5.846,3.759,7.603H63h-2h-4.907c2.281-1.757,3.759-4.508,3.759-7.603c0-5.295-4.308-9.603-9.603-9.603
	s-9.603,4.308-9.603,9.603c0,3.095,1.478,5.846,3.759,7.603H39h-1.5h-5.407c2.281-1.757,3.759-4.508,3.759-7.603
	c0-5.295-4.308-9.603-9.603-9.603s-9.603,4.308-9.603,9.603c0,3.095,1.478,5.846,3.759,7.603H13.5V62.96h5.455v23.08h14.38V62.96
	H37.5H39h3.955v23.08h14.38V62.96H61h2h3.455v23.08h14.38V62.96H86.5V31.166H79.593z M18.647,23.562c0-4.192,3.41-7.603,7.603-7.603
	s7.603,3.411,7.603,7.603c0,4.192-3.41,7.603-7.603,7.603S18.647,27.755,18.647,23.562z M37,60.96h-5.665v23.08h-10.38V60.96H15.5
	V33.166H37V60.96z M42.647,23.562c0-4.192,3.41-7.603,7.603-7.603s7.603,3.411,7.603,7.603c0,4.192-3.41,7.603-7.603,7.603
	S42.647,27.755,42.647,23.562z M61,60.96h-5.665v23.08h-10.38V60.96H39.5V33.166H61V60.96z M66.147,23.562
	c0-4.192,3.41-7.603,7.603-7.603s7.603,3.411,7.603,7.603c0,4.192-3.41,7.603-7.603,7.603S66.147,27.755,66.147,23.562z M84.5,60.96
	h-5.665v23.08h-10.38V60.96H63V33.166h21.5V60.96z"/>
</svg>
