<?xml version="1.0" encoding="utf-8"?>
<!-- Generator: Adobe Illustrator 17.0.0, SVG Export Plug-In . SVG Version: 6.00 Build 0)  -->
<!DOCTYPE svg PUBLIC "-//W3C//DTD SVG 1.1//EN" "http://www.w3.org/Graphics/SVG/1.1/DTD/svg11.dtd">
<svg version="1.1" id="Layer_1" xmlns="http://www.w3.org/2000/svg" xmlns:xlink="http://www.w3.org/1999/xlink" x="0px" y="0px"
	 width="100px" height="100px" viewBox="0 0 100 100" enable-background="new 0 0 100 100" xml:space="preserve">
<g>
	<path d="M50,20.426c-17.094,0-31,13.906-31,31s13.906,31,31,31s31-13.906,31-31S67.094,20.426,50,20.426z M50,80.426
		c-15.99,0-29-13.01-29-29s13.01-29,29-29s29,13.01,29,29S65.99,80.426,50,80.426z"/>
	<rect x="28.5" y="58.167" width="42" height="2"/>
	<polygon points="37,45.667 39,45.667 39,42.5 42.167,42.5 42.167,40.5 39,40.5 39,37.333 37,37.333 37,40.5 33.833,40.5 
		33.833,42.5 37,42.5 	"/>
	<polygon points="60.833,45.167 62.833,45.167 62.833,42.5 65.5,42.5 65.5,40.5 62.833,40.5 62.833,37.833 60.833,37.833 
		60.833,40.5 58.167,40.5 58.167,42.5 60.833,42.5 	"/>
</g>
</svg>
