<?xml version="1.0" encoding="utf-8"?>
<!-- Generator: Adobe Illustrator 17.0.0, SVG Export Plug-In . SVG Version: 6.00 Build 0)  -->
<!DOCTYPE svg PUBLIC "-//W3C//DTD SVG 1.1//EN" "http://www.w3.org/Graphics/SVG/1.1/DTD/svg11.dtd">
<svg version="1.1" id="Layer_1" xmlns="http://www.w3.org/2000/svg" xmlns:xlink="http://www.w3.org/1999/xlink" x="0px" y="0px"
	 width="100px" height="100px" viewBox="0 0 100 100" enable-background="new 0 0 100 100" xml:space="preserve">
<path d="M68.267,62.875h-8.713l-3.169-6.05c4.587-2.01,7.802-6.588,7.802-11.909c0-6.894-5.398-12.536-12.188-12.959v-8.897h-1.625
	v8.897c-6.79,0.423-12.188,6.065-12.188,12.959c0,5.237,3.119,9.749,7.591,11.807l-3.223,6.152H33.5V65h7.942l-6.703,12.796
	l1.771,0.928L43.7,65h6.675v6H52v-6h6.41l7.19,13.724l1.771-0.928L60.668,65h7.599V62.875z M40.188,44.917c0-6.065,4.935-11,11-11
	s11,4.935,11,11c0,4.552-2.779,8.467-6.73,10.138l-4.403-8.404l-4.349,8.302C42.87,53.233,40.188,49.385,40.188,44.917z
	 M53.518,55.663c-0.752,0.163-1.531,0.254-2.331,0.254c-0.884,0-1.74-0.116-2.565-0.314l2.432-4.643L53.518,55.663z M52,62.875
	V60.75h-1.625v2.125h-5.562l2.857-5.455c1.12,0.316,2.297,0.497,3.517,0.497c1.136,0,2.232-0.161,3.283-0.436l2.826,5.394H52z"/>
</svg>
