<?xml version="1.0" encoding="utf-8"?>
<!-- Generator: Adobe Illustrator 17.0.0, SVG Export Plug-In . SVG Version: 6.00 Build 0)  -->
<!DOCTYPE svg PUBLIC "-//W3C//DTD SVG 1.1//EN" "http://www.w3.org/Graphics/SVG/1.1/DTD/svg11.dtd">
<svg version="1.1" id="Layer_1" xmlns="http://www.w3.org/2000/svg" xmlns:xlink="http://www.w3.org/1999/xlink" x="0px" y="0px"
	 width="100px" height="100px" viewBox="0 0 100 100" enable-background="new 0 0 100 100" xml:space="preserve">
<path d="M62.186,63.694h5.346V31.9h-6.907c2.281-1.757,3.759-4.508,3.759-7.603c0-5.295-4.308-9.603-9.603-9.603
	s-9.603,4.308-9.603,9.603c0,3.095,1.478,5.846,3.759,7.603h-6.907v31.794h5.136l-6.419,11.04h6.738v12.04h14.38v-12.04h6.738
	L62.186,63.694z M47.179,24.296c0-4.192,3.41-7.603,7.603-7.603s7.603,3.411,7.603,7.603c0,4.192-3.41,7.603-7.603,7.603
	S47.179,28.489,47.179,24.296z M59.867,72.734v2v10.04h-10.38v-10.04v-2h-2h-3.262l3.262-5.61l2-3.44v-1.989H48.33h-4.298V33.9h21.5
	v27.794h-4.508h-1.157v1.989l2,3.44l3.262,5.61h-3.262H59.867z"/>
</svg>
