<?xml version="1.0" encoding="utf-8"?>
<!-- Generator: Adobe Illustrator 17.0.0, SVG Export Plug-In . SVG Version: 6.00 Build 0)  -->
<!DOCTYPE svg PUBLIC "-//W3C//DTD SVG 1.1//EN" "http://www.w3.org/Graphics/SVG/1.1/DTD/svg11.dtd">
<svg version="1.1" id="Layer_1" xmlns="http://www.w3.org/2000/svg" xmlns:xlink="http://www.w3.org/1999/xlink" x="0px" y="0px"
	 width="100px" height="100px" viewBox="0 0 100 100" enable-background="new 0 0 100 100" xml:space="preserve">
<g>
	<g>
		<path d="M78.966,76.068H20.008l29.479-47.846L78.966,76.068z M23.589,74.068h51.794L49.487,32.035L23.589,74.068z"/>
	</g>
</g>
<g>
	<g>
		<path d="M49.485,70.096c-0.827,0-1.576-0.31-2.226-0.92c-0.666-0.635-1.001-1.411-1.001-2.312c0-0.888,0.316-1.656,0.94-2.285
			c1.235-1.233,3.333-1.234,4.572-0.005c0.63,0.637,0.946,1.405,0.946,2.29s-0.345,1.683-0.997,2.305
			C51.062,69.786,50.312,70.096,49.485,70.096z M49.485,65.636c-0.356,0-0.624,0.109-0.87,0.355
			c-0.246,0.248-0.357,0.518-0.357,0.873c0,0.347,0.116,0.611,0.375,0.858c0.54,0.506,1.161,0.51,1.713-0.006
			c0.255-0.243,0.371-0.509,0.371-0.853c0-0.354-0.111-0.624-0.361-0.877C50.116,65.75,49.836,65.636,49.485,65.636z M52.047,62.514
			h-5.121V41.557h5.121V62.514z M48.926,60.514h1.121V43.557h-1.121V60.514z"/>
	</g>
</g>
</svg>
