<?xml version="1.0" encoding="utf-8"?>
<!-- Generator: Adobe Illustrator 17.0.0, SVG Export Plug-In . SVG Version: 6.00 Build 0)  -->
<!DOCTYPE svg PUBLIC "-//W3C//DTD SVG 1.1//EN" "http://www.w3.org/Graphics/SVG/1.1/DTD/svg11.dtd">
<svg version="1.1" id="Layer_1" xmlns="http://www.w3.org/2000/svg" xmlns:xlink="http://www.w3.org/1999/xlink" x="0px" y="0px"
	 width="100px" height="100px" viewBox="0 0 100 100" enable-background="new 0 0 100 100" xml:space="preserve">
<g>
	<path d="M48.29,20.167c-17.094,0-31,13.906-31,31s13.906,31,31,31s31-13.906,31-31S65.384,20.167,48.29,20.167z M48.29,80.167
		c-15.99,0-29-13.01-29-29s13.01-29,29-29s29,13.01,29,29S64.28,80.167,48.29,80.167z"/>
	<path d="M60.309,37.794l-16.263,8.721c-0.018,0.01-0.028,0.029-0.045,0.04c-0.066,0.041-0.116,0.096-0.171,0.152
		c-0.055,0.055-0.111,0.105-0.152,0.171c-0.011,0.017-0.03,0.027-0.04,0.045l-8.722,16.264c-0.209,0.389-0.138,0.868,0.174,1.18
		c0.192,0.192,0.448,0.293,0.707,0.293c0.161,0,0.323-0.039,0.473-0.119l16.264-8.722c0.018-0.01,0.028-0.029,0.045-0.04
		c0.066-0.041,0.116-0.096,0.171-0.152c0.055-0.055,0.111-0.105,0.152-0.171c0.011-0.017,0.03-0.027,0.04-0.045l8.721-16.263
		c0.209-0.389,0.138-0.868-0.174-1.18C61.177,37.655,60.699,37.585,60.309,37.794z M38.245,61.212l6.52-12.157l5.638,5.638
		L38.245,61.212z M51.816,53.278l-5.638-5.638l12.157-6.52L51.816,53.278z"/>
</g>
</svg>
