<?xml version="1.0" encoding="utf-8"?>
<!-- Generator: Adobe Illustrator 17.0.0, SVG Export Plug-In . SVG Version: 6.00 Build 0)  -->
<!DOCTYPE svg PUBLIC "-//W3C//DTD SVG 1.1//EN" "http://www.w3.org/Graphics/SVG/1.1/DTD/svg11.dtd">
<svg version="1.1" id="Layer_1" xmlns="http://www.w3.org/2000/svg" xmlns:xlink="http://www.w3.org/1999/xlink" x="0px" y="0px"
	 width="100px" height="100px" viewBox="0 0 100 100" enable-background="new 0 0 100 100" xml:space="preserve">
<g>
	<path d="M32.21,69.131c-0.938,0-1.818-0.364-2.48-1.026c-1.368-1.369-1.368-3.596-0.001-4.964l12.019-12.019l-7.182-7.272
		c-1.208-1.226-1.354-3.126-0.348-4.52c0.146-0.202,3.64-4.925,10.07-4.925c0.38,0,0.767,0.017,1.154,0.05l13.395-9.424
		c1.383-0.978,3.429-0.765,4.588,0.478l7.629,8.204c1.182,1.27,1.25,3.246,0.159,4.595l-9.544,11.81
		c0.338,4.058,0.179,10.772-4.082,13.275c-1.36,0.797-3.173,0.556-4.274-0.561l-6.633-6.715L34.69,68.104
		C34.029,68.767,33.148,69.131,32.21,69.131z M44.287,36.405c-5.42,0-8.328,3.93-8.449,4.097c-0.432,0.598-0.369,1.416,0.151,1.943
		l8.578,8.687L31.143,64.555c-0.588,0.589-0.588,1.547,0,2.136c0.567,0.568,1.564,0.568,2.132,0l13.412-13.411l8.048,8.147
		c0.472,0.48,1.251,0.582,1.838,0.241c3.579-2.103,3.337-8.932,3.067-11.77l-0.039-0.406L69.657,37.05
		c0.469-0.581,0.439-1.43-0.069-1.976l-7.628-8.203c-0.496-0.532-1.377-0.627-1.972-0.207l-14.012,9.859l-0.378-0.043
		C45.159,36.43,44.718,36.405,44.287,36.405z"/>
</g>
</svg>
