<?xml version="1.0" encoding="utf-8"?>
<!-- Generator: Adobe Illustrator 17.0.0, SVG Export Plug-In . SVG Version: 6.00 Build 0)  -->
<!DOCTYPE svg PUBLIC "-//W3C//DTD SVG 1.1//EN" "http://www.w3.org/Graphics/SVG/1.1/DTD/svg11.dtd">
<svg version="1.1" id="Layer_1" xmlns="http://www.w3.org/2000/svg" xmlns:xlink="http://www.w3.org/1999/xlink" x="0px" y="0px"
	 width="100px" height="100px" viewBox="0 0 100 100" enable-background="new 0 0 100 100" xml:space="preserve">
<path d="M79.345,38.806l-2.475,2.475L61.844,26.255l2.475-2.475l-5.834-5.834L42.752,33.68l5.834,5.834l2.475-2.475l3.712,3.712
	L24.367,71.156l7.601,7.601l30.406-30.406l3.712,3.712l-2.475,2.475l5.834,5.834L85.179,44.64L79.345,38.806z M48.586,36.685
	l-3.005-3.005l12.905-12.905l3.005,3.005l-1.061,1.061L49.646,35.624L48.586,36.685z M31.969,75.929l-4.773-4.773l28.991-28.991
	l4.773,4.773L31.969,75.929z M63.789,46.938l-7.601-7.601l-3.712-3.712l7.955-7.955l15.026,15.026l-7.955,7.955L63.789,46.938z
	 M69.445,57.544l-3.005-3.005l1.061-1.061l10.783-10.783l1.061-1.061l3.005,3.005L69.445,57.544z"/>
</svg>
