<?xml version="1.0" encoding="utf-8"?>
<!-- Generator: Adobe Illustrator 17.0.0, SVG Export Plug-In . SVG Version: 6.00 Build 0)  -->
<!DOCTYPE svg PUBLIC "-//W3C//DTD SVG 1.1//EN" "http://www.w3.org/Graphics/SVG/1.1/DTD/svg11.dtd">
<svg version="1.1" id="Layer_1" xmlns="http://www.w3.org/2000/svg" xmlns:xlink="http://www.w3.org/1999/xlink" x="0px" y="0px"
	 width="100px" height="100px" viewBox="0 0 100 100" enable-background="new 0 0 100 100" xml:space="preserve">
<path d="M69.588,32.667c0-1.562-1.271-2.833-2.833-2.833s-2.834,1.271-2.834,2.833c0,0.974,0.494,1.833,1.245,2.344
	c-0.01,0.011-0.023,0.018-0.033,0.029l-6.832,8.487l-3.178-8.149c1.184-0.34,2.058-1.42,2.058-2.711
	c0-1.562-1.271-2.833-2.834-2.833s-2.833,1.271-2.833,2.833c0,1.171,0.714,2.178,1.729,2.609c-0.001,0.003-0.003,0.005-0.005,0.007
	l-3.13,7.539l-2.926-7.505c1.083-0.398,1.861-1.431,1.861-2.65c0-1.562-1.271-2.833-2.833-2.833s-2.833,1.271-2.833,2.833
	c0,1.242,0.808,2.288,1.922,2.669l-3.414,8.224l-6.859-8.521c-0.031-0.039-0.072-0.065-0.108-0.097
	c0.701-0.516,1.161-1.34,1.161-2.276c0-1.562-1.271-2.833-2.833-2.833s-2.834,1.271-2.834,2.833s1.271,2.833,2.834,2.833
	c0.009,0,0.018-0.003,0.027-0.003c-0.01,0.056-0.027,0.111-0.027,0.17v33.5c0,0.553,0.447,1,1,1h31.666c0.553,0,1-0.447,1-1v-33.5
	c0-0.062-0.017-0.12-0.028-0.18C68.385,35.417,69.588,34.185,69.588,32.667z M32.412,32.667c0-0.459,0.374-0.833,0.834-0.833
	c0.459,0,0.833,0.374,0.833,0.833S33.705,33.5,33.246,33.5C32.786,33.5,32.412,33.125,32.412,32.667z M54.347,31.833
	c0.46,0,0.834,0.374,0.834,0.833S54.807,33.5,54.347,33.5c-0.459,0-0.833-0.374-0.833-0.833S53.888,31.833,54.347,31.833z
	 M46.21,31.833c0.459,0,0.833,0.374,0.833,0.833S46.669,33.5,46.21,33.5s-0.833-0.374-0.833-0.833S45.751,31.833,46.21,31.833z
	 M41.383,46.126c0.222,0.275,0.574,0.413,0.921,0.363c0.35-0.051,0.646-0.281,0.782-0.606l3.13-7.539l2.932,7.519
	c0.148,0.38,0.513,0.632,0.921,0.637c0.004,0,0.007,0,0.011,0c0.403,0,0.769-0.243,0.924-0.616l3.13-7.539l2.932,7.519
	c0.13,0.332,0.427,0.57,0.779,0.625c0.352,0.055,0.708-0.083,0.932-0.361l6.137-7.623v23.163H35.246V38.503L41.383,46.126z
	 M35.246,68.167v-4.5h29.666v4.5H35.246z M66.755,33.5c-0.46,0-0.834-0.374-0.834-0.833s0.374-0.833,0.834-0.833
	c0.459,0,0.833,0.374,0.833,0.833S67.214,33.5,66.755,33.5z"/>
</svg>
