<?xml version="1.0" encoding="utf-8"?>
<!-- Generator: Adobe Illustrator 16.0.0, SVG Export Plug-In . SVG Version: 6.00 Build 0)  -->
<!DOCTYPE svg PUBLIC "-//W3C//DTD SVG 1.1//EN" "http://www.w3.org/Graphics/SVG/1.1/DTD/svg11.dtd">
<svg version="1.1" id="Layer_1" xmlns="http://www.w3.org/2000/svg" xmlns:xlink="http://www.w3.org/1999/xlink" x="0px" y="0px"
	 width="100px" height="100px" viewBox="0 0 100 100" enable-background="new 0 0 100 100" xml:space="preserve">
<g>
	<rect x="49" y="26" width="2" height="23"/>
</g>
<g>
	<path d="M50,81c-17.093,0-31-13.906-31-31c0-6.212,1.831-12.206,5.295-17.333l1.657,1.12C22.712,38.582,21,44.188,21,50
		c0,15.99,13.009,29,29,29c15.99,0,29-13.01,29-29c0-15.656-12.471-28.454-28-28.983V23.5h-2V19h1c17.094,0,31,13.907,31,31
		C81,67.094,67.094,81,50,81z"/>
</g>
</svg>
