<?xml version="1.0" encoding="utf-8"?>
<!-- Generator: Adobe Illustrator 16.0.0, SVG Export Plug-In . SVG Version: 6.00 Build 0)  -->
<!DOCTYPE svg PUBLIC "-//W3C//DTD SVG 1.1//EN" "http://www.w3.org/Graphics/SVG/1.1/DTD/svg11.dtd">
<svg version="1.1" id="Layer_1" xmlns="http://www.w3.org/2000/svg" xmlns:xlink="http://www.w3.org/1999/xlink" x="0px" y="0px"
	 width="100px" height="100px" viewBox="0 0 100 100" enable-background="new 0 0 100 100" xml:space="preserve">
<g>
	<g>
		<path d="M51.819,78.457l-2.271-2.412c-3.202-3.404-19.171-20.933-19.171-31.735c0-11.822,9.618-21.439,21.44-21.439
			c11.82,0,21.438,9.618,21.439,21.439c0,11.034-17.21,29.648-19.172,31.735L51.819,78.457z M51.818,24.87
			c-10.72,0-19.44,8.721-19.44,19.439c0,10.261,16.721,28.337,18.627,30.364l0.812,0.863l0.812-0.862
			c6.919-7.356,18.629-22.029,18.629-30.365C71.257,33.591,62.536,24.87,51.818,24.87z"/>
	</g>
	<g>
		<path d="M51.818,53.768c-5.215,0-9.458-4.243-9.458-9.458s4.243-9.458,9.458-9.458c5.213,0,9.456,4.243,9.458,9.458
			C61.276,49.525,57.033,53.768,51.818,53.768z M51.818,36.852c-4.113,0-7.458,3.346-7.458,7.458s3.346,7.458,7.458,7.458
			c4.112,0,7.458-3.346,7.458-7.458C59.274,40.197,55.929,36.852,51.818,36.852z"/>
	</g>
</g>
</svg>
