<?xml version="1.0" encoding="utf-8"?>
<!-- Generator: Adobe Illustrator 17.0.0, SVG Export Plug-In . SVG Version: 6.00 Build 0)  -->
<!DOCTYPE svg PUBLIC "-//W3C//DTD SVG 1.1//EN" "http://www.w3.org/Graphics/SVG/1.1/DTD/svg11.dtd">
<svg version="1.1" id="Layer_1" xmlns="http://www.w3.org/2000/svg" xmlns:xlink="http://www.w3.org/1999/xlink" x="0px" y="0px"
	 width="100px" height="100px" viewBox="0 0 100 100" enable-background="new 0 0 100 100" xml:space="preserve">
<path d="M68,33.342c-7.37,0-15.435,10.571-18.012,14.24C47.387,43.883,39.348,33.375,32,33.375c-8.822,0-16,7.178-16,16
	s7.178,16,16,16c7.37,0,15.435-10.571,18.012-14.24C52.613,54.834,60.652,65.342,68,65.342c8.822,0,16-7.178,16-16
	S76.822,33.342,68,33.342z M32,63.375c-7.72,0-14-6.28-14-14s6.28-14,14-14c6.789,0,14.98,11.357,16.795,14
	C46.98,52.018,38.789,63.375,32,63.375z M68,63.342c-6.789,0-14.98-11.357-16.795-14c1.814-2.643,10.006-14,16.795-14
	c7.72,0,14,6.28,14,14S75.72,63.342,68,63.342z"/>
</svg>
