<?xml version="1.0" encoding="utf-8"?>
<!-- Generator: Adobe Illustrator 17.0.0, SVG Export Plug-In . SVG Version: 6.00 Build 0)  -->
<!DOCTYPE svg PUBLIC "-//W3C//DTD SVG 1.1//EN" "http://www.w3.org/Graphics/SVG/1.1/DTD/svg11.dtd">
<svg version="1.1" id="Layer_1" xmlns="http://www.w3.org/2000/svg" xmlns:xlink="http://www.w3.org/1999/xlink" x="0px" y="0px"
	 width="100px" height="100px" viewBox="0 0 100 100" enable-background="new 0 0 100 100" xml:space="preserve">
<g>
	<path d="M49.41,64.42c-6.14,0-11.135-4.995-11.135-11.135c0-5.972,10.036-15.162,10.463-15.55l0.672-0.611l0.673,0.612
		c0.427,0.388,10.462,9.579,10.462,15.55C60.545,59.425,55.55,64.42,49.41,64.42z M49.41,39.843
		c-3.064,2.926-9.135,9.53-9.135,13.442c0,5.037,4.098,9.135,9.135,9.135s9.135-4.098,9.135-9.135
		C58.545,49.37,52.475,42.768,49.41,39.843z"/>
</g>
<g>
	<path d="M50,81c-17.093,0-31-13.906-31-31c0-17.093,13.907-31,31-31c17.094,0,31,13.907,31,31C81,67.094,67.094,81,50,81z M50,21
		c-15.991,0-29,13.009-29,29c0,15.99,13.009,29,29,29c15.99,0,29-13.01,29-29C79,34.009,65.99,21,50,21z"/>
</g>
</svg>
