<?xml version="1.0" encoding="utf-8"?>
<!-- Generator: Adobe Illustrator 17.0.0, SVG Export Plug-In . SVG Version: 6.00 Build 0)  -->
<!DOCTYPE svg PUBLIC "-//W3C//DTD SVG 1.1//EN" "http://www.w3.org/Graphics/SVG/1.1/DTD/svg11.dtd">
<svg version="1.1" id="Layer_1" xmlns="http://www.w3.org/2000/svg" xmlns:xlink="http://www.w3.org/1999/xlink" x="0px" y="0px"
	 width="100px" height="100px" viewBox="0 0 100 100" enable-background="new 0 0 100 100" xml:space="preserve">
<path d="M81.114,19.929c-0.005-0.068-0.014-0.135-0.033-0.202c-0.01-0.036-0.024-0.07-0.039-0.105
	c-0.013-0.031-0.019-0.064-0.034-0.094c-0.014-0.027-0.036-0.047-0.052-0.072c-0.02-0.031-0.041-0.06-0.064-0.089
	c-0.042-0.051-0.088-0.094-0.138-0.135c-0.026-0.022-0.05-0.044-0.079-0.063c-0.065-0.043-0.134-0.075-0.207-0.102
	c-0.018-0.007-0.033-0.02-0.051-0.025c-0.004-0.001-0.007,0-0.011-0.001C80.315,19.015,80.221,19,80.125,19H80.1
	c-0.002,0-0.003,0-0.005,0h-19.97h-20c-0.044,0-0.082,0.02-0.125,0.025C39.957,19.02,39.919,19,39.875,19h-20c-0.553,0-1,0.447-1,1
	v60c0,0.025,0.01,0.047,0.012,0.071c0.005,0.068,0.014,0.135,0.033,0.201c0.01,0.037,0.024,0.07,0.039,0.105
	c0.013,0.031,0.018,0.064,0.034,0.094c0.014,0.026,0.036,0.047,0.052,0.072c0.02,0.031,0.041,0.06,0.065,0.089
	c0.042,0.05,0.088,0.094,0.138,0.135c0.026,0.022,0.05,0.044,0.079,0.063c0.064,0.043,0.134,0.075,0.207,0.102
	c0.018,0.007,0.033,0.02,0.052,0.026c0.004,0.001,0.008,0.001,0.012,0.002C19.685,80.985,19.779,81,19.875,81h20
	c0.053,0,0.104-0.011,0.155-0.019C40.063,80.984,40.091,81,40.125,81h20h20c0.553,0,1-0.447,1-1V20
	C81.125,19.975,81.115,19.954,81.114,19.929z M59.125,79H41.75l8.316-12.396L59.125,53.1V79z M41.125,21H58.25L41.125,46.527V21z
	 M20.875,21h18v28.882l-18,26.832V21z M60.658,21H78.25L39.342,79H21.75L60.658,21z M79.125,79h-18V50.118l18-26.832V79z"/>
</svg>
