<?xml version="1.0" encoding="utf-8"?>
<!-- Generator: Adobe Illustrator 16.0.0, SVG Export Plug-In . SVG Version: 6.00 Build 0)  -->
<!DOCTYPE svg PUBLIC "-//W3C//DTD SVG 1.1//EN" "http://www.w3.org/Graphics/SVG/1.1/DTD/svg11.dtd">
<svg version="1.1" id="Layer_1" xmlns="http://www.w3.org/2000/svg" xmlns:xlink="http://www.w3.org/1999/xlink" x="0px" y="0px"
	 width="100px" height="100px" viewBox="0 0 100 100" enable-background="new 0 0 100 100" xml:space="preserve">
<g>
	<path d="M52.424,22.807c-15.42,0-27.965,12.547-27.965,27.967c0,15.419,12.545,27.966,27.965,27.966
		c15.419,0,27.965-12.547,27.965-27.966C80.389,35.354,67.843,22.807,52.424,22.807z M52.424,73.549
		c-12.561,0-22.778-10.216-22.778-22.775c0-12.562,10.217-22.778,22.778-22.778s22.778,10.216,22.778,22.778
		C75.202,63.333,64.984,73.549,52.424,73.549z"/>
	<path d="M65.259,48.397H54.8V37.938c0-1.313-1.063-2.377-2.376-2.377s-2.377,1.063-2.377,2.377v10.459H39.588
		c-1.313,0-2.376,1.063-2.376,2.377c0,1.313,1.063,2.376,2.376,2.376h10.458V63.61c0,1.313,1.064,2.376,2.377,2.376
		S54.8,64.923,54.8,63.61V53.15h10.458c1.313,0,2.377-1.063,2.377-2.376C67.636,49.46,66.572,48.397,65.259,48.397z"/>
</g>
</svg>
