<?xml version="1.0" encoding="utf-8"?>
<!-- Generator: Adobe Illustrator 16.0.0, SVG Export Plug-In . SVG Version: 6.00 Build 0)  -->
<!DOCTYPE svg PUBLIC "-//W3C//DTD SVG 1.1//EN" "http://www.w3.org/Graphics/SVG/1.1/DTD/svg11.dtd">
<svg version="1.1" id="Layer_1" xmlns="http://www.w3.org/2000/svg" xmlns:xlink="http://www.w3.org/1999/xlink" x="0px" y="0px"
	 width="100px" height="100px" viewBox="0 0 100 100" enable-background="new 0 0 100 100" xml:space="preserve">
<path d="M77.877,50.402c0-1.29-1.046-2.337-2.337-2.337h-2.537l2.909-2.909c0.913-0.913,0.913-2.393,0-3.305
	c-0.913-0.913-2.392-0.913-3.305,0l-6.214,6.214H55.506l7.722-7.722h8.789c1.291,0,2.337-1.047,2.337-2.338
	c0-1.29-1.046-2.337-2.337-2.337h-4.114l1.794-1.794c0.913-0.913,0.913-2.392,0-3.305s-2.392-0.913-3.305,0l-1.794,1.794V28.25
	c0-1.291-1.046-2.338-2.337-2.338c-1.29,0-2.337,1.047-2.337,2.338l-0.001,8.788l-7.599,7.599v-9.94L58.62,28.4
	c0.913-0.913,0.913-2.392,0-3.305s-2.392-0.913-3.305,0l-2.992,2.991v-3.855c0-1.29-1.046-2.337-2.337-2.337
	c-1.292,0-2.337,1.047-2.337,2.337v3.691l-2.827-2.827c-0.913-0.913-2.392-0.913-3.305,0s-0.913,2.392,0,3.305l6.132,6.132v9.767
	l-6.766-6.766v-8.904c0-1.291-1.046-2.338-2.337-2.338s-2.337,1.047-2.337,2.338v4.229l-2.726-2.725
	c-0.913-0.913-2.392-0.913-3.305,0s-0.913,2.392,0,3.305l2.609,2.609h-3.998c-1.291,0-2.337,1.047-2.337,2.337
	c0,1.291,1.046,2.338,2.337,2.338h8.672l7.343,7.343H34.619l-6.296-6.297c-0.913-0.913-2.392-0.913-3.305,0s-0.913,2.393,0,3.306
	l2.991,2.991h-3.854c-1.291,0-2.337,1.047-2.337,2.337s1.046,2.337,2.337,2.337h3.69l-2.827,2.827c-0.913,0.913-0.913,2.393,0,3.305
	c0.457,0.457,1.055,0.686,1.652,0.686c0.598,0,1.196-0.229,1.652-0.686l6.132-6.132h9.767l-6.766,6.767h-8.904
	c-1.291,0-2.337,1.047-2.337,2.337s1.046,2.337,2.337,2.337h4.23l-2.725,2.726c-0.913,0.913-0.913,2.392,0,3.305
	c0.457,0.457,1.054,0.685,1.652,0.685s1.196-0.228,1.652-0.685l2.609-2.609V71.6c0,1.29,1.046,2.337,2.337,2.337
	c1.29,0,2.337-1.047,2.337-2.337l0.001-8.673l7.004-7.006V66.47l-6.214,6.215c-0.913,0.913-0.913,2.392,0,3.305
	c0.456,0.456,1.054,0.685,1.652,0.685c0.598,0,1.196-0.229,1.652-0.685l2.909-2.909v2.538c0,1.29,1.046,2.337,2.337,2.337
	c1.291,0,2.337-1.047,2.337-2.337V73.08l2.909,2.909c0.457,0.456,1.055,0.685,1.652,0.685c0.598,0,1.196-0.229,1.653-0.685
	c0.913-0.913,0.913-2.392,0-3.305l-6.214-6.215V55.583l7.722,7.723v8.788c0,1.29,1.046,2.337,2.337,2.337s2.337-1.047,2.337-2.337
	v-4.114l1.794,1.794c0.457,0.457,1.055,0.685,1.653,0.685c0.598,0,1.196-0.228,1.652-0.685c0.913-0.913,0.913-2.392,0-3.305
	l-1.794-1.794h4.114c1.291,0,2.337-1.047,2.337-2.337c0-1.291-1.046-2.338-2.337-2.338h-8.789l-7.261-7.261h10.303l6.214,6.214
	c0.457,0.457,1.055,0.686,1.653,0.686c0.598,0,1.196-0.229,1.652-0.686c0.913-0.912,0.913-2.392,0-3.305l-2.909-2.909h2.537
	C76.831,52.739,77.877,51.692,77.877,50.402z"/>
</svg>
