<?xml version="1.0" encoding="utf-8"?>
<!-- Generator: Adobe Illustrator 16.0.0, SVG Export Plug-In . SVG Version: 6.00 Build 0)  -->
<!DOCTYPE svg PUBLIC "-//W3C//DTD SVG 1.1//EN" "http://www.w3.org/Graphics/SVG/1.1/DTD/svg11.dtd">
<svg version="1.1" id="Layer_1" xmlns="http://www.w3.org/2000/svg" xmlns:xlink="http://www.w3.org/1999/xlink" x="0px" y="0px"
	 width="100px" height="100px" viewBox="0 0 100 100" enable-background="new 0 0 100 100" xml:space="preserve">
<g>
	<path d="M72.712,39.867l1.205-1.206l1.18,1.18c0.402,0.402,0.936,0.625,1.504,0.625c0.568,0,1.102-0.222,1.501-0.622
		c0.402-0.402,0.625-0.936,0.625-1.504c0-0.566-0.222-1.1-0.624-1.504l-4.936-4.935c-0.402-0.401-0.936-0.622-1.503-0.622
		s-1.101,0.221-1.503,0.622c-0.827,0.827-0.829,2.173,0,3.006l0.749,0.749l-1.278,1.278c-3.96-3.189-8.816-5.138-13.866-5.562
		v-3.305c0-1.171-0.954-2.125-2.126-2.125s-2.126,0.954-2.126,2.125v3.304c-13.199,1.082-23.392,12.057-23.392,25.425
		c0,14.071,11.447,25.519,25.518,25.519c14.071,0,25.519-11.447,25.519-25.519C79.16,50.52,76.877,44.549,72.712,39.867z
		 M53.641,78.063c-11.727,0-21.267-9.54-21.267-21.266c0-11.727,9.54-21.267,21.267-21.267c11.727,0,21.267,9.54,21.267,21.267
		C74.907,68.523,65.367,78.063,53.641,78.063z"/>
	<path d="M57.315,54.67h-1.549V39.833c0-1.171-0.954-2.125-2.126-2.125s-2.126,0.954-2.126,2.125V54.67h-1.477
		c-1.172,0-2.125,0.954-2.125,2.126c0,1.172,0.953,2.126,2.125,2.126h1.477v4.235c0,1.172,0.954,2.126,2.126,2.126
		s2.126-0.954,2.126-2.126v-4.235h1.549c1.173,0,2.127-0.954,2.127-2.126C59.442,55.624,58.488,54.67,57.315,54.67z"/>
</g>
</svg>
