<?xml version="1.0" encoding="utf-8"?>
<!-- Generator: Adobe Illustrator 16.0.0, SVG Export Plug-In . SVG Version: 6.00 Build 0)  -->
<!DOCTYPE svg PUBLIC "-//W3C//DTD SVG 1.1//EN" "http://www.w3.org/Graphics/SVG/1.1/DTD/svg11.dtd">
<svg version="1.1" id="Layer_1" xmlns="http://www.w3.org/2000/svg" xmlns:xlink="http://www.w3.org/1999/xlink" x="0px" y="0px"
	 width="100px" height="100px" viewBox="0 0 100 100" enable-background="new 0 0 100 100" xml:space="preserve">
<path d="M53.554,28.685c-12.416,0-22.517,10.102-22.517,22.517c0,12.416,10.101,22.517,22.517,22.517
	c12.415,0,22.516-10.101,22.516-22.517C76.07,38.786,65.969,28.685,53.554,28.685z M70.133,43.411l-16.78,5.523L45.312,34.84
	c2.482-1.255,5.276-1.979,8.243-1.979C60.879,32.861,67.196,37.188,70.133,43.411z M35.214,51.201
	c0-5.799,2.711-10.966,6.925-14.329l8.381,14.69l-2.66,17.061C40.528,66.221,35.214,59.325,35.214,51.201z M53.554,69.54
	c-0.68,0-1.35-0.045-2.011-0.117l2.62-16.793l17.217-5.666c0.324,1.361,0.514,2.777,0.514,4.237
	C71.894,61.313,63.667,69.54,53.554,69.54z"/>
</svg>
