<?xml version="1.0" encoding="utf-8"?>
<!-- Generator: Adobe Illustrator 16.0.0, SVG Export Plug-In . SVG Version: 6.00 Build 0)  -->
<!DOCTYPE svg PUBLIC "-//W3C//DTD SVG 1.1//EN" "http://www.w3.org/Graphics/SVG/1.1/DTD/svg11.dtd">
<svg version="1.1" id="Layer_1" xmlns="http://www.w3.org/2000/svg" xmlns:xlink="http://www.w3.org/1999/xlink" x="0px" y="0px"
	 width="100px" height="100px" viewBox="0 0 100 100" enable-background="new 0 0 100 100" xml:space="preserve">
<g>
	<path d="M67.591,28.609H35.586c-0.693,0-1.254,0.562-1.254,1.256v0.188v14.035v0.189v14.035v14.225v0.002
		c0,0.693,0.562,1.254,1.254,1.254h32.005c0.693,0,1.254-0.561,1.254-1.254v-0.002V58.313V44.277v-0.189V30.053v-0.188
		C68.846,29.171,68.284,28.609,67.591,28.609z M66.337,31.308v11.526H36.84V31.308H66.337z M36.84,45.532h29.497v11.526H36.84
		V45.532z M66.337,71.283H36.84V59.567h29.497V71.283z"/>
	<path d="M46.276,40.094h10.283c0.693,0,1.255-0.561,1.255-1.254v-3.348c0-0.694-0.562-1.256-1.255-1.256
		c-0.692,0-1.254,0.562-1.254,1.256v2.093h-7.774v-2.093c0-0.694-0.562-1.256-1.254-1.256s-1.254,0.562-1.254,1.256v3.348
		C45.022,39.533,45.583,40.094,46.276,40.094z"/>
	<path d="M56.787,48.273c-0.692,0-1.254,0.561-1.254,1.254v2.094h-7.774v-2.094c0-0.693-0.562-1.254-1.254-1.254
		s-1.254,0.561-1.254,1.254v3.349c0,0.693,0.562,1.255,1.254,1.255h10.283c0.693,0,1.255-0.562,1.255-1.255v-3.349
		C58.042,48.834,57.479,48.273,56.787,48.273z"/>
	<path d="M46.504,68.354h10.283c0.693,0,1.254-0.561,1.254-1.254v-3.349c0-0.693-0.562-1.255-1.254-1.255s-1.254,0.562-1.254,1.255
		v2.094h-7.774v-2.094c0-0.693-0.562-1.255-1.254-1.255c-0.693,0-1.255,0.562-1.255,1.255V67.1
		C45.25,67.793,45.812,68.354,46.504,68.354z"/>
</g>
</svg>
