<?xml version="1.0" encoding="utf-8"?>
<!-- Generator: Adobe Illustrator 16.0.0, SVG Export Plug-In . SVG Version: 6.00 Build 0)  -->
<!DOCTYPE svg PUBLIC "-//W3C//DTD SVG 1.1//EN" "http://www.w3.org/Graphics/SVG/1.1/DTD/svg11.dtd">
<svg version="1.1" id="Layer_1" xmlns="http://www.w3.org/2000/svg" xmlns:xlink="http://www.w3.org/1999/xlink" x="0px" y="0px"
	 width="100px" height="100px" viewBox="0 0 100 100" enable-background="new 0 0 100 100" xml:space="preserve">
<g>
	<g>
		<path d="M54.526,66.332c-7.084,0-12.848-5.762-12.848-12.847c0-4.908,2.73-9.316,7.129-11.507c0.197-0.097,0.436-0.06,0.592,0.097
			c0.155,0.155,0.195,0.393,0.098,0.591c-0.803,1.631-1.208,3.383-1.208,5.208c0,6.519,5.303,11.822,11.82,11.822
			c1.845,0,3.616-0.416,5.262-1.236c0.198-0.099,0.437-0.061,0.591,0.096c0.156,0.155,0.197,0.393,0.099,0.591
			C63.881,63.578,59.462,66.332,54.526,66.332z"/>
	</g>
	<g>
		<path d="M53.896,30.358c-13.107,0-23.77,10.663-23.77,23.771s10.662,23.771,23.77,23.771s23.771-10.663,23.771-23.771
			S67.003,30.358,53.896,30.358z M53.896,74.068c-10.994,0-19.939-8.945-19.939-19.94s8.945-19.94,19.939-19.94
			c10.996,0,19.94,8.945,19.94,19.94S64.892,74.068,53.896,74.068z"/>
	</g>
</g>
</svg>
