<?xml version="1.0" encoding="utf-8"?>
<!-- Generator: Adobe Illustrator 16.0.0, SVG Export Plug-In . SVG Version: 6.00 Build 0)  -->
<!DOCTYPE svg PUBLIC "-//W3C//DTD SVG 1.1//EN" "http://www.w3.org/Graphics/SVG/1.1/DTD/svg11.dtd">
<svg version="1.1" id="Layer_1" xmlns="http://www.w3.org/2000/svg" xmlns:xlink="http://www.w3.org/1999/xlink" x="0px" y="0px"
	 width="100px" height="100px" viewBox="0 0 100 100" enable-background="new 0 0 100 100" xml:space="preserve">
<g>
	<path d="M49.628,21.959c-15.419,0-27.965,12.547-27.965,27.966c0,15.42,12.545,27.967,27.965,27.967
		c15.42,0,27.965-12.547,27.965-27.967C77.593,34.506,65.048,21.959,49.628,21.959z M49.628,72.7
		c-12.561,0-22.778-10.216-22.778-22.775c0-12.562,10.217-22.777,22.778-22.777s22.778,10.216,22.778,22.777
		C72.406,62.484,62.189,72.7,49.628,72.7z"/>
	<g>
		<path d="M50.185,34.462c-0.293-0.299-0.819-0.299-1.112,0c-0.578,0.589-5.645,5.841-5.645,9.085s5.067,8.496,5.645,9.085
			c0.147,0.149,0.347,0.233,0.556,0.233s0.409-0.084,0.556-0.233c0.578-0.589,5.645-5.841,5.645-9.085S50.762,35.051,50.185,34.462z
			"/>
		<path d="M45.752,52.601c-2.294-2.295-9.593-2.426-10.417-2.434c-0.187,0-0.41,0.081-0.558,0.229
			c-0.148,0.147-0.23,0.349-0.229,0.559c0.008,0.824,0.139,8.122,2.433,10.415c2.294,2.294,9.591,2.425,10.416,2.433
			c0.002,0,0.004,0,0.007,0c0.005,0,0.011,0,0.015,0c0.435,0.007,0.795-0.344,0.795-0.778c0-0.081-0.012-0.157-0.034-0.23
			C48.152,61.313,47.904,54.752,45.752,52.601z"/>
		<path d="M64.48,50.396c-0.148-0.147-0.359-0.231-0.558-0.229c-0.825,0.008-8.124,0.139-10.416,2.434
			c-2.294,2.291-2.426,9.59-2.433,10.415c-0.001,0.21,0.081,0.411,0.228,0.559c0.146,0.146,0.345,0.228,0.551,0.228
			c0.002,0,0.005,0,0.007,0c0.825-0.008,8.123-0.139,10.416-2.433c2.294-2.293,2.426-9.591,2.433-10.415
			C64.709,50.744,64.627,50.543,64.48,50.396z"/>
	</g>
</g>
</svg>
