<?xml version="1.0" encoding="utf-8"?>
<!-- Generator: Adobe Illustrator 16.0.0, SVG Export Plug-In . SVG Version: 6.00 Build 0)  -->
<!DOCTYPE svg PUBLIC "-//W3C//DTD SVG 1.1//EN" "http://www.w3.org/Graphics/SVG/1.1/DTD/svg11.dtd">
<svg version="1.1" id="Layer_1" xmlns="http://www.w3.org/2000/svg" xmlns:xlink="http://www.w3.org/1999/xlink" x="0px" y="0px"
	 width="100px" height="100px" viewBox="0 0 100 100" enable-background="new 0 0 100 100" xml:space="preserve">
<g>
	<g>
		<path d="M50.584,77.688c-14.87,0-26.969-12.099-26.969-26.969s12.099-26.969,26.969-26.969c14.871,0,26.969,12.099,26.969,26.969
			S65.455,77.688,50.584,77.688z M50.584,27.696c-12.693,0-23.021,10.329-23.021,23.023c0,12.693,10.328,23.021,23.021,23.021
			c12.695,0,23.023-10.328,23.023-23.021C73.607,38.025,63.279,27.696,50.584,27.696z"/>
	</g>
	<g>
		<path d="M38.832,63.83c-0.492,0-0.982-0.181-1.366-0.55c-0.786-0.753-0.812-2.002-0.058-2.787
			c3.611-3.766,8.472-5.839,13.686-5.839c4.629,0,9.086,1.686,12.551,4.748c0.816,0.721,0.893,1.967,0.172,2.783
			c-0.723,0.819-1.97,0.895-2.785,0.174c-2.743-2.424-6.271-3.758-9.938-3.758c-4.129,0-7.979,1.643-10.838,4.62
			C39.869,63.627,39.352,63.83,38.832,63.83z"/>
	</g>
	<g>
		<g>
			<path d="M46.725,50.088h-6.533c-1.09,0-1.973-0.884-1.973-1.974c0-1.088,0.883-1.973,1.973-1.973h6.533
				c1.091,0,1.975,0.885,1.975,1.973C48.699,49.204,47.815,50.088,46.725,50.088z"/>
		</g>
		<g>
			<path d="M43.458,53.355c-1.091,0-1.974-0.885-1.974-1.974v-6.533c0-1.09,0.883-1.974,1.974-1.974c1.09,0,1.974,0.884,1.974,1.974
				v6.533C45.432,52.471,44.548,53.355,43.458,53.355z"/>
		</g>
		<g>
			<path d="M60.977,50.088h-6.532c-1.091,0-1.975-0.884-1.975-1.974c0-1.088,0.884-1.973,1.975-1.973h6.532
				c1.09,0,1.975,0.885,1.975,1.973C62.951,49.204,62.066,50.088,60.977,50.088z"/>
		</g>
		<g>
			<path d="M57.71,53.355c-1.09,0-1.974-0.885-1.974-1.974v-6.533c0-1.09,0.884-1.974,1.974-1.974c1.091,0,1.974,0.884,1.974,1.974
				v6.533C59.684,52.471,58.801,53.355,57.71,53.355z"/>
		</g>
	</g>
</g>
</svg>
