<?xml version="1.0" encoding="utf-8"?>
<!-- Generator: Adobe Illustrator 16.0.0, SVG Export Plug-In . SVG Version: 6.00 Build 0)  -->
<!DOCTYPE svg PUBLIC "-//W3C//DTD SVG 1.1//EN" "http://www.w3.org/Graphics/SVG/1.1/DTD/svg11.dtd">
<svg version="1.1" id="Layer_1" xmlns="http://www.w3.org/2000/svg" xmlns:xlink="http://www.w3.org/1999/xlink" x="0px" y="0px"
	 width="100px" height="100px" viewBox="0 0 100 100" enable-background="new 0 0 100 100" xml:space="preserve">
<g>
	<path d="M65.574,17.317c-7.901,0-14.544,5.412-16.464,12.721c-0.193-0.008-0.382-0.029-0.577-0.029
		c-9.396,0-17.041,7.645-17.041,17.041c0,8.725,13.914,30.902,15.5,33.059l0.583,0.795c0.223,0.303,0.581,0.484,0.958,0.484
		c0.377,0,0.735-0.182,0.956-0.482l0.585-0.797c0.859-1.168,5.332-8.209,9.254-15.803c2.287,4.797,4.179,8.395,4.706,9.111
		l0.583,0.795c0.223,0.303,0.581,0.484,0.958,0.484c0.377,0,0.735-0.182,0.956-0.482l0.585-0.797
		c1.586-2.156,15.5-30.334,15.5-39.059C82.616,24.962,74.971,17.317,65.574,17.317z M52.43,48.503c0,2.148-1.749,3.896-3.897,3.896
		c-2.148,0-3.896-1.748-3.896-3.896s1.748-3.896,3.896-3.896c1.195,0,2.253,0.551,2.968,1.4c0.296,0.811,0.603,1.633,0.926,2.469
		C52.427,48.483,52.43,48.493,52.43,48.503z M48.533,75.679c-6.512-9.307-13.216-23.646-13.216-28.629
		c0-7.287,5.929-13.217,13.216-13.217c0.009,0,0.018,0.002,0.027,0.002c-0.005,0.176-0.026,0.348-0.026,0.523
		c0,1.766,0.576,4.334,1.497,7.313c-0.483-0.105-0.983-0.164-1.498-0.164c-3.857,0-6.996,3.139-6.996,6.996s3.139,6.994,6.996,6.994
		c2.287,0,4.315-1.107,5.592-2.809c1.058,2.539,2.173,5.072,3.264,7.461C54.922,65.411,51.708,71.142,48.533,75.679z M65.574,68.987
		c-1.536-2.195-3.082-5.008-4.548-8.084c-0.686-1.439-1.355-2.934-1.997-4.455C55.24,47.476,52.384,37.7,52.36,34.403
		c0-0.014-0.001-0.031-0.001-0.045c0-1.307,0.198-2.566,0.552-3.76c1.624-5.459,6.683-9.457,12.664-9.457
		c7.288,0,13.216,5.93,13.216,13.217C78.79,39.341,72.086,59.681,65.574,68.987z"/>
	<path d="M65.574,28.815c-3.081,0-5.697,2.004-6.628,4.773c-0.235,0.699-0.368,1.445-0.368,2.223c0,3.668,2.838,6.678,6.432,6.967
		c0.187,0.014,0.374,0.027,0.564,0.027c3.857,0,6.996-3.137,6.996-6.994S69.432,28.815,65.574,28.815z M65.574,39.708
		c-0.712,0-1.372-0.205-1.947-0.541c-1.03-0.602-1.751-1.652-1.902-2.889c-0.019-0.154-0.047-0.307-0.047-0.467
		c0-2.148,1.748-3.896,3.896-3.896c2.149,0,3.897,1.748,3.897,3.896S67.723,39.708,65.574,39.708z"/>
</g>
</svg>
