<?xml version="1.0" encoding="utf-8"?>
<!-- Generator: Adobe Illustrator 16.0.0, SVG Export Plug-In . SVG Version: 6.00 Build 0)  -->
<!DOCTYPE svg PUBLIC "-//W3C//DTD SVG 1.1//EN" "http://www.w3.org/Graphics/SVG/1.1/DTD/svg11.dtd">
<svg version="1.1" id="Layer_1" xmlns="http://www.w3.org/2000/svg" xmlns:xlink="http://www.w3.org/1999/xlink" x="0px" y="0px"
	 width="100px" height="100px" viewBox="0 0 100 100" enable-background="new 0 0 100 100" xml:space="preserve">
<g>
	<path d="M83.273,40.71l-0.031-0.114c-0.026-0.19-0.071-0.379-0.134-0.566l-0.065-0.188l-0.041-0.092
		c-0.156-0.344-0.353-0.631-0.601-0.879L61.334,17.805c-0.248-0.25-0.537-0.449-0.888-0.609l-0.281-0.105
		c-0.206-0.068-0.416-0.114-0.581-0.135l-0.136-0.035H45.286c-4.053,0-7.544,2.429-9.113,5.904h12.712v0.098h7.322v11.072
		c0,1.295,0.247,2.535,0.697,3.671l-9.552-9.551c-0.246-0.251-0.538-0.452-0.91-0.623l-0.248-0.093
		c-0.186-0.065-0.379-0.111-0.584-0.138l-0.079-0.021H32.21v-0.018h-0.915c-5.514,0-10,4.485-10,10v41.994c0,5.514,4.486,10,10,10
		h27.997c5.108,0,9.326-3.853,9.92-8.805V68.659h0.078V51.294l-0.008-0.293l-0.034-0.116c-0.025-0.186-0.067-0.367-0.131-0.557
		l-0.066-0.195l-0.046-0.097c-0.155-0.335-0.347-0.615-0.594-0.866l-5.873-5.872c1.137,0.451,2.375,0.697,3.668,0.697h11.074v24.917
		c0,1.933-1.379,3.55-3.206,3.918v6.044c5.143-0.406,9.207-4.714,9.207-9.962V40.993L83.273,40.71z M63.288,54.296v24.919
		c0,2.203-1.792,3.997-3.996,3.997H31.295c-2.205,0-3.999-1.794-3.999-3.997V37.221c0-2.205,1.794-3.999,3.999-3.999h10.921v11.072
		c0,5.515,4.486,10.001,10,10.001H63.288z"/>
</g>
</svg>
