<?xml version="1.0" encoding="utf-8"?>
<!-- Generator: Adobe Illustrator 16.0.0, SVG Export Plug-In . SVG Version: 6.00 Build 0)  -->
<!DOCTYPE svg PUBLIC "-//W3C//DTD SVG 1.1//EN" "http://www.w3.org/Graphics/SVG/1.1/DTD/svg11.dtd">
<svg version="1.1" id="Layer_1" xmlns="http://www.w3.org/2000/svg" xmlns:xlink="http://www.w3.org/1999/xlink" x="0px" y="0px"
	 width="100px" height="100px" viewBox="0 0 100 100" enable-background="new 0 0 100 100" xml:space="preserve">
<g>
	<path d="M38.067,58.084h-1.971c-1.09,0-1.974,0.883-1.974,1.973v22.468c0,0.882-0.228,1.489-0.384,1.756h-9.143
		c-0.156-0.267-0.384-0.874-0.384-1.756V60.057c0-1.09-0.883-1.973-1.974-1.973h-2.191c-0.967,0-1.755-0.788-1.755-1.756V37.59
		c0-0.968,0.788-1.756,1.755-1.756h18.02c0.469-1.437,1.483-2.613,2.808-3.297c-0.78-0.399-1.651-0.649-2.588-0.649h-0.56
		c1.701-1.978,2.735-4.543,2.735-7.35c0-6.228-5.067-11.297-11.294-11.297c-6.229,0-11.296,5.069-11.296,11.297
		c0,2.807,1.035,5.372,2.735,7.35h-0.56c-3.144,0-5.702,2.558-5.702,5.702v18.738c0,3.145,2.558,5.703,5.702,5.703h0.218v20.493
		c0,3.251,1.713,5.704,3.984,5.704h9.835c2.272,0,3.984-2.453,3.984-5.704V62.031h0.218c0.937,0,1.808-0.248,2.588-0.65
		C39.55,60.697,38.536,59.52,38.067,58.084z M29.168,17.188c4.052,0,7.348,3.298,7.348,7.351c0,4.054-3.296,7.35-7.348,7.35
		c-4.053,0-7.35-3.296-7.35-7.35C21.818,20.485,25.115,17.188,29.168,17.188z"/>
	<path d="M90.645,31.888h-0.559c1.7-1.978,2.735-4.543,2.735-7.35c0-6.228-5.067-11.297-11.295-11.297
		c-6.229,0-11.296,5.069-11.296,11.297c0,2.807,1.036,5.372,2.736,7.35h-0.56c-0.989,0-1.908,0.276-2.72,0.722
		c1.264,0.693,2.227,1.842,2.68,3.233c0.015,0,0.025-0.009,0.04-0.009h18.239c0.968,0,1.756,0.788,1.756,1.756v18.738
		c0,0.968-0.788,1.756-1.756,1.756h-2.19c-1.09,0-1.974,0.883-1.974,1.973v22.468c0,0.882-0.227,1.489-0.383,1.756h-9.143
		c-0.157-0.267-0.384-0.874-0.384-1.756V60.057c0-1.09-0.882-1.973-1.973-1.973h-2.192c-0.015,0-0.025-0.008-0.04-0.009
		c-0.453,1.392-1.416,2.539-2.68,3.233c0.812,0.445,1.73,0.723,2.72,0.723h0.218v20.493c0,3.251,1.712,5.704,3.984,5.704h9.835
		c2.271,0,3.984-2.453,3.984-5.704V62.031h0.218c3.145,0,5.702-2.559,5.702-5.703V37.59C96.347,34.445,93.79,31.888,90.645,31.888z
		 M81.526,31.888c-4.053,0-7.349-3.296-7.349-7.35c0-4.053,3.296-7.351,7.349-7.351c4.052,0,7.35,3.298,7.35,7.351
		C88.875,28.592,85.578,31.888,81.526,31.888z"/>
	<path d="M70.037,56.328V37.59c0-0.612-0.123-1.193-0.302-1.747c-0.452-1.392-1.416-2.54-2.68-3.233
		c-0.813-0.445-1.73-0.722-2.72-0.722h-0.56c1.7-1.978,2.735-4.543,2.735-7.35c0-6.228-5.067-11.297-11.296-11.297
		c-6.228,0-11.295,5.069-11.295,11.297c0,2.807,1.035,5.372,2.735,7.35h-0.56c-0.937,0-1.809,0.25-2.589,0.649
		c-1.325,0.684-2.339,1.86-2.808,3.297c-0.182,0.556-0.306,1.14-0.306,1.756v18.738c0,0.617,0.124,1.2,0.306,1.756
		c0.469,1.436,1.482,2.613,2.808,3.297c0.78,0.402,1.652,0.65,2.589,0.65h0.218v20.493c0,3.251,1.712,5.704,3.984,5.704h9.836
		c2.271,0,3.984-2.453,3.984-5.704V62.031h0.218c0.99,0,1.908-0.277,2.72-0.723c1.264-0.694,2.228-1.842,2.68-3.233
		C69.914,57.521,70.037,56.942,70.037,56.328z M55.214,17.188c4.053,0,7.35,3.298,7.35,7.351c0,4.054-3.296,7.35-7.35,7.35
		c-4.052,0-7.349-3.296-7.349-7.35C47.866,20.485,51.162,17.188,55.214,17.188z M66.089,56.328c0,0.954-0.766,1.724-1.714,1.747
		c-0.015,0.001-0.026,0.009-0.041,0.009h-2.19c-1.09,0-1.975,0.883-1.975,1.973v22.468c0,0.882-0.227,1.489-0.383,1.756h-9.143
		c-0.156-0.267-0.384-0.874-0.384-1.756V60.057c0-1.09-0.883-1.973-1.973-1.973h-1.972h-0.219c-0.968,0-1.755-0.788-1.755-1.756
		V37.59c0-0.968,0.787-1.756,1.755-1.756h0.219h18.02c0.015,0,0.026,0.009,0.041,0.009c0.948,0.025,1.714,0.793,1.714,1.747V56.328z
		"/>
</g>
</svg>
