<?xml version="1.0" encoding="utf-8"?>
<!-- Generator: Adobe Illustrator 16.0.0, SVG Export Plug-In . SVG Version: 6.00 Build 0)  -->
<!DOCTYPE svg PUBLIC "-//W3C//DTD SVG 1.1//EN" "http://www.w3.org/Graphics/SVG/1.1/DTD/svg11.dtd">
<svg version="1.1" id="Layer_1" xmlns="http://www.w3.org/2000/svg" xmlns:xlink="http://www.w3.org/1999/xlink" x="0px" y="0px"
	 width="100px" height="100px" viewBox="0 0 100 100" enable-background="new 0 0 100 100" xml:space="preserve">
<path d="M70.673,50.806c0-1.386-1.124-2.509-2.509-2.509h-6.327l-4.046-8.396c-0.45-0.935-1.575-1.326-2.512-0.879
	c-0.936,0.452-1.329,1.577-0.878,2.513l3.258,6.762H46.522l3.258-6.762c0.452-0.936,0.058-2.061-0.877-2.513
	c-0.936-0.447-2.061-0.058-2.512,0.879l-4.046,8.396h-6.327c-1.386,0-2.509,1.123-2.509,2.509c0,0.779,0.362,1.467,0.92,1.927
	l3.496,21.17c0.15,0.909,0.936,1.576,1.857,1.576H64.4c0.921,0,1.707-0.667,1.856-1.576l3.496-21.17
	C70.311,52.272,70.673,51.585,70.673,50.806z M62.804,71.715H41.377l-3.038-18.4h27.503L62.804,71.715z"/>
</svg>
