<?xml version="1.0" encoding="utf-8"?>
<!-- Generator: Adobe Illustrator 16.0.0, SVG Export Plug-In . SVG Version: 6.00 Build 0)  -->
<!DOCTYPE svg PUBLIC "-//W3C//DTD SVG 1.1//EN" "http://www.w3.org/Graphics/SVG/1.1/DTD/svg11.dtd">
<svg version="1.1" id="Layer_1" xmlns="http://www.w3.org/2000/svg" xmlns:xlink="http://www.w3.org/1999/xlink" x="0px" y="0px"
	 width="100px" height="100px" viewBox="0 0 100 100" enable-background="new 0 0 100 100" xml:space="preserve">
<path d="M51,26.416c-15.42,0-27.965,12.547-27.965,27.967S35.58,82.35,51,82.35c15.419,0,27.965-12.547,27.965-27.967
	S66.419,26.416,51,26.416z M57.726,59.41h-3.264c0.286-4.707,1.822-8.572,3.264-11.236V59.41z M60.842,74.891V43.082
	c0-0.643-0.395-1.219-0.994-1.451c-0.598-0.234-1.278-0.076-1.713,0.398c-0.279,0.305-6.836,7.59-6.836,18.939
	c0,0.861,0.698,1.557,1.558,1.557h4.869v13.617c-2.127,0.658-4.385,1.016-6.726,1.016c-1.569,0-3.102-0.16-4.582-0.463L46.305,55.99
	l4.008-3.145c0.376-0.295,0.596-0.748,0.596-1.227v-8.537c0-0.861-0.698-1.559-1.558-1.559s-1.558,0.697-1.558,1.559v7.779
	l-1.509,1.184l-0.049-8.973c-0.004-0.855-0.701-1.549-1.558-1.549c-0.003,0-0.005,0-0.008,0c-0.86,0.004-1.554,0.707-1.55,1.568
	l0.05,9.029l-1.608-1.26v-7.779c0-0.861-0.698-1.559-1.558-1.559s-1.558,0.697-1.558,1.559v8.537c0,0.479,0.22,0.932,0.597,1.227
	l4.148,3.254l0.107,19.688c-8.774-3.166-15.074-11.553-15.074-21.404c0-12.563,10.217-22.777,22.778-22.777
	S73.778,41.82,73.778,54.383C73.778,63.414,68.48,71.211,60.842,74.891z"/>
</svg>
