<?xml version="1.0" encoding="utf-8"?>
<!-- Generator: Adobe Illustrator 16.0.0, SVG Export Plug-In . SVG Version: 6.00 Build 0)  -->
<!DOCTYPE svg PUBLIC "-//W3C//DTD SVG 1.1//EN" "http://www.w3.org/Graphics/SVG/1.1/DTD/svg11.dtd">
<svg version="1.1" id="Layer_1" xmlns="http://www.w3.org/2000/svg" xmlns:xlink="http://www.w3.org/1999/xlink" x="0px" y="0px"
	 width="100px" height="100px" viewBox="0 0 100 100" enable-background="new 0 0 100 100" xml:space="preserve">
<g>
	<path d="M78.672,44.73c-0.426-0.847-1.328-1.362-2.26-1.281l-2.833,0.207c-3.073-11.107-13.245-19.299-25.318-19.299
		c-14.498,0-26.293,11.796-26.293,26.293c0,14.498,11.795,26.293,26.293,26.293c8.392,0,16.351-4.06,21.29-10.859
		c0.758-1.046,0.525-2.506-0.519-3.266c-1.046-0.759-2.507-0.523-3.265,0.518c-4.063,5.593-10.607,8.933-17.507,8.933
		c-11.921,0-21.618-9.698-21.618-21.618s9.697-21.618,21.618-21.618c9.601,0,17.751,6.296,20.562,14.972l-1.475,0.108
		c-0.942,0.068-1.751,0.7-2.048,1.596c-0.298,0.898-0.024,1.886,0.69,2.504l4.244,3.665c0.413,0.665,1.143,1.11,1.981,1.11
		c0.044,0,0.085-0.01,0.128-0.012c0.014,0,0.025,0.006,0.038,0.006c0.056,0,0.113-0.001,0.171-0.006
		c0.618-0.046,1.192-0.335,1.598-0.804l4.201-4.864C78.97,46.593,79.096,45.574,78.672,44.73z"/>
	<g>
		<path d="M35.899,58.796v-2.27l2.07-1.871c3.499-3.13,5.199-4.93,5.248-6.802c0-1.307-0.788-2.341-2.638-2.341
			c-1.379,0-2.587,0.688-3.425,1.331l-1.06-2.688c1.208-0.909,3.08-1.65,5.249-1.65c3.623,0,5.619,2.119,5.619,5.027
			c0,2.686-1.946,4.831-4.263,6.9l-1.479,1.232v0.048h6.038v3.082H35.899z"/>
		<path d="M56.213,58.796v-3.821h-7.097v-2.438l6.062-9.761h4.584v9.39h1.922v2.809h-1.922v3.821H56.213z M56.213,52.166v-3.548
			c0-0.962,0.049-1.946,0.123-2.982h-0.098c-0.519,1.036-0.938,1.972-1.479,2.982l-2.144,3.499v0.049H56.213z"/>
	</g>
</g>
</svg>
