<?xml version="1.0" encoding="utf-8"?>
<!-- Generator: Adobe Illustrator 16.0.0, SVG Export Plug-In . SVG Version: 6.00 Build 0)  -->
<!DOCTYPE svg PUBLIC "-//W3C//DTD SVG 1.1//EN" "http://www.w3.org/Graphics/SVG/1.1/DTD/svg11.dtd">
<svg version="1.1" id="Layer_1" xmlns="http://www.w3.org/2000/svg" xmlns:xlink="http://www.w3.org/1999/xlink" x="0px" y="0px"
	 width="100px" height="100px" viewBox="0 0 100 100" enable-background="new 0 0 100 100" xml:space="preserve">
<g>
	<path d="M76.465,48.326c-1.433-2.859-3.285-5.435-5.505-7.653c-5.572-5.574-12.981-8.644-20.863-8.644
		c-7.881,0-15.29,3.069-20.861,8.642c-2.332,2.33-4.255,5.06-5.718,8.111c-0.285,0.594-0.279,1.287,0.017,1.877
		c1.433,2.861,3.285,5.437,5.505,7.654c5.572,5.573,12.981,8.643,20.863,8.643c7.881,0,15.291-3.069,20.862-8.643
		c2.331-2.329,4.254-5.057,5.718-8.109C76.768,49.609,76.761,48.915,76.465,48.326z M67.748,55.297
		c-4.767,4.767-11.104,7.393-17.846,7.393c-6.742,0-13.08-2.626-17.846-7.393c-1.652-1.651-3.066-3.536-4.216-5.613
		c1.185-2.236,2.666-4.249,4.412-5.996c4.767-4.767,11.104-7.392,17.845-7.392c6.742,0,13.08,2.627,17.847,7.393
		c1.651,1.652,3.066,3.538,4.216,5.614C70.975,51.539,69.494,53.551,67.748,55.297z"/>
	<polygon points="57.821,45.246 53.555,45.246 53.555,47.359 52.133,47.359 52.133,45.246 47.866,45.246 47.866,47.359 
		46.443,47.359 46.443,45.227 42.177,45.227 42.177,47.359 39.487,47.359 39.487,51.626 42.177,51.626 42.177,53.76 46.443,53.76 
		46.443,51.626 47.866,51.626 47.866,53.778 52.133,53.778 52.133,51.626 53.555,51.626 53.555,53.778 57.821,53.778 57.821,51.626 
		60.511,51.626 60.511,47.359 57.821,47.359 	"/>
</g>
</svg>
