<?xml version="1.0" encoding="utf-8"?>
<!-- Generator: Adobe Illustrator 16.0.0, SVG Export Plug-In . SVG Version: 6.00 Build 0)  -->
<!DOCTYPE svg PUBLIC "-//W3C//DTD SVG 1.1//EN" "http://www.w3.org/Graphics/SVG/1.1/DTD/svg11.dtd">
<svg version="1.1" id="Layer_1" xmlns="http://www.w3.org/2000/svg" xmlns:xlink="http://www.w3.org/1999/xlink" x="0px" y="0px"
	 width="100px" height="100px" viewBox="0 0 100 100" enable-background="new 0 0 100 100" xml:space="preserve">
<g>
	<path d="M47.438,37.438H45.69v-7.622c0-1.291-1.047-2.337-2.338-2.337H30.967c-1.291,0-2.337,1.046-2.337,2.337v7.622h-3.154
		c-1.291,0-2.338,1.047-2.338,2.337v9.451V67.87v9.449c0,1.291,1.047,2.337,2.338,2.337h21.963c1.292,0,2.338-1.047,2.338-2.337
		V39.775C49.776,38.485,48.73,37.438,47.438,37.438z M33.304,32.154h7.712v5.284h-7.712V32.154z M27.813,51.563h6.308v13.969h-6.308
		V51.563z M45.103,74.981h-17.29v-4.775h8.645c1.291,0,2.337-1.047,2.337-2.337V49.226c0-1.291-1.046-2.337-2.337-2.337h-8.645
		v-4.776h3.154h12.386h1.75V74.981z"/>
	<path d="M72.571,41.95l-18.175-7.292l18.274-8.334c0.86-0.393,1.368-1.241,1.368-2.128c0-0.324-0.068-0.654-0.212-0.968
		c-0.535-1.176-1.92-1.693-3.096-1.158L47.49,32.668c-0.021,0.009-0.034,0.026-0.055,0.035c-0.161,0.079-0.312,0.178-0.451,0.292
		c-0.036,0.03-0.073,0.058-0.107,0.09c-0.144,0.132-0.272,0.278-0.382,0.447c-0.016,0.026-0.025,0.053-0.041,0.079
		c-0.059,0.1-0.118,0.201-0.163,0.313c-0.019,0.047-0.026,0.096-0.041,0.143c-0.019,0.053-0.033,0.106-0.047,0.163
		c-0.042,0.167-0.067,0.335-0.071,0.503c-0.001,0.021-0.01,0.042-0.01,0.063c0,0.006,0.002,0.014,0.002,0.021
		c0.002,0.14,0.019,0.28,0.045,0.417c0.004,0.02,0.004,0.04,0.009,0.061c0.034,0.154,0.085,0.301,0.148,0.444
		c0.003,0.009,0.004,0.017,0.008,0.024c0.009,0.019,0.023,0.032,0.032,0.05c0.079,0.163,0.18,0.315,0.295,0.455
		c0.029,0.038,0.058,0.075,0.09,0.109c0.131,0.143,0.279,0.272,0.447,0.38c0.023,0.015,0.049,0.024,0.072,0.038
		c0.103,0.061,0.205,0.122,0.319,0.167l23.241,9.324c0.285,0.114,0.58,0.167,0.869,0.167c0.928,0,1.805-0.554,2.17-1.467
		C74.351,43.792,73.769,42.43,72.571,41.95z"/>
</g>
</svg>
