<?xml version="1.0" encoding="utf-8"?>
<!-- Generator: Adobe Illustrator 16.0.0, SVG Export Plug-In . SVG Version: 6.00 Build 0)  -->
<!DOCTYPE svg PUBLIC "-//W3C//DTD SVG 1.1//EN" "http://www.w3.org/Graphics/SVG/1.1/DTD/svg11.dtd">
<svg version="1.1" id="Layer_1" xmlns="http://www.w3.org/2000/svg" xmlns:xlink="http://www.w3.org/1999/xlink" x="0px" y="0px"
	 width="100px" height="100px" viewBox="0 0 100 100" enable-background="new 0 0 100 100" xml:space="preserve">
<path d="M82.492,33.711l-10.166,0.002h-11.03V33.71v-0.068c0-0.113-0.016-0.221-0.028-0.329c1.508-1.919,2.423-4.326,2.423-6.953
	c0-6.229-5.068-11.296-11.296-11.296c-6.229,0-11.296,5.067-11.296,11.296c0,2.623,0.912,5.025,2.417,6.945
	c-0.009,0.08-0.023,0.159-0.023,0.241v0.164v0.001L32.49,33.713l-10.166-0.002c-0.876,0.196-1.539,0.974-1.54,1.93
	c0.002,1.109,0.873,2.004,1.948,2.004l0.957-0.001h3.406h14.193h2.204v0.012v22.249v3.949v1.599v18.894
	c0,3.253,1.713,5.704,3.984,5.704h9.836c2.272,0,3.984-2.451,3.984-5.704V66.895v-3.041v-3.949V37.655v-0.011h2.231H77.72h3.406
	h0.957c1.076,0,1.945-0.895,1.949-2.004C84.031,34.685,83.367,33.907,82.492,33.711z M52.395,19.011
	c4.052,0,7.349,3.296,7.349,7.349c0,4.054-3.297,7.351-7.349,7.351s-7.35-3.297-7.35-7.351
	C45.045,22.307,48.342,19.011,52.395,19.011z M57.35,84.346c0,0.883-0.228,1.49-0.384,1.757h-2.598V64.067
	c0-1.089-0.883-1.974-1.973-1.974s-1.973,0.885-1.973,1.974v22.035h-2.599c-0.156-0.267-0.383-0.874-0.383-1.757V65.902
	c0.028-0.145,0.043-0.297,0.043-0.45V37.655h9.823v29.239c0,0.16,0.016,0.318,0.044,0.469V84.346z"/>
</svg>
