<?xml version="1.0" encoding="utf-8"?>
<!-- Generator: Adobe Illustrator 16.0.0, SVG Export Plug-In . SVG Version: 6.00 Build 0)  -->
<!DOCTYPE svg PUBLIC "-//W3C//DTD SVG 1.1//EN" "http://www.w3.org/Graphics/SVG/1.1/DTD/svg11.dtd">
<svg version="1.1" id="Layer_1" xmlns="http://www.w3.org/2000/svg" xmlns:xlink="http://www.w3.org/1999/xlink" x="0px" y="0px"
	 width="100px" height="100px" viewBox="0 0 100 100" enable-background="new 0 0 100 100" xml:space="preserve">
<path d="M77.956,35.96l-7.651-7.652c-0.353-0.353-0.832-0.551-1.331-0.551c-0.5,0-0.978,0.198-1.331,0.551L33.25,62.7
	c-0.361,0.361-0.56,0.854-0.55,1.365l0.136,7.516c0.018,1.012,0.835,1.829,1.848,1.848l7.515,0.135c0.011,0,0.023,0,0.034,0
	c0.499,0,0.978-0.198,1.331-0.552l34.393-34.391C78.69,37.886,78.69,36.695,77.956,35.96z M64.326,46.929l-4.991-4.991l2.237-2.236
	l4.99,4.99L64.326,46.929z M46.839,64.414l-4.99-4.989l14.826-14.826l4.99,4.99L46.839,64.414z M41.467,69.786l-4.901-0.088
	l-0.089-4.901l2.711-2.712l4.99,4.99L41.467,69.786z M69.224,42.03l-4.991-4.99l4.741-4.741l4.99,4.991L69.224,42.03z"/>
</svg>
