<?xml version="1.0" encoding="utf-8"?>
<!-- Generator: Adobe Illustrator 16.0.0, SVG Export Plug-In . SVG Version: 6.00 Build 0)  -->
<!DOCTYPE svg PUBLIC "-//W3C//DTD SVG 1.1//EN" "http://www.w3.org/Graphics/SVG/1.1/DTD/svg11.dtd">
<svg version="1.1" id="Layer_1" xmlns="http://www.w3.org/2000/svg" xmlns:xlink="http://www.w3.org/1999/xlink" x="0px" y="0px"
	 width="100px" height="100px" viewBox="0 0 100 100" enable-background="new 0 0 100 100" xml:space="preserve">
<path d="M75.161,48.515c0-14.872-12.098-26.97-26.969-26.97c-14.87,0-26.968,12.098-26.968,26.97
	c0,14.868,12.098,26.967,26.968,26.967C63.063,75.481,75.161,63.383,75.161,48.515z M25.171,48.515
	c0-12.036,9.286-21.927,21.066-22.925v21.995l-1.336-1.336c-0.833-0.833-2.184-0.833-3.017,0c-0.417,0.417-0.625,0.963-0.625,1.509
	c0,0.545,0.208,1.092,0.625,1.508l4.976,4.977c0.001,0,0.002,0.003,0.002,0.003l1.507,1.507l1.507-1.507
	c0,0,0.001-0.003,0.002-0.003l5.332-5.332c0.833-0.833,0.833-2.184,0-3.017c-0.833-0.833-2.184-0.833-3.017,0l-1.691,1.691V25.609
	c11.612,1.161,20.711,10.988,20.711,22.905c0,12.693-10.329,23.021-23.023,23.021C35.499,71.536,25.171,61.208,25.171,48.515z"/>
</svg>
