<?xml version="1.0" encoding="utf-8"?>
<!-- Generator: Adobe Illustrator 16.0.0, SVG Export Plug-In . SVG Version: 6.00 Build 0)  -->
<!DOCTYPE svg PUBLIC "-//W3C//DTD SVG 1.1//EN" "http://www.w3.org/Graphics/SVG/1.1/DTD/svg11.dtd">
<svg version="1.1" id="Layer_1" xmlns="http://www.w3.org/2000/svg" xmlns:xlink="http://www.w3.org/1999/xlink" x="0px" y="0px"
	 width="100px" height="100px" viewBox="0 0 100 100" enable-background="new 0 0 100 100" xml:space="preserve">
<g>
	<path d="M59.776,45.81c-1.641-1.638-3.507-3.013-5.395-3.976c-1.104-0.563-2.456-0.126-3.019,0.979
		c-0.563,1.104-0.126,2.456,0.979,3.019c1.475,0.752,2.947,1.842,4.26,3.153c1.952,1.952,3.407,4.271,3.988,6.361
		c0.463,1.648,0.347,2.972-0.313,3.632L40.952,78.304c-1.49,1.49-6.082,0.236-9.991-3.675c-3.913-3.913-5.167-8.503-3.677-9.994
		l7.018-7.019c0.877-0.876,0.877-2.297,0-3.173c-0.876-0.876-2.298-0.876-3.173,0l-7.018,7.019
		c-3.55,3.549-1.938,10.727,3.675,16.34c3.602,3.602,7.848,5.557,11.365,5.557c1.964,0,3.703-0.609,4.974-1.882L63.45,62.151
		c1.866-1.866,2.387-4.71,1.466-8.012C64.118,51.286,62.295,48.328,59.776,45.81z"/>
	<path d="M74.185,31.402c-2.519-2.518-5.476-4.342-8.328-5.139c-3.301-0.92-6.147-0.4-8.012,1.465L38.519,47.053
		c-1.865,1.866-2.386,4.712-1.463,8.014c0.795,2.852,2.621,5.809,5.138,8.327c1.64,1.639,3.507,3.016,5.396,3.979
		c0.326,0.167,0.674,0.245,1.019,0.245c0.815,0,1.604-0.447,2.001-1.224c0.563-1.104,0.123-2.456-0.98-3.019
		c-1.477-0.752-2.949-1.844-4.261-3.155c-1.952-1.952-3.405-4.269-3.989-6.36c-0.46-1.648-0.344-2.973,0.316-3.634l19.324-19.324
		c0.66-0.659,1.983-0.776,3.632-0.314c2.091,0.583,4.409,2.037,6.361,3.987c3.909,3.911,5.165,8.503,3.675,9.995l-7.018,7.018
		c-0.877,0.877-0.877,2.297,0,3.173c0.877,0.877,2.297,0.877,3.174,0l7.019-7.017C81.41,44.192,79.796,37.014,74.185,31.402z"/>
</g>
</svg>
