<?xml version="1.0" encoding="utf-8"?>
<!-- Generator: Adobe Illustrator 16.0.0, SVG Export Plug-In . SVG Version: 6.00 Build 0)  -->
<!DOCTYPE svg PUBLIC "-//W3C//DTD SVG 1.1//EN" "http://www.w3.org/Graphics/SVG/1.1/DTD/svg11.dtd">
<svg version="1.1" id="Layer_1" xmlns="http://www.w3.org/2000/svg" xmlns:xlink="http://www.w3.org/1999/xlink" x="0px" y="0px"
	 width="100px" height="100px" viewBox="0 0 100 100" enable-background="new 0 0 100 100" xml:space="preserve">
<path d="M76.166,41.655L51.142,27.647c-0.71-0.398-1.573-0.398-2.282,0L23.833,41.655c-0.761,0.424-1.22,1.236-1.195,2.105
	c0.025,0.871,0.532,1.654,1.315,2.034l7.639,3.715v15.307c0,1.29,1.046,2.337,2.337,2.337h5.767v5.24
	c0,0.861,0.697,1.559,1.558,1.559s1.558-0.697,1.558-1.559v-5.24h23.263c1.291,0,2.337-1.047,2.337-2.337V49.508l7.637-3.713
	c0.783-0.38,1.29-1.163,1.314-2.034C77.387,42.892,76.927,42.079,76.166,41.655z M36.266,62.479V51.782l3.43,1.668v9.029H36.266z
	 M63.736,51.782v10.697H42.811v-7.516l6.168,3c0.322,0.156,0.672,0.235,1.021,0.235s0.699-0.079,1.021-0.235L63.736,51.782z
	 M50,53.263l-6.064-2.948l7.106-6.38c0.64-0.575,0.693-1.56,0.118-2.2c-0.574-0.641-1.56-0.697-2.199-0.119l-8.051,7.228
	L30.02,43.548L50,32.364l19.98,11.184L50,53.263z"/>
</svg>
