<?xml version="1.0" encoding="utf-8"?>
<!-- Generator: Adobe Illustrator 16.0.0, SVG Export Plug-In . SVG Version: 6.00 Build 0)  -->
<!DOCTYPE svg PUBLIC "-//W3C//DTD SVG 1.1//EN" "http://www.w3.org/Graphics/SVG/1.1/DTD/svg11.dtd">
<svg version="1.1" id="Layer_1" xmlns="http://www.w3.org/2000/svg" xmlns:xlink="http://www.w3.org/1999/xlink" x="0px" y="0px"
	 width="100px" height="100px" viewBox="0 0 100 100" enable-background="new 0 0 100 100" xml:space="preserve">
<path d="M78.85,39.674l0.024-0.038L68.157,28.069H38.884l-9.879,11.247l-0.657,0.756l0.058,0.056
	c-0.816,1.259-1.258,2.732-1.258,4.238v13.287c0,4.3,3.5,7.799,7.801,7.799h37.683c4.301,0,7.8-3.499,7.8-7.799V44.366
	C80.431,42.662,79.875,41.023,78.85,39.674z M66.343,32.223l4.025,4.343H59.452v4.095c0,2.294-2.285,2.638-3.647,2.638h-4.032
	c-1.362,0-3.647-0.344-3.647-2.638v-4.095H36.948l3.816-4.343H66.343z M31.3,44.366c0-2.012,1.636-3.647,3.648-3.647h9.025
	c0.03,4.029,3.156,6.731,7.8,6.731h4.032c4.643,0,7.77-2.702,7.8-6.731h9.026c0.954,0,1.854,0.366,2.54,1.032l0.038,0.04
	c0.688,0.688,1.068,1.604,1.068,2.575v13.287c0,2.011-1.636,3.646-3.646,3.646H34.948c-2.012,0-3.648-1.635-3.648-3.646V44.366z"/>
</svg>
