<?xml version="1.0" encoding="utf-8"?>
<!-- Generator: Adobe Illustrator 16.0.0, SVG Export Plug-In . SVG Version: 6.00 Build 0)  -->
<!DOCTYPE svg PUBLIC "-//W3C//DTD SVG 1.1//EN" "http://www.w3.org/Graphics/SVG/1.1/DTD/svg11.dtd">
<svg version="1.1" id="Layer_1" xmlns="http://www.w3.org/2000/svg" xmlns:xlink="http://www.w3.org/1999/xlink" x="0px" y="0px"
	 width="100px" height="100px" viewBox="0 0 100 100" enable-background="new 0 0 100 100" xml:space="preserve">
<g>
	<path d="M64.355,30.046h-6.154c-1.059,0-1.916,0.858-1.916,1.916c0,1.058,0.857,1.916,1.916,1.916h6.154
		c0.939,0,1.705,0.765,1.705,1.705v8.249h-7.436v-3.576c0-1.058-0.857-1.916-1.914-1.916c-1.059,0-1.916,0.858-1.916,1.916v3.576
		h-0.852c-1.059,0-1.916,0.858-1.916,1.916s0.857,1.916,1.916,1.916h0.852v9.199H43.941v-9.199h0.643
		c1.059,0,1.916-0.858,1.916-1.916s-0.857-1.916-1.916-1.916h-0.643v-3.576c0-1.058-0.857-1.916-1.916-1.916
		s-1.916,0.858-1.916,1.916v3.576h-7.643v-8.249c0-0.94,0.766-1.705,1.705-1.705h6.789c1.059,0,1.916-0.858,1.916-1.916
		c0-1.057-0.857-1.916-1.916-1.916h-6.789c-3.053,0-5.535,2.483-5.535,5.536v30.184c0,3.053,2.482,5.536,5.535,5.536h30.184
		c3.053,0,5.535-2.483,5.535-5.536V35.582C69.891,32.529,67.408,30.046,64.355,30.046z M58.625,47.662h7.436v9.199h-7.436V47.662z
		 M54.795,60.692v6.779H43.941v-6.779H54.795z M40.109,47.662v9.199h-7.643v-9.199H40.109z M32.467,65.766v-5.074h7.643v6.779
		h-5.938C33.232,67.471,32.467,66.707,32.467,65.766z M64.355,67.471h-5.73v-6.779h7.436v5.074
		C66.061,66.707,65.295,67.471,64.355,67.471z"/>
	<path d="M47.35,40.977v9.698c0,1.057,0.857,1.916,1.914,1.916c1.059,0,1.916-0.858,1.916-1.916v-9.701
		c2.344-0.8,4.041-2.998,4.041-5.614c0-3.291-2.668-5.958-5.959-5.958s-5.959,2.667-5.959,5.958
		C43.303,37.978,45.002,40.176,47.35,40.977z"/>
</g>
</svg>
