<?xml version="1.0" encoding="utf-8"?>
<!-- Generator: Adobe Illustrator 16.0.0, SVG Export Plug-In . SVG Version: 6.00 Build 0)  -->
<!DOCTYPE svg PUBLIC "-//W3C//DTD SVG 1.1//EN" "http://www.w3.org/Graphics/SVG/1.1/DTD/svg11.dtd">
<svg version="1.1" id="Layer_1" xmlns="http://www.w3.org/2000/svg" xmlns:xlink="http://www.w3.org/1999/xlink" x="0px" y="0px"
	 width="100px" height="100px" viewBox="0 0 100 100" enable-background="new 0 0 100 100" xml:space="preserve">
<g>
	<path d="M80.519,34.503c-0.154-0.504-0.561-0.891-1.071-1.018c-0.511-0.13-1.052,0.022-1.424,0.395l-2.042,2.042
		c-0.06,0.059-0.113,0.123-0.162,0.19c-0.244,0.344-0.496,0.645-0.77,0.918l-1.414,1.414c-1.369,1.369-3.189,2.123-5.127,2.123
		c-1.936,0-3.757-0.754-5.126-2.123c-2.827-2.827-2.827-7.427,0-10.254l4.431-4.43c0.374-0.374,0.523-0.919,0.393-1.432
		c-0.131-0.514-0.523-0.92-1.031-1.068c-1.24-0.363-2.523-0.547-3.816-0.547c-3.599,0-6.98,1.399-9.521,3.941l-3.535,3.535
		c-4.189,4.188-5.115,10.671-2.399,15.834L24.175,67.751c-2.729,2.729-2.729,7.171,0.001,9.9c1.321,1.322,3.079,2.05,4.949,2.05
		s3.628-0.728,4.95-2.05l23.727-23.726c1.932,1.018,4.084,1.551,6.293,1.551l0,0c3.604,0,6.992-1.403,9.541-3.951l3.535-3.536
		C80.698,44.462,81.981,39.294,80.519,34.503z M75.05,45.868l-3.535,3.536c-1.982,1.981-4.617,3.073-7.42,3.072
		c-2.041,0-4.018-0.584-5.718-1.688c-0.595-0.387-1.378-0.304-1.878,0.197L31.954,75.53c-1.512,1.51-4.146,1.51-5.657,0
		c-1.56-1.56-1.56-4.098,0-5.658l24.545-24.545c0.501-0.501,0.583-1.284,0.197-1.878c-2.683-4.127-2.101-9.652,1.384-13.138
		l3.535-3.535c1.975-1.975,4.604-3.063,7.4-3.063c0.086,0,0.17,0.001,0.256,0.003l-2.353,2.353c-3.997,3.996-3.997,10.499,0,14.496
		c1.936,1.936,4.51,3.002,7.247,3.002c2.738,0,5.313-1.066,7.248-3.002l1.416-1.415c0.327-0.328,0.64-0.69,0.932-1.08
		C78.214,40.948,77.139,43.779,75.05,45.868z"/>
	<circle cx="29.707" cy="72.12" r="1.875"/>
</g>
</svg>
