<?xml version="1.0" encoding="utf-8"?>
<!-- Generator: Adobe Illustrator 16.0.0, SVG Export Plug-In . SVG Version: 6.00 Build 0)  -->
<!DOCTYPE svg PUBLIC "-//W3C//DTD SVG 1.1//EN" "http://www.w3.org/Graphics/SVG/1.1/DTD/svg11.dtd">
<svg version="1.1" id="Layer_1" xmlns="http://www.w3.org/2000/svg" xmlns:xlink="http://www.w3.org/1999/xlink" x="0px" y="0px"
	 width="100px" height="100px" viewBox="0 0 100 100" enable-background="new 0 0 100 100" xml:space="preserve">
<path d="M80.355,36.744l-7.667-9c-0.38-0.445-0.937-0.703-1.522-0.703h-13.25v-3.377c0-1.104-0.896-2-2-2h-6.083
	c-1.104,0-2,0.896-2,2v3.377h-17c-1.104,0-2,0.896-2,2v18c0,1.105,0.896,2,2,2h16.958v26c0,1.105,0.896,2,2,2h6.083
	c1.104,0,2-0.895,2-2v-26h13.292c0.586,0,1.143-0.256,1.522-0.703l7.667-9C80.992,38.592,80.992,37.492,80.355,36.744z
	 M53.874,73.041h-2.083V49.52h2.083V73.041z M51.833,25.664h2.083v1.377h-2.083V25.664z M70.243,45.041h-37.41v-14h17h6.083h14.327
	l5.962,7L70.243,45.041z"/>
</svg>
