<?xml version="1.0" encoding="utf-8"?>
<!-- Generator: Adobe Illustrator 16.0.0, SVG Export Plug-In . SVG Version: 6.00 Build 0)  -->
<!DOCTYPE svg PUBLIC "-//W3C//DTD SVG 1.1//EN" "http://www.w3.org/Graphics/SVG/1.1/DTD/svg11.dtd">
<svg version="1.1" id="Layer_1" xmlns="http://www.w3.org/2000/svg" xmlns:xlink="http://www.w3.org/1999/xlink" x="0px" y="0px"
	 width="100px" height="100px" viewBox="0 0 100 100" enable-background="new 0 0 100 100" xml:space="preserve">
<g>
	<path d="M50.395,76.368c-0.497,0-0.984-0.097-1.445-0.287c-1.425-0.585-2.347-1.962-2.347-3.506V60.537l-3.668,4.199
		c-1.327,1.516-3.835,1.685-5.35,0.361c-0.764-0.667-1.222-1.59-1.29-2.603c-0.068-1.011,0.262-1.987,0.928-2.75l7.971-9.123
		l-7.779-7.684c-1.488-1.473-1.502-3.879-0.031-5.365c1.424-1.439,3.918-1.455,5.36-0.034l3.859,3.813V25.102
		c0-1.566,0.983-2.991,2.448-3.546c1.436-0.545,3.156-0.127,4.184,1.033L65.748,36.73c1.381,1.559,1.24,3.955-0.313,5.341
		L56.343,50.2l8.866,6.765c0.867,0.663,1.406,1.666,1.482,2.754c0.074,1.091-0.325,2.16-1.093,2.934L53.084,75.25
		C52.367,75.97,51.412,76.368,50.395,76.368z M49.595,52.565v20.009c0,0.326,0.194,0.617,0.494,0.739
		c0.305,0.124,0.649,0.05,0.874-0.174l12.512-12.596c0.162-0.164,0.247-0.39,0.232-0.621c-0.017-0.228-0.131-0.441-0.314-0.582
		l-11.744-8.96l11.793-10.541c0.328-0.293,0.357-0.797,0.066-1.126L50.994,24.573c-0.217-0.246-0.576-0.339-0.88-0.219
		c-0.312,0.119-0.52,0.418-0.52,0.748v23.414l-8.953-8.847c-0.304-0.298-0.83-0.295-1.132,0.009
		c-0.311,0.314-0.307,0.821,0.008,1.132l9.781,9.661l-9.822,11.243c-0.141,0.161-0.21,0.367-0.196,0.581
		c0.015,0.213,0.111,0.408,0.271,0.547c0.188,0.164,0.39,0.198,0.526,0.198c0.136,0,0.396-0.035,0.605-0.274L49.595,52.565z
		 M51.195,70.636V52.048l10.503,8.014L51.195,70.636z M54.188,58.094v5.283l2.984-3.005L54.188,58.094z M51.195,48.643V27.214
		l10.586,11.962L51.195,48.643z M54.188,35.11v6.844l3.381-3.023L54.188,35.11z"/>
</g>
</svg>
