<?xml version="1.0" encoding="utf-8"?>
<!-- Generator: Adobe Illustrator 16.0.0, SVG Export Plug-In . SVG Version: 6.00 Build 0)  -->
<!DOCTYPE svg PUBLIC "-//W3C//DTD SVG 1.1//EN" "http://www.w3.org/Graphics/SVG/1.1/DTD/svg11.dtd">
<svg version="1.1" id="Layer_1" xmlns="http://www.w3.org/2000/svg" xmlns:xlink="http://www.w3.org/1999/xlink" x="0px" y="0px"
	 width="100px" height="100px" viewBox="0 0 100 100" enable-background="new 0 0 100 100" xml:space="preserve">
<g>
	<path d="M71.657,50.352c0-12.637-10.282-22.92-22.919-22.92c-12.639,0-22.919,10.283-22.919,22.92s10.28,22.92,22.919,22.92
		c4.652,0,8.98-1.403,12.599-3.794c0.104,0.009,0.205,0.031,0.312,0.031c2.004,0,3.629-1.548,3.789-3.511
		C69.282,61.897,71.657,56.402,71.657,50.352z M30.069,50.352c0-10.295,8.374-18.668,18.669-18.668
		c10.294,0,18.666,8.373,18.666,18.668c0,4.487-1.591,8.607-4.239,11.829c-0.465-0.202-0.977-0.317-1.517-0.317
		c-2.11,0-3.821,1.711-3.821,3.822c0,0.307,0.045,0.6,0.112,0.885c-2.719,1.549-5.854,2.445-9.201,2.445
		C38.443,69.017,30.069,60.645,30.069,50.352z"/>
	<path d="M57.667,43.096c0.093-0.332,0.16-0.674,0.16-1.036c0-2.111-1.711-3.822-3.82-3.822c-0.962,0-1.828,0.367-2.499,0.952
		c-0.891-0.221-1.813-0.351-2.77-0.351c-6.349,0-11.514,5.163-11.514,11.513c0,0.758,0.078,1.497,0.219,2.213
		c-0.89,0.7-1.473,1.774-1.473,2.994c0,2.111,1.712,3.822,3.822,3.822c0.521,0,1.016-0.106,1.467-0.294
		c2.014,1.727,4.624,2.777,7.479,2.777c6.349,0,11.512-5.165,11.512-11.512C60.25,47.602,59.279,45.078,57.667,43.096z
		 M48.738,58.569c-2.017,0-3.862-0.732-5.294-1.941c0.1-0.342,0.17-0.695,0.17-1.069c0-1.811-1.263-3.32-2.953-3.714
		c-0.09-0.485-0.143-0.982-0.143-1.494c0-4.532,3.687-8.218,8.22-8.218c0.501,0,0.989,0.052,1.468,0.138
		c0.111,2.01,1.762,3.61,3.801,3.61c0.504,0,0.983-0.104,1.425-0.282c0.957,1.343,1.525,2.98,1.525,4.751
		C56.957,54.883,53.27,58.569,48.738,58.569z"/>
	<circle cx="48.738" cy="50.352" r="3.822"/>
</g>
</svg>
