<?xml version="1.0" encoding="utf-8"?>
<!-- Generator: Adobe Illustrator 16.0.0, SVG Export Plug-In . SVG Version: 6.00 Build 0)  -->
<!DOCTYPE svg PUBLIC "-//W3C//DTD SVG 1.1//EN" "http://www.w3.org/Graphics/SVG/1.1/DTD/svg11.dtd">
<svg version="1.1" id="Layer_1" xmlns="http://www.w3.org/2000/svg" xmlns:xlink="http://www.w3.org/1999/xlink" x="0px" y="0px"
	 width="100px" height="100px" viewBox="0 0 100 100" enable-background="new 0 0 100 100" xml:space="preserve">
<g>
	<path d="M74.908,64.455L53.48,43.025l6.571-6.662c0.452-0.458,0.638-1.116,0.494-1.742c-0.144-0.627-0.598-1.138-1.204-1.353
		l-12.697-4.51c-0.685-0.243-1.451-0.071-1.965,0.447L29.906,44.093c-0.354,0.357-0.552,0.844-0.546,1.348s0.214,0.984,0.577,1.334
		l8.848,8.505c0.364,0.35,0.834,0.525,1.304,0.525c0.486,0,0.972-0.188,1.34-0.561l4.441-4.502l21.375,21.376
		c0.367,0.367,0.849,0.551,1.33,0.551s0.963-0.184,1.33-0.551l5.003-5.002c0.354-0.354,0.552-0.832,0.552-1.331
		C75.46,65.287,75.262,64.808,74.908,64.455z M40.055,51.279l-6.13-5.894L46.51,32.704l8.786,3.121L40.055,51.279z M68.575,68.127
		L48.524,48.074l2.342-2.342l20.05,20.053L68.575,68.127z"/>
</g>
</svg>
