<?xml version="1.0" encoding="utf-8"?>
<!-- Generator: Adobe Illustrator 16.0.0, SVG Export Plug-In . SVG Version: 6.00 Build 0)  -->
<!DOCTYPE svg PUBLIC "-//W3C//DTD SVG 1.1//EN" "http://www.w3.org/Graphics/SVG/1.1/DTD/svg11.dtd">
<svg version="1.1" id="Layer_1" xmlns="http://www.w3.org/2000/svg" xmlns:xlink="http://www.w3.org/1999/xlink" x="0px" y="0px"
	 width="100px" height="100px" viewBox="0 0 100 100" enable-background="new 0 0 100 100" xml:space="preserve">
<path d="M59.119,31.874h-0.559c1.699-1.98,2.735-4.544,2.735-7.351c0-6.229-5.067-11.297-11.296-11.297s-11.295,5.067-11.295,11.297
	c0,2.807,1.035,5.37,2.734,7.351h-0.56c-3.144,0-5.702,2.556-5.702,5.702v18.736c0,3.146,2.559,5.702,5.702,5.702h0.218V82.51
	c0,3.251,1.713,5.702,3.984,5.702h9.836c2.271,0,3.983-2.451,3.983-5.702V62.015h0.218c3.145,0,5.703-2.557,5.703-5.702V37.576
	C64.822,34.43,62.264,31.874,59.119,31.874z M42.65,24.523c0-4.055,3.297-7.352,7.35-7.352s7.35,3.297,7.35,7.352
	c0,4.054-3.297,7.351-7.35,7.351S42.65,28.577,42.65,24.523z M60.875,56.313c0,0.969-0.788,1.756-1.756,1.756h-2.19
	c-1.091,0-1.974,0.885-1.974,1.975V82.51c0,0.883-0.228,1.487-0.383,1.756h-9.145c-0.154-0.269-0.383-0.873-0.383-1.756V60.043
	c0-1.09-0.883-1.975-1.973-1.975H40.88c-0.968,0-1.755-0.787-1.755-1.756V37.576c0-0.969,0.787-1.757,1.755-1.757h18.239
	c0.968,0,1.756,0.788,1.756,1.757V56.313z"/>
</svg>
