<?xml version="1.0" encoding="utf-8"?>
<!-- Generator: Adobe Illustrator 16.0.0, SVG Export Plug-In . SVG Version: 6.00 Build 0)  -->
<!DOCTYPE svg PUBLIC "-//W3C//DTD SVG 1.1//EN" "http://www.w3.org/Graphics/SVG/1.1/DTD/svg11.dtd">
<svg version="1.1" id="Layer_1" xmlns="http://www.w3.org/2000/svg" xmlns:xlink="http://www.w3.org/1999/xlink" x="0px" y="0px"
	 width="100px" height="100px" viewBox="0 0 100 100" enable-background="new 0 0 100 100" xml:space="preserve">
<g>
	<path d="M66.917,51.646c3.226,0,6.259-1.259,8.542-3.541c3.551-3.55,4.531-9.013,2.437-13.596c-0.3-0.648-0.899-1.112-1.615-1.243
		c-0.125-0.021-0.25-0.031-0.375-0.031c-0.584,0-1.134,0.227-1.55,0.641l-3.553,3.556l-1.658-0.128l-0.128-1.658l3.551-3.554
		c0.508-0.503,0.736-1.229,0.609-1.941c-0.128-0.706-0.594-1.305-1.245-1.602c-1.572-0.719-3.317-1.098-5.047-1.098
		c-3.226,0-6.26,1.256-8.544,3.537c-3.181,3.183-4.322,7.743-3.038,12.008l-1.594,1.594L37.203,28.085
		c-0.706-0.706-1.955-0.706-2.661,0l-5.603,5.604c-0.735,0.735-0.735,1.926,0,2.661l16.504,16.505L34.088,64.208
		c-1.944,1.946-1.959,5.093-0.036,7.021l1.165,1.165c0.926,0.926,2.162,1.436,3.478,1.436c1.335,0,2.592-0.521,3.542-1.469
		l14.59-14.591L73.63,73.317c0.368,0.367,0.849,0.551,1.331,0.551s0.963-0.184,1.331-0.551c0.735-0.735,0.735-1.926,0-2.661
		L59.489,55.108l3.964-3.965C64.574,51.476,65.736,51.646,66.917,51.646z M32.931,35.019l2.942-2.942l15.174,15.175l-2.942,2.942
		L32.931,35.019z M61.345,47.057L49.494,58.908h-0.009L39.133,69.259c-0.123,0.121-0.276,0.186-0.444,0.186
		c-0.146,0-0.276-0.052-0.373-0.148l-1.165-1.165c-0.215-0.216-0.196-0.582,0.04-0.819l10.118-10.117l0.231-0.238L59.396,45.1
		c0.639-0.647,0.816-1.601,0.449-2.429c-1.301-2.946-0.675-6.316,1.595-8.584c1.393-1.395,3.228-2.188,5.191-2.251l-1.421,1.421
		c-0.456,0.454-0.688,1.08-0.639,1.722l0.349,4.533c0.084,1.081,0.93,1.93,2.017,2.017l4.514,0.347
		c0.062,0.006,0.124,0.009,0.187,0.009c0.575,0,1.14-0.234,1.551-0.644l1.418-1.419c-0.066,1.938-0.856,3.798-2.244,5.186
		c-1.455,1.456-3.39,2.257-5.447,2.257c-1.091-0.001-2.146-0.224-3.133-0.66c-0.282-0.124-0.581-0.188-0.889-0.188
		C62.308,46.415,61.757,46.644,61.345,47.057z"/>
</g>
</svg>
