<?xml version="1.0" encoding="utf-8"?>
<!-- Generator: Adobe Illustrator 16.0.0, SVG Export Plug-In . SVG Version: 6.00 Build 0)  -->
<!DOCTYPE svg PUBLIC "-//W3C//DTD SVG 1.1//EN" "http://www.w3.org/Graphics/SVG/1.1/DTD/svg11.dtd">
<svg version="1.1" id="Layer_1" xmlns="http://www.w3.org/2000/svg" xmlns:xlink="http://www.w3.org/1999/xlink" x="0px" y="0px"
	 width="100px" height="100px" viewBox="0 0 100 100" enable-background="new 0 0 100 100" xml:space="preserve">
<path d="M67.071,60.6c-4.424-7.486-5.953-11.582-6-14.521c0.002-0.031,0.009-0.061,0.009-0.092c0-0.037-0.008-0.072-0.011-0.107
	c0.015-2.246,0.906-3.822,2.014-5.777c5.359-9.453,2.259-15.119,2.124-15.355c-0.153-0.27-0.385-0.484-0.665-0.615
	c-0.693-0.326-1.408-0.561-2.135-0.713v-4.182c0-0.828-0.671-1.5-1.5-1.5s-1.5,0.672-1.5,1.5v4.049
	c-3.383,0.373-6.161,2.398-7.629,3.717c-1.398-1.256-3.982-3.162-7.147-3.664v-4.102c0-0.828-0.671-1.5-1.5-1.5s-1.5,0.672-1.5,1.5
	v4.1c-0.894,0.141-1.771,0.396-2.616,0.795c-0.28,0.131-0.512,0.346-0.665,0.615c-0.135,0.236-3.235,5.902,2.124,15.355
	c1.117,1.969,2.014,3.555,2.016,5.828c-0.001,0.02-0.006,0.037-0.006,0.057c0,0.014,0.004,0.029,0.004,0.043
	c-0.031,2.943-1.553,7.043-6.001,14.568c-3.554,6.014-5.01,12.559-4.582,20.594c0.042,0.797,0.701,1.42,1.498,1.42h36.75
	c0.797,0,1.456-0.623,1.498-1.42C72.081,73.156,70.625,66.611,67.071,60.6z M40.785,26.637c0.748-0.285,1.521-0.428,2.305-0.428
	c4.105,0,7.526,3.85,7.558,3.887c0.57,0.656,1.695,0.656,2.266,0c0.034-0.039,3.422-3.887,7.558-3.887
	c0.782,0,1.552,0.143,2.297,0.424c0.447,1.268,1.404,5.469-2.293,11.99c-1.143,2.016-2.035,3.773-2.319,5.863H45.404
	c-0.284-2.09-1.176-3.848-2.319-5.863C39.351,32.035,40.321,27.898,40.785,26.637z M68.711,79.611H34.848
	c-0.204-8.887,2.286-14.209,4.223-17.486c4.075-6.895,5.888-11.297,6.321-14.639h12.774c0.434,3.342,2.247,7.744,6.321,14.639
	C66.426,65.402,68.916,70.725,68.711,79.611z"/>
</svg>
