<?xml version="1.0" encoding="utf-8"?>
<!-- Generator: Adobe Illustrator 16.0.0, SVG Export Plug-In . SVG Version: 6.00 Build 0)  -->
<!DOCTYPE svg PUBLIC "-//W3C//DTD SVG 1.1//EN" "http://www.w3.org/Graphics/SVG/1.1/DTD/svg11.dtd">
<svg version="1.1" id="Layer_1" xmlns="http://www.w3.org/2000/svg" xmlns:xlink="http://www.w3.org/1999/xlink" x="0px" y="0px"
	 width="100px" height="100px" viewBox="0 0 100 100" enable-background="new 0 0 100 100" xml:space="preserve">
<g>
	<path d="M69.304,25.409c-3.509,0-6.452,2.331-7.454,5.514h-9.389c-1.291,0-2.336,1.046-2.336,2.337l-0.002,10.599
		c-3.182,1.001-5.512,3.946-5.512,7.454c0,3.509,2.33,6.453,5.512,7.455v8.134l-7.724,0.003c-1.002-3.184-3.945-5.514-7.455-5.514
		c-4.328,0-7.85,3.521-7.85,7.851c0,4.327,3.521,7.849,7.85,7.849c3.51,0,6.454-2.33,7.455-5.512l10.062-0.002
		c1.291,0,2.337-1.047,2.337-2.338V58.769c3.183-1.002,5.514-3.946,5.514-7.455c0-3.508-2.331-6.453-5.514-7.454l0.001-8.262h7.051
		c1.002,3.182,3.945,5.511,7.454,5.511c4.329,0,7.851-3.521,7.851-7.848C77.154,28.932,73.633,25.409,69.304,25.409z M34.944,72.417
		c-1.751,0-3.176-1.425-3.176-3.175c0-1.751,1.425-3.177,3.176-3.177s3.176,1.426,3.176,3.177
		C38.12,70.992,36.695,72.417,34.944,72.417z M52.461,54.489c-1.752,0-3.176-1.424-3.176-3.176c0-1.751,1.424-3.176,3.176-3.176
		s3.176,1.425,3.176,3.176C55.637,53.065,54.213,54.489,52.461,54.489z M69.304,36.435c-1.751,0-3.175-1.424-3.175-3.174
		c0-1.751,1.424-3.177,3.175-3.177s3.177,1.426,3.177,3.177C72.48,35.01,71.055,36.435,69.304,36.435z"/>
</g>
</svg>
