<?xml version="1.0" encoding="utf-8"?>
<!-- Generator: Adobe Illustrator 16.0.0, SVG Export Plug-In . SVG Version: 6.00 Build 0)  -->
<!DOCTYPE svg PUBLIC "-//W3C//DTD SVG 1.1//EN" "http://www.w3.org/Graphics/SVG/1.1/DTD/svg11.dtd">
<svg version="1.1" id="Layer_1" xmlns="http://www.w3.org/2000/svg" xmlns:xlink="http://www.w3.org/1999/xlink" x="0px" y="0px"
	 width="100px" height="100px" viewBox="0 0 100 100" enable-background="new 0 0 100 100" xml:space="preserve">
<g>
	<path d="M74.692,45.786L55.802,26.896c-0.653-0.653-1.779-0.587-2.514,0.148L27.722,52.61c-0.734,0.734-0.801,1.859-0.148,2.513
		l18.891,18.892c0.223,0.223,0.507,0.33,0.805,0.388c0.33,0.291,0.76,0.472,1.234,0.472h22.832c1.039,0,1.882-0.843,1.882-1.882
		c0-1.038-0.843-1.882-1.882-1.882H51.732l22.812-22.812C75.278,47.564,75.345,46.439,74.692,45.786z M56.628,61.485L40.103,44.96
		l-2.66,2.66l16.525,16.526l-6.025,6.023L31.417,53.645L54.322,30.74l16.526,16.525L56.628,61.485z"/>
</g>
</svg>
