<?xml version="1.0" encoding="utf-8"?>
<!-- Generator: Adobe Illustrator 16.0.0, SVG Export Plug-In . SVG Version: 6.00 Build 0)  -->
<!DOCTYPE svg PUBLIC "-//W3C//DTD SVG 1.1//EN" "http://www.w3.org/Graphics/SVG/1.1/DTD/svg11.dtd">
<svg version="1.1" id="Layer_1" xmlns="http://www.w3.org/2000/svg" xmlns:xlink="http://www.w3.org/1999/xlink" x="0px" y="0px"
	 width="100px" height="100px" viewBox="0 0 100 100" enable-background="new 0 0 100 100" xml:space="preserve">
<g>
	<g>
		<path d="M55.977,30.954v4.385c7.653,2.332,13.238,9.451,13.238,17.857c0,10.293-8.373,18.667-18.667,18.667
			S31.88,63.489,31.88,53.196c0-8.405,5.585-15.525,13.238-17.857v-4.385c-10.021,2.448-17.489,11.479-17.489,22.242
			c0,12.639,10.281,22.92,22.919,22.92c12.637,0,22.92-10.282,22.92-22.92C73.468,42.432,65.998,33.402,55.977,30.954z"/>
	</g>
	<g>
		<path d="M50.55,53.791c-1.41,0-2.554-1.144-2.554-2.554V29.121c0-1.41,1.144-2.554,2.554-2.554s2.554,1.144,2.554,2.554v22.116
			C53.104,52.647,51.96,53.791,50.55,53.791z"/>
	</g>
</g>
</svg>
