<?xml version="1.0" encoding="utf-8"?>
<!-- Generator: Adobe Illustrator 16.0.0, SVG Export Plug-In . SVG Version: 6.00 Build 0)  -->
<!DOCTYPE svg PUBLIC "-//W3C//DTD SVG 1.1//EN" "http://www.w3.org/Graphics/SVG/1.1/DTD/svg11.dtd">
<svg version="1.1" id="Layer_1" xmlns="http://www.w3.org/2000/svg" xmlns:xlink="http://www.w3.org/1999/xlink" x="0px" y="0px"
	 width="100px" height="100px" viewBox="0 0 100 100" enable-background="new 0 0 100 100" xml:space="preserve">
<g>
	<path d="M78.302,45.625c-0.071-0.411-0.311-0.773-0.66-1c-0.351-0.228-0.778-0.298-1.184-0.197
		c-0.922,0.231-1.879,0.179-2.749-0.156c-2.351-0.903-3.529-3.553-2.626-5.904c0.341-0.889,0.957-1.642,1.782-2.178
		c0.35-0.227,0.589-0.589,0.661-1c0.071-0.41-0.031-0.832-0.283-1.164c-1.656-2.184-3.629-4.09-5.861-5.665
		c-0.34-0.239-0.764-0.325-1.171-0.243c-0.407,0.085-0.761,0.335-0.977,0.69c-0.485,0.801-1.192,1.424-2.044,1.803
		c-0.592,0.263-1.215,0.396-1.854,0.396c-1.804,0-3.443-1.065-4.177-2.713c-0.391-0.878-0.491-1.843-0.293-2.79
		c0.086-0.407-0.001-0.831-0.24-1.172c-0.239-0.34-0.609-0.565-1.021-0.622c-2.707-0.377-5.475-0.336-8.141,0.12
		c-0.41,0.07-0.773,0.308-1.002,0.656c-0.229,0.348-0.302,0.775-0.202,1.18c0.224,0.913,0.167,1.854-0.167,2.722
		c-0.674,1.754-2.388,2.933-4.266,2.933c-0.559,0-1.109-0.104-1.637-0.307c-0.893-0.343-1.646-0.96-2.18-1.786
		c-0.227-0.35-0.588-0.59-0.997-0.662s-0.831,0.028-1.164,0.277c-2.192,1.649-4.108,3.618-5.694,5.852
		c-0.242,0.341-0.331,0.768-0.245,1.177s0.339,0.764,0.698,0.979c0.811,0.485,1.441,1.196,1.824,2.057
		c0.496,1.115,0.528,2.356,0.091,3.495c-0.438,1.139-1.293,2.039-2.409,2.535c-0.893,0.396-1.885,0.491-2.844,0.28
		c-0.408-0.091-0.836-0.007-1.18,0.23c-0.344,0.238-0.572,0.608-0.632,1.022c-0.388,2.74-0.354,5.495,0.104,8.189
		c0.07,0.415,0.312,0.781,0.665,1.009s0.787,0.295,1.193,0.191c0.935-0.245,1.905-0.195,2.789,0.144
		c1.14,0.438,2.04,1.293,2.536,2.407s0.528,2.355,0.09,3.495c-0.351,0.912-0.991,1.679-1.854,2.217
		c-0.355,0.223-0.604,0.584-0.68,0.997c-0.078,0.414,0.022,0.84,0.275,1.177c1.661,2.211,3.645,4.14,5.893,5.729
		c0.345,0.244,0.777,0.333,1.188,0.24c0.412-0.09,0.767-0.349,0.978-0.714c0.487-0.843,1.212-1.496,2.093-1.888
		c0.59-0.263,1.214-0.396,1.854-0.396c1.805,0,3.443,1.065,4.177,2.713c0.405,0.912,0.499,1.913,0.269,2.896
		c-0.096,0.41-0.016,0.843,0.223,1.19c0.239,0.348,0.613,0.579,1.031,0.637c1.221,0.17,2.461,0.257,3.689,0.257
		c1.516,0,3.039-0.132,4.529-0.391c0.416-0.072,0.781-0.315,1.008-0.671s0.294-0.789,0.184-1.196
		c-0.256-0.951-0.209-1.925,0.133-2.816c0.675-1.753,2.39-2.932,4.268-2.932c0.559,0,1.109,0.104,1.635,0.305
		c0.912,0.352,1.678,0.992,2.217,1.852c0.223,0.356,0.586,0.604,1,0.68c0.412,0.076,0.841-0.025,1.177-0.28
		c2.202-1.668,4.12-3.655,5.701-5.905c0.241-0.344,0.327-0.771,0.238-1.182c-0.089-0.409-0.347-0.764-0.708-0.976
		c-0.832-0.486-1.477-1.205-1.865-2.078c-1.023-2.302,0.017-5.008,2.316-6.031c0.892-0.396,1.884-0.492,2.84-0.28
		c0.41,0.089,0.839,0.005,1.183-0.234c0.345-0.239,0.572-0.612,0.629-1.028C78.823,51.071,78.772,48.322,78.302,45.625z
		 M75.632,51.947c-1.055,0.001-2.08,0.219-3.049,0.649c-3.813,1.697-5.534,6.179-3.839,9.991c0.417,0.938,1.011,1.767,1.751,2.454
		c-0.914,1.144-1.934,2.199-3.047,3.156c-0.747-0.762-1.642-1.353-2.646-1.739c-0.872-0.335-1.784-0.505-2.712-0.505
		c-3.11,0-5.951,1.951-7.066,4.855c-0.372,0.966-0.535,1.984-0.49,3.01c-1.452,0.16-2.918,0.184-4.384,0.07
		c0.011-1.071-0.208-2.131-0.651-3.128c-1.215-2.73-3.93-4.494-6.918-4.494c-1.063,0-2.096,0.221-3.074,0.655
		c-0.945,0.421-1.781,1.022-2.473,1.771c-1.141-0.919-2.193-1.942-3.146-3.06c0.767-0.749,1.36-1.646,1.747-2.653
		c0.727-1.887,0.673-3.943-0.148-5.791c-0.822-1.847-2.314-3.263-4.201-3.988c-0.947-0.364-1.951-0.535-2.965-0.491
		c-0.153-1.451-0.17-2.917-0.052-4.383c0.002,0,0.005,0,0.007,0c1.059,0,2.088-0.22,3.057-0.65c1.848-0.821,3.266-2.313,3.99-4.2
		c0.726-1.887,0.672-3.944-0.15-5.791c-0.407-0.916-0.984-1.729-1.699-2.407c0.918-1.14,1.94-2.189,3.056-3.14
		c0.735,0.731,1.608,1.3,2.584,1.675c0.873,0.335,1.786,0.506,2.715,0.506c3.11,0,5.949-1.952,7.064-4.856
		c0.355-0.924,0.522-1.896,0.499-2.874c1.449-0.158,2.912-0.178,4.375-0.063c0.01,1.024,0.229,2.035,0.651,2.986
		c1.215,2.73,3.931,4.494,6.919,4.494c1.063-0.001,2.096-0.221,3.072-0.655c0.906-0.402,1.713-0.972,2.389-1.679
		c1.141,0.914,2.194,1.932,3.149,3.043c-0.728,0.734-1.292,1.605-1.665,2.577c-1.496,3.895,0.456,8.281,4.35,9.779
		c0.934,0.358,1.916,0.519,2.92,0.495C75.714,49.02,75.741,50.484,75.632,51.947z"/>
	<path d="M51.939,38.705c-1.613,0-3.185,0.334-4.669,0.995c-5.793,2.577-8.41,9.388-5.833,15.181
		c1.845,4.148,5.972,6.828,10.513,6.828c1.613,0,3.184-0.334,4.669-0.995c5.794-2.577,8.41-9.388,5.833-15.181
		C60.606,41.385,56.48,38.705,51.939,38.705z M55.399,57.974c-1.098,0.488-2.259,0.735-3.449,0.735c-3.357,0-6.408-1.98-7.771-5.047
		c-1.904-4.282,0.029-9.316,4.311-11.222c1.1-0.488,2.26-0.735,3.45-0.735c3.356,0,6.407,1.98,7.771,5.047
		C61.616,51.034,59.682,56.068,55.399,57.974z"/>
</g>
</svg>
