<?xml version="1.0" encoding="utf-8"?>
<!-- Generator: Adobe Illustrator 16.0.0, SVG Export Plug-In . SVG Version: 6.00 Build 0)  -->
<!DOCTYPE svg PUBLIC "-//W3C//DTD SVG 1.1//EN" "http://www.w3.org/Graphics/SVG/1.1/DTD/svg11.dtd">
<svg version="1.1" id="Layer_1" xmlns="http://www.w3.org/2000/svg" xmlns:xlink="http://www.w3.org/1999/xlink" x="0px" y="0px"
	 width="100px" height="100px" viewBox="0 0 100 100" enable-background="new 0 0 100 100" xml:space="preserve">
<path d="M21.45,48.511c0,14.872,12.098,26.971,26.968,26.971s26.968-12.099,26.968-26.971c0-14.868-12.098-26.967-26.968-26.967
	S21.45,33.643,21.45,48.511z M71.44,48.511c0,12.036-9.286,21.928-21.066,22.925V49.441l1.336,1.336
	c0.833,0.833,2.183,0.833,3.017,0c0.417-0.417,0.625-0.963,0.625-1.508c0-0.546-0.208-1.092-0.625-1.509l-4.976-4.976
	c-0.001,0-0.003-0.003-0.003-0.003l-1.507-1.507l-1.507,1.507c0,0-0.001,0.003-0.003,0.003l-5.332,5.331
	c-0.833,0.833-0.833,2.184,0,3.017c0.833,0.833,2.183,0.833,3.017,0l1.691-1.691v21.976c-11.612-1.161-20.712-10.988-20.712-22.905
	c0-12.693,10.329-23.021,23.023-23.021S71.44,35.818,71.44,48.511z"/>
</svg>
