<?xml version="1.0" encoding="utf-8"?>
<!-- Generator: Adobe Illustrator 16.0.0, SVG Export Plug-In . SVG Version: 6.00 Build 0)  -->
<!DOCTYPE svg PUBLIC "-//W3C//DTD SVG 1.1//EN" "http://www.w3.org/Graphics/SVG/1.1/DTD/svg11.dtd">
<svg version="1.1" id="Layer_1" xmlns="http://www.w3.org/2000/svg" xmlns:xlink="http://www.w3.org/1999/xlink" x="0px" y="0px"
	 width="100px" height="100px" viewBox="0 0 100 100" enable-background="new 0 0 100 100" xml:space="preserve">
<g>
	<path d="M38.772,36.38c0.438,0.438,1.021,0.68,1.641,0.68c0.62,0,1.203-0.241,1.642-0.68l7.119-7.118v14.467
		c0,1.281,1.041,2.322,2.321,2.322s2.322-1.041,2.322-2.322V29.262l7.119,7.118c0.437,0.438,1.021,0.68,1.64,0.68
		c0.62,0,1.203-0.241,1.642-0.68c0.905-0.905,0.905-2.378,0-3.283L53.14,22.021c-0.213-0.216-0.466-0.386-0.765-0.511
		c-0.287-0.117-0.583-0.176-0.881-0.176s-0.594,0.059-0.892,0.181c-0.287,0.12-0.541,0.29-0.749,0.501l-11.083,11.08
		C37.867,34.002,37.867,35.475,38.772,36.38z"/>
	<path fill="none" d="M72.876,48.484c-0.687-0.666-1.586-1.032-2.54-1.032H61.31c-0.03,4.029-3.157,6.731-7.8,6.731h-4.032
		c-4.643,0-7.77-2.702-7.8-6.731h-9.024c-2.012,0-3.648,1.636-3.648,3.647v13.287c0,2.011,1.636,3.646,3.648,3.646h37.683
		c2.01,0,3.646-1.635,3.646-3.646V51.1c0-0.972-0.379-1.887-1.067-2.575L72.876,48.484z"/>
	<path d="M76.555,46.407l0.024-0.038l-9.594-10.354l-2.936,2.936v0.006l4.024,4.343H57.157v4.095c0,2.294-2.285,2.638-3.647,2.638
		h-4.032c-1.362,0-3.647-0.344-3.647-2.638v-4.095H34.653l3.274-3.726l-2.943-2.943l-8.274,9.42l-0.657,0.756l0.058,0.056
		c-0.816,1.259-1.258,2.732-1.258,4.238v13.287c0,4.3,3.5,7.799,7.801,7.799h37.683c4.3,0,7.799-3.499,7.799-7.799V51.1
		C78.136,49.396,77.58,47.757,76.555,46.407z M73.982,64.387c0,2.011-1.635,3.646-3.646,3.646H32.653
		c-2.012,0-3.648-1.635-3.648-3.646V51.1c0-2.012,1.636-3.647,3.648-3.647h9.024c0.03,4.029,3.157,6.731,7.8,6.731h4.032
		c4.644,0,7.771-2.702,7.8-6.731h9.026c0.954,0,1.854,0.366,2.54,1.032l0.038,0.04c0.688,0.688,1.067,1.604,1.067,2.575V64.387z"/>
</g>
</svg>
