<?xml version="1.0" encoding="utf-8"?>
<!-- Generator: Adobe Illustrator 16.0.0, SVG Export Plug-In . SVG Version: 6.00 Build 0)  -->
<!DOCTYPE svg PUBLIC "-//W3C//DTD SVG 1.1//EN" "http://www.w3.org/Graphics/SVG/1.1/DTD/svg11.dtd">
<svg version="1.1" id="Layer_1" xmlns="http://www.w3.org/2000/svg" xmlns:xlink="http://www.w3.org/1999/xlink" x="0px" y="0px"
	 width="100px" height="100px" viewBox="0 0 100 100" enable-background="new 0 0 100 100" xml:space="preserve">
<g>
	<path d="M40.424,77.269c-1.059,0-1.915-0.858-1.915-1.915V34.725c0-0.913,0.643-1.7,1.538-1.878
		c0.242-0.048,0.369-0.14,0.736-0.421c2.02-1.551,4.171-2.427,13.481,0.47c9.58,2.985,12.108,0.905,12.122,0.879
		c0.432-0.753,1.312-1.121,2.154-0.902c0.841,0.223,1.425,0.983,1.425,1.852v19.964c0,0.333-0.088,0.661-0.252,0.95
		c-0.489,0.857-3.587,4.923-16.588,0.879c-8.131-2.532-9.262-1.664-10.009-1.091c-0.218,0.167-0.472,0.362-0.778,0.546v19.38
		C42.339,76.411,41.481,77.269,40.424,77.269z M45.058,50.953c1.945,0,4.759,0.522,9.207,1.907c7.907,2.46,10.939,1.499,11.87,0.981
		V37.947c-2.46,0.625-6.487,0.637-13.009-1.393c-8.136-2.533-9.263-1.664-10.009-1.091c-0.218,0.167-0.472,0.361-0.778,0.546v15.431
		C43.045,51.139,43.896,50.953,45.058,50.953z"/>
</g>
</svg>
