<?xml version="1.0" encoding="utf-8"?>
<!-- Generator: Adobe Illustrator 16.0.0, SVG Export Plug-In . SVG Version: 6.00 Build 0)  -->
<!DOCTYPE svg PUBLIC "-//W3C//DTD SVG 1.1//EN" "http://www.w3.org/Graphics/SVG/1.1/DTD/svg11.dtd">
<svg version="1.1" id="Layer_1" xmlns="http://www.w3.org/2000/svg" xmlns:xlink="http://www.w3.org/1999/xlink" x="0px" y="0px"
	 width="100px" height="100px" viewBox="0 0 100 100" enable-background="new 0 0 100 100" xml:space="preserve">
<g>
	<g>
		<path d="M67.876,72.319H29.405c-1.04,0-1.883-0.843-1.883-1.881V31.966c0-1.039,0.843-1.882,1.883-1.882h0.537
			c0.795,0,1.504,0.5,1.771,1.247c0.408,1.141,1.486,1.908,2.683,1.908s2.274-0.768,2.683-1.908
			c0.268-0.747,0.977-1.247,1.771-1.247h0.588c0.795,0,1.504,0.5,1.771,1.247c0.409,1.141,1.487,1.908,2.683,1.908
			c1.196,0,2.274-0.768,2.683-1.908c0.268-0.747,0.977-1.247,1.771-1.247h0.588c0.795,0,1.504,0.5,1.771,1.247
			c0.408,1.141,1.486,1.908,2.684,1.908c1.195,0,2.273-0.768,2.682-1.908c0.268-0.747,0.977-1.247,1.771-1.247h0.588
			c0.795,0,1.504,0.5,1.771,1.247c0.409,1.141,1.487,1.908,2.684,1.908c1.195,0,2.273-0.768,2.682-1.908
			c0.268-0.747,0.978-1.247,1.771-1.247h0.537c1.04,0,1.883,0.843,1.883,1.882v38.473C69.759,71.477,68.916,72.319,67.876,72.319z
			 M31.286,68.556h34.709V36.217c-0.938,0.505-2.002,0.786-3.109,0.786c-1.823,0-3.525-0.76-4.748-2.025
			c-1.223,1.266-2.926,2.025-4.748,2.025c-1.823,0-3.526-0.76-4.749-2.025c-1.223,1.266-2.926,2.025-4.748,2.025
			s-3.524-0.76-4.747-2.025c-1.223,1.266-2.926,2.025-4.749,2.025c-1.108,0-2.172-0.281-3.11-0.786V68.556z"/>
	</g>
	<g>
		<g>
			<path d="M62.231,46.811H35.051c-1.04,0-1.882-0.843-1.882-1.882s0.842-1.882,1.882-1.882h27.181c1.039,0,1.882,0.843,1.882,1.882
				S63.271,46.811,62.231,46.811z"/>
		</g>
		<g>
			<path d="M62.231,53.083H35.051c-1.04,0-1.882-0.843-1.882-1.882c0-1.038,0.842-1.882,1.882-1.882h27.181
				c1.039,0,1.882,0.844,1.882,1.882C64.113,52.24,63.271,53.083,62.231,53.083z"/>
		</g>
		<g>
			<path d="M62.231,59.355H35.051c-1.04,0-1.882-0.843-1.882-1.882s0.842-1.881,1.882-1.881h27.181c1.039,0,1.882,0.842,1.882,1.881
				S63.271,59.355,62.231,59.355z"/>
		</g>
	</g>
</g>
</svg>
