<?xml version="1.0" encoding="utf-8"?>
<!-- Generator: Adobe Illustrator 16.0.0, SVG Export Plug-In . SVG Version: 6.00 Build 0)  -->
<!DOCTYPE svg PUBLIC "-//W3C//DTD SVG 1.1//EN" "http://www.w3.org/Graphics/SVG/1.1/DTD/svg11.dtd">
<svg version="1.1" id="Layer_1" xmlns="http://www.w3.org/2000/svg" xmlns:xlink="http://www.w3.org/1999/xlink" x="0px" y="0px"
	 width="100px" height="100px" viewBox="0 0 100 100" enable-background="new 0 0 100 100" xml:space="preserve">
<path d="M51.866,22.061c-15.643,0-28.366,12.724-28.366,28.364c0,10.285,5.505,19.309,13.722,24.281
	c4.275,2.589,9.288,4.082,14.645,4.082c5.352,0,10.363-1.493,14.64-4.081c8.217-4.974,13.722-13.997,13.722-24.282
	C80.228,34.785,67.504,22.061,51.866,22.061z M64.859,71.161c-1.782-2.453-4.705-4.354-8.226-5.27v-0.701
	c0.356,0.098,0.715,0.158,1.08,0.158c2.947,0,4.945-3.245,5.028-3.383c0.115-0.192,0.124-0.431,0.02-0.631
	c-0.103-0.198-0.304-0.329-0.527-0.344c-0.643-0.043-1.176-0.323-1.626-0.857c-0.655-0.777-1.048-1.957-1.279-3.227
	c0.735-1.824,1.219-3.623,1.219-5.208c0-5.929-2.954-10.886-7-11.988c-2.723-0.272-3.467-0.128-4.439,0.397
	c-3.548,1.657-5.929,6.312-5.929,11.591c0,1.563,0.472,3.332,1.188,5.129c-0.235,1.325-0.63,2.535-1.278,3.305
	c-0.454,0.535-0.984,0.815-1.629,0.858c-0.224,0.015-0.425,0.146-0.527,0.345c-0.103,0.199-0.096,0.438,0.021,0.629
	c0.082,0.138,2.08,3.383,5.028,3.383c0,0,0,0,0.001,0c0.394,0,0.78-0.065,1.164-0.18v0.708c-3.544,0.911-6.486,2.819-8.277,5.285
	c-6.9-4.339-11.51-12-11.51-20.735c0-13.512,10.992-24.505,24.507-24.505c13.509,0,24.502,10.993,24.502,24.505
	C76.368,59.161,71.759,66.822,64.859,71.161z"/>
</svg>
