<?xml version="1.0" encoding="utf-8"?>
<!-- Generator: Adobe Illustrator 16.0.0, SVG Export Plug-In . SVG Version: 6.00 Build 0)  -->
<!DOCTYPE svg PUBLIC "-//W3C//DTD SVG 1.1//EN" "http://www.w3.org/Graphics/SVG/1.1/DTD/svg11.dtd">
<svg version="1.1" id="Layer_1" xmlns="http://www.w3.org/2000/svg" xmlns:xlink="http://www.w3.org/1999/xlink" x="0px" y="0px"
	 width="100px" height="100px" viewBox="0 0 100 100" enable-background="new 0 0 100 100" xml:space="preserve">
<g>
	<path d="M78.389,42.963c1.291,0,2.336-1.047,2.336-2.337v-8.833c0-1.29-1.045-2.337-2.336-2.337h-8.834
		c-1.291,0-2.338,1.047-2.338,2.337v2.08H36.559v-2.079c0-1.29-1.046-2.337-2.337-2.337h-8.834c-1.291,0-2.337,1.047-2.337,2.337
		v8.833c0,1.29,1.046,2.337,2.337,2.337h2.08v21.31h-2.079c-1.291,0-2.337,1.047-2.337,2.337v8.833c0,1.291,1.046,2.337,2.337,2.337
		h8.834c1.291,0,2.337-1.047,2.337-2.337v-2.08h30.657v2.08c0,1.291,1.046,2.337,2.337,2.337h8.833c1.291,0,2.338-1.047,2.338-2.337
		v-8.833c0-1.291-1.047-2.337-2.338-2.337h-2.078V42.963H78.389z M71.892,34.13h4.159v4.158h-2.08h-2.079V36.21V34.13z
		 M27.725,34.132h4.16v2.078v2.08h-2.08h-2.08V34.132z M31.885,73.107h-4.159v-4.159h2.079h2.08v2.079V73.107z M76.051,73.107h-4.16
		v-2.08v-2.079h2.08h2.08V73.107z M71.634,64.274h-2.08c-1.291,0-2.337,1.047-2.337,2.337v2.078H36.56v-2.078
		c0-1.291-1.046-2.337-2.337-2.337h-2.08v-21.31h2.079c1.291,0,2.337-1.047,2.337-2.337v-2.08h30.658v2.079
		c0,1.29,1.047,2.337,2.338,2.337h2.079V64.274z"/>
</g>
</svg>
