<?xml version="1.0" encoding="utf-8"?>
<!-- Generator: Adobe Illustrator 16.0.0, SVG Export Plug-In . SVG Version: 6.00 Build 0)  -->
<!DOCTYPE svg PUBLIC "-//W3C//DTD SVG 1.1//EN" "http://www.w3.org/Graphics/SVG/1.1/DTD/svg11.dtd">
<svg version="1.1" id="Layer_1" xmlns="http://www.w3.org/2000/svg" xmlns:xlink="http://www.w3.org/1999/xlink" x="0px" y="0px"
	 width="100px" height="100px" viewBox="0 0 100 100" enable-background="new 0 0 100 100" xml:space="preserve">
<g>
	<path d="M72.671,56.754L63.105,29.45c-0.522-1.492-1.936-2.493-3.516-2.493c-0.419,0-0.834,0.071-1.231,0.209l-27.305,9.565
		c-0.965,0.338-1.703,1.038-2.117,1.893h-1.898c-2.055,0-3.727,1.671-3.727,3.725v28.932c0,2.054,1.672,3.725,3.727,3.725h28.93
		c2.055,0,3.726-1.671,3.726-3.725v-6.032l10.694-3.746c0.938-0.33,1.693-1.005,2.125-1.902S73.001,57.693,72.671,56.754z
		 M55.862,71.175H42.667h-1.635h-13.89v-4.011h28.72V71.175z M55.862,62.53v0.803h-28.72V42.455h1.97h4.059h22.691V62.53z
		 M37.241,38.624l22.284-7.807l7.11,20.294L59.693,53.5V42.349c0-2.054-1.671-3.725-3.726-3.725H37.241z M59.693,61.188V57.55
		l8.208-2.825l1.12,3.196L59.693,61.188z"/>
</g>
</svg>
