<?xml version="1.0" encoding="utf-8"?>
<!-- Generator: Adobe Illustrator 16.0.0, SVG Export Plug-In . SVG Version: 6.00 Build 0)  -->
<!DOCTYPE svg PUBLIC "-//W3C//DTD SVG 1.1//EN" "http://www.w3.org/Graphics/SVG/1.1/DTD/svg11.dtd">
<svg version="1.1" id="Layer_1" xmlns="http://www.w3.org/2000/svg" xmlns:xlink="http://www.w3.org/1999/xlink" x="0px" y="0px"
	 width="100px" height="100px" viewBox="0 0 100 100" enable-background="new 0 0 100 100" xml:space="preserve">
<g>
	<path d="M71.168,28.243h-4.25v-2.75c0-1.104-0.896-2-2-2c-1.105,0-2,0.896-2,2v2.75h-2v-2.75c0-1.104-0.896-2-2-2
		c-1.105,0-2,0.896-2,2v2.75h-2v-2.75c0-1.104-0.896-2-2-2c-1.105,0-2,0.896-2,2v2.75h-2v-2.75c0-1.104-0.896-2-2-2
		c-1.105,0-2,0.896-2,2v2.75h-2v-2.75c0-1.104-0.896-2-2-2c-1.105,0-2,0.896-2,2v2.75h-4.25c-1.105,0-2,0.896-2,2v46.25
		c0,1.105,0.895,2,2,2h36.5c1.104,0,2-0.895,2-2v-46.25C73.168,29.139,72.271,28.243,71.168,28.243z M69.168,74.493h-32.5v-42.25
		h2.25v3.75c0,1.105,0.895,2,2,2c1.104,0,2-0.895,2-2v-3.75h2v3.75c0,1.105,0.895,2,2,2c1.104,0,2-0.895,2-2v-3.75h2v3.75
		c0,1.105,0.895,2,2,2c1.104,0,2-0.895,2-2v-3.75h2v3.75c0,1.105,0.895,2,2,2c1.104,0,2-0.895,2-2v-3.75h2v3.75c0,1.105,0.895,2,2,2
		c1.104,0,2-0.895,2-2v-3.75h2.25V74.493z"/>
	<path d="M64.918,42.368h-24c-1.105,0-2,0.896-2,2c0,1.105,0.895,2,2,2h24c1.104,0,2-0.895,2-2
		C66.918,43.264,66.021,42.368,64.918,42.368z"/>
	<path d="M64.918,48.368h-24c-1.105,0-2,0.896-2,2c0,1.105,0.895,2,2,2h24c1.104,0,2-0.895,2-2
		C66.918,49.264,66.021,48.368,64.918,48.368z"/>
	<path d="M64.918,54.368h-24c-1.105,0-2,0.896-2,2c0,1.105,0.895,2,2,2h24c1.104,0,2-0.895,2-2
		C66.918,55.264,66.021,54.368,64.918,54.368z"/>
	<path d="M64.918,60.368h-24c-1.105,0-2,0.896-2,2c0,1.105,0.895,2,2,2h24c1.104,0,2-0.895,2-2
		C66.918,61.264,66.021,60.368,64.918,60.368z"/>
</g>
</svg>
