<?xml version="1.0" encoding="utf-8"?>
<!-- Generator: Adobe Illustrator 16.0.0, SVG Export Plug-In . SVG Version: 6.00 Build 0)  -->
<!DOCTYPE svg PUBLIC "-//W3C//DTD SVG 1.1//EN" "http://www.w3.org/Graphics/SVG/1.1/DTD/svg11.dtd">
<svg version="1.1" id="Layer_1" xmlns="http://www.w3.org/2000/svg" xmlns:xlink="http://www.w3.org/1999/xlink" x="0px" y="0px"
	 width="100px" height="100px" viewBox="0 0 100 100" enable-background="new 0 0 100 100" xml:space="preserve">
<g>
	<path d="M65.804,52.702c-0.897,0-1.767,0.113-2.606,0.309l-3.406-3.543c4.967-5.023,10.145-10.312,11.216-11.597
		c2.512-3.014,0.916-8.471,0.399-9.992c0.123-0.61-0.058-1.269-0.54-1.731c-0.749-0.72-1.94-0.697-2.661,0.053L52.819,42.211
		L37.433,26.2c-0.721-0.751-1.912-0.774-2.661-0.053c-0.482,0.463-0.664,1.121-0.541,1.731c-0.517,1.521-2.113,6.979,0.399,9.992
		c1.07,1.285,6.249,6.573,11.215,11.597l-3.321,3.456c-0.723-0.144-1.468-0.222-2.231-0.222c-6.341,0-11.499,5.158-11.499,11.499
		c0,6.34,5.158,11.498,11.499,11.498c6.34,0,11.499-5.158,11.499-11.498c0-1.932-0.483-3.749-1.328-5.348
		c0.516-0.518,1.334-1.337,2.354-2.361c1.259,1.265,2.209,2.215,2.665,2.671c-0.747,1.524-1.178,3.229-1.178,5.038
		c0,6.34,5.158,11.498,11.499,11.498c6.341,0,11.499-5.158,11.499-11.498C77.303,57.86,72.145,52.702,65.804,52.702z M37.521,35.462
		c-0.612-0.736-0.587-2.424-0.306-4.056l12.994,13.52l-1.755,1.827C43.308,41.549,38.472,36.603,37.521,35.462z M40.293,71.936
		c-4.265,0-7.735-3.469-7.735-7.734c0-4.267,3.47-7.735,7.735-7.735c0.925,0,1.809,0.171,2.631,0.47l2.53,1.52
		c1.576,1.417,2.574,3.465,2.574,5.746C48.029,68.467,44.559,71.936,40.293,71.936z M50.165,53.824
		c-0.666,0.669-1.314,1.318-1.914,1.92l-0.568-0.342c-0.432-0.363-0.894-0.687-1.375-0.984l2.188-2.276l2.608-2.715l1.716-1.784
		l2.61-2.717l12.992-13.519c0.28,1.651,0.291,3.34-0.305,4.055c-0.95,1.141-5.787,6.087-10.933,11.291
		c-0.881,0.891-1.768,1.786-2.649,2.674c-0.578,0.584-1.151,1.16-1.716,1.729C51.902,52.079,51.014,52.972,50.165,53.824z
		 M55.474,53.824c0.537-0.54,1.097-1.104,1.67-1.683l2.284,2.377l-2.04,1.226C56.788,55.143,56.14,54.493,55.474,53.824z
		 M65.804,71.936c-4.265,0-7.735-3.469-7.735-7.734c0-4.267,3.47-7.735,7.735-7.735c4.266,0,7.735,3.469,7.735,7.735
		C73.54,68.467,70.07,71.936,65.804,71.936z"/>
</g>
</svg>
