<?xml version="1.0" encoding="utf-8"?>
<!-- Generator: Adobe Illustrator 16.0.0, SVG Export Plug-In . SVG Version: 6.00 Build 0)  -->
<!DOCTYPE svg PUBLIC "-//W3C//DTD SVG 1.1//EN" "http://www.w3.org/Graphics/SVG/1.1/DTD/svg11.dtd">
<svg version="1.1" id="Layer_1" xmlns="http://www.w3.org/2000/svg" xmlns:xlink="http://www.w3.org/1999/xlink" x="0px" y="0px"
	 width="100px" height="100px" viewBox="0 0 100 100" enable-background="new 0 0 100 100" xml:space="preserve">
<g>
	<path d="M47.953,52.291c-0.344,0-0.676-0.139-0.918-0.389c-0.281-0.291-0.409-0.697-0.342-1.098l0.6-3.612
		c0.044-0.262,0.169-0.505,0.357-0.693l16.277-16.276c0.498-0.499,1.307-0.499,1.805,0l3.115,3.116
		c0.24,0.239,0.374,0.563,0.374,0.903c0,0.339-0.134,0.663-0.374,0.903L52.572,51.42c-0.198,0.198-0.457,0.326-0.733,0.363
		l-3.716,0.497C48.065,52.287,48.009,52.291,47.953,52.291z M49.746,48.015l-0.25,1.505l1.576-0.211L66.14,34.242l-1.31-1.311
		L49.746,48.015z"/>
	<path d="M63.979,67.188H32.056V35.264h21.922l3.831-3.831H30.141c-0.509,0-0.995,0.202-1.354,0.562
		c-0.358,0.359-0.561,0.847-0.561,1.354v35.754c0,0.529,0.214,1.008,0.561,1.354c0.347,0.347,0.826,0.562,1.354,0.562h35.754
		c0.508,0,0.996-0.202,1.354-0.562c0.359-0.359,0.562-0.847,0.562-1.354V41.515l-3.831,3.83V67.188z"/>
</g>
</svg>
