<?xml version="1.0" encoding="utf-8"?>
<!-- Generator: Adobe Illustrator 16.0.0, SVG Export Plug-In . SVG Version: 6.00 Build 0)  -->
<!DOCTYPE svg PUBLIC "-//W3C//DTD SVG 1.1//EN" "http://www.w3.org/Graphics/SVG/1.1/DTD/svg11.dtd">
<svg version="1.1" id="Layer_1" xmlns="http://www.w3.org/2000/svg" xmlns:xlink="http://www.w3.org/1999/xlink" x="0px" y="0px"
	 width="100px" height="100px" viewBox="0 0 100 100" enable-background="new 0 0 100 100" xml:space="preserve">
<g>
	<path d="M79.427,49.142h-4.481c-0.5-5.399-2.637-10.329-5.919-14.282l3.171-3.172c0.953-0.953,0.953-2.497,0-3.451
		c-0.953-0.953-2.499-0.953-3.451,0l-3.172,3.172c-3.953-3.283-8.883-5.42-14.282-5.92v-4.481c0-1.347-1.093-2.44-2.44-2.44
		s-2.44,1.093-2.44,2.44v4.481c-5.399,0.5-10.329,2.637-14.282,5.92l-3.172-3.172c-0.953-0.953-2.497-0.953-3.451,0
		c-0.953,0.954-0.953,2.499,0,3.451l3.172,3.172c-3.281,3.954-5.418,8.883-5.92,14.282h-4.48c-1.348,0-2.44,1.094-2.44,2.441
		s1.093,2.44,2.44,2.44h4.48c0.502,5.4,2.639,10.33,5.922,14.282l-3.173,3.17c-0.953,0.954-0.953,2.499-0.001,3.453
		c0.478,0.477,1.102,0.714,1.727,0.714s1.25-0.238,1.726-0.714l3.173-3.172c3.952,3.283,8.882,5.419,14.28,5.92v4.481
		c0,1.347,1.093,2.44,2.44,2.44s2.44-1.093,2.44-2.44v-4.481c5.399-0.501,10.329-2.638,14.282-5.92l3.172,3.172
		c0.477,0.477,1.102,0.714,1.727,0.714c0.624,0,1.248-0.238,1.725-0.714c0.953-0.954,0.953-2.499,0-3.453l-3.172-3.17
		c3.283-3.954,5.418-8.882,5.92-14.282h4.481c1.349,0,2.44-1.093,2.44-2.44S80.775,49.142,79.427,49.142z M65.419,65.001
		c-0.938,1.155-1.992,2.21-3.148,3.147c-3.122,2.535-6.97,4.209-11.181,4.65c-0.736,0.078-1.481,0.12-2.238,0.12
		c-0.756,0-1.502-0.042-2.238-0.12c-4.211-0.441-8.056-2.115-11.179-4.649c-1.156-0.938-2.211-1.991-3.148-3.147
		c-2.534-3.124-4.21-6.971-4.651-11.182c-0.077-0.736-0.119-1.481-0.119-2.238s0.042-1.502,0.119-2.239
		c0.441-4.21,2.115-8.058,4.65-11.181c0.938-1.156,1.992-2.211,3.147-3.149c3.123-2.533,6.97-4.208,11.181-4.65
		c0.736-0.076,1.482-0.118,2.238-0.118c0.757,0,1.502,0.042,2.238,0.118c4.212,0.443,8.059,2.117,11.182,4.65
		c1.155,0.939,2.211,1.993,3.147,3.15c2.534,3.122,4.208,6.969,4.649,11.18c0.078,0.737,0.12,1.482,0.12,2.239
		s-0.042,1.502-0.12,2.238C69.627,58.032,67.953,61.877,65.419,65.001z"/>
	<path d="M48.852,38.14c-7.413,0-13.443,6.031-13.443,13.443c0,7.412,6.03,13.443,13.443,13.443s13.443-6.031,13.443-13.443
		C62.295,44.171,56.265,38.14,48.852,38.14z M48.852,60.145c-4.722,0-8.563-3.839-8.563-8.562s3.841-8.563,8.563-8.563
		c4.721,0,8.563,3.841,8.563,8.563S53.572,60.145,48.852,60.145z"/>
</g>
</svg>
