<?xml version="1.0" encoding="utf-8"?>
<!-- Generator: Adobe Illustrator 16.0.0, SVG Export Plug-In . SVG Version: 6.00 Build 0)  -->
<!DOCTYPE svg PUBLIC "-//W3C//DTD SVG 1.1//EN" "http://www.w3.org/Graphics/SVG/1.1/DTD/svg11.dtd">
<svg version="1.1" id="Layer_1" xmlns="http://www.w3.org/2000/svg" xmlns:xlink="http://www.w3.org/1999/xlink" x="0px" y="0px"
	 width="100px" height="100px" viewBox="0 0 100 100" enable-background="new 0 0 100 100" xml:space="preserve">
<g>
	<path d="M69.551,51.63H64.12c-0.643,0-1.164,0.521-1.164,1.164v5.431c0,0.644,0.521,1.164,1.164,1.164h5.431
		c0.644,0,1.164-0.521,1.164-1.164v-5.431C70.715,52.15,70.194,51.63,69.551,51.63z M68.387,57.061h-3.103v-3.102h3.103V57.061z"/>
	<path d="M58.888,51.835h-5.432c-0.643,0-1.164,0.52-1.164,1.164v5.43c0,0.644,0.521,1.164,1.164,1.164h5.432
		c0.643,0,1.164-0.521,1.164-1.164v-5.43C60.052,52.354,59.53,51.835,58.888,51.835z M57.724,57.266H54.62v-3.103h3.104V57.266z"/>
	<path d="M43.298,53.627h-3.686v-3.685c0-1.039-0.842-1.883-1.882-1.883s-1.882,0.844-1.882,1.883v3.685h-3.686
		c-1.039,0-1.881,0.843-1.881,1.882s0.842,1.882,1.881,1.882h3.686v3.685c0,1.039,0.842,1.882,1.882,1.882s1.882-0.843,1.882-1.882
		v-3.685h3.686c1.039,0,1.881-0.843,1.881-1.882S44.337,53.627,43.298,53.627z"/>
	<path d="M76.359,39.457H53.152c-0.226-1.686-0.906-4.134-2.883-6.292c-2.702-2.949-6.921-4.444-12.539-4.444
		c-1.04,0-1.882,0.843-1.882,1.882s0.842,1.881,1.882,1.881c4.491,0,7.765,1.071,9.728,3.185c1.17,1.259,1.666,2.694,1.879,3.789
		H26.378c-1.039,0-1.882,0.843-1.882,1.882v28.34c0,1.038,0.843,1.881,1.882,1.881h49.981c1.039,0,1.882-0.843,1.882-1.881v-28.34
		C78.241,40.3,77.398,39.457,76.359,39.457z M74.478,67.796H28.26V43.221h46.218V67.796z"/>
</g>
</svg>
