<?xml version="1.0" encoding="utf-8"?>
<!-- Generator: Adobe Illustrator 16.0.0, SVG Export Plug-In . SVG Version: 6.00 Build 0)  -->
<!DOCTYPE svg PUBLIC "-//W3C//DTD SVG 1.1//EN" "http://www.w3.org/Graphics/SVG/1.1/DTD/svg11.dtd">
<svg version="1.1" id="Layer_1" xmlns="http://www.w3.org/2000/svg" xmlns:xlink="http://www.w3.org/1999/xlink" x="0px" y="0px"
	 width="100px" height="100px" viewBox="0 0 100 100" enable-background="new 0 0 100 100" xml:space="preserve">
<g>
	<path d="M78.224,27.821H18.127c-1.291,0-2.337,1.047-2.337,2.337v45.817c0,1.291,1.046,2.337,2.337,2.337h60.097
		c1.291,0,2.337-1.047,2.337-2.337V30.159C80.561,28.868,79.515,27.821,78.224,27.821z M75.887,39.926h-9.793v-7.43h9.793V39.926z
		 M50.513,39.926v-7.43h10.906v7.43H50.513z M61.419,44.6v6.232H50.513V44.6H61.419z M45.838,39.926H35.74v-7.43h10.098V39.926z
		 M45.838,44.6v6.232H35.74V44.6H45.838z M31.065,50.832H20.465V44.6h10.601V50.832z M31.065,55.506v6.232H20.465v-6.232H31.065z
		 M35.74,55.506h10.098v6.232H35.74V55.506z M45.838,66.413v7.226H35.74v-7.226H45.838z M50.513,66.413h10.906v7.226H50.513V66.413z
		 M50.513,61.739v-6.232h10.906v6.232H50.513z M66.094,55.506h9.793v6.232h-9.793V55.506z M66.094,50.832V44.6h9.793v6.232H66.094z
		 M31.065,32.496v7.43H20.465v-7.43H31.065z M20.465,66.413h10.601v7.226H20.465V66.413z M66.094,73.639v-7.226h9.793v7.226H66.094z
		"/>
	<path d="M23.566,37.978h4.675c0.86,0,1.558-0.697,1.558-1.558s-0.697-1.558-1.558-1.558h-4.675c-0.859,0-1.558,0.697-1.558,1.558
		S22.707,37.978,23.566,37.978z"/>
	<path d="M22.982,49.177h4.675c0.86,0,1.558-0.697,1.558-1.558s-0.697-1.558-1.558-1.558h-4.675c-0.86,0-1.558,0.697-1.558,1.558
		S22.122,49.177,22.982,49.177z"/>
	<path d="M22.982,60.424h4.675c0.86,0,1.558-0.697,1.558-1.558s-0.697-1.558-1.558-1.558h-4.675c-0.86,0-1.558,0.697-1.558,1.558
		S22.122,60.424,22.982,60.424z"/>
	<path d="M27.657,68.507h-4.675c-0.86,0-1.558,0.697-1.558,1.558s0.697,1.558,1.558,1.558h4.675c0.86,0,1.558-0.697,1.558-1.558
		S28.518,68.507,27.657,68.507z"/>
	<path d="M38.467,38.222h4.381c0.861,0,1.559-0.697,1.559-1.559c0-0.861-0.697-1.558-1.559-1.558h-4.381
		c-0.861,0-1.559,0.697-1.559,1.558C36.908,37.524,37.605,38.222,38.467,38.222z"/>
	<path d="M58.283,34.862H53.9c-0.859,0-1.558,0.697-1.558,1.558s0.698,1.558,1.558,1.558h4.383c0.86,0,1.559-0.697,1.559-1.558
		S59.144,34.862,58.283,34.862z"/>
	<path d="M68.654,37.978h4.382c0.86,0,1.558-0.697,1.558-1.558s-0.697-1.558-1.558-1.558h-4.382c-0.86,0-1.559,0.697-1.559,1.558
		S67.794,37.978,68.654,37.978z"/>
</g>
</svg>
