<?xml version="1.0" encoding="utf-8"?>
<!-- Generator: Adobe Illustrator 16.0.0, SVG Export Plug-In . SVG Version: 6.00 Build 0)  -->
<!DOCTYPE svg PUBLIC "-//W3C//DTD SVG 1.1//EN" "http://www.w3.org/Graphics/SVG/1.1/DTD/svg11.dtd">
<svg version="1.1" id="Layer_1" xmlns="http://www.w3.org/2000/svg" xmlns:xlink="http://www.w3.org/1999/xlink" x="0px" y="0px"
	 width="100px" height="100px" viewBox="0 0 100 100" enable-background="new 0 0 100 100" xml:space="preserve">
<g>
	<path d="M65.834,38.893L33.591,27.384c-0.588-0.211-1.239-0.12-1.748,0.239c-0.509,0.358-0.812,0.943-0.812,1.565V69.02
		c0,0.622,0.303,1.207,0.812,1.565c0.327,0.23,0.714,0.351,1.104,0.351c0.217,0,0.435-0.036,0.645-0.111l8.281-2.955
		c1.971,3.483,5.691,5.726,9.778,5.726c6.204,0,11.252-5.048,11.252-11.252c0-0.642-0.058-1.284-0.17-1.92l3.102-1.107
		c0.762-0.273,1.271-0.995,1.271-1.805V40.697C67.104,39.888,66.596,39.166,65.834,38.893z M34.861,31.906l5.109,1.825v30.749
		l-5.109,1.823V31.906z M59.045,61.738c0.018,0.201,0.026,0.403,0.026,0.604c0,4.092-3.329,7.421-7.421,7.421
		c-2.467,0-4.735-1.237-6.1-3.209l9.416-3.361L59.045,61.738z M63.273,56.16l-11.619,4.147l-7.853,2.804V35.097l19.472,6.951V56.16z
		"/>
</g>
</svg>
