<?xml version="1.0" encoding="utf-8"?>
<!-- Generator: Adobe Illustrator 16.0.0, SVG Export Plug-In . SVG Version: 6.00 Build 0)  -->
<!DOCTYPE svg PUBLIC "-//W3C//DTD SVG 1.1//EN" "http://www.w3.org/Graphics/SVG/1.1/DTD/svg11.dtd">
<svg version="1.1" id="Layer_1" xmlns="http://www.w3.org/2000/svg" xmlns:xlink="http://www.w3.org/1999/xlink" x="0px" y="0px"
	 width="100px" height="100px" viewBox="0 0 100 100" enable-background="new 0 0 100 100" xml:space="preserve">
<path d="M80.219,35.858c-0.031-0.877-0.559-1.662-1.362-2.02l-24.56-10.952c-0.597-0.267-1.278-0.267-1.873,0L27.877,33.833
	c-0.029,0.014-0.059,0.027-0.087,0.041c-0.507,0.248-0.883,0.658-1.095,1.141c-0.04,0.093-0.075,0.187-0.103,0.282
	c-0.065,0.225-0.097,0.458-0.091,0.695v25.854c0,0.752,0.367,1.455,0.983,1.885l24.56,15.153c0.004,0.003,0.008,0.003,0.011,0.007
	c0.171,0.117,0.361,0.205,0.561,0.273c0.044,0.015,0.086,0.028,0.131,0.042c0.197,0.054,0.399,0.093,0.614,0.093
	c0.189,0,0.371-0.03,0.547-0.072c0.048-0.012,0.094-0.029,0.142-0.045c0.141-0.045,0.274-0.102,0.402-0.17
	c0.026-0.016,0.055-0.02,0.082-0.035l24.561-14.563c0.698-0.414,1.126-1.166,1.126-1.979C80.22,62.437,80.234,36.284,80.219,35.858z
	 M53.36,27.505l19.328,8.619l-7.131,3.803l-17.885-9.885L53.36,27.505z M51.061,72.59L31.1,60.647V39.772l19.961,10.644V72.59z
	 M53.36,46.431L34.033,36.124l9.064-4.042L61.35,42.171L53.36,46.431z M75.621,61.127L55.66,72.964V50.416l19.961-10.644V61.127z"/>
</svg>
