<?xml version="1.0" encoding="utf-8"?>
<!-- Generator: Adobe Illustrator 16.0.0, SVG Export Plug-In . SVG Version: 6.00 Build 0)  -->
<!DOCTYPE svg PUBLIC "-//W3C//DTD SVG 1.1//EN" "http://www.w3.org/Graphics/SVG/1.1/DTD/svg11.dtd">
<svg version="1.1" id="Layer_1" xmlns="http://www.w3.org/2000/svg" xmlns:xlink="http://www.w3.org/1999/xlink" x="0px" y="0px"
	 width="100px" height="100px" viewBox="0 0 100 100" enable-background="new 0 0 100 100" xml:space="preserve">
<g>
	<path d="M70.81,26.663H28.902c-2.055,0-3.726,1.671-3.726,3.725v41.909c0,2.054,1.671,3.725,3.726,3.725H70.81
		c2.054,0,3.725-1.671,3.725-3.725V30.387C74.534,28.333,72.863,26.663,70.81,26.663z M70.703,49.427H51.771V30.494h18.933V49.427z
		 M47.939,30.494v18.933H29.007V30.494H47.939z M29.007,53.258h18.933V72.19H29.007V53.258z M51.771,72.19V53.258h18.933V72.19
		H51.771z"/>
	<path d="M57.039,41.543h8.686c1.057,0,1.915-0.858,1.915-1.916c0-1.058-0.858-1.916-1.915-1.916h-8.686
		c-1.059,0-1.916,0.858-1.916,1.916C55.123,40.685,55.98,41.543,57.039,41.543z"/>
	<path d="M34.131,41.543h2.429v2.426c0,1.058,0.856,1.916,1.915,1.916c1.058,0,1.915-0.858,1.915-1.916v-2.426h2.427
		c1.058,0,1.916-0.858,1.916-1.916c0-1.058-0.858-1.916-1.916-1.916H40.39v-2.427c0-1.058-0.857-1.916-1.915-1.916
		c-1.059,0-1.915,0.858-1.915,1.916v2.427h-2.429c-1.059,0-1.915,0.858-1.915,1.916C32.216,40.685,33.072,41.543,34.131,41.543z"/>
	<path d="M41.184,62.724l1.716-1.717c0.748-0.748,0.748-1.96,0-2.708c-0.749-0.749-1.962-0.749-2.709,0l-1.716,1.717l-1.716-1.716
		c-0.748-0.748-1.96-0.748-2.709,0c-0.748,0.748-0.748,1.96,0,2.708l1.716,1.716l-1.717,1.717c-0.748,0.748-0.748,1.96,0,2.708
		c0.374,0.374,0.864,0.561,1.354,0.561s0.981-0.187,1.354-0.561l1.717-1.717l1.716,1.716c0.374,0.375,0.863,0.562,1.354,0.562
		c0.488,0,0.98-0.187,1.354-0.562c0.748-0.748,0.748-1.96,0-2.708L41.184,62.724z"/>
	<path d="M65.725,58.055h-8.686c-1.059,0-1.916,0.858-1.916,1.915c0,1.058,0.857,1.916,1.916,1.916h8.686
		c1.057,0,1.915-0.858,1.915-1.916C67.64,58.913,66.781,58.055,65.725,58.055z"/>
	<path d="M65.725,63.563h-8.686c-1.059,0-1.916,0.858-1.916,1.916c0,1.057,0.857,1.916,1.916,1.916h8.686
		c1.057,0,1.915-0.858,1.915-1.916C67.64,64.421,66.781,63.563,65.725,63.563z"/>
</g>
</svg>
