<?xml version="1.0" encoding="utf-8"?>
<!-- Generator: Adobe Illustrator 16.0.0, SVG Export Plug-In . SVG Version: 6.00 Build 0)  -->
<!DOCTYPE svg PUBLIC "-//W3C//DTD SVG 1.1//EN" "http://www.w3.org/Graphics/SVG/1.1/DTD/svg11.dtd">
<svg version="1.1" id="Layer_1" xmlns="http://www.w3.org/2000/svg" xmlns:xlink="http://www.w3.org/1999/xlink" x="0px" y="0px"
	 width="100px" height="100px" viewBox="0 0 100 100" enable-background="new 0 0 100 100" xml:space="preserve">
<g>
	<g>
		<path d="M69.516,83.202H25.35c-1.291,0-2.337-1.046-2.337-2.337V36.7c0-1.291,1.046-2.337,2.337-2.337h44.166
			c1.291,0,2.337,1.047,2.337,2.337v44.165C71.853,82.155,70.807,83.202,69.516,83.202z M27.687,78.527h39.491V39.037H27.687V78.527
			z"/>
	</g>
	<g>
		<path d="M79.523,72.875h-4.745c-1.291,0-2.337-1.047-2.337-2.337c0-1.291,1.046-2.337,2.337-2.337h2.408V28.71H37.694v2.6
			c0,1.291-1.046,2.337-2.337,2.337s-2.337-1.047-2.337-2.337v-4.938c0-1.29,1.046-2.337,2.337-2.337h44.166
			c1.291,0,2.337,1.047,2.337,2.337v44.166C81.86,71.828,80.814,72.875,79.523,72.875z"/>
	</g>
</g>
</svg>
