<?xml version="1.0" encoding="utf-8"?>
<!-- Generator: Adobe Illustrator 16.0.0, SVG Export Plug-In . SVG Version: 6.00 Build 0)  -->
<!DOCTYPE svg PUBLIC "-//W3C//DTD SVG 1.1//EN" "http://www.w3.org/Graphics/SVG/1.1/DTD/svg11.dtd">
<svg version="1.1" id="Layer_1" xmlns="http://www.w3.org/2000/svg" xmlns:xlink="http://www.w3.org/1999/xlink" x="0px" y="0px"
	 width="100px" height="100px" viewBox="0 0 100 100" enable-background="new 0 0 100 100" xml:space="preserve">
<g>
	<path d="M74.474,30.016h-8v-3.335c0-1.104-0.895-2-2-2c-1.104,0-2,0.896-2,2v3.335h-18v-3.335c0-1.104-0.895-2-2-2
		c-1.104,0-2,0.896-2,2v3.335h-8.666c-1.105,0-2,0.896-2,2v43.291c0,1.105,0.895,2,2,2h42.666c1.105,0,2-0.895,2-2V32.016
		C76.474,30.911,75.579,30.016,74.474,30.016z M72.474,73.306H33.808V45.016h38.666V73.306z M72.474,41.016H33.808v-7h6.666v2
		c0,1.104,0.896,2,2,2c1.105,0,2-0.896,2-2v-2h18v2c0,1.104,0.896,2,2,2c1.105,0,2-0.896,2-2v-2h6V41.016z"/>
	<polygon points="53.236,50.646 53.302,50.646 53.302,69.181 56.075,69.181 56.075,47.968 53.628,47.968 48.993,50.449 
		49.549,52.636 	"/>
</g>
</svg>
