<?xml version="1.0" encoding="utf-8"?>
<!-- Generator: Adobe Illustrator 16.0.0, SVG Export Plug-In . SVG Version: 6.00 Build 0)  -->
<!DOCTYPE svg PUBLIC "-//W3C//DTD SVG 1.1//EN" "http://www.w3.org/Graphics/SVG/1.1/DTD/svg11.dtd">
<svg version="1.1" id="Layer_1" xmlns="http://www.w3.org/2000/svg" xmlns:xlink="http://www.w3.org/1999/xlink" x="0px" y="0px"
	 width="100px" height="100px" viewBox="0 0 100 100" enable-background="new 0 0 100 100" xml:space="preserve">
<g>
	<path d="M74.42,46.625h-3.408l-2.739-13.651c-0.22-1.093-1.178-1.878-2.292-1.878H43.259c-1.114,0-2.072,0.785-2.292,1.878
		l-2.739,13.651h-3.408c-1.291,0-2.337,1.047-2.337,2.338v18.645c0,1.291,1.046,2.338,2.337,2.338h4.544v5.424
		c0,0.431,0.349,0.779,0.779,0.779h5.583c0.431,0,0.779-0.349,0.779-0.779v-5.424h15.97v5.424c0,0.431,0.348,0.779,0.779,0.779
		h5.583c0.431,0,0.778-0.349,0.778-0.779v-5.424h4.805c1.291,0,2.338-1.047,2.338-2.338V48.963
		C76.758,47.672,75.711,46.625,74.42,46.625z M45.174,35.771h18.893l2.178,10.854H42.995L45.174,35.771z M72.083,65.271H37.156V51.3
		h2.986h28.955h0.03h2.955V65.271z"/>
	<circle cx="43.193" cy="56.672" r="3.635"/>
	<circle cx="66.045" cy="56.672" r="3.635"/>
</g>
</svg>
