<?xml version="1.0" encoding="utf-8"?>
<!-- Generator: Adobe Illustrator 16.0.0, SVG Export Plug-In . SVG Version: 6.00 Build 0)  -->
<!DOCTYPE svg PUBLIC "-//W3C//DTD SVG 1.1//EN" "http://www.w3.org/Graphics/SVG/1.1/DTD/svg11.dtd">
<svg version="1.1" id="Layer_1" xmlns="http://www.w3.org/2000/svg" xmlns:xlink="http://www.w3.org/1999/xlink" x="0px" y="0px"
	 width="100px" height="100px" viewBox="0 0 100 100" enable-background="new 0 0 100 100" xml:space="preserve">
<path d="M68.901,46.489V28.256c0-1.29-1.046-2.337-2.337-2.337H35.436c-1.291,0-2.337,1.047-2.337,2.337v18.233
	c0,9.076,6.797,16.579,15.564,17.73v13.951H35.436c-1.291,0-2.337,1.047-2.337,2.337c0,1.291,1.046,2.338,2.337,2.338h31.129
	c1.291,0,2.337-1.047,2.337-2.338c0-1.29-1.046-2.337-2.337-2.337H53.337V64.22C62.104,63.068,68.901,55.565,68.901,46.489z
	 M64.228,30.593v13.56H37.772v-13.56H64.228z M37.992,48.826h26.017c-1.109,6.181-6.514,10.89-13.008,10.89
	C44.505,59.716,39.101,55.007,37.992,48.826z"/>
</svg>
