<?xml version="1.0" encoding="utf-8"?>
<!-- Generator: Adobe Illustrator 16.0.0, SVG Export Plug-In . SVG Version: 6.00 Build 0)  -->
<!DOCTYPE svg PUBLIC "-//W3C//DTD SVG 1.1//EN" "http://www.w3.org/Graphics/SVG/1.1/DTD/svg11.dtd">
<svg version="1.1" id="Layer_1" xmlns="http://www.w3.org/2000/svg" xmlns:xlink="http://www.w3.org/1999/xlink" x="0px" y="0px"
	 width="100px" height="100px" viewBox="0 0 100 100" enable-background="new 0 0 100 100" xml:space="preserve">
<g>
	<path d="M68.149,55.129l-4.75-4.751c-0.834-0.833-2.184-0.833-3.018,0c-0.834,0.834-0.834,2.184,0,3.017l1.514,1.516h-7.959
		l-4.074-6.309l4.074-6.308h8.137l-1.336,1.336c-0.834,0.833-0.834,2.184,0,3.017c0.416,0.417,0.963,0.625,1.508,0.625
		c0.547,0,1.092-0.208,1.508-0.625l4.977-4.977l0.004-0.002l1.506-1.508l-6.84-6.843c-0.834-0.833-2.184-0.833-3.018,0
		c-0.834,0.834-0.834,2.184,0,3.017l1.691,1.693h-9.297c-0.004,0-0.008,0.001-0.012,0.001c-0.123,0.002-0.244,0.016-0.365,0.036
		c-0.02,0.005-0.039,0.003-0.059,0.008c-0.129,0.027-0.256,0.066-0.379,0.117c-0.006,0.003-0.012,0.003-0.018,0.006
		c-0.197,0.083-0.379,0.205-0.547,0.349c-0.045,0.039-0.094,0.072-0.135,0.114c-0.033,0.033-0.059,0.072-0.09,0.108
		c-0.063,0.071-0.125,0.144-0.18,0.225c-0.002,0.004-0.006,0.009-0.01,0.013l-3.66,5.668l-3.66-5.668
		c-0.004-0.004-0.008-0.009-0.01-0.013c-0.057-0.083-0.121-0.16-0.188-0.234c-0.029-0.032-0.053-0.068-0.082-0.098
		c-0.053-0.054-0.115-0.1-0.176-0.148c-0.047-0.039-0.092-0.083-0.143-0.118c-0.033-0.021-0.07-0.036-0.104-0.056
		c-0.084-0.052-0.168-0.103-0.258-0.14c-0.027-0.012-0.055-0.018-0.082-0.027c-0.104-0.038-0.207-0.074-0.314-0.098
		c-0.025-0.005-0.049-0.005-0.072-0.009c-0.117-0.02-0.234-0.035-0.354-0.035c-0.004,0-0.008-0.001-0.012-0.001l-10.428-0.002
		c-1.178,0-2.133,0.956-2.133,2.134s0.955,2.134,2.133,2.134l9.268,0.001l4.074,6.308l-4.074,6.309l-9.268-0.002
		c-1.178,0-2.133,0.956-2.133,2.134s0.955,2.133,2.133,2.133l10.426,0.002l0,0l0,0h0.002c0.166,0,0.326-0.023,0.482-0.06
		c0.041-0.01,0.082-0.026,0.123-0.038c0.113-0.034,0.225-0.075,0.33-0.128c0.047-0.021,0.092-0.047,0.137-0.074
		c0.102-0.059,0.195-0.125,0.285-0.2c0.035-0.03,0.074-0.058,0.107-0.089c0.119-0.114,0.227-0.239,0.318-0.377
		c0.002-0.004,0.006-0.007,0.01-0.011l3.66-5.668l3.66,5.668c0.004,0.004,0.008,0.007,0.01,0.011
		c0.092,0.138,0.199,0.265,0.318,0.377c0.033,0.031,0.07,0.059,0.105,0.087c0.09,0.075,0.186,0.144,0.287,0.203
		c0.045,0.026,0.09,0.052,0.137,0.073c0.105,0.053,0.217,0.095,0.332,0.128c0.041,0.013,0.08,0.028,0.121,0.038
		c0.156,0.036,0.314,0.06,0.482,0.06h9.475l-1.514,1.514c-0.834,0.833-0.834,2.184,0,3.017c0.416,0.416,0.963,0.625,1.508,0.625
		c0.547,0,1.092-0.209,1.508-0.625l6.486-6.486l-1.102-1.103C68.929,55.687,68.579,55.339,68.149,55.129z"/>
</g>
</svg>
