<?xml version="1.0" encoding="utf-8"?>
<!-- Generator: Adobe Illustrator 16.0.0, SVG Export Plug-In . SVG Version: 6.00 Build 0)  -->
<!DOCTYPE svg PUBLIC "-//W3C//DTD SVG 1.1//EN" "http://www.w3.org/Graphics/SVG/1.1/DTD/svg11.dtd">
<svg version="1.1" id="Layer_1" xmlns="http://www.w3.org/2000/svg" xmlns:xlink="http://www.w3.org/1999/xlink" x="0px" y="0px"
	 width="100px" height="100px" viewBox="0 0 100 100" enable-background="new 0 0 100 100" xml:space="preserve">
<g>
	<g>
		<path d="M52.288,75.799c-13.537,0-24.549-11.013-24.549-24.549s11.012-24.549,24.549-24.549S76.837,37.714,76.837,51.25
			S65.825,75.799,52.288,75.799z M52.288,31.375c-10.959,0-19.875,8.917-19.875,19.875s8.916,19.874,19.875,19.874
			s19.875-8.916,19.875-19.874S63.247,31.375,52.288,31.375z"/>
	</g>
	<g>
		<path d="M54.884,62.052h-5.192c-0.86,0-1.558-0.697-1.558-1.559v-7.061c-1.882-1.336-3.018-3.486-3.018-5.814
			c0-3.955,3.217-7.172,7.172-7.172s7.171,3.217,7.171,7.172c0,2.328-1.136,4.479-3.017,5.814v7.061
			C56.442,61.354,55.745,62.052,54.884,62.052z M51.249,58.936h2.077v-6.37c0-0.578,0.321-1.109,0.833-1.378
			c1.347-0.709,2.184-2.077,2.184-3.569c0-2.235-1.818-4.056-4.055-4.056s-4.055,1.82-4.055,4.056c0,1.492,0.836,2.86,2.184,3.569
			c0.512,0.269,0.832,0.8,0.832,1.378V58.936z"/>
	</g>
</g>
</svg>
