<?xml version="1.0" encoding="utf-8"?>
<!-- Generator: Adobe Illustrator 16.0.0, SVG Export Plug-In . SVG Version: 6.00 Build 0)  -->
<!DOCTYPE svg PUBLIC "-//W3C//DTD SVG 1.1//EN" "http://www.w3.org/Graphics/SVG/1.1/DTD/svg11.dtd">
<svg version="1.1" id="Layer_1" xmlns="http://www.w3.org/2000/svg" xmlns:xlink="http://www.w3.org/1999/xlink" x="0px" y="0px"
	 width="100px" height="100px" viewBox="0 0 100 100" enable-background="new 0 0 100 100" xml:space="preserve">
<g>
	<path d="M70.379,47.044c0-5.238-2.039-10.164-5.744-13.868c-3.705-3.706-8.631-5.746-13.869-5.746
		c-5.24,0-10.166,2.04-13.871,5.746c-6.391,6.392-7.551,16.127-3.043,23.773l-6.973,6.973c-0.4,0.399-0.625,0.942-0.625,1.508
		s0.225,1.108,0.625,1.509l3.992,3.991c0.416,0.417,0.963,0.625,1.508,0.625s1.092-0.208,1.508-0.625l6.975-6.974
		c3,1.766,6.398,2.691,9.93,2.691l0,0c5.229,0,10.146-2.037,13.844-5.734C68.338,57.209,70.379,52.285,70.379,47.044z
		 M39.066,59.718l-6.688,6.688l-0.975-0.976l6.688-6.688c0.74-0.738,0.834-1.906,0.225-2.755c-1.473-2.045-2.367-4.333-2.725-6.674
		l12.895,12.895c-2.4-0.36-4.672-1.278-6.664-2.713C40.973,58.882,39.807,58.976,39.066,59.718z M54.279,61.968L35.826,43.514
		c0.635-2.689,2-5.234,4.086-7.321c2.898-2.898,6.754-4.496,10.854-4.496c4.098,0,7.953,1.598,10.852,4.496
		c2.9,2.898,4.496,6.752,4.496,10.852c0,4.101-1.596,7.954-4.496,10.853C59.568,59.947,57.035,61.328,54.279,61.968z"/>
	<path d="M68.857,61.778c-2.697,0-4.889,2.192-4.889,4.889c0,2.695,2.191,4.889,4.889,4.889c2.695,0,4.889-2.193,4.889-4.889
		C73.746,63.97,71.553,61.778,68.857,61.778z M68.857,68.71c-1.127,0-2.045-0.916-2.045-2.044s0.918-2.044,2.045-2.044
		s2.043,0.916,2.043,2.044S69.984,68.71,68.857,68.71z"/>
</g>
</svg>
