<?xml version="1.0" encoding="utf-8"?>
<!-- Generator: Adobe Illustrator 16.0.0, SVG Export Plug-In . SVG Version: 6.00 Build 0)  -->
<!DOCTYPE svg PUBLIC "-//W3C//DTD SVG 1.1//EN" "http://www.w3.org/Graphics/SVG/1.1/DTD/svg11.dtd">
<svg version="1.1" id="Layer_1" xmlns="http://www.w3.org/2000/svg" xmlns:xlink="http://www.w3.org/1999/xlink" x="0px" y="0px"
	 width="100px" height="100px" viewBox="0 0 100 100" enable-background="new 0 0 100 100" xml:space="preserve">
<g>
	<path d="M52.154,22.807c-15.42,0-27.965,12.547-27.965,27.967c0,15.419,12.545,27.966,27.965,27.966
		c15.419,0,27.965-12.547,27.965-27.966C80.119,35.354,67.574,22.807,52.154,22.807z M52.154,73.549
		c-12.561,0-22.778-10.216-22.778-22.775c0-12.562,10.217-22.778,22.778-22.778s22.778,10.216,22.778,22.778
		C74.932,63.333,64.715,73.549,52.154,73.549z"/>
	<path d="M65.908,48.227H38.401c-1.408,0-2.547,1.141-2.547,2.547c0,1.409,1.14,2.547,2.547,2.547h27.507
		c1.408,0,2.548-1.138,2.548-2.547C68.456,49.368,67.315,48.227,65.908,48.227z"/>
</g>
</svg>
