<?xml version="1.0" encoding="utf-8"?>
<!-- Generator: Adobe Illustrator 16.0.0, SVG Export Plug-In . SVG Version: 6.00 Build 0)  -->
<!DOCTYPE svg PUBLIC "-//W3C//DTD SVG 1.1//EN" "http://www.w3.org/Graphics/SVG/1.1/DTD/svg11.dtd">
<svg version="1.1" id="Layer_1" xmlns="http://www.w3.org/2000/svg" xmlns:xlink="http://www.w3.org/1999/xlink" x="0px" y="0px"
	 width="100px" height="100px" viewBox="0 0 100 100" enable-background="new 0 0 100 100" xml:space="preserve">
<path d="M78.278,46.648h-2.063V39.5c0-1.178-0.955-2.133-2.133-2.133h-3.885V33.2c0-1.57-1.273-2.844-2.844-2.844h-7.385
	c-1.571,0-2.845,1.273-2.845,2.844v13.448H42.819V33.2c0-1.57-1.274-2.844-2.845-2.844h-7.386c-1.571,0-2.845,1.273-2.845,2.844
	v4.167h-3.883c-1.178,0-2.133,0.955-2.133,2.133v7.148h-2.008c-1.57,0-2.844,1.273-2.844,2.845c0,1.57,1.273,2.844,2.844,2.844
	h2.008v7.148c0,1.178,0.955,2.134,2.133,2.134h3.883v4.166c0,1.571,1.273,2.845,2.845,2.845h7.386c1.57,0,2.845-1.273,2.845-2.845
	V52.336h14.305v13.448c0,1.571,1.273,2.845,2.845,2.845h7.385c1.57,0,2.844-1.273,2.844-2.845v-4.166h3.885
	c1.178,0,2.133-0.956,2.133-2.134v-7.148h2.063c1.571,0,2.845-1.273,2.845-2.844C81.123,47.921,79.85,46.648,78.278,46.648z
	 M27.994,57.352V41.633h1.75v15.719H27.994z M37.131,62.94h-1.697V36.044h1.697V62.94z M64.51,62.94h-1.697V36.044h1.697V62.94z
	 M71.949,57.352h-1.752V41.633h1.752V57.352z"/>
</svg>
