<?xml version="1.0" encoding="utf-8"?>
<!-- Generator: Adobe Illustrator 16.0.0, SVG Export Plug-In . SVG Version: 6.00 Build 0)  -->
<!DOCTYPE svg PUBLIC "-//W3C//DTD SVG 1.1//EN" "http://www.w3.org/Graphics/SVG/1.1/DTD/svg11.dtd">
<svg version="1.1" id="Layer_1" xmlns="http://www.w3.org/2000/svg" xmlns:xlink="http://www.w3.org/1999/xlink" x="0px" y="0px"
	 width="100px" height="100px" viewBox="0 0 100 100" enable-background="new 0 0 100 100" xml:space="preserve">
<g>
	<path d="M63.06,49.326h-9.105V40.22c0-1.143-0.927-2.069-2.069-2.069s-2.069,0.927-2.069,2.069v9.105h-9.104
		c-1.143,0-2.069,0.927-2.069,2.069s0.927,2.069,2.069,2.069h9.104v9.105c0,1.143,0.927,2.069,2.069,2.069s2.069-0.927,2.069-2.069
		v-9.105h9.105c1.143,0,2.069-0.927,2.069-2.069S64.202,49.326,63.06,49.326z"/>
	<path d="M84.268,48.437h-4.578c-1.401-13.267-12.118-23.778-25.467-24.89v-5.155c0-1.291-1.047-2.337-2.338-2.337
		s-2.337,1.047-2.337,2.337v5.155c-13.349,1.112-24.065,11.623-25.467,24.89h-4.578c-1.291,0-2.337,1.047-2.337,2.337
		c0,1.291,1.046,2.337,2.337,2.337h4.504c0.847,13.842,11.781,24.986,25.541,26.131v3.914c0,1.291,1.046,2.337,2.337,2.337
		s2.338-1.046,2.338-2.337v-3.914c13.76-1.146,24.694-12.29,25.541-26.131h4.504c1.291,0,2.337-1.047,2.337-2.337
		C86.604,49.484,85.559,48.437,84.268,48.437z M53.675,74.079c-0.429-0.516-1.066-0.851-1.79-0.851s-1.36,0.334-1.79,0.851
		C38.536,73.173,29.39,63.621,29.132,51.896c0.186-0.334,0.3-0.712,0.3-1.122c0-0.365-0.092-0.708-0.241-1.015
		c0.844-11.798,10.687-21.142,22.694-21.142c12.009,0,21.851,9.344,22.695,21.142c-0.149,0.307-0.241,0.649-0.241,1.015
		c0,0.41,0.114,0.787,0.299,1.122C74.381,63.621,65.233,73.173,53.675,74.079z"/>
</g>
</svg>
