<?xml version="1.0" encoding="utf-8"?>
<!-- Generator: Adobe Illustrator 16.0.0, SVG Export Plug-In . SVG Version: 6.00 Build 0)  -->
<!DOCTYPE svg PUBLIC "-//W3C//DTD SVG 1.1//EN" "http://www.w3.org/Graphics/SVG/1.1/DTD/svg11.dtd">
<svg version="1.1" id="Layer_1" xmlns="http://www.w3.org/2000/svg" xmlns:xlink="http://www.w3.org/1999/xlink" x="0px" y="0px"
	 width="100px" height="100px" viewBox="0 0 100 100" enable-background="new 0 0 100 100" xml:space="preserve">
<path d="M76.792,45.86l-0.03-0.113c-0.026-0.193-0.07-0.38-0.136-0.572l-0.063-0.192l-0.047-0.099
	c-0.103-0.222-0.221-0.418-0.358-0.597l-0.034-0.068L54.854,22.955c-0.246-0.248-0.535-0.446-0.9-0.613l-0.253-0.094
	c-0.187-0.064-0.378-0.109-0.58-0.137l-0.146-0.04H38.805c-5.515,0-10.001,4.485-10.001,10v41.994c0,5.514,4.486,10,10.001,10
	h27.997c5.513,0,9.998-4.485,9.998-10V46.144L76.792,45.86z M34.807,32.07c0-2.205,1.794-3.999,3.999-3.999h10.921v11.072
	c0,5.514,4.486,10.001,10,10.001h11.072v24.919c0,2.203-1.793,3.997-3.996,3.997H38.805c-2.205,0-3.999-1.794-3.999-3.997V32.07z"/>
</svg>
