<?xml version="1.0" encoding="utf-8"?>
<!-- Generator: Adobe Illustrator 16.0.0, SVG Export Plug-In . SVG Version: 6.00 Build 0)  -->
<!DOCTYPE svg PUBLIC "-//W3C//DTD SVG 1.1//EN" "http://www.w3.org/Graphics/SVG/1.1/DTD/svg11.dtd">
<svg version="1.1" id="Layer_1" xmlns="http://www.w3.org/2000/svg" xmlns:xlink="http://www.w3.org/1999/xlink" x="0px" y="0px"
	 width="100px" height="100px" viewBox="0 0 100 100" enable-background="new 0 0 100 100" xml:space="preserve">
<g>
	<g>
		<path d="M51.13,77.631c-0.49,0-0.98-0.187-1.354-0.561L24.494,51.788c-0.359-0.359-0.561-0.847-0.561-1.354
			c0-0.508,0.202-0.995,0.561-1.354l25.283-25.282c0.748-0.748,1.96-0.748,2.708,0l25.282,25.282
			c0.359,0.359,0.561,0.847,0.561,1.354c0,0.507-0.202,0.995-0.561,1.354L52.484,77.07C52.11,77.444,51.62,77.631,51.13,77.631z
			 M28.556,50.434L51.13,73.007l22.574-22.573L51.13,27.86L28.556,50.434z"/>
	</g>
	<path d="M60.037,45.691l-5.342-5.342c-0.748-0.749-1.96-0.749-2.708,0c-0.748,0.748-0.748,1.96,0,2.708l2.059,2.059H43.577
		c-1.058,0-1.916,0.858-1.916,1.916v12.131c0,1.058,0.857,1.916,1.916,1.916s1.916-0.858,1.916-1.916V48.947h8.581l-1.692,1.692
		c-0.748,0.749-0.748,1.96,0,2.708c0.375,0.374,0.864,0.562,1.354,0.562s0.98-0.188,1.354-0.562l4.948-4.948
		C60.786,47.651,60.786,46.439,60.037,45.691z"/>
</g>
</svg>
