<?xml version="1.0" encoding="utf-8"?>
<!-- Generator: Adobe Illustrator 16.0.0, SVG Export Plug-In . SVG Version: 6.00 Build 0)  -->
<!DOCTYPE svg PUBLIC "-//W3C//DTD SVG 1.1//EN" "http://www.w3.org/Graphics/SVG/1.1/DTD/svg11.dtd">
<svg version="1.1" id="Layer_1" xmlns="http://www.w3.org/2000/svg" xmlns:xlink="http://www.w3.org/1999/xlink" x="0px" y="0px"
	 width="100px" height="100px" viewBox="0 0 100 100" enable-background="new 0 0 100 100" xml:space="preserve">
<g>
	<path d="M59.697,53.531c0.886,1.156,2.223,1.855,3.587,1.916c0.147,0.017,0.294,0.022,0.44,0.022l0.382-0.016
		c0.503-0.034,0.973-0.143,1.406-0.327l9.866-5.057c2.483-1.274,3.537-4.344,2.35-6.842l-0.505-1.062
		c-0.832-1.748-2.552-2.834-4.489-2.834c-0.8,0-1.604,0.195-2.328,0.566l-3.702,1.902l-1.728-4.181
		c-0.353-0.741-0.824-1.398-1.371-1.962c4.306-0.909,7.556-4.85,7.556-9.556c0-5.377-4.243-9.749-9.459-9.749
		c-5.215,0-9.458,4.372-9.458,9.749c0,1.32,0.259,2.578,0.721,3.726c-0.537-0.053-1.083-0.032-1.609,0.095
		c-0.163-0.013-0.327-0.022-0.494-0.022H35.406c-0.757,0-1.506,0.119-2.226,0.355c-1.386,0.313-2.571,1.233-3.219,2.448
		c-0.116,0.19-0.212,0.386-0.308,0.604c-0.267,0.616-0.396,1.211-0.396,1.811v11.148c0,2.879,2.233,5.221,4.979,5.221h1.141
		c2.744,0,4.977-2.342,4.977-5.221v-4.695h3.188L37.35,53.956c-0.621,1.209-0.732,2.604-0.324,3.899
		c-0.002,0.016-0.002,0.032-0.002,0.047v6.065h-5.492c-3.164,0-5.738,2.641-5.738,5.885v1.483c0,3.245,2.574,5.886,5.738,5.886
		h12.658c3.162,0,5.736-2.641,5.736-5.886v-3.305l14.756,15.334c1.086,1.13,2.535,1.75,4.082,1.75s2.998-0.62,4.084-1.75l1.01-1.05
		c2.192-2.277,2.192-5.988,0-8.269l-17.354-18.03l2.053-4.108C58.865,52.5,59.248,53.043,59.697,53.531z M61.702,20.3
		c3.04,0,5.512,2.603,5.512,5.804c0,3.2-2.472,5.806-5.512,5.806c-3.039,0-5.511-2.605-5.511-5.806
		C56.191,22.902,58.663,20.3,61.702,20.3z M71.014,76.783c0.729,0.759,0.729,2.038,0,2.797l-1.01,1.048
		c-0.67,0.697-1.81,0.697-2.479,0l-18.053-18.76l-0.498-0.437l-2.995-0.718v10.622c0,1.07-0.803,1.938-1.79,1.938H31.531
		c-0.988,0-1.791-0.868-1.791-1.938v-1.483c0-1.069,0.803-1.938,1.791-1.938h9.438l-0.001-9.944l0.064-0.714l-0.193-0.45
		c-0.15-0.349-0.143-0.731,0.029-1.069l9.059-18.11h-13.52v8.642c0,0.69-0.473,1.274-1.031,1.274h-1.141
		c-0.559,0-1.031-0.584-1.031-1.274V35.12c0-0.022,0.007-0.096,0.032-0.159l0.146-0.292c0.165-0.309,0.42-0.516,0.695-0.569
		l0.271-0.074c0.341-0.117,0.697-0.178,1.057-0.178h15.455c0.145,0,0.285,0.02,0.424,0.035l0.453,0.057l0.433-0.148
		c0.257-0.089,0.523-0.07,0.757,0.062l7.045,3.901c0.07,0.04,0.135,0.084,0.193,0.133l0.178,0.139
		c0.307,0.207,0.74,0.601,1.027,1.197l3.322,8.049l7.519-3.862c0.55-0.28,1.196-0.074,1.448,0.455l0.504,1.062
		c0.277,0.58,0.007,1.33-0.588,1.636l-9.612,4.936c0,0-0.043,0.019-0.163,0.021l-0.076,0.007v1.971l-0.139-1.957
		c0.013-0.003,0.02-0.003,0.03-0.004l-0.03,0.004l-0.002-0.025c-0.314-0.015-0.596-0.163-0.771-0.406l-0.172-0.206
		c-0.264-0.276-0.481-0.594-0.606-0.85l-3.149-7.625l-7.158,14.315L71.014,76.783z"/>
	<path d="M63.616,51.535l0.108-0.01v-0.003C63.73,51.522,63.682,51.525,63.616,51.535z"/>
</g>
</svg>
