<?xml version="1.0" encoding="utf-8"?>
<!-- Generator: Adobe Illustrator 16.0.0, SVG Export Plug-In . SVG Version: 6.00 Build 0)  -->
<!DOCTYPE svg PUBLIC "-//W3C//DTD SVG 1.1//EN" "http://www.w3.org/Graphics/SVG/1.1/DTD/svg11.dtd">
<svg version="1.1" id="Layer_1" xmlns="http://www.w3.org/2000/svg" xmlns:xlink="http://www.w3.org/1999/xlink" x="0px" y="0px"
	 width="100px" height="100px" viewBox="0 0 100 100" enable-background="new 0 0 100 100" xml:space="preserve">
<g>
	<path d="M80.725,67.283c5.805,0,10.529-4.724,10.529-10.529c0-4.434-2.781-8.277-6.729-9.81c0.248-0.902,0.377-1.838,0.377-2.785
		c0-5.806-4.725-10.528-10.529-10.528c-4.881,0-8.984,3.343-10.172,7.856c-0.289-0.115-0.58-0.227-0.877-0.322
		c0.461-1.367,0.699-2.806,0.699-4.265c0-7.383-6.006-13.39-13.389-13.39c-7.385,0-13.391,6.007-13.391,13.39
		c0,1.521,0.258,3.019,0.758,4.436c-0.383,0.142-0.74,0.333-1.105,0.507c-1.059-4.694-5.254-8.212-10.264-8.212
		c-5.805,0-10.529,4.723-10.529,10.528c0,1,0.143,1.987,0.42,2.936c-3.762,1.628-6.338,5.37-6.338,9.659
		c0,5.806,4.723,10.529,10.529,10.529c1.316,0,2.596-0.275,3.797-0.746l0.002,5.128h-8.779c-1.291,0-2.336,1.047-2.336,2.337
		c0,1.291,1.045,2.338,2.336,2.338H35.93h2.035h25.51h2.447h19.783c1.291,0,2.336-1.047,2.336-2.338c0-1.29-1.045-2.337-2.336-2.337
		h-8.777v-5.128C78.129,67.008,79.408,67.283,80.725,67.283z M68.52,44.159c0-3.229,2.625-5.854,5.854-5.854
		s5.855,2.626,5.855,5.854c0,1.12-0.324,2.215-0.936,3.164c-0.449,0.695-0.496,1.578-0.123,2.317
		c0.373,0.741,1.111,1.228,1.938,1.281c3.068,0.197,5.471,2.759,5.471,5.832c0,3.229-2.625,5.854-5.854,5.854
		c-1.67,0-3.268-0.724-4.383-1.986c-0.016-0.019-0.037-0.031-0.053-0.049c-0.064-0.067-0.133-0.128-0.205-0.188
		c-0.049-0.041-0.098-0.085-0.148-0.123c-0.084-0.058-0.174-0.106-0.266-0.154c-0.047-0.025-0.092-0.056-0.143-0.077
		c-0.109-0.049-0.227-0.082-0.346-0.114c-0.035-0.009-0.07-0.025-0.107-0.033c-0.156-0.033-0.318-0.052-0.484-0.052
		s-0.328,0.019-0.486,0.052c-0.035,0.008-0.068,0.022-0.104,0.032c-0.119,0.031-0.238,0.066-0.348,0.115
		c-0.049,0.021-0.094,0.052-0.141,0.076c-0.092,0.049-0.184,0.096-0.27,0.156c-0.051,0.035-0.096,0.079-0.145,0.12
		c-0.072,0.06-0.145,0.122-0.209,0.19c-0.016,0.017-0.035,0.029-0.051,0.048c-0.891,1.01-2.096,1.653-3.395,1.88
		c1.963-2.329,3.15-5.331,3.15-8.608c0-3.737-1.557-7.14-4.064-9.58C68.529,44.262,68.52,44.212,68.52,44.159z M37.172,47.128
		c1.244-1.009,2.771-1.691,4.467-1.887c0.805-0.093,1.504-0.595,1.848-1.328c0.346-0.731,0.285-1.592-0.156-2.27
		c-0.924-1.417-1.412-3.058-1.412-4.743c0-4.806,3.91-8.716,8.717-8.716c4.805,0,8.715,3.91,8.715,8.716
		c0,1.669-0.48,3.299-1.391,4.711c-0.449,0.695-0.496,1.577-0.123,2.317s1.109,1.228,1.938,1.281
		c1.645,0.104,3.154,0.682,4.422,1.571c1.477,1.038,2.596,2.519,3.205,4.241c0.32,0.903,0.52,1.863,0.52,2.871
		c0,2.882-1.412,5.434-3.574,7.021c-1.32,0.968-2.916,1.572-4.652,1.67c-0.162,0.009-0.324,0.023-0.49,0.023
		c-2.488,0-4.867-1.077-6.525-2.956c-0.016-0.019-0.035-0.03-0.051-0.047c-0.064-0.07-0.137-0.131-0.209-0.192
		c-0.049-0.039-0.094-0.082-0.145-0.118c-0.086-0.062-0.178-0.109-0.27-0.158c-0.047-0.024-0.092-0.054-0.141-0.075
		c-0.109-0.048-0.229-0.083-0.348-0.115c-0.035-0.009-0.068-0.024-0.104-0.032c-0.158-0.033-0.32-0.052-0.486-0.052
		s-0.328,0.019-0.484,0.052c-0.037,0.008-0.068,0.023-0.105,0.032c-0.119,0.032-0.236,0.067-0.348,0.115
		c-0.049,0.021-0.092,0.051-0.139,0.075c-0.094,0.049-0.186,0.097-0.27,0.158c-0.051,0.036-0.098,0.079-0.145,0.118
		c-0.074,0.062-0.145,0.122-0.209,0.192c-0.018,0.017-0.037,0.028-0.053,0.047c-1.658,1.879-4.037,2.956-6.525,2.956
		c-0.301,0-0.598-0.015-0.891-0.045c-1.689-0.172-3.234-0.836-4.5-1.835c-2.021-1.598-3.324-4.066-3.324-6.835
		c0-0.98,0.186-1.918,0.486-2.8C34.953,49.526,35.904,48.153,37.172,47.128z M14.859,56.754c0-2.974,2.227-5.472,5.176-5.812
		c0.805-0.092,1.504-0.595,1.848-1.328c0.346-0.731,0.285-1.59-0.156-2.269c-0.621-0.952-0.947-2.054-0.947-3.187
		c0-3.229,2.625-5.854,5.854-5.854s5.855,2.626,5.855,5.854c0,0.425-0.061,0.841-0.152,1.25c-1.912,2.323-3.076,5.271-3.076,8.484
		c0,3.3,1.205,6.32,3.193,8.657c-1.473-0.137-2.857-0.804-3.852-1.929c-0.016-0.019-0.037-0.031-0.053-0.049
		c-0.064-0.067-0.135-0.128-0.205-0.188c-0.049-0.041-0.096-0.085-0.148-0.123c-0.084-0.058-0.174-0.106-0.266-0.154
		c-0.047-0.025-0.092-0.056-0.143-0.077c-0.109-0.049-0.227-0.082-0.346-0.114c-0.035-0.009-0.07-0.025-0.107-0.033
		c-0.156-0.033-0.318-0.052-0.484-0.052s-0.328,0.019-0.486,0.052c-0.035,0.008-0.068,0.022-0.104,0.032
		c-0.119,0.031-0.236,0.066-0.348,0.115c-0.049,0.021-0.094,0.052-0.141,0.076c-0.092,0.049-0.184,0.096-0.268,0.156
		c-0.053,0.035-0.098,0.079-0.145,0.12c-0.074,0.06-0.145,0.122-0.211,0.19c-0.016,0.017-0.035,0.029-0.051,0.048
		c-1.115,1.263-2.713,1.986-4.383,1.986C17.486,62.608,14.859,59.982,14.859,56.754z M35.93,71.665h-6.742v-5.128
		c1.201,0.471,2.48,0.746,3.797,0.746c1.619,0,3.145-0.378,4.516-1.032c1.586,0.662,3.326,1.032,5.148,1.032
		c2.084,0,4.109-0.499,5.941-1.411v5.793H37.965H35.93z M65.922,71.665h-2.447H53.264v-5.793c1.83,0.912,3.857,1.411,5.939,1.411
		c1.736,0,3.391-0.343,4.914-0.946c1.324,0.603,2.791,0.946,4.338,0.946c1.316,0,2.596-0.275,3.797-0.746l0.002,5.128H65.922z"/>
</g>
</svg>
