<?xml version="1.0" encoding="utf-8"?>
<!-- Generator: Adobe Illustrator 16.0.0, SVG Export Plug-In . SVG Version: 6.00 Build 0)  -->
<!DOCTYPE svg PUBLIC "-//W3C//DTD SVG 1.1//EN" "http://www.w3.org/Graphics/SVG/1.1/DTD/svg11.dtd">
<svg version="1.1" id="Layer_1" xmlns="http://www.w3.org/2000/svg" xmlns:xlink="http://www.w3.org/1999/xlink" x="0px" y="0px"
	 width="100px" height="100px" viewBox="0 0 100 100" enable-background="new 0 0 100 100" xml:space="preserve">
<g>
	<path d="M77.449,79.818L71.106,45.18c-0.203-1.109-1.171-1.916-2.299-1.916H54.069v-2.645h19.13c1.291,0,2.337-1.047,2.337-2.338
		v-9.758c0-1.289-1.046-2.336-2.337-2.336s-2.337,1.047-2.337,2.336v7.422h-38.26v-7.422c0-1.289-1.046-2.336-2.337-2.336
		s-2.337,1.047-2.337,2.336v9.758c0,1.291,1.046,2.338,2.337,2.338h19.13v2.645H32.948c-1.134,0-2.105,0.814-2.301,1.932
		l-6.099,34.641c-0.12,0.68,0.067,1.379,0.512,1.906c0.444,0.529,1.099,0.836,1.79,0.836H75.15c0.694,0,1.351-0.309,1.795-0.842
		C77.389,81.203,77.574,80.502,77.449,79.818z M29.634,77.902l5.275-29.965h31.95l5.486,29.965H29.634z"/>
	<path d="M51,49.729c-6.736,0-12.217,5.48-12.217,12.217S44.264,74.162,51,74.162c6.736,0,12.217-5.48,12.217-12.217
		S57.736,49.729,51,49.729z M51,69.488c-4.159,0-7.542-3.385-7.542-7.543c0-3.338,2.194-6.145,5.205-7.135v7.135
		c0,1.289,1.046,2.336,2.337,2.336s2.337-1.047,2.337-2.336v-7.135c3.011,0.99,5.205,3.797,5.205,7.135
		C58.542,66.104,55.159,69.488,51,69.488z"/>
</g>
</svg>
