<?xml version="1.0" encoding="utf-8"?>
<!-- Generator: Adobe Illustrator 16.0.0, SVG Export Plug-In . SVG Version: 6.00 Build 0)  -->
<!DOCTYPE svg PUBLIC "-//W3C//DTD SVG 1.1//EN" "http://www.w3.org/Graphics/SVG/1.1/DTD/svg11.dtd">
<svg version="1.1" id="Layer_1" xmlns="http://www.w3.org/2000/svg" xmlns:xlink="http://www.w3.org/1999/xlink" x="0px" y="0px"
	 width="100px" height="100px" viewBox="0 0 100 100" enable-background="new 0 0 100 100" xml:space="preserve">
<g>
	<path d="M50.15,23.731c-15.356,0-27.851,12.494-27.851,27.851S34.794,79.433,50.15,79.433c15.357,0,27.852-12.494,27.852-27.851
		S65.508,23.731,50.15,23.731z M50.15,74.944c-12.882,0-23.362-10.48-23.362-23.362S37.269,28.22,50.15,28.22
		c12.883,0,23.363,10.48,23.363,23.362S63.033,74.944,50.15,74.944z"/>
	<path d="M60.624,49.338H39.678c-1.239,0-2.244,1.005-2.244,2.244s1.005,2.244,2.244,2.244h20.946c1.239,0,2.244-1.005,2.244-2.244
		S61.863,49.338,60.624,49.338z"/>
</g>
</svg>
