<?xml version="1.0" encoding="utf-8"?>
<!-- Generator: Adobe Illustrator 16.0.0, SVG Export Plug-In . SVG Version: 6.00 Build 0)  -->
<!DOCTYPE svg PUBLIC "-//W3C//DTD SVG 1.1//EN" "http://www.w3.org/Graphics/SVG/1.1/DTD/svg11.dtd">
<svg version="1.1" id="Layer_1" xmlns="http://www.w3.org/2000/svg" xmlns:xlink="http://www.w3.org/1999/xlink" x="0px" y="0px"
	 width="100px" height="100px" viewBox="0 0 100 100" enable-background="new 0 0 100 100" xml:space="preserve">
<g>
	<path d="M65.717,77.868h-15.03c-0.412,0-0.816-0.108-1.172-0.315c-1.012-0.585-1.639-1.664-1.639-2.814
		c0-0.621,0.189-1.236,0.549-1.785c0.125-0.189,0.277-0.361,0.452-0.508c0.007-0.006,0.12-0.099,0.128-0.105l0.123-0.104
		c0.563-0.578,0.878-1.348,0.878-2.158c0-1.719-1.397-3.116-3.116-3.116s-3.116,1.397-3.116,3.116c0,0.808,0.313,1.576,0.882,2.162
		c0.064,0.063,0.129,0.111,0.191,0.161c0.234,0.188,0.525,0.501,0.672,0.765c0.277,0.503,0.417,1.031,0.417,1.572
		c0,1.147-0.626,2.227-1.634,2.813c-0.357,0.208-0.764,0.317-1.177,0.317H28.063c-1.291,0-2.337-1.047-2.337-2.337V37.876
		c0-1.291,1.046-2.337,2.337-2.337h11.687c-0.426-0.971-0.65-2.028-0.65-3.116c0-4.295,3.496-7.791,7.791-7.791
		s7.791,3.495,7.791,7.791c0,1.088-0.225,2.144-0.651,3.116h11.688c1.291,0,2.337,1.047,2.337,2.337v11.688
		c0.973-0.427,2.029-0.651,3.116-0.651c4.296,0,7.79,3.495,7.79,7.79s-3.494,7.791-7.79,7.791c-1.087,0-2.145-0.225-3.116-0.652
		v11.689C68.054,76.821,67.008,77.868,65.717,77.868z M54.029,73.194h9.351V60.5c0-0.411,0.108-0.816,0.314-1.172
		c0.903-1.56,3.02-2.119,4.595-1.093c0.194,0.126,0.37,0.282,0.519,0.461l0.199,0.241c0.583,0.566,1.352,0.882,2.163,0.882
		c1.719,0,3.116-1.398,3.116-3.116s-1.397-3.116-3.116-3.116c-0.808,0-1.576,0.313-2.164,0.884
		c-0.062,0.062-0.114,0.133-0.169,0.201c-0.191,0.237-0.494,0.516-0.76,0.664c-1.57,0.859-3.517,0.26-4.381-1.221
		c-0.207-0.357-0.316-0.763-0.316-1.176V40.213H50.687c-0.412,0-0.816-0.108-1.172-0.315c-1.012-0.585-1.639-1.665-1.639-2.815
		c0-0.621,0.189-1.237,0.549-1.785c0.125-0.19,0.277-0.362,0.452-0.508c0.007-0.006,0.12-0.099,0.128-0.105l0.123-0.104
		c0.563-0.578,0.878-1.348,0.878-2.159c0-1.718-1.397-3.116-3.116-3.116s-3.116,1.398-3.116,3.116c0,0.808,0.313,1.577,0.882,2.163
		c0.064,0.063,0.129,0.111,0.191,0.161c0.234,0.188,0.525,0.5,0.672,0.765c0.277,0.502,0.417,1.03,0.417,1.572
		c0,1.147-0.626,2.226-1.634,2.812c-0.357,0.208-0.764,0.318-1.177,0.318H30.399v32.98h9.35c-0.426-0.972-0.65-2.028-0.65-3.116
		c0-4.296,3.496-7.791,7.791-7.791s7.791,3.495,7.791,7.791C54.681,71.166,54.456,72.221,54.029,73.194z"/>
</g>
</svg>
