<?xml version="1.0" encoding="utf-8"?>
<!-- Generator: Adobe Illustrator 16.0.0, SVG Export Plug-In . SVG Version: 6.00 Build 0)  -->
<!DOCTYPE svg PUBLIC "-//W3C//DTD SVG 1.1//EN" "http://www.w3.org/Graphics/SVG/1.1/DTD/svg11.dtd">
<svg version="1.1" id="Layer_1" xmlns="http://www.w3.org/2000/svg" xmlns:xlink="http://www.w3.org/1999/xlink" x="0px" y="0px"
	 width="100px" height="100px" viewBox="0 0 100 100" enable-background="new 0 0 100 100" xml:space="preserve">
<g>
	<path d="M78.254,55.984c-0.316-0.799-1.221-1.192-2.021-0.875l-19.342,7.649c-1.329-3.002-4.332-5.105-7.821-5.105
		c-0.248,0-0.492,0.017-0.735,0.038L37.268,27.564c-0.285-0.774-1.119-1.194-1.914-0.954l-10.611,3.217
		c-0.824,0.25-1.289,1.12-1.04,1.943c0.249,0.822,1.118,1.285,1.943,1.039l9.204-2.791L45.324,58.53
		c-2.84,1.392-4.806,4.305-4.806,7.675c0,4.715,3.836,8.553,8.552,8.553s8.552-3.838,8.552-8.553c0-0.128-0.014-0.251-0.019-0.378
		l19.775-7.82C78.179,57.69,78.571,56.785,78.254,55.984z M49.07,71.642c-2.998,0-5.436-2.439-5.436-5.437
		c0-2.319,1.466-4.288,3.515-5.067c0.079,0.011,0.153,0.035,0.233,0.035c0.179,0,0.36-0.03,0.537-0.096
		c0.142-0.052,0.256-0.143,0.372-0.229c0.256-0.038,0.512-0.079,0.779-0.079c2.998,0,5.436,2.438,5.436,5.436
		C54.506,69.202,52.068,71.642,49.07,71.642z"/>
	<path d="M49.07,61.513c-2.588,0-4.693,2.104-4.693,4.692c0,2.588,2.105,4.694,4.693,4.694c2.588,0,4.693-2.106,4.693-4.694
		C53.764,63.616,51.659,61.513,49.07,61.513z M49.07,67.782c-0.87,0-1.577-0.707-1.577-1.577c0-0.869,0.707-1.576,1.577-1.576
		s1.577,0.707,1.577,1.576C50.647,67.075,49.94,67.782,49.07,67.782z"/>
	<path d="M50.458,46.199l5.434,14.449c0.145,0.388,0.438,0.699,0.814,0.871c0.205,0.092,0.424,0.139,0.644,0.139
		c0.186,0,0.372-0.033,0.549-0.101l14.447-5.434c0.806-0.303,1.213-1.2,0.91-2.005l-5.432-14.446
		c-0.303-0.807-1.203-1.211-2.007-0.911l-1.702,0.641l-3.696-9.829c-0.146-0.389-0.439-0.7-0.815-0.872
		c-0.375-0.169-0.803-0.185-1.192-0.038l-11.288,4.245c-0.806,0.303-1.213,1.2-0.91,2.006L50.458,46.199z M69.79,53.757
		l-11.53,4.337l-4.336-11.531l9.829-3.694c0.001,0,0.002-0.001,0.002-0.001l1.7-0.64L69.79,53.757z M58.05,32.128l3.146,8.37
		l-8.371,3.146l-3.146-8.368L58.05,32.128z"/>
</g>
</svg>
