<?xml version="1.0" encoding="utf-8"?>
<!-- Generator: Adobe Illustrator 16.0.0, SVG Export Plug-In . SVG Version: 6.00 Build 0)  -->
<!DOCTYPE svg PUBLIC "-//W3C//DTD SVG 1.1//EN" "http://www.w3.org/Graphics/SVG/1.1/DTD/svg11.dtd">
<svg version="1.1" id="Layer_1" xmlns="http://www.w3.org/2000/svg" xmlns:xlink="http://www.w3.org/1999/xlink" x="0px" y="0px"
	 width="100px" height="100px" viewBox="0 0 100 100" enable-background="new 0 0 100 100" xml:space="preserve">
<path d="M84.791,47.658l-7.188-4.313l7.206-4.407c0.719-0.438,1.159-1.219,1.163-2.063c0.004-0.843-0.428-1.627-1.143-2.074
	L65.48,22.709c-0.777-0.483-1.758-0.492-2.541-0.022l-9.632,5.78l-9.632-5.78c-0.784-0.47-1.765-0.461-2.541,0.022L21.787,34.801
	c-0.715,0.447-1.147,1.231-1.143,2.074c0.004,0.844,0.444,1.624,1.163,2.063l7.206,4.407l-7.188,4.313
	c-0.729,0.438-1.177,1.225-1.181,2.074c-0.004,0.852,0.437,1.643,1.163,2.086l9.408,5.754v6.92c0,0.825,0.418,1.595,1.111,2.043
	l19.661,12.722c0.026,0.018,0.058,0.022,0.084,0.038s0.047,0.041,0.075,0.056c0.101,0.056,0.21,0.084,0.316,0.123
	c0.07,0.027,0.135,0.062,0.205,0.081c0.211,0.057,0.425,0.092,0.641,0.092s0.43-0.035,0.641-0.092
	c0.07-0.02,0.135-0.054,0.205-0.081c0.106-0.039,0.215-0.067,0.316-0.123c0.028-0.015,0.048-0.04,0.075-0.056
	s0.059-0.021,0.084-0.038L74.29,66.535c0.692-0.448,1.11-1.218,1.11-2.043v-6.92l9.408-5.754c0.726-0.443,1.167-1.234,1.163-2.086
	C85.967,48.883,85.52,48.096,84.791,47.658z M64.165,27.624l14.749,9.218l-5.863,3.585l-8.739-5.243l-6.311-3.86L64.165,27.624z
	 M27.702,36.842l14.749-9.218l6.164,3.699l-6.311,3.86l-8.739,5.243L27.702,36.842z M31.215,51.872l-3.445-2.107l3.445-2.067
	l2.349-1.445l2.516,1.301l11.02,6.74l1.583,0.99l-5.945,3.635l-6.658-4.072L31.215,51.872z M50.875,72.744l-14.796-9.575v-2.621
	l5.389,3.297c0.39,0.239,0.829,0.358,1.269,0.358c0.439,0,0.88-0.119,1.27-0.358l6.869-4.201V72.744z M53.308,52.389l-3.596-2.2
	l-11.188-6.991l6.243-3.819l8.542-5.126l8.542,5.126l6.243,3.819l-11.188,6.991L53.308,52.389z M70.536,63.169L55.74,72.744V59.644
	l6.87,4.201c0.389,0.239,0.83,0.358,1.269,0.358c0.44,0,0.879-0.119,1.269-0.358l5.389-3.297V63.169z M75.4,51.872l-4.864,2.974
	l-6.658,4.072l-5.945-3.635l1.583-0.99l11.02-6.74l2.277-1.301l2.587,1.445l3.445,2.067L75.4,51.872z"/>
</svg>
