<?xml version="1.0" encoding="utf-8"?>
<!-- Generator: Adobe Illustrator 16.0.0, SVG Export Plug-In . SVG Version: 6.00 Build 0)  -->
<!DOCTYPE svg PUBLIC "-//W3C//DTD SVG 1.1//EN" "http://www.w3.org/Graphics/SVG/1.1/DTD/svg11.dtd">
<svg version="1.1" id="Layer_1" xmlns="http://www.w3.org/2000/svg" xmlns:xlink="http://www.w3.org/1999/xlink" x="0px" y="0px"
	 width="100px" height="100px" viewBox="0 0 100 100" enable-background="new 0 0 100 100" xml:space="preserve">
<g>
	<path d="M61.809,56.658l-5.453-6.498c-0.016-0.019-0.038-0.032-0.055-0.051c-0.085-0.095-0.178-0.18-0.278-0.259
		c-0.012-0.01-0.023-0.021-0.036-0.029c-0.377-0.286-0.841-0.463-1.351-0.463c-0.51,0-0.974,0.177-1.351,0.463
		c-0.012,0.009-0.023,0.019-0.036,0.029c-0.099,0.079-0.193,0.164-0.277,0.259c-0.017,0.019-0.039,0.032-0.055,0.051l-5.453,6.498
		c-0.797,0.948-0.673,2.364,0.276,3.162c0.95,0.795,2.366,0.672,3.162-0.277l1.49-1.775v27.765c0,1.239,1.004,2.244,2.244,2.244
		s2.244-1.005,2.244-2.244V57.767l1.489,1.775c0.444,0.529,1.08,0.802,1.721,0.802c0.508,0,1.021-0.172,1.441-0.524
		C62.482,59.021,62.606,57.606,61.809,56.658z"/>
	<path d="M73.918,29.792c-0.832,0-1.664,0.062-2.489,0.181c-3.216-3.36-7.266-5.723-11.809-6.874c-0.059-0.016-0.12-0.029-0.18-0.04
		l-2.93-0.554c-3.584-4.482-9.01-7.117-14.803-7.117c-9.962,0-18.153,7.723-18.9,17.496c-6.747,2.546-11.281,8.969-11.281,16.356
		c0,9.653,7.854,17.508,17.509,17.508c2.491,0,4.93-0.526,7.169-1.536c3.032,2.925,6.745,4.978,10.766,6.063v-6.255
		c-3.007-1.094-5.712-2.921-7.884-5.47c-0.587-0.69-1.427-1.052-2.279-1.052c-0.554,0-1.114,0.153-1.611,0.472
		c-1.834,1.173-3.964,1.792-6.161,1.792c-6.355,0-11.525-5.169-11.525-11.523c0-5.31,3.761-10.027,8.943-11.219
		c1.412-0.325,2.389-1.615,2.318-3.063l-0.02-0.32c-0.006-0.098-0.015-0.197-0.015-0.297c0-7.152,5.819-12.97,12.971-12.97
		c4.325,0,8.351,2.146,10.77,5.74c0.556,0.827,1.486,1.322,2.482,1.322c0.005,0,0.009,0,0.014,0l0.675-0.003l2.589,0.488
		c3.858,0.998,7.245,3.15,9.794,6.229c0.741,0.896,1.93,1.281,3.052,0.989c0.932-0.241,1.886-0.362,2.835-0.362
		c6.325,0,11.471,5.146,11.471,11.471c0,6.325-5.146,11.469-11.471,11.469c-0.949,0-1.903-0.121-2.834-0.362
		c-1.124-0.292-2.313,0.095-3.052,0.988c-1.606,1.939-3.565,3.474-5.726,4.614v6.589c3.419-1.297,6.542-3.331,9.123-6.025
		c0.826,0.12,1.658,0.181,2.49,0.181c9.625,0,17.455-7.83,17.455-17.454C91.373,37.622,83.542,29.792,73.918,29.792z"/>
</g>
</svg>
