<?xml version="1.0" encoding="utf-8"?>
<!-- Generator: Adobe Illustrator 16.0.0, SVG Export Plug-In . SVG Version: 6.00 Build 0)  -->
<!DOCTYPE svg PUBLIC "-//W3C//DTD SVG 1.1//EN" "http://www.w3.org/Graphics/SVG/1.1/DTD/svg11.dtd">
<svg version="1.1" id="Layer_1" xmlns="http://www.w3.org/2000/svg" xmlns:xlink="http://www.w3.org/1999/xlink" x="0px" y="0px"
	 width="100px" height="100px" viewBox="0 0 100 100" enable-background="new 0 0 100 100" xml:space="preserve">
<g>
	<path d="M73.309,85.911c-0.616,0-1.233-0.19-1.759-0.571L52.194,71.275L32.838,85.339c-1.049,0.763-2.469,0.763-3.519,0
		c-1.049-0.762-1.487-2.112-1.087-3.346l7.393-22.756L16.269,45.175c-1.049-0.763-1.487-2.113-1.087-3.346
		c0.4-1.233,1.549-2.067,2.846-2.067h23.926l7.393-22.756c0.4-1.233,1.55-2.067,2.846-2.067s2.446,0.834,2.846,2.067l7.393,22.756
		h23.926c1.297,0,2.446,0.834,2.846,2.067c0.4,1.233-0.038,2.583-1.087,3.346L68.763,59.238l7.393,22.756
		c0.4,1.233-0.038,2.583-1.087,3.346C74.545,85.721,73.927,85.911,73.309,85.911z M52.194,64.585c0.617,0,1.235,0.19,1.759,0.571
		l13.666,9.928L62.398,59.02c-0.4-1.233,0.038-2.583,1.087-3.346l13.666-9.928H60.259c-1.295,0-2.444-0.834-2.846-2.067
		l-5.219-16.066l-5.219,16.066c-0.402,1.233-1.552,2.067-2.846,2.067H27.237l13.666,9.928c1.049,0.763,1.487,2.113,1.087,3.346
		l-5.22,16.064l13.666-9.928C50.959,64.775,51.578,64.585,52.194,64.585z"/>
</g>
</svg>
