<?xml version="1.0" encoding="utf-8"?>
<!-- Generator: Adobe Illustrator 16.0.0, SVG Export Plug-In . SVG Version: 6.00 Build 0)  -->
<!DOCTYPE svg PUBLIC "-//W3C//DTD SVG 1.1//EN" "http://www.w3.org/Graphics/SVG/1.1/DTD/svg11.dtd">
<svg version="1.1" id="Layer_1" xmlns="http://www.w3.org/2000/svg" xmlns:xlink="http://www.w3.org/1999/xlink" x="0px" y="0px"
	 width="100px" height="100px" viewBox="0 0 100 100" enable-background="new 0 0 100 100" xml:space="preserve">
<g>
	<path fill="none" d="M47.152,49.494h15.266V34.71H47.152V49.494z M48.507,36.468h12.237v11.49H48.507V36.468z"/>
	<rect x="66.249" y="46.94" fill="none" width="4.286" height="2.554"/>
	<rect x="66.249" y="40.555" fill="none" width="4.286" height="2.554"/>
	<rect x="66.249" y="34.71" fill="none" width="4.286" height="2.014"/>
	<rect x="39.034" y="46.94" fill="none" width="4.287" height="2.554"/>
	<rect x="39.034" y="40.555" fill="none" width="4.287" height="2.554"/>
	<rect x="39.034" y="34.71" fill="none" width="4.287" height="2.014"/>
	<path fill="none" d="M62.258,53.19H46.992v14.783h15.266V53.19z M60.903,66.216H48.666v-11.49h12.237V66.216z"/>
	<rect x="38.875" y="53.19" fill="none" width="4.286" height="2.554"/>
	<rect x="38.875" y="59.575" fill="none" width="4.286" height="2.554"/>
	<rect x="38.875" y="65.959" fill="none" width="4.286" height="2.014"/>
	<rect x="66.089" y="53.19" fill="none" width="4.287" height="2.554"/>
	<rect x="66.089" y="59.575" fill="none" width="4.287" height="2.554"/>
	<rect x="66.089" y="65.959" fill="none" width="4.287" height="2.014"/>
	<path d="M72.45,29.348c-0.927,0-1.7,0.659-1.877,1.532H66.21c-0.178-0.873-0.95-1.532-1.877-1.532
		c-0.926,0-1.698,0.659-1.876,1.532H47.112c-0.177-0.873-0.95-1.532-1.875-1.532c-0.928,0-1.7,0.659-1.878,1.532h-4.442
		c-0.263-0.742-0.965-1.277-1.798-1.277c-1.057,0-1.915,0.858-1.915,1.916v19.824h-0.159V71.42c0,1.058,0.857,1.916,1.916,1.916
		c0.927,0,1.7-0.658,1.877-1.531H43.2c0.178,0.873,0.95,1.531,1.876,1.531c0.927,0,1.699-0.658,1.877-1.531h15.344
		c0.177,0.873,0.95,1.531,1.875,1.531c0.928,0,1.7-0.658,1.878-1.531h4.442c0.263,0.742,0.965,1.277,1.798,1.277
		c1.058,0,1.916-0.858,1.916-1.916V51.342h0.158V31.264C74.365,30.206,73.509,29.348,72.45,29.348z M43.162,67.973h-4.286v-2.014
		h4.286V67.973z M43.162,62.128h-4.286v-2.554h4.286V62.128z M43.162,55.744h-4.286V53.19h4.286V55.744z M62.258,67.973H46.992
		V53.19h15.266V67.973z M70.376,67.973h-4.287v-2.014h4.287V67.973z M70.376,62.128h-4.287v-2.554h4.287V62.128z M70.376,55.744
		h-4.287V53.19h4.287V55.744z M66.249,34.71h4.286v2.014h-4.286V34.71z M66.249,40.555h4.286v2.554h-4.286V40.555z M66.249,46.94
		h4.286v2.554h-4.286V46.94z M47.152,34.71h15.266v14.783H47.152V34.71z M39.034,34.71h4.287v2.014h-4.287V34.71z M39.034,40.555
		h4.287v2.554h-4.287V40.555z M39.034,46.94h4.287v2.554h-4.287V46.94z"/>
</g>
</svg>
