<?xml version="1.0" encoding="utf-8"?>
<!-- Generator: Adobe Illustrator 16.0.0, SVG Export Plug-In . SVG Version: 6.00 Build 0)  -->
<!DOCTYPE svg PUBLIC "-//W3C//DTD SVG 1.1//EN" "http://www.w3.org/Graphics/SVG/1.1/DTD/svg11.dtd">
<svg version="1.1" id="Layer_1" xmlns="http://www.w3.org/2000/svg" xmlns:xlink="http://www.w3.org/1999/xlink" x="0px" y="0px"
	 width="100px" height="100px" viewBox="0 0 100 100" enable-background="new 0 0 100 100" xml:space="preserve">
<g>
	<path d="M52.205,34.641c-12.415,0-22.516,10.103-22.516,22.518S39.79,79.676,52.205,79.676s22.516-10.103,22.516-22.518
		S64.62,34.641,52.205,34.641z M52.205,75.496c-10.113,0-18.34-8.226-18.34-18.338c0-10.114,8.227-18.34,18.34-18.34
		s18.34,8.226,18.34,18.34C70.544,67.271,62.318,75.496,52.205,75.496z"/>
	<g>
		<path d="M50.599,67.856c-1.12-0.042-2.103-0.162-2.946-0.36c-0.845-0.201-1.503-0.432-1.975-0.691l1.15-3.369
			c0.353,0.216,0.849,0.422,1.487,0.618c0.638,0.195,1.4,0.335,2.284,0.414v-5.984c-0.609-0.273-1.213-0.578-1.812-0.913
			c-0.599-0.334-1.134-0.735-1.606-1.208c-0.472-0.471-0.851-1.034-1.135-1.693s-0.427-1.438-0.427-2.343
			c0-1.69,0.447-3.001,1.341-3.935c0.893-0.932,2.107-1.536,3.639-1.811v-2.684h3.065v2.565c0.864,0.057,1.621,0.174,2.269,0.351
			c0.648,0.174,1.247,0.38,1.797,0.612l-1.061,3.249c-0.334-0.156-0.756-0.313-1.267-0.471c-0.511-0.156-1.09-0.273-1.739-0.353
			v5.538c0.609,0.276,1.223,0.585,1.842,0.928c0.618,0.346,1.168,0.753,1.65,1.223c0.481,0.474,0.874,1.027,1.179,1.667
			c0.304,0.64,0.457,1.398,0.457,2.283c0,1.809-0.457,3.217-1.371,4.229c-0.913,1.012-2.165,1.663-3.756,1.957v2.742h-3.065V67.856z
			 M49.449,51.986c0,0.593,0.23,1.088,0.692,1.481c0.462,0.395,1.037,0.763,1.725,1.099v-4.806
			c-0.924,0.042-1.559,0.268-1.901,0.684C49.621,50.858,49.449,51.373,49.449,51.986z M54.96,61.902c0-0.623-0.25-1.133-0.751-1.529
			c-0.501-0.397-1.105-0.762-1.813-1.093v5.188c0.865-0.099,1.508-0.37,1.931-0.816C54.749,63.205,54.96,62.622,54.96,61.902z"/>
	</g>
</g>
</svg>
