<?xml version="1.0" encoding="utf-8"?>
<!-- Generator: Adobe Illustrator 16.0.0, SVG Export Plug-In . SVG Version: 6.00 Build 0)  -->
<!DOCTYPE svg PUBLIC "-//W3C//DTD SVG 1.1//EN" "http://www.w3.org/Graphics/SVG/1.1/DTD/svg11.dtd">
<svg version="1.1" id="Layer_1" xmlns="http://www.w3.org/2000/svg" xmlns:xlink="http://www.w3.org/1999/xlink" x="0px" y="0px"
	 width="100px" height="100px" viewBox="0 0 100 100" enable-background="new 0 0 100 100" xml:space="preserve">
<path d="M69.159,42.861c-0.023-9.354-7.639-16.957-16.998-16.957c-9.373,0-17,7.626-17,17c0,0.029,0.005,0.057,0.005,0.086
	c-4.908,2.984-8.204,8.368-8.204,14.521c0,9.374,7.625,17,17,17c3.018,0,5.848-0.799,8.307-2.184
	c2.46,1.385,5.291,2.184,8.309,2.184c9.374,0,17-7.626,17-17C77.577,51.27,74.187,45.817,69.159,42.861z M52.269,68.753
	c-3.076-2.279-5.197-5.776-5.614-9.782c1.729,0.596,3.578,0.934,5.507,0.934c2.014,0,3.938-0.37,5.73-1.016
	C57.495,62.929,55.366,66.458,52.269,68.753z M38.294,44.721c1.734-0.771,3.649-1.21,5.668-1.21c1.963,0,3.83,0.409,5.527,1.142
	c-2.813,2.43-4.828,5.754-5.581,9.535C40.896,51.977,38.8,48.6,38.294,44.721z M52.161,56.904c-1.938,0-3.787-0.397-5.467-1.113
	c0.48-3.896,2.566-7.293,5.574-9.522c2.984,2.211,5.059,5.57,5.561,9.426C56.095,56.467,54.18,56.904,52.161,56.904z M55.05,44.652
	c1.697-0.732,3.564-1.142,5.527-1.142c1.939,0,3.787,0.397,5.468,1.113c-0.474,3.838-2.505,7.19-5.44,9.422
	C59.83,50.322,57.827,47.052,55.05,44.652z M52.161,28.904c7.227,0,13.191,5.504,13.924,12.54c-1.73-0.595-3.578-0.934-5.508-0.934
	c-3.018,0-5.849,0.799-8.309,2.184c-2.459-1.385-5.289-2.184-8.307-2.184c-2.014,0-3.938,0.37-5.73,1.015
	C38.927,34.451,44.907,28.904,52.161,28.904z M43.962,71.511c-7.721,0-14-6.28-14-14c0-4.547,2.188-8.583,5.557-11.142
	c0.99,4.765,3.99,8.791,8.061,11.186c0.014,5.118,2.308,9.703,5.91,12.814C47.792,71.102,45.925,71.511,43.962,71.511z
	 M60.577,71.511c-1.963,0-3.83-0.409-5.527-1.142c3.612-3.12,5.912-7.722,5.912-12.858c0-0.029-0.005-0.058-0.005-0.086
	c4.001-2.433,6.93-6.455,7.874-11.197c3.476,2.55,5.746,6.651,5.746,11.283C74.577,65.23,68.297,71.511,60.577,71.511z"/>
</svg>
