<?xml version="1.0" encoding="utf-8"?>
<!-- Generator: Adobe Illustrator 16.0.0, SVG Export Plug-In . SVG Version: 6.00 Build 0)  -->
<!DOCTYPE svg PUBLIC "-//W3C//DTD SVG 1.1//EN" "http://www.w3.org/Graphics/SVG/1.1/DTD/svg11.dtd">
<svg version="1.1" id="Layer_1" xmlns="http://www.w3.org/2000/svg" xmlns:xlink="http://www.w3.org/1999/xlink" x="0px" y="0px"
	 width="100px" height="100px" viewBox="0 0 100 100" enable-background="new 0 0 100 100" xml:space="preserve">
<g>
	<path d="M68.273,76.23H37.393c-1.291,0-2.337-1.047-2.337-2.337V46.643c-0.705,0.104-1.445-0.119-1.987-0.661l-7.707-7.706
		c-0.913-0.913-0.913-2.393,0-3.305l10.078-10.079c0.438-0.438,1.032-0.685,1.652-0.685h7.706c1.291,0,2.337,1.047,2.337,2.337
		v1.109c0.698,1.634,2.319,2.948,4.343,3.512h4.484c2.024-0.563,3.646-1.878,4.343-3.512v-1.109c0-1.29,1.046-2.337,2.337-2.337
		h7.706c0.62,0,1.214,0.246,1.652,0.685l10.077,10.079c0.913,0.912,0.913,2.392,0,3.305l-7.707,7.706
		c-0.913,0.913-2.392,0.913-3.305,0l-0.455-0.454v28.366C70.611,75.184,69.564,76.23,68.273,76.23z M39.729,71.557h26.207V39.885
		c0-0.945,0.569-1.797,1.442-2.159c0.874-0.362,1.88-0.161,2.547,0.507l2.792,2.792l4.402-4.401l-7.741-7.742h-4.541
		c-1.174,3.379-4.171,5.954-8.026,6.892c-0.18,0.044-0.366,0.066-0.552,0.066h-5.081c-0.187,0-0.372-0.022-0.552-0.066
		c-3.855-0.938-6.852-3.513-8.026-6.892H38.06l-7.741,7.742l4.402,4.401l1.02-1.02c0.667-0.668,1.673-0.87,2.547-0.507
		c0.874,0.362,1.442,1.215,1.442,2.159V71.557z"/>
</g>
</svg>
