<?xml version="1.0" encoding="utf-8"?>
<!-- Generator: Adobe Illustrator 16.0.0, SVG Export Plug-In . SVG Version: 6.00 Build 0)  -->
<!DOCTYPE svg PUBLIC "-//W3C//DTD SVG 1.1//EN" "http://www.w3.org/Graphics/SVG/1.1/DTD/svg11.dtd">
<svg version="1.1" id="Layer_1" xmlns="http://www.w3.org/2000/svg" xmlns:xlink="http://www.w3.org/1999/xlink" x="0px" y="0px"
	 width="100px" height="100px" viewBox="0 0 100 100" enable-background="new 0 0 100 100" xml:space="preserve">
<g>
	<path d="M66.872,35.475l-16,9.666c-0.009,0.006-0.016,0.014-0.025,0.02c-0.125,0.08-0.246,0.17-0.355,0.279
		c-0.001,0-0.002,0.002-0.003,0.002c-0.011,0.012-0.019,0.025-0.029,0.037c-0.097,0.102-0.18,0.211-0.251,0.326
		c-0.007,0.01-0.018,0.02-0.024,0.031l-8.667,14.666c-0.45,0.76-0.347,1.727,0.253,2.375c0.388,0.42,0.924,0.643,1.469,0.643
		c0.298,0,0.599-0.066,0.879-0.205l14.905-7.301c0.016,0,0.032,0.006,0.048,0.006c0.512,0,1.024-0.195,1.414-0.586
		c0.102-0.104,0.189-0.215,0.265-0.33c0.246-0.184,0.462-0.4,0.603-0.676l8.333-16.332c0.406-0.797,0.235-1.766-0.419-2.373
		C68.614,35.113,67.636,35.014,66.872,35.475z M52.315,50.09l3.192,3.193l-7.147,3.5L52.315,50.09z M58.703,50.822l-3.578-3.578
		l7.811-4.719L58.703,50.822z"/>
	<path d="M55.572,22.809c-14.636,0-26.543,11.908-26.543,26.543c0,14.637,11.907,26.545,26.543,26.545
		c14.636,0,26.544-11.908,26.544-26.545C82.116,34.717,70.208,22.809,55.572,22.809z M55.572,71.896
		c-12.43,0-22.543-10.113-22.543-22.545c0-12.43,10.113-22.543,22.543-22.543c12.431,0,22.544,10.113,22.544,22.543
		C78.116,61.783,68.003,71.896,55.572,71.896z"/>
</g>
</svg>
