<?xml version="1.0" encoding="utf-8"?>
<!-- Generator: Adobe Illustrator 16.0.0, SVG Export Plug-In . SVG Version: 6.00 Build 0)  -->
<!DOCTYPE svg PUBLIC "-//W3C//DTD SVG 1.1//EN" "http://www.w3.org/Graphics/SVG/1.1/DTD/svg11.dtd">
<svg version="1.1" id="Layer_1" xmlns="http://www.w3.org/2000/svg" xmlns:xlink="http://www.w3.org/1999/xlink" x="0px" y="0px"
	 width="100px" height="100px" viewBox="0 0 100 100" enable-background="new 0 0 100 100" xml:space="preserve">
<g>
	<path d="M37.625,42.627V29.235c0-1.058-0.857-1.916-1.915-1.916c-1.059,0-1.916,0.858-1.916,1.916v13.392
		c-3.062,0.843-5.319,3.644-5.319,6.969c0,3.326,2.258,6.127,5.319,6.97v16.161c0,1.058,0.857,1.916,1.916,1.916
		c1.058,0,1.915-0.858,1.915-1.916V56.566c3.062-0.843,5.319-3.644,5.319-6.97C42.944,46.271,40.687,43.47,37.625,42.627z
		 M37.625,52.407c-0.546,0.374-1.205,0.594-1.915,0.594c-0.711,0-1.37-0.22-1.916-0.594c-0.897-0.614-1.489-1.644-1.489-2.811
		c0-1.167,0.592-2.197,1.489-2.811c0.546-0.374,1.205-0.594,1.916-0.594c0.71,0,1.369,0.22,1.915,0.594
		c0.897,0.614,1.489,1.644,1.489,2.811C39.114,50.764,38.522,51.793,37.625,52.407z"/>
	<path d="M54.438,36.813c0-3.326-2.259-6.127-5.32-6.97v-0.608c0-1.058-0.857-1.916-1.915-1.916c-1.059,0-1.916,0.858-1.916,1.916
		v0.608c-3.061,0.843-5.319,3.644-5.319,6.97s2.259,6.126,5.319,6.969v28.944c0,1.058,0.857,1.916,1.916,1.916
		c1.058,0,1.915-0.858,1.915-1.916V43.783C52.179,42.94,54.438,40.139,54.438,36.813z M49.117,39.624
		c-0.546,0.374-1.205,0.594-1.915,0.594s-1.369-0.22-1.916-0.594c-0.897-0.613-1.488-1.644-1.488-2.811
		c0-1.167,0.591-2.197,1.488-2.811c0.547-0.374,1.206-0.593,1.916-0.593s1.369,0.219,1.915,0.593
		c0.898,0.614,1.489,1.644,1.489,2.811C50.606,37.98,50.016,39.011,49.117,39.624z"/>
	<path d="M60.609,54.531V29.235c0-1.058-0.856-1.916-1.915-1.916c-1.058,0-1.915,0.858-1.915,1.916v25.295
		c-3.062,0.843-5.32,3.644-5.32,6.97s2.259,6.126,5.32,6.97v4.257c0,1.058,0.857,1.916,1.915,1.916c1.059,0,1.915-0.858,1.915-1.916
		V68.47c3.062-0.843,5.32-3.644,5.32-6.97S63.671,55.374,60.609,54.531z M60.609,64.311c-0.546,0.374-1.205,0.594-1.915,0.594
		s-1.369-0.22-1.915-0.594c-0.898-0.613-1.489-1.644-1.489-2.811c0-1.167,0.591-2.197,1.489-2.811
		c0.546-0.374,1.205-0.593,1.915-0.593s1.369,0.219,1.915,0.593c0.898,0.614,1.489,1.644,1.489,2.811
		C62.099,62.667,61.508,63.698,60.609,64.311z"/>
</g>
</svg>
