<?xml version="1.0" encoding="utf-8"?>
<!-- Generator: Adobe Illustrator 16.0.0, SVG Export Plug-In . SVG Version: 6.00 Build 0)  -->
<!DOCTYPE svg PUBLIC "-//W3C//DTD SVG 1.1//EN" "http://www.w3.org/Graphics/SVG/1.1/DTD/svg11.dtd">
<svg version="1.1" id="Layer_1" xmlns="http://www.w3.org/2000/svg" xmlns:xlink="http://www.w3.org/1999/xlink" x="0px" y="0px"
	 width="100px" height="100px" viewBox="0 0 100 100" enable-background="new 0 0 100 100" xml:space="preserve">
<path d="M62.292,33.657c-5.041,0-9.447,2.717-11.867,6.753c-2.908-4.162-8.129-6.847-12.975-6.847
	c-7.633,0-13.842,6.209-13.842,13.843c0,7.633,6.209,13.842,13.842,13.842c4.813,0,9.992-2.648,12.912-6.762
	c2.406,4.094,6.846,6.856,11.93,6.856c7.633,0,13.842-6.21,13.842-13.843S69.925,33.657,62.292,33.657z M37.45,56.981
	c-5.279,0-9.576-4.296-9.576-9.575c0-5.281,4.297-9.576,9.576-9.576c5.086,0,10.998,4.183,10.998,9.576
	C48.448,52.798,42.536,56.981,37.45,56.981z M62.292,57.076c-5.281,0-9.576-4.296-9.576-9.576s4.295-9.576,9.576-9.576
	c5.279,0,9.576,4.296,9.576,9.576S67.571,57.076,62.292,57.076z"/>
</svg>
