<?xml version="1.0" encoding="utf-8"?>
<!-- Generator: Adobe Illustrator 16.0.0, SVG Export Plug-In . SVG Version: 6.00 Build 0)  -->
<!DOCTYPE svg PUBLIC "-//W3C//DTD SVG 1.1//EN" "http://www.w3.org/Graphics/SVG/1.1/DTD/svg11.dtd">
<svg version="1.1" id="Layer_1" xmlns="http://www.w3.org/2000/svg" xmlns:xlink="http://www.w3.org/1999/xlink" x="0px" y="0px"
	 width="100px" height="100px" viewBox="0 0 100 100" enable-background="new 0 0 100 100" xml:space="preserve">
<path d="M48.645,21.545c-14.871,0-26.969,12.098-26.969,26.968s12.098,26.969,26.969,26.969s26.968-12.099,26.968-26.969
	S63.516,21.545,48.645,21.545z M48.645,71.534c-12.694,0-23.022-10.327-23.022-23.021c0-1.546,0.158-3.053,0.45-4.514
	c0.138,0.028,0.281,0.043,0.428,0.043h23.205l-1.336,1.337c-0.833,0.833-0.833,2.183,0,3.016c0.417,0.417,0.962,0.625,1.508,0.625
	s1.092-0.208,1.508-0.625l4.976-4.976c0,0,0.002-0.002,0.003-0.003l1.507-1.507l-1.507-1.507c0-0.002-0.002-0.002-0.002-0.002
	l-5.333-5.333c-0.833-0.833-2.183-0.833-3.017,0c-0.833,0.834-0.833,2.184,0,3.017l1.691,1.691h-22.35
	c3.448-8.371,11.687-14.285,21.289-14.285c12.694,0,23.021,10.329,23.021,23.022c0,1.971-0.275,3.874-0.744,5.7
	c-0.038-0.002-0.074-0.012-0.112-0.012H47.605l1.336-1.336c0.833-0.833,0.833-2.183,0-3.017c-0.833-0.833-2.184-0.833-3.017,0
	l-4.977,4.977c-0.001,0.001-0.002,0.003-0.002,0.003l-1.507,1.507l1.507,1.507c0,0,0.001,0.001,0.002,0.003l5.332,5.331
	c0.417,0.417,0.962,0.625,1.508,0.625s1.091-0.208,1.508-0.625c0.833-0.833,0.833-2.183,0-3.016l-1.692-1.692h21.765
	C65.649,66.185,57.771,71.534,48.645,71.534z"/>
</svg>
