<?xml version="1.0" encoding="utf-8"?>
<!-- Generator: Adobe Illustrator 16.0.0, SVG Export Plug-In . SVG Version: 6.00 Build 0)  -->
<!DOCTYPE svg PUBLIC "-//W3C//DTD SVG 1.1//EN" "http://www.w3.org/Graphics/SVG/1.1/DTD/svg11.dtd">
<svg version="1.1" id="Layer_1" xmlns="http://www.w3.org/2000/svg" xmlns:xlink="http://www.w3.org/1999/xlink" x="0px" y="0px"
	 width="100px" height="100px" viewBox="0 0 100 100" enable-background="new 0 0 100 100" xml:space="preserve">
<path d="M82.36,39.938c-0.4-1.214-2.12-3.187-2.897-4.037c-0.085-0.083-0.172-0.163-0.261-0.239L78.048,37l0.992-1.482
	c-0.09-0.082-0.18-0.163-0.248-0.217c-0.107-0.091-0.219-0.174-0.332-0.256l-1.037,1.43l0.899-1.532
	c-0.104-0.079-0.208-0.157-0.339-0.245c-0.109-0.072-0.221-0.137-0.333-0.203l-0.894,1.525l0.756-1.608
	c-0.105-0.065-0.211-0.131-0.34-0.203c-0.106-0.056-0.488-0.236-0.488-0.236c-0.126-0.063-0.252-0.125-0.375-0.175
	c-0.131-0.055-0.266-0.102-0.4-0.15l-0.585,1.667l0.416-1.729c-0.117-0.044-0.235-0.088-0.33-0.117
	c-0.139-0.042-0.28-0.079-0.422-0.113c0,0-0.462-0.119-0.521-0.128c-0.178-0.038-0.36-0.065-0.543-0.089
	c0,0-0.374-0.058-0.456-0.065c-0.335-0.035-0.675-0.052-1.02-0.052H44.933c-1.592-3.559-5.103-5.869-9.108-5.869h-7.812
	c-0.345,0-0.685,0.017-1.027,0.053c-0.104,0.01-0.205,0.027-0.438,0.064c-0.176,0.022-0.351,0.048-0.52,0.081
	c-0.117,0.023-0.231,0.053-0.346,0.083l0.47,1.704l-0.628-1.663c-0.152,0.037-0.305,0.075-0.469,0.125
	c-0.107,0.033-0.213,0.071-0.317,0.111l0.624,1.652l-0.859-1.567c-0.117,0.041-0.234,0.083-0.369,0.14
	c-0.104,0.044-0.207,0.095-0.311,0.145l0.778,1.586l-0.981-1.488c-0.118,0.055-0.236,0.109-0.361,0.178l-0.364,0.218
	c0,0-0.348,0.208-0.437,0.27c-0.112,0.074-0.222,0.157-0.434,0.316c-0.109,0.079-0.219,0.158-0.345,0.26
	c-0.088,0.073-0.404,0.359-0.404,0.359c-0.095,0.081-0.188,0.163-0.339,0.316c-0.72,0.797-2.438,2.785-2.836,4.003
	c-0.25,0.764-0.189,2.112-0.088,3.142v31.74c0,5.514,4.485,10,10,10h44.437c5.515,0,9.999-4.486,9.999-10V43.11
	C82.552,42.07,82.614,40.708,82.36,39.938z M24.015,48.684h52.432v20.297c0,2.205-1.793,3.998-3.997,3.998H28.013
	c-2.205,0-3.998-1.792-3.998-3.998V48.684z M42.724,39.023h29.726c0.269,0,0.539,0.027,0.805,0.082
	c1.518,0.312,2.694,1.478,3.068,2.929H24.015v-4.881c0-2.205,1.793-3.999,3.998-3.999h7.812c1.965,0,3.621,1.409,3.938,3.347
	C39.998,37.963,41.243,39.023,42.724,39.023z"/>
</svg>
