<?xml version="1.0" encoding="utf-8"?>
<!-- Generator: Adobe Illustrator 16.0.0, SVG Export Plug-In . SVG Version: 6.00 Build 0)  -->
<!DOCTYPE svg PUBLIC "-//W3C//DTD SVG 1.1//EN" "http://www.w3.org/Graphics/SVG/1.1/DTD/svg11.dtd">
<svg version="1.1" id="Layer_1" xmlns="http://www.w3.org/2000/svg" xmlns:xlink="http://www.w3.org/1999/xlink" x="0px" y="0px"
	 width="100px" height="100px" viewBox="0 0 100 100" enable-background="new 0 0 100 100" xml:space="preserve">
<g>
	<path d="M52.179,40.451c-5.955,0-10.799,4.845-10.799,10.799s4.844,10.799,10.799,10.799c5.953,0,10.797-4.845,10.797-10.799
		S58.132,40.451,52.179,40.451z M52.179,57.375c-3.377,0-6.124-2.748-6.124-6.125c0-3.376,2.747-6.124,6.124-6.124
		c3.376,0,6.123,2.748,6.123,6.124C58.302,54.627,55.555,57.375,52.179,57.375z"/>
	<circle cx="52.179" cy="51.25" r="3.536"/>
	<path d="M52.179,33.431c-9.825,0-17.818,7.995-17.818,17.819s7.993,17.819,17.818,17.819c9.824,0,17.818-7.995,17.818-17.819
		S62.003,33.431,52.179,33.431z M52.179,64.395c-7.248,0-13.145-5.896-13.145-13.145c0-7.248,5.896-13.145,13.145-13.145
		s13.144,5.896,13.144,13.145C65.322,58.499,59.427,64.395,52.179,64.395z"/>
	<path d="M52.179,25.502c-14.198,0-25.748,11.55-25.748,25.748c0,14.197,11.55,25.748,25.748,25.748
		c14.197,0,25.748-11.551,25.748-25.748C77.927,37.052,66.376,25.502,52.179,25.502z M52.179,72.324
		c-11.621,0-21.074-9.454-21.074-21.074s9.453-21.074,21.074-21.074c11.619,0,21.073,9.454,21.073,21.074
		S63.798,72.324,52.179,72.324z"/>
</g>
</svg>
