<?xml version="1.0" encoding="utf-8"?>
<!-- Generator: Adobe Illustrator 16.0.0, SVG Export Plug-In . SVG Version: 6.00 Build 0)  -->
<!DOCTYPE svg PUBLIC "-//W3C//DTD SVG 1.1//EN" "http://www.w3.org/Graphics/SVG/1.1/DTD/svg11.dtd">
<svg version="1.1" id="Layer_1" xmlns="http://www.w3.org/2000/svg" xmlns:xlink="http://www.w3.org/1999/xlink" x="0px" y="0px"
	 width="100px" height="100px" viewBox="0 0 100 100" enable-background="new 0 0 100 100" xml:space="preserve">
<path d="M70.236,40.144c-7.985,0-14.48,6.498-14.48,14.482c0,3.874,1.539,7.39,4.025,9.991H45.068
	c2.487-2.601,4.025-6.117,4.025-9.991c0-7.984-6.496-14.482-14.48-14.482c-7.985,0-14.481,6.498-14.481,14.482
	c0,7.983,6.496,14.479,14.481,14.479h35.624c7.985,0,14.48-6.496,14.48-14.479C84.717,46.641,78.221,40.144,70.236,40.144z
	 M24.621,54.625c0-5.511,4.482-9.994,9.992-9.994c5.509,0,9.992,4.483,9.992,9.994c0,5.508-4.483,9.991-9.992,9.991
	C29.103,64.616,24.621,60.134,24.621,54.625z M70.236,64.616c-5.51,0-9.992-4.482-9.992-9.991c0-5.511,4.482-9.994,9.992-9.994
	s9.992,4.483,9.992,9.994C80.229,60.134,75.746,64.616,70.236,64.616z"/>
</svg>
