<?xml version="1.0" encoding="utf-8"?>
<!-- Generator: Adobe Illustrator 16.0.0, SVG Export Plug-In . SVG Version: 6.00 Build 0)  -->
<!DOCTYPE svg PUBLIC "-//W3C//DTD SVG 1.1//EN" "http://www.w3.org/Graphics/SVG/1.1/DTD/svg11.dtd">
<svg version="1.1" id="Layer_1" xmlns="http://www.w3.org/2000/svg" xmlns:xlink="http://www.w3.org/1999/xlink" x="0px" y="0px"
	 width="100px" height="100px" viewBox="0 0 100 100" enable-background="new 0 0 100 100" xml:space="preserve">
<path d="M73.744,49.25H44.996c-0.029-0.051-0.047-0.105-0.078-0.155l-2-3.191l0,0c-2.992-4.779-1.54-11.102,3.238-14.097
	c2.314-1.449,5.055-1.917,7.719-1.302c2.661,0.611,4.925,2.221,6.375,4.534c0.001,0.001,0.003,0.003,0.003,0.004l3.562,5.682
	c0.567,0.906,1.542,1.403,2.538,1.403c0.542,0,1.091-0.148,1.585-0.458c1.401-0.876,1.825-2.724,0.947-4.125l-3.561-5.682
	c-0.003-0.004-0.007-0.009-0.01-0.013c-2.3-3.662-5.885-6.212-10.1-7.18c-4.221-0.966-8.566-0.235-12.236,2.066
	c-7.574,4.746-9.874,14.77-5.128,22.344c0,0,0,0,0,0.001l0.105,0.167h-2.378c-1.653,0-2.993,1.34-2.993,2.992v29.688
	c0,1.652,1.34,2.992,2.993,2.992h38.169c1.652,0,2.992-1.34,2.992-2.992V52.242C76.736,50.589,75.396,49.25,73.744,49.25z
	 M70.751,78.937H38.567V55.234h32.184V78.937z"/>
</svg>
