<?xml version="1.0" encoding="utf-8"?>
<!-- Generator: Adobe Illustrator 16.0.0, SVG Export Plug-In . SVG Version: 6.00 Build 0)  -->
<!DOCTYPE svg PUBLIC "-//W3C//DTD SVG 1.1//EN" "http://www.w3.org/Graphics/SVG/1.1/DTD/svg11.dtd">
<svg version="1.1" id="Layer_1" xmlns="http://www.w3.org/2000/svg" xmlns:xlink="http://www.w3.org/1999/xlink" x="0px" y="0px"
	 width="100px" height="100px" viewBox="0 0 100 100" enable-background="new 0 0 100 100" xml:space="preserve">
<g>
	<path d="M49.41,21.959c-15.42,0-27.965,12.547-27.965,27.966c0,15.42,12.545,27.967,27.965,27.967
		c15.419,0,27.965-12.547,27.965-27.967C77.375,34.506,64.83,21.959,49.41,21.959z M49.41,72.7
		c-12.561,0-22.778-10.216-22.778-22.775c0-12.562,10.217-22.777,22.778-22.777s22.778,10.216,22.778,22.777
		C72.188,62.484,61.971,72.7,49.41,72.7z"/>
	<path stroke="#000000" stroke-linecap="round" stroke-linejoin="round" stroke-miterlimit="10" d="M59.545,53.285
		c0,5.598-4.538,10.135-10.135,10.135s-10.135-4.537-10.135-10.135s10.135-14.81,10.135-14.81S59.545,47.688,59.545,53.285z"/>
</g>
</svg>
