<?xml version="1.0" encoding="utf-8"?>
<!-- Generator: Adobe Illustrator 16.0.0, SVG Export Plug-In . SVG Version: 6.00 Build 0)  -->
<!DOCTYPE svg PUBLIC "-//W3C//DTD SVG 1.1//EN" "http://www.w3.org/Graphics/SVG/1.1/DTD/svg11.dtd">
<svg version="1.1" id="Layer_1" xmlns="http://www.w3.org/2000/svg" xmlns:xlink="http://www.w3.org/1999/xlink" x="0px" y="0px"
	 width="100px" height="100px" viewBox="0 0 100 100" enable-background="new 0 0 100 100" xml:space="preserve">
<path d="M51,26.416c-15.42,0-27.965,12.547-27.965,27.967S35.58,82.35,51,82.35c15.419,0,27.965-12.547,27.965-27.967
	S66.419,26.416,51,26.416z M55.58,76.695V64.209l-2.921-4.48V48.029l7.985-3.096v14.758l-3.516,4.492l0.475,11.99
	C56.939,76.375,56.267,76.553,55.58,76.695z M59.141,75.629l-0.435-10.934l3.495-4.465V42.658L51.1,46.961v13.23l2.922,4.48v12.26
	c-0.992,0.135-1.995,0.227-3.022,0.227c-2.735,0-5.348-0.51-7.779-1.398V60.74h4.975V44.379H36.688V60.74h4.975v14.393
	c-7.912-3.572-13.44-11.52-13.44-20.75c0-12.563,10.217-22.777,22.778-22.777S73.778,41.82,73.778,54.383
	C73.778,64.07,67.687,72.344,59.141,75.629z M38.246,59.182V45.938h1.753v13.244H38.246z M41.557,45.938h2.142v13.244h-2.142V45.938
	z M46.638,45.938v13.244h-1.38V45.938H46.638z"/>
</svg>
