<?xml version="1.0" encoding="utf-8"?>
<!-- Generator: Adobe Illustrator 16.0.0, SVG Export Plug-In . SVG Version: 6.00 Build 0)  -->
<!DOCTYPE svg PUBLIC "-//W3C//DTD SVG 1.1//EN" "http://www.w3.org/Graphics/SVG/1.1/DTD/svg11.dtd">
<svg version="1.1" id="Layer_1" xmlns="http://www.w3.org/2000/svg" xmlns:xlink="http://www.w3.org/1999/xlink" x="0px" y="0px"
	 width="100px" height="100px" viewBox="0 0 100 100" enable-background="new 0 0 100 100" xml:space="preserve">
<g>
	<g>
		<path d="M72.207,63.419L72.207,63.419c-1.041,0-2.063-0.392-2.878-1.1l-8.319-7.232c-1.139-0.99-1.792-2.487-1.792-4.105
			c0-1.617,0.653-3.112,1.79-4.103l8.322-7.235c1.434-1.244,3.526-1.433,5.121-0.462c1.497,0.91,2.427,2.66,2.427,4.566v14.469
			c0,1.909-0.931,3.659-2.428,4.566C73.764,63.199,72.988,63.419,72.207,63.419z M72.208,42.375c-0.15,0-0.281,0.087-0.366,0.16
			l-8.319,7.234c-0.292,0.254-0.474,0.718-0.474,1.212c0,0.495,0.182,0.96,0.475,1.215l8.32,7.232
			c0.131,0.112,0.374,0.229,0.621,0.079c0.343-0.207,0.582-0.738,0.582-1.291V43.747c0-0.552-0.24-1.083-0.584-1.292
			C72.376,42.402,72.291,42.375,72.208,42.375z"/>
	</g>
	<g>
		<path d="M54.498,65.954H31.994c-2.052,0-3.722-1.67-3.722-3.721V39.729c0-2.052,1.67-3.721,3.722-3.721h22.504
			c2.052,0,3.721,1.669,3.721,3.721v22.503C58.219,64.284,56.55,65.954,54.498,65.954z M32.104,62.123h22.284V39.839H32.104V62.123z
			"/>
	</g>
</g>
</svg>
