<?xml version="1.0" encoding="utf-8"?>
<!-- Generator: Adobe Illustrator 16.0.0, SVG Export Plug-In . SVG Version: 6.00 Build 0)  -->
<!DOCTYPE svg PUBLIC "-//W3C//DTD SVG 1.1//EN" "http://www.w3.org/Graphics/SVG/1.1/DTD/svg11.dtd">
<svg version="1.1" id="Layer_1" xmlns="http://www.w3.org/2000/svg" xmlns:xlink="http://www.w3.org/1999/xlink" x="0px" y="0px"
	 width="100px" height="100px" viewBox="0 0 100 100" enable-background="new 0 0 100 100" xml:space="preserve">
<path d="M68.714,32.193c-1.078-1.165-2.26-2.227-3.535-3.175C60.931,25.86,55.688,23.966,50,23.966
	c-6.351,0-12.153,2.346-16.625,6.198c-1.197,1.03-2.299,2.165-3.288,3.398c-3.504,4.372-5.613,9.905-5.613,15.93
	c0,6.023,2.109,11.559,5.612,15.929c0.988,1.233,2.091,2.37,3.289,3.4C37.847,72.674,43.649,75.02,50,75.02
	c6.838,0,13.044-2.72,17.632-7.113c1.143-1.095,2.179-2.295,3.104-3.585c3.001-4.185,4.79-9.297,4.79-14.829
	C75.525,42.815,72.927,36.747,68.714,32.193z M65.595,35.788c2.748,3.123,4.573,7.067,5.056,11.416h-8.622
	C62.075,42.98,63.38,39.055,65.595,35.788z M57.295,47.204h-5.162V28.825c3.683,0.381,7.081,1.724,9.943,3.776
	C59.115,36.729,57.343,41.76,57.295,47.204z M47.867,28.821v18.383h-5.695c-0.461-5.134-2.454-9.829-5.509-13.642
	C39.762,30.964,43.628,29.256,47.867,28.821z M33.375,37.059c2.171,2.896,3.603,6.367,4.024,10.146h-8.048
	C29.772,43.426,31.204,39.954,33.375,37.059z M29.313,51.471h8.126c-0.374,3.896-1.832,7.479-4.063,10.453
	C31.145,58.949,29.687,55.367,29.313,51.471z M42.19,51.471h5.676v18.69c-4.238-0.435-8.104-2.142-11.203-4.74
	C39.779,61.534,41.783,56.725,42.19,51.471z M52.133,70.166V51.471h5.501c0.818,5.069,3.118,9.646,6.461,13.261
	C60.877,67.709,56.728,69.692,52.133,70.166z M67.216,61.134c-2.374-2.697-4.062-6.009-4.79-9.663h8.261
	C70.349,55.025,69.121,58.326,67.216,61.134z"/>
</svg>
