<?xml version="1.0" encoding="utf-8"?>
<!-- Generator: Adobe Illustrator 16.0.0, SVG Export Plug-In . SVG Version: 6.00 Build 0)  -->
<!DOCTYPE svg PUBLIC "-//W3C//DTD SVG 1.1//EN" "http://www.w3.org/Graphics/SVG/1.1/DTD/svg11.dtd">
<svg version="1.1" id="Layer_1" xmlns="http://www.w3.org/2000/svg" xmlns:xlink="http://www.w3.org/1999/xlink" x="0px" y="0px"
	 width="100px" height="100px" viewBox="0 0 100 100" enable-background="new 0 0 100 100" xml:space="preserve">
<g>
	<g>
		<path d="M74.924,73.28H34.779c-2.407,0-4.365-1.958-4.365-4.364V43.732c0-2.407,1.958-4.364,4.365-4.364h40.145
			c2.407,0,4.365,1.958,4.365,4.364v25.184C79.289,71.323,77.331,73.28,74.924,73.28z M34.903,68.792H74.8V43.856H34.903V68.792z"/>
	</g>
	<g>
		<path d="M74.292,36.375H35.411c-1.24,0-2.244-1.005-2.244-2.245c0-1.239,1.004-2.244,2.244-2.244h38.881
			c1.239,0,2.244,1.005,2.244,2.244C76.536,35.37,75.531,36.375,74.292,36.375z"/>
	</g>
	<g>
		<path d="M68.72,28.895H40.982c-1.24,0-2.244-1.005-2.244-2.244s1.004-2.244,2.244-2.244H68.72c1.24,0,2.245,1.005,2.245,2.244
			S69.96,28.895,68.72,28.895z"/>
	</g>
</g>
</svg>
