<?xml version="1.0" encoding="utf-8"?>
<!-- Generator: Adobe Illustrator 16.0.0, SVG Export Plug-In . SVG Version: 6.00 Build 0)  -->
<!DOCTYPE svg PUBLIC "-//W3C//DTD SVG 1.1//EN" "http://www.w3.org/Graphics/SVG/1.1/DTD/svg11.dtd">
<svg version="1.1" id="Layer_1" xmlns="http://www.w3.org/2000/svg" xmlns:xlink="http://www.w3.org/1999/xlink" x="0px" y="0px"
	 width="100px" height="100px" viewBox="0 0 100 100" enable-background="new 0 0 100 100" xml:space="preserve">
<path d="M72.522,56.202h-5.06v-20.57l6.473-6.473c0.78-0.779,0.78-2.043,0-2.824c-0.781-0.781-2.044-0.781-2.825,0l-6.539,6.54
	h-7.473c-0.186,0-0.364,0.026-0.534,0.078H43.204v-5.925c0-1.104-0.895-1.998-1.998-1.998H32.84c-1.103,0-1.997,0.895-1.997,1.998
	v5.925h-5.06c-1.103,0-1.998,0.893-1.998,1.998v8.365c0,1.105,0.895,1.998,1.998,1.998h5.06v21.29l-6.473,6.471
	c-0.78,0.781-0.78,2.045,0,2.826c0.39,0.39,0.902,0.586,1.413,0.586s1.022-0.196,1.412-0.586l7.259-7.259h6.753
	c0.186,0,0.364-0.026,0.534-0.078h13.361v5.925c0,1.104,0.895,1.998,1.998,1.998h8.366c1.104,0,1.997-0.895,1.997-1.998v-5.925h5.06
	c1.103,0,1.998-0.893,1.998-1.998V58.2C74.521,57.095,73.625,56.202,72.522,56.202z M27.78,41.318v-4.372h3.063v4.372H27.78z
	 M43.204,36.946h13.895c0.185,0,0.364-0.027,0.534-0.078h2.943h2.891v2.759v16.574h-4.372V43.999v-0.683
	c0-1.104-0.894-1.998-1.997-1.998h-0.972H43.204V36.946z M55.102,56.202h-8.208l8.208-8.209V56.202z M43.204,45.313h8.929
	l-8.929,8.929V45.313z M63.468,72.49h-4.372v-3.927h4.372V72.49z M70.525,64.569h-3.063h-3.995h-4.372h-3.995H41.207
	c-0.192,0-0.378,0.027-0.555,0.078h-2.203h-3.611v-2.039V45.313v-3.996v-4.372v-3.994v-3.927h4.372v3.927v3.994v4.372v3.996V58.2
	c0,0.012,0.006,0.02,0.006,0.03c0.018,1.089,0.899,1.967,1.991,1.967h1.691h12.204h3.995h4.372h3.995h3.063V64.569z"/>
</svg>
