<?xml version="1.0" encoding="utf-8"?>
<!-- Generator: Adobe Illustrator 16.0.0, SVG Export Plug-In . SVG Version: 6.00 Build 0)  -->
<!DOCTYPE svg PUBLIC "-//W3C//DTD SVG 1.1//EN" "http://www.w3.org/Graphics/SVG/1.1/DTD/svg11.dtd">
<svg version="1.1" id="Layer_1" xmlns="http://www.w3.org/2000/svg" xmlns:xlink="http://www.w3.org/1999/xlink" x="0px" y="0px"
	 width="100px" height="100px" viewBox="0 0 100 100" enable-background="new 0 0 100 100" xml:space="preserve">
<g>
	<path d="M51.818,26.37c-10.209,0-18.516,8.306-18.516,18.516c0,9.649,15.368,26.264,17.12,28.127l1.396,1.484l1.395-1.484
		c1.752-1.863,17.121-18.479,17.121-28.127C70.333,34.676,62.027,26.37,51.818,26.37z M51.818,68.864
		c-5.108-5.711-14.685-17.712-14.685-23.979c0-8.097,6.587-14.685,14.685-14.685c8.097,0,14.685,6.588,14.685,14.685
		C66.502,51.146,56.925,63.15,51.818,68.864z"/>
	<path d="M51.818,37.224c-4.225,0-7.662,3.437-7.662,7.662c0,4.225,3.437,7.662,7.662,7.662c4.225,0,7.662-3.437,7.662-7.662
		C59.479,40.661,56.042,37.224,51.818,37.224z"/>
</g>
</svg>
