<?xml version="1.0" encoding="utf-8"?>
<!-- Generator: Adobe Illustrator 16.0.0, SVG Export Plug-In . SVG Version: 6.00 Build 0)  -->
<!DOCTYPE svg PUBLIC "-//W3C//DTD SVG 1.1//EN" "http://www.w3.org/Graphics/SVG/1.1/DTD/svg11.dtd">
<svg version="1.1" id="Layer_1" xmlns="http://www.w3.org/2000/svg" xmlns:xlink="http://www.w3.org/1999/xlink" x="0px" y="0px"
	 width="100px" height="100px" viewBox="0 0 100 100" enable-background="new 0 0 100 100" xml:space="preserve">
<g>
	<path d="M68.269,30.341c-0.281-0.724-0.979-1.201-1.754-1.201H44.608c-0.554,0-1.08,0.243-1.438,0.666l-3.555,4.207l-7.584-8.944
		c-0.041-0.049-0.096-0.078-0.142-0.123c-0.073-0.069-0.144-0.138-0.228-0.195c-0.08-0.057-0.167-0.098-0.254-0.141
		c-0.061-0.029-0.109-0.071-0.172-0.094c-0.027-0.01-0.055-0.008-0.082-0.016c-0.095-0.029-0.191-0.043-0.289-0.057
		c-0.093-0.015-0.184-0.03-0.277-0.03c-0.09,0-0.176,0.017-0.266,0.03c-0.102,0.015-0.199,0.028-0.297,0.059
		c-0.025,0.009-0.053,0.006-0.078,0.016c-0.061,0.023-0.11,0.065-0.168,0.094c-0.09,0.044-0.178,0.086-0.26,0.145
		c-0.083,0.058-0.152,0.127-0.225,0.197c-0.046,0.045-0.103,0.077-0.145,0.127l-7.895,9.473c-0.467,0.562-0.568,1.342-0.258,2.002
		c0.31,0.662,0.974,1.085,1.704,1.085h6.013v9.96c0,0.028,0.01,0.053,0.012,0.08c0.004,0.094,0.004,0.187,0.022,0.279
		c0.009,0.046,0.029,0.087,0.042,0.133c0.014,0.05,0.028,0.1,0.047,0.149c0.047,0.129,0.107,0.251,0.181,0.365
		c0.019,0.029,0.031,0.06,0.051,0.088c0.099,0.136,0.216,0.258,0.347,0.364c0.033,0.026,0.071,0.048,0.107,0.072
		c0.064,0.045,0.125,0.096,0.195,0.134l10.706,5.634l6.439,13.154c0.321,0.656,0.983,1.055,1.689,1.055
		c0.141,0,0.284-0.017,0.425-0.049c0.854-0.197,1.457-0.957,1.457-1.833V48.23l17.346-15.819
		C68.356,31.889,68.55,31.065,68.269,30.341z M35.83,38.493l-3.352,3.964v-6.699v-4.344l4.675,5.514L35.83,38.493z M26.721,33.876
		l1.995-2.395v2.395H26.721z M46.673,59.101l-2.506-5.12l2.506-2.211V59.101z M41.554,51.239l-8.008-4.215l7.51-8.884v-0.002
		l4.426-5.235h16.177L41.554,51.239z"/>
</g>
</svg>
