<?xml version="1.0" encoding="utf-8"?>
<!-- Generator: Adobe Illustrator 16.0.0, SVG Export Plug-In . SVG Version: 6.00 Build 0)  -->
<!DOCTYPE svg PUBLIC "-//W3C//DTD SVG 1.1//EN" "http://www.w3.org/Graphics/SVG/1.1/DTD/svg11.dtd">
<svg version="1.1" id="Layer_1" xmlns="http://www.w3.org/2000/svg" xmlns:xlink="http://www.w3.org/1999/xlink" x="0px" y="0px"
	 width="100px" height="100px" viewBox="0 0 100 100" enable-background="new 0 0 100 100" xml:space="preserve">
<path d="M65.19,61.855c2.466-0.627,4.297-2.867,4.297-5.527V37.592c0-3.146-2.558-5.703-5.703-5.703h-0.56
	c1.701-1.979,2.737-4.543,2.737-7.35c0-6.227-5.068-11.297-11.296-11.297c-6.229,0-11.296,5.07-11.296,11.297
	c0,2.807,1.036,5.371,2.735,7.35h-0.559c-3.145,0-5.703,2.557-5.703,5.703v18.736c0,2.66,1.831,4.9,4.297,5.527l-3.959,5.863
	c-0.408,0.607-0.45,1.387-0.107,2.031s1.012,1.047,1.743,1.047h3.946v11.729c0,3.252,1.713,5.701,3.984,5.701h9.836
	c2.272,0,3.984-2.449,3.984-5.701V70.797h3.947c0.01,0,0.018,0,0.026,0c1.09,0,1.973-0.883,1.973-1.971
	c0-0.518-0.197-0.984-0.52-1.338L65.19,61.855z M54.666,17.188c4.052,0,7.349,3.299,7.349,7.352s-3.297,7.35-7.349,7.35
	s-7.35-3.297-7.35-7.35S50.613,17.188,54.666,17.188z M59.958,61.162l3.841,5.688h-2.206c-1.09,0-1.973,0.885-1.973,1.977v13.699
	c0,0.883-0.228,1.488-0.384,1.756h-9.143c-0.156-0.268-0.383-0.873-0.383-1.756V68.826c0-1.092-0.883-1.977-1.973-1.977h-2.207
	l3.842-5.688c0.408-0.605,0.449-1.383,0.106-2.029c-0.342-0.645-1.013-1.047-1.742-1.047h-2.191c-0.969,0-1.756-0.787-1.756-1.758
	V37.592c0-0.969,0.787-1.756,1.756-1.756h18.238c0.969,0,1.756,0.787,1.756,1.756v18.736c0,0.971-0.788,1.758-1.756,1.758h-2.191
	c-0.729,0-1.4,0.402-1.743,1.047C59.509,59.779,59.55,60.557,59.958,61.162z"/>
</svg>
