<?xml version="1.0" encoding="utf-8"?>
<!-- Generator: Adobe Illustrator 16.0.0, SVG Export Plug-In . SVG Version: 6.00 Build 0)  -->
<!DOCTYPE svg PUBLIC "-//W3C//DTD SVG 1.1//EN" "http://www.w3.org/Graphics/SVG/1.1/DTD/svg11.dtd">
<svg version="1.1" id="Layer_1" xmlns="http://www.w3.org/2000/svg" xmlns:xlink="http://www.w3.org/1999/xlink" x="0px" y="0px"
	 width="100px" height="100px" viewBox="0 0 100 100" enable-background="new 0 0 100 100" xml:space="preserve">
<g>
	<path d="M52.626,62.628c5.531,0,10.032-4.635,10.032-10.332V37.693c0-5.698-4.501-10.333-10.032-10.333
		c-5.532,0-10.032,4.635-10.032,10.333v14.604C42.594,57.993,47.094,62.628,52.626,62.628z M57.864,52.297
		c0,2.974-2.35,5.395-5.238,5.395s-5.238-2.42-5.238-5.395V37.693c0-2.974,2.35-5.395,5.238-5.395s5.238,2.42,5.238,5.395V52.297z"
		/>
	<path d="M68.769,57.354c0-1.362-1.221-2.469-2.719-2.469c-1.5,0-2.721,1.107-2.721,2.469c0,4.042-3.622,7.329-8.074,7.329h-5.258
		c-4.453,0-8.074-3.287-8.074-7.329c0-1.362-1.221-2.469-2.721-2.469c-1.499,0-2.719,1.107-2.719,2.469
		c0,6.736,6.014,12.221,13.424,12.266v0.766h-5.944c-1.499,0-2.72,1.107-2.72,2.469s1.221,2.469,2.72,2.469h17.325
		c1.5,0,2.721-1.107,2.721-2.469s-1.221-2.469-2.721-2.469h-5.943v-0.766C62.755,69.574,68.769,64.09,68.769,57.354z"/>
</g>
</svg>
