<?xml version="1.0" encoding="utf-8"?>
<!-- Generator: Adobe Illustrator 16.0.0, SVG Export Plug-In . SVG Version: 6.00 Build 0)  -->
<!DOCTYPE svg PUBLIC "-//W3C//DTD SVG 1.1//EN" "http://www.w3.org/Graphics/SVG/1.1/DTD/svg11.dtd">
<svg version="1.1" id="Layer_1" xmlns="http://www.w3.org/2000/svg" xmlns:xlink="http://www.w3.org/1999/xlink" x="0px" y="0px"
	 width="100px" height="100px" viewBox="0 0 100 100" enable-background="new 0 0 100 100" xml:space="preserve">
<g>
	<path d="M55.123,61.857c2.467-0.63,4.298-2.87,4.298-5.529V37.592c0-3.146-2.558-5.704-5.702-5.704h-0.561
		c1.701-1.978,2.736-4.542,2.736-7.349c0-6.23-5.067-11.297-11.295-11.297c-6.229,0-11.297,5.066-11.297,11.297
		c0,2.807,1.036,5.371,2.736,7.349h-0.561c-3.144,0-5.701,2.558-5.701,5.704v18.736c0,2.659,1.83,4.899,4.297,5.529l-3.959,5.862
		c-0.408,0.604-0.449,1.386-0.107,2.03c0.342,0.643,1.013,1.046,1.743,1.046h3.945v11.729c0,3.251,1.714,5.703,3.984,5.703h9.835
		c2.272,0,3.984-2.452,3.984-5.703V70.796h3.947c0.009,0,0.018,0,0.026,0c1.091,0,1.973-0.884,1.973-1.973
		c0-0.515-0.196-0.982-0.519-1.334L55.123,61.857z M44.6,17.188c4.051,0,7.349,3.297,7.349,7.351c0,4.053-3.298,7.349-7.349,7.349
		c-4.054,0-7.35-3.296-7.35-7.349C37.25,20.485,40.546,17.188,44.6,17.188z M49.892,61.163l3.841,5.688h-2.205
		c-1.09,0-1.974,0.884-1.974,1.973v13.701c0,0.883-0.228,1.489-0.383,1.757h-9.144c-0.156-0.268-0.384-0.874-0.384-1.757V68.823
		c0-1.089-0.884-1.973-1.973-1.973h-2.206l3.842-5.688c0.408-0.605,0.449-1.387,0.105-2.031c-0.342-0.644-1.012-1.047-1.741-1.047
		h-2.192c-0.967,0-1.755-0.787-1.755-1.757V37.592c0-0.97,0.788-1.756,1.755-1.756h18.24c0.969,0,1.756,0.786,1.756,1.756v18.736
		c0,0.97-0.787,1.757-1.756,1.757h-2.191c-0.729,0-1.4,0.403-1.743,1.047C49.441,59.776,49.483,60.558,49.892,61.163z"/>
	<path d="M68.096,64.329h-0.043v-1.972c0-1.091-0.883-1.976-1.973-1.976c-1.091,0-1.975,0.885-1.975,1.976v1.972h-0.043
		c-1.91,0-3.464,1.556-3.464,3.465v16.97c0,1.909,1.554,3.464,3.464,3.464h4.033c1.91,0,3.464-1.555,3.464-3.464v-16.97
		C71.56,65.885,70.006,64.329,68.096,64.329z M67.614,84.281h-3.069V68.276h3.069V84.281z"/>
	<path d="M44.393,42.044c-1.09,0-1.973,0.884-1.973,1.973v11.188c0,1.089,0.883,1.974,1.973,1.974s1.974-0.885,1.974-1.974V44.017
		C46.366,42.928,45.482,42.044,44.393,42.044z"/>
	<circle cx="44.393" cy="39.58" r="1.748"/>
</g>
</svg>
