<?xml version="1.0" encoding="utf-8"?>
<!-- Generator: Adobe Illustrator 16.0.0, SVG Export Plug-In . SVG Version: 6.00 Build 0)  -->
<!DOCTYPE svg PUBLIC "-//W3C//DTD SVG 1.1//EN" "http://www.w3.org/Graphics/SVG/1.1/DTD/svg11.dtd">
<svg version="1.1" id="Layer_1" xmlns="http://www.w3.org/2000/svg" xmlns:xlink="http://www.w3.org/1999/xlink" x="0px" y="0px"
	 width="100px" height="100px" viewBox="0 0 100 100" enable-background="new 0 0 100 100" xml:space="preserve">
<path d="M81.688,36.957H71.523H60.494v-0.001v-0.069c0-0.113-0.016-0.221-0.029-0.328c1.508-1.919,2.423-4.327,2.423-6.954
	c0-6.228-5.068-11.297-11.296-11.297c-6.228,0-11.296,5.069-11.296,11.297c0,2.624,0.912,5.026,2.417,6.946
	c-0.008,0.081-0.023,0.159-0.023,0.242v0.163v0.001H31.687H21.521c-0.875,0.197-1.539,0.974-1.54,1.931
	c0.002,1.106,0.873,2.004,1.949,2.004l0.957-0.001h3.405h14.194h2.204v0.011v20.784H32.66c-3.093,0-5.611,2.51-5.628,5.599v13.894
	c0,3.103,2.525,5.628,5.629,5.628c3.103,0,5.628-2.525,5.628-5.628v-8.234h4.401h3.947h4.955h4.955h3.947h4.619v8.234
	c0,3.103,2.526,5.628,5.628,5.628c3.104,0,5.629-2.525,5.629-5.628V67.314c0-3.103-2.525-5.629-5.627-5.629H60.494V40.901v-0.01
	h2.23h14.192h3.406h0.957c1.076,0,1.946-0.897,1.949-2.004C83.228,37.931,82.565,37.154,81.688,36.957z M51.592,22.257
	c4.053,0,7.349,3.295,7.349,7.348c0,4.055-3.296,7.352-7.349,7.352c-4.053,0-7.349-3.297-7.349-7.352
	C44.243,25.552,47.539,22.257,51.592,22.257z M70.743,65.631c0.891,0,1.623,0.697,1.678,1.578l0.003,13.969
	c0,0.927-0.755,1.681-1.683,1.681c-0.927,0-1.682-0.754-1.682-1.681V68.995h-8.565h-3.991h-4.912h-4.94H42.69h-8.348v12.183
	c0,0.927-0.754,1.681-1.682,1.681c-0.927,0-1.682-0.754-1.682-1.681V67.561l0.006-0.042l-0.003-0.306
	c0.051-0.879,0.785-1.582,1.678-1.582h10.03h3.991v-3.945V40.901h9.823v20.784v3.945h3.991H70.743z"/>
</svg>
