<?xml version="1.0" encoding="utf-8"?>
<!-- Generator: Adobe Illustrator 16.0.0, SVG Export Plug-In . SVG Version: 6.00 Build 0)  -->
<!DOCTYPE svg PUBLIC "-//W3C//DTD SVG 1.1//EN" "http://www.w3.org/Graphics/SVG/1.1/DTD/svg11.dtd">
<svg version="1.1" id="Layer_1" xmlns="http://www.w3.org/2000/svg" xmlns:xlink="http://www.w3.org/1999/xlink" x="0px" y="0px"
	 width="100px" height="100px" viewBox="0 0 100 100" enable-background="new 0 0 100 100" xml:space="preserve">
<path d="M76.418,34.529c-0.3-0.648-0.9-1.112-1.615-1.243c-0.125-0.021-0.25-0.031-0.375-0.031c-0.584,0-1.135,0.227-1.551,0.641
	l-3.553,3.556l-1.658-0.128l-0.128-1.658l3.552-3.554c0.508-0.503,0.735-1.229,0.609-1.941c-0.129-0.706-0.594-1.305-1.246-1.602
	c-1.572-0.719-3.317-1.098-5.047-1.098c-3.226,0-6.26,1.256-8.543,3.537c-3.181,3.183-4.322,7.743-3.038,12.008L32.611,64.228
	c-1.943,1.946-1.959,5.093-0.035,7.021l1.165,1.165c0.926,0.926,2.162,1.436,3.478,1.436c1.334,0,2.592-0.521,3.542-1.469
	l21.216-21.217c1.121,0.332,2.283,0.503,3.463,0.503c3.226,0,6.26-1.259,8.542-3.541C77.533,44.575,78.513,39.112,76.418,34.529z
	 M59.867,47.076L48.016,58.928h-0.009L37.656,69.278c-0.122,0.121-0.275,0.186-0.444,0.186c-0.146,0-0.276-0.052-0.373-0.148
	l-1.165-1.165c-0.215-0.216-0.196-0.582,0.04-0.819l10.118-10.117l0.231-0.238l11.856-11.856c0.64-0.647,0.816-1.601,0.449-2.429
	c-1.301-2.946-0.675-6.316,1.595-8.584c1.393-1.395,3.229-2.188,5.191-2.251l-1.421,1.421c-0.456,0.454-0.688,1.08-0.639,1.722
	l0.349,4.533c0.084,1.081,0.931,1.93,2.017,2.017l4.514,0.347c0.062,0.006,0.124,0.009,0.187,0.009c0.575,0,1.141-0.234,1.552-0.644
	l1.418-1.419c-0.067,1.938-0.856,3.798-2.245,5.186c-1.455,1.456-3.39,2.257-5.447,2.257c-1.09-0.001-2.146-0.224-3.133-0.66
	c-0.282-0.124-0.581-0.188-0.889-0.188C60.83,46.435,60.28,46.663,59.867,47.076z"/>
</svg>
