<?xml version="1.0" encoding="utf-8"?>
<!-- Generator: Adobe Illustrator 16.0.0, SVG Export Plug-In . SVG Version: 6.00 Build 0)  -->
<!DOCTYPE svg PUBLIC "-//W3C//DTD SVG 1.1//EN" "http://www.w3.org/Graphics/SVG/1.1/DTD/svg11.dtd">
<svg version="1.1" id="Layer_1" xmlns="http://www.w3.org/2000/svg" xmlns:xlink="http://www.w3.org/1999/xlink" x="0px" y="0px"
	 width="100px" height="100px" viewBox="0 0 100 100" enable-background="new 0 0 100 100" xml:space="preserve">
<g>
	<path d="M50.755,51.537l0.113-0.011v-0.003C50.876,51.521,50.824,51.526,50.755,51.537z"/>
	<path d="M85.391,48.941l-8.198-8.196c-1.078-1.078-2.51-1.673-4.033-1.673c-1.522,0-2.955,0.595-4.031,1.67l-3.855,3.855
		c-0.073-0.464-0.19-0.927-0.4-1.367l-0.505-1.063c-0.832-1.747-2.552-2.833-4.489-2.833c-0.799,0-1.605,0.195-2.327,0.566
		l-3.702,1.901l-1.729-4.179c-0.353-0.742-0.824-1.4-1.371-1.963c4.307-0.911,7.555-4.85,7.555-9.555
		c0-5.378-4.243-9.751-9.458-9.751c-5.214,0-9.458,4.373-9.458,9.751c0,1.317,0.259,2.576,0.721,3.725
		c-0.537-0.055-1.082-0.032-1.609,0.093c-0.162-0.011-0.326-0.021-0.494-0.021H22.551c-0.759,0-1.507,0.119-2.226,0.354
		c-1.387,0.315-2.572,1.234-3.219,2.45c-0.117,0.19-0.213,0.387-0.309,0.603c-0.266,0.618-0.396,1.212-0.396,1.813V46.27
		c0,2.878,2.234,5.22,4.979,5.22h1.14c2.744,0,4.979-2.342,4.979-5.22v-4.697h3.188l-6.193,12.383
		c-0.621,1.212-0.732,2.604-0.326,3.9c0,0.017,0,0.033,0,0.049v6.064h-5.493c-3.163,0-5.736,2.639-5.736,5.884v1.483
		c0,3.246,2.573,5.889,5.736,5.889h12.659c3.163,0,5.736-2.643,5.736-5.889v-3.305l14.756,15.336
		c1.086,1.129,2.536,1.748,4.082,1.748c1.548,0,2.998-0.619,4.084-1.748l1.01-1.05c2.193-2.279,2.193-5.987,0-8.27L43.647,56.017
		l2.053-4.108c0.309,0.592,0.691,1.137,1.142,1.625c0.886,1.155,2.222,1.853,3.586,1.915c0.148,0.016,0.294,0.021,0.44,0.021
		l0.383-0.016c0.502-0.033,0.973-0.144,1.406-0.326l4.277-2.191l-0.906,0.903c-1.077,1.08-1.67,2.51-1.67,4.032
		c0,1.523,0.594,2.957,1.67,4.033l8.199,8.199c1.077,1.078,2.51,1.671,4.033,1.671s2.955-0.593,4.031-1.669l13.1-13.1
		c1.077-1.076,1.671-2.507,1.671-4.032C87.063,51.451,86.469,50.02,85.391,48.941z M48.846,20.301c3.04,0,5.513,2.604,5.513,5.805
		s-2.473,5.805-5.513,5.805c-3.039,0-5.511-2.604-5.511-5.805S45.807,20.301,48.846,20.301z M51.108,51.497
		c0,0-0.043,0.019-0.164,0.023l-0.076,0.006v1.971l-0.139-1.957c0.011-0.001,0.016-0.003,0.025-0.003l-0.025,0.002l-0.002-0.025
		c-0.314-0.015-0.596-0.162-0.771-0.406l-0.172-0.206c-0.264-0.276-0.481-0.593-0.605-0.849l-3.149-7.625L38.87,56.743
		l19.287,20.041c0.729,0.76,0.729,2.04,0,2.796l-1.01,1.051c-0.67,0.695-1.809,0.695-2.479,0L36.616,61.869l-0.498-0.437
		l-2.996-0.718v10.621c0,1.07-0.802,1.941-1.789,1.941H18.674c-0.987,0-1.79-0.871-1.79-1.941v-1.483
		c0-1.068,0.803-1.938,1.79-1.938h9.44l-0.001-9.944l0.064-0.714l-0.195-0.45c-0.149-0.346-0.142-0.73,0.03-1.068l9.06-18.111
		H23.552v8.643c0,0.69-0.473,1.273-1.031,1.273h-1.14c-0.56,0-1.032-0.583-1.032-1.273V35.121c0-0.023,0.008-0.096,0.031-0.159
		l0.147-0.292c0.165-0.309,0.419-0.517,0.694-0.569l0.272-0.075c0.34-0.116,0.695-0.178,1.057-0.178h15.454
		c0.146,0,0.285,0.02,0.424,0.038l0.453,0.054l0.434-0.147c0.256-0.089,0.521-0.071,0.756,0.062l7.046,3.901
		c0.069,0.04,0.134,0.085,0.192,0.135l0.179,0.136c0.306,0.21,0.74,0.603,1.026,1.199l3.323,8.048l7.517-3.861
		c0.553-0.283,1.197-0.075,1.449,0.453l0.505,1.062c0.275,0.58,0.006,1.331-0.589,1.637L51.108,51.497z M82.602,54.217l-13.1,13.098
		c-0.663,0.663-1.819,0.666-2.482,0l-8.2-8.199c-0.332-0.332-0.516-0.773-0.516-1.243s0.184-0.908,0.516-1.24l13.098-13.1
		c0.332-0.332,0.773-0.514,1.242-0.514s0.909,0.182,1.242,0.515l8.199,8.2c0.331,0.331,0.516,0.772,0.516,1.241
		C83.116,53.444,82.933,53.885,82.602,54.217z"/>
</g>
</svg>
