<?xml version="1.0" encoding="utf-8"?>
<!-- Generator: Adobe Illustrator 16.0.0, SVG Export Plug-In . SVG Version: 6.00 Build 0)  -->
<!DOCTYPE svg PUBLIC "-//W3C//DTD SVG 1.1//EN" "http://www.w3.org/Graphics/SVG/1.1/DTD/svg11.dtd">
<svg version="1.1" id="Layer_1" xmlns="http://www.w3.org/2000/svg" xmlns:xlink="http://www.w3.org/1999/xlink" x="0px" y="0px"
	 width="100px" height="100px" viewBox="0 0 100 100" enable-background="new 0 0 100 100" xml:space="preserve">
<g>
	<path d="M60.338,38.334H41.057c-0.86,0-1.559,0.697-1.559,1.559c0,0.86,0.698,1.558,1.559,1.558h19.281
		c0.86,0,1.559-0.697,1.559-1.558C61.896,39.031,61.198,38.334,60.338,38.334z"/>
	<path d="M60.338,43.008H41.057c-0.86,0-1.559,0.697-1.559,1.559s0.698,1.559,1.559,1.559h19.281c0.86,0,1.559-0.697,1.559-1.559
		S61.198,43.008,60.338,43.008z"/>
	<path d="M60.338,47.683H41.057c-0.86,0-1.559,0.696-1.559,1.558s0.698,1.559,1.559,1.559h19.281c0.86,0,1.559-0.697,1.559-1.559
		S61.198,47.683,60.338,47.683z"/>
	<path d="M77.282,36.191h-2.224c-0.383-1.042-0.91-2.215-1.699-3.528c-0.442-0.738-1.399-0.979-2.138-0.534
		c-0.737,0.443-0.977,1.4-0.534,2.138c0.432,0.72,0.754,1.374,1.029,1.989c-0.277,0.118-0.473,0.394-0.473,0.715v12.173
		c0,0.431,0.349,0.778,0.779,0.778h0.779V69.69c0,1.651-0.535,2.292-0.974,2.337c-1.133,0-1.169-2.128-1.169-2.142V46.903
		c0-1.557-0.697-2.459-1.281-2.941c-0.68-0.56-1.496-0.788-2.225-0.874V28.401c0-0.861-0.697-1.559-1.558-1.559H35.798
		c-0.86,0-1.558,0.697-1.558,1.559v48.885h-1.363c-0.861,0-1.559,0.697-1.559,1.559c0,0.86,0.697,1.558,1.559,1.558h2.921h29.799
		h3.505c0.861,0,1.559-0.697,1.559-1.558c0-0.861-0.697-1.559-1.559-1.559h-1.947V46.254c0.095,0.032,0.186,0.065,0.244,0.114
		c0.096,0.082,0.146,0.262,0.146,0.535v22.982c0,2.533,1.341,5.258,4.285,5.258c1.414,0,4.09-1.14,4.09-5.453V49.922h1.363
		c0.431,0,0.778-0.348,0.778-0.778V36.971C78.061,36.54,77.713,36.191,77.282,36.191z M37.355,77.286V29.959h26.684v47.327H37.355z"
		/>
</g>
</svg>
