<?xml version="1.0" encoding="utf-8"?>
<!-- Generator: Adobe Illustrator 16.0.0, SVG Export Plug-In . SVG Version: 6.00 Build 0)  -->
<!DOCTYPE svg PUBLIC "-//W3C//DTD SVG 1.1//EN" "http://www.w3.org/Graphics/SVG/1.1/DTD/svg11.dtd">
<svg version="1.1" id="Layer_1" xmlns="http://www.w3.org/2000/svg" xmlns:xlink="http://www.w3.org/1999/xlink" x="0px" y="0px"
	 width="100px" height="100px" viewBox="0 0 100 100" enable-background="new 0 0 100 100" xml:space="preserve">
<g>
	<path d="M69.048,48.704h-6.323v-1.445c0-5.771-4.693-10.464-10.463-10.464c-5.771,0-10.464,4.693-10.464,10.464v1.445h-6.322
		c-1.04,0-1.882,0.843-1.882,1.882V75.64c0,1.039,0.842,1.882,1.882,1.882h33.572c1.04,0,1.882-0.843,1.882-1.882V50.586
		C70.93,49.547,70.088,48.704,69.048,48.704z M45.562,47.259c0-3.695,3.006-6.7,6.7-6.7s6.699,3.005,6.699,6.7v1.445H45.562V47.259z
		 M67.167,52.468v6.85h-29.81v-6.85H67.167z M37.357,73.758V63.081h29.81v10.677H37.357z"/>
</g>
</svg>
