<?xml version="1.0" encoding="utf-8"?>
<!-- Generator: Adobe Illustrator 16.0.0, SVG Export Plug-In . SVG Version: 6.00 Build 0)  -->
<!DOCTYPE svg PUBLIC "-//W3C//DTD SVG 1.1//EN" "http://www.w3.org/Graphics/SVG/1.1/DTD/svg11.dtd">
<svg version="1.1" id="Layer_1" xmlns="http://www.w3.org/2000/svg" xmlns:xlink="http://www.w3.org/1999/xlink" x="0px" y="0px"
	 width="100px" height="100px" viewBox="0 0 100 100" enable-background="new 0 0 100 100" xml:space="preserve">
<path d="M69.414,38.396c1.322-1.673,5.238-7.186,3.396-11.708c-1.144-2.805-4.086-4.442-8.745-4.867
	c-3.442-0.325-6.923,1.428-10.298,3.109c-5.629,2.804-9.287,4.283-12.618,1.175c-0.861-0.806-2.211-0.758-3.015,0.103
	s-0.758,2.21,0.103,3.014c5.734,5.358,12.221,2.125,17.433-0.472c2.973-1.483,5.779-2.898,8.008-2.679
	c1.656,0.149,4.531,0.64,5.18,2.226c0.76,1.855-1.09,5.165-2.486,7.057l-2.114-2.113c-0.833-0.833-2.183-0.833-3.016,0l-2.969,2.969
	c-2.458-0.99-5.036-1.491-7.686-1.491c-11.437,0-20.742,9.305-20.742,20.742s9.305,20.742,20.742,20.742s20.742-9.305,20.742-20.742
	c0-3.143-0.726-6.251-2.111-9.082l2.581-2.581c0.833-0.834,0.833-2.184,0-3.017L69.414,38.396z M64.751,47.081
	c1.511,2.549,2.31,5.445,2.31,8.379c0,9.084-7.391,16.476-16.476,16.476S34.109,64.544,34.109,55.46S41.5,38.984,50.585,38.984
	c2.506,0,4.935,0.566,7.221,1.686c0.818,0.399,1.801,0.238,2.446-0.408l2.497-2.497l4.524,4.523l-2.196,2.196
	C64.388,45.173,64.254,46.242,64.751,47.081z"/>
</svg>
