<?xml version="1.0" encoding="utf-8"?>
<!-- Generator: Adobe Illustrator 16.0.0, SVG Export Plug-In . SVG Version: 6.00 Build 0)  -->
<!DOCTYPE svg PUBLIC "-//W3C//DTD SVG 1.1//EN" "http://www.w3.org/Graphics/SVG/1.1/DTD/svg11.dtd">
<svg version="1.1" id="Layer_1" xmlns="http://www.w3.org/2000/svg" xmlns:xlink="http://www.w3.org/1999/xlink" x="0px" y="0px"
	 width="100px" height="100px" viewBox="0 0 100 100" enable-background="new 0 0 100 100" xml:space="preserve">
<path d="M67.57,80.459H55.065v-4.782c5.172-0.56,10.158-3.048,14.543-7.282c9.362-9.045,14.953-24.717,14.953-41.919
	c0-1.239-1.006-2.245-2.245-2.245H71.744c-1.238,0-2.244,1.005-2.244,2.245V29.5H36.145v-3.024c0-1.239-1.006-2.245-2.244-2.245
	H23.328c-1.239,0-2.244,1.005-2.244,2.245c0,17.204,5.59,32.874,14.952,41.918c4.38,4.232,9.368,6.722,14.541,7.282v4.784H38.074
	c-1.24,0-2.244,1.005-2.244,2.244c0,1.239,1.004,2.244,2.244,2.244H67.57c1.24,0,2.244-1.005,2.244-2.244
	C69.814,81.464,68.811,80.459,67.57,80.459z M44.851,66.193c-0.327-0.437-0.647-0.898-0.957-1.38
	c-0.103-0.158-0.2-0.329-0.301-0.493c-0.204-0.332-0.412-0.662-0.61-1.012c-0.117-0.208-0.229-0.428-0.342-0.64
	c-0.176-0.326-0.352-0.647-0.521-0.986c-0.118-0.238-0.23-0.489-0.347-0.733c-0.156-0.332-0.313-0.661-0.463-1.004
	c-0.117-0.264-0.228-0.539-0.339-0.809c-0.144-0.342-0.283-0.684-0.421-1.036c-0.109-0.283-0.215-0.576-0.321-0.865
	c-0.129-0.357-0.26-0.714-0.385-1.08c-0.102-0.301-0.2-0.606-0.298-0.913c-0.119-0.371-0.238-0.745-0.352-1.126
	c-0.094-0.314-0.185-0.634-0.275-0.954c-0.107-0.386-0.213-0.773-0.315-1.166c-0.086-0.33-0.169-0.662-0.251-0.996
	c-0.097-0.397-0.19-0.799-0.282-1.204c-0.077-0.342-0.15-0.687-0.224-1.033c-0.086-0.41-0.168-0.824-0.248-1.239
	c-0.065-0.352-0.132-0.704-0.196-1.061c-0.072-0.425-0.145-0.855-0.213-1.286c-0.056-0.357-0.112-0.715-0.165-1.076
	c-0.063-0.437-0.121-0.879-0.179-1.322c-0.047-0.364-0.093-0.728-0.136-1.094c-0.051-0.449-0.097-0.901-0.14-1.356
	c-0.038-0.368-0.075-0.736-0.107-1.109c-0.039-0.462-0.071-0.926-0.104-1.393c-0.024-0.37-0.053-0.738-0.073-1.11
	c-0.026-0.476-0.045-0.957-0.063-1.438c-0.015-0.365-0.032-0.73-0.044-1.099c0-0.063,0-0.127-0.003-0.191h33.291
	c-0.003,0.064-0.003,0.128-0.003,0.191c-0.011,0.367-0.028,0.73-0.043,1.096c-0.02,0.482-0.038,0.963-0.064,1.442
	c-0.021,0.37-0.049,0.736-0.073,1.103c-0.032,0.469-0.064,0.937-0.104,1.401c-0.032,0.368-0.069,0.733-0.105,1.099
	c-0.045,0.458-0.091,0.915-0.142,1.366c-0.042,0.364-0.089,0.723-0.135,1.083c-0.059,0.447-0.116,0.894-0.181,1.335
	c-0.052,0.356-0.106,0.71-0.164,1.063c-0.068,0.436-0.14,0.87-0.216,1.299c-0.062,0.351-0.126,0.7-0.193,1.046
	c-0.079,0.421-0.163,0.84-0.25,1.255c-0.071,0.342-0.145,0.681-0.22,1.017c-0.093,0.411-0.188,0.818-0.287,1.222
	c-0.08,0.329-0.16,0.656-0.245,0.98c-0.104,0.398-0.212,0.792-0.321,1.182c-0.09,0.315-0.179,0.631-0.271,0.941
	c-0.115,0.384-0.235,0.763-0.355,1.138c-0.098,0.303-0.195,0.606-0.295,0.903c-0.125,0.37-0.257,0.729-0.389,1.09
	c-0.104,0.286-0.209,0.574-0.316,0.854c-0.14,0.356-0.282,0.701-0.426,1.048c-0.111,0.267-0.221,0.538-0.334,0.799
	c-0.152,0.345-0.311,0.678-0.468,1.011c-0.114,0.243-0.227,0.491-0.344,0.728c-0.169,0.339-0.345,0.664-0.52,0.989
	c-0.114,0.212-0.226,0.433-0.342,0.637c-0.199,0.352-0.406,0.682-0.611,1.015c-0.103,0.162-0.198,0.333-0.301,0.491
	c-0.31,0.482-0.63,0.944-0.957,1.381c-0.837,1.121-1.924,2.338-3.201,3.307c-0.053,0.041-0.1,0.086-0.152,0.124
	c-0.216,0.158-0.443,0.294-0.67,0.436c-0.128,0.079-0.247,0.171-0.379,0.244c-0.189,0.108-0.392,0.187-0.589,0.28
	c-0.177,0.083-0.349,0.183-0.533,0.253c-0.169,0.065-0.348,0.099-0.521,0.152c-0.222,0.069-0.439,0.15-0.668,0.196
	c-0.177,0.034-0.362,0.034-0.542,0.054c-0.238,0.026-0.472,0.07-0.714,0.07c-0.002,0-0.002,0-0.003,0
	C49.394,71.308,46.596,68.526,44.851,66.193z M73.989,28.72h6.049c-0.456,14.538-5.309,28.023-12.936,35.837
	c0.046-0.085,0.084-0.181,0.127-0.268c0.468-0.896,0.913-1.828,1.336-2.804c0.076-0.174,0.147-0.355,0.222-0.532
	c0.409-0.976,0.801-1.983,1.166-3.029c0.026-0.078,0.056-0.152,0.083-0.229c0.376-1.093,0.721-2.231,1.045-3.393
	c0.064-0.228,0.129-0.454,0.191-0.685c0.309-1.147,0.592-2.322,0.851-3.526c0.047-0.219,0.089-0.441,0.135-0.662
	c0.252-1.229,0.483-2.479,0.682-3.758c0.009-0.047,0.018-0.092,0.023-0.139c0.202-1.306,0.364-2.642,0.507-3.993
	c0.028-0.254,0.055-0.506,0.081-0.761c0.127-1.316,0.228-2.65,0.298-4c0.015-0.253,0.023-0.507,0.035-0.76
	c0.063-1.413,0.105-2.834,0.105-4.275V28.72z M25.607,28.72h6.049v3.024c0,1.44,0.042,2.862,0.104,4.275
	c0.012,0.253,0.021,0.507,0.035,0.76c0.07,1.35,0.171,2.684,0.298,4c0.025,0.255,0.053,0.507,0.081,0.76
	c0.142,1.352,0.305,2.688,0.507,3.995c0.006,0.046,0.015,0.09,0.023,0.137c0.198,1.283,0.43,2.533,0.684,3.764
	c0.044,0.218,0.085,0.437,0.132,0.653c0.26,1.207,0.543,2.384,0.853,3.534c0.062,0.227,0.125,0.448,0.188,0.672
	c0.327,1.166,0.672,2.309,1.049,3.406c0.023,0.07,0.051,0.136,0.076,0.205c0.368,1.06,0.764,2.078,1.178,3.065
	c0.07,0.168,0.139,0.339,0.21,0.504c0.427,0.983,0.877,1.924,1.348,2.827c0.042,0.081,0.078,0.172,0.119,0.253
	C30.915,56.741,26.063,43.256,25.607,28.72z"/>
</svg>
