<?xml version="1.0" encoding="utf-8"?>
<!-- Generator: Adobe Illustrator 16.0.0, SVG Export Plug-In . SVG Version: 6.00 Build 0)  -->
<!DOCTYPE svg PUBLIC "-//W3C//DTD SVG 1.1//EN" "http://www.w3.org/Graphics/SVG/1.1/DTD/svg11.dtd">
<svg version="1.1" id="Layer_1" xmlns="http://www.w3.org/2000/svg" xmlns:xlink="http://www.w3.org/1999/xlink" x="0px" y="0px"
	 width="100px" height="100px" viewBox="0 0 100 100" enable-background="new 0 0 100 100" xml:space="preserve">
<g>
	<path d="M51.297,21.458c-15.853,0-28.75,12.897-28.75,28.75s12.897,28.75,28.75,28.75s28.75-12.897,28.75-28.75
		S67.15,21.458,51.297,21.458z M51.297,76.958c-14.75,0-26.75-12-26.75-26.75s12-26.75,26.75-26.75s26.75,12,26.75,26.75
		S66.047,76.958,51.297,76.958z"/>
	<path d="M68.354,33.24c-0.015-0.017-0.02-0.038-0.036-0.054s-0.037-0.021-0.054-0.035c-4.355-4.333-10.354-7.016-16.968-7.016
		s-12.613,2.683-16.968,7.016c-0.017,0.014-0.038,0.02-0.054,0.035s-0.021,0.037-0.036,0.054
		c-4.333,4.355-7.015,10.354-7.015,16.968c0,6.626,2.691,12.635,7.038,16.992c0.007,0.008,0.01,0.018,0.017,0.025
		s0.018,0.01,0.025,0.018c4.357,4.346,10.366,7.037,16.992,7.037c13.273,0,24.072-10.799,24.072-24.072
		C75.369,43.593,72.687,37.595,68.354,33.24z M35.007,35.332l13.876,13.876H29.25C29.49,43.875,31.628,39.028,35.007,35.332z
		 M29.25,51.208h19.632L35.007,65.084C31.628,61.387,29.49,56.541,29.25,51.208z M50.297,72.254
		c-5.333-0.239-10.179-2.378-13.876-5.756l13.876-13.877V72.254z M50.297,47.793L36.421,33.917
		c3.696-3.379,8.543-5.518,13.876-5.757V47.793z M73.343,49.208H53.711l13.876-13.876C70.966,39.028,73.104,43.875,73.343,49.208z
		 M52.297,28.161c5.333,0.239,10.18,2.378,13.876,5.757L52.297,47.793V28.161z M52.297,72.254V52.622l13.876,13.876
		C62.477,69.876,57.63,72.015,52.297,72.254z M67.587,65.083L53.711,51.208h19.632C73.104,56.541,70.966,61.387,67.587,65.083z"/>
	<path d="M56.52,36.849c-0.513-0.202-1.094,0.054-1.295,0.567l-2.598,6.647c-0.201,0.515,0.053,1.095,0.567,1.296
		c0.12,0.047,0.243,0.068,0.364,0.068c0.4,0,0.777-0.241,0.932-0.636l2.598-6.647C57.288,37.63,57.034,37.05,56.52,36.849z"/>
	<path d="M46.076,63.562c0.12,0.047,0.243,0.068,0.364,0.068c0.4,0,0.777-0.241,0.932-0.636l2.594-6.637
		c0.201-0.515-0.053-1.095-0.567-1.296c-0.514-0.201-1.094,0.054-1.295,0.567l-2.594,6.637
		C45.308,62.781,45.562,63.361,46.076,63.562z"/>
	<path d="M45.032,38.386l2.863,6.537c0.165,0.375,0.531,0.599,0.917,0.599c0.134,0,0.27-0.026,0.401-0.084
		c0.506-0.222,0.736-0.812,0.515-1.317l-2.863-6.537c-0.222-0.505-0.809-0.737-1.317-0.515C45.041,37.291,44.81,37.88,45.032,38.386
		z"/>
	<path d="M55.733,62.828c0.165,0.375,0.531,0.599,0.917,0.599c0.134,0,0.27-0.026,0.401-0.084c0.506-0.222,0.736-0.812,0.515-1.317
		l-2.859-6.527c-0.222-0.505-0.81-0.739-1.317-0.515c-0.506,0.222-0.736,0.812-0.515,1.317L55.733,62.828z"/>
	<path d="M45.885,47.014l-6.647-2.599c-0.515-0.201-1.094,0.054-1.295,0.567c-0.201,0.515,0.053,1.095,0.567,1.296l6.647,2.599
		c0.12,0.047,0.243,0.068,0.364,0.068c0.4,0,0.777-0.241,0.932-0.636C46.653,47.795,46.399,47.215,45.885,47.014z"/>
	<path d="M56.723,53.401l6.637,2.594c0.119,0.047,0.242,0.068,0.363,0.068c0.4,0,0.778-0.241,0.932-0.636
		c0.201-0.515-0.053-1.095-0.568-1.296l-6.637-2.594c-0.511-0.202-1.094,0.054-1.295,0.567C55.954,52.62,56.208,53.2,56.723,53.401z
		"/>
	<path d="M46.531,52.292c-0.222-0.505-0.812-0.739-1.317-0.515l-6.538,2.862c-0.506,0.222-0.737,0.812-0.515,1.317
		c0.165,0.375,0.531,0.599,0.917,0.599c0.134,0,0.27-0.026,0.4-0.084l6.538-2.862C46.522,53.388,46.752,52.798,46.531,52.292z"/>
	<path d="M56.076,48.115c0.165,0.375,0.531,0.599,0.917,0.599c0.134,0,0.27-0.026,0.401-0.084l6.527-2.858
		c0.506-0.222,0.736-0.812,0.515-1.317c-0.222-0.505-0.81-0.738-1.317-0.515l-6.527,2.858
		C56.084,47.019,55.854,47.609,56.076,48.115z"/>
</g>
</svg>
