<?xml version="1.0" encoding="utf-8"?>
<!-- Generator: Adobe Illustrator 16.0.0, SVG Export Plug-In . SVG Version: 6.00 Build 0)  -->
<!DOCTYPE svg PUBLIC "-//W3C//DTD SVG 1.1//EN" "http://www.w3.org/Graphics/SVG/1.1/DTD/svg11.dtd">
<svg version="1.1" id="Layer_1" xmlns="http://www.w3.org/2000/svg" xmlns:xlink="http://www.w3.org/1999/xlink" x="0px" y="0px"
	 width="100px" height="100px" viewBox="0 0 100 100" enable-background="new 0 0 100 100" xml:space="preserve">
<g>
	<path d="M68.557,43.954c0.01-0.236,0.035-0.469,0.035-0.708c0-9.193-7.479-16.674-16.673-16.674
		c-9.193,0-16.673,7.48-16.673,16.674c0,0.339,0.031,0.669,0.051,1.004c-5.582,2.698-9.452,8.399-9.452,15.005
		c0,9.193,7.479,16.673,16.673,16.673c3.627,0,6.977-1.176,9.717-3.151c2.738,1.976,6.089,3.151,9.716,3.151
		c9.193,0,16.673-7.479,16.673-16.673C78.623,52.407,74.472,46.518,68.557,43.954z M52.234,66.268
		c-1.33-1.839-2.148-4.063-2.256-6.473c0.637,0.074,1.283,0.123,1.94,0.123c0.878,0,1.733-0.089,2.575-0.221
		C54.404,62.146,53.582,64.405,52.234,66.268z M51.919,55.243c-0.419,0-0.832-0.022-1.239-0.063
		c0.382-1.056,0.906-2.042,1.555-2.937c0.628,0.869,1.141,1.822,1.521,2.846C53.154,55.181,52.545,55.243,51.919,55.243z
		 M46.213,53.797c-2.537-1.378-4.514-3.649-5.531-6.385c0.602-0.093,1.211-0.155,1.836-0.155c2.303,0,4.448,0.664,6.277,1.793
		C47.69,50.468,46.814,52.066,46.213,53.797z M55.673,49.05c1.829-1.129,3.974-1.793,6.277-1.793c0.419,0,0.832,0.023,1.239,0.064
		c-0.938,2.584-2.733,4.753-5.049,6.165C57.543,51.875,56.71,50.382,55.673,49.05z M51.919,31.247
		c6.435,0,11.686,5.094,11.972,11.459c-0.637-0.074-1.283-0.123-1.94-0.123c-3.627,0-6.978,1.176-9.716,3.15
		c-2.74-1.975-6.09-3.15-9.717-3.15c-0.877,0-1.732,0.088-2.574,0.219C40.18,36.393,45.453,31.247,51.919,31.247z M30.52,59.255
		c0-4.337,2.32-8.132,5.777-10.239c1.584,4.271,4.855,7.727,9.016,9.531c-0.01,0.235-0.035,0.469-0.035,0.708
		c0,3.846,1.321,7.383,3.518,10.206c-1.829,1.13-3.975,1.792-6.277,1.792C35.901,71.253,30.52,65.87,30.52,59.255z M61.95,71.253
		c-2.304,0-4.448-0.662-6.277-1.792c2.195-2.823,3.518-6.36,3.518-10.206c0-0.34-0.03-0.672-0.051-1.005
		c3.966-1.915,7.056-5.347,8.517-9.548c3.744,2.033,6.292,6.002,6.292,10.553C73.948,65.87,68.566,71.253,61.95,71.253z"/>
</g>
</svg>
