<?xml version="1.0" encoding="utf-8"?>
<!-- Generator: Adobe Illustrator 16.0.0, SVG Export Plug-In . SVG Version: 6.00 Build 0)  -->
<!DOCTYPE svg PUBLIC "-//W3C//DTD SVG 1.1//EN" "http://www.w3.org/Graphics/SVG/1.1/DTD/svg11.dtd">
<svg version="1.1" id="Layer_1" xmlns="http://www.w3.org/2000/svg" xmlns:xlink="http://www.w3.org/1999/xlink" x="0px" y="0px"
	 width="100px" height="100px" viewBox="0 0 100 100" enable-background="new 0 0 100 100" xml:space="preserve">
<path d="M65.472,47.002h-4.383c0.021-1.771-0.02-4.646-0.086-9.445c-0.016-1.046-0.869-1.888-1.916-1.888h-3.512
	c-0.726,0-1.389,0.41-1.713,1.059l-6.494,12.988h-0.392c-0.284-0.702-0.973-1.197-1.776-1.197h-9.098
	c-1.059,0-1.916,0.858-1.916,1.916v12.849c0,1.058,0.857,1.916,1.916,1.916H45.2c1.059,0,1.916-0.858,1.916-1.916v-0.557
	l1.077-0.045l1.631,1.863c0.363,0.417,0.889,0.655,1.441,0.655h14.206c1.059,0,1.915-0.858,1.915-1.916V48.917
	C67.387,47.86,66.53,47.002,65.472,47.002z M43.284,61.368h-5.268v-9.019h5.268v8.54V61.368z M63.556,61.368H52.135l-1.662-1.899
	c-0.382-0.437-0.933-0.668-1.521-0.653l-1.835,0.076v-5.345h1.436c0.727,0,1.389-0.411,1.714-1.059L56.759,39.5h0.438
	c0.048,4.091,0.065,8.106,0.018,9.002c-0.029,0.133-0.045,0.273-0.045,0.416c0,1.057,0.857,1.915,1.914,1.915h4.473V61.368z"/>
</svg>
