<?xml version="1.0" encoding="utf-8"?>
<!-- Generator: Adobe Illustrator 16.0.0, SVG Export Plug-In . SVG Version: 6.00 Build 0)  -->
<!DOCTYPE svg PUBLIC "-//W3C//DTD SVG 1.1//EN" "http://www.w3.org/Graphics/SVG/1.1/DTD/svg11.dtd">
<svg version="1.1" id="Layer_1" xmlns="http://www.w3.org/2000/svg" xmlns:xlink="http://www.w3.org/1999/xlink" x="0px" y="0px"
	 width="100px" height="100px" viewBox="0 0 100 100" enable-background="new 0 0 100 100" xml:space="preserve">
<g>
	<path d="M31.981,64.695h46.503c0.661,0,1.294-0.263,1.762-0.729c0.466-0.468,0.729-1.103,0.729-1.762V28.988
		c0-1.376-1.114-2.492-2.491-2.492H31.981c-0.661,0-1.295,0.264-1.762,0.73c-0.466,0.467-0.729,1.102-0.729,1.762v33.216
		c0,0.688,0.278,1.312,0.729,1.762C30.669,64.416,31.293,64.695,31.981,64.695z M34.471,31.479h41.521v28.233H34.471V31.479z"/>
	<g>
		<path d="M80.09,73.783h-50.6c-1.386,0-2.509-1.124-2.509-2.51c0-1.385,1.124-2.509,2.509-2.509h50.6
			c1.386,0,2.509,1.124,2.509,2.509C82.599,72.659,81.476,73.783,80.09,73.783z"/>
	</g>
</g>
</svg>
