<?xml version="1.0" encoding="utf-8"?>
<!-- Generator: Adobe Illustrator 16.0.0, SVG Export Plug-In . SVG Version: 6.00 Build 0)  -->
<!DOCTYPE svg PUBLIC "-//W3C//DTD SVG 1.1//EN" "http://www.w3.org/Graphics/SVG/1.1/DTD/svg11.dtd">
<svg version="1.1" id="Layer_1" xmlns="http://www.w3.org/2000/svg" xmlns:xlink="http://www.w3.org/1999/xlink" x="0px" y="0px"
	 width="100px" height="100px" viewBox="0 0 100 100" enable-background="new 0 0 100 100" xml:space="preserve">
<path d="M69.299,34.029c-4.268-4.14-9.89-6.419-15.828-6.419c-6.56,0-12.802,2.839-17.126,7.789
	c-3.621,4.144-5.615,9.454-5.615,14.953c0,5.852,2.223,11.413,6.257,15.659c4.341,4.568,10.195,7.083,16.484,7.083
	c6.307,0,12.173-2.528,16.517-7.118c4.014-4.243,6.225-9.791,6.225-15.646C76.207,44.136,73.751,38.348,69.299,34.029z
	 M59.368,55.83c-0.211-0.065-0.424-0.121-0.727-0.201c-0.138-0.039-0.277-0.076-0.417-0.108c-0.223-0.054-0.448-0.1-0.76-0.164
	c-0.136-0.029-0.271-0.057-0.397-0.079c-0.237-0.042-0.476-0.077-0.709-0.109l-0.472-0.067c-0.17-0.02-0.342-0.035-0.515-0.05V52.25
	h5.286c-0.106,1.25-0.32,2.517-0.638,3.79C59.936,56.013,59.368,55.83,59.368,55.83z M55.37,58.866
	c0.029,0.002,0.488,0.068,0.488,0.068c0.188,0.026,0.376,0.053,0.562,0.085c0,0,0.812,0.167,0.948,0.2l0.929,0.253
	c0,0,0.5,0.165,0.537,0.177c-0.863,2.11-2.022,4.211-3.464,6.281V58.866z M65.264,35.879c-0.102,0.123-0.205,0.244-0.313,0.366
	c-0.119,0.139-0.241,0.272-0.36,0.403c-0.109,0.117-0.22,0.232-0.335,0.348c-0.124,0.128-0.251,0.252-0.383,0.378
	c-0.113,0.108-0.227,0.214-0.35,0.324c-0.132,0.118-0.266,0.234-0.401,0.348c-0.122,0.103-0.243,0.203-0.369,0.303
	c-0.139,0.11-0.28,0.218-0.422,0.323l-0.277,0.201c-1.159-2.737-2.566-5.049-3.87-6.866c2.652,0.674,5.112,1.914,7.25,3.661
	C65.377,35.739,65.321,35.809,65.264,35.879z M55.37,45.525l0.146-0.022c0.218-0.032,0.437-0.064,0.653-0.104l0.646-0.137
	c0.19-0.04,0.38-0.081,0.565-0.127l0.535-0.145c0.22-0.061,0.439-0.123,0.657-0.191l0.42-0.141c0,0,0.555-0.193,0.743-0.264
	c0.071-0.027,0.142-0.056,0.211-0.083c0.357,1.392,0.594,2.778,0.707,4.141H55.37V45.525z M58.409,40.835
	c-0.149,0.058-0.952,0.333-0.952,0.333c-0.147,0.046-0.967,0.274-0.967,0.274c-0.138,0.035-0.277,0.065-0.417,0.095
	c0,0-0.661,0.139-0.704,0.145v-7.12c1.121,1.592,2.375,3.673,3.383,6.133L58.409,40.835z M62.25,61.264
	c0.005,0.002,0.271,0.168,0.409,0.261l0.368,0.249c0.14,0.1,0.279,0.199,0.418,0.303l0.368,0.283
	c0.132,0.104,0.262,0.209,0.394,0.32c0.116,0.097,0.229,0.196,0.345,0.301c0.129,0.113,0.254,0.228,0.375,0.341l0.333,0.323
	c0.122,0.122,0.24,0.246,0.356,0.369c0,0,0.399,0.439,0.442,0.489c-2.326,2.083-5.06,3.524-8.042,4.25
	C59.79,66.3,61.208,63.792,62.25,61.264z M68.339,61.369c-0.157-0.166-0.315-0.332-0.481-0.498l-0.37-0.352
	c-0.163-0.152-0.326-0.303-0.501-0.459l-0.281-0.239c0,0-0.474-0.394-0.626-0.513c-0.14-0.109-0.282-0.214-0.415-0.313
	c-0.179-0.133-0.357-0.263-0.531-0.383c-0.146-0.104-0.294-0.201-0.441-0.296c-0.183-0.12-0.367-0.237-0.556-0.353
	c0,0-0.574-0.337-0.635-0.372c0.475-1.763,0.775-3.553,0.899-5.341h7.919c-0.34,3.447-1.596,6.67-3.678,9.44L68.339,61.369z
	 M64.4,48.452c-0.137-1.962-0.486-3.933-1.04-5.881c0.049-0.031,0.098-0.062,0.146-0.093c0.188-0.121,0.374-0.246,0.551-0.371
	c0.156-0.107,0.311-0.217,0.462-0.328c0.18-0.132,0.356-0.267,0.533-0.406l0.44-0.355c0.171-0.144,0.34-0.291,0.534-0.464
	c0.131-0.117,0.262-0.234,0.387-0.352c0.157-0.147,0.31-0.301,0.488-0.479c0,0,0.295-0.297,0.393-0.403
	c0.136-0.143,0.267-0.293,0.46-0.511c0.122-0.138,0.246-0.277,0.368-0.423c0.005-0.007,0.011-0.014,0.017-0.021
	c2.39,2.899,3.82,6.347,4.184,10.087H64.4z M37.86,39.628l0.26,0.256c0.151,0.149,0.303,0.3,0.459,0.445c0,0,0.687,0.609,0.86,0.753
	c0,0,0.713,0.565,0.887,0.694l0.328,0.233c0,0,0.44,0.307,0.588,0.403c0.144,0.095,0.289,0.186,0.432,0.274
	c0.176,0.108,0.353,0.217,0.533,0.322c0.146,0.083,0.293,0.166,0.44,0.246c0.181,0.099,0.622,0.327,0.66,0.347
	c-0.396,1.608-0.652,3.233-0.765,4.851h-7.919C34.94,45.271,36.044,42.26,37.86,39.628z M46.806,44.961
	c0.202,0.056,0.956,0.248,1.091,0.278c0.179,0.04,0.359,0.075,0.539,0.111l0.186,0.036l0.376,0.07
	c0.174,0.03,0.351,0.054,0.527,0.078l0.605,0.081c0.255,0.03,0.514,0.048,0.855,0.075c0,0,0.488,0.032,0.586,0.036v2.727h-5.333
	c0.087-1.169,0.261-2.342,0.521-3.505C46.774,44.952,46.79,44.956,46.806,44.961z M51.572,41.923c-0.03-0.001-0.392-0.03-0.392-0.03
	s-0.474-0.036-0.644-0.055c0,0-0.775-0.105-0.915-0.128l-0.396-0.078c-0.17-0.032-0.34-0.063-0.524-0.106l-0.842-0.216
	c1.061-2.77,2.465-5.091,3.712-6.831V41.923z M41.348,64.049c0.121-0.127,0.243-0.257,0.372-0.385
	c0.105-0.106,0.211-0.209,0.322-0.314c0.127-0.121,0.256-0.239,0.388-0.356l0.335-0.292c0.134-0.113,0.27-0.225,0.41-0.334
	c0.113-0.09,0.228-0.18,0.351-0.271c0.14-0.106,0.283-0.208,0.432-0.313c0.118-0.083,0.237-0.166,0.365-0.249
	c0.126-0.085,0.252-0.165,0.381-0.245c1.042,2.519,2.457,5.018,4.225,7.465c-2.97-0.724-5.693-2.155-8.013-4.224
	C40.958,64.48,41.348,64.049,41.348,64.049z M51.572,55.057c-0.157,0.012-0.313,0.027-0.468,0.046l-0.478,0.067
	c0,0-0.516,0.075-0.708,0.108c-0.139,0.025-0.275,0.055-0.412,0.085l-0.14,0.029c-0.205,0.041-0.409,0.082-0.598,0.129
	c-0.134,0.031-0.267,0.066-0.521,0.135c0,0-0.466,0.126-0.636,0.177c0,0-0.655,0.213-0.698,0.228
	c-0.319-1.267-0.536-2.542-0.649-3.811h5.307V55.057z M48.683,59.477c0.147-0.045,0.936-0.255,0.936-0.255
	c0.128-0.031,0.958-0.201,0.958-0.201c0.151-0.028,0.306-0.05,0.583-0.089c0,0,0.4-0.059,0.413-0.06v7.054
	c-1.441-2.067-2.601-4.161-3.464-6.257C48.123,59.662,48.683,59.477,48.683,59.477z M44.466,39.92
	c-0.017-0.009-0.418-0.238-0.418-0.238c-0.14-0.081-0.279-0.165-0.419-0.252c-0.121-0.075-0.239-0.153-0.365-0.237
	c-0.134-0.089-0.268-0.18-0.405-0.277c-0.117-0.081-0.233-0.167-0.344-0.25l-0.386-0.298l-0.345-0.281
	c-0.125-0.105-0.247-0.211-0.373-0.323l-0.321-0.292l-0.352-0.34c0,0-0.376-0.387-0.407-0.418c2.366-2.279,5.276-3.898,8.433-4.711
	C47.36,33.968,45.714,36.672,44.466,39.92z M42.542,52.25c0.125,1.797,0.428,3.595,0.906,5.367c-0.052,0.03-0.467,0.272-0.619,0.366
	c-0.181,0.111-0.359,0.224-0.544,0.344l-0.441,0.299c-0.177,0.123-0.351,0.25-0.527,0.379c-0.146,0.108-0.291,0.216-0.423,0.322
	c-0.173,0.135-0.342,0.275-0.578,0.473l-0.336,0.288c-0.157,0.137-0.309,0.279-0.461,0.422l-0.105,0.1L39.11,60.9
	c-0.162,0.16-0.319,0.327-0.476,0.493l-0.31,0.331c-2.096-2.775-3.361-6.009-3.702-9.473H42.542z"/>
</svg>
