<?xml version="1.0" encoding="utf-8"?>
<!-- Generator: Adobe Illustrator 16.0.0, SVG Export Plug-In . SVG Version: 6.00 Build 0)  -->
<!DOCTYPE svg PUBLIC "-//W3C//DTD SVG 1.1//EN" "http://www.w3.org/Graphics/SVG/1.1/DTD/svg11.dtd">
<svg version="1.1" id="Layer_1" xmlns="http://www.w3.org/2000/svg" xmlns:xlink="http://www.w3.org/1999/xlink" x="0px" y="0px"
	 width="100px" height="100px" viewBox="0 0 100 100" enable-background="new 0 0 100 100" xml:space="preserve">
<g>
	<g>
		<path d="M34.202,42.333c-4.242,0-7.693-3.452-7.693-7.694s3.451-7.693,7.693-7.693s7.695,3.451,7.695,7.693
			S38.444,42.333,34.202,42.333z M34.202,30.062c-2.523,0-4.576,2.053-4.576,4.577s2.053,4.579,4.576,4.579
			c2.525,0,4.578-2.054,4.578-4.579S36.728,30.062,34.202,30.062z"/>
	</g>
	<g>
		<path d="M50.202,42.274c-4.242,0-7.693-3.453-7.693-7.695s3.451-7.693,7.693-7.693s7.695,3.451,7.695,7.693
			S54.444,42.274,50.202,42.274z M50.202,30.003c-2.523,0-4.576,2.053-4.576,4.577c0,2.524,2.053,4.579,4.576,4.579
			c2.525,0,4.578-2.054,4.578-4.579C54.78,32.056,52.728,30.003,50.202,30.003z"/>
	</g>
	<g>
		<path d="M65.933,42.274c-4.242,0-7.693-3.453-7.693-7.695s3.451-7.693,7.693-7.693s7.693,3.451,7.693,7.693
			S70.175,42.274,65.933,42.274z M65.933,30.003c-2.523,0-4.578,2.053-4.578,4.577c0,2.524,2.055,4.579,4.578,4.579
			c2.525,0,4.578-2.054,4.578-4.579C70.511,32.056,68.458,30.003,65.933,30.003z"/>
	</g>
	<g>
		<path d="M34.067,58.424c-4.242,0-7.693-3.452-7.693-7.694s3.451-7.693,7.693-7.693s7.693,3.451,7.693,7.693
			S38.31,58.424,34.067,58.424z M34.067,46.153c-2.523,0-4.578,2.053-4.578,4.577c0,2.524,2.055,4.578,4.578,4.578
			s4.578-2.054,4.578-4.578C38.646,48.206,36.591,46.153,34.067,46.153z"/>
	</g>
	<g>
		<path d="M50.067,58.365c-4.242,0-7.693-3.453-7.693-7.695s3.451-7.693,7.693-7.693s7.693,3.451,7.693,7.693
			S54.31,58.365,50.067,58.365z M50.067,46.094c-2.523,0-4.578,2.052-4.578,4.577s2.055,4.579,4.578,4.579s4.578-2.054,4.578-4.579
			S52.591,46.094,50.067,46.094z"/>
	</g>
	<g>
		<path d="M65.933,58.365c-4.242,0-7.693-3.453-7.693-7.695s3.451-7.693,7.693-7.693s7.693,3.451,7.693,7.693
			S70.175,58.365,65.933,58.365z M65.933,46.094c-2.523,0-4.578,2.052-4.578,4.577s2.055,4.579,4.578,4.579
			c2.525,0,4.578-2.054,4.578-4.579S68.458,46.094,65.933,46.094z"/>
	</g>
	<g>
		<path d="M34.202,74.661c-4.242,0-7.693-3.453-7.693-7.695s3.451-7.693,7.693-7.693s7.695,3.451,7.695,7.693
			S38.444,74.661,34.202,74.661z M34.202,62.39c-2.523,0-4.576,2.053-4.576,4.577c0,2.524,2.053,4.579,4.576,4.579
			c2.525,0,4.578-2.054,4.578-4.579C38.78,64.442,36.728,62.39,34.202,62.39z"/>
	</g>
	<g>
		<path d="M50.202,74.602c-4.242,0-7.693-3.452-7.693-7.694s3.451-7.693,7.693-7.693s7.695,3.451,7.695,7.693
			S54.444,74.602,50.202,74.602z M50.202,62.33c-2.523,0-4.576,2.053-4.576,4.577c0,2.524,2.053,4.578,4.576,4.578
			c2.525,0,4.578-2.054,4.578-4.578C54.78,64.383,52.728,62.33,50.202,62.33z"/>
	</g>
	<g>
		<path d="M65.933,74.602c-4.242,0-7.693-3.452-7.693-7.694s3.451-7.693,7.693-7.693s7.693,3.451,7.693,7.693
			S70.175,74.602,65.933,74.602z M65.933,62.33c-2.523,0-4.578,2.053-4.578,4.577c0,2.524,2.055,4.578,4.578,4.578
			c2.525,0,4.578-2.054,4.578-4.578C70.511,64.383,68.458,62.33,65.933,62.33z"/>
	</g>
</g>
</svg>
