<?xml version="1.0" encoding="utf-8"?>
<!-- Generator: Adobe Illustrator 16.0.0, SVG Export Plug-In . SVG Version: 6.00 Build 0)  -->
<!DOCTYPE svg PUBLIC "-//W3C//DTD SVG 1.1//EN" "http://www.w3.org/Graphics/SVG/1.1/DTD/svg11.dtd">
<svg version="1.1" id="Layer_1" xmlns="http://www.w3.org/2000/svg" xmlns:xlink="http://www.w3.org/1999/xlink" x="0px" y="0px"
	 width="100px" height="100px" viewBox="0 0 100 100" enable-background="new 0 0 100 100" xml:space="preserve">
<g>
	<path d="M45.897,35.11c-1.178,0-2.133,0.956-2.133,2.134v2.393L33.001,28.873c-1.502,0.332-2.682,1.5-3.041,2.993l10.787,10.787
		h-1.889c-1.18,0-2.133,0.956-2.133,2.134s0.953,2.133,2.133,2.133h9.172v-9.676C48.03,36.066,47.075,35.11,45.897,35.11z"/>
	<path d="M36.222,52.118c0,1.178,0.955,2.134,2.133,2.134h2.393L29.927,65.07c0.32,1.507,1.484,2.693,2.971,3.063l10.867-10.864
		v1.889c0,1.178,0.955,2.133,2.133,2.133s2.133-0.955,2.133-2.133v-9.172h-9.676C37.177,49.985,36.222,50.94,36.222,52.118z"/>
	<path d="M58.13,54.25h1.891c1.178,0,2.133-0.955,2.133-2.133s-0.955-2.134-2.133-2.134h-9.172v9.677
		c0,1.178,0.953,2.133,2.133,2.133c1.178,0,2.133-0.955,2.133-2.133v-2.394l10.924,10.923c1.521-0.283,2.729-1.423,3.131-2.899
		L58.13,54.25z"/>
	<path d="M62.657,44.785c0-1.178-0.955-2.133-2.133-2.133H58.13l11.008-11.006c-0.443-1.465-1.682-2.57-3.225-2.81L55.114,39.636
		v-1.889c0-1.178-0.955-2.134-2.133-2.134c-1.18,0-2.133,0.956-2.133,2.134v9.172h9.676C61.702,46.919,62.657,45.963,62.657,44.785z
		"/>
</g>
</svg>
