<?xml version="1.0" encoding="utf-8"?>
<!-- Generator: Adobe Illustrator 16.0.0, SVG Export Plug-In . SVG Version: 6.00 Build 0)  -->
<!DOCTYPE svg PUBLIC "-//W3C//DTD SVG 1.1//EN" "http://www.w3.org/Graphics/SVG/1.1/DTD/svg11.dtd">
<svg version="1.1" id="Layer_1" xmlns="http://www.w3.org/2000/svg" xmlns:xlink="http://www.w3.org/1999/xlink" x="0px" y="0px"
	 width="100px" height="100px" viewBox="0 0 100 100" enable-background="new 0 0 100 100" xml:space="preserve">
<g>
	<path d="M30.854,62.188h46.503c0.661,0,1.294-0.264,1.762-0.73c0.466-0.468,0.729-1.103,0.729-1.762V26.479
		c0-1.376-1.114-2.492-2.491-2.492H30.854c-0.661,0-1.295,0.264-1.762,0.73c-0.466,0.467-0.729,1.101-0.729,1.762v33.216
		c0,0.688,0.278,1.311,0.729,1.762C29.542,61.908,30.167,62.188,30.854,62.188z M33.345,28.971h41.521v28.234H33.345V28.971z"/>
	<path d="M78.963,68.295h-17.88v-1.098c0-1.039-0.842-1.882-1.882-1.882H49.009c-1.04,0-1.882,0.843-1.882,1.882v1.098h-17.88
		c-1.386,0-2.509,1.123-2.509,2.509s1.124,2.509,2.509,2.509h17.88v1.098c0,1.039,0.842,1.882,1.882,1.882h10.192
		c1.04,0,1.882-0.843,1.882-1.882v-1.098h17.88c1.386,0,2.509-1.123,2.509-2.509S80.349,68.295,78.963,68.295z M57.32,69.078v3.451
		h-6.43v-3.451H57.32z"/>
	<g>
		
			<rect x="36.252" y="32.973" fill="none" stroke="#000000" stroke-width="2" stroke-miterlimit="10" width="35.706" height="7.684"/>
		
			<rect x="36.252" y="45.518" fill="none" stroke="#000000" stroke-width="2" stroke-miterlimit="10" width="35.706" height="7.684"/>
	</g>
	<rect x="38.814" y="35.56" width="2.509" height="2.509"/>
	<rect x="42.577" y="35.56" width="2.509" height="2.509"/>
	<rect x="46.341" y="35.56" width="2.509" height="2.509"/>
	<rect x="38.814" y="48.105" width="2.509" height="2.508"/>
	<rect x="42.577" y="48.105" width="2.509" height="2.508"/>
	<rect x="46.341" y="48.105" width="2.509" height="2.508"/>
</g>
</svg>
