<?xml version="1.0" encoding="utf-8"?>
<!-- Generator: Adobe Illustrator 16.0.0, SVG Export Plug-In . SVG Version: 6.00 Build 0)  -->
<!DOCTYPE svg PUBLIC "-//W3C//DTD SVG 1.1//EN" "http://www.w3.org/Graphics/SVG/1.1/DTD/svg11.dtd">
<svg version="1.1" id="Layer_1" xmlns="http://www.w3.org/2000/svg" xmlns:xlink="http://www.w3.org/1999/xlink" x="0px" y="0px"
	 width="100px" height="100px" viewBox="0 0 100 100" enable-background="new 0 0 100 100" xml:space="preserve">
<g>
	<g>
		<path d="M51.46,77.688c-14.871,0-26.968-12.099-26.968-26.969S36.589,23.751,51.46,23.751c14.871,0,26.968,12.099,26.968,26.969
			S66.331,77.688,51.46,77.688z M51.46,27.696c-12.695,0-23.022,10.329-23.022,23.023c0,12.693,10.327,23.021,23.022,23.021
			c12.694,0,23.021-10.328,23.021-23.021C74.481,38.025,64.154,27.696,51.46,27.696z"/>
	</g>
	<g>
		<path d="M39.708,63.83c-0.492,0-0.983-0.181-1.367-0.55c-0.786-0.753-0.813-2.002-0.058-2.787
			c3.611-3.766,8.471-5.839,13.687-5.839c4.629,0,9.085,1.686,12.549,4.748c0.817,0.721,0.894,1.967,0.173,2.783
			c-0.724,0.819-1.97,0.895-2.787,0.174c-2.742-2.424-6.27-3.758-9.935-3.758c-4.129,0-7.979,1.643-10.838,4.62
			C40.744,63.627,40.226,63.83,39.708,63.83z"/>
	</g>
	<g>
		<g>
			<circle cx="45.363" cy="48.114" r="2.604"/>
		</g>
		<g>
			<circle cx="57.558" cy="48.114" r="2.604"/>
		</g>
	</g>
</g>
</svg>
