<?xml version="1.0" encoding="utf-8"?>
<!-- Generator: Adobe Illustrator 16.0.0, SVG Export Plug-In . SVG Version: 6.00 Build 0)  -->
<!DOCTYPE svg PUBLIC "-//W3C//DTD SVG 1.1//EN" "http://www.w3.org/Graphics/SVG/1.1/DTD/svg11.dtd">
<svg version="1.1" id="Layer_1" xmlns="http://www.w3.org/2000/svg" xmlns:xlink="http://www.w3.org/1999/xlink" x="0px" y="0px"
	 width="100px" height="100px" viewBox="0 0 100 100" enable-background="new 0 0 100 100" xml:space="preserve">
<g>
	<path d="M69.552,29.346h-5.811v-3.175c0-1.291-1.047-2.337-2.338-2.337s-2.337,1.047-2.337,2.337v3.175H55.95v-3.175
		c0-1.291-1.046-2.337-2.337-2.337s-2.337,1.047-2.337,2.337v3.175h-3.117v-3.175c0-1.291-1.045-2.337-2.336-2.337
		s-2.338,1.047-2.338,2.337v3.175h-3.116v-3.175c0-1.291-1.046-2.337-2.337-2.337s-2.337,1.047-2.337,2.337v3.175h-5.813
		c-1.291,0-2.337,1.047-2.337,2.337v48.281c0,1.291,1.046,2.337,2.337,2.337h39.669c1.291,0,2.338-1.046,2.338-2.337V31.683
		C71.89,30.393,70.843,29.346,69.552,29.346z M67.216,77.627H32.22V34.021h3.476v0.779c0,1.291,1.046,2.337,2.337,2.337
		s2.337-1.047,2.337-2.337v-0.779h3.116v0.779c0,1.291,1.047,2.337,2.338,2.337s2.336-1.047,2.336-2.337v-0.779h3.117v0.779
		c0,1.291,1.046,2.337,2.337,2.337s2.337-1.047,2.337-2.337v-0.779h3.116v0.779c0,1.291,1.046,2.337,2.337,2.337
		s2.338-1.047,2.338-2.337v-0.779h3.475V77.627z"/>
	<path d="M61.403,43.759H38.032c-1.291,0-2.337,1.046-2.337,2.337c0,1.29,1.046,2.337,2.337,2.337h23.371
		c1.291,0,2.338-1.047,2.338-2.337C63.741,44.805,62.694,43.759,61.403,43.759z"/>
	<path d="M61.403,51.549H38.032c-1.291,0-2.337,1.047-2.337,2.337c0,1.29,1.046,2.337,2.337,2.337h23.371
		c1.291,0,2.338-1.047,2.338-2.337C63.741,52.596,62.694,51.549,61.403,51.549z"/>
	<path d="M61.403,59.339H38.032c-1.291,0-2.337,1.047-2.337,2.337c0,1.29,1.046,2.337,2.337,2.337h23.371
		c1.291,0,2.338-1.047,2.338-2.337C63.741,60.386,62.694,59.339,61.403,59.339z"/>
	<path d="M49.718,67.13H38.032c-1.291,0-2.337,1.047-2.337,2.337c0,1.291,1.046,2.337,2.337,2.337h11.686
		c1.291,0,2.336-1.047,2.336-2.337C52.054,68.177,51.009,67.13,49.718,67.13z"/>
</g>
</svg>
