<?xml version="1.0" encoding="utf-8"?>
<!-- Generator: Adobe Illustrator 16.0.0, SVG Export Plug-In . SVG Version: 6.00 Build 0)  -->
<!DOCTYPE svg PUBLIC "-//W3C//DTD SVG 1.1//EN" "http://www.w3.org/Graphics/SVG/1.1/DTD/svg11.dtd">
<svg version="1.1" id="Layer_1" xmlns="http://www.w3.org/2000/svg" xmlns:xlink="http://www.w3.org/1999/xlink" x="0px" y="0px"
	 width="100px" height="100px" viewBox="0 0 100 100" enable-background="new 0 0 100 100" xml:space="preserve">
<path d="M77.901,49.925c0-3.555-3.626-6.138-8.929-7.831c2.552-4.948,3.29-9.338,0.778-11.852c-0.709-0.709-2.006-1.554-4.164-1.554
	c-2.1,0-4.744,0.838-7.684,2.35c-1.693-5.313-4.278-8.949-7.837-8.949c-3.558,0-6.144,3.636-7.838,8.949
	c-2.939-1.512-5.583-2.35-7.682-2.35c-2.157,0-3.454,0.845-4.163,1.554c-2.513,2.514-1.776,6.903,0.776,11.852
	c-5.302,1.693-8.927,4.276-8.928,7.829c0.001,3.557,3.627,6.141,8.93,7.834c-2.552,4.946-3.289,9.338-0.777,11.85
	c0.708,0.709,2.006,1.554,4.164,1.554h0c2.099,0,4.741-0.837,7.679-2.347c1.694,5.313,4.28,8.947,7.838,8.947
	c3.559,0,6.144-3.635,7.837-8.948c2.94,1.511,5.583,2.349,7.683,2.349c0,0,0,0,0,0c2.156,0,3.454-0.844,4.163-1.553
	c2.512-2.514,1.775-6.905-0.777-11.854C74.273,56.062,77.899,53.479,77.901,49.925z M65.585,33.362c0.498,0,0.774,0.1,0.858,0.185
	c0.616,0.617,0.063,3.348-2.175,7.359c-1.436-0.287-2.93-0.527-4.469-0.718c-0.191-1.545-0.434-3.045-0.721-4.487
	C61.838,34.157,64.111,33.362,65.585,33.362z M55.712,49.925c0,0.799-0.017,1.567-0.039,2.326c-0.521,0.551-1.05,1.105-1.613,1.668
	c-0.558,0.557-1.112,1.094-1.665,1.614c-0.761,0.023-1.531,0.04-2.331,0.04c-0.799,0-1.569-0.017-2.329-0.04
	c-0.553-0.521-1.108-1.056-1.666-1.614c-0.564-0.564-1.094-1.118-1.615-1.669c-0.022-0.76-0.039-1.528-0.039-2.325
	s0.017-1.564,0.039-2.322c0.521-0.552,1.053-1.107,1.618-1.672c0.558-0.559,1.112-1.094,1.665-1.616
	c0.76-0.021,1.529-0.038,2.328-0.038c0.799,0,1.568,0.018,2.328,0.038c0.552,0.522,1.108,1.058,1.666,1.616
	c0.563,0.564,1.094,1.118,1.615,1.669C55.695,48.359,55.712,49.128,55.712,49.925z M54.305,39.718
	c-0.187-0.168-0.373-0.33-0.559-0.496c0.361-0.271,0.719-0.535,1.073-0.788c0.072,0.431,0.143,0.864,0.208,1.318
	C54.787,39.736,54.546,39.73,54.305,39.718z M45.825,39.718c-0.242,0.013-0.484,0.019-0.724,0.034
	c0.065-0.454,0.136-0.889,0.208-1.319c0.354,0.254,0.712,0.518,1.074,0.789C46.197,39.388,46.01,39.551,45.825,39.718z
	 M39.857,45.699c-0.164,0.182-0.333,0.36-0.495,0.544c-0.274-0.365-0.528-0.721-0.78-1.074c0.428-0.072,0.858-0.144,1.309-0.207
	C39.875,45.206,39.87,45.454,39.857,45.699z M39.857,54.151c0.013,0.247,0.02,0.492,0.034,0.737c-0.45-0.065-0.88-0.136-1.307-0.207
	c0.251-0.354,0.505-0.708,0.778-1.071C39.524,53.793,39.693,53.971,39.857,54.151z M45.823,60.132
	c0.187,0.169,0.373,0.331,0.561,0.497c-0.361,0.272-0.72,0.536-1.074,0.79c-0.072-0.433-0.144-0.866-0.209-1.32
	C45.341,60.113,45.582,60.119,45.823,60.132z M54.308,60.13c0.24-0.012,0.48-0.018,0.719-0.031
	c-0.065,0.453-0.136,0.887-0.208,1.317c-0.353-0.253-0.71-0.516-1.072-0.787C53.934,60.463,54.121,60.301,54.308,60.13z
	 M60.271,54.155c0.165-0.183,0.335-0.361,0.498-0.545c0.272,0.363,0.526,0.718,0.778,1.069c-0.428,0.071-0.858,0.144-1.309,0.207
	C60.252,54.644,60.258,54.398,60.271,54.155z M60.271,45.698c-0.012-0.247-0.018-0.492-0.033-0.736
	c0.451,0.063,0.882,0.135,1.311,0.207c-0.252,0.354-0.506,0.709-0.78,1.074C60.605,46.059,60.436,45.881,60.271,45.698z
	 M50.064,26.764c0.873,0,2.413,2.32,3.666,6.739c-1.198,0.797-2.425,1.688-3.666,2.654c-1.241-0.966-2.469-1.859-3.667-2.654
	C47.651,29.084,49.191,26.764,50.064,26.764z M33.687,33.547c0.084-0.084,0.36-0.185,0.857-0.185c1.474,0,3.747,0.795,6.504,2.339
	c-0.287,1.441-0.529,2.942-0.721,4.487c-1.538,0.19-3.032,0.432-4.468,0.718C33.622,36.895,33.069,34.164,33.687,33.547z
	 M26.903,49.923c0-0.871,2.321-2.411,6.74-3.665c0.813,1.219,1.7,2.445,2.653,3.669c-0.953,1.222-1.838,2.448-2.65,3.664
	C29.225,52.337,26.903,50.795,26.903,49.923z M34.546,66.485c-0.498,0-0.774-0.099-0.859-0.184
	c-0.617-0.616-0.064-3.348,2.175-7.358c1.435,0.287,2.928,0.528,4.466,0.718c0.191,1.545,0.434,3.047,0.721,4.487
	C38.292,65.693,36.02,66.485,34.546,66.485z M50.064,73.086c-0.873,0-2.413-2.32-3.666-6.737c1.198-0.796,2.426-1.688,3.667-2.655
	c1.24,0.965,2.466,1.858,3.665,2.654C52.477,70.766,50.937,73.086,50.064,73.086z M66.442,66.303
	c-0.084,0.084-0.36,0.185-0.857,0.185c-1.474-0.002-3.747-0.794-6.505-2.339c0.288-1.442,0.53-2.942,0.721-4.488
	c1.538-0.19,3.031-0.431,4.467-0.717C66.506,62.954,67.058,65.686,66.442,66.303z M66.483,53.591
	c-0.812-1.218-1.698-2.442-2.65-3.664c0.953-1.224,1.839-2.45,2.652-3.669c4.42,1.254,6.742,2.794,6.742,3.665
	C73.227,50.795,70.904,52.337,66.483,53.591z"/>
</svg>
