<?xml version="1.0" encoding="utf-8"?>
<!-- Generator: Adobe Illustrator 16.0.0, SVG Export Plug-In . SVG Version: 6.00 Build 0)  -->
<!DOCTYPE svg PUBLIC "-//W3C//DTD SVG 1.1//EN" "http://www.w3.org/Graphics/SVG/1.1/DTD/svg11.dtd">
<svg version="1.1" id="Layer_1" xmlns="http://www.w3.org/2000/svg" xmlns:xlink="http://www.w3.org/1999/xlink" x="0px" y="0px"
	 width="100px" height="100px" viewBox="0 0 100 100" enable-background="new 0 0 100 100" xml:space="preserve">
<g>
	<g>
		<circle cx="52.614" cy="48.842" r="4.174"/>
	</g>
	<g>
		<path d="M73.334,71.874c-0.592,0-1.184-0.227-1.635-0.678c-0.902-0.903-0.902-2.366,0-3.269
			c5.098-5.095,7.905-11.873,7.905-19.084s-2.806-13.99-7.905-19.086c-0.902-0.903-0.902-2.367,0-3.27
			c0.903-0.9,2.368-0.9,3.271-0.001c5.969,5.972,9.26,13.911,9.258,22.357c-0.001,8.448-3.289,16.386-9.258,22.354
			C74.519,71.647,73.926,71.874,73.334,71.874z"/>
	</g>
	<g>
		<path d="M31.893,71.874c-0.592,0-1.184-0.227-1.635-0.676c-5.972-5.97-9.26-13.91-9.26-22.356c0-8.445,3.29-16.384,9.26-22.356
			c0.903-0.898,2.365-0.898,3.269,0c0.903,0.903,0.903,2.369,0,3.271c-5.098,5.096-7.903,11.874-7.903,19.084
			s2.806,13.99,7.903,19.086c0.903,0.903,0.903,2.367,0,3.269C33.075,71.647,32.484,71.874,31.893,71.874z"/>
	</g>
	<g>
		<path d="M66.429,64.968c-0.592,0-1.184-0.225-1.635-0.675c-0.903-0.903-0.903-2.368,0-3.27c6.715-6.716,6.715-17.645,0-24.362
			c-0.903-0.901-0.903-2.365,0-3.268c0.904-0.9,2.367-0.9,3.269,0.001c8.519,8.518,8.519,22.379,0,30.898
			C67.61,64.743,67.021,64.968,66.429,64.968z"/>
	</g>
	<g>
		<path d="M38.799,64.966c-0.592,0-1.184-0.225-1.635-0.675c-4.126-4.127-6.398-9.614-6.398-15.449s2.272-11.322,6.398-15.446
			c0.904-0.9,2.367-0.9,3.271,0.001c0.902,0.903,0.902,2.367,0,3.27c-3.255,3.25-5.047,7.576-5.047,12.175
			c0,4.603,1.792,8.926,5.047,12.178c0.902,0.903,0.902,2.369,0,3.269C39.982,64.741,39.391,64.966,38.799,64.966z"/>
	</g>
	<g>
		<path d="M59.522,58.063c-0.592,0-1.184-0.225-1.635-0.676c-0.902-0.903-0.902-2.366,0-3.269c2.906-2.909,2.906-7.641,0-10.549
			c-0.902-0.903-0.902-2.367,0-3.27c0.903-0.903,2.368-0.898,3.271,0.003c4.705,4.708,4.705,12.373,0,17.083
			C60.707,57.836,60.114,58.063,59.522,58.063z"/>
	</g>
	<g>
		<path d="M45.708,58.063c-0.593,0-1.185-0.227-1.636-0.678c-4.708-4.712-4.708-12.375,0-17.086c0.903-0.898,2.366-0.898,3.27,0
			c0.902,0.903,0.902,2.369,0,3.271c-2.908,2.906-2.908,7.638,0.001,10.547c0.901,0.903,0.9,2.366-0.003,3.269
			C46.89,57.837,46.298,58.063,45.708,58.063z"/>
	</g>
</g>
</svg>
