<?xml version="1.0" encoding="utf-8"?>
<!-- Generator: Adobe Illustrator 16.0.0, SVG Export Plug-In . SVG Version: 6.00 Build 0)  -->
<!DOCTYPE svg PUBLIC "-//W3C//DTD SVG 1.1//EN" "http://www.w3.org/Graphics/SVG/1.1/DTD/svg11.dtd">
<svg version="1.1" id="Layer_1" xmlns="http://www.w3.org/2000/svg" xmlns:xlink="http://www.w3.org/1999/xlink" x="0px" y="0px"
	 width="100px" height="100px" viewBox="0 0 100 100" enable-background="new 0 0 100 100" xml:space="preserve">
<g>
	<path d="M54.929,50.027V22.8c0-0.273-0.112-0.533-0.31-0.723c-0.198-0.189-0.468-0.299-0.737-0.275
		c-0.479,0.021-11.737,0.797-11.737,22.748c0,0.553,0.448,1,1,1h3.533v4.477c-1.22,0.316-2.125,1.414-2.125,2.734v22.955
		c0,1.564,1.269,2.834,2.834,2.834h6.831c1.565,0,2.834-1.27,2.834-2.834V52.761C57.054,51.441,56.148,50.343,54.929,50.027z
		 M44.154,43.55c0.251-15.338,6.285-18.771,8.775-19.535v25.91h-4.25V44.55c0-0.553-0.448-1-1-1H44.154z"/>
	<path d="M36.061,21.8H35.48c-1.127,0-2.132,0.498-2.834,1.275c-0.702-0.777-1.707-1.275-2.834-1.275H29.23
		c-1.163,0-2.193,0.531-2.897,1.352c-0.704-0.82-1.734-1.352-2.897-1.352h-0.581c-2.114,0-3.834,1.721-3.834,3.836v10.455
		c0,0.184,0.063,0.346,0.149,0.492c0.184,4.23,2.691,7.836,6.226,9.443v4c-1.22,0.316-2.125,1.414-2.125,2.734v22.955
		c0,1.564,1.269,2.834,2.834,2.834h6.831c1.565,0,2.834-1.27,2.834-2.834V52.761c0-1.32-0.905-2.418-2.125-2.734v-4
		c3.673-1.67,6.25-5.492,6.25-9.936V25.636C39.896,23.521,38.175,21.8,36.061,21.8z M31.646,46.925v3h-4.25v-3H31.646z
		 M29.521,44.925c-4.618,0-8.375-3.963-8.375-8.834c0-0.168-0.052-0.32-0.125-0.459v-9.996c0-1.012,0.823-1.836,1.834-1.836h0.581
		c1.012,0,1.834,0.824,1.834,1.836v10.455c0,0.553,0.448,1,1,1c0.022,0,0.041-0.012,0.063-0.014
		c0.022,0.002,0.041,0.014,0.063,0.014c0.552,0,1-0.447,1-1V25.636c0-1.012,0.823-1.836,1.834-1.836h0.581
		c1.012,0,1.834,0.824,1.834,1.836v10.455c0,0.553,0.448,1,1,1s1-0.447,1-1V25.636c0-1.012,0.823-1.836,1.834-1.836h0.581
		c1.012,0,1.834,0.824,1.834,1.836v10.455C37.896,40.962,34.139,44.925,29.521,44.925z"/>
	<path d="M73.604,21.8c-5.721,0-10.375,4.861-10.375,10.836v3.936c0,4.443,2.577,8.266,6.25,9.936v3.52
		c-1.22,0.316-2.125,1.414-2.125,2.734v22.955c0,1.564,1.269,2.834,2.834,2.834h6.831c1.565,0,2.834-1.27,2.834-2.834V52.761
		c0-1.32-0.905-2.418-2.125-2.734v-3.52c3.673-1.67,6.25-5.492,6.25-9.936v-3.936C83.979,26.662,79.325,21.8,73.604,21.8z
		 M75.729,47.406v2.52h-4.25v-2.52H75.729z M81.979,36.572c0,4.871-3.757,8.834-8.375,8.834s-8.375-3.963-8.375-8.834v-3.936
		c0-4.873,3.757-8.836,8.375-8.836s8.375,3.963,8.375,8.836V36.572z"/>
</g>
</svg>
