<?xml version="1.0" encoding="utf-8"?>
<!-- Generator: Adobe Illustrator 16.0.0, SVG Export Plug-In . SVG Version: 6.00 Build 0)  -->
<!DOCTYPE svg PUBLIC "-//W3C//DTD SVG 1.1//EN" "http://www.w3.org/Graphics/SVG/1.1/DTD/svg11.dtd">
<svg version="1.1" id="Layer_1" xmlns="http://www.w3.org/2000/svg" xmlns:xlink="http://www.w3.org/1999/xlink" x="0px" y="0px"
	 width="100px" height="100px" viewBox="0 0 100 100" enable-background="new 0 0 100 100" xml:space="preserve">
<g>
	<path d="M72.697,57.888h-4.378v-6.875c0-0.011-0.003-0.022-0.003-0.034s0.003-0.022,0.003-0.033c0-1.039-0.843-1.882-1.882-1.882
		H49.541v-4.549h4.377c1.04,0,1.883-0.843,1.883-1.882v-12.52c0-1.039-0.843-1.881-1.883-1.881h-12.52
		c-1.039,0-1.881,0.842-1.881,1.881v12.52c0,1.039,0.842,1.882,1.881,1.882h4.379v4.549H28.88c-1.04,0-1.882,0.843-1.882,1.882
		v6.942H22.62c-1.04,0-1.882,0.843-1.882,1.882v12.52c0,1.039,0.842,1.882,1.882,1.882h12.519c1.04,0,1.883-0.843,1.883-1.882V59.77
		c0-1.039-0.843-1.882-1.883-1.882h-4.377v-5.061h15.016v5.061h-4.379c-1.039,0-1.881,0.843-1.881,1.882v12.52
		c0,1.039,0.842,1.882,1.881,1.882h12.52c1.04,0,1.883-0.843,1.883-1.882V59.77c0-1.039-0.843-1.882-1.883-1.882h-4.377v-5.061
		h15.016v5.061h-4.379c-1.039,0-1.881,0.843-1.881,1.882v12.52c0,1.039,0.842,1.882,1.881,1.882h12.52
		c1.039,0,1.882-0.843,1.882-1.882V59.77C74.579,58.73,73.736,57.888,72.697,57.888z M43.281,31.995h8.756v8.756h-8.756V31.995z
		 M33.258,70.407h-8.756v-8.756h8.756V70.407z M52.037,70.407h-8.756v-8.756h8.756V70.407z M70.815,70.407H62.06v-8.756h8.756
		V70.407z"/>
</g>
</svg>
