<?xml version="1.0" encoding="utf-8"?>
<!-- Generator: Adobe Illustrator 16.0.0, SVG Export Plug-In . SVG Version: 6.00 Build 0)  -->
<!DOCTYPE svg PUBLIC "-//W3C//DTD SVG 1.1//EN" "http://www.w3.org/Graphics/SVG/1.1/DTD/svg11.dtd">
<svg version="1.1" id="Layer_1" xmlns="http://www.w3.org/2000/svg" xmlns:xlink="http://www.w3.org/1999/xlink" x="0px" y="0px"
	 width="100px" height="100px" viewBox="0 0 100 100" enable-background="new 0 0 100 100" xml:space="preserve">
<path d="M52.083,19.683c-16.951,0-30.741,13.791-30.741,30.742c0,16.952,13.79,30.741,30.741,30.741s30.741-13.79,30.741-30.741
	C82.825,33.474,69.035,19.683,52.083,19.683z M42.591,56.655c0.501-1.544-0.045-3.225-1.359-4.181L29.43,43.898h14.587
	c1.626,0,3.055-1.039,3.558-2.584l4.509-13.876l4.507,13.877c0.504,1.544,1.933,2.583,3.558,2.583h14.588l-11.802,8.575
	c-1.313,0.956-1.86,2.636-1.359,4.181l4.509,13.876l-11.802-8.575c-0.643-0.467-1.404-0.714-2.199-0.714s-1.556,0.247-2.199,0.714
	l-11.803,8.575L42.591,56.655z"/>
</svg>
