<?xml version="1.0" encoding="utf-8"?>
<!-- Generator: Adobe Illustrator 16.0.0, SVG Export Plug-In . SVG Version: 6.00 Build 0)  -->
<!DOCTYPE svg PUBLIC "-//W3C//DTD SVG 1.1//EN" "http://www.w3.org/Graphics/SVG/1.1/DTD/svg11.dtd">
<svg version="1.1" id="Layer_1" xmlns="http://www.w3.org/2000/svg" xmlns:xlink="http://www.w3.org/1999/xlink" x="0px" y="0px"
	 width="100px" height="100px" viewBox="0 0 100 100" enable-background="new 0 0 100 100" xml:space="preserve">
<g>
	<path d="M72.868,36.08H31.084c-1.236,0-2.238,1.002-2.238,2.238v37.68c0,1.236,1.002,2.238,2.238,2.238h41.784
		c1.237,0,2.238-1.002,2.238-2.238v-37.68C75.106,37.082,74.105,36.08,72.868,36.08z M70.63,73.76H33.323V40.557H70.63V73.76z"/>
	<path d="M36.867,72.641c1.237,0,2.239-1.002,2.239-2.238V43.682c0-1.236-1.002-2.238-2.239-2.238c-1.236,0-2.238,1.002-2.238,2.238
		v26.721C34.628,71.639,35.63,72.641,36.867,72.641z"/>
	<path d="M42.836,72.641c1.237,0,2.238-1.002,2.238-2.238v-3.73c0-1.236-1.001-2.238-2.238-2.238s-2.238,1.002-2.238,2.238v3.73
		C40.598,71.639,41.599,72.641,42.836,72.641z"/>
	<path d="M42.836,62.941c1.237,0,2.238-1.004,2.238-2.24v-17.02c0-1.236-1.001-2.238-2.238-2.238s-2.238,1.002-2.238,2.238v17.02
		C40.598,61.938,41.599,62.941,42.836,62.941z"/>
	<path d="M48.805,72.641c1.236,0,2.238-1.002,2.238-2.238v-3.73c0-1.236-1.002-2.238-2.238-2.238c-1.237,0-2.238,1.002-2.238,2.238
		v3.73C46.567,71.639,47.568,72.641,48.805,72.641z"/>
	<path d="M48.805,62.941c1.236,0,2.238-1.004,2.238-2.24v-17.02c0-1.236-1.002-2.238-2.238-2.238c-1.237,0-2.238,1.002-2.238,2.238
		v17.02C46.567,61.938,47.568,62.941,48.805,62.941z"/>
	<path d="M54.774,72.641c1.236,0,2.238-1.002,2.238-2.238v-9.701v-17.02c0-1.236-1.002-2.238-2.238-2.238s-2.239,1.002-2.239,2.238
		v17.02v9.701C52.536,71.639,53.538,72.641,54.774,72.641z"/>
	<path d="M60.743,72.641c1.237,0,2.239-1.002,2.239-2.238v-3.73c0-1.236-1.002-2.238-2.239-2.238c-1.236,0-2.238,1.002-2.238,2.238
		v3.73C58.505,71.639,59.507,72.641,60.743,72.641z"/>
	<path d="M60.743,63.314c1.237,0,2.239-1.002,2.239-2.238V43.682c0-1.236-1.002-2.238-2.239-2.238c-1.236,0-2.238,1.002-2.238,2.238
		v17.395C58.505,62.313,59.507,63.314,60.743,63.314z"/>
	<path d="M66.713,72.641c1.236,0,2.238-1.002,2.238-2.238V43.682c0-1.236-1.002-2.238-2.238-2.238c-1.237,0-2.238,1.002-2.238,2.238
		v26.721C64.475,71.639,65.476,72.641,66.713,72.641z"/>
</g>
</svg>
