<?xml version="1.0" encoding="utf-8"?>
<!-- Generator: Adobe Illustrator 16.0.0, SVG Export Plug-In . SVG Version: 6.00 Build 0)  -->
<!DOCTYPE svg PUBLIC "-//W3C//DTD SVG 1.1//EN" "http://www.w3.org/Graphics/SVG/1.1/DTD/svg11.dtd">
<svg version="1.1" id="Layer_1" xmlns="http://www.w3.org/2000/svg" xmlns:xlink="http://www.w3.org/1999/xlink" x="0px" y="0px"
	 width="100px" height="100px" viewBox="0 0 100 100" enable-background="new 0 0 100 100" xml:space="preserve">
<path d="M75.398,27.966H30.401c-2.666,0-4.835,2.17-4.835,4.836v28.996c0,2.666,2.169,4.836,4.835,4.836h20.498v1.75h-5.875
	c-1.104,0-2,0.896-2,2c0,1.102,0.896,2,2,2h15.625c1.104,0,2-0.898,2-2c0-1.104-0.896-2-2-2h-5.75v-1.75h20.499
	c2.665,0,4.835-2.17,4.835-4.836V32.802C80.233,30.136,78.063,27.966,75.398,27.966z M29.566,32.802
	c0-0.461,0.374-0.836,0.835-0.836h44.997c0.46,0,0.835,0.375,0.835,0.836v28.996c0,0.461-0.375,0.836-0.835,0.836H30.401
	c-0.461,0-0.835-0.375-0.835-0.836V32.802z"/>
</svg>
