<?xml version="1.0" encoding="utf-8"?>
<!-- Generator: Adobe Illustrator 16.0.0, SVG Export Plug-In . SVG Version: 6.00 Build 0)  -->
<!DOCTYPE svg PUBLIC "-//W3C//DTD SVG 1.1//EN" "http://www.w3.org/Graphics/SVG/1.1/DTD/svg11.dtd">
<svg version="1.1" id="Layer_1" xmlns="http://www.w3.org/2000/svg" xmlns:xlink="http://www.w3.org/1999/xlink" x="0px" y="0px"
	 width="100px" height="100px" viewBox="0 0 100 100" enable-background="new 0 0 100 100" xml:space="preserve">
<path d="M71.305,51.063c-0.674,0-1.332,0.069-1.972,0.189l-1.789-5.247v-1.877l0.842-0.281v1.033c0,0.932,0.754,1.685,1.685,1.685
	c0.93,0,1.684-0.753,1.684-1.685v-7.159c0-0.93-0.754-1.683-1.684-1.683c-0.931,0-1.685,0.753-1.685,1.683v2.576L66,41.092v-4.338
	c0-0.931-0.754-1.684-1.685-1.684h-8.842c-0.931,0-1.685,0.753-1.685,1.684c0,0.932,0.754,1.685,1.685,1.685h7.157v2.391l-9.191,5.4
	l-2.872-3.298c-0.32-0.366-0.783-0.578-1.27-0.578H35.544c-0.93,0-1.684,0.755-1.684,1.685v3.368c0,0.451,0.181,0.885,0.502,1.199
	c0.321,0.318,0.779,0.537,1.208,0.485l8.677-0.124l4.436,7.984h-1.328c-1.727-3.484-5.31-5.888-9.454-5.888
	c-5.82,0-10.555,4.734-10.555,10.557c0,5.819,4.735,10.555,10.555,10.555c5.82,0,10.555-4.735,10.555-10.555
	c0-0.441-0.037-0.872-0.089-1.3h3.177h5.474c0.543,0,1.053-0.262,1.369-0.704l6.936-9.689l0.845,2.479
	c-3.228,1.808-5.418,5.259-5.418,9.215c0,5.819,4.735,10.555,10.555,10.555c5.82,0,10.555-4.735,10.555-10.555
	C81.86,55.798,77.125,51.063,71.305,51.063z M43.404,61.62c0,3.034-2.469,5.502-5.503,5.502s-5.503-2.468-5.503-5.502
	c0-3.036,2.469-5.504,5.503-5.504c1.058,0,2.04,0.315,2.88,0.835h-0.746c-0.93,0-1.685,0.754-1.685,1.685
	c0,0.93,0.755,1.685,1.685,1.685h3.197C43.334,60.737,43.404,61.168,43.404,61.62z M64.175,45.742l-8.023,11.209h-3.617L46.7,46.449
	c-0.183-0.328-0.466-0.582-0.8-0.727h2.631l3.287,3.773c0.532,0.611,1.425,0.755,2.123,0.346l10.235-6.012V45.742z M71.305,67.122
	c-3.034,0-5.502-2.468-5.502-5.502c0-1.725,0.813-3.246,2.056-4.256l0.619,1.813c0.238,0.701,0.893,1.143,1.594,1.143
	c0.18,0,0.363-0.029,0.543-0.091c0.88-0.3,1.351-1.257,1.05-2.137L71,56.146c0.103-0.006,0.2-0.03,0.304-0.03
	c3.034,0,5.503,2.468,5.503,5.504C76.808,64.654,74.339,67.122,71.305,67.122z"/>
</svg>
