<?xml version="1.0" encoding="utf-8"?>
<!-- Generator: Adobe Illustrator 16.0.0, SVG Export Plug-In . SVG Version: 6.00 Build 0)  -->
<!DOCTYPE svg PUBLIC "-//W3C//DTD SVG 1.1//EN" "http://www.w3.org/Graphics/SVG/1.1/DTD/svg11.dtd">
<svg version="1.1" id="Layer_1" xmlns="http://www.w3.org/2000/svg" xmlns:xlink="http://www.w3.org/1999/xlink" x="0px" y="0px"
	 width="100px" height="100px" viewBox="0 0 100 100" enable-background="new 0 0 100 100" xml:space="preserve">
<g>
	<g>
		<path d="M51.753,77.688c-14.871,0-26.969-12.099-26.969-26.969s12.098-26.969,26.969-26.969c14.871,0,26.968,12.099,26.968,26.969
			S66.624,77.688,51.753,77.688z M51.753,27.696c-12.694,0-23.022,10.329-23.022,23.023c0,12.693,10.328,23.021,23.022,23.021
			S74.775,63.413,74.775,50.72C74.775,38.025,64.448,27.696,51.753,27.696z"/>
	</g>
	<g>
		<path d="M51.753,69.682c-8.421,0-15.716-5.413-18.153-13.464c-0.316-1.043,0.274-2.145,1.317-2.459
			c1.046-0.32,2.145,0.271,2.46,1.316c1.899,6.277,7.811,10.659,14.375,10.659c6.612,0,12.536-4.424,14.404-10.76
			c0.308-1.044,1.403-1.649,2.451-1.333c1.045,0.309,1.643,1.404,1.335,2.448C67.583,64.094,60.103,69.682,51.753,69.682z"/>
	</g>
	<g>
		<g>
			<circle cx="45.655" cy="48.114" r="2.604"/>
		</g>
		<g>
			<circle cx="57.851" cy="48.114" r="2.604"/>
		</g>
	</g>
</g>
</svg>
