<?xml version="1.0" encoding="utf-8"?>
<!-- Generator: Adobe Illustrator 16.0.0, SVG Export Plug-In . SVG Version: 6.00 Build 0)  -->
<!DOCTYPE svg PUBLIC "-//W3C//DTD SVG 1.1//EN" "http://www.w3.org/Graphics/SVG/1.1/DTD/svg11.dtd">
<svg version="1.1" id="Layer_1" xmlns="http://www.w3.org/2000/svg" xmlns:xlink="http://www.w3.org/1999/xlink" x="0px" y="0px"
	 width="100px" height="100px" viewBox="0 0 100 100" enable-background="new 0 0 100 100" xml:space="preserve">
<path d="M72.862,59.987c0-3.389-3.008-6.34-8.293-8.182L62.11,32.028c4.584-1.111,7.086-2.98,7.086-5.329v-1.5H36.862v1.5
	c0,2.349,2.502,4.218,7.086,5.329l-2.46,19.775c-5.285,1.844-8.292,4.795-8.292,8.184v1.5h18.332v13.801c0,0.828,0.672,1.5,1.5,1.5
	c0.829,0,1.5-0.672,1.5-1.5V61.487h18.334V59.987z M36.642,58.487c0.94-1.59,3.318-3.088,6.661-4.123l0.926-0.285l3.038-24.431
	l-1.376-0.267c-1.774-0.344-3.082-0.769-4.017-1.182h22.311c-0.936,0.413-2.242,0.838-4.018,1.182l-1.376,0.267l3.038,24.431
	l0.927,0.287c3.284,1.016,5.685,2.535,6.646,4.121H36.642z"/>
</svg>
