<?xml version="1.0" encoding="utf-8"?>
<!-- Generator: Adobe Illustrator 16.0.0, SVG Export Plug-In . SVG Version: 6.00 Build 0)  -->
<!DOCTYPE svg PUBLIC "-//W3C//DTD SVG 1.1//EN" "http://www.w3.org/Graphics/SVG/1.1/DTD/svg11.dtd">
<svg version="1.1" id="Layer_1" xmlns="http://www.w3.org/2000/svg" xmlns:xlink="http://www.w3.org/1999/xlink" x="0px" y="0px"
	 width="100px" height="100px" viewBox="0 0 100 100" enable-background="new 0 0 100 100" xml:space="preserve">
<g>
	<path d="M80.567,47.912c-0.42-0.279-0.952-0.326-1.415-0.129l-16.745,7.131l-3.704-1.578c2.857-4.031,10.438-15.25,10.438-20.775
		c0-6.916-5.626-12.541-12.541-12.541c-6.916,0-12.541,5.625-12.541,12.541c0,4.609,5.275,13.18,8.685,18.238l-7.082-3.016
		c-0.015-0.008-0.032-0.008-0.047-0.014c-0.063-0.025-0.126-0.039-0.19-0.055c-0.056-0.014-0.11-0.029-0.167-0.035
		c-0.062-0.008-0.122-0.008-0.185-0.008c-0.062,0-0.123,0-0.184,0.008c-0.057,0.006-0.111,0.021-0.166,0.035
		c-0.065,0.016-0.129,0.029-0.191,0.055c-0.016,0.006-0.031,0.006-0.046,0.014l-17.333,7.383c-0.553,0.234-0.912,0.777-0.912,1.379
		V78.83c0,0.504,0.253,0.973,0.673,1.25c0.249,0.166,0.537,0.25,0.827,0.25c0.199,0,0.398-0.041,0.588-0.121l16.745-7.131
		l16.745,7.131c0.035,0.016,0.072,0.021,0.107,0.033c0.033,0.012,0.066,0.023,0.102,0.031c0.125,0.033,0.251,0.057,0.379,0.057
		s0.254-0.023,0.379-0.057c0.035-0.008,0.068-0.02,0.102-0.031c0.035-0.012,0.072-0.018,0.107-0.033l17.333-7.381
		c0.554-0.236,0.912-0.779,0.912-1.381V49.162C81.24,48.658,80.987,48.189,80.567,47.912z M56.601,22.834
		c5.363,0,9.726,4.363,9.726,9.727c0,3.666-4.934,12.012-9.726,18.861c-4.793-6.85-9.727-15.195-9.727-18.861
		C46.874,27.197,51.237,22.834,56.601,22.834z M43.574,70.457l-14.333,6.104V57.537l14.333-6.105V70.457z M60.907,76.561
		l-14.333-6.104V51.432l14.333,6.105V76.561z M78.24,70.457l-14.333,6.104V57.537l14.333-6.105V70.457z"/>
	<path d="M61.749,33.629c0-2.838-2.311-5.148-5.148-5.148c-2.84,0-5.148,2.311-5.148,5.148c0,2.84,2.309,5.148,5.148,5.148
		C59.438,38.777,61.749,36.469,61.749,33.629z M53.732,33.629c0-1.58,1.286-2.867,2.868-2.867c1.581,0,2.867,1.287,2.867,2.867
		c0,1.582-1.286,2.869-2.867,2.869C55.019,36.498,53.732,35.211,53.732,33.629z"/>
</g>
</svg>
