<?xml version="1.0" encoding="utf-8"?>
<!-- Generator: Adobe Illustrator 16.0.0, SVG Export Plug-In . SVG Version: 6.00 Build 0)  -->
<!DOCTYPE svg PUBLIC "-//W3C//DTD SVG 1.1//EN" "http://www.w3.org/Graphics/SVG/1.1/DTD/svg11.dtd">
<svg version="1.1" id="Layer_1" xmlns="http://www.w3.org/2000/svg" xmlns:xlink="http://www.w3.org/1999/xlink" x="0px" y="0px"
	 width="100px" height="100px" viewBox="0 0 100 100" enable-background="new 0 0 100 100" xml:space="preserve">
<g>
	<path d="M37.897,48.454h20.281c0.009,0,0.016,0,0.025,0c1.039,0,1.882-0.843,1.882-1.882c0-0.219-0.038-0.43-0.106-0.625
		l-2.457-13.92c-0.158-0.899-0.939-1.555-1.853-1.555H40.407c-0.914,0-1.694,0.655-1.854,1.555l-2.509,14.218
		c-0.097,0.548,0.054,1.11,0.411,1.536C36.813,48.208,37.342,48.454,37.897,48.454z M41.985,34.235h12.105l1.845,10.455H40.141
		L41.985,34.235z"/>
	<path d="M45.029,51.013c-0.159-0.899-0.939-1.555-1.854-1.555H27.913c-0.913,0-1.694,0.655-1.853,1.555l-2.51,14.218
		c-0.097,0.548,0.055,1.11,0.412,1.537c0.357,0.426,0.885,0.672,1.441,0.672h20.281c0.009,0,0.017,0,0.024,0
		c1.04,0,1.882-0.843,1.882-1.882c0-0.219-0.037-0.43-0.106-0.624L45.029,51.013z M27.647,63.676l1.845-10.455h12.105l1.845,10.455
		H27.647z"/>
	<path d="M72.473,64.934l-2.456-13.921c-0.159-0.899-0.939-1.555-1.854-1.555H52.9c-0.913,0-1.694,0.655-1.853,1.555l-2.51,14.218
		c-0.097,0.548,0.055,1.11,0.412,1.537c0.357,0.426,0.885,0.672,1.441,0.672h20.281c0.009,0,0.016,0,0.024,0
		c1.04,0,1.882-0.843,1.882-1.882C72.579,65.339,72.542,65.128,72.473,64.934z M52.635,63.676l1.844-10.455h12.106l1.845,10.455
		H52.635z"/>
	<path d="M61.191,34.235H63.7v2.51c0,1.038,0.843,1.882,1.882,1.882c1.04,0,1.882-0.844,1.882-1.882v-2.51h2.509
		c1.04,0,1.882-0.843,1.882-1.882c0-1.038-0.842-1.881-1.882-1.881h-2.509v-2.509c0-1.039-0.842-1.883-1.882-1.883
		c-1.039,0-1.882,0.844-1.882,1.883v2.509h-2.509c-1.04,0-1.882,0.843-1.882,1.881C59.31,33.393,60.151,34.235,61.191,34.235z"/>
</g>
</svg>
