<?xml version="1.0" encoding="utf-8"?>
<!-- Generator: Adobe Illustrator 16.0.0, SVG Export Plug-In . SVG Version: 6.00 Build 0)  -->
<!DOCTYPE svg PUBLIC "-//W3C//DTD SVG 1.1//EN" "http://www.w3.org/Graphics/SVG/1.1/DTD/svg11.dtd">
<svg version="1.1" id="Layer_1" xmlns="http://www.w3.org/2000/svg" xmlns:xlink="http://www.w3.org/1999/xlink" x="0px" y="0px"
	 width="100px" height="100px" viewBox="0 0 100 100" enable-background="new 0 0 100 100" xml:space="preserve">
<path d="M72.112,25.912c0-1.29-1.046-2.337-2.337-2.337H27.966c-1.291,0-2.337,1.047-2.337,2.337c0,1.257,0.995,2.276,2.24,2.328
	l15.016,18.145l1.981,30.1c0.041,0.608,0.431,1.136,0.999,1.354c0.181,0.068,0.369,0.102,0.556,0.102
	c0.401,0,0.794-0.155,1.091-0.446l6.913-6.779c0.299-0.292,0.467-0.694,0.467-1.112V46.34L69.871,28.24
	C71.117,28.188,72.112,27.168,72.112,25.912z M52.133,44.785c-0.231,0.28-0.357,0.631-0.357,0.994v23.17l-4.022,3.944l-1.792-27.216
	c-0.022-0.327-0.146-0.639-0.354-0.892L31.922,28.249h33.896L52.133,44.785z"/>
</svg>
