<?xml version="1.0" encoding="utf-8"?>
<!-- Generator: Adobe Illustrator 16.0.0, SVG Export Plug-In . SVG Version: 6.00 Build 0)  -->
<!DOCTYPE svg PUBLIC "-//W3C//DTD SVG 1.1//EN" "http://www.w3.org/Graphics/SVG/1.1/DTD/svg11.dtd">
<svg version="1.1" id="Layer_1" xmlns="http://www.w3.org/2000/svg" xmlns:xlink="http://www.w3.org/1999/xlink" x="0px" y="0px"
	 width="100px" height="100px" viewBox="0 0 100 100" enable-background="new 0 0 100 100" xml:space="preserve">
<g>
	<g>
		<circle cx="34.119" cy="54.978" r="3.188"/>
		<circle cx="34.119" cy="64.995" r="3.188"/>
		<circle cx="43.681" cy="55.207" r="3.187"/>
		<circle cx="43.681" cy="65.222" r="3.187"/>
	</g>
	<circle cx="56.035" cy="51.508" r="3.188"/>
	<circle cx="56.363" cy="36.693" r="3.187"/>
	<circle cx="56.475" cy="43.826" r="3.187"/>
	<path d="M74.504,42.861L57.439,25.796c-0.533-0.533-1.479-0.533-2.012,0L37.895,43.331c-0.555,0.556-0.555,1.455,0,2.011
		l1.271,1.271H26.502c-0.785,0-1.422,0.637-1.422,1.423v24.132c0,0.786,0.637,1.422,1.422,1.422h24.797
		c0.785,0,1.422-0.636,1.422-1.422V60.168l2.238,2.237c0.277,0.278,0.641,0.417,1.006,0.417c0.363,0,0.727-0.139,1.004-0.417
		l17.535-17.534C75.059,44.316,75.059,43.417,74.504,42.861z M49.877,70.745H27.924V49.457h14.674h7.279v7.278V70.745z
		 M55.965,59.389l-3.244-3.242v-8.112c0-0.786-0.637-1.423-1.422-1.423h-8.111l-2.277-2.276l15.523-15.522l15.053,15.054
		L55.965,59.389z"/>
</g>
</svg>
