<?xml version="1.0" encoding="utf-8"?>
<!-- Generator: Adobe Illustrator 16.0.0, SVG Export Plug-In . SVG Version: 6.00 Build 0)  -->
<!DOCTYPE svg PUBLIC "-//W3C//DTD SVG 1.1//EN" "http://www.w3.org/Graphics/SVG/1.1/DTD/svg11.dtd">
<svg version="1.1" id="Layer_1" xmlns="http://www.w3.org/2000/svg" xmlns:xlink="http://www.w3.org/1999/xlink" x="0px" y="0px"
	 width="100px" height="100px" viewBox="0 0 100 100" enable-background="new 0 0 100 100" xml:space="preserve">
<path d="M58.78,67.283c7.383,0,13.389-6.007,13.389-13.39c0-5.902-3.873-10.981-9.268-12.729c0.461-1.367,0.699-2.806,0.699-4.265
	c0-7.383-6.006-13.39-13.391-13.39c-7.383,0-13.389,6.007-13.389,13.39c0,1.521,0.258,3.019,0.758,4.436
	c-5.152,1.898-8.744,6.846-8.744,12.558c0,7.383,6.008,13.39,13.391,13.39c2.082,0,4.109-0.499,5.939-1.411v5.793H35.507
	c-1.291,0-2.338,1.047-2.338,2.337c0,1.291,1.047,2.338,2.338,2.338h29.992c1.291,0,2.338-1.047,2.338-2.338
	c0-1.29-1.047-2.337-2.338-2.337h-12.66v-5.793C54.671,66.784,56.696,67.283,58.78,67.283z M42.226,62.608
	c-4.807,0-8.717-3.91-8.717-8.715c0-4.427,3.314-8.146,7.707-8.652c0.805-0.093,1.504-0.595,1.848-1.328
	c0.344-0.731,0.285-1.592-0.158-2.27c-0.922-1.417-1.41-3.058-1.41-4.743c0-4.806,3.91-8.716,8.715-8.716
	c4.807,0,8.717,3.91,8.717,8.716c0,1.669-0.482,3.299-1.393,4.711c-0.449,0.695-0.494,1.577-0.123,2.317
	c0.373,0.74,1.111,1.228,1.938,1.281c4.568,0.293,8.146,4.107,8.146,8.684c0,4.805-3.91,8.715-8.715,8.715
	c-2.488,0-4.867-1.077-6.525-2.956c-0.016-0.019-0.035-0.03-0.053-0.047c-0.064-0.07-0.135-0.131-0.209-0.192
	c-0.047-0.039-0.094-0.082-0.145-0.118c-0.084-0.062-0.176-0.109-0.27-0.158c-0.047-0.024-0.09-0.054-0.139-0.075
	c-0.111-0.048-0.229-0.083-0.348-0.115c-0.037-0.009-0.068-0.024-0.105-0.032c-0.156-0.033-0.318-0.052-0.484-0.052
	s-0.328,0.019-0.486,0.052c-0.035,0.008-0.068,0.023-0.104,0.032c-0.119,0.032-0.238,0.067-0.348,0.115
	c-0.049,0.021-0.094,0.051-0.141,0.075c-0.092,0.049-0.184,0.097-0.27,0.158c-0.051,0.036-0.096,0.079-0.145,0.118
	c-0.072,0.062-0.145,0.122-0.209,0.192c-0.016,0.017-0.035,0.028-0.051,0.047C47.093,61.531,44.714,62.608,42.226,62.608z"/>
</svg>
