<?xml version="1.0" encoding="utf-8"?>
<!-- Generator: Adobe Illustrator 16.0.0, SVG Export Plug-In . SVG Version: 6.00 Build 0)  -->
<!DOCTYPE svg PUBLIC "-//W3C//DTD SVG 1.1//EN" "http://www.w3.org/Graphics/SVG/1.1/DTD/svg11.dtd">
<svg version="1.1" id="Layer_1" xmlns="http://www.w3.org/2000/svg" xmlns:xlink="http://www.w3.org/1999/xlink" x="0px" y="0px"
	 width="100px" height="100px" viewBox="0 0 100 100" enable-background="new 0 0 100 100" xml:space="preserve">
<path d="M64.03,58.053c-2.461,0-4.688,1.018-6.287,2.652L43.927,52.64c0.228-0.78,0.355-1.6,0.355-2.452
	c0-0.812-0.119-1.595-0.326-2.342l13.712-7.769c1.604,1.682,3.86,2.736,6.362,2.736c4.854,0,8.802-3.948,8.802-8.803
	c0-4.854-3.948-8.801-8.802-8.801s-8.803,3.948-8.803,8.801c0,0.812,0.119,1.595,0.326,2.343l-13.711,7.769
	c-1.604-1.684-3.86-2.737-6.363-2.737c-4.854,0-8.802,3.948-8.802,8.803c0,4.853,3.948,8.801,8.802,8.801
	c2.462,0,4.688-1.018,6.287-2.652l13.816,8.065c-0.227,0.779-0.355,1.601-0.355,2.452c0,4.854,3.949,8.803,8.803,8.803
	s8.802-3.948,8.802-8.803C72.832,62.001,68.884,58.053,64.03,58.053z M59.511,34.011c0-2.492,2.027-4.519,4.52-4.519
	s4.52,2.027,4.52,4.519c0,2.493-2.027,4.521-4.52,4.521c-0.882,0-1.699-0.263-2.395-0.703c-1.246-0.783-2.082-2.151-2.115-3.723
	C59.52,34.074,59.511,34.043,59.511,34.011z M35.479,54.708c-2.491,0-4.52-2.026-4.52-4.519c0-2.493,2.028-4.521,4.52-4.521
	c0.882,0,1.699,0.264,2.395,0.703c1.246,0.783,2.082,2.152,2.115,3.723l-0.215,0.122l0.209,0.124
	c-0.053,1.567-0.904,2.927-2.162,3.695C37.136,54.454,36.34,54.708,35.479,54.708z M64.03,71.375c-2.492,0-4.52-2.028-4.52-4.521
	c0-0.051,0.014-0.099,0.016-0.149c0.053-1.569,0.903-2.928,2.162-3.696c0.686-0.419,1.48-0.673,2.342-0.673
	c2.492,0,4.52,2.028,4.52,4.519C68.55,69.347,66.522,71.375,64.03,71.375z"/>
</svg>
