<?xml version="1.0" encoding="utf-8"?>
<!-- Generator: Adobe Illustrator 16.0.0, SVG Export Plug-In . SVG Version: 6.00 Build 0)  -->
<!DOCTYPE svg PUBLIC "-//W3C//DTD SVG 1.1//EN" "http://www.w3.org/Graphics/SVG/1.1/DTD/svg11.dtd">
<svg version="1.1" id="Layer_1" xmlns="http://www.w3.org/2000/svg" xmlns:xlink="http://www.w3.org/1999/xlink" x="0px" y="0px"
	 width="100px" height="100px" viewBox="0 0 100 100" enable-background="new 0 0 100 100" xml:space="preserve">
<path d="M70.89,31.453v-4.518c0-0.828-0.671-1.5-1.5-1.5h-40c-0.829,0-1.5,0.672-1.5,1.5v4.5h-0.667c-0.828,0-1.5,0.672-1.5,1.5
	s0.672,1.5,1.5,1.5h0.667v4.5c0,0.828,0.671,1.5,1.5,1.5h40c0.829,0,1.5-0.672,1.5-1.5v-4.465c0.653,0.086,1.167,0.623,1.167,1.301
	v6.996c0,0.736-0.6,1.334-1.335,1.334h-6.308l-10.526-0.166h-2.165c-2.39,0-4.334,1.945-4.334,4.336v2.998h-1.25
	c-0.828,0-1.5,0.672-1.5,1.5v19c0,0.828,0.672,1.5,1.5,1.5h5.5c0.828,0,1.5-0.672,1.5-1.5v-19c0-0.828-0.672-1.5-1.5-1.5h-1.25
	v-2.998c0-0.736,0.599-1.336,1.334-1.336l12.668,0.166h6.331c2.39,0,4.335-1.943,4.335-4.334v-6.996
	C75.057,33.438,73.201,31.543,70.89,31.453z M67.89,37.436h-37v-9h37V37.436z M50.139,70.27h-2.5v-16h1.24c0.004,0,0.006,0,0.01,0
	s0.006,0,0.01,0h1.24V70.27z"/>
</svg>
