<?xml version="1.0" encoding="utf-8"?>
<!-- Generator: Adobe Illustrator 16.0.0, SVG Export Plug-In . SVG Version: 6.00 Build 0)  -->
<!DOCTYPE svg PUBLIC "-//W3C//DTD SVG 1.1//EN" "http://www.w3.org/Graphics/SVG/1.1/DTD/svg11.dtd">
<svg version="1.1" id="Layer_1" xmlns="http://www.w3.org/2000/svg" xmlns:xlink="http://www.w3.org/1999/xlink" x="0px" y="0px"
	 width="100px" height="100px" viewBox="0 0 100 100" enable-background="new 0 0 100 100" xml:space="preserve">
<g>
	<path d="M47.861,26.229h-24.2c-2.495,0-4.525,1.984-4.525,4.426v46.814c0,2.441,2.03,4.426,4.525,4.426h24.2
		c2.495,0,4.525-1.984,4.525-4.426V30.654C52.386,28.213,50.356,26.229,47.861,26.229z M49.386,77.469
		c0,0.787-0.684,1.426-1.525,1.426h-24.2c-0.841,0-1.525-0.639-1.525-1.426v-7.074h27.25V77.469z M49.386,67.395h-27.25V35.563
		h27.25V67.395z M49.386,32.563h-27.25v-1.908c0-0.787,0.684-1.426,1.525-1.426h24.2c0.841,0,1.525,0.639,1.525,1.426V32.563z"/>
	<circle cx="35.761" cy="74.25" r="3.063"/>
	<path d="M88.656,16.811H43.658c-2.666,0-4.834,2.17-4.834,4.836v3.58h4v-3.58c0-0.461,0.375-0.836,0.834-0.836h44.998
		c0.46,0,0.834,0.375,0.834,0.836v28.996c0,0.461-0.375,0.836-0.834,0.836H53.853v4h10.304v1.75h-5.875c-1.103,0-2,0.896-2,2
		c0,1.102,0.897,2,2,2h15.625c1.103,0,2-0.898,2-2c0-1.104-0.897-2-2-2h-5.75v-1.75h20.499c2.666,0,4.834-2.17,4.834-4.836V21.646
		C93.49,18.98,91.321,16.811,88.656,16.811z"/>
</g>
</svg>
