<?xml version="1.0" encoding="utf-8"?>
<!-- Generator: Adobe Illustrator 16.0.0, SVG Export Plug-In . SVG Version: 6.00 Build 0)  -->
<!DOCTYPE svg PUBLIC "-//W3C//DTD SVG 1.1//EN" "http://www.w3.org/Graphics/SVG/1.1/DTD/svg11.dtd">
<svg version="1.1" id="Layer_1" xmlns="http://www.w3.org/2000/svg" xmlns:xlink="http://www.w3.org/1999/xlink" x="0px" y="0px"
	 width="100px" height="100px" viewBox="0 0 100 100" enable-background="new 0 0 100 100" xml:space="preserve">
<path d="M69.767,41.641l-5.063-7.316c-0.437-0.631-1.155-1.008-1.922-1.008H52.67v-0.779c0-1.289-1.046-2.336-2.337-2.336
	s-2.338,1.047-2.338,2.336v0.779H32.819c-1.291,0-2.336,1.047-2.336,2.338v14.217c0,1.291,1.045,2.338,2.336,2.338h15.176v14.217
	h-6.524c-1.291,0-2.337,1.047-2.337,2.338c0,1.289,1.046,2.336,2.337,2.336h17.724c1.291,0,2.337-1.047,2.337-2.336
	c0-1.291-1.046-2.338-2.337-2.338H52.67V52.209h10.111c0.744,0,1.444-0.355,1.885-0.955l5.063-6.9
	C70.319,43.551,70.335,42.461,69.767,41.641z M61.598,47.535h-26.44V37.99h26.399l3.419,4.941L61.598,47.535z"/>
</svg>
