<?xml version="1.0" encoding="utf-8"?>
<!-- Generator: Adobe Illustrator 16.0.0, SVG Export Plug-In . SVG Version: 6.00 Build 0)  -->
<!DOCTYPE svg PUBLIC "-//W3C//DTD SVG 1.1//EN" "http://www.w3.org/Graphics/SVG/1.1/DTD/svg11.dtd">
<svg version="1.1" id="Layer_1" xmlns="http://www.w3.org/2000/svg" xmlns:xlink="http://www.w3.org/1999/xlink" x="0px" y="0px"
	 width="100px" height="100px" viewBox="0 0 100 100" enable-background="new 0 0 100 100" xml:space="preserve">
<path d="M81.843,37.299c0.018-0.041,0.028-0.086,0.043-0.129c0.027-0.078,0.055-0.154,0.073-0.234
	c0.01-0.043,0.012-0.09,0.019-0.135c0.013-0.082,0.023-0.164,0.025-0.248c0-0.016,0.004-0.029,0.004-0.045
	c0-0.035-0.009-0.07-0.011-0.105c-0.004-0.078-0.01-0.154-0.023-0.229c-0.01-0.057-0.022-0.111-0.037-0.164
	c-0.017-0.066-0.037-0.133-0.062-0.197c-0.02-0.055-0.042-0.107-0.067-0.158c-0.029-0.063-0.062-0.121-0.097-0.18
	c-0.03-0.049-0.06-0.098-0.094-0.143c-0.04-0.055-0.083-0.105-0.129-0.156c-0.04-0.045-0.081-0.088-0.125-0.129
	c-0.02-0.018-0.035-0.039-0.055-0.057l-15.167-13c-0.363-0.311-0.824-0.482-1.302-0.482H38.673c-0.505,0-0.991,0.191-1.361,0.535
	l-14,13c-0.01,0.008-0.017,0.02-0.026,0.029c-0.038,0.037-0.071,0.078-0.106,0.117c-0.048,0.055-0.097,0.109-0.138,0.168
	c-0.03,0.041-0.054,0.086-0.08,0.131c-0.038,0.063-0.074,0.125-0.104,0.189c-0.022,0.049-0.04,0.098-0.058,0.148
	c-0.024,0.068-0.046,0.137-0.063,0.205c-0.013,0.051-0.022,0.102-0.031,0.154c-0.012,0.078-0.02,0.154-0.023,0.232
	c-0.001,0.031-0.009,0.059-0.009,0.09c0,0.02,0.005,0.037,0.006,0.057c0.002,0.082,0.012,0.162,0.024,0.244
	c0.007,0.045,0.011,0.092,0.021,0.137c0.017,0.078,0.044,0.154,0.071,0.229c0.015,0.043,0.026,0.088,0.044,0.131
	c0.032,0.072,0.074,0.141,0.115,0.211c0.023,0.039,0.041,0.08,0.066,0.117c0.001,0.002,0.002,0.004,0.003,0.006L50.69,77.973
	c0.008,0.012,0.019,0.02,0.027,0.029c0.028,0.039,0.063,0.07,0.094,0.107c0.091,0.109,0.189,0.209,0.3,0.297
	c0.049,0.037,0.1,0.07,0.153,0.105c0.111,0.07,0.227,0.129,0.35,0.178c0.055,0.021,0.107,0.045,0.164,0.063
	c0.182,0.053,0.369,0.09,0.563,0.09c0.002,0,0.005,0,0.008,0c0.008,0,0.015-0.004,0.023-0.004c0.185-0.004,0.363-0.037,0.536-0.088
	c0.058-0.018,0.111-0.041,0.167-0.064c0.123-0.049,0.238-0.107,0.348-0.18c0.052-0.033,0.104-0.066,0.152-0.105
	c0.114-0.09,0.214-0.193,0.307-0.307c0.028-0.033,0.061-0.063,0.086-0.098c0.006-0.008,0.015-0.016,0.021-0.023l27.667-40.334
	c0.001-0.002,0.002-0.004,0.003-0.006c0.031-0.045,0.054-0.096,0.081-0.145C81.776,37.426,81.815,37.363,81.843,37.299z
	 M62.636,38.508l-10.32,31.91l-10.592-31.91H62.636z M45.336,34.508l6.986-6.986l6.806,6.986H45.336z M37.509,38.508l8.474,25.531
	L28.47,38.508H37.509z M66.839,38.508h9.37L58.48,64.354L66.839,38.508z M74.601,34.508h-9.888l-8.768-9H64.1L74.601,34.508z
	 M39.458,25.508h9.221l-9,9h-9.913L39.458,25.508z"/>
</svg>
