<?xml version="1.0" encoding="utf-8"?>
<!-- Generator: Adobe Illustrator 16.0.0, SVG Export Plug-In . SVG Version: 6.00 Build 0)  -->
<!DOCTYPE svg PUBLIC "-//W3C//DTD SVG 1.1//EN" "http://www.w3.org/Graphics/SVG/1.1/DTD/svg11.dtd">
<svg version="1.1" id="Layer_1" xmlns="http://www.w3.org/2000/svg" xmlns:xlink="http://www.w3.org/1999/xlink" x="0px" y="0px"
	 width="100px" height="100px" viewBox="0 0 100 100" enable-background="new 0 0 100 100" xml:space="preserve">
<path d="M70.381,31.743l-0.509-1.306l-1.393-0.164c-5.856-0.689-11.12-2.302-15.223-4.668l-1.165-0.672l-1.165,0.672
	c-4.104,2.366-9.366,3.979-15.223,4.668l-1.393,0.164l-0.509,1.306c-1.568,4.027-2.398,8.587-2.398,13.183
	c0,25.168,20.188,28.053,20.391,28.079l0.36,0.046l0.357-0.065c0.211-0.04,5.22-0.991,10.206-4.952
	c4.59-3.641,10.06-10.605,10.06-23.107C72.778,40.33,71.949,35.771,70.381,31.743z M68.115,44.926c0,0.652-0.021,1.284-0.053,1.901
	H54.424V31.389c3.582,1.561,7.67,2.695,12.074,3.329C67.559,37.889,68.115,41.387,68.115,44.926z M37.685,34.718
	c4.406-0.634,8.494-1.769,12.075-3.329v15.438H36.116c-0.03-0.617-0.048-1.249-0.048-1.901
	C36.068,41.387,36.625,37.889,37.685,34.718z M36.651,51.49H49.76v16.202C45.834,66.323,38.726,62.379,36.651,51.49z M54.424,67.54
	V51.49h13.051C65.342,61.779,58.369,65.967,54.424,67.54z"/>
</svg>
