<?xml version="1.0" encoding="utf-8"?>
<!-- Generator: Adobe Illustrator 16.0.0, SVG Export Plug-In . SVG Version: 6.00 Build 0)  -->
<!DOCTYPE svg PUBLIC "-//W3C//DTD SVG 1.1//EN" "http://www.w3.org/Graphics/SVG/1.1/DTD/svg11.dtd">
<svg version="1.1" id="Layer_1" xmlns="http://www.w3.org/2000/svg" xmlns:xlink="http://www.w3.org/1999/xlink" x="0px" y="0px"
	 width="100px" height="100px" viewBox="0 0 100 100" enable-background="new 0 0 100 100" xml:space="preserve">
<path d="M75.714,41.058c0-0.001,0-0.002,0-0.004c-0.034-0.17-0.097-0.33-0.173-0.484c-0.019-0.04-0.04-0.077-0.061-0.115
	c-0.087-0.152-0.188-0.298-0.313-0.424L58.902,23.767c-0.126-0.126-0.271-0.227-0.424-0.313c-0.038-0.021-0.074-0.042-0.113-0.061
	c-0.272-0.133-0.569-0.212-0.877-0.212H32.752c-1.104,0-2,0.896-2,2v51.625c0,1.105,0.896,2,2,2h41c1.104,0,2-0.895,2-2V41.445
	C75.752,41.314,75.739,41.185,75.714,41.058z M68.923,39.445h-9.435v-9.436l4.718,4.718L68.923,39.445z M34.752,74.806V27.181
	h20.736v14.264c0,1.104,0.896,2,2,2h14.264v31.361H34.752z"/>
</svg>
