<?xml version="1.0" encoding="utf-8"?>
<!-- Generator: Adobe Illustrator 16.0.0, SVG Export Plug-In . SVG Version: 6.00 Build 0)  -->
<!DOCTYPE svg PUBLIC "-//W3C//DTD SVG 1.1//EN" "http://www.w3.org/Graphics/SVG/1.1/DTD/svg11.dtd">
<svg version="1.1" id="Layer_1" xmlns="http://www.w3.org/2000/svg" xmlns:xlink="http://www.w3.org/1999/xlink" x="0px" y="0px"
	 width="100px" height="100px" viewBox="0 0 100 100" enable-background="new 0 0 100 100" xml:space="preserve">
<path d="M77.132,18.999c-0.678-0.675-1.696-0.757-2.455-0.276l-7.187,7.189l-7.736,7.735v-0.006c0-0.113-0.016-0.221-0.029-0.329
	c1.509-1.919,2.423-4.326,2.423-6.953c0-6.229-5.067-11.296-11.296-11.296c-6.228,0-11.295,5.067-11.295,11.296
	c0,2.623,0.912,5.025,2.416,6.945c-0.008,0.08-0.022,0.159-0.022,0.241v0.164v0.034l-7.834-7.832l-7.188-7.189
	c-0.758-0.48-1.777-0.398-2.454,0.276c-0.781,0.785-0.799,2.035-0.039,2.795l0.678,0.675l2.408,2.409l10.036,10.038l4.394,4.393
	v20.596v1.337l-1.544,2.277l-4.151,6.125c-0.349,0.59-0.38,1.317-0.055,1.926c0.342,0.645,1.013,1.048,1.742,1.048h3.947v11.729
	c0,3.253,1.713,5.704,3.984,5.704h0.062h9.774h0.062c2.271,0,3.984-2.451,3.984-5.704V72.617h3.884c0.01,0,0.018,0,0.026,0
	c1.09,0,1.974-0.882,1.974-1.973c0-0.514-0.197-0.983-0.52-1.334l-3.805-5.632c0.02-0.006,0.036-0.015,0.056-0.021l-0.095-0.139
	l-1.521-2.243v-1.371V39.211l4.295-4.295l10.037-10.038l2.407-2.409l0.677-0.675C77.932,21.034,77.912,19.784,77.132,18.999z
	 M50.851,19.011c4.054,0,7.35,3.296,7.35,7.349c0,4.054-3.296,7.351-7.35,7.351c-4.052,0-7.349-3.297-7.349-7.351
	C43.502,22.307,46.799,19.011,50.851,19.011z M41.95,68.235l3.186-4.717l0.212-0.313l0.041-0.062l0.551-0.803V37.655h9.824v24.14
	v0.27c0.031,0.323,0.131,0.642,0.319,0.92l0.36,0.534l3.311,4.899v0.253h-0.79h-1.246H43.923c-0.01,0-0.021,0.005-0.031,0.005
	c-0.01,0-0.021-0.005-0.031-0.005H41.95V68.235z M46.28,86.103h-0.062c-0.156-0.267-0.383-0.874-0.383-1.757V72.617h3.043v13.485
	H46.28z M55.362,86.103h-2.536V72.617h2.919v11.729C55.745,85.229,55.518,85.836,55.362,86.103z"/>
</svg>
