<?xml version="1.0" encoding="utf-8"?>
<!-- Generator: Adobe Illustrator 16.0.0, SVG Export Plug-In . SVG Version: 6.00 Build 0)  -->
<!DOCTYPE svg PUBLIC "-//W3C//DTD SVG 1.1//EN" "http://www.w3.org/Graphics/SVG/1.1/DTD/svg11.dtd">
<svg version="1.1" id="Layer_1" xmlns="http://www.w3.org/2000/svg" xmlns:xlink="http://www.w3.org/1999/xlink" x="0px" y="0px"
	 width="100px" height="100px" viewBox="0 0 100 100" enable-background="new 0 0 100 100" xml:space="preserve">
<path d="M63.885,29.024l-8.104-8.334c-0.281-0.289-0.667-0.451-1.069-0.453c-0.002,0-0.004,0-0.006,0
	c-0.401,0-0.786,0.16-1.067,0.445l-8.229,8.334c-0.277,0.279-0.433,0.658-0.433,1.053v46.832c0,0.828,0.671,1.5,1.5,1.5H62.81
	c0.829,0,1.5-0.672,1.5-1.5V30.069C64.31,29.679,64.157,29.304,63.885,29.024z M47.976,33.63l3.091,2.387
	c0.579,0.445,1.395,0.41,1.932-0.084l3.74-3.441l4.571,3.127V69.11H47.976V33.63z M61.31,31.985l-3.861-2.645
	c-0.576-0.396-1.349-0.34-1.863,0.135l-3.687,3.393l-3.449-2.662l4.16-4.213h3.992c0.047,0,0.092-0.01,0.139-0.014l4.57,4.699
	V31.985z M47.976,75.401V72.11H61.31v3.291H47.976z"/>
</svg>
