<?xml version="1.0" encoding="utf-8"?>
<!-- Generator: Adobe Illustrator 16.0.0, SVG Export Plug-In . SVG Version: 6.00 Build 0)  -->
<!DOCTYPE svg PUBLIC "-//W3C//DTD SVG 1.1//EN" "http://www.w3.org/Graphics/SVG/1.1/DTD/svg11.dtd">
<svg version="1.1" id="Layer_1" xmlns="http://www.w3.org/2000/svg" xmlns:xlink="http://www.w3.org/1999/xlink" x="0px" y="0px"
	 width="100px" height="100px" viewBox="0 0 100 100" enable-background="new 0 0 100 100" xml:space="preserve">
<g>
	<g>
		<path d="M25.916,65.35c-5.915,0-10.727-4.812-10.727-10.726c0-5.915,4.812-10.726,10.727-10.726
			c5.914,0,10.727,4.812,10.727,10.726C36.643,60.539,31.83,65.35,25.916,65.35z M25.916,48.387c-3.439,0-6.238,2.798-6.238,6.237
			c0,3.439,2.799,6.237,6.238,6.237s6.238-2.798,6.238-6.237C32.154,51.185,29.355,48.387,25.916,48.387z"/>
	</g>
	<g>
		<path d="M50.065,65.35c-5.915,0-10.726-4.812-10.726-10.726c0-5.915,4.811-10.726,10.726-10.726s10.726,4.812,10.726,10.726
			C60.791,60.539,55.98,65.35,50.065,65.35z M50.065,48.387c-3.439,0-6.237,2.798-6.237,6.237c0,3.439,2.798,6.237,6.237,6.237
			s6.237-2.798,6.237-6.237C56.303,51.185,53.505,48.387,50.065,48.387z"/>
	</g>
	<g>
		<path d="M75.513,65.35c-5.914,0-10.728-4.812-10.728-10.726c0-5.915,4.813-10.726,10.728-10.726
			c5.915,0,10.726,4.812,10.726,10.726C86.238,60.539,81.428,65.35,75.513,65.35z M75.513,48.387c-3.438,0-6.239,2.798-6.239,6.237
			c0,3.439,2.801,6.237,6.239,6.237c3.439,0,6.237-2.798,6.237-6.237C81.75,51.185,78.952,48.387,75.513,48.387z"/>
	</g>
</g>
</svg>
