<?xml version="1.0" encoding="utf-8"?>
<!-- Generator: Adobe Illustrator 16.0.0, SVG Export Plug-In . SVG Version: 6.00 Build 0)  -->
<!DOCTYPE svg PUBLIC "-//W3C//DTD SVG 1.1//EN" "http://www.w3.org/Graphics/SVG/1.1/DTD/svg11.dtd">
<svg version="1.1" id="Layer_1" xmlns="http://www.w3.org/2000/svg" xmlns:xlink="http://www.w3.org/1999/xlink" x="0px" y="0px"
	 width="100px" height="100px" viewBox="0 0 100 100" enable-background="new 0 0 100 100" xml:space="preserve">
<g>
	<path d="M69.313,33.816H28.675c-2.438,0-4.42,1.981-4.42,4.418v25.494c0,2.437,1.982,4.418,4.42,4.418h40.639
		c2.437,0,4.418-1.981,4.418-4.418V38.234C73.731,35.797,71.75,33.816,69.313,33.816z M28.799,38.36h40.39v17.309L54.087,42.685
		c-0.474-0.405-1.115-0.557-1.717-0.405c-0.604,0.152-1.096,0.589-1.319,1.17l-4.466,11.584l-3.357-1.957
		c-0.752-0.44-1.705-0.314-2.319,0.301l-2.526,2.528h-9.583V38.36z M28.799,63.602v-3.866h10.378c0.508,0,0.995-0.202,1.354-0.561
		l2.044-2.045l4.024,2.346c0.484,0.282,1.07,0.338,1.6,0.152c0.529-0.186,0.951-0.595,1.152-1.119l4.298-11.149l13.856,11.914
		c0.361,0.31,0.807,0.462,1.248,0.462c0.146,0,0.293-0.02,0.436-0.054v3.919H28.799z"/>
	<circle cx="39.176" cy="45.236" r="3.987"/>
</g>
</svg>
