<?xml version="1.0" encoding="utf-8"?>
<!-- Generator: Adobe Illustrator 16.0.0, SVG Export Plug-In . SVG Version: 6.00 Build 0)  -->
<!DOCTYPE svg PUBLIC "-//W3C//DTD SVG 1.1//EN" "http://www.w3.org/Graphics/SVG/1.1/DTD/svg11.dtd">
<svg version="1.1" id="Layer_1" xmlns="http://www.w3.org/2000/svg" xmlns:xlink="http://www.w3.org/1999/xlink" x="0px" y="0px"
	 width="100px" height="100px" viewBox="0 0 100 100" enable-background="new 0 0 100 100" xml:space="preserve">
<g>
	<g>
		<g>
			<path d="M72.139,38.859H29.728c-2.887,0-5.236-2.349-5.236-5.236s2.35-5.236,5.236-5.236h42.411c2.887,0,5.236,2.349,5.236,5.236
				S75.025,38.859,72.139,38.859z M29.728,32.875c-0.413,0-0.748,0.336-0.748,0.748s0.335,0.748,0.748,0.748h42.411
				c0.412,0,0.748-0.336,0.748-0.748s-0.336-0.748-0.748-0.748H29.728z"/>
		</g>
	</g>
	<g>
		<g>
			<path d="M72.139,54.081H29.728c-2.887,0-5.236-2.35-5.236-5.237c0-2.887,2.35-5.236,5.236-5.236h42.411
				c2.887,0,5.236,2.35,5.236,5.236C77.375,51.731,75.025,54.081,72.139,54.081z M29.728,48.096c-0.413,0-0.748,0.336-0.748,0.748
				c0,0.412,0.335,0.748,0.748,0.748h42.411c0.412,0,0.748-0.336,0.748-0.748c0-0.412-0.336-0.748-0.748-0.748H29.728z"/>
		</g>
	</g>
	<g>
		<g>
			<path d="M72.139,69.3H29.728c-2.887,0-5.236-2.349-5.236-5.236s2.35-5.237,5.236-5.237h42.411c2.887,0,5.236,2.35,5.236,5.237
				S75.025,69.3,72.139,69.3z M29.728,63.316c-0.413,0-0.748,0.336-0.748,0.748s0.335,0.748,0.748,0.748h42.411
				c0.412,0,0.748-0.336,0.748-0.748s-0.336-0.748-0.748-0.748H29.728z"/>
		</g>
	</g>
</g>
</svg>
