<?xml version="1.0" encoding="utf-8"?>
<!-- Generator: Adobe Illustrator 16.0.0, SVG Export Plug-In . SVG Version: 6.00 Build 0)  -->
<!DOCTYPE svg PUBLIC "-//W3C//DTD SVG 1.1//EN" "http://www.w3.org/Graphics/SVG/1.1/DTD/svg11.dtd">
<svg version="1.1" id="Layer_1" xmlns="http://www.w3.org/2000/svg" xmlns:xlink="http://www.w3.org/1999/xlink" x="0px" y="0px"
	 width="100px" height="100px" viewBox="0 0 100 100" enable-background="new 0 0 100 100" xml:space="preserve">
<g>
	<g>
		<path d="M61.224,31.294c-0.614-0.087-1.237,0.106-1.705,0.513c-0.468,0.41-0.735,1-0.735,1.623v26.144
			c-1.503-0.641-3.313-1.01-5.308-1.01c-5.481,0-9.615,2.762-9.615,6.422c0,3.662,4.134,6.424,9.615,6.424
			c5.482,0,9.616-2.762,9.616-6.424V36.172c2.179,0.722,5.019,2.191,4.962,4.933c-0.025,1.189,0.919,2.173,2.107,2.198
			c0.016,0,0.031,0,0.047,0c1.169,0,2.129-0.935,2.152-2.108C72.498,34.573,65.425,31.856,61.224,31.294z"/>
	</g>
	<g>
		<path d="M52.299,43.604H37.577c-1.059,0-1.916-0.858-1.916-1.916s0.857-1.916,1.916-1.916h14.722c1.058,0,1.915,0.858,1.915,1.916
			S53.356,43.604,52.299,43.604z"/>
	</g>
	<g>
		<path d="M52.299,49.349H37.577c-1.059,0-1.916-0.858-1.916-1.915c0-1.058,0.857-1.916,1.916-1.916h14.722
			c1.058,0,1.915,0.858,1.915,1.916C54.214,48.491,53.356,49.349,52.299,49.349z"/>
	</g>
	<g>
		<path d="M52.299,55.094H37.577c-1.059,0-1.916-0.858-1.916-1.916c0-1.057,0.857-1.915,1.916-1.915h14.722
			c1.058,0,1.915,0.858,1.915,1.915C54.214,54.236,53.356,55.094,52.299,55.094z"/>
	</g>
</g>
</svg>
