<?xml version="1.0" encoding="utf-8"?>
<!-- Generator: Adobe Illustrator 16.0.0, SVG Export Plug-In . SVG Version: 6.00 Build 0)  -->
<!DOCTYPE svg PUBLIC "-//W3C//DTD SVG 1.1//EN" "http://www.w3.org/Graphics/SVG/1.1/DTD/svg11.dtd">
<svg version="1.1" id="Layer_1" xmlns="http://www.w3.org/2000/svg" xmlns:xlink="http://www.w3.org/1999/xlink" x="0px" y="0px"
	 width="100px" height="100px" viewBox="0 0 100 100" enable-background="new 0 0 100 100" xml:space="preserve">
<path d="M88.732,54.561c0-9.723-9.372-17.635-20.891-17.635c-0.274,0-0.561,0.011-0.846,0.021
	c-4.712-4.681-11.684-7.464-19.022-7.464c-13.751,0-24.938,9.396-24.938,20.946c0,6.226,3.34,12.145,9.009,16.104
	c-0.178,3.083-2.677,7.061-3.662,8.359c-0.688,0.904-0.805,2.121-0.301,3.14c0.504,1.02,1.543,1.666,2.683,1.666
	c6.837,0,14.321-5.353,17.955-8.331c2.966-0.074,5.847-0.617,8.61-1.562c2.954,1.454,6.267,2.27,9.696,2.38
	c3.457,2.823,9.313,6.801,14.85,6.801c1.137,0,2.171-0.646,2.677-1.663c0.505-1.017,0.392-2.236-0.295-3.142
	c-0.925-1.221-2.59-4.045-2.849-6.218C86.023,64.632,88.732,59.725,88.732,54.561z M47.993,65.388c-0.004,0-0.007,0-0.011,0
	c-0.823-0.057-1.662,0.169-2.29,0.707c-2.56,2.191-5.785,4.472-8.913,5.96c0.938-2.38,1.566-5.128,1.099-7.738
	c-0.15-0.846-0.657-1.586-1.394-2.032c-4.743-2.877-7.463-7.199-7.463-11.856c0-8.249,8.503-14.961,18.953-14.961
	c4.124,0,8.082,1.076,11.319,2.995c-0.268,0.101-0.525,0.215-0.785,0.325c-0.146,0.061-0.294,0.117-0.436,0.181
	c-0.505,0.223-1,0.464-1.479,0.722c-0.1,0.054-0.194,0.114-0.293,0.169c-0.379,0.212-0.751,0.433-1.112,0.665
	c-0.152,0.098-0.301,0.2-0.45,0.301c-0.306,0.208-0.604,0.422-0.894,0.645c-0.144,0.108-0.287,0.216-0.424,0.327
	c-0.322,0.258-0.628,0.526-0.929,0.799c-0.086,0.081-0.178,0.155-0.263,0.237c-0.377,0.356-0.733,0.726-1.075,1.107
	c-0.086,0.098-0.167,0.2-0.251,0.3c-0.249,0.292-0.491,0.589-0.719,0.894c-0.104,0.139-0.203,0.281-0.303,0.422
	c-0.202,0.286-0.393,0.579-0.576,0.875c-0.086,0.14-0.174,0.279-0.255,0.422c-0.213,0.37-0.411,0.748-0.593,1.132
	c-0.032,0.067-0.07,0.133-0.103,0.202c-0.207,0.451-0.388,0.915-0.552,1.384c-0.047,0.136-0.085,0.274-0.127,0.412
	c-0.109,0.342-0.208,0.687-0.291,1.038c-0.041,0.168-0.078,0.336-0.113,0.504c-0.071,0.345-0.127,0.694-0.174,1.045
	c-0.021,0.156-0.047,0.311-0.061,0.467c-0.051,0.504-0.085,1.011-0.085,1.525c0,0.65,0.059,1.293,0.14,1.932
	c0.021,0.159,0.044,0.315,0.07,0.473c0.102,0.631,0.231,1.258,0.412,1.872c0.003,0.013,0.009,0.026,0.013,0.039
	c0.18,0.602,0.407,1.191,0.662,1.771c0.064,0.149,0.131,0.296,0.202,0.444c0.274,0.583,0.573,1.157,0.919,1.709
	c0.013,0.021,0.029,0.041,0.042,0.063c0.339,0.536,0.72,1.054,1.124,1.558c0.104,0.128,0.208,0.257,0.315,0.384
	c0.103,0.121,0.194,0.249,0.303,0.368C50.113,65.316,49.058,65.388,47.993,65.388z M76.925,63.76
	c-0.735,0.446-1.243,1.187-1.394,2.033c-0.317,1.771-0.048,3.606,0.47,5.296c-2.107-1.154-4.21-2.687-5.94-4.168
	c-0.542-0.463-1.232-0.719-1.946-0.719c-0.102,0-0.203,0.005-0.273,0.011c-3.165,0-6.198-0.78-8.769-2.258
	c-3.843-2.205-6.137-5.715-6.137-9.393c0-0.738,0.088-1.461,0.257-2.164c0.169-0.703,0.421-1.384,0.745-2.037
	c1.134-2.288,3.167-4.237,5.784-5.566c0.004-0.003,0.01-0.004,0.016-0.007c0.456-0.231,0.932-0.436,1.42-0.627
	c1.514-0.595,3.173-1,4.938-1.163c0.574-0.052,1.154-0.086,1.744-0.086c8.219,0,14.906,5.226,14.906,11.65
	C82.747,58.163,80.625,61.516,76.925,63.76z"/>
</svg>
