<?xml version="1.0" encoding="utf-8"?>
<!-- Generator: Adobe Illustrator 16.0.0, SVG Export Plug-In . SVG Version: 6.00 Build 0)  -->
<!DOCTYPE svg PUBLIC "-//W3C//DTD SVG 1.1//EN" "http://www.w3.org/Graphics/SVG/1.1/DTD/svg11.dtd">
<svg version="1.1" id="Layer_1" xmlns="http://www.w3.org/2000/svg" xmlns:xlink="http://www.w3.org/1999/xlink" x="0px" y="0px"
	 width="100px" height="100px" viewBox="0 0 100 100" enable-background="new 0 0 100 100" xml:space="preserve">
<g>
	<path d="M51.68,28.062c-12.638,0-22.919,10.282-22.919,22.918c0,12.639,10.281,22.92,22.919,22.92s22.919-10.282,22.919-22.92
		C74.599,38.343,64.317,28.062,51.68,28.062z M51.68,69.647c-10.294,0-18.668-8.374-18.668-18.667
		c0-10.294,8.374-18.667,18.668-18.667s18.667,8.374,18.667,18.667C70.347,61.273,61.974,69.647,51.68,69.647z"/>
	<path stroke="#000000" stroke-miterlimit="10" d="M56.992,44.085c-0.26-0.161-0.54-0.242-0.82-0.242
		c-0.376,0-0.75,0.142-1.066,0.425l-4.018,3.607c-0.222-0.131-0.477-0.211-0.751-0.211h-3.476c-0.819,0-1.484,0.664-1.484,1.484
		v3.476c0,0.819,0.665,1.484,1.484,1.484h3.476c0.222,0,0.43-0.052,0.619-0.138l4.149,3.721c0.551,0.495,1.28,0.566,1.887,0.185
		c0.607-0.378,0.989-1.147,0.989-1.987v-9.816C57.981,45.235,57.6,44.468,56.992,44.085z"/>
</g>
</svg>
