<?xml version="1.0" encoding="utf-8"?>
<!-- Generator: Adobe Illustrator 16.0.0, SVG Export Plug-In . SVG Version: 6.00 Build 0)  -->
<!DOCTYPE svg PUBLIC "-//W3C//DTD SVG 1.1//EN" "http://www.w3.org/Graphics/SVG/1.1/DTD/svg11.dtd">
<svg version="1.1" id="Layer_1" xmlns="http://www.w3.org/2000/svg" xmlns:xlink="http://www.w3.org/1999/xlink" x="0px" y="0px"
	 width="100px" height="100px" viewBox="0 0 100 100" enable-background="new 0 0 100 100" xml:space="preserve">
<path d="M71.494,57.258c1.869-2.702,2.971-5.974,2.971-9.501c0-9.235-7.514-16.749-16.75-16.749c-3.525,0-6.797,1.102-9.5,2.97
	l-0.143-0.143c-0.914-0.913-2.393-0.913-3.305,0c-0.914,0.913-0.914,2.392,0,3.305l0.002,0.003
	c-2.375,2.891-3.803,6.589-3.803,10.614c0,3.729,1.24,7.167,3.309,9.954L28.219,73.767c-0.912,0.913-0.912,2.393,0,3.306
	c0.457,0.456,1.055,0.685,1.652,0.685s1.197-0.229,1.652-0.685l16.031-16.03c2.822,2.164,6.338,3.465,10.16,3.465
	c4.037,0,7.744-1.437,10.639-3.822c0.441,0.382,0.977,0.598,1.523,0.598c0.598,0,1.197-0.228,1.652-0.685
	c0.914-0.913,0.914-2.392,0-3.305L71.494,57.258z M57.715,35.682c6.658,0,12.076,5.417,12.076,12.075
	c0,2.234-0.621,4.32-1.682,6.115L51.6,37.363C53.396,36.303,55.482,35.682,57.715,35.682z M45.641,47.757
	c0-2.735,0.924-5.252,2.463-7.278l16.893,16.889c-2.027,1.54-4.545,2.465-7.281,2.465C51.057,59.832,45.641,54.416,45.641,47.757z"
	/>
</svg>
