<?xml version="1.0" encoding="utf-8"?>
<!-- Generator: Adobe Illustrator 16.0.0, SVG Export Plug-In . SVG Version: 6.00 Build 0)  -->
<!DOCTYPE svg PUBLIC "-//W3C//DTD SVG 1.1//EN" "http://www.w3.org/Graphics/SVG/1.1/DTD/svg11.dtd">
<svg version="1.1" id="Layer_1" xmlns="http://www.w3.org/2000/svg" xmlns:xlink="http://www.w3.org/1999/xlink" x="0px" y="0px"
	 width="100px" height="100px" viewBox="0 0 100 100" enable-background="new 0 0 100 100" xml:space="preserve">
<path d="M79.973,33.491H66.609c-0.91-5.306-5.53-9.358-11.09-9.358c-5.561,0-10.181,4.053-11.09,9.358H31.065
	c-2.539,0-4.605,2.065-4.605,4.604v35.568c0,2.541,2.067,4.607,4.605,4.607h48.908c2.539,0,4.605-2.066,4.605-4.607V38.096
	C84.578,35.557,82.512,33.491,79.973,33.491z M55.519,27.942c3.45,0,6.352,2.36,7.197,5.549H48.322
	C49.167,30.303,52.069,27.942,55.519,27.942z M48.322,37.301h14.394h3.894h4.539v37.16h-31.55v-37.16h4.83H48.322z M30.271,73.664
	V54.846V51.01V38.096c0-0.438,0.356-0.795,0.794-0.795h4.722v37.16h-4.722C30.627,74.461,30.271,74.104,30.271,73.664z
	 M80.767,50.928v3.836v18.9c0,0.439-0.356,0.797-0.794,0.797h-5.013v-37.16h5.013c0.438,0,0.794,0.357,0.794,0.795V50.928z"/>
</svg>
