<?xml version="1.0" encoding="utf-8"?>
<!-- Generator: Adobe Illustrator 16.0.0, SVG Export Plug-In . SVG Version: 6.00 Build 0)  -->
<!DOCTYPE svg PUBLIC "-//W3C//DTD SVG 1.1//EN" "http://www.w3.org/Graphics/SVG/1.1/DTD/svg11.dtd">
<svg version="1.1" id="Layer_1" xmlns="http://www.w3.org/2000/svg" xmlns:xlink="http://www.w3.org/1999/xlink" x="0px" y="0px"
	 width="100px" height="100px" viewBox="0 0 100 100" enable-background="new 0 0 100 100" xml:space="preserve">
<g>
	<path d="M74.4,40.345c-0.353-0.501-0.927-0.799-1.539-0.799H39.753l-2.21-4.938c-0.303-0.677-0.976-1.113-1.717-1.113h-4.621
		c-1.039,0-1.882,0.843-1.882,1.882s0.843,1.882,1.882,1.882h3.401l2.112,4.722l4.181,24.025c0.156,0.901,0.939,1.56,1.854,1.56
		H64.15c0.794,0,1.503-0.499,1.771-1.246l8.71-24.256C74.839,41.487,74.753,40.846,74.4,40.345z M62.827,63.802H44.336L40.771,43.31
		h29.416L62.827,63.802z"/>
	<path d="M47.971,69.944c-2.998,0-5.438,2.439-5.438,5.438s2.44,5.438,5.438,5.438s5.438-2.439,5.438-5.438
		S50.969,69.944,47.971,69.944z M47.971,77.058c-0.924,0-1.675-0.751-1.675-1.675s0.751-1.675,1.675-1.675
		c0.923,0,1.674,0.751,1.674,1.675S48.894,77.058,47.971,77.058z"/>
	<path d="M63.425,69.944c-2.999,0-5.438,2.439-5.438,5.438s2.439,5.438,5.438,5.438c2.997,0,5.437-2.439,5.437-5.438
		S66.422,69.944,63.425,69.944z M63.425,77.058c-0.924,0-1.675-0.751-1.675-1.675s0.751-1.675,1.675-1.675
		c0.922,0,1.673,0.751,1.673,1.675S64.347,77.058,63.425,77.058z"/>
</g>
</svg>
