<?xml version="1.0" encoding="utf-8"?>
<!-- Generator: Adobe Illustrator 16.0.0, SVG Export Plug-In . SVG Version: 6.00 Build 0)  -->
<!DOCTYPE svg PUBLIC "-//W3C//DTD SVG 1.1//EN" "http://www.w3.org/Graphics/SVG/1.1/DTD/svg11.dtd">
<svg version="1.1" id="Layer_1" xmlns="http://www.w3.org/2000/svg" xmlns:xlink="http://www.w3.org/1999/xlink" x="0px" y="0px"
	 width="100px" height="100px" viewBox="0 0 100 100" enable-background="new 0 0 100 100" xml:space="preserve">
<g>
	<path d="M57.881,83.955H45.912c-1.239,0-2.244,1.005-2.244,2.244c0,1.239,1.005,2.244,2.244,2.244h11.969
		c1.239,0,2.245-1.005,2.245-2.244C60.126,84.96,59.12,83.955,57.881,83.955z"/>
	<path d="M57.881,78.22H45.912c-1.239,0-2.244,1.005-2.244,2.245c0,1.239,1.005,2.244,2.244,2.244h11.969
		c1.239,0,2.245-1.005,2.245-2.244C60.126,79.225,59.12,78.22,57.881,78.22z"/>
	<path d="M51.398,20.806c-13.304,0-24.126,10.822-24.126,24.125c0,7.787,6.428,16.992,11.818,23.343
		c2.736,3.225,3.719,4.751,4.064,5.389c-0.014,0.102-0.021,0.207-0.021,0.314c0,1.239,1.004,2.244,2.244,2.244h13.003
		c0.011-0.001,0.021,0,0.03,0c1.239,0,2.244-1.005,2.244-2.244c0-0.311-0.064-0.608-0.179-0.878
		c0.219-0.507,0.714-1.466,1.825-3.101c0.912-1.341,1.889-2.725,2.881-4.13c5.084-7.2,10.341-14.647,10.341-20.937
		C75.523,31.628,64.701,20.806,51.398,20.806z M61.517,63.279c-1.008,1.427-2,2.833-2.928,4.197
		c-1.197,1.761-1.982,3.134-2.401,4.256h-8.983c-0.715-1.403-2.146-3.363-4.691-6.363c-6.934-8.167-10.751-15.426-10.751-20.439
		c0-10.828,8.809-19.637,19.637-19.637c10.827,0,19.637,8.809,19.637,19.637C71.035,49.796,65.978,56.96,61.517,63.279z"/>
</g>
</svg>
