<?xml version="1.0" encoding="utf-8"?>
<!-- Generator: Adobe Illustrator 16.0.0, SVG Export Plug-In . SVG Version: 6.00 Build 0)  -->
<!DOCTYPE svg PUBLIC "-//W3C//DTD SVG 1.1//EN" "http://www.w3.org/Graphics/SVG/1.1/DTD/svg11.dtd">
<svg version="1.1" id="Layer_1" xmlns="http://www.w3.org/2000/svg" xmlns:xlink="http://www.w3.org/1999/xlink" x="0px" y="0px"
	 width="100px" height="100px" viewBox="0 0 100 100" enable-background="new 0 0 100 100" xml:space="preserve">
<g>
	<path d="M74.635,45.755l-1.58-17.231c-0.085-0.92-0.813-1.648-1.732-1.733l-17.231-1.58c-0.566-0.051-1.128,0.152-1.529,0.554
		l-27.82,27.82c-0.747,0.748-0.748,1.96,0,2.708l18.812,18.812c0.748,0.748,1.961,0.748,2.709,0l27.819-27.819
		C74.483,46.882,74.686,46.321,74.635,45.755z M44.906,71.041L28.805,54.938l25.831-25.83l14.75,1.353l1.352,14.75L44.906,71.041z"
		/>
	<circle cx="65.579" cy="34.267" r="2.554"/>
</g>
</svg>
