<?xml version="1.0" encoding="utf-8"?>
<!-- Generator: Adobe Illustrator 16.0.0, SVG Export Plug-In . SVG Version: 6.00 Build 0)  -->
<!DOCTYPE svg PUBLIC "-//W3C//DTD SVG 1.1//EN" "http://www.w3.org/Graphics/SVG/1.1/DTD/svg11.dtd">
<svg version="1.1" id="Layer_1" xmlns="http://www.w3.org/2000/svg" xmlns:xlink="http://www.w3.org/1999/xlink" x="0px" y="0px"
	 width="100px" height="100px" viewBox="0 0 100 100" enable-background="new 0 0 100 100" xml:space="preserve">
<g>
	<path d="M53.721,62.401c-1.168,1.169-1.169,3.072,0,4.246c0.566,0.566,1.319,0.878,2.121,0.878s1.554-0.311,2.123-0.878
		l10.914-10.911c0.271-0.277,0.486-0.6,0.647-0.983c0.148-0.367,0.224-0.747,0.224-1.134s-0.075-0.767-0.234-1.161
		c-0.155-0.365-0.372-0.688-0.646-0.961L57.965,40.592c-0.566-0.567-1.32-0.879-2.123-0.879s-1.557,0.313-2.121,0.879
		c-1.17,1.17-1.17,3.074,0,4.244l5.782,5.782H19.834c-1.654,0-3,1.347-3,3s1.346,3,3,3h39.669L53.721,62.401z"/>
	<path d="M76.21,26.75H42.473c-5.516,0-10.002,4.486-10.002,10l0.006,10.608h0.6c0.549,0.733,1.423,1.211,2.396,1.211
		c1.002,0,1.881-0.479,2.424-1.226l0.577-0.008V36.75c0-2.203,1.794-3.997,3.999-3.997H76.21c2.204,0,3.999,1.794,3.999,3.997
		v33.738c0,2.205-1.795,3.997-3.999,3.997H42.473c-2.205,0-3.999-1.792-3.999-3.997l-0.005-10.613h-0.602
		c-0.549-0.732-1.423-1.208-2.395-1.208c-0.979,0-1.858,0.483-2.406,1.225l-0.596,0.009v10.587c0,5.513,4.486,9.999,10.002,9.999
		H76.21c5.515,0,10-4.486,10-9.999V36.75C86.21,31.236,81.725,26.75,76.21,26.75z"/>
</g>
</svg>
