<?xml version="1.0" encoding="utf-8"?>
<!-- Generator: Adobe Illustrator 16.0.0, SVG Export Plug-In . SVG Version: 6.00 Build 0)  -->
<!DOCTYPE svg PUBLIC "-//W3C//DTD SVG 1.1//EN" "http://www.w3.org/Graphics/SVG/1.1/DTD/svg11.dtd">
<svg version="1.1" id="Layer_1" xmlns="http://www.w3.org/2000/svg" xmlns:xlink="http://www.w3.org/1999/xlink" x="0px" y="0px"
	 width="100px" height="100px" viewBox="0 0 100 100" enable-background="new 0 0 100 100" xml:space="preserve">
<g>
	<g>
		<path d="M50.878,77.688c-14.871,0-26.97-12.099-26.97-26.969s12.099-26.969,26.97-26.969c14.869,0,26.967,12.099,26.967,26.969
			S65.747,77.688,50.878,77.688z M50.878,27.696c-12.695,0-23.022,10.329-23.022,23.023c0,12.693,10.327,23.021,23.022,23.021
			c12.693,0,23.021-10.328,23.021-23.021C73.899,38.025,63.571,27.696,50.878,27.696z"/>
	</g>
	<g>
		<path d="M64.241,61.216H37.513c-1.09,0-1.973-0.884-1.973-1.973c0-1.091,0.883-1.974,1.973-1.974h26.729
			c1.09,0,1.973,0.883,1.973,1.974C66.214,60.332,65.331,61.216,64.241,61.216z"/>
	</g>
	<g>
		<g>
			<path d="M44.046,50.088h-6.533c-1.09,0-1.973-0.884-1.973-1.974c0-1.088,0.883-1.973,1.973-1.973h6.533
				c1.09,0,1.974,0.885,1.974,1.973C46.02,49.204,45.136,50.088,44.046,50.088z"/>
		</g>
		<g>
			<path d="M64.241,50.088h-6.533c-1.09,0-1.973-0.884-1.973-1.974c0-1.088,0.883-1.973,1.973-1.973h6.533
				c1.09,0,1.973,0.885,1.973,1.973C66.214,49.204,65.331,50.088,64.241,50.088z"/>
		</g>
	</g>
</g>
</svg>
