<?xml version="1.0" encoding="utf-8"?>
<!-- Generator: Adobe Illustrator 16.0.0, SVG Export Plug-In . SVG Version: 6.00 Build 0)  -->
<!DOCTYPE svg PUBLIC "-//W3C//DTD SVG 1.1//EN" "http://www.w3.org/Graphics/SVG/1.1/DTD/svg11.dtd">
<svg version="1.1" id="Layer_1" xmlns="http://www.w3.org/2000/svg" xmlns:xlink="http://www.w3.org/1999/xlink" x="0px" y="0px"
	 width="100px" height="100px" viewBox="0 0 100 100" enable-background="new 0 0 100 100" xml:space="preserve">
<g>
	<path d="M65.615,27.237c0.055-0.251,0.09-0.516,0.09-0.797v-9.768c0-1.338-0.672-2.424-1.5-2.424h-28.41
		c-0.828,0-1.5,1.086-1.5,2.424v9.768c0,0.281,0.035,0.546,0.09,0.797c0.006,0.027,0.01,0.055,0.016,0.082
		c0.059,0.243,0.143,0.463,0.244,0.66c0.01,0.019,0.013,0.042,0.022,0.06l6.73,12.406v43.298c0,1.338,0.671,2.424,1.5,2.424h14.205
		c0.829,0,1.5-1.086,1.5-2.424V40.445l6.73-12.406c0.01-0.018,0.013-0.041,0.022-0.06c0.102-0.197,0.186-0.417,0.244-0.66
		C65.605,27.292,65.609,27.264,65.615,27.237z M62.705,19.096v4.92h-25.41v-4.92H62.705z M55.975,37.934
		c-0.24,0.443-0.372,1.01-0.372,1.599v41.786H44.397V39.533c0-0.589-0.132-1.155-0.372-1.599l-4.921-9.07h21.791L55.975,37.934z"/>
	<path d="M50,47.784c-0.828,0-1.5,1.086-1.5,2.424v11.046c0,1.338,0.672,2.424,1.5,2.424s1.5-1.086,1.5-2.424V50.208
		C51.5,48.87,50.828,47.784,50,47.784z"/>
</g>
</svg>
