<?xml version="1.0" encoding="utf-8"?>
<!-- Generator: Adobe Illustrator 16.0.0, SVG Export Plug-In . SVG Version: 6.00 Build 0)  -->
<!DOCTYPE svg PUBLIC "-//W3C//DTD SVG 1.1//EN" "http://www.w3.org/Graphics/SVG/1.1/DTD/svg11.dtd">
<svg version="1.1" id="Layer_1" xmlns="http://www.w3.org/2000/svg" xmlns:xlink="http://www.w3.org/1999/xlink" x="0px" y="0px"
	 width="100px" height="100px" viewBox="0 0 100 100" enable-background="new 0 0 100 100" xml:space="preserve">
<path d="M74.356,49.233h-2.872v-8.749c0-8.939-7.273-16.212-16.212-16.212c-8.94,0-16.212,7.273-16.212,16.212v8.749h-2.872
	c-1.654,0-2.993,1.339-2.993,2.992v29.687c0,1.653,1.338,2.993,2.993,2.993h38.168c1.651,0,2.993-1.34,2.993-2.993V52.226
	C77.349,50.573,76.007,49.233,74.356,49.233z M45.044,40.484c0-5.64,4.588-10.228,10.228-10.228S65.5,34.845,65.5,40.484v8.749
	H45.044V40.484z M71.364,78.92H39.18V55.218h32.184V78.92z"/>
</svg>
