<?xml version="1.0" encoding="utf-8"?>
<!-- Generator: Adobe Illustrator 16.0.0, SVG Export Plug-In . SVG Version: 6.00 Build 0)  -->
<!DOCTYPE svg PUBLIC "-//W3C//DTD SVG 1.1//EN" "http://www.w3.org/Graphics/SVG/1.1/DTD/svg11.dtd">
<svg version="1.1" id="Layer_1" xmlns="http://www.w3.org/2000/svg" xmlns:xlink="http://www.w3.org/1999/xlink" x="0px" y="0px"
	 width="100px" height="100px" viewBox="0 0 100 100" enable-background="new 0 0 100 100" xml:space="preserve">
<path d="M78.234,37.748c-0.979-0.979-2.545-0.979-3.523,0L69,43.481v-6.855C69,35.798,68.281,36,67.452,36H27.638
	C26.81,36,26,35.798,26,36.626v39.815C26,77.27,26.81,79,27.638,79h39.814C68.281,79,69,77.27,69,76.441V50.577l9.258-9.281
	C79.238,40.316,79.214,38.729,78.234,37.748z M66,76H29V39h37v7.481L49.602,62.857L37.257,50.523c-0.979-0.979-2.575-0.979-3.554,0
	c-0.98,0.98-0.984,2.568-0.004,3.548l14.105,14.107c0.49,0.49,1.131,0.735,1.773,0.735s1.309-0.245,1.798-0.735L66,53.577V76z"/>
</svg>
