<?xml version="1.0" encoding="utf-8"?>
<!-- Generator: Adobe Illustrator 16.0.0, SVG Export Plug-In . SVG Version: 6.00 Build 0)  -->
<!DOCTYPE svg PUBLIC "-//W3C//DTD SVG 1.1//EN" "http://www.w3.org/Graphics/SVG/1.1/DTD/svg11.dtd">
<svg version="1.1" id="Layer_1" xmlns="http://www.w3.org/2000/svg" xmlns:xlink="http://www.w3.org/1999/xlink" x="0px" y="0px"
	 width="100px" height="100px" viewBox="0 0 100 100" enable-background="new 0 0 100 100" xml:space="preserve">
<g>
	<path d="M32.508,33.873h13.587v-4.674H30.17c-1.291,0-2.337,1.047-2.337,2.337v16h4.674V33.873z"/>
	<path d="M32.508,73.364V58.282h-4.674v17.419c0,1.291,1.046,2.337,2.337,2.337h15.924v-4.674H32.508z"/>
	<path d="M72,73.364H56.84v4.674h17.497c1.291,0,2.337-1.046,2.337-2.337V58.282H72V73.364z"/>
	<path d="M72,33.873v13.664h4.674v-16c0-1.291-1.046-2.337-2.337-2.337H56.84v4.674H72z"/>
</g>
</svg>
