<?xml version="1.0" encoding="utf-8"?>
<!-- Generator: Adobe Illustrator 16.0.0, SVG Export Plug-In . SVG Version: 6.00 Build 0)  -->
<!DOCTYPE svg PUBLIC "-//W3C//DTD SVG 1.1//EN" "http://www.w3.org/Graphics/SVG/1.1/DTD/svg11.dtd">
<svg version="1.1" id="Layer_1" xmlns="http://www.w3.org/2000/svg" xmlns:xlink="http://www.w3.org/1999/xlink" x="0px" y="0px"
	 width="100px" height="100px" viewBox="0 0 100 100" enable-background="new 0 0 100 100" xml:space="preserve">
<path d="M70.539,50.109l1.507-1.507l-1.507-1.507l-0.002-0.001l-5.332-5.333c-0.834-0.834-2.184-0.834-3.018,0
	c-0.832,0.833-0.832,2.183,0,3.017l1.692,1.691h-5.512c-0.261-0.112-0.548-0.178-0.85-0.178h-6.2V33.731l1.336,1.336
	c0.834,0.833,2.184,0.833,3.017,0s0.833-2.184,0-3.017l-4.976-4.977c0,0-0.002-0.001-0.004-0.003l-1.506-1.507l-1.508,1.507
	c-0.001,0.002-0.002,0.003-0.002,0.003l-5.332,5.332c-0.834,0.833-0.834,2.184,0,3.017c0.416,0.417,0.963,0.625,1.508,0.625
	c0.547,0,1.092-0.208,1.509-0.625l1.691-1.691v5.512c-0.113,0.26-0.178,0.548-0.178,0.849v6.2H34.313l1.336-1.336
	c0.833-0.834,0.833-2.184,0-3.017c-0.833-0.834-2.183-0.834-3.017,0l-4.977,4.976c-0.001,0.002-0.002,0.003-0.002,0.003
	l-1.508,1.507l1.508,1.507c0,0,0.001,0.002,0.002,0.003l5.332,5.332c0.417,0.416,0.963,0.625,1.508,0.625
	c0.547,0,1.092-0.209,1.509-0.625c0.833-0.833,0.833-2.184,0-3.017l-1.691-1.691h5.512c0.261,0.112,0.547,0.178,0.849,0.178h6.2
	v12.561l-1.336-1.336c-0.833-0.834-2.184-0.834-3.017,0c-0.834,0.833-0.834,2.183,0,3.017l4.977,4.976c0,0,0.001,0.002,0.002,0.003
	l1.508,1.507l1.506-1.507c0.002-0.001,0.002-0.003,0.002-0.003l5.333-5.332c0.833-0.833,0.833-2.183,0-3.016
	c-0.833-0.834-2.183-0.834-3.017,0l-1.691,1.691v-5.513c0.113-0.26,0.178-0.547,0.178-0.849v-6.199H63.88l-1.337,1.336
	c-0.832,0.833-0.832,2.184,0,3.017c0.418,0.416,0.963,0.625,1.509,0.625s1.092-0.209,1.509-0.625l4.976-4.977
	C70.537,50.111,70.539,50.109,70.539,50.109z"/>
</svg>
