<?xml version="1.0" encoding="utf-8"?>
<!-- Generator: Adobe Illustrator 16.0.0, SVG Export Plug-In . SVG Version: 6.00 Build 0)  -->
<!DOCTYPE svg PUBLIC "-//W3C//DTD SVG 1.1//EN" "http://www.w3.org/Graphics/SVG/1.1/DTD/svg11.dtd">
<svg version="1.1" id="Layer_1" xmlns="http://www.w3.org/2000/svg" xmlns:xlink="http://www.w3.org/1999/xlink" x="0px" y="0px"
	 width="100px" height="100px" viewBox="0 0 100 100" enable-background="new 0 0 100 100" xml:space="preserve">
<path d="M64.407,28.843c-4.004,0-7.868,1.374-10.972,3.84c-3.104-2.466-6.968-3.84-10.971-3.84c-9.74,0-17.665,7.923-17.665,17.663
	c0,4.072,3.574,11.193,8.313,16.565c7.83,8.882,18.661,16.417,19.117,16.732c0.514,0.355,1.108,0.532,1.703,0.532
	c0.646,0,1.292-0.209,1.829-0.624c0.43-0.333,10.637-8.25,18.164-17.189c3.922-4.655,8.143-11.653,8.143-16.016
	C82.069,36.766,74.146,28.843,64.407,28.843z M69.35,58.667c-5.331,6.33-12.313,12.298-15.511,14.916
	c-3.351-2.479-10.705-8.196-16.236-14.47c-4.538-5.146-6.817-10.856-6.817-12.607c0-6.439,5.239-11.678,11.68-11.678
	c3.325,0,6.507,1.439,8.731,3.948c1.137,1.28,3.343,1.28,4.479,0c2.224-2.509,5.405-3.948,8.731-3.948
	c6.44,0,11.678,5.239,11.678,11.678C76.085,48.208,73.688,53.519,69.35,58.667z"/>
</svg>
