<?xml version="1.0" encoding="utf-8"?>
<!-- Generator: Adobe Illustrator 16.0.0, SVG Export Plug-In . SVG Version: 6.00 Build 0)  -->
<!DOCTYPE svg PUBLIC "-//W3C//DTD SVG 1.1//EN" "http://www.w3.org/Graphics/SVG/1.1/DTD/svg11.dtd">
<svg version="1.1" id="Layer_1" xmlns="http://www.w3.org/2000/svg" xmlns:xlink="http://www.w3.org/1999/xlink" x="0px" y="0px"
	 width="100px" height="100px" viewBox="0 0 100 100" enable-background="new 0 0 100 100" xml:space="preserve">
<g>
	<path d="M63.112,59.25H38.505V46.895l2.707,2.905c0.42,0.451,0.99,0.68,1.561,0.68c0.52,0,1.043-0.189,1.453-0.572
		c0.863-0.803,0.91-2.153,0.107-3.016l-6.4-6.873c-0.023-0.025-0.055-0.033-0.08-0.059c-0.156-0.152-0.334-0.283-0.535-0.383
		c-0.031-0.017-0.059-0.044-0.092-0.058c-0.006-0.003-0.01-0.007-0.014-0.008c-0.225-0.095-0.457-0.139-0.689-0.156
		c-0.08-0.005-0.154,0.005-0.232,0.009c-0.174,0.007-0.34,0.032-0.506,0.079c-0.08,0.023-0.156,0.046-0.232,0.078
		c-0.213,0.089-0.414,0.207-0.594,0.365c-0.012,0.011-0.027,0.014-0.039,0.024c-0.002,0.002-0.002,0.005-0.006,0.007
		c-0.004,0.005-0.01,0.006-0.014,0.01l-7.109,6.779c-0.854,0.813-0.885,2.164-0.072,3.017c0.814,0.852,2.164,0.884,3.016,0.072
		l3.506-3.343v14.93c0,1.178,0.955,2.133,2.133,2.133h26.74c1.178,0,2.133-0.955,2.133-2.133S64.29,59.25,63.112,59.25z"/>
	<path d="M68.751,45.109l-3.506,3.343v-14.93c0-1.178-0.955-2.133-2.133-2.133h-26.74c-1.178,0-2.133,0.955-2.133,2.133
		s0.955,2.133,2.133,2.133h24.607V48.01l-2.705-2.905c-0.803-0.862-2.154-0.913-3.016-0.107c-0.861,0.803-0.91,2.153-0.107,3.016
		l6.4,6.873c0.039,0.043,0.086,0.073,0.129,0.112c0.039,0.036,0.076,0.07,0.117,0.104c0.346,0.271,0.754,0.422,1.176,0.449
		c0.045,0.003,0.092,0.015,0.139,0.015l0,0l0,0c0.264,0,0.527-0.051,0.777-0.147c0.109-0.045,0.201-0.131,0.305-0.191
		c0.125-0.075,0.26-0.13,0.371-0.233c0.004-0.003,0.004-0.006,0.006-0.009c0.004-0.004,0.01-0.006,0.014-0.008l7.109-6.779
		c0.854-0.813,0.885-2.164,0.072-3.017C70.954,44.33,69.604,44.299,68.751,45.109z"/>
</g>
</svg>
