<?xml version="1.0" encoding="utf-8"?>
<!-- Generator: Adobe Illustrator 16.0.0, SVG Export Plug-In . SVG Version: 6.00 Build 0)  -->
<!DOCTYPE svg PUBLIC "-//W3C//DTD SVG 1.1//EN" "http://www.w3.org/Graphics/SVG/1.1/DTD/svg11.dtd">
<svg version="1.1" id="Layer_1" xmlns="http://www.w3.org/2000/svg" xmlns:xlink="http://www.w3.org/1999/xlink" x="0px" y="0px"
	 width="100px" height="100px" viewBox="0 0 100 100" enable-background="new 0 0 100 100" xml:space="preserve">
<path d="M72.916,53.267l0.021-0.034l-2.483-2.68V26.189H30.808v24.31h-0.114l-2.151,2.449l-0.584,0.672l0.051,0.05
	c-0.727,1.12-1.12,2.433-1.12,3.772v11.83c0,3.827,3.116,6.941,6.945,6.941H67.38c3.828,0,6.943-3.114,6.943-6.941v-11.83
	C74.323,55.927,73.828,54.468,72.916,53.267z M35.274,30.656h30.712v4.095H35.274V30.656z M35.274,39.218h30.712v3.165H35.274
	V39.218z M35.274,46.85h30.712v2.979H35.274V46.85z M55.628,54.296c-0.106,1.894-2.048,2.196-3.228,2.196h-3.589
	c-1.181,0-3.121-0.303-3.228-2.196H55.628z M70.625,69.272c0,1.789-1.456,3.244-3.245,3.244H33.834
	c-1.791,0-3.248-1.455-3.248-3.244v-11.83c0-1.527,1.063-2.803,2.486-3.146h8.801c0.078,3.531,2.843,5.894,6.938,5.894H52.4
	c4.095,0,6.86-2.362,6.938-5.894h8.798c0.561,0.135,1.08,0.408,1.504,0.819l0.034,0.034c0.613,0.613,0.95,1.429,0.95,2.293V69.272z"
	/>
</svg>
