<?xml version="1.0" encoding="utf-8"?>
<!-- Generator: Adobe Illustrator 16.0.0, SVG Export Plug-In . SVG Version: 6.00 Build 0)  -->
<!DOCTYPE svg PUBLIC "-//W3C//DTD SVG 1.1//EN" "http://www.w3.org/Graphics/SVG/1.1/DTD/svg11.dtd">
<svg version="1.1" id="Layer_1" xmlns="http://www.w3.org/2000/svg" xmlns:xlink="http://www.w3.org/1999/xlink" x="0px" y="0px"
	 width="100px" height="100px" viewBox="0 0 100 100" enable-background="new 0 0 100 100" xml:space="preserve">
<g>
	<path d="M71.759,31.757H32.107c-2.377,0-4.311,1.933-4.311,4.311v24.874c0,2.378,1.934,4.311,4.311,4.311h7.273
		c-0.488,1.097-0.492,2.366,0.064,3.463c0.689,1.354,2.08,2.21,3.6,2.21H60.82c1.52,0,2.91-0.855,3.6-2.21
		c0.294-0.579,0.438-1.203,0.438-1.829c0-0.56-0.125-1.115-0.355-1.634h7.257c2.378,0,4.312-1.933,4.312-4.311V36.068
		C76.07,33.69,74.137,31.757,71.759,31.757z M71.638,60.82H61.4l-6.203-8.517c-0.759-1.04-1.974-1.657-3.266-1.657
		c-1.291,0-2.505,0.617-3.266,1.657l-6.201,8.517H32.229V36.19h39.408V60.82z"/>
</g>
</svg>
