<?xml version="1.0" encoding="utf-8"?>
<!-- Generator: Adobe Illustrator 16.0.0, SVG Export Plug-In . SVG Version: 6.00 Build 0)  -->
<!DOCTYPE svg PUBLIC "-//W3C//DTD SVG 1.1//EN" "http://www.w3.org/Graphics/SVG/1.1/DTD/svg11.dtd">
<svg version="1.1" id="Layer_1" xmlns="http://www.w3.org/2000/svg" xmlns:xlink="http://www.w3.org/1999/xlink" x="0px" y="0px"
	 width="100px" height="100px" viewBox="0 0 100 100" enable-background="new 0 0 100 100" xml:space="preserve">
<g>
	<path d="M48.597,31.89h-0.56c1.701-1.98,2.737-4.544,2.737-7.351c0-6.229-5.068-11.297-11.296-11.297S28.182,18.31,28.182,24.539
		c0,2.807,1.036,5.37,2.735,7.351h-0.559c-3.145,0-5.702,2.556-5.702,5.702v18.736c0,3.146,2.558,5.702,5.702,5.702h0.217v20.495
		c0,3.251,1.713,5.702,3.984,5.702h9.835c2.272,0,3.984-2.451,3.984-5.702V62.03h0.218c3.145,0,5.703-2.557,5.703-5.702V37.592
		C54.3,34.445,51.742,31.89,48.597,31.89z M39.478,17.188c4.052,0,7.349,3.297,7.349,7.352c0,4.054-3.297,7.351-7.349,7.351
		c-4.053,0-7.349-3.297-7.349-7.351C32.129,20.484,35.425,17.188,39.478,17.188z M50.354,56.328c0,0.969-0.788,1.756-1.756,1.756
		h-2.191c-1.09,0-1.974,0.885-1.974,1.975v22.467c0,0.883-0.227,1.487-0.383,1.756h-9.143c-0.156-0.269-0.384-0.873-0.384-1.756
		V60.059c0-1.09-0.883-1.975-1.973-1.975h-2.191c-0.968,0-1.756-0.787-1.756-1.756V37.592c0-0.969,0.788-1.757,1.756-1.757h18.239
		c0.968,0,1.756,0.788,1.756,1.757V56.328z"/>
	<path d="M81.672,31.89h-0.56c1.701-1.98,2.736-4.544,2.736-7.351c0-6.229-5.067-11.297-11.296-11.297
		c-6.228,0-11.295,5.067-11.295,11.297c0,2.807,1.036,5.37,2.736,7.351h-0.56c-3.145,0-5.702,2.556-5.702,5.702v18.736
		c0,3.146,2.557,5.702,5.702,5.702h0.218v20.495c0,3.251,1.711,5.702,3.983,5.702h9.836c2.271,0,3.984-2.451,3.984-5.702V62.03
		h0.218c3.144,0,5.702-2.557,5.702-5.702V37.592C87.374,34.445,84.816,31.89,81.672,31.89z M72.552,17.188
		c4.053,0,7.349,3.297,7.349,7.352c0,4.054-3.296,7.351-7.349,7.351c-4.052,0-7.348-3.297-7.348-7.351
		C65.204,20.484,68.5,17.188,72.552,17.188z M83.427,56.328c0,0.969-0.788,1.756-1.755,1.756H79.48c-1.09,0-1.973,0.885-1.973,1.975
		v22.467c0,0.883-0.227,1.487-0.383,1.756h-9.145c-0.155-0.269-0.382-0.873-0.382-1.756V60.059c0-1.09-0.883-1.975-1.974-1.975
		h-2.191c-0.968,0-1.756-0.787-1.756-1.756V37.592c0-0.969,0.788-1.757,1.756-1.757h18.239c0.968,0,1.755,0.788,1.755,1.757V56.328z
		"/>
</g>
</svg>
