<?xml version="1.0" encoding="utf-8"?>
<!-- Generator: Adobe Illustrator 16.0.0, SVG Export Plug-In . SVG Version: 6.00 Build 0)  -->
<!DOCTYPE svg PUBLIC "-//W3C//DTD SVG 1.1//EN" "http://www.w3.org/Graphics/SVG/1.1/DTD/svg11.dtd">
<svg version="1.1" id="Layer_1" xmlns="http://www.w3.org/2000/svg" xmlns:xlink="http://www.w3.org/1999/xlink" x="0px" y="0px"
	 width="100px" height="100px" viewBox="0 0 100 100" enable-background="new 0 0 100 100" xml:space="preserve">
<path d="M80.646,51.249c0-4.206-2.649-7.799-6.364-9.223c1.62-3.634,0.953-8.046-2.021-11.021c-1.866-1.867-4.349-2.896-6.99-2.896
	c-1.415,0-2.781,0.304-4.037,0.866c-1.424-3.709-5.015-6.355-9.221-6.355c-4.207,0-7.797,2.646-9.221,6.357
	c-1.255-0.562-2.62-0.866-4.036-0.866c-2.639,0-5.121,1.027-6.988,2.894c-2.975,2.973-3.642,7.387-2.022,11.021
	c-3.714,1.424-6.363,5.017-6.363,9.223c0.001,4.208,2.65,7.802,6.364,9.225c-1.619,3.632-0.951,8.046,2.023,11.021
	c1.866,1.866,4.348,2.894,6.988,2.894c1.415,0,2.78-0.305,4.034-0.864c1.424,3.709,5.015,6.355,9.221,6.355
	c4.207,0,7.797-2.646,9.222-6.357c1.253,0.562,2.619,0.866,4.035,0.866c2.639,0,5.121-1.027,6.988-2.894
	c2.976-2.976,3.643-7.39,2.021-11.023C77.994,59.048,80.644,55.456,80.646,51.249z M60.913,48.829
	c-0.516-0.082-1.039-0.135-1.57-0.135c-0.49,0-0.972,0.047-1.448,0.117c0.828-0.617,1.557-1.357,2.158-2.197
	c0.703-0.354,1.486-0.572,2.326-0.572h2.212l-1.564,1.563C62.431,48.2,61.694,48.593,60.913,48.829z M63.025,54.896l1.563,1.563
	h-2.209c-0.84,0-1.624-0.219-2.327-0.573c-0.6-0.84-1.328-1.579-2.156-2.196c0.477,0.07,0.957,0.117,1.447,0.117
	c0.56,0,1.11-0.056,1.651-0.146C61.749,53.913,62.446,54.317,63.025,54.896z M57.223,61.613v2.212l-1.563-1.563
	c-0.593-0.594-0.991-1.3-1.238-2.047c0.17-1.024,0.178-2.067,0.026-3.097c0.617,0.833,1.359,1.564,2.202,2.169
	C57.004,59.989,57.223,60.773,57.223,61.613z M43.032,53.659c0.542,0.091,1.093,0.146,1.654,0.146c0.489,0,0.97-0.047,1.445-0.117
	c-0.829,0.618-1.557,1.357-2.158,2.197c-0.702,0.355-1.483,0.572-2.322,0.572h-2.214l1.564-1.564
	C41.581,54.315,42.279,53.911,43.032,53.659z M41.003,47.604l-1.566-1.566h2.214c0.838,0,1.619,0.218,2.321,0.571
	c0.602,0.843,1.332,1.584,2.161,2.202c-0.476-0.07-0.957-0.117-1.447-0.117c-0.531,0-1.054,0.053-1.569,0.135
	C42.335,48.593,41.599,48.2,41.003,47.604z M46.806,40.887v-2.212l1.563,1.564c0.591,0.592,0.99,1.296,1.236,2.04
	c-0.09,0.539-0.145,1.086-0.145,1.643c0,0.49,0.047,0.972,0.117,1.448c-0.618-0.831-1.359-1.562-2.202-2.163
	C47.023,42.504,46.806,41.724,46.806,40.887z M51.812,51.739c-0.047-0.048-0.087-0.102-0.135-0.148
	c-0.049-0.049-0.104-0.092-0.153-0.139c0-0.068,0.01-0.135,0.01-0.203c0-0.069-0.009-0.135-0.01-0.203
	c0.049-0.047,0.102-0.088,0.15-0.137c0.048-0.049,0.089-0.102,0.136-0.15c0.068,0.001,0.134,0.01,0.204,0.01s0.135-0.009,0.205-0.01
	c0.047,0.049,0.088,0.102,0.136,0.15c0.049,0.049,0.102,0.09,0.151,0.137c-0.001,0.068-0.01,0.134-0.01,0.203
	c0,0.068,0.009,0.135,0.01,0.203c-0.049,0.049-0.104,0.09-0.152,0.139c-0.048,0.047-0.088,0.101-0.135,0.148
	c-0.069-0.001-0.136-0.01-0.206-0.01C51.946,51.729,51.879,51.738,51.812,51.739z M57.223,40.887c0,0.838-0.218,1.62-0.572,2.323
	c-0.844,0.603-1.587,1.336-2.205,2.168c0.152-1.025,0.145-2.069-0.026-3.094c0.252-0.759,0.658-1.463,1.242-2.046l1.561-1.561
	V40.887z M46.806,61.613c0-0.84,0.219-1.622,0.572-2.323c0.845-0.604,1.587-1.338,2.205-2.17c-0.152,1.027-0.145,2.07,0.025,3.095
	c-0.246,0.747-0.644,1.453-1.237,2.047l-1.566,1.565V61.613z M68.956,34.311c1.932,1.932,2.001,5.009,0.254,7.054l-6.837,0.003
	c-0.169,0-0.334,0.017-0.501,0.026c0.009-0.17,0.026-0.337,0.026-0.507v-6.832c0.943-0.81,2.119-1.271,3.375-1.271
	C66.664,32.784,67.973,33.326,68.956,34.311z M52.014,27.294c2.736,0,4.96,2.127,5.168,4.81l-4.826,4.83
	c-0.121,0.12-0.228,0.251-0.342,0.376c-0.113-0.125-0.219-0.254-0.34-0.376l-4.828-4.828C47.053,29.423,49.278,27.294,52.014,27.294
	z M35.074,34.311c0.984-0.983,2.292-1.525,3.683-1.525c1.256,0,2.432,0.461,3.375,1.271v6.831c0,0.17,0.017,0.335,0.026,0.503
	c-0.169-0.009-0.335-0.025-0.506-0.025h-6.833C33.071,39.319,33.142,36.243,35.074,34.311z M28.059,51.249
	c0-2.734,2.126-4.959,4.808-5.17l4.832,4.83c0.12,0.12,0.25,0.227,0.375,0.34c-0.125,0.113-0.255,0.22-0.375,0.34l-4.829,4.83
	C30.186,56.21,28.06,53.984,28.059,51.249z M35.078,68.189c-1.934-1.936-2.004-5.012-0.255-7.057h6.83
	c0.17,0,0.336-0.017,0.505-0.026c-0.009,0.169-0.026,0.336-0.026,0.507v6.825C40.131,70.128,36.948,70.058,35.078,68.189z
	 M52.014,75.206c-2.736,0-4.96-2.128-5.168-4.811l4.831-4.829c0.12-0.12,0.226-0.249,0.338-0.374
	c0.113,0.125,0.219,0.254,0.339,0.374l4.828,4.828C56.976,73.077,54.75,75.206,52.014,75.206z M68.954,68.189
	c-1.874,1.872-5.058,1.938-7.057,0.249v-6.825c0-0.171-0.017-0.338-0.026-0.507c0.169,0.01,0.337,0.026,0.508,0.026h6.827
	C70.956,63.178,70.888,66.256,68.954,68.189z M71.159,56.417l-4.828-4.826c-0.12-0.12-0.25-0.227-0.375-0.34
	c0.125-0.113,0.256-0.222,0.376-0.342l4.831-4.83c2.682,0.212,4.808,2.437,4.808,5.168C75.971,53.981,73.843,56.209,71.159,56.417z"
	/>
</svg>
