<?xml version="1.0" encoding="utf-8"?>
<!-- Generator: Adobe Illustrator 16.0.0, SVG Export Plug-In . SVG Version: 6.00 Build 0)  -->
<!DOCTYPE svg PUBLIC "-//W3C//DTD SVG 1.1//EN" "http://www.w3.org/Graphics/SVG/1.1/DTD/svg11.dtd">
<svg version="1.1" id="Layer_1" xmlns="http://www.w3.org/2000/svg" xmlns:xlink="http://www.w3.org/1999/xlink" x="0px" y="0px"
	 width="100px" height="100px" viewBox="0 0 100 100" enable-background="new 0 0 100 100" xml:space="preserve">
<path d="M68.714,32.193c-1.078-1.165-2.26-2.227-3.535-3.175C60.931,25.86,55.688,23.966,50,23.966
	c-6.351,0-12.153,2.346-16.625,6.198c-1.197,1.031-2.299,2.166-3.288,3.398c-3.504,4.372-5.613,9.905-5.613,15.931
	c0,6.023,2.109,11.558,5.612,15.929c0.988,1.232,2.091,2.369,3.289,3.399C37.847,72.674,43.649,75.02,50,75.02
	c6.838,0,13.044-2.719,17.632-7.113c1.143-1.095,2.179-2.295,3.104-3.585c3.001-4.185,4.79-9.297,4.79-14.828
	C75.525,42.815,72.927,36.747,68.714,32.193z M29.209,49.493c0-4.665,1.563-8.961,4.167-12.435c1.043,1.392,1.91,2.919,2.584,4.546
	l-1.862,0.78l1.099,2.622l1.677-0.703c0.317,1.216,0.52,2.476,0.608,3.767h-2.835v2.845h2.835c-0.094,1.354-0.317,2.669-0.661,3.938
	l-1.625-0.681l-1.099,2.622l1.796,0.753c-0.665,1.564-1.512,3.033-2.519,4.376C30.771,58.452,29.209,54.156,29.209,49.493z
	 M50,70.281c-5.074,0-9.723-1.831-13.336-4.859c1.463-1.827,2.665-3.864,3.59-6.046l2.613,1.095l1.1-2.623l-2.751-1.152
	c0.548-1.85,0.888-3.783,1-5.78h2.269V48.07h-2.269c-0.108-1.936-0.427-3.813-0.945-5.607l2.697-1.131l-1.1-2.622l-2.545,1.066
	c-0.933-2.245-2.158-4.342-3.659-6.214c3.613-3.028,8.264-4.86,13.337-4.86c4.505,0,8.668,1.455,12.076,3.899
	c-1.483,2.068-2.667,4.364-3.488,6.822l-1.703-0.714l-1.099,2.622l2.064,0.865c-0.357,1.69-0.564,3.438-0.564,5.234
	c0,0.249,0.028,0.489,0.036,0.736h-2.823v2.844h3.069c0.279,1.956,0.763,3.845,1.462,5.632l-2.642,1.107l1.099,2.622l2.726-1.142
	c1.055,2,2.358,3.852,3.882,5.5C60.386,68.163,55.441,70.281,50,70.281z M67.216,61.134c-1.005-1.142-1.871-2.403-2.61-3.744
	l1.65-0.691l-1.099-2.622l-1.769,0.741c-0.467-1.218-0.815-2.491-1.046-3.806h1.993v-2.844h-2.28
	c-0.009-0.246-0.035-0.487-0.035-0.736c0-1.147,0.1-2.271,0.28-3.369l2.255,0.944l1.1-2.622l-2.696-1.131
	c0.612-1.961,1.506-3.8,2.636-5.466c3.224,3.663,5.196,8.452,5.196,13.705C70.791,53.804,69.471,57.811,67.216,61.134z"/>
</svg>
