<?xml version="1.0" encoding="utf-8"?>
<!-- Generator: Adobe Illustrator 16.0.0, SVG Export Plug-In . SVG Version: 6.00 Build 0)  -->
<!DOCTYPE svg PUBLIC "-//W3C//DTD SVG 1.1//EN" "http://www.w3.org/Graphics/SVG/1.1/DTD/svg11.dtd">
<svg version="1.1" id="Layer_1" xmlns="http://www.w3.org/2000/svg" xmlns:xlink="http://www.w3.org/1999/xlink" x="0px" y="0px"
	 width="100px" height="100px" viewBox="0 0 100 100" enable-background="new 0 0 100 100" xml:space="preserve">
<g>
	<path d="M60.627,50.239c-0.95-0.795-2.366-0.672-3.162,0.277l-1.49,1.775V24.527c0-1.239-1.004-2.244-2.244-2.244
		s-2.244,1.005-2.244,2.244v27.765l-1.489-1.775c-0.796-0.948-2.21-1.074-3.162-0.277c-0.949,0.798-1.073,2.213-0.276,3.162
		l5.453,6.498c0.018,0.021,0.041,0.036,0.06,0.057c0.066,0.073,0.138,0.141,0.213,0.203c0.044,0.038,0.086,0.076,0.132,0.11
		c0.083,0.06,0.171,0.111,0.263,0.159c0.045,0.025,0.088,0.052,0.135,0.074c0.105,0.047,0.216,0.081,0.328,0.111
		c0.039,0.01,0.075,0.026,0.115,0.035c0.153,0.033,0.311,0.052,0.473,0.052c0.163,0,0.321-0.019,0.474-0.052
		c0.039-0.009,0.076-0.025,0.115-0.035c0.112-0.031,0.223-0.064,0.328-0.111c0.047-0.022,0.09-0.049,0.135-0.074
		c0.091-0.048,0.18-0.1,0.263-0.159c0.046-0.034,0.088-0.072,0.132-0.11c0.075-0.063,0.146-0.13,0.212-0.203
		c0.019-0.021,0.042-0.035,0.06-0.057l5.453-6.498C61.701,52.452,61.577,51.037,60.627,50.239z"/>
	<g>
		<path d="M69.565,75.404H37.899c-2.407,0-4.365-1.958-4.365-4.364V39.373c0-2.406,1.958-4.364,4.365-4.364h8.135
			c1.239,0,2.244,1.005,2.244,2.244c0,1.239-1.005,2.245-2.244,2.245h-8.012v31.418h31.419V39.497h-7.831
			c-1.24,0-2.244-1.005-2.244-2.245c0-1.239,1.004-2.244,2.244-2.244h7.954c2.407,0,4.365,1.958,4.365,4.364V71.04
			C73.93,73.446,71.972,75.404,69.565,75.404z"/>
	</g>
</g>
</svg>
