<?xml version="1.0" encoding="utf-8"?>
<!-- Generator: Adobe Illustrator 16.0.0, SVG Export Plug-In . SVG Version: 6.00 Build 0)  -->
<!DOCTYPE svg PUBLIC "-//W3C//DTD SVG 1.1//EN" "http://www.w3.org/Graphics/SVG/1.1/DTD/svg11.dtd">
<svg version="1.1" id="Layer_1" xmlns="http://www.w3.org/2000/svg" xmlns:xlink="http://www.w3.org/1999/xlink" x="0px" y="0px"
	 width="100px" height="100px" viewBox="0 0 100 100" enable-background="new 0 0 100 100" xml:space="preserve">
<g>
	<g>
		<path d="M50.293,77.688c-14.871,0-26.97-12.099-26.97-26.97c0-14.869,12.099-26.967,26.97-26.967
			c14.869,0,26.968,12.098,26.968,26.967C77.261,65.589,65.162,77.688,50.293,77.688z M50.293,27.696
			c-12.695,0-23.023,10.327-23.023,23.021c0,12.693,10.328,23.022,23.023,23.022c12.693,0,23.021-10.329,23.021-23.022
			C73.314,38.023,62.986,27.696,50.293,27.696z"/>
	</g>
	<g>
		<path d="M50.293,69.681c-8.422,0-15.717-5.412-18.152-13.463c-0.316-1.043,0.272-2.145,1.316-2.461
			c1.045-0.322,2.145,0.273,2.459,1.317c1.899,6.277,7.813,10.659,14.377,10.659c6.611,0,12.535-4.423,14.402-10.759
			c0.309-1.046,1.404-1.646,2.451-1.335c1.046,0.31,1.643,1.405,1.336,2.451C66.122,64.092,58.643,69.681,50.293,69.681z"/>
	</g>
	<g>
		<g>
			<circle cx="44.194" cy="48.113" r="2.604"/>
		</g>
		<g>
			<circle cx="56.39" cy="48.113" r="2.604"/>
		</g>
	</g>
	<g>
		<rect x="48.336" y="39.308" transform="matrix(0.0037 1 -1 0.0037 105.7103 5.0742)" width="3.945" height="32.562"/>
	</g>
</g>
</svg>
