<?xml version="1.0" encoding="utf-8"?>
<!-- Generator: Adobe Illustrator 16.0.0, SVG Export Plug-In . SVG Version: 6.00 Build 0)  -->
<!DOCTYPE svg PUBLIC "-//W3C//DTD SVG 1.1//EN" "http://www.w3.org/Graphics/SVG/1.1/DTD/svg11.dtd">
<svg version="1.1" id="Layer_1" xmlns="http://www.w3.org/2000/svg" xmlns:xlink="http://www.w3.org/1999/xlink" x="0px" y="0px"
	 width="100px" height="100px" viewBox="0 0 100 100" enable-background="new 0 0 100 100" xml:space="preserve">
<g>
	<path d="M54.672,25.656c-15.419,0-27.965,12.547-27.965,27.966c0,15.42,12.546,27.967,27.965,27.967
		c15.42,0,27.965-12.547,27.965-27.967C82.637,38.203,70.092,25.656,54.672,25.656z M54.672,76.397
		c-12.561,0-22.777-10.216-22.777-22.775c0-12.562,10.217-22.777,22.777-22.777S77.45,41.061,77.45,53.622
		C77.45,66.182,67.232,76.397,54.672,76.397z"/>
	<path d="M54.726,31.906c-0.86,0-1.558,0.697-1.558,1.559V59.66c0,0.861,0.697,1.558,1.558,1.558s1.558-0.696,1.558-1.558V33.465
		C56.283,32.604,55.586,31.906,54.726,31.906z"/>
	<path d="M43.114,38.304c-0.608-0.609-1.595-0.609-2.203,0c-0.608,0.608-0.608,1.594,0,2.203l3.798,3.798
		c0.305,0.304,0.703,0.456,1.102,0.456s0.797-0.152,1.102-0.456c0.609-0.609,0.609-1.595,0-2.204L43.114,38.304z"/>
	<path d="M43.522,52.064h-7.401c-0.86,0-1.558,0.696-1.558,1.558s0.697,1.559,1.558,1.559h7.401c0.86,0,1.558-0.697,1.558-1.559
		S44.383,52.064,43.522,52.064z"/>
	<path d="M37.207,47.22l4.285,1.363c0.157,0.05,0.316,0.073,0.473,0.073c0.66,0,1.273-0.423,1.484-1.087
		c0.261-0.818-0.192-1.695-1.013-1.957l-4.284-1.363c-0.821-0.262-1.696,0.192-1.958,1.014
		C35.934,46.081,36.387,46.958,37.207,47.22z"/>
	<path d="M49.104,34.618c-0.385-0.771-1.32-1.079-2.091-0.697c-0.771,0.385-1.082,1.321-0.696,2.091l2.045,4.09
		c0.272,0.546,0.822,0.861,1.395,0.861c0.234,0,0.473-0.054,0.695-0.164c0.771-0.386,1.082-1.321,0.697-2.091L49.104,34.618z"/>
	<path d="M68.434,40.896c0.608-0.608,0.608-1.594,0-2.203c-0.609-0.608-1.595-0.608-2.203,0l-3.798,3.798
		c-0.608,0.609-0.608,1.595,0,2.204c0.304,0.304,0.702,0.456,1.102,0.456c0.398,0,0.797-0.152,1.102-0.456L68.434,40.896z"/>
	<path d="M73.223,52.454h-7.4c-0.86,0-1.559,0.696-1.559,1.558s0.698,1.559,1.559,1.559h7.4c0.861,0,1.559-0.697,1.559-1.559
		S74.084,52.454,73.223,52.454z"/>
	<path d="M65.896,47.959c0.212,0.663,0.823,1.087,1.484,1.087c0.157,0,0.315-0.023,0.474-0.073l4.284-1.363
		c0.82-0.262,1.273-1.139,1.013-1.957c-0.262-0.82-1.139-1.275-1.957-1.014l-4.285,1.363C66.088,46.264,65.635,47.141,65.896,47.959
		z"/>
	<path d="M62.332,34.311c-0.771-0.384-1.707-0.071-2.091,0.697l-2.045,4.09c-0.385,0.77-0.073,1.705,0.696,2.091
		c0.225,0.11,0.463,0.164,0.695,0.164c0.572,0,1.123-0.315,1.396-0.861l2.045-4.09C63.414,35.632,63.102,34.695,62.332,34.311z"/>
</g>
</svg>
