<?xml version="1.0" encoding="utf-8"?>
<!-- Generator: Adobe Illustrator 16.0.0, SVG Export Plug-In . SVG Version: 6.00 Build 0)  -->
<!DOCTYPE svg PUBLIC "-//W3C//DTD SVG 1.1//EN" "http://www.w3.org/Graphics/SVG/1.1/DTD/svg11.dtd">
<svg version="1.1" id="Layer_1" xmlns="http://www.w3.org/2000/svg" xmlns:xlink="http://www.w3.org/1999/xlink" x="0px" y="0px"
	 width="100px" height="100px" viewBox="0 0 100 100" enable-background="new 0 0 100 100" xml:space="preserve">
<path d="M51.456,34.211c-8.618,0-17.777,3.127-17.777,8.921v9.394l-1.334-1.334c-0.833-0.834-2.184-0.834-3.017,0
	c-0.833,0.833-0.833,2.183,0,3.017l4.968,4.968c0.006,0.005,0.012,0.012,0.017,0.018l1.501,1.5l6.841-6.842
	c0.833-0.833,0.833-2.183,0-3.016c-0.833-0.834-2.183-0.834-3.017,0l-1.693,1.692v-9.396c0-1.853,5.389-4.654,13.511-4.654
	c8.742,0,13.51,3.075,13.51,4.654v14.545c0,1.178,0.955,2.134,2.133,2.134c1.179,0,2.133-0.956,2.133-2.134V43.132
	C69.233,37.338,60.074,34.211,51.456,34.211z"/>
</svg>
