<?xml version="1.0" encoding="utf-8"?>
<!-- Generator: Adobe Illustrator 16.0.0, SVG Export Plug-In . SVG Version: 6.00 Build 0)  -->
<!DOCTYPE svg PUBLIC "-//W3C//DTD SVG 1.1//EN" "http://www.w3.org/Graphics/SVG/1.1/DTD/svg11.dtd">
<svg version="1.1" id="Layer_1" xmlns="http://www.w3.org/2000/svg" xmlns:xlink="http://www.w3.org/1999/xlink" x="0px" y="0px"
	 width="100px" height="100px" viewBox="0 0 100 100" enable-background="new 0 0 100 100" xml:space="preserve">
<g>
	<path d="M50.785,28.062c-12.639,0-22.92,10.282-22.92,22.918c0,12.639,10.281,22.92,22.92,22.92
		c12.637,0,22.918-10.282,22.918-22.92C73.703,38.343,63.422,28.062,50.785,28.062z M50.785,69.647
		c-10.295,0-18.669-8.374-18.669-18.667c0-10.294,8.374-18.667,18.669-18.667c10.293,0,18.666,8.374,18.666,18.667
		C69.451,61.273,61.078,69.647,50.785,69.647z"/>
	<path stroke="#000000" stroke-miterlimit="10" d="M47.063,44.084c-0.258-0.161-0.54-0.242-0.82-0.242
		c-0.375,0-0.75,0.144-1.066,0.425l-4.018,3.607c-0.221-0.129-0.477-0.209-0.751-0.209h-3.476c-0.818,0-1.483,0.662-1.483,1.483
		v3.476c0,0.819,0.665,1.484,1.483,1.484h3.476c0.222,0,0.431-0.053,0.619-0.139l4.149,3.721c0.551,0.496,1.279,0.566,1.887,0.185
		c0.607-0.378,0.989-1.146,0.989-1.986v-9.817C48.052,45.234,47.67,44.467,47.063,44.084z"/>
	<g>
		<path d="M56.472,58.227c-0.327,0-0.653-0.125-0.903-0.374c-0.498-0.499-0.498-1.307,0-1.806c2.794-2.793,2.793-7.339,0-10.132
			c-0.499-0.499-0.499-1.307,0-1.806c0.498-0.499,1.307-0.499,1.806,0c3.79,3.79,3.79,9.955,0.001,13.743
			C57.125,58.102,56.799,58.227,56.472,58.227z"/>
	</g>
	<g>
		<path d="M52.641,55.532c-0.327,0-0.654-0.125-0.903-0.374c-0.499-0.499-0.499-1.307,0-1.806c0.634-0.633,0.983-1.475,0.983-2.372
			c0-0.895-0.35-1.738-0.983-2.372c-0.499-0.499-0.499-1.307,0-1.806c0.499-0.499,1.308-0.499,1.806,0
			c1.116,1.116,1.73,2.6,1.73,4.177c0,1.579-0.614,3.062-1.73,4.178C53.294,55.407,52.967,55.532,52.641,55.532z"/>
	</g>
	<g>
		<path d="M60.303,61.742c-0.326,0-0.652-0.125-0.902-0.374c-0.499-0.499-0.499-1.307,0-1.806c2.292-2.292,3.554-5.338,3.554-8.581
			s-1.263-6.29-3.556-8.582c-0.498-0.499-0.498-1.307,0-1.806c0.5-0.499,1.308-0.499,1.807,0c2.775,2.775,4.303,6.463,4.303,10.388
			s-1.527,7.613-4.302,10.386C60.957,61.617,60.63,61.742,60.303,61.742z"/>
	</g>
</g>
</svg>
