<?xml version="1.0" encoding="utf-8"?>
<!-- Generator: Adobe Illustrator 16.0.0, SVG Export Plug-In . SVG Version: 6.00 Build 0)  -->
<!DOCTYPE svg PUBLIC "-//W3C//DTD SVG 1.1//EN" "http://www.w3.org/Graphics/SVG/1.1/DTD/svg11.dtd">
<svg version="1.1" id="Layer_1" xmlns="http://www.w3.org/2000/svg" xmlns:xlink="http://www.w3.org/1999/xlink" x="0px" y="0px"
	 width="100px" height="100px" viewBox="0 0 100 100" enable-background="new 0 0 100 100" xml:space="preserve">
<g>
	<path d="M52.479,20.46c-16.408,0-29.757,13.351-29.757,29.759c0,16.409,13.349,29.759,29.757,29.759
		c16.408,0,29.756-13.35,29.756-29.759C82.236,33.811,68.887,20.46,52.479,20.46z M52.479,76.393
		c-14.433,0-26.174-11.741-26.174-26.174s11.741-26.174,26.174-26.174c14.432,0,26.173,11.741,26.173,26.174
		S66.911,76.393,52.479,76.393z"/>
	<path d="M52.479,25.648c-13.548,0-24.57,11.022-24.57,24.57c0,13.547,11.021,24.567,24.57,24.567
		c13.548,0,24.569-11.021,24.569-24.567C77.049,36.671,66.027,25.648,52.479,25.648z M52.479,71.201
		c-11.572,0-20.986-9.412-20.986-20.982c0-11.571,9.415-20.985,20.986-20.985c11.571,0,20.986,9.414,20.986,20.985
		C73.465,61.789,64.051,71.201,52.479,71.201z"/>
	<path d="M59.232,48.556c-4.711,0-8.544,3.834-8.544,8.545s3.833,8.545,8.544,8.545s8.544-3.834,8.544-8.545
		S63.943,48.556,59.232,48.556z M59.232,62.062c-2.736,0-4.961-2.225-4.961-4.961c0-2.735,2.225-4.96,4.961-4.96
		s4.961,2.225,4.961,4.96C64.193,59.837,61.968,62.062,59.232,62.062z"/>
	<path d="M54.271,43.466c0-4.711-3.833-8.545-8.544-8.545s-8.544,3.834-8.544,8.545s3.833,8.545,8.544,8.545
		S54.271,48.177,54.271,43.466z M45.727,48.427c-2.736,0-4.961-2.225-4.961-4.961c0-2.735,2.225-4.96,4.961-4.96
		s4.961,2.225,4.961,4.96C50.688,46.202,48.462,48.427,45.727,48.427z"/>
</g>
</svg>
