<?xml version="1.0" encoding="utf-8"?>
<!-- Generator: Adobe Illustrator 16.0.0, SVG Export Plug-In . SVG Version: 6.00 Build 0)  -->
<!DOCTYPE svg PUBLIC "-//W3C//DTD SVG 1.1//EN" "http://www.w3.org/Graphics/SVG/1.1/DTD/svg11.dtd">
<svg version="1.1" id="Layer_1" xmlns="http://www.w3.org/2000/svg" xmlns:xlink="http://www.w3.org/1999/xlink" x="0px" y="0px"
	 width="100px" height="100px" viewBox="0 0 100 100" enable-background="new 0 0 100 100" xml:space="preserve">
<g>
	<path d="M76.716,33.875L67.17,24.33c-2.633-2.634-6.918-2.634-9.551,0L24.938,57.011c-2.634,2.634-2.634,6.919,0,9.553l9.545,9.545
		c2.634,2.634,6.918,2.634,9.553,0l32.681-32.681C79.35,40.794,79.349,36.509,76.716,33.875z M40.729,72.803
		c-0.811,0.812-2.13,0.812-2.941,0l-9.545-9.544c-0.811-0.812-0.811-2.131,0.001-2.941l32.681-32.682
		c0.811-0.812,2.131-0.812,2.94,0l9.546,9.544c0.812,0.812,0.812,2.131,0,2.943L40.729,72.803z"/>
	<path d="M37.697,53.249l10.1,10.101L63.956,47.19l-10.1-10.1L37.697,53.249z M59.893,45.65c1.143,1.143,1.142,2.991,0,4.133
		c-1.139,1.14-2.989,1.142-4.131,0c-1.141-1.142-1.141-2.991,0-4.133C56.902,44.511,58.753,44.511,59.893,45.65z M55.143,50.402
		c1.142,1.142,1.141,2.991,0,4.131c-1.141,1.142-2.99,1.142-4.131,0c-1.141-1.14-1.141-2.991,0-4.131
		C52.151,49.263,54.002,49.262,55.143,50.402z M50.527,55.016c1.143,1.142,1.142,2.99,0,4.132c-1.139,1.141-2.989,1.141-4.131,0
		c-1.141-1.142-1.141-2.992,0-4.132C47.537,53.875,49.388,53.875,50.527,55.016z M55.396,41.153c1.14,1.141,1.14,2.991,0,4.131
		c-1.141,1.141-2.991,1.141-4.132,0c-1.141-1.142-1.141-2.99,0-4.131C52.404,40.012,54.254,40.012,55.396,41.153z M50.645,45.903
		c1.141,1.141,1.141,2.991-0.001,4.133c-1.141,1.141-2.991,1.141-4.131,0c-1.142-1.142-1.141-2.992,0-4.131
		C47.652,44.764,49.502,44.762,50.645,45.903z M46.03,50.517c1.14,1.142,1.14,2.991,0,4.133c-1.141,1.14-2.991,1.14-4.132,0
		c-1.141-1.143-1.141-2.991,0-4.133C43.039,49.377,44.889,49.376,46.03,50.517z"/>
</g>
</svg>
