<?xml version="1.0" encoding="utf-8"?>
<!-- Generator: Adobe Illustrator 16.0.0, SVG Export Plug-In . SVG Version: 6.00 Build 0)  -->
<!DOCTYPE svg PUBLIC "-//W3C//DTD SVG 1.1//EN" "http://www.w3.org/Graphics/SVG/1.1/DTD/svg11.dtd">
<svg version="1.1" id="Layer_1" xmlns="http://www.w3.org/2000/svg" xmlns:xlink="http://www.w3.org/1999/xlink" x="0px" y="0px"
	 width="100px" height="100px" viewBox="0 0 100 100" enable-background="new 0 0 100 100" xml:space="preserve">
<g>
	<path d="M75.25,45.86l-0.031-0.112c-0.026-0.193-0.07-0.38-0.135-0.572l-0.064-0.192l-0.046-0.099
		c-0.103-0.222-0.221-0.418-0.358-0.597l-0.034-0.068L53.312,22.955c-0.247-0.248-0.536-0.446-0.9-0.613l-0.253-0.094
		c-0.187-0.064-0.378-0.109-0.581-0.137l-0.146-0.04H37.263c-5.515,0-10.001,4.485-10.001,10v41.994c0,5.514,4.486,10,10.001,10
		h27.996c5.514,0,9.999-4.485,9.999-10V46.144L75.25,45.86z M69.256,74.064c0,2.203-1.793,3.997-3.997,3.997H37.263
		c-2.205,0-3.999-1.794-3.999-3.997V32.07c0-2.205,1.794-3.999,3.999-3.999h10.921v11.072c0,5.514,4.485,10.001,10,10.001h11.072
		V74.064z"/>
	<path d="M44.285,56.183c0,1.291,1.046,2.337,2.337,2.337h17.139c1.292,0,2.337-1.047,2.337-2.337c0-1.29-1.046-2.337-2.337-2.337
		H46.623C45.332,53.846,44.285,54.893,44.285,56.183z"/>
	<path d="M63.761,60.078H46.623c-1.291,0-2.337,1.047-2.337,2.337c0,1.291,1.046,2.337,2.337,2.337h17.139
		c1.292,0,2.337-1.047,2.337-2.337C66.099,61.125,65.053,60.078,63.761,60.078z"/>
	<path d="M63.761,66.311H46.623c-1.291,0-2.337,1.047-2.337,2.337c0,1.291,1.046,2.337,2.337,2.337h17.139
		c1.292,0,2.337-1.047,2.337-2.337C66.099,67.357,65.053,66.311,63.761,66.311z"/>
	<path d="M40.195,53.846h-0.845c-1.291,0-2.337,1.047-2.337,2.337c0,1.291,1.046,2.337,2.337,2.337h0.845
		c1.291,0,2.337-1.047,2.337-2.337C42.532,54.893,41.486,53.846,40.195,53.846z"/>
	<path d="M40.195,60.078h-0.845c-1.291,0-2.337,1.047-2.337,2.337c0,1.291,1.046,2.337,2.337,2.337h0.845
		c1.291,0,2.337-1.047,2.337-2.337C42.532,61.125,41.486,60.078,40.195,60.078z"/>
	<path d="M40.195,66.311h-0.845c-1.291,0-2.337,1.047-2.337,2.337c0,1.291,1.046,2.337,2.337,2.337h0.845
		c1.291,0,2.337-1.047,2.337-2.337C42.532,67.357,41.486,66.311,40.195,66.311z"/>
</g>
</svg>
