<?xml version="1.0" encoding="utf-8"?>
<!-- Generator: Adobe Illustrator 16.0.0, SVG Export Plug-In . SVG Version: 6.00 Build 0)  -->
<!DOCTYPE svg PUBLIC "-//W3C//DTD SVG 1.1//EN" "http://www.w3.org/Graphics/SVG/1.1/DTD/svg11.dtd">
<svg version="1.1" id="Layer_1" xmlns="http://www.w3.org/2000/svg" xmlns:xlink="http://www.w3.org/1999/xlink" x="0px" y="0px"
	 width="100px" height="100px" viewBox="0 0 100 100" enable-background="new 0 0 100 100" xml:space="preserve">
<g>
	<path d="M77.444,29.871H41.991c-2.126,0-3.855,1.729-3.855,3.854v2.641H37.67c-2.125,0-3.855,1.728-3.855,3.854v2.642H33.35
		c-2.125,0-3.854,1.729-3.854,3.854v22.242c0,2.125,1.729,3.854,3.854,3.854h35.453c2.126,0,3.855-1.729,3.855-3.854v-2.643h0.465
		c2.125,0,3.854-1.728,3.854-3.854V59.82h0.466c2.126,0,3.855-1.729,3.855-3.853V33.725C81.299,31.6,79.57,29.871,77.444,29.871z
		 M68.694,55.857v3.963v2.531v3.964v2.533H33.459V46.826h0.356h3.964h0.357H42.1h26.594V55.857z M73.014,62.351h-0.356V59.82v-3.963
		v-9.141c0-2.125-1.729-3.854-3.855-3.854H42.1v-0.001h-3.963v-1.266h-0.357v-1.266h0.357H42.1h2.574h27.985h0.356v15.526v3.963
		V62.351z M77.335,55.857h-0.357V40.221c0-2.126-1.729-3.854-3.854-3.854H42.1v-2.532h35.236V55.857z"/>
	<path d="M55.897,55.887l-5.788-4.215c-0.583-0.424-1.354-0.484-1.997-0.158c-0.642,0.327-1.047,0.986-1.047,1.707v8.43
		c0,0.721,0.405,1.38,1.047,1.707c0.274,0.14,0.572,0.208,0.869,0.208c0.398,0,0.794-0.124,1.128-0.367l5.788-4.215
		c0.494-0.36,0.787-0.937,0.787-1.549S56.392,56.247,55.897,55.887z"/>
</g>
</svg>
