<?xml version="1.0" encoding="utf-8"?>
<!-- Generator: Adobe Illustrator 16.0.0, SVG Export Plug-In . SVG Version: 6.00 Build 0)  -->
<!DOCTYPE svg PUBLIC "-//W3C//DTD SVG 1.1//EN" "http://www.w3.org/Graphics/SVG/1.1/DTD/svg11.dtd">
<svg version="1.1" id="Layer_1" xmlns="http://www.w3.org/2000/svg" xmlns:xlink="http://www.w3.org/1999/xlink" x="0px" y="0px"
	 width="100px" height="100px" viewBox="0 0 100 100" enable-background="new 0 0 100 100" xml:space="preserve">
<path d="M72.229,50.779c0-5.688-3.617-10.565-8.783-12.339c0.271-1.051,0.408-2.135,0.408-3.242c0-7.195-5.854-13.049-13.048-13.049
	c-7.196,0-13.05,5.854-13.05,13.049c0,1.143,0.153,2.284,0.451,3.387c-4.962,1.886-8.436,6.711-8.436,12.194
	c0,6.622,4.962,12.095,11.361,12.927l7.668,21.361c0.008,0.021,0.023,0.038,0.032,0.06c0.079,0.201,0.179,0.392,0.31,0.563
	c0.018,0.024,0.039,0.042,0.059,0.066c0.119,0.145,0.258,0.274,0.411,0.39c0.033,0.024,0.064,0.05,0.098,0.073
	c0.154,0.102,0.318,0.193,0.5,0.259c0.016,0.006,0.031,0.003,0.047,0.007c0.238,0.081,0.487,0.13,0.743,0.13s0.505-0.049,0.743-0.13
	c0.015-0.004,0.031-0.001,0.046-0.007c0.182-0.065,0.347-0.157,0.501-0.259c0.034-0.023,0.063-0.049,0.098-0.073
	c0.153-0.115,0.292-0.245,0.411-0.39c0.02-0.024,0.041-0.042,0.059-0.066c0.131-0.172,0.23-0.362,0.311-0.563
	c0.008-0.021,0.023-0.038,0.031-0.06l7.668-21.361C67.268,62.874,72.229,57.401,72.229,50.779z M51,77.361l-5.001-13.931
	c1.824-0.459,3.53-1.304,5.001-2.489c1.471,1.186,3.177,2.03,5,2.489L51,77.361z M59.18,59.153c-2.466,0-4.797-1.084-6.395-2.976
	C52.341,55.652,51.688,55.35,51,55.35s-1.341,0.303-1.785,0.828c-1.598,1.892-3.929,2.976-6.395,2.976
	c-4.618,0-8.375-3.756-8.375-8.374c0-4.147,3.098-7.708,7.206-8.282c0.754-0.104,1.41-0.57,1.757-1.249
	c0.347-0.677,0.343-1.482-0.013-2.154c-0.64-1.216-0.965-2.526-0.965-3.896c0-4.618,3.757-8.375,8.375-8.375
	c4.617,0,8.374,3.757,8.374,8.375c0,1.35-0.318,2.646-0.945,3.853c-0.356,0.687-0.35,1.503,0.017,2.185
	c0.366,0.681,1.046,1.137,1.814,1.218c4.27,0.447,7.489,4.026,7.489,8.326C67.555,55.397,63.798,59.153,59.18,59.153z"/>
</svg>
