<?xml version="1.0" encoding="utf-8"?>
<!-- Generator: Adobe Illustrator 16.0.0, SVG Export Plug-In . SVG Version: 6.00 Build 0)  -->
<!DOCTYPE svg PUBLIC "-//W3C//DTD SVG 1.1//EN" "http://www.w3.org/Graphics/SVG/1.1/DTD/svg11.dtd">
<svg version="1.1" id="Layer_1" xmlns="http://www.w3.org/2000/svg" xmlns:xlink="http://www.w3.org/1999/xlink" x="0px" y="0px"
	 width="100px" height="100px" viewBox="0 0 100 100" enable-background="new 0 0 100 100" xml:space="preserve">
<path d="M69.102,59.634l2.179-2.179c0.833-0.833,0.833-2.184,0-3.017c-0.832-0.833-2.183-0.833-3.017,0l-0.419,0.42l-6.273-6.273
	l14.427-14.428l-2.035-7.182l-7.183-2.036L52.354,39.367l-14.43-14.429l-7.182,2.034l-2.036,7.184l14.43,14.429l-6.275,6.275
	l-0.419-0.419c-0.833-0.833-2.184-0.833-3.016,0c-0.833,0.832-0.833,2.184,0,3.017l2.179,2.179l-7.711,7.71l5.699,5.699l7.71-7.711
	l2.179,2.18c0.833,0.833,2.184,0.833,3.017,0c0.833-0.832,0.833-2.184,0-3.017l-0.419-0.42l6.275-6.275l6.273,6.273l-0.419,0.419
	c-0.833,0.833-0.833,2.185,0,3.017c0.832,0.833,2.183,0.833,3.017,0l2.179-2.179l7.709,7.71l5.7-5.698L69.102,59.634z
	 M67.612,28.131l4.048,1.148l1.148,4.048L59.561,46.573l-5.196-5.195L67.612,28.131z M33.592,69.022l-1.676-1.676l5.699-5.698
	l1.675,1.676L33.592,69.022z M44.068,62.067l-5.196-5.195l6.275-6.276l5.196,5.195L44.068,62.067z M60.639,62.064l-6.273-6.273
	l-2.011-2.011l-5.195-5.195l-2.011-2.012l-13.25-13.248l1.148-4.048l4.047-1.147l13.25,13.249l2.011,2.01l5.196,5.196l2.011,2.011
	l6.273,6.273L60.639,62.064z M65.415,63.321l1.677-1.675l5.698,5.698l-1.676,1.677L65.415,63.321z"/>
</svg>
