<?xml version="1.0" encoding="utf-8"?>
<!-- Generator: Adobe Illustrator 16.0.0, SVG Export Plug-In . SVG Version: 6.00 Build 0)  -->
<!DOCTYPE svg PUBLIC "-//W3C//DTD SVG 1.1//EN" "http://www.w3.org/Graphics/SVG/1.1/DTD/svg11.dtd">
<svg version="1.1" id="Layer_1" xmlns="http://www.w3.org/2000/svg" xmlns:xlink="http://www.w3.org/1999/xlink" x="0px" y="0px"
	 width="100px" height="100px" viewBox="0 0 100 100" enable-background="new 0 0 100 100" xml:space="preserve">
<path d="M71.459,25.527c-11.929-8.172-27.788-8.185-39.729-0.031c-2.478-1.42-5.689-1.1-7.803,1.014l-0.408,0.408
	c-2.113,2.112-2.434,5.325-1.014,7.803c-8.153,11.943-8.142,27.803,0.031,39.729c-1.461,2.485-1.148,5.733,0.982,7.865l0.408,0.408
	c2.131,2.132,5.377,2.443,7.864,0.983c8.249,5.612,18.444,7.458,28.244,5.046c4.099-1.008,7.916-2.713,11.376-5.073
	c2.49,1.493,5.77,1.188,7.913-0.957l0.407-0.408c2.145-2.145,2.45-5.422,0.955-7.913c2.363-3.458,4.068-7.277,5.076-11.374
	c2.411-9.803,0.564-19.997-5.049-28.246c1.461-2.485,1.148-5.733-0.982-7.865l-0.407-0.408
	C77.192,24.378,73.946,24.067,71.459,25.527z M76.15,29.684l0.407,0.408c0.777,0.777,0.777,2.041,0.004,2.82L65.872,43.592
	l-0.015,0.011c-0.792,0.758-2.017,0.748-2.788-0.023l-0.407-0.408c-0.765-0.764-0.772-2.021-0.04-2.776l10.707-10.714
	C74.108,28.906,75.372,28.906,76.15,29.684z M66.409,60.898c-2.229-0.706-4.745-0.187-6.514,1.583l-0.406,0.406
	c-1.77,1.77-2.289,4.283-1.583,6.515c-0.798,0.342-1.613,0.631-2.447,0.837c-3.368,0.829-6.954,0.515-10.137-0.813
	c0.7-2.238,0.191-4.787-1.561-6.539l-0.407-0.406c-1.769-1.77-4.343-2.276-6.602-1.542c-1.737-4.034-1.754-8.6-0.044-12.647
	c2.259,0.755,4.853,0.255,6.646-1.539l0.407-0.406c1.794-1.794,2.296-4.386,1.538-6.646c4.045-1.709,8.609-1.693,12.643,0.042
	c-0.731,2.253-0.227,4.83,1.547,6.604l0.406,0.406c1.746,1.748,4.287,2.26,6.535,1.554c1.332,3.184,1.645,6.772,0.817,10.142
	C67.042,59.283,66.751,60.099,66.409,60.898z M29.919,79.551c-0.778,0.776-2.041,0.776-2.819-0.001l-0.407-0.408
	c-0.777-0.777-0.777-2.042-0.004-2.821L37.37,65.649l0.012-0.012c0.778-0.757,2.035-0.748,2.799,0.016l0.408,0.408
	c0.771,0.771,0.781,1.996,0.057,2.754l-4.652,4.659L29.919,79.551z M68.046,28.616l-7.419,7.42
	c-5.689-2.783-12.336-2.796-18.038-0.033l-7.428-7.428C45.165,22.257,58.056,22.271,68.046,28.616z M26.692,30.091l0.407-0.408
	c0.778-0.777,2.044-0.777,2.824,0.001l6.104,6.104l4.562,4.563c0.775,0.778,0.775,2.044-0.001,2.82l-0.408,0.408
	c-0.775,0.775-2.041,0.777-2.816,0.006l-0.01-0.011l-10.661-10.66C25.915,32.137,25.915,30.87,26.692,30.091z M25.585,38.155
	l7.425,7.425c-2.762,5.704-2.75,12.349,0.035,18.038l-7.421,7.419C19.281,61.048,19.266,48.16,25.585,38.155z M35.225,80.598
	l7.431-7.431c4.284,2.042,9.248,2.568,13.875,1.43c1.388-0.34,2.738-0.83,4.035-1.461l7.422,7.422
	c-2.774,1.756-5.801,3.043-9.023,3.836C50.765,86.411,42.253,85.023,35.225,80.598z M76.558,79.142L76.15,79.55
	c-0.778,0.777-2.044,0.777-2.824-0.001L62.749,68.972l-0.123-0.142c-0.74-0.792-0.725-2.009,0.036-2.769l0.407-0.408
	c0.707-0.708,1.795-0.742,2.578-0.158L76.579,76.35C77.329,77.132,77.327,78.374,76.558,79.142z M81.403,61.957
	c-0.792,3.223-2.079,6.249-3.836,9.023l-7.424-7.422c0.632-1.297,1.121-2.65,1.463-4.037c1.139-4.627,0.611-9.59-1.432-13.874
	l7.432-7.433C82.031,45.244,83.419,53.758,81.403,61.957z"/>
</svg>
