<?xml version="1.0" encoding="utf-8"?>
<!-- Generator: Adobe Illustrator 16.0.0, SVG Export Plug-In . SVG Version: 6.00 Build 0)  -->
<!DOCTYPE svg PUBLIC "-//W3C//DTD SVG 1.1//EN" "http://www.w3.org/Graphics/SVG/1.1/DTD/svg11.dtd">
<svg version="1.1" id="Layer_1" xmlns="http://www.w3.org/2000/svg" xmlns:xlink="http://www.w3.org/1999/xlink" x="0px" y="0px"
	 width="100px" height="100px" viewBox="0 0 100 100" enable-background="new 0 0 100 100" xml:space="preserve">
<g>
	<rect x="40.708" y="48.018" width="4.244" height="4.243"/>
	<rect x="40.708" y="60.362" width="4.244" height="4.243"/>
	<rect x="40.708" y="35.938" width="4.244" height="4.243"/>
	<path d="M73.422,50.14c0-2.42-1.093-4.586-2.808-6.04c1.715-1.454,2.808-3.62,2.808-6.04c0-4.367-3.553-7.921-7.921-7.921H41.342
		c-4.368,0-7.921,3.554-7.921,7.921c0,2.42,1.093,4.586,2.808,6.04c-1.715,1.454-2.808,3.62-2.808,6.04s1.093,4.586,2.808,6.039
		c-1.715,1.455-2.808,3.621-2.808,6.041c0,4.367,3.553,7.921,7.921,7.921h24.159c4.368,0,7.921-3.554,7.921-7.921
		c0-2.42-1.093-4.586-2.808-6.041C72.33,54.726,73.422,52.56,73.422,50.14z M37.184,38.06c0-2.292,1.865-4.158,4.158-4.158h24.159
		c2.293,0,4.158,1.866,4.158,4.158c0,2.293-1.865,4.158-4.158,4.158H41.342C39.049,42.218,37.184,40.353,37.184,38.06z
		 M69.659,62.22c0,2.291-1.865,4.157-4.158,4.157H41.342c-2.292,0-4.158-1.866-4.158-4.157c0-2.293,1.865-4.158,4.158-4.158h24.159
		C67.794,58.062,69.659,59.927,69.659,62.22z M41.342,54.298c-2.292,0-4.158-1.866-4.158-4.158s1.865-4.158,4.158-4.158h24.159
		c2.293,0,4.158,1.866,4.158,4.158s-1.865,4.158-4.158,4.158H41.342z"/>
</g>
</svg>
