<?xml version="1.0" encoding="utf-8"?>
<!-- Generator: Adobe Illustrator 16.0.0, SVG Export Plug-In . SVG Version: 6.00 Build 0)  -->
<!DOCTYPE svg PUBLIC "-//W3C//DTD SVG 1.1//EN" "http://www.w3.org/Graphics/SVG/1.1/DTD/svg11.dtd">
<svg version="1.1" id="Layer_1" xmlns="http://www.w3.org/2000/svg" xmlns:xlink="http://www.w3.org/1999/xlink" x="0px" y="0px"
	 width="100px" height="100px" viewBox="0 0 100 100" enable-background="new 0 0 100 100" xml:space="preserve">
<g>
	<path d="M74.466,30.667H33.497c-1.059,0-1.916,0.858-1.916,1.916v39.185c0,1.057,0.857,1.915,1.916,1.915h17.849
		c0.325,0.42,0.72,1.478,0.72,1.993c0,1.058,0.857,1.916,1.916,1.916c1.058,0,1.915-0.858,1.915-1.916
		c0-0.515,0.396-1.572,0.72-1.993h17.85c1.059,0,1.916-0.858,1.916-1.915V32.582C76.382,31.524,75.524,30.667,74.466,30.667z
		 M51.688,69.852H35.413V34.498h16.652v35.396C51.94,69.878,51.819,69.852,51.688,69.852z M72.55,69.852H56.272
		c-0.131,0-0.252,0.026-0.376,0.041V34.498H72.55V69.852z"/>
</g>
</svg>
