<?xml version="1.0" encoding="utf-8"?>
<!-- Generator: Adobe Illustrator 16.0.0, SVG Export Plug-In . SVG Version: 6.00 Build 0)  -->
<!DOCTYPE svg PUBLIC "-//W3C//DTD SVG 1.1//EN" "http://www.w3.org/Graphics/SVG/1.1/DTD/svg11.dtd">
<svg version="1.1" id="Layer_1" xmlns="http://www.w3.org/2000/svg" xmlns:xlink="http://www.w3.org/1999/xlink" x="0px" y="0px"
	 width="100px" height="100px" viewBox="0 0 100 100" enable-background="new 0 0 100 100" xml:space="preserve">
<path d="M68.715,32.193c-1.078-1.165-2.26-2.227-3.536-3.175C60.931,25.86,55.688,23.966,50,23.966
	c-6.351,0-12.153,2.346-16.624,6.198c-1.197,1.03-2.299,2.165-3.288,3.398c-3.504,4.372-5.614,9.905-5.614,15.93
	c0,6.023,2.109,11.559,5.612,15.929c0.989,1.233,2.092,2.37,3.289,3.4C37.847,72.674,43.649,75.02,50,75.02
	c6.839,0,13.045-2.72,17.632-7.113c1.143-1.095,2.179-2.295,3.104-3.585c3.001-4.185,4.789-9.297,4.789-14.829
	C75.525,42.815,72.927,36.747,68.715,32.193z M29.209,49.492c0-4.664,1.563-8.96,4.167-12.434c2.604,3.474,4.166,7.77,4.166,12.434
	s-1.563,8.96-4.166,12.432C30.771,58.452,29.209,54.156,29.209,49.492z M50,70.281c-5.073,0-9.723-1.831-13.335-4.86
	c3.502-4.37,5.612-9.905,5.612-15.929c0-6.024-2.11-11.558-5.614-15.93c3.613-3.029,8.264-4.86,13.337-4.86
	c4.505,0,8.668,1.455,12.077,3.899c-3.002,4.187-4.791,9.297-4.791,14.83c0,6.678,2.598,12.744,6.809,17.3
	C60.386,68.163,55.441,70.281,50,70.281z M67.216,61.134c-3.223-3.662-5.195-8.451-5.195-13.702c0-4.311,1.32-8.319,3.575-11.644
	c3.224,3.663,5.196,8.452,5.196,13.704C70.791,53.804,69.471,57.811,67.216,61.134z"/>
</svg>
