<?xml version="1.0" encoding="utf-8"?>
<!-- Generator: Adobe Illustrator 16.0.0, SVG Export Plug-In . SVG Version: 6.00 Build 0)  -->
<!DOCTYPE svg PUBLIC "-//W3C//DTD SVG 1.1//EN" "http://www.w3.org/Graphics/SVG/1.1/DTD/svg11.dtd">
<svg version="1.1" id="Layer_1" xmlns="http://www.w3.org/2000/svg" xmlns:xlink="http://www.w3.org/1999/xlink" x="0px" y="0px"
	 width="100px" height="100px" viewBox="0 0 100 100" enable-background="new 0 0 100 100" xml:space="preserve">
<g>
	<path d="M74.574,30.063l-5.213-4.583c-0.883-0.775-2.203-0.775-3.086,0l-5.215,4.583c-0.506,0.444-0.795,1.083-0.795,1.756v7.03
		h-1.559v-7.03c0-0.673-0.289-1.312-0.793-1.756l-5.215-4.583c-0.883-0.775-2.203-0.775-3.086,0l-5.215,4.583
		c-0.504,0.444-0.793,1.083-0.793,1.756v7.03h-1.559v-7.03c0-0.673-0.289-1.312-0.795-1.756l-5.213-4.583
		c-0.883-0.775-2.203-0.775-3.086,0l-5.215,4.583c-0.506,0.444-0.795,1.083-0.795,1.756v40.797c0,1.29,1.047,2.337,2.338,2.337
		h10.428c1.291,0,2.338-1.047,2.338-2.337V62.414h1.559v10.201c0,1.29,1.045,2.337,2.336,2.337h10.43
		c1.291,0,2.336-1.047,2.336-2.337V62.414h1.559v10.201c0,1.29,1.047,2.337,2.338,2.337h10.428c1.291,0,2.338-1.047,2.338-2.337
		V31.818C75.369,31.146,75.08,30.507,74.574,30.063z M37.373,38.849v4.674V57.74v4.674v7.864h-5.756v-7.864V57.74V43.522v-4.674
		v-5.973l2.879-2.529l2.877,2.529V38.849z M43.605,57.74h-1.559V43.522h1.559V57.74z M54.033,38.849v4.674V57.74v4.674v7.864h-5.754
		v-7.864V57.74V43.522v-4.674v-5.973l2.877-2.529l2.877,2.529V38.849z M60.266,57.74h-1.559V43.522h1.559V57.74z M70.695,38.849
		v4.674V57.74v4.674v7.864h-5.756v-7.864V57.74V43.522v-4.674v-5.973l2.879-2.529l2.877,2.529V38.849z"/>
</g>
</svg>
