<?xml version="1.0" encoding="utf-8"?>
<!-- Generator: Adobe Illustrator 16.0.0, SVG Export Plug-In . SVG Version: 6.00 Build 0)  -->
<!DOCTYPE svg PUBLIC "-//W3C//DTD SVG 1.1//EN" "http://www.w3.org/Graphics/SVG/1.1/DTD/svg11.dtd">
<svg version="1.1" id="Layer_1" xmlns="http://www.w3.org/2000/svg" xmlns:xlink="http://www.w3.org/1999/xlink" x="0px" y="0px"
	 width="100px" height="100px" viewBox="0 0 100 100" enable-background="new 0 0 100 100" xml:space="preserve">
<g>
	<path d="M61.906,79.611H40.094c-1.291,0-2.338-1.047-2.338-2.337v-7.302c-0.886,0.191-1.791,0.29-2.696,0.29
		c-7.104,0-12.884-5.78-12.884-12.885c0-6.832,5.344-12.438,12.07-12.858c0.861-8.617,8.154-15.366,16.994-15.366
		c8.852,0,16.152,6.771,16.997,15.405c6.498,0.651,11.587,6.152,11.587,12.819c0,7.104-5.779,12.885-12.883,12.885
		c-0.908,0-1.813-0.098-2.697-0.289v7.301C64.244,78.564,63.197,79.611,61.906,79.611z M42.431,74.938h17.14v-8.301
		c0-0.826,0.435-1.59,1.145-2.01c0.711-0.422,1.591-0.437,2.314-0.04c1.214,0.664,2.53,1.002,3.912,1.002
		c4.526,0,8.209-3.685,8.209-8.211s-3.683-8.21-8.209-8.21c-0.26,0-0.514,0.017-0.766,0.041c-0.675,0.069-1.346-0.164-1.836-0.632
		c-0.492-0.467-0.756-1.124-0.727-1.802l0.018-0.285c0.006-0.086,0.014-0.171,0.014-0.258c0-6.841-5.564-12.405-12.404-12.405
		c-6.841,0-12.405,5.564-12.405,12.405c0,0.105,0.009,0.207,0.016,0.309l0.017,0.294c0.034,0.695-0.244,1.369-0.76,1.84
		c-0.515,0.469-1.211,0.68-1.902,0.586c-0.444-0.064-0.809-0.093-1.146-0.093c-4.526,0-8.21,3.684-8.21,8.21s3.684,8.211,8.21,8.211
		c1.372,0,2.69-0.34,3.915-1.008c0.725-0.394,1.603-0.377,2.313,0.043c0.709,0.421,1.144,1.185,1.144,2.01V74.938z"/>
</g>
</svg>
