<?xml version="1.0" encoding="utf-8"?>
<!-- Generator: Adobe Illustrator 16.0.0, SVG Export Plug-In . SVG Version: 6.00 Build 0)  -->
<!DOCTYPE svg PUBLIC "-//W3C//DTD SVG 1.1//EN" "http://www.w3.org/Graphics/SVG/1.1/DTD/svg11.dtd">
<svg version="1.1" id="Layer_1" xmlns="http://www.w3.org/2000/svg" xmlns:xlink="http://www.w3.org/1999/xlink" x="0px" y="0px"
	 width="100px" height="100px" viewBox="0 0 100 100" enable-background="new 0 0 100 100" xml:space="preserve">
<g>
	<path d="M33.045,48.589h5.431c0.643,0,1.164-0.521,1.164-1.164v-5.432c0-0.643-0.521-1.163-1.164-1.163h-5.431
		c-0.644,0-1.164,0.521-1.164,1.163v5.432C31.881,48.067,32.401,48.589,33.045,48.589z M34.209,43.159h3.103v3.102h-3.103V43.159z"
		/>
	<path d="M49.337,40.83h-5.431c-0.643,0-1.164,0.521-1.164,1.163v5.432c0,0.643,0.521,1.164,1.164,1.164h5.431
		c0.644,0,1.164-0.521,1.164-1.164v-5.432C50.501,41.351,49.98,40.83,49.337,40.83z M48.173,46.261H45.07v-3.102h3.103V46.261z"/>
	<path d="M60.198,40.83h-5.431c-0.643,0-1.164,0.521-1.164,1.163v5.432c0,0.643,0.521,1.164,1.164,1.164h5.431
		c0.643,0,1.164-0.521,1.164-1.164v-5.432C61.362,41.351,60.841,40.83,60.198,40.83z M59.034,46.261h-3.103v-3.102h3.103V46.261z"/>
	<path d="M71.06,40.83h-5.431c-0.643,0-1.164,0.521-1.164,1.163v5.432c0,0.643,0.521,1.164,1.164,1.164h5.431
		c0.644,0,1.165-0.521,1.165-1.164v-5.432C72.225,41.351,71.703,40.83,71.06,40.83z M69.896,46.261h-3.104v-3.102h3.104V46.261z"/>
	<path d="M33.045,59.449h5.431c0.643,0,1.164-0.521,1.164-1.164v-5.43c0-0.645-0.521-1.165-1.164-1.165h-5.431
		c-0.644,0-1.164,0.521-1.164,1.165v5.43C31.881,58.929,32.401,59.449,33.045,59.449z M34.209,54.02h3.103v3.102h-3.103V54.02z"/>
	<path d="M49.337,51.69h-5.431c-0.643,0-1.164,0.521-1.164,1.165v5.43c0,0.644,0.521,1.164,1.164,1.164h5.431
		c0.644,0,1.164-0.521,1.164-1.164v-5.43C50.501,52.211,49.98,51.69,49.337,51.69z M48.173,57.121H45.07V54.02h3.103V57.121z"/>
	<path d="M60.198,51.69h-5.431c-0.643,0-1.164,0.521-1.164,1.165v5.43c0,0.644,0.521,1.164,1.164,1.164h5.431
		c0.643,0,1.164-0.521,1.164-1.164v-5.43C61.362,52.211,60.841,51.69,60.198,51.69z M59.034,57.121h-3.103V54.02h3.103V57.121z"/>
	<path d="M71.06,51.69h-5.431c-0.643,0-1.164,0.521-1.164,1.165v16.292c0,0.645,0.521,1.164,1.164,1.164h5.431
		c0.644,0,1.165-0.52,1.165-1.164V52.855C72.225,52.211,71.703,51.69,71.06,51.69z M69.896,67.983h-3.104V54.02h3.104V67.983z"/>
	<path d="M33.045,70.312h5.431c0.643,0,1.164-0.52,1.164-1.164v-5.43c0-0.644-0.521-1.164-1.164-1.164h-5.431
		c-0.644,0-1.164,0.521-1.164,1.164v5.43C31.881,69.792,32.401,70.312,33.045,70.312z M34.209,64.881h3.103v3.103h-3.103V64.881z"/>
	<path d="M49.337,62.554h-5.431c-0.643,0-1.164,0.521-1.164,1.164v5.43c0,0.645,0.521,1.164,1.164,1.164h5.431
		c0.644,0,1.164-0.52,1.164-1.164v-5.43C50.501,63.074,49.98,62.554,49.337,62.554z M48.173,67.983H45.07v-3.103h3.103V67.983z"/>
	<path d="M60.198,62.554h-5.431c-0.643,0-1.164,0.521-1.164,1.164v5.43c0,0.645,0.521,1.164,1.164,1.164h5.431
		c0.643,0,1.164-0.52,1.164-1.164v-5.43C61.362,63.074,60.841,62.554,60.198,62.554z M59.034,67.983h-3.103v-3.103h3.103V67.983z"/>
	<path d="M33.045,37.727H71.06c0.644,0,1.165-0.521,1.165-1.164v-5.431c0-0.643-0.521-1.164-1.165-1.164H33.045
		c-0.644,0-1.164,0.521-1.164,1.164v5.431C31.881,37.206,32.401,37.727,33.045,37.727z M34.209,32.296h35.688v3.104H34.209V32.296z"
		/>
	<path d="M75.818,24.725H28.286c-0.643,0-1.164,0.521-1.164,1.164v48.503c0,0.643,0.521,1.164,1.164,1.164h47.532
		c0.643,0,1.164-0.521,1.164-1.164V25.889C76.982,25.245,76.461,24.725,75.818,24.725z M74.654,73.228H29.45V27.052h45.204V73.228z"
		/>
</g>
</svg>
