<?xml version="1.0" encoding="utf-8"?>
<!-- Generator: Adobe Illustrator 16.0.0, SVG Export Plug-In . SVG Version: 6.00 Build 0)  -->
<!DOCTYPE svg PUBLIC "-//W3C//DTD SVG 1.1//EN" "http://www.w3.org/Graphics/SVG/1.1/DTD/svg11.dtd">
<svg version="1.1" id="Layer_1" xmlns="http://www.w3.org/2000/svg" xmlns:xlink="http://www.w3.org/1999/xlink" x="0px" y="0px"
	 width="100px" height="100px" viewBox="0 0 100 100" enable-background="new 0 0 100 100" xml:space="preserve">
<g>
	<g>
		<path d="M73.816,66.316H38.364c-2.126,0-3.855-1.729-3.855-3.854V40.221c0-2.126,1.729-3.854,3.855-3.854h35.453
			c2.126,0,3.855,1.729,3.855,3.854v22.241C77.671,64.588,75.942,66.316,73.816,66.316z M38.472,62.352h35.236V40.331H38.472V62.352
			z"/>
	</g>
	<path d="M60.648,49.645l-5.787-4.215c-0.583-0.424-1.354-0.485-1.997-0.158c-0.642,0.327-1.047,0.986-1.047,1.707v8.43
		c0,0.721,0.405,1.38,1.047,1.707c0.274,0.14,0.572,0.208,0.869,0.208c0.398,0,0.793-0.124,1.128-0.367l5.787-4.215
		c0.495-0.362,0.788-0.937,0.788-1.549S61.143,50.007,60.648,49.645z"/>
</g>
</svg>
