<?xml version="1.0" encoding="utf-8"?>
<!-- Generator: Adobe Illustrator 16.0.0, SVG Export Plug-In . SVG Version: 6.00 Build 0)  -->
<!DOCTYPE svg PUBLIC "-//W3C//DTD SVG 1.1//EN" "http://www.w3.org/Graphics/SVG/1.1/DTD/svg11.dtd">
<svg version="1.1" id="Layer_1" xmlns="http://www.w3.org/2000/svg" xmlns:xlink="http://www.w3.org/1999/xlink" x="0px" y="0px"
	 width="100px" height="100px" viewBox="0 0 100 100" enable-background="new 0 0 100 100" xml:space="preserve">
<path d="M69.836,45.166H65.15c1.986-3.133,1.621-7.34-1.109-10.068c-1.531-1.529-3.564-2.371-5.729-2.371s-4.197,0.842-5.729,2.371
	c-0.074,0.076-0.137,0.166-0.207,0.246c-0.07-0.08-0.133-0.17-0.209-0.246c-1.529-1.529-3.564-2.373-5.729-2.373
	s-4.197,0.844-5.729,2.373c-2.729,2.729-3.094,6.936-1.107,10.068h-4.686c-1.039,0-1.881,0.842-1.881,1.881V58.01
	c0,1.039,0.842,1.881,1.881,1.881h1.986v19.818c0,1.039,0.842,1.883,1.881,1.883h27.182c1.039,0,1.883-0.844,1.883-1.883V59.891
	h1.986c1.039,0,1.881-0.842,1.881-1.881V47.047C71.717,46.008,70.875,45.166,69.836,45.166z M55.246,37.76
	c1.639-1.637,4.496-1.637,6.135,0c1.691,1.691,1.691,4.443,0,6.135c-0.232,0.232-1.256,0.988-4.717,0.988
	c-0.857,0-1.668-0.049-2.311-0.105c-0.051-0.572-0.076-1.172-0.088-1.771c0.006-0.271,0.006-0.549,0.002-0.834
	C54.303,40.232,54.578,38.428,55.246,37.76z M43.373,37.76c0.818-0.82,1.908-1.271,3.066-1.271c1.16,0,2.248,0.451,3.068,1.271
	c0.672,0.672,0.941,2.414,0.98,4.285c-0.008,0.355-0.008,0.705,0,1.043c-0.014,0.576-0.041,1.148-0.088,1.689
	c-0.643,0.057-1.449,0.105-2.313,0.105c-3.459,0-4.484-0.756-4.715-0.988C41.682,42.203,41.682,39.451,43.373,37.76z M36.801,48.93
	h13.41v7.197H38.785h-1.984V48.93z M40.668,59.891h9.543v17.938h-9.543V59.891z M64.086,77.828H53.975V59.891h10.111V77.828z
	 M67.953,56.127h-1.986H53.975V48.93h13.979V56.127z"/>
</svg>
