<?xml version="1.0" encoding="utf-8"?>
<!-- Generator: Adobe Illustrator 16.0.0, SVG Export Plug-In . SVG Version: 6.00 Build 0)  -->
<!DOCTYPE svg PUBLIC "-//W3C//DTD SVG 1.1//EN" "http://www.w3.org/Graphics/SVG/1.1/DTD/svg11.dtd">
<svg version="1.1" id="Layer_1" xmlns="http://www.w3.org/2000/svg" xmlns:xlink="http://www.w3.org/1999/xlink" x="0px" y="0px"
	 width="100px" height="100px" viewBox="0 0 100 100" enable-background="new 0 0 100 100" xml:space="preserve">
<path d="M74.252,24.19c-3.968,0-7.731,0.89-11.106,2.474c-3.375-1.584-7.137-2.474-11.105-2.474c-4.123,0-8.027,0.959-11.503,2.662
	c-3.475-1.703-7.378-2.662-11.502-2.662c-14.465,0-26.233,11.769-26.233,26.234c0,9.513,5.09,17.859,12.689,22.458
	c3.957,2.395,8.591,3.775,13.544,3.775c4.128,0,8.027-0.971,11.503-2.675c3.477,1.706,7.376,2.675,11.502,2.675
	c3.97,0,7.73-0.899,11.107-2.486c3.373,1.586,7.134,2.486,11.104,2.486c4.952,0,9.587-1.381,13.542-3.774
	c7.601-4.6,12.691-12.946,12.691-22.459C100.485,35.959,88.718,24.19,74.252,24.19z M24.671,64.715
	c-3.277,0.843-5.999,2.608-7.655,4.889c-6.384-4.014-10.646-11.1-10.646-19.18c0-12.497,10.168-22.665,22.665-22.665
	c2.708,0,5.294,0.501,7.701,1.375c-3.743,2.699-6.747,6.357-8.651,10.615c-0.529,0.483-1.149,0.888-1.6,1.13
	c-3.28,1.533-5.483,5.838-5.483,10.721c0,2.936,1.783,6.661,3.669,9.79V64.715z M56.798,64.834c-0.118-0.143-0.229-0.29-0.347-0.437
	v-3.086c1.868-3.112,3.62-6.8,3.62-9.709c0-5.354-2.606-9.843-6.213-11c-0.087-0.028-0.173-0.063-0.262-0.087
	c0.426-1.346-0.325-2.535-0.363-2.593c-0.133-0.206-0.378-0.313-0.622-0.259c-0.215,0.045-0.374,0.213-0.435,0.423
	c-0.006,0.023-0.025,0.038-0.029,0.061c-0.187,1.107-1.693,2.203-2.601,2.703c-0.017,0.009-0.039,0.023-0.056,0.033
	c-3.28,1.533-5.483,5.838-5.483,10.721c0,2.936,1.783,6.661,3.668,9.79v1.867c-0.463,0.667-0.955,1.311-1.485,1.923
	c-2.312,0.838-4.264,2.152-5.653,3.78c-1.389-1.627-3.342-2.942-5.652-3.78c-0.513-0.591-0.988-1.212-1.438-1.853
	c-2.558-3.663-4.07-8.105-4.07-12.905c0-3.421,0.783-6.654,2.146-9.566c1.942-4.147,5.098-7.607,9.016-9.929
	c1.2-0.711,2.472-1.311,3.802-1.794c2.408-0.874,4.994-1.375,7.701-1.375c2.51,0,4.919,0.427,7.178,1.184
	c1.372,0.46,2.686,1.044,3.928,1.746c3.979,2.248,7.201,5.666,9.225,9.783c1.48,3.009,2.334,6.379,2.334,9.952
	c0,5.25-1.807,10.071-4.816,13.911c-0.131,0.167-0.26,0.335-0.395,0.498c-2.566,0.729-4.764,2.025-6.349,3.693
	C61.562,66.859,59.364,65.563,56.798,64.834z M86.271,69.604c-1.65-2.27-4.353-4.028-7.608-4.875v-3.418
	c1.867-3.112,3.619-6.8,3.619-9.709c0-5.188-2.445-9.568-5.88-10.888c-0.147-0.371-0.304-0.737-0.469-1.1
	c-0.017-0.936-0.46-1.648-0.488-1.693c-0.109-0.167-0.295-0.244-0.489-0.248c-1.938-3.469-4.644-6.455-7.883-8.729
	c2.26-0.756,4.669-1.184,7.179-1.184c12.496,0,22.663,10.167,22.663,22.665C96.915,58.504,92.653,65.591,86.271,69.604z"/>
</svg>
