<?xml version="1.0" encoding="utf-8"?>
<!-- Generator: Adobe Illustrator 16.0.0, SVG Export Plug-In . SVG Version: 6.00 Build 0)  -->
<!DOCTYPE svg PUBLIC "-//W3C//DTD SVG 1.1//EN" "http://www.w3.org/Graphics/SVG/1.1/DTD/svg11.dtd">
<svg version="1.1" id="Layer_1" xmlns="http://www.w3.org/2000/svg" xmlns:xlink="http://www.w3.org/1999/xlink" x="0px" y="0px"
	 width="100px" height="100px" viewBox="0 0 100 100" enable-background="new 0 0 100 100" xml:space="preserve">
<g>
	<path d="M53.375,57.566H41.531c-0.86,0-1.558,0.696-1.558,1.558v8.962c0,0.861,0.698,1.559,1.558,1.559h11.845
		c0.86,0,1.558-0.697,1.558-1.559v-8.962C54.934,58.263,54.236,57.566,53.375,57.566z M51.817,66.528h-8.729v-5.846h8.729V66.528z"
		/>
	<path d="M76.869,41.26l-9.043-5.267v-3.648c0-0.861-0.698-1.559-1.558-1.559H43.081c-0.86,0-1.558,0.697-1.558,1.559v3.506
		l-9.289,5.409c-0.479,0.278-0.774,0.792-0.774,1.347v4.308c0,2.013,1.024,3.832,2.667,4.9v23.085c0,0.861,0.698,1.559,1.558,1.559
		h22.303h10.586h4.844c0.861,0,1.558-0.697,1.558-1.559V51.814c1.644-1.069,2.667-2.89,2.667-4.9v-4.308
		C77.642,42.052,77.348,41.539,76.869,41.26z M44.639,33.902h20.071v1.286H44.639V33.902z M34.576,43.502l8.925-5.197h22.101
		l8.924,5.197v3.412c0,1.115-0.668,2.111-1.706,2.539c-0.333,0.139-0.684,0.208-1.043,0.208c-1.516,0-2.748-1.232-2.748-2.747
		c0-0.861-0.708-1.559-1.568-1.559c-0.419,0-0.821,0.169-1.115,0.469c-0.293,0.3-0.453,0.706-0.442,1.124
		c0,0.035,0.003,0.083,0.008,0.13c-0.036,1.485-1.254,2.683-2.748,2.683c-0.188,0-0.372-0.02-0.549-0.055
		c-0.052-0.013-0.1-0.034-0.15-0.048c-0.124-0.031-0.248-0.063-0.363-0.112c-0.057-0.024-0.107-0.06-0.162-0.087
		c-0.103-0.052-0.207-0.101-0.302-0.164c-0.055-0.036-0.103-0.085-0.156-0.126c-0.085-0.065-0.173-0.13-0.25-0.206
		c-0.049-0.048-0.087-0.104-0.132-0.155c-0.07-0.08-0.143-0.158-0.203-0.246c-0.041-0.061-0.071-0.128-0.106-0.19
		c-0.052-0.088-0.106-0.175-0.148-0.271c-0.031-0.071-0.049-0.149-0.074-0.224c-0.031-0.095-0.067-0.186-0.088-0.284
		c-0.018-0.081-0.021-0.166-0.031-0.248c-0.012-0.101-0.029-0.2-0.03-0.302c0.002-0.033,0.005-0.07,0.006-0.095
		c0.01-0.418-0.16-0.824-0.453-1.124c-0.587-0.6-1.652-0.6-2.239,0c-0.293,0.3-0.453,0.706-0.443,1.124
		c0,0.024,0.003,0.06,0.006,0.094c-0.001,0.103-0.018,0.2-0.03,0.301c-0.01,0.084-0.014,0.167-0.031,0.248
		c-0.021,0.098-0.056,0.188-0.087,0.283c-0.025,0.076-0.044,0.153-0.075,0.227c-0.041,0.093-0.095,0.178-0.144,0.265
		c-0.037,0.065-0.068,0.134-0.11,0.196c-0.059,0.085-0.129,0.16-0.196,0.237c-0.047,0.055-0.088,0.114-0.139,0.164
		c-0.074,0.073-0.159,0.134-0.241,0.2c-0.056,0.044-0.105,0.092-0.164,0.132c-0.091,0.061-0.192,0.108-0.29,0.158
		c-0.059,0.03-0.113,0.067-0.174,0.093c-0.112,0.047-0.232,0.078-0.351,0.109c-0.055,0.016-0.106,0.038-0.162,0.051
		c-0.177,0.035-0.361,0.055-0.549,0.055c-1.493,0-2.71-1.196-2.747-2.682c0.004-0.047,0.008-0.096,0.008-0.131
		c0.01-0.418-0.155-0.824-0.448-1.124c-0.292-0.3-0.7-0.469-1.119-0.469c-0.86,0-1.558,0.697-1.558,1.559
		c0,1.515-1.233,2.747-2.749,2.747c-1.516,0-2.75-1.232-2.75-2.747c0-0.861-0.698-1.559-1.558-1.559s-1.558,0.697-1.558,1.559
		c0,1.515-1.232,2.747-2.748,2.747c-0.359,0-0.71-0.069-1.046-0.209c-1.035-0.427-1.703-1.423-1.703-2.538V43.502z M59.545,73.342
		V60.683h7.47v12.659H59.545z M71.859,73.342h-1.728V59.124c0-0.861-0.698-1.558-1.558-1.558H57.987
		c-0.86,0-1.558,0.696-1.558,1.558v14.218H37.242V52.778c0.027,0,0.055,0,0.082,0c1.701,0,3.234-0.728,4.306-1.889
		c1.073,1.161,2.606,1.889,4.308,1.889c1.677,0,3.191-0.708,4.261-1.84c1.074,1.189,2.627,1.938,4.352,1.938
		c1.7,0,3.235-0.728,4.307-1.889c0.157,0.171,0.343,0.31,0.519,0.46c0.123,0.104,0.231,0.227,0.363,0.32
		c0.206,0.149,0.436,0.261,0.66,0.383c0.126,0.068,0.241,0.156,0.373,0.214c0.238,0.106,0.497,0.174,0.75,0.247
		c0.136,0.041,0.261,0.102,0.401,0.132c0.4,0.087,0.814,0.133,1.241,0.133c1.72,0,3.27-0.744,4.342-1.949
		c0.268,0.284,0.564,0.543,0.884,0.77c0.873,0.624,1.928,0.991,3.051,1.046c0.114,0.006,0.221,0.035,0.336,0.035
		c0.013,0,0.025-0.004,0.038-0.005c0.015,0,0.029,0.005,0.044,0.005V73.342z"/>
</g>
</svg>
