<?xml version="1.0" encoding="utf-8"?>
<!-- Generator: Adobe Illustrator 16.0.0, SVG Export Plug-In . SVG Version: 6.00 Build 0)  -->
<!DOCTYPE svg PUBLIC "-//W3C//DTD SVG 1.1//EN" "http://www.w3.org/Graphics/SVG/1.1/DTD/svg11.dtd">
<svg version="1.1" id="Layer_1" xmlns="http://www.w3.org/2000/svg" xmlns:xlink="http://www.w3.org/1999/xlink" x="0px" y="0px"
	 width="100px" height="100px" viewBox="0 0 100 100" enable-background="new 0 0 100 100" xml:space="preserve">
<path d="M63.477,32.526l1.889-1.632c0.901-0.778,1.074-2.111,0.399-3.093l-3.564-5.185c-0.436-0.635-1.156-1.014-1.926-1.014H44.398
	c-0.7,0-1.363,0.313-1.807,0.854l-4.105,5.003c-0.77,0.938-0.693,2.311,0.176,3.156l1.971,1.919
	c-7.802,4.122-13.137,12.311-13.137,21.73c0,13.547,11.021,24.567,24.569,24.567c13.548,0,24.57-11.021,24.57-24.567
	C76.636,44.838,71.291,36.645,63.477,32.526z M45.503,26.277h13.542l1.682,2.448l-2.165,1.87l-3.402,2.939l-3.604,3.113
	l-3.114-3.032l-3.053-2.974l-1.927-1.876L45.503,26.277z M52.066,75.249c-11.571,0-20.986-9.412-20.986-20.982
	c0-8.464,5.048-15.757,12.284-19.072l6.467,6.298c0.452,0.44,1.041,0.663,1.63,0.663c0.543,0,1.088-0.188,1.527-0.569l7.536-6.509
	c7.368,3.261,12.528,10.628,12.528,19.189C73.052,65.837,63.638,75.249,52.066,75.249z"/>
</svg>
