<?xml version="1.0" encoding="utf-8"?>
<!-- Generator: Adobe Illustrator 16.0.0, SVG Export Plug-In . SVG Version: 6.00 Build 0)  -->
<!DOCTYPE svg PUBLIC "-//W3C//DTD SVG 1.1//EN" "http://www.w3.org/Graphics/SVG/1.1/DTD/svg11.dtd">
<svg version="1.1" id="Layer_1" xmlns="http://www.w3.org/2000/svg" xmlns:xlink="http://www.w3.org/1999/xlink" x="0px" y="0px"
	 width="100px" height="100px" viewBox="0 0 100 100" enable-background="new 0 0 100 100" xml:space="preserve">
<path d="M72.266,76.926H56.897c5.299-2.177,9.313-6.844,10.594-12.539c4.632-0.655,8.219-4.607,8.219-9.417
	c0-4.657-3.356-8.536-7.775-9.374v-1.098c0-0.981-0.795-1.777-1.776-1.777h-7.123V30.062c0-0.982-0.796-1.777-1.777-1.777
	c-0.98,0-1.776,0.795-1.776,1.777v12.659h-3.539V30.062c0-0.982-0.796-1.777-1.776-1.777c-0.981,0-1.777,0.795-1.777,1.777v12.659
	h-3.791V30.062c0-0.982-0.795-1.777-1.776-1.777s-1.777,0.795-1.777,1.777v12.659h-6.871c-0.981,0-1.776,0.796-1.776,1.777V60.49
	c0,7.416,4.569,13.777,11.038,16.436H28.067c-0.981,0-1.777,0.796-1.777,1.777c0,0.983,0.796,1.777,1.777,1.777h44.199
	c0.981,0,1.777-0.794,1.777-1.777C74.043,77.722,73.248,76.926,72.266,76.926z M72.157,54.97c0,2.688-1.79,4.942-4.231,5.701
	c0.001-0.061,0.009-0.12,0.009-0.181V49.27C70.372,50.032,72.157,52.284,72.157,54.97z M35.952,60.49V46.275h28.43V60.49
	c0,7.839-6.377,14.216-14.214,14.216C42.329,74.706,35.952,68.329,35.952,60.49z"/>
</svg>
