<?xml version="1.0" encoding="utf-8"?>
<!-- Generator: Adobe Illustrator 16.0.0, SVG Export Plug-In . SVG Version: 6.00 Build 0)  -->
<!DOCTYPE svg PUBLIC "-//W3C//DTD SVG 1.1//EN" "http://www.w3.org/Graphics/SVG/1.1/DTD/svg11.dtd">
<svg version="1.1" id="Layer_1" xmlns="http://www.w3.org/2000/svg" xmlns:xlink="http://www.w3.org/1999/xlink" x="0px" y="0px"
	 width="100px" height="100px" viewBox="0 0 100 100" enable-background="new 0 0 100 100" xml:space="preserve">
<path d="M68.231,40.708c0.014-0.064,0.029-0.129,0.036-0.194c0.012-0.108,0.007-0.214-0.001-0.321c-0.004-0.06,0-0.12-0.011-0.179
	c-0.022-0.136-0.065-0.269-0.118-0.398c-0.011-0.026-0.012-0.057-0.024-0.083c-0.001-0.003-0.003-0.005-0.005-0.008
	c0-0.002-0.002-0.003-0.002-0.006l-4.728-10.036c-0.012-0.024-0.031-0.044-0.044-0.068c-0.016-0.028-0.021-0.062-0.038-0.09
	c-0.037-0.061-0.088-0.108-0.129-0.164c-0.043-0.057-0.082-0.115-0.131-0.165c-0.07-0.075-0.151-0.138-0.232-0.198
	c-0.053-0.041-0.102-0.086-0.158-0.119c-0.096-0.058-0.199-0.098-0.303-0.138c-0.053-0.021-0.104-0.05-0.158-0.065
	c-0.164-0.046-0.334-0.072-0.508-0.072H46.803H33.819c-0.165,0-0.325,0.022-0.48,0.063c-0.056,0.015-0.104,0.043-0.157,0.063
	c-0.098,0.035-0.195,0.067-0.284,0.119c-0.057,0.031-0.104,0.075-0.157,0.112c-0.077,0.055-0.156,0.106-0.225,0.173
	c-0.049,0.046-0.086,0.103-0.13,0.155c-0.05,0.061-0.108,0.114-0.151,0.182l-6.419,10.036c-0.025,0.039-0.036,0.083-0.058,0.125
	c-0.02,0.034-0.048,0.061-0.064,0.098s-0.02,0.076-0.033,0.112c-0.036,0.093-0.063,0.185-0.084,0.279
	c-0.016,0.075-0.03,0.148-0.037,0.225c-0.01,0.095-0.008,0.188-0.002,0.282c0.004,0.077,0.008,0.152,0.021,0.229
	c0.018,0.092,0.046,0.179,0.076,0.269c0.025,0.074,0.049,0.149,0.085,0.222c0.013,0.025,0.017,0.054,0.03,0.078
	c0.034,0.063,0.084,0.112,0.124,0.168c0.033,0.048,0.053,0.101,0.091,0.145l19.402,22.917c0.334,0.395,0.836,0.675,1.336,0.66
	c0.006,0,0.012,0.004,0.018,0.004c0.027,0.001,0.055,0.001,0.082,0.001l0,0l0,0h0.001c0.001,0,0.001,0,0.002,0
	c0.169,0,0.333-0.03,0.491-0.073c0.047-0.014,0.091-0.029,0.137-0.047c0.117-0.041,0.23-0.096,0.338-0.16
	c0.037-0.022,0.074-0.042,0.11-0.066c0.128-0.089,0.248-0.191,0.352-0.313l19.602-22.916c0.025-0.03,0.037-0.066,0.061-0.098
	c0.031-0.04,0.07-0.073,0.098-0.117c0.028-0.044,0.043-0.095,0.066-0.141c0.033-0.063,0.063-0.124,0.089-0.189
	C68.185,40.903,68.21,40.807,68.231,40.708z M42.246,42.201h11.13l-6.329,15.471L42.246,42.201z M43.332,38.438l3.672-5.183
	l4.842,5.183H43.332z M63.438,38.438h-4.082l2.195-4.008L63.438,38.438z M58.5,32.166l-2.722,4.969l-4.642-4.969H58.5z
	 M43.164,32.166l-3.321,4.686l-2.741-4.686H43.164z M33.748,33.888l2.662,4.551h-5.572L33.748,33.888z M38.307,42.201l3.96,12.765
	L31.459,42.201H38.307z M52.971,53.131l4.471-10.93h4.877L52.971,53.131z"/>
</svg>
