<?xml version="1.0" encoding="utf-8"?>
<!-- Generator: Adobe Illustrator 16.0.0, SVG Export Plug-In . SVG Version: 6.00 Build 0)  -->
<!DOCTYPE svg PUBLIC "-//W3C//DTD SVG 1.1//EN" "http://www.w3.org/Graphics/SVG/1.1/DTD/svg11.dtd">
<svg version="1.1" id="Layer_1" xmlns="http://www.w3.org/2000/svg" xmlns:xlink="http://www.w3.org/1999/xlink" x="0px" y="0px"
	 width="100px" height="100px" viewBox="0 0 100 100" enable-background="new 0 0 100 100" xml:space="preserve">
<path d="M62.747,26.847c-0.582-0.533-1.437-0.65-2.14-0.285L24.582,45.221c-0.709,0.368-1.109,1.145-0.997,1.936
	c0.112,0.792,0.714,1.427,1.497,1.582l15.063,2.984l4.125,14.095c0.224,0.766,0.906,1.308,1.702,1.352
	c0.035,0.001,0.07,0.002,0.104,0.002c0.758,0,1.445-0.454,1.738-1.16l15.396-37.057C63.514,28.224,63.328,27.382,62.747,26.847z
	 M52.973,34.755L40.939,48.042l-9.854-1.951L52.973,34.755z M46.385,59.643l-2.656-9.074l11.873-13.111L46.385,59.643z"/>
</svg>
