<?xml version="1.0" encoding="utf-8"?>
<!-- Generator: Adobe Illustrator 16.0.0, SVG Export Plug-In . SVG Version: 6.00 Build 0)  -->
<!DOCTYPE svg PUBLIC "-//W3C//DTD SVG 1.1//EN" "http://www.w3.org/Graphics/SVG/1.1/DTD/svg11.dtd">
<svg version="1.1" id="Layer_1" xmlns="http://www.w3.org/2000/svg" xmlns:xlink="http://www.w3.org/1999/xlink" x="0px" y="0px"
	 width="100px" height="100px" viewBox="0 0 100 100" enable-background="new 0 0 100 100" xml:space="preserve">
<g>
	<path d="M53.471,31.209c-12.638,0-22.919,10.282-22.919,22.919c0,12.638,10.282,22.92,22.919,22.92
		c12.637,0,22.919-10.282,22.919-22.92C76.39,41.491,66.108,31.209,53.471,31.209z M53.471,72.794
		c-10.294,0-18.668-8.374-18.668-18.667c0-10.294,8.375-18.668,18.668-18.668c10.293,0,18.667,8.374,18.667,18.668
		C72.138,64.42,63.765,72.794,53.471,72.794z"/>
	<path d="M53.964,57.503l-9.234-0.001c-0.567,0-1.101-0.221-1.502-0.622c-0.4-0.4-0.621-0.934-0.622-1.502
		c0-0.567,0.221-1.101,0.622-1.503c0.401-0.401,0.935-0.622,1.504-0.624h7.108l-0.001-8.556c0-0.566,0.221-1.101,0.623-1.502
		c0.4-0.4,0.934-0.621,1.505-0.623c0.567,0.001,1.1,0.222,1.501,0.624c0.402,0.402,0.623,0.936,0.623,1.503l0.001,10.681
		C56.09,56.548,55.136,57.502,53.964,57.503z"/>
</g>
</svg>
