<?xml version="1.0" encoding="utf-8"?>
<!-- Generator: Adobe Illustrator 16.0.0, SVG Export Plug-In . SVG Version: 6.00 Build 0)  -->
<!DOCTYPE svg PUBLIC "-//W3C//DTD SVG 1.1//EN" "http://www.w3.org/Graphics/SVG/1.1/DTD/svg11.dtd">
<svg version="1.1" id="Layer_1" xmlns="http://www.w3.org/2000/svg" xmlns:xlink="http://www.w3.org/1999/xlink" x="0px" y="0px"
	 width="100px" height="100px" viewBox="0 0 100 100" enable-background="new 0 0 100 100" xml:space="preserve">
<path d="M76.875,33.457l-16.464-6.512c-0.007-0.002-0.014-0.002-0.02-0.005c-0.088-0.034-0.18-0.051-0.271-0.071
	c-0.061-0.014-0.12-0.035-0.181-0.042c-0.077-0.009-0.155-0.002-0.233-0.002c-0.078,0-0.155-0.006-0.233,0.002
	c-0.06,0.008-0.118,0.029-0.177,0.042c-0.093,0.021-0.186,0.037-0.276,0.072c-0.006,0.002-0.012,0.002-0.019,0.005l-15.76,6.234
	l-15.76-6.234c-0.59-0.233-1.256-0.162-1.781,0.197c-0.524,0.357-0.838,0.949-0.838,1.584v36.904c0,0.786,0.48,1.493,1.21,1.781
	l16.464,6.512c0.021,0.009,0.043,0.005,0.064,0.012c0.207,0.074,0.421,0.123,0.64,0.123s0.434-0.049,0.641-0.123
	c0.021-0.007,0.043-0.003,0.064-0.012l15.76-6.234l15.76,6.234c0.228,0.09,0.466,0.135,0.705,0.135c0.378,0,0.754-0.112,1.077-0.332
	c0.524-0.356,0.839-0.949,0.839-1.583V35.237C78.086,34.452,77.605,33.745,76.875,33.457z M28.693,31.542l12.633,4.997v32.786
	l-12.633-4.997V31.542z M45.157,36.539l12.633-4.997v32.785l-12.633,4.997V36.539z M74.255,69.325l-12.633-4.997V31.542
	l12.633,4.997V69.325z"/>
</svg>
