<?xml version="1.0" encoding="utf-8"?>
<!-- Generator: Adobe Illustrator 16.0.0, SVG Export Plug-In . SVG Version: 6.00 Build 0)  -->
<!DOCTYPE svg PUBLIC "-//W3C//DTD SVG 1.1//EN" "http://www.w3.org/Graphics/SVG/1.1/DTD/svg11.dtd">
<svg version="1.1" id="Layer_1" xmlns="http://www.w3.org/2000/svg" xmlns:xlink="http://www.w3.org/1999/xlink" x="0px" y="0px"
	 width="100px" height="100px" viewBox="0 0 100 100" enable-background="new 0 0 100 100" xml:space="preserve">
<g>
	<path d="M70.238,16.783H40.71c-6.061,0-10.992,4.93-10.992,10.992v44.729c0,6.063,4.931,10.993,10.992,10.993h29.528
		c6.061,0,10.993-4.931,10.993-10.993V27.775C81.23,21.713,76.299,16.783,70.238,16.783z M35.367,27.775
		c0-2.947,2.397-5.344,5.343-5.344h29.528c2.947,0,5.344,2.396,5.344,5.344v44.729c0,2.947-2.397,5.344-5.344,5.344H40.71
		c-2.946,0-5.343-2.396-5.343-5.344V27.775z"/>
	<g>
		<circle cx="55.474" cy="73.726" r="2.401"/>
	</g>
</g>
</svg>
