<?xml version="1.0" encoding="utf-8"?>
<!-- Generator: Adobe Illustrator 16.0.0, SVG Export Plug-In . SVG Version: 6.00 Build 0)  -->
<!DOCTYPE svg PUBLIC "-//W3C//DTD SVG 1.1//EN" "http://www.w3.org/Graphics/SVG/1.1/DTD/svg11.dtd">
<svg version="1.1" id="Layer_1" xmlns="http://www.w3.org/2000/svg" xmlns:xlink="http://www.w3.org/1999/xlink" x="0px" y="0px"
	 width="100px" height="100px" viewBox="0 0 100 100" enable-background="new 0 0 100 100" xml:space="preserve">
<g>
	<g>
		<path d="M54.638,25.656c-15.42,0-27.965,12.547-27.965,27.967c0,15.419,12.545,27.966,27.965,27.966s27.965-12.547,27.965-27.966
			C82.603,38.203,70.058,25.656,54.638,25.656z M54.638,76.397c-12.561,0-22.777-10.216-22.777-22.774
			c0-12.563,10.217-22.778,22.777-22.778s22.777,10.216,22.777,22.778C77.415,66.182,67.198,76.397,54.638,76.397z"/>
	</g>
	<path d="M68.141,50.992h-9.988l-4.545-8.991c-0.583-1.153-1.99-1.613-3.141-1.031c-1.151,0.582-1.613,1.988-1.031,3.14l3.479,6.883
		h-9.444v-0.796c0-1.29-1.046-2.337-2.337-2.337s-2.338,1.047-2.338,2.337v6.268c0,1.29,1.047,2.337,2.338,2.337
		s2.337-1.047,2.337-2.337v-0.798h9.739l-3.774,7.468c-0.582,1.152-0.12,2.558,1.031,3.141c0.338,0.171,0.698,0.251,1.054,0.251
		c0.854,0,1.676-0.469,2.087-1.282l4.841-9.577h9.692c1.292,0,2.337-1.047,2.337-2.337S69.433,50.992,68.141,50.992z"/>
</g>
</svg>
