<?xml version="1.0" encoding="utf-8"?>
<!-- Generator: Adobe Illustrator 16.0.0, SVG Export Plug-In . SVG Version: 6.00 Build 0)  -->
<!DOCTYPE svg PUBLIC "-//W3C//DTD SVG 1.1//EN" "http://www.w3.org/Graphics/SVG/1.1/DTD/svg11.dtd">
<svg version="1.1" id="Layer_1" xmlns="http://www.w3.org/2000/svg" xmlns:xlink="http://www.w3.org/1999/xlink" x="0px" y="0px"
	 width="100px" height="100px" viewBox="0 0 100 100" enable-background="new 0 0 100 100" xml:space="preserve">
<g>
	<path d="M60.764,76.067c-0.95-0.795-2.366-0.672-3.162,0.277l-1.49,1.775V50.355c0-1.239-1.004-2.244-2.244-2.244
		s-2.244,1.005-2.244,2.244V78.12l-1.489-1.775c-0.796-0.948-2.21-1.074-3.162-0.277c-0.949,0.797-1.073,2.213-0.276,3.162
		l5.453,6.498c0.018,0.021,0.041,0.036,0.06,0.057c0.065,0.073,0.137,0.141,0.212,0.203c0.044,0.038,0.086,0.076,0.132,0.11
		c0.083,0.06,0.171,0.111,0.263,0.159c0.045,0.025,0.088,0.052,0.135,0.074c0.105,0.047,0.216,0.081,0.328,0.111
		c0.039,0.01,0.075,0.026,0.115,0.035c0.153,0.033,0.311,0.052,0.473,0.052c0.163,0,0.321-0.019,0.474-0.052
		c0.04-0.009,0.076-0.025,0.115-0.035c0.112-0.031,0.223-0.064,0.328-0.111c0.047-0.022,0.09-0.049,0.135-0.074
		c0.091-0.048,0.18-0.1,0.263-0.159c0.046-0.034,0.088-0.072,0.132-0.11c0.075-0.063,0.146-0.13,0.212-0.203
		c0.019-0.021,0.042-0.035,0.06-0.057l5.453-6.498C61.837,78.281,61.713,76.865,60.764,76.067z"/>
	<path d="M74.242,31.039c-0.832,0-1.664,0.062-2.489,0.181c-3.217-3.36-7.266-5.723-11.809-6.874c-0.06-0.016-0.12-0.029-0.18-0.04
		l-2.93-0.554c-3.585-4.483-9.011-7.117-14.804-7.117c-9.961,0-18.153,7.723-18.9,17.497c-6.747,2.546-11.281,8.969-11.281,16.356
		c0,9.653,7.855,17.508,17.51,17.508c2.491,0,4.929-0.526,7.168-1.535c2.756,2.659,6.072,4.602,9.672,5.75v-6.379
		c-2.566-1.124-4.886-2.798-6.791-5.034c-0.587-0.689-1.427-1.052-2.279-1.052c-0.554,0-1.114,0.153-1.61,0.472
		c-1.834,1.173-3.965,1.792-6.161,1.792c-6.355,0-11.525-5.169-11.525-11.523c0-5.31,3.761-10.027,8.942-11.22
		c1.412-0.324,2.389-1.614,2.318-3.062l-0.02-0.32c-0.007-0.098-0.016-0.197-0.016-0.296c0-7.152,5.819-12.97,12.971-12.97
		c4.325,0,8.351,2.146,10.77,5.74c0.556,0.827,1.487,1.322,2.482,1.322c0.004,0,0.009,0,0.014,0l0.675-0.003l2.589,0.488
		c3.859,0.998,7.245,3.15,9.794,6.229c0.741,0.896,1.93,1.281,3.052,0.989c0.932-0.241,1.886-0.362,2.835-0.362
		c6.325,0,11.471,5.146,11.471,11.471c0,6.325-5.146,11.469-11.471,11.469c-0.949,0-1.903-0.121-2.834-0.362
		c-1.124-0.292-2.313,0.095-3.052,0.988c-1.872,2.259-4.223,3.97-6.819,5.137v6.445c3.848-1.258,7.362-3.426,10.216-6.404
		c0.826,0.12,1.658,0.181,2.49,0.181c9.625,0,17.456-7.83,17.456-17.454C91.698,38.869,83.867,31.039,74.242,31.039z"/>
</g>
</svg>
