<?xml version="1.0" encoding="utf-8"?>
<!-- Generator: Adobe Illustrator 16.0.0, SVG Export Plug-In . SVG Version: 6.00 Build 0)  -->
<!DOCTYPE svg PUBLIC "-//W3C//DTD SVG 1.1//EN" "http://www.w3.org/Graphics/SVG/1.1/DTD/svg11.dtd">
<svg version="1.1" id="Layer_1" xmlns="http://www.w3.org/2000/svg" xmlns:xlink="http://www.w3.org/1999/xlink" x="0px" y="0px"
	 width="100px" height="100px" viewBox="0 0 100 100" enable-background="new 0 0 100 100" xml:space="preserve">
<g>
	<g>
		<path d="M40.859,68.742H30.19c-1.039,0-1.881-0.843-1.881-1.882V45.524c0-1.039,0.842-1.883,1.881-1.883h10.669
			c1.04,0,1.882,0.844,1.882,1.883V66.86C42.741,67.899,41.899,68.742,40.859,68.742z M32.072,64.979h6.905V47.405h-6.905V64.979z"
			/>
	</g>
	<g>
		<path d="M57.77,68.59H47.101c-1.039,0-1.882-0.843-1.882-1.882V37.166c0-1.038,0.843-1.882,1.882-1.882H57.77
			c1.04,0,1.882,0.844,1.882,1.882v29.542C59.651,67.747,58.809,68.59,57.77,68.59z M48.982,64.827h6.905V39.048h-6.905V64.827z"/>
	</g>
	<g>
		<path d="M74.952,68.59H64.283c-1.04,0-1.881-0.843-1.881-1.882V28.802c0-1.038,0.842-1.881,1.881-1.881h10.669
			c1.04,0,1.882,0.843,1.882,1.881v37.906C76.833,67.747,75.991,68.59,74.952,68.59z M66.165,64.827h6.905V30.685h-6.905V64.827z"/>
	</g>
	<g>
		<path d="M76.929,75.482H28.213c-1.04,0-1.882-0.843-1.882-1.882s0.842-1.881,1.882-1.881h48.716c1.04,0,1.881,0.842,1.881,1.881
			S77.969,75.482,76.929,75.482z"/>
	</g>
</g>
</svg>
