<?xml version="1.0" encoding="utf-8"?>
<!-- Generator: Adobe Illustrator 16.0.0, SVG Export Plug-In . SVG Version: 6.00 Build 0)  -->
<!DOCTYPE svg PUBLIC "-//W3C//DTD SVG 1.1//EN" "http://www.w3.org/Graphics/SVG/1.1/DTD/svg11.dtd">
<svg version="1.1" id="Layer_1" xmlns="http://www.w3.org/2000/svg" xmlns:xlink="http://www.w3.org/1999/xlink" x="0px" y="0px"
	 width="100px" height="100px" viewBox="0 0 100 100" enable-background="new 0 0 100 100" xml:space="preserve">
<g>
	<path d="M79.875,31.42h-8.959v-3.506h-8.959v3.506H47.35v-3.506h-8.959v3.506h-8.959c-1.291,0-2.336,1.047-2.336,2.337v43.237
		c0,1.29,1.045,2.337,2.336,2.337h50.443c1.291,0,2.338-1.047,2.338-2.337V33.757C82.213,32.467,81.166,31.42,79.875,31.42z
		 M77.539,74.656H31.77V36.094h45.77V74.656z"/>
	<path d="M38.391,47.975h2.922v2.921c0,0.861,0.697,1.559,1.559,1.559s1.559-0.697,1.559-1.559v-2.921h2.92
		c0.861,0,1.559-0.697,1.559-1.559s-0.697-1.558-1.559-1.558h-2.92v-2.922c0-0.861-0.697-1.558-1.559-1.558
		s-1.559,0.696-1.559,1.558v2.922h-2.922c-0.859,0-1.557,0.696-1.557,1.558S37.531,47.975,38.391,47.975z"/>
	<path d="M61.957,47.975h8.959c0.861,0,1.559-0.697,1.559-1.559s-0.697-1.558-1.559-1.558h-8.959c-0.859,0-1.557,0.696-1.557,1.558
		S61.098,47.975,61.957,47.975z"/>
</g>
</svg>
