<?xml version="1.0" encoding="utf-8"?>
<!-- Generator: Adobe Illustrator 16.0.0, SVG Export Plug-In . SVG Version: 6.00 Build 0)  -->
<!DOCTYPE svg PUBLIC "-//W3C//DTD SVG 1.1//EN" "http://www.w3.org/Graphics/SVG/1.1/DTD/svg11.dtd">
<svg version="1.1" id="Layer_1" xmlns="http://www.w3.org/2000/svg" xmlns:xlink="http://www.w3.org/1999/xlink" x="0px" y="0px"
	 width="100px" height="100px" viewBox="0 0 100 100" enable-background="new 0 0 100 100" xml:space="preserve">
<g>
	<path d="M42.469,47.377c5.067,0,9.19-5.533,9.19-12.334s-4.123-12.334-9.19-12.334s-9.19,5.533-9.19,12.334
		S37.401,47.377,42.469,47.377z M42.469,25.709c3.355,0,6.19,4.275,6.19,9.334s-2.834,9.334-6.19,9.334s-6.19-4.275-6.19-9.334
		S39.113,25.709,42.469,25.709z"/>
	<path d="M69.727,59.373c-0.19-0.256-0.37-0.498-0.466-0.707c-2.053-4.398-7.689-9.584-16.813-9.713l-0.351-0.002
		c-8.985,0-14.576,4.912-16.813,9.51c-0.077,0.156-0.247,0.361-0.427,0.576c-0.212,0.254-0.423,0.512-0.604,0.793
		c-1.89,2.941-2.853,6.25-2.711,9.318c0.15,3.26,1.512,5.877,3.835,7.369c0.937,0.604,1.95,0.908,3.011,0.908
		c2.191,0,4.196-1.234,6.519-2.664c1.476-0.908,3.002-1.848,4.698-2.551c0.191-0.063,0.968-0.158,2.241-0.158
		c1.515,0,2.6,0.133,2.833,0.215c1.654,0.73,3.107,1.688,4.513,2.613c2.154,1.418,4.188,2.758,6.395,2.758
		c0.946,0,1.866-0.248,2.732-0.742c4.778-2.715,5.688-10.162,2.03-16.602C70.164,59.971,69.945,59.67,69.727,59.373z M66.836,74.289
		c-0.421,0.238-0.818,0.35-1.25,0.35c-1.307,0-2.9-1.049-4.745-2.264c-1.438-0.947-3.067-2.02-4.95-2.852
		c-0.926-0.41-2.933-0.471-4.046-0.471c-1.629,0-2.76,0.127-3.362,0.375c-1.943,0.807-3.646,1.854-5.149,2.779
		c-1.934,1.189-3.604,2.219-4.946,2.219c-0.49,0-0.931-0.137-1.389-0.432c-1.483-0.953-2.356-2.723-2.461-4.984
		c-0.113-2.451,0.682-5.135,2.238-7.557c0.113-0.176,0.25-0.334,0.383-0.492c0.274-0.328,0.586-0.701,0.823-1.189
		c1.84-3.781,6.514-7.82,14.115-7.82l0.308,0.002c7.736,0.109,12.451,4.369,14.137,7.982c0.224,0.48,0.516,0.875,0.773,1.223
		c0.147,0.199,0.3,0.4,0.425,0.619C70.581,66.777,70.176,72.391,66.836,74.289z"/>
	<path d="M62.009,47.377c5.067,0,9.19-5.533,9.19-12.334s-4.123-12.334-9.19-12.334s-9.19,5.533-9.19,12.334
		S56.941,47.377,62.009,47.377z M62.009,25.709c3.355,0,6.19,4.275,6.19,9.334s-2.834,9.334-6.19,9.334s-6.19-4.275-6.19-9.334
		S58.653,25.709,62.009,25.709z"/>
	<path d="M77.102,41.043c-4.061,0-7.241,4.213-7.241,9.59c0,5.375,3.181,9.588,7.241,9.588s7.241-4.213,7.241-9.588
		C84.343,45.256,81.162,41.043,77.102,41.043z M77.102,57.221c-2.299,0-4.241-3.018-4.241-6.588c0-3.572,1.942-6.59,4.241-6.59
		s4.241,3.018,4.241,6.59C81.343,54.203,79.4,57.221,77.102,57.221z"/>
	<path d="M35.379,50.633c0-5.377-3.181-9.59-7.241-9.59s-7.241,4.213-7.241,9.59c0,5.375,3.181,9.588,7.241,9.588
		S35.379,56.008,35.379,50.633z M28.138,57.221c-2.299,0-4.241-3.018-4.241-6.588c0-3.572,1.942-6.59,4.241-6.59
		s4.241,3.018,4.241,6.59C32.379,54.203,30.437,57.221,28.138,57.221z"/>
</g>
</svg>
