<?xml version="1.0" encoding="utf-8"?>
<!-- Generator: Adobe Illustrator 16.0.0, SVG Export Plug-In . SVG Version: 6.00 Build 0)  -->
<!DOCTYPE svg PUBLIC "-//W3C//DTD SVG 1.1//EN" "http://www.w3.org/Graphics/SVG/1.1/DTD/svg11.dtd">
<svg version="1.1" id="Layer_1" xmlns="http://www.w3.org/2000/svg" xmlns:xlink="http://www.w3.org/1999/xlink" x="0px" y="0px"
	 width="100px" height="100px" viewBox="0 0 100 100" enable-background="new 0 0 100 100" xml:space="preserve">
<g>
	<path d="M74.221,38.023L49.258,26.891c-0.605-0.271-1.297-0.271-1.904,0L22.391,38.023c-0.814,0.363-1.352,1.161-1.383,2.052
		s0.447,1.724,1.234,2.144l24.963,13.312c0.344,0.185,0.723,0.275,1.1,0.275c0.379,0,0.756-0.091,1.102-0.275l24.963-13.312
		c0.787-0.42,1.266-1.252,1.234-2.144S75.035,38.386,74.221,38.023z M48.305,50.821L28.66,40.345l19.645-8.76l19.646,8.76
		L48.305,50.821z"/>
	<path d="M72.168,47.984L48.305,60.712L24.443,47.984c-1.143-0.61-2.557-0.178-3.162,0.962c-0.607,1.14-0.178,2.555,0.961,3.162
		l24.963,13.315c0.344,0.184,0.723,0.275,1.1,0.275c0.379,0,0.756-0.091,1.102-0.275l24.963-13.315
		c1.139-0.607,1.568-2.022,0.961-3.162S73.309,47.375,72.168,47.984z"/>
	<path d="M72.168,57.114L48.305,69.84L24.443,57.114c-1.143-0.61-2.557-0.176-3.162,0.962c-0.607,1.14-0.178,2.555,0.961,3.162
		l24.963,13.314c0.344,0.184,0.723,0.275,1.1,0.275c0.379,0,0.756-0.091,1.102-0.275l24.963-13.314
		c1.139-0.607,1.568-2.022,0.961-3.162C74.723,56.938,73.311,56.504,72.168,57.114z"/>
</g>
</svg>
