<?xml version="1.0" encoding="utf-8"?>
<!-- Generator: Adobe Illustrator 16.0.0, SVG Export Plug-In . SVG Version: 6.00 Build 0)  -->
<!DOCTYPE svg PUBLIC "-//W3C//DTD SVG 1.1//EN" "http://www.w3.org/Graphics/SVG/1.1/DTD/svg11.dtd">
<svg version="1.1" id="Layer_1" xmlns="http://www.w3.org/2000/svg" xmlns:xlink="http://www.w3.org/1999/xlink" x="0px" y="0px"
	 width="100px" height="100px" viewBox="0 0 100 100" enable-background="new 0 0 100 100" xml:space="preserve">
<path d="M52.42,27.432c-12.639,0-22.92,10.282-22.92,22.919c0,12.638,10.281,22.92,22.92,22.92c12.637,0,22.919-10.282,22.919-22.92
	C75.339,37.714,65.057,27.432,52.42,27.432z M52.42,69.018c-10.294,0-18.669-8.374-18.669-18.667c0-1.59,0.222-3.126,0.598-4.6
	c0.104-0.137,0.452-0.373,1.556,0.082c1.442,0.595,2.829,3.192,2.829,3.192s1.162,1.916,2.143,3.033s1.732,1.756,2.371,3.192
	s0.639,4.31,1.46,5.268c0.821,0.958,1.413,0,2.69,0c1.276,0,2.075-1.118,1.791-1.756c-0.283-0.639,1.082-3.991,1.401-6.065
	c0.319-2.075,0.479-1.437,0.957-2.634c0.479-1.197,3.353-1.995,3.991-2.447c0.638-0.451,0.638-0.985-1.277-1.145
	s-4.15-2.075-4.788-3.512c-0.639-1.437,0-2.637,0-2.637s0.798,0.402,2.074,0.036c1.277-0.367,1.437,2.122,2.555,2.761
	c1.117,0.639,2.394,0.639,3.032,0.868c0.639,0.229,1.117-0.868,1.277-2.783c0.159-1.916,0,0,0.639,0.16
	c0.638,0.16,1.437-0.16,2.554,0s0.798,3.126,0.798,3.126s0.639,1.662,1.402,2.62c0.764,0.958,1.471,0.319,2.134,0
	c0.662-0.319-0.024-1.756,0.01-2.394c0.034-0.639-0.034-1.596,0-2.235c0.021-0.399,1.682-0.734,2.927-0.931
	c1.409,2.624,2.213,5.62,2.213,8.801C71.087,60.644,62.713,69.018,52.42,69.018z"/>
</svg>
