<?xml version="1.0" encoding="utf-8"?>
<!-- Generator: Adobe Illustrator 16.0.0, SVG Export Plug-In . SVG Version: 6.00 Build 0)  -->
<!DOCTYPE svg PUBLIC "-//W3C//DTD SVG 1.1//EN" "http://www.w3.org/Graphics/SVG/1.1/DTD/svg11.dtd">
<svg version="1.1" id="Layer_1" xmlns="http://www.w3.org/2000/svg" xmlns:xlink="http://www.w3.org/1999/xlink" x="0px" y="0px"
	 width="100px" height="100px" viewBox="0 0 100 100" enable-background="new 0 0 100 100" xml:space="preserve">
<g>
	<g>
		<path d="M78.737,78.313H18.642c-1.291,0-2.338-1.047-2.338-2.337V30.159c0-1.291,1.047-2.337,2.338-2.337h60.096
			c1.291,0,2.337,1.047,2.337,2.337v45.817C81.074,77.267,80.028,78.313,78.737,78.313z M20.979,73.639H76.4V32.496H20.979V73.639z"
			/>
	</g>
	<g>
		<g>
			<path d="M31.355,52.547c-4.081,0-7.401-3.32-7.401-7.401s3.32-7.401,7.401-7.401s7.401,3.32,7.401,7.401
				S35.437,52.547,31.355,52.547z M31.355,42.419c-1.503,0-2.727,1.223-2.727,2.727s1.224,2.727,2.727,2.727
				s2.727-1.223,2.727-2.727S32.858,42.419,31.355,42.419z"/>
		</g>
		<g>
			<path d="M36.419,68.388H26.292c-1.291,0-2.338-1.047-2.338-2.337V55.923c0-1.29,1.047-2.337,2.338-2.337h10.127
				c1.291,0,2.338,1.047,2.338,2.337v10.127C38.757,67.341,37.71,68.388,36.419,68.388z M28.629,63.714h5.453V58.26h-5.453V63.714z"
				/>
		</g>
		<g>
			<path d="M71.087,43.588H48.829c-1.291,0-2.337-1.047-2.337-2.337c0-1.291,1.046-2.337,2.337-2.337h22.258
				c1.291,0,2.337,1.047,2.337,2.337C73.424,42.541,72.378,43.588,71.087,43.588z"/>
		</g>
		<g>
			<path d="M71.087,51.378H48.829c-1.291,0-2.337-1.047-2.337-2.337c0-1.291,1.046-2.337,2.337-2.337h22.258
				c1.291,0,2.337,1.047,2.337,2.337C73.424,50.332,72.378,51.378,71.087,51.378z"/>
		</g>
		<g>
			<path d="M71.087,59.169H48.829c-1.291,0-2.337-1.047-2.337-2.337c0-1.29,1.046-2.337,2.337-2.337h22.258
				c1.291,0,2.337,1.047,2.337,2.337C73.424,58.122,72.378,59.169,71.087,59.169z"/>
		</g>
		<g>
			<path d="M71.087,66.959H48.829c-1.291,0-2.337-1.047-2.337-2.337c0-1.29,1.046-2.337,2.337-2.337h22.258
				c1.291,0,2.337,1.047,2.337,2.337C73.424,65.913,72.378,66.959,71.087,66.959z"/>
		</g>
	</g>
</g>
</svg>
