<?xml version="1.0" encoding="utf-8"?>
<!-- Generator: Adobe Illustrator 16.0.0, SVG Export Plug-In . SVG Version: 6.00 Build 0)  -->
<!DOCTYPE svg PUBLIC "-//W3C//DTD SVG 1.1//EN" "http://www.w3.org/Graphics/SVG/1.1/DTD/svg11.dtd">
<svg version="1.1" id="Layer_1" xmlns="http://www.w3.org/2000/svg" xmlns:xlink="http://www.w3.org/1999/xlink" x="0px" y="0px"
	 width="100px" height="100px" viewBox="0 0 100 100" enable-background="new 0 0 100 100" xml:space="preserve">
<path d="M81.371,47.353H76.32c-0.738-12.148-10.367-21.93-22.449-22.912v-4.588c0-1.104-0.896-2-2-2c-1.105,0-2,0.896-2,2v4.588
	C37.787,25.423,28.158,35.204,27.42,47.353h-5.049c-1.105,0-2,0.896-2,2c0,1.105,0.895,2,2,2h5.125
	c1.189,11.684,10.625,20.957,22.375,21.912v5.588c0,1.105,0.895,2,2,2c1.104,0,2-0.895,2-2v-5.588
	c11.748-0.955,21.184-10.229,22.373-21.912h5.127c1.104,0,2-0.895,2-2C83.371,48.249,82.475,47.353,81.371,47.353z M72.295,47.353
	h-4.758v-2.4c0-1.104-0.896-2-2-2c-1.105,0-2,0.896-2,2v2.4h-2v-2.4c0-1.104-0.896-2-2-2c-1.105,0-2,0.896-2,2v2.4h-3.666v-4h2.066
	c1.104,0,2-0.895,2-2c0-1.104-0.896-2-2-2h-2.066v-2h2.066c1.104,0,2-0.895,2-2c0-1.104-0.896-2-2-2h-2.066v-4.898
	C63.744,29.415,71.57,37.413,72.295,47.353z M49.871,28.454v4.898h-2.066c-1.105,0-2,0.896-2,2c0,1.105,0.895,2,2,2h2.066v2h-2.066
	c-1.105,0-2,0.896-2,2c0,1.105,0.895,2,2,2h2.066v4h-3.668v-2.4c0-1.104-0.895-2-2-2c-1.104,0-2,0.896-2,2v2.4h-2v-2.4
	c0-1.104-0.895-2-2-2c-1.104,0-2,0.896-2,2v2.4h-4.756C32.172,37.413,39.996,29.415,49.871,28.454z M31.539,51.353h4.664v1.732
	c0,1.105,0.896,2,2,2c1.105,0,2-0.895,2-2v-1.732h2v1.732c0,1.105,0.896,2,2,2c1.105,0,2-0.895,2-2v-1.732h3.668v3.334h-2.066
	c-1.105,0-2,0.895-2,2c0,1.104,0.895,2,2,2h2.066v2h-2.066c-1.105,0-2,0.895-2,2c0,1.104,0.895,2,2,2h2.066v4.564
	C40.33,68.323,32.697,60.825,31.539,51.353z M53.871,69.251v-4.564h2.066c1.104,0,2-0.896,2-2c0-1.105-0.896-2-2-2h-2.066v-2h2.066
	c1.104,0,2-0.896,2-2c0-1.105-0.896-2-2-2h-2.066v-3.334h3.666v1.732c0,1.105,0.895,2,2,2c1.104,0,2-0.895,2-2v-1.732h2v1.732
	c0,1.105,0.895,2,2,2c1.104,0,2-0.895,2-2v-1.732h4.664C71.043,60.825,63.412,68.323,53.871,69.251z"/>
</svg>
