<?xml version="1.0" encoding="utf-8"?>
<!-- Generator: Adobe Illustrator 16.0.0, SVG Export Plug-In . SVG Version: 6.00 Build 0)  -->
<!DOCTYPE svg PUBLIC "-//W3C//DTD SVG 1.1//EN" "http://www.w3.org/Graphics/SVG/1.1/DTD/svg11.dtd">
<svg version="1.1" id="Layer_1" xmlns="http://www.w3.org/2000/svg" xmlns:xlink="http://www.w3.org/1999/xlink" x="0px" y="0px"
	 width="100px" height="100px" viewBox="0 0 100 100" enable-background="new 0 0 100 100" xml:space="preserve">
<path d="M62.398,27.736c-1.178,0-2.133,0.956-2.133,2.134s0.955,2.134,2.133,2.134h2.393l-8.779,8.778
	c-2.855-2.322-6.49-3.72-10.447-3.72c-9.15,0-16.594,7.443-16.594,16.593s7.443,16.593,16.594,16.593
	c9.148,0,16.592-7.443,16.592-16.593c0-3.655-1.203-7.027-3.213-9.771l8.865-8.864v1.889c0,1.178,0.955,2.134,2.133,2.134
	s2.133-0.956,2.133-2.134v-9.172H62.398z M45.564,65.981c-6.797,0-12.326-5.529-12.326-12.326s5.529-12.326,12.326-12.326
	c6.795,0,12.324,5.529,12.324,12.326S52.359,65.981,45.564,65.981z"/>
</svg>
