<?xml version="1.0" encoding="utf-8"?>
<!-- Generator: Adobe Illustrator 16.0.0, SVG Export Plug-In . SVG Version: 6.00 Build 0)  -->
<!DOCTYPE svg PUBLIC "-//W3C//DTD SVG 1.1//EN" "http://www.w3.org/Graphics/SVG/1.1/DTD/svg11.dtd">
<svg version="1.1" id="Layer_1" xmlns="http://www.w3.org/2000/svg" xmlns:xlink="http://www.w3.org/1999/xlink" x="0px" y="0px"
	 width="100px" height="100px" viewBox="0 0 100 100" enable-background="new 0 0 100 100" xml:space="preserve">
<path d="M73.16,26.353H51.076H28.994c-1.291,0-2.338,1.047-2.338,2.337v22.083v22.084c0,1.291,1.047,2.337,2.338,2.337h22.082H73.16
	c1.291,0,2.338-1.047,2.338-2.337V50.773V28.69C75.498,27.4,74.451,26.353,73.16,26.353z M70.824,48.436h-17.41V31.027h17.41V48.436
	z M31.33,31.027h17.41v17.408H31.33V31.027z M31.33,53.11h17.41v17.41H31.33V53.11z M70.824,70.52h-17.41V53.11h17.41V70.52z"/>
</svg>
