<?xml version="1.0" encoding="utf-8"?>
<!-- Generator: Adobe Illustrator 16.0.0, SVG Export Plug-In . SVG Version: 6.00 Build 0)  -->
<!DOCTYPE svg PUBLIC "-//W3C//DTD SVG 1.1//EN" "http://www.w3.org/Graphics/SVG/1.1/DTD/svg11.dtd">
<svg version="1.1" id="Layer_1" xmlns="http://www.w3.org/2000/svg" xmlns:xlink="http://www.w3.org/1999/xlink" x="0px" y="0px"
	 width="100px" height="100px" viewBox="0 0 100 100" enable-background="new 0 0 100 100" xml:space="preserve">
<path d="M75.703,24.909c-0.731-0.725-1.832-0.926-2.775-0.508l-42.667,19c-1.024,0.455-1.619,1.537-1.456,2.646
	c0.162,1.109,1.044,1.975,2.156,2.117l19.301,2.469l1.522,21.561c0.081,1.148,0.937,2.094,2.072,2.287
	c0.142,0.025,0.282,0.037,0.423,0.037c0.981,0,1.891-0.58,2.292-1.506l19.667-45.332C76.648,26.735,76.436,25.634,75.703,24.909z
	 M56.052,61.647l-0.946-13.41c-0.084-1.188-0.995-2.152-2.177-2.303l-12.479-1.598l28.646-12.756L56.052,61.647z"/>
</svg>
