<?xml version="1.0" encoding="utf-8"?>
<!-- Generator: Adobe Illustrator 16.0.0, SVG Export Plug-In . SVG Version: 6.00 Build 0)  -->
<!DOCTYPE svg PUBLIC "-//W3C//DTD SVG 1.1//EN" "http://www.w3.org/Graphics/SVG/1.1/DTD/svg11.dtd">
<svg version="1.1" id="Layer_1" xmlns="http://www.w3.org/2000/svg" xmlns:xlink="http://www.w3.org/1999/xlink" x="0px" y="0px"
	 width="100px" height="100px" viewBox="0 0 100 100" enable-background="new 0 0 100 100" xml:space="preserve">
<g>
	<g>
		<path d="M52.346,69.033c-9.428,0-18.675-5.251-27.485-15.606c-0.684-0.804-0.744-1.965-0.148-2.835
			c0.479-0.7,11.914-17.124,27.963-17.124c9.511,0,18.429,5.75,26.506,17.089c0.564,0.793,0.579,1.852,0.037,2.659
			C78.786,53.861,68.409,69.033,52.346,69.033z M29.652,51.805c7.487,8.332,15.115,12.553,22.694,12.553
			c11.041,0,19.298-9.044,22.025-12.465c-6.859-9.126-14.151-13.752-21.694-13.752C41.633,38.141,32.664,48.042,29.652,51.805z"/>
	</g>
	<path d="M51.96,40.002c-6.212,0-11.247,5.035-11.247,11.248c0,6.211,5.035,11.247,11.247,11.247
		c6.211,0,11.247-5.036,11.247-11.247C63.207,45.038,58.172,40.002,51.96,40.002z M55.989,51.417c-2.503,0-4.533-2.029-4.533-4.531
		c0-2.504,2.03-4.533,4.533-4.533s4.533,2.029,4.533,4.533C60.522,49.387,58.492,51.417,55.989,51.417z"/>
</g>
</svg>
