<?xml version="1.0" encoding="utf-8"?>
<!-- Generator: Adobe Illustrator 16.0.0, SVG Export Plug-In . SVG Version: 6.00 Build 0)  -->
<!DOCTYPE svg PUBLIC "-//W3C//DTD SVG 1.1//EN" "http://www.w3.org/Graphics/SVG/1.1/DTD/svg11.dtd">
<svg version="1.1" id="Layer_1" xmlns="http://www.w3.org/2000/svg" xmlns:xlink="http://www.w3.org/1999/xlink" x="0px" y="0px"
	 width="100px" height="100px" viewBox="0 0 100 100" enable-background="new 0 0 100 100" xml:space="preserve">
<g>
	<path d="M49.376,35.346c-1.652,0-2.992,1.341-2.992,2.992c0,1.654,1.34,2.992,2.992,2.992c3.656,0,6.921,2.042,8.524,5.333
		c0.519,1.062,1.583,1.68,2.691,1.68c0.441,0,0.888-0.097,1.309-0.303c1.486-0.723,2.104-2.514,1.379-4.001
		C60.666,38.677,55.337,35.346,49.376,35.346z"/>
	<path d="M81.566,76.442l-9.971-9.972c2.952-4.152,4.705-9.213,4.705-14.685c0-14.025-11.41-25.435-25.435-25.435
		s-25.434,11.41-25.434,25.435c0,14.024,11.409,25.434,25.434,25.434c5.859,0,11.245-2.01,15.549-5.351l9.862,9.862
		c0.73,0.73,1.689,1.096,2.645,1.096c0.958,0,1.915-0.365,2.645-1.096C83.027,80.271,83.027,77.903,81.566,76.442z M31.417,51.786
		c0-10.725,8.726-19.45,19.45-19.45s19.45,8.725,19.45,19.45c0,4.462-1.525,8.566-4.063,11.852
		c-0.839,1.085-1.781,2.086-2.827,2.973c-3.392,2.878-7.773,4.625-12.56,4.625C40.142,71.235,31.417,62.51,31.417,51.786z"/>
</g>
</svg>
