<?xml version="1.0" encoding="utf-8"?>
<!-- Generator: Adobe Illustrator 16.0.0, SVG Export Plug-In . SVG Version: 6.00 Build 0)  -->
<!DOCTYPE svg PUBLIC "-//W3C//DTD SVG 1.1//EN" "http://www.w3.org/Graphics/SVG/1.1/DTD/svg11.dtd">
<svg version="1.1" id="Layer_1" xmlns="http://www.w3.org/2000/svg" xmlns:xlink="http://www.w3.org/1999/xlink" x="0px" y="0px"
	 width="100px" height="100px" viewBox="0 0 100 100" enable-background="new 0 0 100 100" xml:space="preserve">
<g>
	<path d="M57.168,31.778h-0.561c1.701-1.978,2.736-4.543,2.736-7.35c0-6.228-5.067-11.297-11.296-11.297
		c-6.228,0-11.296,5.069-11.296,11.297c0,2.807,1.036,5.372,2.736,7.35h-0.56c-3.146,0-5.702,2.558-5.702,5.702v18.738
		c0,3.145,2.557,5.703,5.702,5.703h0.218v20.493c0,3.251,1.712,5.704,3.983,5.704h9.835c2.272,0,3.984-2.453,3.984-5.704V61.922
		h0.219c3.145,0,5.701-2.559,5.701-5.703V37.48C62.869,34.336,60.313,31.778,57.168,31.778z M40.699,24.429
		c0-4.053,3.296-7.351,7.349-7.351c4.052,0,7.349,3.298,7.349,7.351c0,4.054-3.297,7.35-7.349,7.35
		C43.995,31.778,40.699,28.482,40.699,24.429z M58.924,56.219c0,0.968-0.788,1.756-1.756,1.756h-2.191
		c-1.091,0-1.973,0.883-1.973,1.973v22.468c0,0.882-0.228,1.489-0.385,1.756h-9.143c-0.156-0.267-0.383-0.874-0.383-1.756V59.947
		c0-1.09-0.885-1.973-1.975-1.973h-2.19c-0.969,0-1.756-0.788-1.756-1.756V37.48c0-0.968,0.787-1.756,1.756-1.756h18.239
		c0.968,0,1.756,0.788,1.756,1.756V56.219z"/>
	<path d="M65.982,64.439h-0.043v-1.974c0-1.091-0.883-1.972-1.974-1.972c-1.089,0-1.974,0.881-1.974,1.972v1.974h-0.043
		c-1.909,0-3.465,1.554-3.465,3.465v16.969c0,1.91,1.556,3.465,3.465,3.465h4.033c1.91,0,3.465-1.555,3.465-3.465V67.904
		C69.447,65.993,67.893,64.439,65.982,64.439z M65.501,84.39h-3.069V68.385h3.069V84.39z"/>
	<g>
		<path d="M48.048,42.152c-1.091,0-1.973,0.885-1.973,1.974v11.188c0,1.092,0.882,1.974,1.973,1.974s1.973-0.882,1.973-1.974V44.126
			C50.021,43.037,49.139,42.152,48.048,42.152z"/>
		<circle cx="48.048" cy="39.689" r="1.748"/>
	</g>
</g>
</svg>
