<?xml version="1.0" encoding="utf-8"?>
<!-- Generator: Adobe Illustrator 16.0.0, SVG Export Plug-In . SVG Version: 6.00 Build 0)  -->
<!DOCTYPE svg PUBLIC "-//W3C//DTD SVG 1.1//EN" "http://www.w3.org/Graphics/SVG/1.1/DTD/svg11.dtd">
<svg version="1.1" id="Layer_1" xmlns="http://www.w3.org/2000/svg" xmlns:xlink="http://www.w3.org/1999/xlink" x="0px" y="0px"
	 width="100px" height="100px" viewBox="0 0 100 100" enable-background="new 0 0 100 100" xml:space="preserve">
<path d="M57.2,46.828c0.417,0.417,0.962,0.625,1.508,0.625s1.091-0.208,1.508-0.625l5.332-5.331
	c0.001-0.002,0.002-0.002,0.002-0.002l1.508-1.508l-1.507-1.507c0,0-0.002-0.002-0.003-0.003L60.572,33.5
	c-0.833-0.833-2.183-0.833-3.017,0c-0.833,0.834-0.833,2.184,0,3.017l1.336,1.336H42.708c-6.666,0-12.088,5.424-12.088,12.089
	S36.043,62.03,42.708,62.03h21.333c1.178,0,2.133-0.955,2.133-2.133s-0.955-2.133-2.133-2.133H42.708
	c-4.313,0-7.822-3.51-7.822-7.822s3.509-7.822,7.822-7.822h16.183L57.2,43.811C56.366,44.645,56.366,45.995,57.2,46.828z"/>
</svg>
