<?xml version="1.0" encoding="utf-8"?>
<!-- Generator: Adobe Illustrator 16.0.0, SVG Export Plug-In . SVG Version: 6.00 Build 0)  -->
<!DOCTYPE svg PUBLIC "-//W3C//DTD SVG 1.1//EN" "http://www.w3.org/Graphics/SVG/1.1/DTD/svg11.dtd">
<svg version="1.1" id="Layer_1" xmlns="http://www.w3.org/2000/svg" xmlns:xlink="http://www.w3.org/1999/xlink" x="0px" y="0px"
	 width="100px" height="100px" viewBox="0 0 100 100" enable-background="new 0 0 100 100" xml:space="preserve">
<g>
	<rect x="70.2" y="46.587" width="2.122" height="2.123"/>
	<rect x="70.2" y="51.566" width="2.122" height="2.122"/>
	<path d="M74.958,42.527H61.33v-6.307c0-0.823-0.666-1.489-1.49-1.489H32.006c-0.396,0-0.775,0.156-1.055,0.436
		s-0.436,0.659-0.436,1.054v27.835c0,0.411,0.166,0.783,0.436,1.053c0.27,0.272,0.643,0.439,1.055,0.439H59.84
		c0.396,0,0.775-0.157,1.055-0.439c0.279-0.279,0.436-0.658,0.436-1.053v-6.308h13.628V42.527z M58.349,62.565H33.497V37.713h24.852
		V62.565z M73.704,56.493H61.33V43.782h12.374V56.493z"/>
</g>
</svg>
