<?xml version="1.0" encoding="utf-8"?>
<!-- Generator: Adobe Illustrator 16.0.0, SVG Export Plug-In . SVG Version: 6.00 Build 0)  -->
<!DOCTYPE svg PUBLIC "-//W3C//DTD SVG 1.1//EN" "http://www.w3.org/Graphics/SVG/1.1/DTD/svg11.dtd">
<svg version="1.1" id="Layer_1" xmlns="http://www.w3.org/2000/svg" xmlns:xlink="http://www.w3.org/1999/xlink" x="0px" y="0px"
	 width="100px" height="100px" viewBox="0 0 100 100" enable-background="new 0 0 100 100" xml:space="preserve">
<g>
	<path d="M47.422,27.653H29.756c-1.291,0-2.338,1.047-2.338,2.337v17.667c0,1.291,1.047,2.337,2.338,2.337h17.666
		c1.291,0,2.338-1.047,2.338-2.337V29.99C49.76,28.7,48.713,27.653,47.422,27.653z M45.084,45.32H32.092V32.328h12.992V45.32z"/>
	<path d="M71.322,27.653H53.654c-1.291,0-2.338,1.047-2.338,2.337v17.667c0,1.291,1.047,2.337,2.338,2.337h17.668
		c1.291,0,2.336-1.047,2.336-2.337V29.99C73.658,28.7,72.613,27.653,71.322,27.653z M68.984,45.32H55.992V32.328h12.992V45.32z"/>
	<path d="M47.422,51.553H29.756c-1.291,0-2.338,1.047-2.338,2.337v17.667c0,1.291,1.047,2.337,2.338,2.337h17.666
		c1.291,0,2.338-1.047,2.338-2.337V53.89C49.76,52.6,48.713,51.553,47.422,51.553z M45.084,69.22H32.092V56.227h12.992V69.22z"/>
	<path d="M71.322,51.553H53.654c-1.291,0-2.338,1.047-2.338,2.337v17.667c0,1.291,1.047,2.337,2.338,2.337h17.668
		c1.291,0,2.336-1.047,2.336-2.337V53.89C73.658,52.6,72.613,51.553,71.322,51.553z M68.984,69.22H55.992V56.227h12.992V69.22z"/>
</g>
</svg>
