<?xml version="1.0" encoding="utf-8"?>
<!-- Generator: Adobe Illustrator 16.0.0, SVG Export Plug-In . SVG Version: 6.00 Build 0)  -->
<!DOCTYPE svg PUBLIC "-//W3C//DTD SVG 1.1//EN" "http://www.w3.org/Graphics/SVG/1.1/DTD/svg11.dtd">
<svg version="1.1" id="Layer_1" xmlns="http://www.w3.org/2000/svg" xmlns:xlink="http://www.w3.org/1999/xlink" x="0px" y="0px"
	 width="100px" height="100px" viewBox="0 0 100 100" enable-background="new 0 0 100 100" xml:space="preserve">
<path d="M72.721,38.989c-0.813-0.146-1.594,0.4-1.738,1.217c-1.181,6.689-5.666,11.98-11.475,14.502l-3.752-10.68
	c2.205-1.369,3.681-3.803,3.681-6.584c0-3.76-2.692-6.9-6.25-7.602v-5.648c0-0.828-0.671-1.5-1.5-1.5s-1.5,0.672-1.5,1.5v5.648
	c-3.558,0.701-6.25,3.842-6.25,7.602c0,2.838,1.537,5.316,3.818,6.668L37.271,73.948c-0.275,0.781,0.136,1.637,0.918,1.912
	c0.165,0.057,0.332,0.084,0.497,0.084c0.619,0,1.198-0.385,1.415-1.002l10.482-29.836c0.361,0.053,0.728,0.088,1.103,0.088
	c0.43,0,0.849-0.043,1.261-0.111l3.722,10.594c-2.628,0.686-5.434,0.85-8.278,0.344c-0.813-0.145-1.593,0.402-1.738,1.217
	c-0.144,0.816,0.4,1.594,1.216,1.738c1.321,0.232,2.644,0.348,3.958,0.348c1.985,0,3.944-0.277,5.843-0.795l5.767,16.414
	c0.217,0.617,0.796,1.002,1.415,1.002c0.165,0,0.333-0.027,0.497-0.084c0.782-0.275,1.193-1.131,0.918-1.912l-5.761-16.396
	c1.452-0.615,2.854-1.375,4.176-2.301c4.923-3.447,8.21-8.604,9.254-14.523C74.081,39.913,73.537,39.133,72.721,38.989z
	 M51.923,42.17l-0.154-0.439l-0.16,0.455c-1.067-0.018-2.039-0.396-2.825-1.008c-1.117-0.871-1.849-2.213-1.849-3.734
	c0-2.619,2.131-4.75,4.75-4.75s4.75,2.131,4.75,4.75c0,1.463-0.678,2.756-1.72,3.627C53.95,41.713,52.986,42.116,51.923,42.17z"/>
</svg>
