<?xml version="1.0" encoding="utf-8"?>
<!-- Generator: Adobe Illustrator 16.0.0, SVG Export Plug-In . SVG Version: 6.00 Build 0)  -->
<!DOCTYPE svg PUBLIC "-//W3C//DTD SVG 1.1//EN" "http://www.w3.org/Graphics/SVG/1.1/DTD/svg11.dtd">
<svg version="1.1" id="Layer_1" xmlns="http://www.w3.org/2000/svg" xmlns:xlink="http://www.w3.org/1999/xlink" x="0px" y="0px"
	 width="100px" height="100px" viewBox="0 0 100 100" enable-background="new 0 0 100 100" xml:space="preserve">
<path d="M80.373,23.437c-0.666-0.342-1.469-0.283-2.078,0.154L62.127,35.177L45.959,23.591c-0.041-0.029-0.089-0.043-0.132-0.07
	c-0.042-0.025-0.075-0.061-0.12-0.084c-0.039-0.02-0.081-0.025-0.121-0.043c-0.087-0.037-0.174-0.066-0.264-0.092
	c-0.086-0.023-0.172-0.043-0.26-0.055c-0.09-0.012-0.178-0.018-0.27-0.018c-0.091,0-0.18,0.006-0.27,0.018
	c-0.088,0.012-0.172,0.031-0.258,0.055c-0.091,0.025-0.178,0.055-0.266,0.094c-0.039,0.016-0.081,0.021-0.119,0.041
	c-0.045,0.023-0.078,0.059-0.119,0.084c-0.043,0.025-0.092,0.039-0.133,0.07L26.296,36.013c-0.524,0.375-0.835,0.98-0.835,1.625
	v37.496c0,0.75,0.42,1.436,1.086,1.779c0.289,0.146,0.602,0.221,0.914,0.221c0.41,0,0.818-0.127,1.165-0.375l16.168-11.586
	l16.168,11.586c0.036,0.025,0.079,0.035,0.116,0.059c0.047,0.029,0.086,0.07,0.135,0.096c0.067,0.033,0.139,0.051,0.208,0.076
	c0.054,0.02,0.104,0.043,0.16,0.059c0.18,0.053,0.362,0.086,0.546,0.086s0.366-0.033,0.546-0.086
	c0.056-0.016,0.106-0.039,0.16-0.059c0.069-0.025,0.141-0.043,0.208-0.076c0.049-0.025,0.088-0.066,0.135-0.096
	c0.037-0.023,0.08-0.033,0.116-0.059l17.333-12.42c0.523-0.377,0.835-0.982,0.835-1.627V25.216
	C81.46,24.466,81.041,23.78,80.373,23.437z M29.461,38.665l13.333-9.555v32.574l-13.333,9.555V38.665z M46.794,29.11l13.333,9.555
	v32.574l-13.333-9.555V29.11z M77.46,61.685l-13.333,9.555V38.665L77.46,29.11V61.685z"/>
</svg>
