<?xml version="1.0" encoding="utf-8"?>
<!-- Generator: Adobe Illustrator 16.0.0, SVG Export Plug-In . SVG Version: 6.00 Build 0)  -->
<!DOCTYPE svg PUBLIC "-//W3C//DTD SVG 1.1//EN" "http://www.w3.org/Graphics/SVG/1.1/DTD/svg11.dtd">
<svg version="1.1" id="Layer_1" xmlns="http://www.w3.org/2000/svg" xmlns:xlink="http://www.w3.org/1999/xlink" x="0px" y="0px"
	 width="100px" height="100px" viewBox="0 0 100 100" enable-background="new 0 0 100 100" xml:space="preserve">
<g>
	<path d="M24.925,56.614h39.666c1.656,0,3.002-1.347,3.002-3c0-1.656-1.346-3.002-3.002-3.002H24.926l5.784-5.782
		c1.165-1.17,1.165-3.072-0.006-4.248c-0.568-0.563-1.32-0.874-2.12-0.874s-1.553,0.311-2.122,0.878L15.575,51.474
		c-0.283,0.277-0.508,0.607-0.676,1.01c-0.146,0.365-0.221,0.746-0.221,1.129c0,0.386,0.074,0.767,0.229,1.147
		c0.155,0.379,0.381,0.712,0.65,0.974l10.903,10.906c0.566,0.568,1.32,0.879,2.122,0.879c0.8,0,1.554-0.312,2.126-0.881
		c1.162-1.168,1.164-3.069-0.003-4.244L24.925,56.614z"/>
	<path d="M78.731,26.748h-33.74c-5.513,0-9.998,4.487-9.998,10.001l0.004,8.886c0.037,1.616,1.381,2.932,2.997,2.932
		c0.981,0,1.86-0.484,2.409-1.225l0.592-0.009V36.75c0-2.205,1.793-3.999,3.996-3.999h33.74c2.203,0,3.997,1.794,3.997,3.999v33.738
		c0,2.205-1.794,3.999-3.997,3.999h-33.74c-2.203,0-3.996-1.794-3.996-3.999l-0.007-10.611h-0.585
		c-0.543-0.736-1.416-1.208-2.409-1.208c-1.634,0-2.951,1.284-3.001,3.002v8.817c0,5.514,4.485,10.001,9.998,10.001h33.74
		c5.514,0,10-4.487,10-10.001V36.75C88.731,31.235,84.245,26.748,78.731,26.748z"/>
</g>
</svg>
