<?xml version="1.0" encoding="utf-8"?>
<!-- Generator: Adobe Illustrator 16.0.0, SVG Export Plug-In . SVG Version: 6.00 Build 0)  -->
<!DOCTYPE svg PUBLIC "-//W3C//DTD SVG 1.1//EN" "http://www.w3.org/Graphics/SVG/1.1/DTD/svg11.dtd">
<svg version="1.1" id="Layer_1" xmlns="http://www.w3.org/2000/svg" xmlns:xlink="http://www.w3.org/1999/xlink" x="0px" y="0px"
	 width="100px" height="100px" viewBox="0 0 100 100" enable-background="new 0 0 100 100" xml:space="preserve">
<g>
	<path d="M50.05,61.127c10.075,0,18.272-8.197,18.272-18.273S60.125,24.58,50.05,24.58s-18.272,8.197-18.272,18.273
		S39.975,61.127,50.05,61.127z M50.05,28.58c7.87,0,14.272,6.404,14.272,14.273c0,7.871-6.402,14.273-14.272,14.273
		s-14.272-6.402-14.272-14.273C35.777,34.984,42.18,28.58,50.05,28.58z"/>
	<path d="M67.633,60.438c9.725-9.725,9.725-25.547,0-35.271c-0.779-0.781-2.047-0.781-2.828,0s-0.781,2.047,0,2.828
		c8.164,8.166,8.164,21.449,0,29.615c-8.164,8.164-21.449,8.164-29.613,0c-0.781-0.781-2.049-0.781-2.828,0
		c-0.781,0.781-0.781,2.047,0,2.828c4.63,4.629,10.643,7.051,16.721,7.271v2.416h-5.083c-1.104,0-2,0.896-2,2c0,1.105,0.896,2,2,2
		h14.167c1.104,0,2-0.895,2-2c0-1.104-0.896-2-2-2h-5.084v-2.592C58.406,66.875,63.557,64.514,67.633,60.438z"/>
</g>
</svg>
