<?xml version="1.0" encoding="utf-8"?>
<!-- Generator: Adobe Illustrator 16.0.0, SVG Export Plug-In . SVG Version: 6.00 Build 0)  -->
<!DOCTYPE svg PUBLIC "-//W3C//DTD SVG 1.1//EN" "http://www.w3.org/Graphics/SVG/1.1/DTD/svg11.dtd">
<svg version="1.1" id="Layer_1" xmlns="http://www.w3.org/2000/svg" xmlns:xlink="http://www.w3.org/1999/xlink" x="0px" y="0px"
	 width="100px" height="100px" viewBox="0 0 100 100" enable-background="new 0 0 100 100" xml:space="preserve">
<g>
	<path d="M70.08,34.636l-5.158-5.16c-0.292-0.292-0.688-0.457-1.102-0.457s-0.81,0.165-1.102,0.457l-41.04,41.04
		c-0.608,0.608-0.608,1.595,0,2.203l5.158,5.158c0.304,0.304,0.703,0.457,1.102,0.457s0.797-0.152,1.102-0.457l41.04-41.039
		C70.688,36.231,70.688,35.245,70.08,34.636z M27.938,74.573l-2.955-2.955L63.82,32.781l2.955,2.957L27.938,74.573z"/>
	<path d="M72.402,55H65v-5.883c0-0.861-0.64-1.558-1.5-1.558S62,48.256,62,49.117V55h-6.407c-0.86,0-1.558,0.639-1.558,1.5
		s0.698,1.5,1.558,1.5H62v6.66c0,0.861,0.64,1.558,1.5,1.558S65,65.521,65,64.66V58h7.402c0.861,0,1.559-0.639,1.559-1.5
		S73.263,55,72.402,55z"/>
	<path d="M34.661,37H41v6.254c0,0.861,0.64,1.558,1.5,1.558s1.5-0.697,1.5-1.558V37h7.471c0.86,0,1.558-0.639,1.558-1.5
		S52.331,34,51.471,34H44v-6.289c0-0.861-0.64-1.558-1.5-1.558S41,26.851,41,27.711V34h-6.339c-0.861,0-1.558,0.639-1.558,1.5
		S33.8,37,34.661,37z"/>
	<path d="M53.112,29H55v1.578c0,0.861,0.64,1.558,1.5,1.558c0.86,0,1.5-0.697,1.5-1.558V29h2.488c0.86,0,1.558-0.639,1.558-1.5
		S61.349,26,60.488,26H58v-2.241c0-0.861-0.639-1.558-1.5-1.558c-0.861,0-1.5,0.697-1.5,1.558V26h-1.888
		c-0.86,0-1.558,0.639-1.558,1.5S52.252,29,53.112,29z"/>
	<path d="M76.09,42H74v-2.155c0-0.861-0.64-1.558-1.5-1.558c-0.861,0-1.5,0.697-1.5,1.558V42h-2.286c-0.86,0-1.558,0.639-1.558,1.5
		c0,0.861,0.697,1.5,1.558,1.5H71v1.665c0,0.861,0.639,1.558,1.5,1.558c0.86,0,1.5-0.697,1.5-1.558V45h2.09
		c0.86,0,1.558-0.639,1.558-1.5C77.648,42.639,76.951,42,76.09,42z"/>
</g>
</svg>
