<?xml version="1.0" encoding="utf-8"?>
<!-- Generator: Adobe Illustrator 16.0.0, SVG Export Plug-In . SVG Version: 6.00 Build 0)  -->
<!DOCTYPE svg PUBLIC "-//W3C//DTD SVG 1.1//EN" "http://www.w3.org/Graphics/SVG/1.1/DTD/svg11.dtd">
<svg version="1.1" id="Layer_1" xmlns="http://www.w3.org/2000/svg" xmlns:xlink="http://www.w3.org/1999/xlink" x="0px" y="0px"
	 width="100px" height="100px" viewBox="0 0 100 100" enable-background="new 0 0 100 100" xml:space="preserve">
<g>
	<path d="M60.494,52.456H59.33v-3.542c0-3.621-2.944-6.565-6.564-6.565c-3.62,0-6.564,2.944-6.564,6.565v3.542h-1.163
		c-0.669,0-1.211,0.543-1.211,1.212v12.021c0,0.669,0.542,1.211,1.211,1.211h15.456c0.668,0,1.211-0.542,1.211-1.211V53.668
		C61.705,53,61.163,52.456,60.494,52.456z M56.907,52.456h-8.282v-3.542c0-2.284,1.857-4.142,4.141-4.142s4.142,1.858,4.142,4.142
		V52.456z"/>
	<path d="M52.767,26.773c-15.357,0-27.851,12.494-27.851,27.851c0,15.357,12.494,27.851,27.851,27.851s27.851-12.494,27.851-27.851
		C80.617,39.267,68.124,26.773,52.767,26.773z M52.767,77.987c-12.882,0-23.362-10.48-23.362-23.363
		c0-12.882,10.48-23.362,23.362-23.362s23.362,10.48,23.362,23.362C76.129,67.506,65.649,77.987,52.767,77.987z"/>
</g>
</svg>
