<?xml version="1.0" encoding="utf-8"?>
<!-- Generator: Adobe Illustrator 16.0.0, SVG Export Plug-In . SVG Version: 6.00 Build 0)  -->
<!DOCTYPE svg PUBLIC "-//W3C//DTD SVG 1.1//EN" "http://www.w3.org/Graphics/SVG/1.1/DTD/svg11.dtd">
<svg version="1.1" id="Layer_1" xmlns="http://www.w3.org/2000/svg" xmlns:xlink="http://www.w3.org/1999/xlink" x="0px" y="0px"
	 width="100px" height="100px" viewBox="0 0 100 100" enable-background="new 0 0 100 100" xml:space="preserve">
<g>
	<path d="M53.181,22.614c-10.706,0-19.416,8.709-19.416,19.416c0,9.939,15.854,31.789,17.66,34.248l0.665,0.904
		c0.253,0.346,0.661,0.553,1.091,0.553s0.838-0.207,1.09-0.551l0.666-0.906c1.808-2.459,17.66-24.309,17.66-34.248
		C72.597,31.323,63.887,22.614,53.181,22.614z M53.181,71.231c-7.42-10.605-15.058-23.525-15.058-29.201
		c0-8.303,6.755-15.059,15.058-15.059s15.058,6.756,15.058,15.059C68.238,47.706,60.601,60.626,53.181,71.231z"/>
	<path d="M53.181,35.714c-4.395,0-7.971,3.576-7.971,7.971c0,4.396,3.576,7.971,7.971,7.971s7.971-3.574,7.971-7.971
		C61.151,39.29,57.575,35.714,53.181,35.714z M53.181,48.126c-2.448,0-4.439-1.992-4.439-4.441c0-2.447,1.991-4.439,4.439-4.439
		s4.439,1.992,4.439,4.439C57.62,46.134,55.629,48.126,53.181,48.126z"/>
</g>
</svg>
