<?xml version="1.0" encoding="utf-8"?>
<!-- Generator: Adobe Illustrator 16.0.0, SVG Export Plug-In . SVG Version: 6.00 Build 0)  -->
<!DOCTYPE svg PUBLIC "-//W3C//DTD SVG 1.1//EN" "http://www.w3.org/Graphics/SVG/1.1/DTD/svg11.dtd">
<svg version="1.1" id="Layer_1" xmlns="http://www.w3.org/2000/svg" xmlns:xlink="http://www.w3.org/1999/xlink" x="0px" y="0px"
	 width="100px" height="100px" viewBox="0 0 100 100" enable-background="new 0 0 100 100" xml:space="preserve">
<g>
	<path d="M39.741,27.402H28.187c-0.861,0-1.559,0.697-1.559,1.558v11.567c0,0.861,0.697,1.558,1.559,1.558h11.555
		c0.861,0,1.559-0.697,1.559-1.558V28.96C41.3,28.099,40.603,27.402,39.741,27.402z M38.183,38.969h-8.438v-8.451h8.438V38.969z"/>
	<path d="M39.741,43.296H28.187c-0.861,0-1.559,0.697-1.559,1.559v11.57c0,0.861,0.697,1.558,1.559,1.558h11.555
		c0.861,0,1.559-0.697,1.559-1.558v-11.57C41.3,43.994,40.603,43.296,39.741,43.296z M38.183,54.867h-8.438v-8.454h8.438V54.867z"/>
	<path d="M39.741,59.728H28.187c-0.861,0-1.559,0.697-1.559,1.558v11.57c0,0.861,0.697,1.559,1.559,1.559h11.555
		c0.861,0,1.559-0.697,1.559-1.559v-11.57C41.3,60.425,40.603,59.728,39.741,59.728z M38.183,71.298h-8.438v-8.454h8.438V71.298z"/>
	<path d="M56.046,27.133H44.491c-0.859,0-1.557,0.697-1.557,1.558V40.26c0,0.861,0.697,1.558,1.557,1.558h11.555
		c0.861,0,1.559-0.697,1.559-1.558V28.691C57.604,27.83,56.907,27.133,56.046,27.133z M54.489,38.702H46.05v-8.453h8.439V38.702z"/>
	<path d="M56.046,43.027H44.491c-0.859,0-1.557,0.697-1.557,1.558v11.568c0,0.861,0.697,1.558,1.557,1.558h11.555
		c0.861,0,1.559-0.697,1.559-1.558V44.585C57.604,43.724,56.907,43.027,56.046,43.027z M54.489,54.596H46.05v-8.452h8.439V54.596z"
		/>
	<path d="M56.046,59.46H44.491c-0.859,0-1.557,0.697-1.557,1.558v11.568c0,0.861,0.697,1.558,1.557,1.558h11.555
		c0.861,0,1.559-0.697,1.559-1.558V61.019C57.604,60.157,56.907,59.46,56.046,59.46z M54.489,71.029H46.05v-8.452h8.439V71.029z"/>
	<path d="M72.353,27.134H60.798c-0.861,0-1.559,0.697-1.559,1.558v11.569c0,0.861,0.697,1.558,1.559,1.558h11.555
		c0.861,0,1.559-0.697,1.559-1.558V28.692C73.911,27.832,73.214,27.134,72.353,27.134z M70.794,38.703h-8.438V30.25h8.438V38.703z"
		/>
	<path d="M72.353,43.03H60.798c-0.861,0-1.559,0.697-1.559,1.558v11.568c0,0.861,0.697,1.558,1.559,1.558h11.555
		c0.861,0,1.559-0.697,1.559-1.558V44.588C73.911,43.727,73.214,43.03,72.353,43.03z M70.794,54.599h-8.438v-8.453h8.438V54.599z"/>
	<path d="M72.353,59.462H60.798c-0.861,0-1.559,0.697-1.559,1.558v11.568c0,0.861,0.697,1.558,1.559,1.558h11.555
		c0.861,0,1.559-0.697,1.559-1.558V61.02C73.911,60.159,73.214,59.462,72.353,59.462z M70.794,71.03h-8.438v-8.452h8.438V71.03z"/>
</g>
</svg>
