<?xml version="1.0" encoding="utf-8"?>
<!-- Generator: Adobe Illustrator 16.0.0, SVG Export Plug-In . SVG Version: 6.00 Build 0)  -->
<!DOCTYPE svg PUBLIC "-//W3C//DTD SVG 1.1//EN" "http://www.w3.org/Graphics/SVG/1.1/DTD/svg11.dtd">
<svg version="1.1" id="Layer_1" xmlns="http://www.w3.org/2000/svg" xmlns:xlink="http://www.w3.org/1999/xlink" x="0px" y="0px"
	 width="100px" height="100px" viewBox="0 0 100 100" enable-background="new 0 0 100 100" xml:space="preserve">
<g>
	<path d="M51.367,27.432c-12.638,0-22.919,10.281-22.919,22.918c0,12.639,10.281,22.92,22.919,22.92s22.92-10.282,22.92-22.92
		C74.287,37.713,64.005,27.432,51.367,27.432z M51.367,69.017c-10.294,0-18.668-8.374-18.668-18.667
		c0-10.294,8.374-18.667,18.668-18.667s18.668,8.374,18.668,18.667C70.035,60.644,61.661,69.017,51.367,69.017z"/>
	<g>
		<path d="M52.789,62.15c-0.035,0-0.07-0.001-0.105-0.002c-0.811-0.045-1.506-0.596-1.734-1.375l-1.975-6.75l-7.24-1.436
			c-0.798-0.158-1.409-0.804-1.523-1.61c-0.114-0.805,0.293-1.596,1.016-1.97l18.652-9.661c0.716-0.372,1.585-0.253,2.178,0.291
			c0.592,0.545,0.781,1.402,0.473,2.145l-7.973,19.188C54.259,61.688,53.559,62.15,52.789,62.15z M47.846,49.892l3.013,0.597
			c0.7,0.14,1.266,0.656,1.466,1.342l0.777,2.656l3.874-9.323L47.846,49.892z"/>
	</g>
</g>
</svg>
