<?xml version="1.0" encoding="utf-8"?>
<!-- Generator: Adobe Illustrator 16.0.0, SVG Export Plug-In . SVG Version: 6.00 Build 0)  -->
<!DOCTYPE svg PUBLIC "-//W3C//DTD SVG 1.1//EN" "http://www.w3.org/Graphics/SVG/1.1/DTD/svg11.dtd">
<svg version="1.1" id="Layer_1" xmlns="http://www.w3.org/2000/svg" xmlns:xlink="http://www.w3.org/1999/xlink" x="0px" y="0px"
	 width="100px" height="100px" viewBox="0 0 100 100" enable-background="new 0 0 100 100" xml:space="preserve">
<g>
	<path d="M53.419,79.527c-6.844,0-12.413-5.568-12.413-12.413V30.858c0-0.375,0.103-0.726,0.283-1.025
		c1.046-4.229,4.873-7.374,9.42-7.374c5.35,0,9.703,4.353,9.703,9.703V60.05c0,3.856-3.137,6.994-6.994,6.994
		s-6.994-3.138-6.994-6.994V38.297c0-1.104,0.896-2,2-2s2,0.896,2,2V60.05c0,1.651,1.343,2.994,2.994,2.994s2.994-1.343,2.994-2.994
		V32.162c0-3.145-2.559-5.703-5.703-5.703s-5.703,2.559-5.703,5.703v34.952c0,4.639,3.774,8.413,8.413,8.413
		s8.413-3.774,8.413-8.413V38.295c0-1.104,0.896-2,2-2s2,0.896,2,2v28.819C65.832,73.959,60.263,79.527,53.419,79.527z"/>
</g>
</svg>
