<?xml version="1.0" encoding="utf-8"?>
<!-- Generator: Adobe Illustrator 16.0.0, SVG Export Plug-In . SVG Version: 6.00 Build 0)  -->
<!DOCTYPE svg PUBLIC "-//W3C//DTD SVG 1.1//EN" "http://www.w3.org/Graphics/SVG/1.1/DTD/svg11.dtd">
<svg version="1.1" id="Layer_1" xmlns="http://www.w3.org/2000/svg" xmlns:xlink="http://www.w3.org/1999/xlink" x="0px" y="0px"
	 width="100px" height="100px" viewBox="0 0 100 100" enable-background="new 0 0 100 100" xml:space="preserve">
<g>
	<path d="M79.839,40.395l-5.686-2.815v-6.345c0-1.721-1.396-3.116-3.117-3.116H55.04l-14.337-7.097
		c-0.74-0.368-1.598-0.424-2.38-0.16s-1.428,0.83-1.795,1.569l-2.816,5.688h-6.343c-1.722,0-3.116,1.396-3.116,3.116V47.23
		l-7.097,14.336c-0.366,0.741-0.424,1.598-0.159,2.38c0.264,0.784,0.828,1.43,1.57,1.795l5.686,2.815v6.345
		c0,1.721,1.395,3.116,3.116,3.116h15.999l14.334,7.095c0.444,0.221,0.916,0.324,1.381,0.324c1.146,0,2.25-0.636,2.795-1.733
		l2.814-5.686h6.344c1.722,0,3.117-1.395,3.117-3.116V58.906l7.096-14.336C82.013,43.026,81.381,41.157,79.839,40.395z
		 M67.921,34.351v0.145l-0.291-0.145H67.921z M30.485,34.351h0.143l-0.143,0.288V34.351z M30.485,71.786v-0.145l0.291,0.145H30.485z
		 M67.921,71.786h-0.144l0.144-0.29V71.786z M74.153,44.857l-6.232,12.59l-7.099,14.339l-3.085,6.232l-0.063,0.128l-0.259-0.128
		l-12.591-6.232l-14.34-7.099l-6.232-3.084l-0.129-0.064l0.129-0.26l6.232-12.591l7.098-14.338l3.084-6.232l0.064-0.129l0.261,0.129
		l12.591,6.232l14.338,7.098l6.232,3.084l0.128,0.063L74.153,44.857z"/>
	<circle cx="52.081" cy="43.759" r="3.895"/>
</g>
</svg>
