<?xml version="1.0" encoding="utf-8"?>
<!-- Generator: Adobe Illustrator 16.0.0, SVG Export Plug-In . SVG Version: 6.00 Build 0)  -->
<!DOCTYPE svg PUBLIC "-//W3C//DTD SVG 1.1//EN" "http://www.w3.org/Graphics/SVG/1.1/DTD/svg11.dtd">
<svg version="1.1" id="Layer_1" xmlns="http://www.w3.org/2000/svg" xmlns:xlink="http://www.w3.org/1999/xlink" x="0px" y="0px"
	 width="100px" height="100px" viewBox="0 0 100 100" enable-background="new 0 0 100 100" xml:space="preserve">
<g>
	<path d="M74.773,48.67l-8.791-4.808l2.816-9.616c0.197-0.672,0.01-1.398-0.484-1.893c-0.496-0.495-1.221-0.684-1.893-0.484
		l-9.615,2.817l-4.811-8.792c-0.336-0.615-0.98-0.997-1.68-0.997c-0.701,0-1.344,0.382-1.68,0.997l-4.811,8.792l-9.615-2.817
		c-0.672-0.199-1.398-0.011-1.893,0.484c-0.496,0.495-0.682,1.221-0.484,1.893l2.816,9.617l-8.791,4.808
		c-0.615,0.337-0.998,0.981-0.998,1.681s0.383,1.344,0.998,1.681l8.791,4.808l-2.816,9.616c-0.197,0.672-0.012,1.398,0.484,1.893
		c0.363,0.364,0.854,0.561,1.354,0.561c0.18,0,0.361-0.025,0.537-0.077l9.617-2.817l4.811,8.792c0.336,0.615,0.979,0.997,1.68,0.997
		c0.699,0,1.344-0.382,1.68-0.997l4.811-8.792l9.615,2.817c0.178,0.052,0.359,0.077,0.539,0.077c0.5,0,0.99-0.197,1.354-0.561
		c0.496-0.495,0.682-1.221,0.484-1.893l-2.816-9.616l8.791-4.808c0.613-0.337,0.996-0.981,0.996-1.681S75.387,49.007,74.773,48.67z
		 M62.795,54.217c0,0-0.002,0.001-0.004,0.001l-5.072,2.774c-0.322,0.176-0.586,0.44-0.762,0.762l-2.773,5.072v0.001l-3.867,7.07
		l-6.643-12.144c-0.176-0.321-0.439-0.586-0.762-0.762l-5.072-2.774l-0.002-0.001l-7.068-3.866l7.068-3.866
		c0-0.001,0.002-0.001,0.002-0.001l5.072-2.774c0.322-0.176,0.586-0.44,0.762-0.762l6.643-12.144l3.867,7.07v0.001l2.773,5.072
		c0.176,0.322,0.439,0.586,0.762,0.762l5.072,2.774c0.002,0,0.002,0,0.004,0.001l7.068,3.866L62.795,54.217z"/>
	<path d="M50.316,45.204c-3.213,0-5.828,2.614-5.828,5.827c0,3.212,2.615,5.826,5.828,5.826s5.826-2.614,5.826-5.826
		C56.143,47.818,53.529,45.204,50.316,45.204z M50.316,53.026c-1.102,0-1.996-0.896-1.996-1.995c0-1.101,0.895-1.997,1.996-1.997
		c1.1,0,1.994,0.896,1.994,1.997C52.311,52.131,51.416,53.026,50.316,53.026z"/>
</g>
</svg>
