<?xml version="1.0" encoding="utf-8"?>
<!-- Generator: Adobe Illustrator 16.0.0, SVG Export Plug-In . SVG Version: 6.00 Build 0)  -->
<!DOCTYPE svg PUBLIC "-//W3C//DTD SVG 1.1//EN" "http://www.w3.org/Graphics/SVG/1.1/DTD/svg11.dtd">
<svg version="1.1" id="Layer_1" xmlns="http://www.w3.org/2000/svg" xmlns:xlink="http://www.w3.org/1999/xlink" x="0px" y="0px"
	 width="100px" height="100px" viewBox="0 0 100 100" enable-background="new 0 0 100 100" xml:space="preserve">
<path d="M74.348,59.439l-3.435-6.827l-6.826,3.438c-1.052,0.53-1.476,1.812-0.946,2.864c0.53,1.053,1.814,1.474,2.865,0.946
	l0.8-0.402c-1.758,5.106-6.732,8.953-12.795,9.673V46.883h3.441c1.178,0,2.133-0.955,2.133-2.133s-0.955-2.134-2.133-2.134h-3.441
	v-2.271c3.43-0.94,5.96-4.075,5.96-7.799c0-4.464-3.63-8.094-8.093-8.094s-8.093,3.63-8.093,8.094c0,3.724,2.53,6.858,5.96,7.799
	v2.271h-3.267c-1.178,0-2.133,0.956-2.133,2.134s0.955,2.133,2.133,2.133h3.267v22.225c-5.917-0.765-10.766-4.509-12.557-9.481
	l0.467,0.234c1.055,0.529,2.335,0.106,2.865-0.946s0.106-2.334-0.946-2.864l-6.826-3.438l-3.435,6.827
	c-0.53,1.052-0.105,2.335,0.946,2.864c0.308,0.155,0.635,0.228,0.958,0.228c0.781,0,1.533-0.43,1.907-1.175l0.097-0.192
	c2.642,7.178,10.038,12.368,18.745,12.368c8.593,0,15.903-5.057,18.633-12.087c0.39,0.685,1.1,1.086,1.846,1.086
	c0.322,0,0.65-0.072,0.958-0.228C74.453,61.774,74.877,60.491,74.348,59.439z M48.051,32.546c0-2.111,1.716-3.827,3.827-3.827
	s3.827,1.716,3.827,3.827c0,2.109-1.717,3.826-3.827,3.826S48.051,34.655,48.051,32.546z"/>
</svg>
