<?xml version="1.0" encoding="utf-8"?>
<!-- Generator: Adobe Illustrator 16.0.0, SVG Export Plug-In . SVG Version: 6.00 Build 0)  -->
<!DOCTYPE svg PUBLIC "-//W3C//DTD SVG 1.1//EN" "http://www.w3.org/Graphics/SVG/1.1/DTD/svg11.dtd">
<svg version="1.1" id="Layer_1" xmlns="http://www.w3.org/2000/svg" xmlns:xlink="http://www.w3.org/1999/xlink" x="0px" y="0px"
	 width="100px" height="100px" viewBox="0 0 100 100" enable-background="new 0 0 100 100" xml:space="preserve">
<path d="M72.577,23.811c-8.819,0-16.62,4.425-21.313,11.167c-4.758-5.996-12.102-9.852-20.332-9.852
	c-14.313,0-25.957,11.645-25.957,25.957c0,9.412,5.038,17.669,12.557,22.22c3.914,2.37,8.5,3.735,13.4,3.735
	c4.899,0,9.485-1.366,13.398-3.734c3.134-1.896,5.827-4.443,7.912-7.442c1.927,2.43,4.271,4.514,6.935,6.126
	c3.913,2.369,8.501,3.735,13.4,3.735c4.9,0,9.485-1.366,13.397-3.734c7.521-4.552,12.559-12.809,12.559-22.221
	C98.533,35.455,86.889,23.811,72.577,23.811z M42.823,70.058c-1.633-2.245-4.307-3.984-7.528-4.823v-0.642
	c0.326,0.09,0.655,0.146,0.988,0.146c2.699,0,4.527-2.97,4.602-3.096c0.106-0.176,0.113-0.395,0.02-0.578
	c-0.094-0.182-0.279-0.301-0.482-0.315c-0.59-0.039-1.076-0.295-1.49-0.784c-0.599-0.711-0.957-1.791-1.169-2.953
	c0.673-1.669,1.114-3.315,1.114-4.766c0-5.426-2.702-9.962-6.404-10.971c-2.491-0.25-3.174-0.118-4.063,0.363
	c-3.246,1.517-5.425,5.776-5.425,10.607c0,1.43,0.431,3.048,1.086,4.693c-0.215,1.212-0.577,2.32-1.17,3.024
	c-0.414,0.49-0.9,0.747-1.49,0.785c-0.204,0.014-0.389,0.133-0.483,0.316c-0.094,0.182-0.087,0.4,0.019,0.577
	c0.076,0.126,1.904,3.096,4.602,3.096c0,0,0,0,0.002,0c0.359,0,0.714-0.06,1.064-0.165v0.647c-3.242,0.833-5.934,2.58-7.574,4.836
	C12.724,66.087,8.506,59.076,8.506,51.083c0-12.365,10.061-22.425,22.426-22.425c7.604,0,14.322,3.813,18.381,9.618
	c0.853,1.22,1.589,2.524,2.19,3.905c1.186,2.732,1.853,5.74,1.853,8.902c0,2.667-0.479,5.219-1.341,7.591
	c-0.512,1.413-1.163,2.759-1.936,4.024C48.26,65.674,45.773,68.201,42.823,70.058z M84.468,68.743
	c-1.631-2.246-4.306-3.985-7.526-4.823v-3.382c1.847-3.079,3.581-6.727,3.581-9.605c0-5.425-2.702-9.962-6.403-10.97
	c0.42-1.332-0.325-2.508-0.361-2.566c-0.132-0.203-0.375-0.309-0.614-0.256c-0.238,0.05-0.422,0.239-0.461,0.479
	c-0.187,1.116-1.737,2.226-2.628,2.707c-3.246,1.517-5.425,5.775-5.425,10.607c0,2.904,1.764,6.59,3.629,9.686v3.289
	c-3.241,0.833-5.934,2.58-7.574,4.836c-2.553-1.605-4.755-3.714-6.48-6.176c1.717-3.464,2.683-7.364,2.683-11.484
	c0-4.704-1.264-9.114-3.46-12.922c3.938-6.472,11.037-10.817,19.15-10.817c12.364,0,22.425,10.06,22.425,22.424
	C95.002,57.761,90.783,64.771,84.468,68.743z"/>
</svg>
