<?xml version="1.0" encoding="utf-8"?>
<!-- Generator: Adobe Illustrator 16.0.0, SVG Export Plug-In . SVG Version: 6.00 Build 0)  -->
<!DOCTYPE svg PUBLIC "-//W3C//DTD SVG 1.1//EN" "http://www.w3.org/Graphics/SVG/1.1/DTD/svg11.dtd">
<svg version="1.1" id="Layer_1" xmlns="http://www.w3.org/2000/svg" xmlns:xlink="http://www.w3.org/1999/xlink" x="0px" y="0px"
	 width="100px" height="100px" viewBox="0 0 100 100" enable-background="new 0 0 100 100" xml:space="preserve">
<path d="M77.122,35.258c1.287-1.463,1.996-3.32,1.996-5.229c0-4.38-3.563-7.946-7.943-7.946c-2.264,0-4.415,0.981-5.933,2.699
	l-4.512,3.942l-5.022-5.022c-0.876-0.876-2.429-0.875-3.306,0l-7.974,7.978c-0.913,0.913-0.913,2.394,0,3.305l3.642,3.642
	L25.118,60.664c-0.414,0.397-0.667,0.935-0.711,1.506l-0.668,8.667l-3.078,5.041c-0.6,0.983-0.395,2.255,0.484,3
	c0.436,0.37,0.974,0.554,1.511,0.554c0.545,0,1.09-0.19,1.529-0.569l4.557-3.939l7.052-0.479c0.563-0.038,1.095-0.279,1.494-0.679
	l22.962-22.964l4.495,4.495c0.876,0.876,2.428,0.876,3.305,0l7.974-7.977c0.896-0.896,0.916-2.341,0.043-3.261l-3.994-4.21
	l3.684-3.335C76.224,36.182,76.661,35.78,77.122,35.258z M34.601,69.842l-6.131,0.416l0.528-6.84L51.377,41.93l5.567,5.567
	L34.601,69.842z M73.612,32.171c-0.229,0.258-0.429,0.444-0.611,0.566c-0.095,0.064-0.185,0.134-0.27,0.21l-5.57,5.042
	c-0.466,0.423-0.743,1.015-0.767,1.645c-0.023,0.628,0.207,1.24,0.64,1.696l4.074,4.295l-4.712,4.714l-4.495-4.495l-8.839-8.839
	l-3.676-3.675l4.669-4.673l4.915,4.915c0.869,0.869,2.264,0.915,3.19,0.108l6.28-5.487c0.089-0.079,0.173-0.164,0.25-0.256
	c0.642-0.762,1.524-1.182,2.483-1.182c1.802,0,3.269,1.467,3.269,3.271C74.443,31.019,73.991,31.74,73.612,32.171z"/>
</svg>
