<?xml version="1.0" encoding="utf-8"?>
<!-- Generator: Adobe Illustrator 16.0.0, SVG Export Plug-In . SVG Version: 6.00 Build 0)  -->
<!DOCTYPE svg PUBLIC "-//W3C//DTD SVG 1.1//EN" "http://www.w3.org/Graphics/SVG/1.1/DTD/svg11.dtd">
<svg version="1.1" id="Layer_1" xmlns="http://www.w3.org/2000/svg" xmlns:xlink="http://www.w3.org/1999/xlink" x="0px" y="0px"
	 width="100px" height="100px" viewBox="0 0 100 100" enable-background="new 0 0 100 100" xml:space="preserve">
<g>
	<path d="M50.476,23.731c-15.357,0-27.851,12.494-27.851,27.851c0,15.357,12.494,27.851,27.851,27.851s27.851-12.494,27.851-27.851
		C78.326,36.225,65.833,23.731,50.476,23.731z M50.476,74.944c-12.882,0-23.362-10.48-23.362-23.363
		c0-12.882,10.48-23.362,23.362-23.362S73.838,38.7,73.838,51.582C73.838,64.464,63.358,74.944,50.476,74.944z"/>
	<path d="M59.354,42.701l-13,13.001l-4.757-4.757c-0.876-0.877-2.297-0.877-3.173,0c-0.877,0.876-0.877,2.297,0,3.173l6.344,6.344
		c0.438,0.438,1.013,0.658,1.587,0.658s1.148-0.219,1.586-0.658l14.587-14.587c0.876-0.877,0.876-2.297,0-3.174
		C61.651,41.825,60.231,41.825,59.354,42.701z"/>
</g>
</svg>
