<?xml version="1.0" encoding="utf-8"?>
<!-- Generator: Adobe Illustrator 16.0.0, SVG Export Plug-In . SVG Version: 6.00 Build 0)  -->
<!DOCTYPE svg PUBLIC "-//W3C//DTD SVG 1.1//EN" "http://www.w3.org/Graphics/SVG/1.1/DTD/svg11.dtd">
<svg version="1.1" id="Layer_1" xmlns="http://www.w3.org/2000/svg" xmlns:xlink="http://www.w3.org/1999/xlink" x="0px" y="0px"
	 width="100px" height="100px" viewBox="0 0 100 100" enable-background="new 0 0 100 100" xml:space="preserve">
<g>
	<path d="M95.139,67.488l-3.804-5.633c2.467-0.628,4.297-2.868,4.297-5.527V37.592c0-3.146-2.558-5.702-5.703-5.702H89.37
		c1.7-1.98,2.736-4.544,2.736-7.351c0-6.229-5.067-11.297-11.297-11.297c-6.228,0-11.296,5.067-11.296,11.297
		c0,2.807,1.036,5.37,2.737,7.351H71.69c-1.265,0-2.424,0.427-3.371,1.126c1.077,0.798,1.867,1.957,2.176,3.303
		c0.314-0.294,0.731-0.483,1.195-0.483h18.238c0.969,0,1.757,0.788,1.757,1.757v18.736c0,0.969-0.788,1.756-1.757,1.756h-2.189
		c-0.73,0-1.4,0.404-1.743,1.048c-0.343,0.646-0.302,1.425,0.106,2.032l3.843,5.686h-2.206c-1.09,0-1.974,0.885-1.974,1.975v13.701
		c0,0.883-0.228,1.487-0.384,1.756h-9.143c-0.156-0.269-0.385-0.873-0.385-1.756V68.824c0-1.09-0.883-1.975-1.973-1.975h-2.205
		l3.84-5.686c0.408-0.607,0.451-1.387,0.108-2.032c-0.343-0.644-1.015-1.048-1.743-1.048H71.69c-0.467,0-0.886-0.189-1.201-0.487
		c-0.309,1.348-1.092,2.51-2.17,3.308c0.584,0.433,1.242,0.77,1.967,0.951l-1.967,2.912l1.838,2.721
		c0.322,0.353,0.52,0.819,0.52,1.336c0,1.089-0.883,1.973-1.973,1.973h3.205v11.729c0,3.251,1.711,5.702,3.984,5.702h9.835
		c2.271,0,3.983-2.451,3.983-5.702V70.797h3.946c0.011,0,0.019,0,0.026,0c1.09,0,1.974-0.884,1.974-1.973
		C95.658,68.308,95.461,67.841,95.139,67.488z M80.81,31.89c-4.051,0-7.349-3.297-7.349-7.351c0-4.055,3.298-7.352,7.349-7.352
		c4.053,0,7.35,3.297,7.35,7.352C88.159,28.593,84.862,31.89,80.81,31.89z"/>
	<path d="M16.728,35.835h18.239c0.37,0,0.694,0.141,0.979,0.338c0.346-1.342,1.154-2.497,2.262-3.264
		c-0.922-0.642-2.036-1.02-3.24-1.02h-0.56c1.701-1.98,2.736-4.544,2.736-7.351c0-6.229-5.068-11.297-11.295-11.297
		c-6.229,0-11.296,5.067-11.296,11.297c0,2.807,1.036,5.37,2.735,7.351h-0.559c-3.144,0-5.702,2.556-5.702,5.702v18.736
		c0,2.659,1.831,4.899,4.297,5.527l-3.959,5.863c-0.408,0.604-0.45,1.387-0.107,2.03c0.342,0.645,1.013,1.048,1.742,1.048h3.947
		v11.729c0,3.251,1.713,5.702,3.983,5.702h9.836c2.272,0,3.984-2.451,3.984-5.702V70.797h2.969c-0.729,0-1.399-0.403-1.742-1.048
		c-0.342-0.644-0.302-1.426,0.106-2.03l2.125-3.145l-1.835-2.719c0.668-0.17,1.284-0.467,1.835-0.851
		c-1.107-0.769-1.917-1.918-2.263-3.258c-0.283,0.197-0.607,0.337-0.977,0.337h-2.191c-0.73,0-1.401,0.404-1.743,1.048
		c-0.342,0.646-0.301,1.425,0.108,2.032l3.841,5.686h-2.206c-1.09,0-1.974,0.885-1.974,1.975v13.701
		c0,0.883-0.227,1.487-0.384,1.756h-9.143c-0.156-0.269-0.383-0.873-0.383-1.756V68.824c0-1.09-0.884-1.975-1.973-1.975h-2.207
		l3.842-5.686c0.408-0.607,0.449-1.387,0.106-2.032c-0.343-0.644-1.013-1.048-1.742-1.048h-2.192c-0.968,0-1.755-0.787-1.755-1.756
		V37.592C14.972,36.623,15.76,35.835,16.728,35.835z M25.848,17.188c4.052,0,7.348,3.297,7.348,7.352
		c0,4.054-3.296,7.351-7.348,7.351c-4.054,0-7.349-3.297-7.349-7.351C18.499,20.484,21.794,17.188,25.848,17.188z"/>
	<path d="M65.688,64.768l1.966-2.912c-0.724-0.182-1.382-0.519-1.966-0.951c1.078-0.798,1.861-1.96,2.17-3.308
		c0.095-0.411,0.161-0.83,0.161-1.269V37.592c0-0.438-0.062-0.863-0.155-1.273c-0.309-1.346-1.099-2.505-2.176-3.303
		c-0.947-0.699-2.106-1.126-3.371-1.126h-0.561c1.701-1.98,2.736-4.544,2.736-7.351c0-6.229-5.068-11.297-11.296-11.297
		c-6.229,0-11.295,5.067-11.295,11.297c0,2.807,1.035,5.37,2.735,7.351h-0.56c-1.203,0-2.318,0.378-3.239,1.02
		c-1.107,0.767-1.916,1.922-2.262,3.264c-0.119,0.456-0.201,0.927-0.201,1.419v18.736c0,0.492,0.082,0.965,0.199,1.419
		c0.347,1.34,1.156,2.489,2.263,3.258c-0.551,0.384-1.167,0.681-1.835,0.851l1.835,2.719l-2.125,3.145
		c-0.408,0.604-0.448,1.387-0.106,2.03c0.341,0.645,1.012,1.048,1.742,1.048h0.978c0.009,0,0.017,0,0.026,0h2.943v11.729
		c0,3.251,1.712,5.702,3.984,5.702h9.836c2.271,0,3.983-2.451,3.983-5.702V70.797h3.232h0.715h0.026
		c1.091,0,1.974-0.884,1.974-1.973c0-0.517-0.197-0.983-0.52-1.336L65.688,64.768z M53.197,17.188c4.053,0,7.35,3.297,7.35,7.352
		c0,4.054-3.297,7.351-7.35,7.351s-7.349-3.297-7.349-7.351C45.848,20.484,49.145,17.188,53.197,17.188z M58.491,61.164l3.84,5.686
		h-2.205c-1.09,0-1.974,0.885-1.974,1.975v13.701c0,0.883-0.228,1.487-0.383,1.756h-9.143c-0.156-0.269-0.384-0.873-0.384-1.756
		V68.824c0-1.09-0.882-1.975-1.973-1.975h-2.206l3.841-5.686c0.408-0.607,0.449-1.387,0.107-2.032
		c-0.342-0.644-1.012-1.048-1.742-1.048h-2.192c-0.37,0-0.693-0.14-0.977-0.336c0.118-0.455,0.199-0.928,0.199-1.42V37.592
		c0-0.492-0.082-0.963-0.2-1.419c0.284-0.197,0.607-0.338,0.978-0.338h18.24c0.463,0,0.88,0.189,1.195,0.483
		c-0.094,0.41-0.155,0.835-0.155,1.273v18.736c0,0.438,0.065,0.857,0.159,1.269c-0.314,0.298-0.732,0.487-1.199,0.487h-2.191
		c-0.73,0-1.4,0.404-1.743,1.048C58.041,59.777,58.082,60.557,58.491,61.164z"/>
</g>
</svg>
