<?xml version="1.0" encoding="utf-8"?>
<!-- Generator: Adobe Illustrator 16.0.0, SVG Export Plug-In . SVG Version: 6.00 Build 0)  -->
<!DOCTYPE svg PUBLIC "-//W3C//DTD SVG 1.1//EN" "http://www.w3.org/Graphics/SVG/1.1/DTD/svg11.dtd">
<svg version="1.1" id="Layer_1" xmlns="http://www.w3.org/2000/svg" xmlns:xlink="http://www.w3.org/1999/xlink" x="0px" y="0px"
	 width="100px" height="100px" viewBox="0 0 100 100" enable-background="new 0 0 100 100" xml:space="preserve">
<g>
	<path d="M81.065,47.424c-4.166-14.886-16.646-25.284-30.351-25.284c-2.395,0-4.778,0.328-7.086,0.974
		c-15.664,4.384-24.357,22.423-19.38,40.21c1.614,5.768,3.622,12.943,9.151,15.84c0.865,0.451,1.81,0.682,2.809,0.682
		c1.717,0,3.564-0.703,5.068-1.932c3.313-2.703,3.611-7.527,3.875-11.783c0.253-4.08,0.521-6.578,2.105-6.857
		c0.072-0.014,0.146-0.02,0.223-0.02c1.844,0,4.908,3.291,7.613,6.193c4.267,4.58,9.184,9.795,14.414,9.17
		c5.22-0.627,8.883-2.391,10.889-5.244C84.715,63.229,83.021,54.417,81.065,47.424z M77.942,67.649
		c-1.495,2.127-4.454,3.469-8.792,3.99c-0.175,0.021-0.35,0.031-0.523,0.031c-3.637,0-7.729-4.393-11.338-8.268
		c-3.574-3.836-6.66-7.148-9.809-7.148c-0.252,0-0.5,0.021-0.744,0.064c-4.025,0.711-4.307,5.244-4.578,9.627
		c-0.225,3.643-0.48,7.771-2.777,9.645c-1.443,1.178-3.292,1.594-4.589,0.916c-4.382-2.295-6.196-8.779-7.654-13.99
		c-4.532-16.195,3.229-32.575,17.3-36.513c2.045-0.572,4.156-0.862,6.277-0.862c12.364,0,23.656,9.496,27.462,23.092
		C79.955,54.586,81.535,62.536,77.942,67.649z"/>
	<path d="M35.357,58.407c-3.492,0-6.332,2.842-6.332,6.332c0,3.492,2.84,6.332,6.332,6.332c3.491,0,6.332-2.84,6.332-6.332
		C41.689,61.249,38.849,58.407,35.357,58.407z M35.357,68.071c-1.838,0-3.332-1.494-3.332-3.332c0-1.836,1.494-3.332,3.332-3.332
		c1.837,0,3.332,1.496,3.332,3.332C38.689,66.577,37.194,68.071,35.357,68.071z"/>
	<path d="M42.746,33.629c-3.037,0-5.418,3.44-5.418,7.833c0,4.392,2.381,7.833,5.418,7.833s5.417-3.441,5.417-7.833
		C48.163,37.069,45.783,33.629,42.746,33.629z M42.746,46.295c-1.141,0-2.418-2.067-2.418-4.833s1.277-4.833,2.418-4.833
		s2.417,2.066,2.417,4.833S43.887,46.295,42.746,46.295z"/>
	<path d="M59.203,37.473c1.039-4.268-0.459-8.174-3.41-8.892c-0.308-0.075-0.625-0.113-0.943-0.113c-2.711,0-5.25,2.649-6.174,6.442
		c-0.465,1.91-0.434,3.844,0.088,5.442c0.594,1.823,1.805,3.081,3.323,3.45c0.308,0.075,0.624,0.113,0.942,0.113
		C55.741,43.916,58.279,41.267,59.203,37.473z M56.289,36.764c-0.672,2.755-2.396,4.396-3.492,4.125
		c-0.486-0.118-0.916-0.652-1.182-1.466c-0.346-1.061-0.354-2.447-0.023-3.804c0.623-2.564,2.177-4.151,3.258-4.151
		c0.081,0,0.157,0.009,0.233,0.027C56.191,31.766,56.943,34.075,56.289,36.764z"/>
	<path d="M66.018,49.844c1.843-0.689,3.424-1.799,4.455-3.129c1.174-1.515,1.535-3.224,0.988-4.687
		c-0.713-1.908-2.75-3.047-5.451-3.047c-1.227,0-2.534,0.246-3.781,0.712c-1.843,0.688-3.426,1.798-4.456,3.128
		c-1.175,1.516-1.535,3.224-0.989,4.687c0.713,1.908,2.75,3.047,5.451,3.047C63.461,50.555,64.77,50.309,66.018,49.844z
		 M59.594,46.459c-0.174-0.469,0.025-1.125,0.55-1.8c0.684-0.882,1.825-1.667,3.134-2.155c0.915-0.342,1.86-0.522,2.732-0.522
		c1.335,0,2.396,0.44,2.641,1.096c0.175,0.469-0.025,1.125-0.549,1.801c-0.684,0.88-1.826,1.667-3.133,2.156
		c-0.916,0.342-1.861,0.521-2.734,0.521C60.9,47.555,59.839,47.116,59.594,46.459z"/>
	<path d="M70.463,50.559c-0.66-0.115-1.324-0.172-1.976-0.172c-3.558,0-6.238,1.674-6.671,4.166
		c-0.521,2.992,2.461,5.926,6.789,6.68c0.659,0.115,1.324,0.174,1.975,0.174c3.557,0,6.238-1.676,6.672-4.168
		C77.771,54.247,74.79,51.313,70.463,50.559z M70.58,58.407c-0.479,0-0.971-0.043-1.461-0.129c-2.726-0.475-4.543-2.086-4.348-3.211
		c0.144-0.826,1.572-1.68,3.716-1.68c0.479,0,0.971,0.043,1.461,0.127c2.726,0.475,4.543,2.086,4.347,3.211
		C74.152,57.551,72.723,58.407,70.58,58.407z"/>
</g>
</svg>
