<?xml version="1.0" encoding="utf-8"?>
<!-- Generator: Adobe Illustrator 16.0.0, SVG Export Plug-In . SVG Version: 6.00 Build 0)  -->
<!DOCTYPE svg PUBLIC "-//W3C//DTD SVG 1.1//EN" "http://www.w3.org/Graphics/SVG/1.1/DTD/svg11.dtd">
<svg version="1.1" id="Layer_1" xmlns="http://www.w3.org/2000/svg" xmlns:xlink="http://www.w3.org/1999/xlink" x="0px" y="0px"
	 width="100px" height="100px" viewBox="0 0 100 100" enable-background="new 0 0 100 100" xml:space="preserve">
<g>
	<rect x="33.598" y="60.734" width="4.243" height="4.244"/>
	<rect x="47.502" y="60.734" width="4.243" height="4.244"/>
	<rect x="62.376" y="60.734" width="4.243" height="4.244"/>
	<path d="M70.961,31.314h-0.002H56.734H42.7h-0.19H28.475h-0.188c-0.693,0-1.254,0.648-1.254,1.445v36.883
		c0,0.799,0.561,1.446,1.254,1.446h0.188H42.51h0.19h14.034h14.225h0.002c0.693,0,1.254-0.647,1.254-1.446V32.76
		C72.215,31.963,71.654,31.314,70.961,31.314z M41.255,68.197H29.729V34.206h11.525V68.197z M55.48,68.197H43.954V34.206H55.48
		V68.197z M69.705,68.197H57.989V34.206h11.716V68.197z"/>
	<path d="M33.598,40.244h4.243c0.693,0,1.255-0.561,1.255-1.254s-0.562-1.255-1.255-1.255h-4.243c-0.693,0-1.255,0.562-1.255,1.255
		S32.904,40.244,33.598,40.244z"/>
	<path d="M33.598,44.008h4.243c0.693,0,1.255-0.561,1.255-1.254s-0.562-1.255-1.255-1.255h-4.243c-0.693,0-1.255,0.562-1.255,1.255
		S32.904,44.008,33.598,44.008z"/>
	<path d="M33.598,47.771h4.243c0.693,0,1.255-0.561,1.255-1.254c0-0.694-0.562-1.256-1.255-1.256h-4.243
		c-0.693,0-1.255,0.562-1.255,1.256C32.343,47.211,32.904,47.771,33.598,47.771z"/>
	<path d="M47.502,40.244h4.243c0.693,0,1.255-0.561,1.255-1.254s-0.562-1.255-1.255-1.255h-4.243c-0.693,0-1.255,0.562-1.255,1.255
		S46.809,40.244,47.502,40.244z"/>
	<path d="M47.502,44.008h4.243c0.693,0,1.255-0.561,1.255-1.254s-0.562-1.255-1.255-1.255h-4.243c-0.693,0-1.255,0.562-1.255,1.255
		S46.809,44.008,47.502,44.008z"/>
	<path d="M47.502,47.771h4.243c0.693,0,1.255-0.561,1.255-1.254c0-0.694-0.562-1.256-1.255-1.256h-4.243
		c-0.693,0-1.255,0.562-1.255,1.256C46.247,47.211,46.809,47.771,47.502,47.771z"/>
	<path d="M62.376,40.244h4.243c0.693,0,1.255-0.561,1.255-1.254s-0.562-1.255-1.255-1.255h-4.243c-0.693,0-1.255,0.562-1.255,1.255
		S61.683,40.244,62.376,40.244z"/>
	<path d="M62.376,44.008h4.243c0.693,0,1.255-0.561,1.255-1.254s-0.562-1.255-1.255-1.255h-4.243c-0.693,0-1.255,0.562-1.255,1.255
		S61.683,44.008,62.376,44.008z"/>
	<path d="M62.376,47.771h4.243c0.693,0,1.255-0.561,1.255-1.254c0-0.694-0.562-1.256-1.255-1.256h-4.243
		c-0.693,0-1.255,0.562-1.255,1.256C61.121,47.211,61.683,47.771,62.376,47.771z"/>
</g>
</svg>
