<?xml version="1.0" encoding="utf-8"?>
<!-- Generator: Adobe Illustrator 16.0.0, SVG Export Plug-In . SVG Version: 6.00 Build 0)  -->
<!DOCTYPE svg PUBLIC "-//W3C//DTD SVG 1.1//EN" "http://www.w3.org/Graphics/SVG/1.1/DTD/svg11.dtd">
<svg version="1.1" id="Layer_1" xmlns="http://www.w3.org/2000/svg" xmlns:xlink="http://www.w3.org/1999/xlink" x="0px" y="0px"
	 width="100px" height="100px" viewBox="0 0 100 100" enable-background="new 0 0 100 100" xml:space="preserve">
<g>
	<g>
		<path d="M57.365,38.465H19.836c-1.098,0-1.986,0.89-1.986,1.987V77.98c0,1.097,0.889,1.987,1.986,1.987h37.529
			c1.098,0,1.986-0.89,1.986-1.987V40.452C59.352,39.355,58.463,38.465,57.365,38.465z M55.379,42.438v5.091H21.823v-5.091H55.379z
			 M21.823,75.995v-24.49h33.556v24.49H21.823z"/>
		<rect x="23.01" y="43.789" width="2.98" height="2.98"/>
		<rect x="27.48" y="43.789" width="2.979" height="2.98"/>
		<rect x="31.949" y="43.789" width="2.981" height="2.98"/>
	</g>
	<g>
		<path d="M75.08,21.548H37.553c-1.098,0-1.988,0.891-1.988,1.987v13.44h3.975v-2.388h33.555v24.49h-11.59v3.973H75.08
			c1.1,0,1.988-0.891,1.988-1.986v-37.53C77.068,22.438,76.18,21.548,75.08,21.548z M73.094,30.612H39.539v-5.09h33.555V30.612z"/>
		<rect x="40.726" y="26.872" width="2.979" height="2.981"/>
		<rect x="45.195" y="26.872" width="2.98" height="2.981"/>
		<rect x="49.666" y="26.872" width="2.98" height="2.981"/>
	</g>
</g>
</svg>
