<?xml version="1.0" encoding="utf-8"?>
<!-- Generator: Adobe Illustrator 16.0.0, SVG Export Plug-In . SVG Version: 6.00 Build 0)  -->
<!DOCTYPE svg PUBLIC "-//W3C//DTD SVG 1.1//EN" "http://www.w3.org/Graphics/SVG/1.1/DTD/svg11.dtd">
<svg version="1.1" id="Layer_1" xmlns="http://www.w3.org/2000/svg" xmlns:xlink="http://www.w3.org/1999/xlink" x="0px" y="0px"
	 width="100px" height="100px" viewBox="0 0 100 100" enable-background="new 0 0 100 100" xml:space="preserve">
<g>
	<path d="M66.702,32.217H41.432c-2.055,0-3.726,1.671-3.726,3.725v38.181c0,0.635,0.313,1.227,0.838,1.584
		c0.523,0.356,1.19,0.433,1.781,0.198l13.741-5.43l13.742,5.43c0.228,0.09,0.466,0.133,0.703,0.133c0.38,0,0.756-0.112,1.078-0.332
		c0.524-0.357,0.838-0.949,0.838-1.584V35.942C70.428,33.888,68.757,32.217,66.702,32.217z M66.597,71.308l-11.826-4.674
		c-0.227-0.089-0.465-0.133-0.704-0.133c-0.238,0-0.478,0.044-0.704,0.133l-11.825,4.674V36.048h25.06V71.308z"/>
	<path d="M51.021,55.721l-1.275,3.925c-0.085,0.263,0.008,0.551,0.232,0.713c0.224,0.162,0.525,0.162,0.75,0l3.339-2.425
		l3.339,2.425c0.112,0.081,0.244,0.123,0.376,0.123c0.131,0,0.263-0.042,0.375-0.123c0.224-0.162,0.317-0.45,0.231-0.713
		l-1.274-3.925l3.339-2.427c0.224-0.162,0.317-0.45,0.231-0.713c-0.085-0.263-0.33-0.441-0.606-0.441h-4.128l-1.275-3.924
		c-0.171-0.526-1.044-0.526-1.215,0l-1.274,3.924h-4.128c-0.276,0-0.521,0.178-0.607,0.441c-0.085,0.263,0.009,0.551,0.232,0.713
		L51.021,55.721z"/>
</g>
</svg>
