<?xml version="1.0" encoding="utf-8"?>
<!-- Generator: Adobe Illustrator 16.0.0, SVG Export Plug-In . SVG Version: 6.00 Build 0)  -->
<!DOCTYPE svg PUBLIC "-//W3C//DTD SVG 1.1//EN" "http://www.w3.org/Graphics/SVG/1.1/DTD/svg11.dtd">
<svg version="1.1" id="Layer_1" xmlns="http://www.w3.org/2000/svg" xmlns:xlink="http://www.w3.org/1999/xlink" x="0px" y="0px"
	 width="100px" height="100px" viewBox="0 0 100 100" enable-background="new 0 0 100 100" xml:space="preserve">
<g>
	<path d="M60.344,29.17l-5.453-6.497c-0.017-0.019-0.038-0.032-0.055-0.051c-0.084-0.095-0.178-0.18-0.277-0.258
		c-0.013-0.01-0.023-0.021-0.036-0.029c-0.377-0.287-0.841-0.463-1.351-0.463s-0.974,0.177-1.351,0.463
		c-0.013,0.009-0.023,0.019-0.036,0.029c-0.099,0.079-0.193,0.164-0.277,0.258c-0.017,0.019-0.039,0.032-0.055,0.051l-5.453,6.497
		c-0.797,0.948-0.673,2.364,0.276,3.162c0.95,0.795,2.366,0.672,3.162-0.278l1.49-1.775v27.765c0,1.239,1.004,2.244,2.244,2.244
		s2.244-1.005,2.244-2.244V30.28l1.49,1.775c0.443,0.529,1.08,0.802,1.72,0.802c0.508,0,1.021-0.172,1.441-0.524
		C61.017,31.535,61.141,30.119,60.344,29.17z"/>
	<g>
		<path d="M69.005,75.815H37.339c-2.407,0-4.365-1.958-4.365-4.364V39.784c0-2.406,1.958-4.364,4.365-4.364h8.135
			c1.24,0,2.244,1.005,2.244,2.244c0,1.239-1.004,2.245-2.244,2.245h-8.012v31.418h31.419V39.908h-7.831
			c-1.24,0-2.244-1.005-2.244-2.245c0-1.239,1.004-2.244,2.244-2.244h7.954c2.407,0,4.365,1.958,4.365,4.364v31.667
			C73.37,73.857,71.412,75.815,69.005,75.815z"/>
	</g>
</g>
</svg>
