<?xml version="1.0" encoding="utf-8"?>
<!-- Generator: Adobe Illustrator 16.0.0, SVG Export Plug-In . SVG Version: 6.00 Build 0)  -->
<!DOCTYPE svg PUBLIC "-//W3C//DTD SVG 1.1//EN" "http://www.w3.org/Graphics/SVG/1.1/DTD/svg11.dtd">
<svg version="1.1" id="Layer_1" xmlns="http://www.w3.org/2000/svg" xmlns:xlink="http://www.w3.org/1999/xlink" x="0px" y="0px"
	 width="100px" height="100px" viewBox="0 0 100 100" enable-background="new 0 0 100 100" xml:space="preserve">
<g>
	<path d="M74.735,45.86l-0.03-0.113c-0.026-0.193-0.07-0.38-0.135-0.572l-0.064-0.192l-0.046-0.099
		c-0.103-0.222-0.222-0.418-0.358-0.597l-0.034-0.068L52.798,22.955c-0.247-0.248-0.536-0.446-0.9-0.613l-0.253-0.094
		c-0.187-0.064-0.378-0.109-0.581-0.137l-0.146-0.04H36.749c-5.515,0-10.001,4.485-10.001,10v41.994c0,5.514,4.486,10,10.001,10
		h27.996c5.514,0,9.999-4.485,9.999-10V46.144L74.735,45.86z M32.75,32.07c0-2.205,1.794-3.999,3.999-3.999H47.67v11.072
		c0,5.514,4.486,10.001,10,10.001h11.072v24.919c0,2.203-1.793,3.997-3.997,3.997H36.749c-2.205,0-3.999-1.794-3.999-3.997V32.07z"
		/>
	<g>
		<g>
			<path d="M45.13,69.917c-0.598,0-1.196-0.229-1.652-0.685l-6.038-6.038c-0.913-0.913-0.913-2.392,0-3.305l6.435-6.435
				c0.913-0.913,2.392-0.913,3.305,0s0.913,2.392,0,3.305l-4.782,4.782l4.385,4.385c0.913,0.913,0.913,2.392,0,3.305
				C46.327,69.688,45.729,69.917,45.13,69.917z"/>
		</g>
		<g>
			<path d="M55.964,69.917c-0.598,0-1.196-0.229-1.652-0.685c-0.913-0.913-0.913-2.392,0-3.305l4.782-4.782l-4.385-4.385
				c-0.913-0.913-0.913-2.392,0-3.305c0.913-0.913,2.392-0.913,3.305,0l6.038,6.038c0.913,0.913,0.913,2.392,0,3.305l-6.435,6.435
				C57.16,69.688,56.562,69.917,55.964,69.917z"/>
		</g>
	</g>
</g>
</svg>
