<?xml version="1.0" encoding="utf-8"?>
<!-- Generator: Adobe Illustrator 16.0.0, SVG Export Plug-In . SVG Version: 6.00 Build 0)  -->
<!DOCTYPE svg PUBLIC "-//W3C//DTD SVG 1.1//EN" "http://www.w3.org/Graphics/SVG/1.1/DTD/svg11.dtd">
<svg version="1.1" id="Layer_1" xmlns="http://www.w3.org/2000/svg" xmlns:xlink="http://www.w3.org/1999/xlink" x="0px" y="0px"
	 width="100px" height="100px" viewBox="0 0 100 100" enable-background="new 0 0 100 100" xml:space="preserve">
<g>
	<path d="M76.596,27.81h-19.68c0.021-0.114,0.036-0.231,0.036-0.353c0-1.104-0.896-2-2-2h-9.255c-1.104,0-2,0.896-2,2
		c0,0.121,0.015,0.238,0.036,0.353h-19.68c-1.337,0-2.422,1.085-2.422,2.422c0,1.338,1.084,2.423,2.422,2.423h2.99v30.854
		c0,1.003,0.813,1.816,1.817,1.816H46.26l-5.951,5.95c-0.709,0.71-0.709,1.858,0,2.568c0.708,0.71,1.859,0.71,2.569,0l5.946-5.944
		v5.559c0,0.828,0.671,1.5,1.5,1.5s1.5-0.672,1.5-1.5v-5.1l5.945,5.945c0.355,0.355,0.819,0.532,1.284,0.532s0.93-0.177,1.285-0.532
		c0.709-0.709,0.709-1.859,0-2.568l-6.41-6.41h17.861c1.004,0,1.817-0.813,1.817-1.816V32.655h2.99c1.337,0,2.422-1.085,2.422-2.423
		C79.018,28.895,77.933,27.81,76.596,27.81z M69.973,61.692H30.675V32.655h39.297V61.692z"/>
	<path d="M33.619,56.791c0.496,0,0.993-0.184,1.38-0.554l6.036-5.761l4.961,4.178c0.414,0.35,0.949,0.52,1.489,0.461
		c0.538-0.055,1.031-0.324,1.367-0.747l6.542-8.249l3.143,2.021c0.846,0.544,1.966,0.375,2.613-0.396l3.469-4.13v1.511
		c0,1.104,0.896,2,2,2s2-0.896,2-2v-7c0-0.073-0.014-0.143-0.021-0.214c-0.004-0.041-0.005-0.082-0.013-0.123
		c-0.029-0.169-0.077-0.33-0.145-0.482c-0.004-0.008-0.004-0.018-0.008-0.025c-0.009-0.021-0.026-0.035-0.036-0.055
		c-0.066-0.13-0.145-0.25-0.235-0.36c-0.026-0.032-0.05-0.064-0.078-0.094c-0.112-0.121-0.235-0.229-0.374-0.32
		c-0.022-0.015-0.047-0.024-0.07-0.038c-0.122-0.072-0.252-0.131-0.389-0.177c-0.041-0.014-0.081-0.027-0.123-0.038
		c-0.163-0.043-0.331-0.073-0.508-0.073h-6.667c-1.104,0-2,0.896-2,2s0.896,2,2,2h2.375l-3.107,3.699l-3.186-2.049
		c-0.865-0.555-2.01-0.365-2.648,0.439l-6.387,8.054l-4.757-4.007c-0.781-0.657-1.931-0.622-2.669,0.083l-7.333,7
		c-0.799,0.763-0.829,2.028-0.066,2.827C32.564,56.583,33.091,56.791,33.619,56.791z"/>
</g>
</svg>
