<?xml version="1.0" encoding="utf-8"?>
<!-- Generator: Adobe Illustrator 16.0.0, SVG Export Plug-In . SVG Version: 6.00 Build 0)  -->
<!DOCTYPE svg PUBLIC "-//W3C//DTD SVG 1.1//EN" "http://www.w3.org/Graphics/SVG/1.1/DTD/svg11.dtd">
<svg version="1.1" id="Layer_1" xmlns="http://www.w3.org/2000/svg" xmlns:xlink="http://www.w3.org/1999/xlink" x="0px" y="0px"
	 width="100px" height="100px" viewBox="0 0 100 100" enable-background="new 0 0 100 100" xml:space="preserve">
<path d="M81.697,40.407c0-9.004-7.326-16.329-16.33-16.329c-3.022,0-5.845,0.84-8.275,2.276c-3.488-2.197-7.601-3.489-12.019-3.489
	c-12.479,0-22.632,10.152-22.632,22.632c0,7.355,3.542,13.88,8.992,18.018c-0.124,0.742-0.204,1.5-0.204,2.277
	c0,7.634,6.21,13.844,13.844,13.844c3.837,0,7.312-1.57,9.822-4.102c2.185,1.195,4.69,1.877,7.352,1.877
	c8.479,0,15.377-6.899,15.377-15.377c0-3.145-0.952-6.067-2.577-8.506C79.072,50.551,81.697,45.786,81.697,40.407z M57.102,32.201
	c3.63,3.288,5.929,8.021,5.929,13.295c0,0.403-0.034,0.797-0.061,1.194c-0.241-0.011-0.479-0.036-0.723-0.036
	c-2.076,0-4.056,0.418-5.864,1.168c-1.667-2.016-2.67-4.602-2.67-7.416C53.712,37.208,55.009,34.309,57.102,32.201z M62.036,51.339
	c-0.024,0.071-0.053,0.14-0.078,0.212c-0.173-0.054-0.34-0.121-0.511-0.182C61.642,51.354,61.838,51.344,62.036,51.339z
	 M33.113,58.853c-3.67-3.29-5.997-8.051-5.997-13.356c0-9.902,8.056-17.958,17.958-17.958c2.939,0,5.708,0.724,8.159,1.981
	c-2.598,2.891-4.194,6.701-4.194,10.887c0,3.702,1.253,7.109,3.337,9.851c-0.91,0.765-1.719,1.64-2.432,2.59
	c-1.517-0.572-3.153-0.9-4.869-0.9C39.97,51.947,35.513,54.731,33.113,58.853z M46.936,63.357c-0.612,0.063-1.233,0.097-1.862,0.097
	c-2.915,0-5.663-0.713-8.099-1.951c1.542-2.9,4.592-4.882,8.099-4.882c0.922,0,1.813,0.14,2.653,0.395
	c-0.546,1.576-0.857,3.259-0.857,5.019C46.869,62.481,46.899,62.92,46.936,63.357z M45.074,74.96c-4.925,0-8.945-3.906-9.15-8.782
	c2.801,1.244,5.892,1.95,9.15,1.95c1.009,0,1.995-0.09,2.969-0.218c0.735,1.77,1.797,3.367,3.103,4.734
	C49.526,74.081,47.403,74.96,45.074,74.96z M51.543,62.034c0-0.834,0.105-1.641,0.286-2.42c0.522,0.569,0.977,1.2,1.343,1.89
	c-0.526,0.267-1.066,0.507-1.619,0.722C51.552,62.161,51.543,62.098,51.543,62.034z M53.803,68.588
	c-0.435-0.561-0.813-1.161-1.131-1.801c0.525-0.187,1.045-0.383,1.551-0.608C54.188,67.014,54.049,67.825,53.803,68.588z
	 M53.996,55.223c0.512-0.62,1.099-1.172,1.735-1.662c1.238,0.908,2.605,1.643,4.072,2.179c-0.799,1.145-1.732,2.185-2.769,3.113
	C56.232,57.476,55.206,56.247,53.996,55.223z M62.247,72.736c-1.668,0-3.243-0.394-4.652-1.079c0.839-1.783,1.322-3.768,1.322-5.865
	c0-0.777-0.08-1.535-0.204-2.277c2.427-1.844,4.474-4.152,5.996-6.811c0.22,0.009,0.436,0.033,0.658,0.033
	c1.942,0,3.798-0.359,5.527-0.984c1.286,1.768,2.055,3.933,2.055,6.281C72.95,67.935,68.148,72.736,62.247,72.736z M71.883,50.066
	c-1.276-1.03-2.724-1.849-4.287-2.432c0.066-0.704,0.108-1.417,0.108-2.138c0-6.209-2.516-11.841-6.58-15.934
	c1.316-0.518,2.744-0.812,4.242-0.812c6.426,0,11.655,5.229,11.655,11.655C77.023,44.422,74.982,47.969,71.883,50.066z"/>
</svg>
