<?xml version="1.0" encoding="utf-8"?>
<!-- Generator: Adobe Illustrator 16.0.0, SVG Export Plug-In . SVG Version: 6.00 Build 0)  -->
<!DOCTYPE svg PUBLIC "-//W3C//DTD SVG 1.1//EN" "http://www.w3.org/Graphics/SVG/1.1/DTD/svg11.dtd">
<svg version="1.1" id="Layer_1" xmlns="http://www.w3.org/2000/svg" xmlns:xlink="http://www.w3.org/1999/xlink" x="0px" y="0px"
	 width="100px" height="100px" viewBox="0 0 100 100" enable-background="new 0 0 100 100" xml:space="preserve">
<g>
	<path d="M63.853,66.76h2.532c1.039,0,1.882-0.844,1.882-1.882c0-1.039-0.843-1.882-1.882-1.882h-4.34l-3.494-7.276
		c3.586-2.403,5.953-6.491,5.953-11.124c0-6.739-5.012-12.315-11.501-13.234v-6.419c0-1.038-0.843-1.882-1.882-1.882
		s-1.882,0.844-1.882,1.882v6.419c-6.489,0.919-11.501,6.495-11.501,13.234c0,4.48,2.221,8.443,5.611,10.874l-3.912,7.526h-3.58
		c-1.039,0-1.882,0.843-1.882,1.882c0,1.038,0.843,1.882,1.882,1.882h1.625l-4.549,8.75c-0.479,0.922-0.12,2.059,0.802,2.538
		c0.278,0.145,0.574,0.212,0.866,0.212c0.68,0,1.337-0.369,1.672-1.015l5.449-10.485h7.517v1.881c0,1.039,0.843,1.882,1.882,1.882
		s1.882-0.843,1.882-1.882V66.76h6.675l5.01,10.433c0.324,0.674,0.997,1.067,1.697,1.067c0.273,0,0.551-0.06,0.814-0.186
		c0.936-0.45,1.331-1.574,0.881-2.512L63.853,66.76z M41.502,44.596c0-5.305,4.314-9.619,9.619-9.619s9.619,4.314,9.619,9.619
		c0,3.138-1.516,5.919-3.846,7.676l-4.077-8.49c-0.007-0.014-0.017-0.024-0.023-0.038c-0.031-0.063-0.069-0.12-0.108-0.178
		c-0.031-0.046-0.059-0.096-0.094-0.139c-0.036-0.046-0.08-0.088-0.121-0.131c-0.045-0.046-0.088-0.094-0.137-0.136
		c-0.04-0.033-0.086-0.062-0.128-0.092c-0.06-0.042-0.117-0.083-0.181-0.119c-0.014-0.006-0.023-0.016-0.037-0.023
		c-0.036-0.02-0.074-0.027-0.111-0.045c-0.062-0.027-0.122-0.054-0.186-0.073c-0.063-0.021-0.125-0.034-0.189-0.047
		c-0.054-0.013-0.107-0.023-0.162-0.029c-0.068-0.009-0.137-0.01-0.206-0.011c-0.052,0-0.104-0.002-0.157,0.002
		c-0.07,0.006-0.139,0.019-0.209,0.032c-0.05,0.01-0.1,0.019-0.149,0.031c-0.073,0.021-0.143,0.048-0.214,0.077
		c-0.031,0.014-0.065,0.02-0.098,0.036c-0.013,0.006-0.022,0.015-0.035,0.021c-0.067,0.034-0.131,0.076-0.193,0.119
		c-0.041,0.026-0.084,0.053-0.122,0.083c-0.052,0.04-0.099,0.088-0.146,0.135c-0.042,0.04-0.086,0.08-0.123,0.124
		c-0.036,0.043-0.066,0.091-0.1,0.137c-0.039,0.057-0.079,0.113-0.112,0.173c-0.007,0.014-0.017,0.024-0.024,0.038l-4.346,8.362
		C42.911,50.326,41.502,47.624,41.502,44.596z M51.055,48.805l2.449,5.1c-0.764,0.196-1.559,0.312-2.383,0.312
		c-0.93,0-1.826-0.14-2.678-0.388L51.055,48.805z M53.003,62.996v-0.209c0-1.038-0.843-1.881-1.882-1.881s-1.882,0.843-1.882,1.881
		v0.209h-5.56l3.007-5.788c1.391,0.49,2.878,0.771,4.435,0.771c1.408,0,2.764-0.222,4.039-0.626l2.71,5.644H53.003z"/>
</g>
</svg>
