<?xml version="1.0" encoding="utf-8"?>
<!-- Generator: Adobe Illustrator 16.0.0, SVG Export Plug-In . SVG Version: 6.00 Build 0)  -->
<!DOCTYPE svg PUBLIC "-//W3C//DTD SVG 1.1//EN" "http://www.w3.org/Graphics/SVG/1.1/DTD/svg11.dtd">
<svg version="1.1" id="Layer_1" xmlns="http://www.w3.org/2000/svg" xmlns:xlink="http://www.w3.org/1999/xlink" x="0px" y="0px"
	 width="100px" height="100px" viewBox="0 0 100 100" enable-background="new 0 0 100 100" xml:space="preserve">
<g>
	<path d="M49.192,21.959c-15.42,0-27.965,12.547-27.965,27.966c0,15.42,12.545,27.967,27.965,27.967
		c15.419,0,27.965-12.547,27.965-27.967C77.157,34.506,64.612,21.959,49.192,21.959z M49.192,72.7
		c-12.561,0-22.778-10.216-22.778-22.775c0-12.562,10.217-22.777,22.778-22.777S71.97,37.363,71.97,49.925
		C71.97,62.484,61.753,72.7,49.192,72.7z"/>
	<path stroke="#000000" stroke-linecap="round" stroke-linejoin="round" stroke-miterlimit="10" d="M53.393,62.304
		c0,0,13.18-5.809,4.468-17.202c0,0-1.34,2.905-4.468,2.234c0,0,5.585-10.052-6.254-11.393c0,0,1.339,6.256-4.245,10.946
		c-5.585,4.691-3.798,14.521,2.68,16.53c0,0-0.879-5.808,3.47-10.946C49.044,52.474,50.713,60.963,53.393,62.304z"/>
</g>
</svg>
