<?xml version="1.0" encoding="utf-8"?>
<!-- Generator: Adobe Illustrator 16.0.0, SVG Export Plug-In . SVG Version: 6.00 Build 0)  -->
<!DOCTYPE svg PUBLIC "-//W3C//DTD SVG 1.1//EN" "http://www.w3.org/Graphics/SVG/1.1/DTD/svg11.dtd">
<svg version="1.1" id="Layer_1" xmlns="http://www.w3.org/2000/svg" xmlns:xlink="http://www.w3.org/1999/xlink" x="0px" y="0px"
	 width="100px" height="100px" viewBox="0 0 100 100" enable-background="new 0 0 100 100" xml:space="preserve">
<g>
	<path d="M88.69,44.394h-5.999c-0.055-0.043-0.1-0.094-0.159-0.136L56.58,26.343c-1.034-0.715-2.405-0.713-3.437,0.009L27.3,44.394
		h-6.924c-1.665,0-3.013,1.351-3.013,3.014c0,1.664,1.349,3.014,3.013,3.014h13.277v2.762h2.672v16.995h-2.672v4.019h9.362v-4.019
		h-2.672V53.183h2.672v-2.762h1.688v2.762h2.672v16.995h-2.672v4.019h9.362v-4.019h-2.672V53.183h2.672v-2.762h1.187v2.762h2.671
		v16.995h-2.671v4.019h9.361v-4.019h-2.671V53.183h2.671v-2.762h1.438v2.762h2.672v16.995h-2.672v4.019h9.362v-4.019h-2.672V53.183
		h2.672v-2.762H88.69c1.665,0,3.013-1.35,3.013-3.014C91.703,45.744,90.354,44.394,88.69,44.394z M54.877,32.492l17.242,11.901
		H37.827L54.877,32.492z"/>
	<path d="M80.82,75.409H26.824c-1.666,0-3.014,1.35-3.014,3.014c0,1.663,1.349,3.014,3.014,3.014H80.82
		c1.665,0,3.014-1.351,3.014-3.014C83.834,76.759,82.485,75.409,80.82,75.409z"/>
</g>
</svg>
