<?xml version="1.0" encoding="utf-8"?>
<!-- Generator: Adobe Illustrator 16.0.0, SVG Export Plug-In . SVG Version: 6.00 Build 0)  -->
<!DOCTYPE svg PUBLIC "-//W3C//DTD SVG 1.1//EN" "http://www.w3.org/Graphics/SVG/1.1/DTD/svg11.dtd">
<svg version="1.1" id="Layer_1" xmlns="http://www.w3.org/2000/svg" xmlns:xlink="http://www.w3.org/1999/xlink" x="0px" y="0px"
	 width="100px" height="100px" viewBox="0 0 100 100" enable-background="new 0 0 100 100" xml:space="preserve">
<g>
	<path d="M50,23.966c-14.075,0-25.525,11.453-25.525,25.527S35.925,75.02,50,75.02c14.074,0,25.525-11.452,25.525-25.526
		S64.074,23.966,50,23.966z M50,70.281c-11.465,0-20.791-9.325-20.791-20.788c0-11.467,9.326-20.791,20.791-20.791
		s20.791,9.324,20.791,20.791C70.791,60.956,61.465,70.281,50,70.281z"/>
	<path d="M53.294,48.895v-0.078c1.667-0.833,2.448-2.265,2.448-3.724c0-2.058-1.641-4.35-5.599-4.35
		c-3.385,0-5.963,1.901-5.963,4.767c0,1.483,0.808,2.864,2.448,3.697v0.077c-1.849,0.809-3.021,2.214-3.021,4.244
		c0,2.292,1.979,4.714,6.276,4.714c3.932,0,6.509-2.057,6.509-5.13C56.393,50.926,54.935,49.52,53.294,48.895z M49.961,43.427
		c1.458,0,2.057,1.041,2.057,2.083c0,1.066-0.807,1.899-1.718,2.161c-1.354-0.417-2.396-1.146-2.396-2.292
		C47.904,44.312,48.607,43.427,49.961,43.427z M50.039,55.51c-1.484,0-2.422-1.147-2.396-2.371c0-1.224,0.755-2.161,2.058-2.526
		c1.563,0.417,2.656,1.303,2.656,2.787C52.357,54.597,51.446,55.51,50.039,55.51z"/>
	<path d="M50,35.308c-7.822,0-14.186,6.363-14.186,14.186c0,7.821,6.363,14.186,14.186,14.186c7.822,0,14.186-6.364,14.186-14.186
		C64.186,41.671,57.822,35.308,50,35.308z M50,59.412c-5.469,0-9.919-4.45-9.919-9.919c0-5.47,4.45-9.919,9.919-9.919
		s9.919,4.449,9.919,9.919C59.919,54.962,55.469,59.412,50,59.412z"/>
</g>
</svg>
