<?xml version="1.0" encoding="utf-8"?>
<!-- Generator: Adobe Illustrator 16.0.0, SVG Export Plug-In . SVG Version: 6.00 Build 0)  -->
<!DOCTYPE svg PUBLIC "-//W3C//DTD SVG 1.1//EN" "http://www.w3.org/Graphics/SVG/1.1/DTD/svg11.dtd">
<svg version="1.1" id="Layer_1" xmlns="http://www.w3.org/2000/svg" xmlns:xlink="http://www.w3.org/1999/xlink" x="0px" y="0px"
	 width="100px" height="100px" viewBox="0 0 100 100" enable-background="new 0 0 100 100" xml:space="preserve">
<path d="M67.377,39.156c0-9.149-7.443-16.593-16.592-16.593c-9.15,0-16.594,7.443-16.594,16.593c0,8.425,6.316,15.387,14.459,16.439
	v10.108h-4.213c-1.178,0-2.133,0.955-2.133,2.133s0.955,2.134,2.133,2.134h4.213v3.317c0,1.178,0.955,2.134,2.135,2.134
	c1.178,0,2.133-0.956,2.133-2.134V69.97h4.213c1.18,0,2.135-0.956,2.135-2.134s-0.955-2.133-2.135-2.133h-4.213V55.595
	C61.061,54.542,67.377,47.581,67.377,39.156z M38.459,39.156c0-6.797,5.529-12.326,12.326-12.326
	c6.795,0,12.326,5.529,12.326,12.326S57.58,51.482,50.785,51.482C43.988,51.482,38.459,45.953,38.459,39.156z"/>
</svg>
