<?xml version="1.0" encoding="utf-8"?>
<!-- Generator: Adobe Illustrator 16.0.0, SVG Export Plug-In . SVG Version: 6.00 Build 0)  -->
<!DOCTYPE svg PUBLIC "-//W3C//DTD SVG 1.1//EN" "http://www.w3.org/Graphics/SVG/1.1/DTD/svg11.dtd">
<svg version="1.1" id="Layer_1" xmlns="http://www.w3.org/2000/svg" xmlns:xlink="http://www.w3.org/1999/xlink" x="0px" y="0px"
	 width="100px" height="100px" viewBox="0 0 100 100" enable-background="new 0 0 100 100" xml:space="preserve">
<g>
	<path d="M51.951,26.416c-15.419,0-27.965,12.547-27.965,27.967S36.532,82.35,51.951,82.35c15.42,0,27.965-12.547,27.965-27.967
		S67.371,26.416,51.951,26.416z M51.951,77.158c-12.561,0-22.778-10.217-22.778-22.775c0-12.563,10.217-22.777,22.778-22.777
		S74.729,41.82,74.729,54.383C74.729,66.941,64.512,77.158,51.951,77.158z"/>
	<path d="M20.5,34.939c-0.86,0-1.5,0.697-1.5,1.559v7.779l-1.458,1.184l-0.023-8.943C17.515,35.662,16.844,35,15.987,35
		c-0.003,0-0.005,0-0.008,0c-0.86,0-1.554,0.676-1.55,1.537l-0.386,9.016L12,44.277v-7.779c0-0.861-0.639-1.559-1.5-1.559
		c-0.86,0-1.5,0.697-1.5,1.559v8.537c0,0.479,0.598,0.932,0.974,1.227l4.337,3.254l0.218,22.348C14.535,72.721,15.326,73,16.182,73
		c0.003,0,0.005,0,0.008,0c0.86,0,1.555-0.293,1.55-1.154l-0.125-22.646l3.898-3.041C21.89,45.863,22,45.514,22,45.035v-8.537
		C22,35.637,21.36,34.939,20.5,34.939z"/>
	<path d="M91.177,35.436c-0.599-0.234-1.192-0.076-1.627,0.398c-0.279,0.305-6.794,7.426-6.794,18.773
		c0,0.861,0.74,1.393,1.601,1.393H89v15.879c0,0.861,0.64,1.559,1.5,1.559S92,72.74,92,71.879V36.887
		C92,36.246,91.776,35.668,91.177,35.436z M89,53h-3.039C86.248,48,87,44.645,89,41.979V53z"/>
</g>
</svg>
