<?xml version="1.0" encoding="utf-8"?>
<!-- Generator: Adobe Illustrator 16.0.0, SVG Export Plug-In . SVG Version: 6.00 Build 0)  -->
<!DOCTYPE svg PUBLIC "-//W3C//DTD SVG 1.1//EN" "http://www.w3.org/Graphics/SVG/1.1/DTD/svg11.dtd">
<svg version="1.1" id="Layer_1" xmlns="http://www.w3.org/2000/svg" xmlns:xlink="http://www.w3.org/1999/xlink" x="0px" y="0px"
	 width="100px" height="100px" viewBox="0 0 100 100" enable-background="new 0 0 100 100" xml:space="preserve">
<path d="M49.826,23.731c-7.946,0-15.108,3.363-20.188,8.72c-0.035,0.031-0.081,0.042-0.114,0.076
	c-0.055,0.054-0.074,0.126-0.123,0.184c-4.594,4.969-7.426,11.588-7.426,18.872c0,15.357,12.493,27.851,27.851,27.851
	c15.356,0,27.851-12.494,27.851-27.851C77.677,36.225,65.183,23.731,49.826,23.731z M26.464,51.582
	c0-5.315,1.805-10.207,4.806-14.138l32.692,32.694c-3.93,3.001-8.82,4.806-14.136,4.806C36.944,74.944,26.464,64.464,26.464,51.582z
	 M67.256,67.083L34.323,34.153c4.13-3.678,9.551-5.934,15.503-5.934c12.882,0,23.362,10.48,23.362,23.363
	C73.188,57.533,70.933,62.955,67.256,67.083z"/>
</svg>
