<?xml version="1.0" encoding="utf-8"?>
<!-- Generator: Adobe Illustrator 16.0.0, SVG Export Plug-In . SVG Version: 6.00 Build 0)  -->
<!DOCTYPE svg PUBLIC "-//W3C//DTD SVG 1.1//EN" "http://www.w3.org/Graphics/SVG/1.1/DTD/svg11.dtd">
<svg version="1.1" id="Layer_1" xmlns="http://www.w3.org/2000/svg" xmlns:xlink="http://www.w3.org/1999/xlink" x="0px" y="0px"
	 width="100px" height="100px" viewBox="0 0 100 100" enable-background="new 0 0 100 100" xml:space="preserve">
<g>
	<path d="M78.365,15.895H27.237c-0.86,0-1.558,0.697-1.558,1.558v22.783c0,0.861,0.697,1.558,1.558,1.558h51.128
		c0.861,0,1.559-0.697,1.559-1.558V17.453C79.924,16.592,79.226,15.895,78.365,15.895z M76.808,38.677H28.796V19.011h48.012V38.677z
		"/>
	<path d="M54.246,52.778v-7.445c0-0.861-0.698-1.558-1.558-1.558H23.192V30.344c0-0.861-0.698-1.558-1.558-1.558
		s-1.558,0.697-1.558,1.558v14.989c0,0.861,0.698,1.558,1.558,1.558h29.496v6.012c-0.862,0.551-1.439,1.509-1.444,2.608
		L49.571,82.49c-0.008,1.721,1.382,3.122,3.103,3.13c0.005,0,0.008,0,0.013,0c1.715,0,3.108-1.386,3.116-3.103l0.114-26.979
		C55.923,54.336,55.24,53.303,54.246,52.778z"/>
	<path d="M32.952,23.816h39.472c0.86,0,1.558-0.697,1.558-1.558S73.284,20.7,72.424,20.7H32.952c-0.861,0-1.559,0.697-1.559,1.558
		S32.091,23.816,32.952,23.816z"/>
</g>
</svg>
