<?xml version="1.0" encoding="utf-8"?>
<!-- Generator: Adobe Illustrator 16.0.0, SVG Export Plug-In . SVG Version: 6.00 Build 0)  -->
<!DOCTYPE svg PUBLIC "-//W3C//DTD SVG 1.1//EN" "http://www.w3.org/Graphics/SVG/1.1/DTD/svg11.dtd">
<svg version="1.1" id="Layer_1" xmlns="http://www.w3.org/2000/svg" xmlns:xlink="http://www.w3.org/1999/xlink" x="0px" y="0px"
	 width="100px" height="100px" viewBox="0 0 100 100" enable-background="new 0 0 100 100" xml:space="preserve">
<g>
	<path d="M45.412,28.062c-12.639,0-22.92,10.282-22.92,22.918c0,12.639,10.281,22.92,22.92,22.92
		c12.638,0,22.918-10.282,22.918-22.92C68.33,38.343,58.05,28.062,45.412,28.062z M63.896,53.443l-11.23,0.553
		c0.124-0.298,0.225-0.607,0.312-0.923l9.23-10.185c1.187,2.453,1.871,5.19,1.871,8.092C64.079,51.817,64.004,52.635,63.896,53.443z
		 M46.601,54.809c-0.378,0.117-0.771,0.2-1.189,0.2c-0.526,0-1.026-0.109-1.487-0.293c-0.175-0.07-0.337-0.16-0.5-0.253
		c-1.211-0.695-2.039-1.988-2.039-3.482c0-2.219,1.806-4.026,4.026-4.026c1.312,0,2.468,0.64,3.203,1.612
		c0.11,0.147,0.207,0.302,0.297,0.463c0.327,0.581,0.527,1.241,0.527,1.951c0,0.112-0.023,0.218-0.033,0.33
		c-0.034,0.415-0.117,0.815-0.267,1.186c-0.287,0.703-0.77,1.302-1.377,1.741C47.412,54.489,47.021,54.676,46.601,54.809z
		 M26.743,50.98c0-1.091,0.113-2.153,0.293-3.194l10.807-0.531l-9.724,10.73C27.238,55.82,26.743,53.458,26.743,50.98z
		 M60.104,39.505l-7.515,8.291c-0.063-0.14-0.129-0.275-0.199-0.41l-0.685-13.959C55.051,34.632,57.952,36.754,60.104,39.505z
		 M45.412,32.313c0.818,0,1.621,0.071,2.412,0.174l0.541,11.015l-10.547-9.559C40.14,32.903,42.706,32.313,45.412,32.313z
		 M34.354,35.974l7.974,7.225l-14.179,0.697C29.458,40.717,31.625,37.99,34.354,35.974z M30.048,61.56l7.494-8.271l0.735,14.935
		C34.934,66.835,32.082,64.503,30.048,61.56z M45.412,69.647c-1.109,0-2.189-0.115-3.244-0.302l-0.566-11.497
		c0.06,0.033,0.119,0.064,0.18,0.095l11.153,10.107C50.63,69.069,48.089,69.647,45.412,69.647z M56.408,66.029l-8.422-7.633
		c0.312-0.108,0.612-0.235,0.904-0.38l14.055-0.691C61.668,60.839,59.374,63.857,56.408,66.029z"/>
</g>
</svg>
