<?xml version="1.0" encoding="utf-8"?>
<!-- Generator: Adobe Illustrator 16.0.0, SVG Export Plug-In . SVG Version: 6.00 Build 0)  -->
<!DOCTYPE svg PUBLIC "-//W3C//DTD SVG 1.1//EN" "http://www.w3.org/Graphics/SVG/1.1/DTD/svg11.dtd">
<svg version="1.1" id="Layer_1" xmlns="http://www.w3.org/2000/svg" xmlns:xlink="http://www.w3.org/1999/xlink" x="0px" y="0px"
	 width="100px" height="100px" viewBox="0 0 100 100" enable-background="new 0 0 100 100" xml:space="preserve">
<g>
	<path d="M83.522,46.793L61.995,35.622l0.697-1.346c0.314-0.605,0.078-1.351-0.527-1.665c-0.605-0.315-1.352-0.079-1.666,0.528
		l-1.268,2.442l-9.021,17.387l-4.989,9.614c-0.314,0.606-0.077,1.353,0.529,1.666c0.605,0.314,1.352,0.079,1.666-0.527l4.418-8.518
		l21.529,11.17c0.606,0.313,1.352,0.076,1.666-0.529l9.021-17.386C84.366,47.852,84.13,47.106,83.522,46.793z M81.288,48.416
		l-2.303,4.438l-20.431-10.6l2.302-4.438L81.288,48.416z M52.974,53.011l2.302-4.438l20.433,10.6l-2.303,4.438L52.974,53.011z"/>
	<path d="M15.948,48.459l9.021,17.388c0.315,0.605,1.061,0.841,1.666,0.528l21.529-11.17l4.419,8.518
		c0.314,0.607,1.061,0.842,1.666,0.528c0.605-0.315,0.842-1.06,0.527-1.667l-4.988-9.613l-9.02-17.389l-1.268-2.442
		c-0.315-0.606-1.061-0.842-1.666-0.526c-0.605,0.313-0.842,1.06-0.528,1.665l0.698,1.346L16.476,46.793
		C15.87,47.106,15.634,47.853,15.948,48.459z M39.144,37.818l2.302,4.438l-20.431,10.6l-2.303-4.438L39.144,37.818z M26.594,63.611
		l-2.302-4.437l20.432-10.6l2.301,4.436L26.594,63.611z"/>
</g>
</svg>
