<?xml version="1.0" encoding="utf-8"?>
<!-- Generator: Adobe Illustrator 16.0.0, SVG Export Plug-In . SVG Version: 6.00 Build 0)  -->
<!DOCTYPE svg PUBLIC "-//W3C//DTD SVG 1.1//EN" "http://www.w3.org/Graphics/SVG/1.1/DTD/svg11.dtd">
<svg version="1.1" id="Layer_1" xmlns="http://www.w3.org/2000/svg" xmlns:xlink="http://www.w3.org/1999/xlink" x="0px" y="0px"
	 width="100px" height="100px" viewBox="0 0 100 100" enable-background="new 0 0 100 100" xml:space="preserve">
<path d="M83.196,27.869c0.003-0.008,0.004-0.016,0.007-0.023c0.067-0.17,0.106-0.354,0.106-0.547s-0.04-0.377-0.106-0.547
	c-0.003-0.008-0.004-0.016-0.007-0.023c-0.152-0.369-0.447-0.664-0.816-0.816c-0.007-0.002-0.015-0.004-0.022-0.006
	c-0.17-0.066-0.354-0.107-0.547-0.107h-13.5c-0.194,0-0.377,0.041-0.547,0.107c-0.007,0.002-0.015,0.004-0.022,0.006
	c-0.186,0.076-0.353,0.188-0.492,0.328l-8.021,8.021L44.872,19.906c-0.139-0.139-0.306-0.25-0.492-0.326
	c-0.007-0.004-0.015-0.004-0.022-0.008c-0.17-0.066-0.354-0.105-0.547-0.105h-21.5c-0.194,0-0.377,0.039-0.547,0.105
	c-0.007,0.004-0.015,0.004-0.022,0.008c-0.37,0.152-0.665,0.447-0.816,0.816c-0.003,0.008-0.004,0.016-0.007,0.021
	c-0.067,0.17-0.106,0.355-0.106,0.549s0.04,0.377,0.106,0.547c0.003,0.008,0.004,0.016,0.007,0.021
	c0.076,0.186,0.187,0.354,0.327,0.492l21.06,21.061v7.84l-8.977,8.977c0,0.002-0.001,0.002-0.001,0.002l-0.729,0.729
	c-0.586,0.586-0.586,1.535,0,2.121c0.085,0.086,0.191,0.133,0.29,0.193v15.684c0,0.145,0.027,0.281,0.065,0.414
	c-0.113,0.488-0.006,1.018,0.374,1.396c0.293,0.293,0.677,0.439,1.061,0.439s0.768-0.146,1.061-0.439L69.37,46.527
	c0.14-0.139,0.25-0.307,0.327-0.492c0.003-0.006,0.004-0.014,0.007-0.021c0.067-0.17,0.106-0.354,0.106-0.547V41.42l13.06-13.059
	C83.009,28.221,83.12,28.055,83.196,27.869z M45.31,24.588l12.855,12.854c0,0.002,0,0.002,0.001,0.002s0.001,0,0.001,0.002
	l8.021,8.021L45.31,66.346V24.588z M66.81,30.92v10.926l-5.462-5.463L66.81,30.92z M25.931,22.467H42.31v16.379L25.931,22.467z
	 M42.31,66.762l-5.795-5.795l5.795-5.797V66.762z M41.481,70.174l-5.587,5.588V64.588L41.481,70.174z M69.81,28.799h8.379
	l-8.379,8.379V28.799z"/>
</svg>
