<?xml version="1.0" encoding="utf-8"?>
<!-- Generator: Adobe Illustrator 16.0.0, SVG Export Plug-In . SVG Version: 6.00 Build 0)  -->
<!DOCTYPE svg PUBLIC "-//W3C//DTD SVG 1.1//EN" "http://www.w3.org/Graphics/SVG/1.1/DTD/svg11.dtd">
<svg version="1.1" id="Layer_1" xmlns="http://www.w3.org/2000/svg" xmlns:xlink="http://www.w3.org/1999/xlink" x="0px" y="0px"
	 width="100px" height="100px" viewBox="0 0 100 100" enable-background="new 0 0 100 100" xml:space="preserve">
<g>
	<g>
		<path d="M74.39,74.011c-0.011-0.001-0.02-0.001-0.029,0H24.613c-0.813,0-1.563-0.439-1.959-1.15
			c-0.397-0.71-0.378-1.579,0.049-2.271l24.873-40.371c0.408-0.663,1.132-1.066,1.911-1.066c0.777,0,1.502,0.403,1.91,1.066
			l24.704,40.098c0.332,0.392,0.532,0.897,0.532,1.451C76.634,73.006,75.63,74.011,74.39,74.011z M28.632,69.523h41.709
			L49.487,35.674L28.632,69.523z"/>
	</g>
	<g>
		<path d="M49.485,63.34c0.584,0,1.082,0.205,1.492,0.612c0.408,0.412,0.613,0.907,0.613,1.49c0,0.586-0.217,1.081-0.648,1.493
			c-0.434,0.406-0.919,0.612-1.457,0.612c-0.537,0-1.022-0.206-1.455-0.612c-0.432-0.412-0.646-0.907-0.646-1.493
			c0-0.583,0.203-1.078,0.613-1.49C48.405,63.544,48.901,63.34,49.485,63.34z M50.958,60.395h-2.944V42.512h2.944V60.395z"/>
	</g>
</g>
</svg>
