<?xml version="1.0" encoding="utf-8"?>
<!-- Generator: Adobe Illustrator 16.0.0, SVG Export Plug-In . SVG Version: 6.00 Build 0)  -->
<!DOCTYPE svg PUBLIC "-//W3C//DTD SVG 1.1//EN" "http://www.w3.org/Graphics/SVG/1.1/DTD/svg11.dtd">
<svg version="1.1" id="Layer_1" xmlns="http://www.w3.org/2000/svg" xmlns:xlink="http://www.w3.org/1999/xlink" x="0px" y="0px"
	 width="100px" height="100px" viewBox="0 0 100 100" enable-background="new 0 0 100 100" xml:space="preserve">
<path d="M62.137,17.9c-1.18,0-2.135,0.956-2.135,2.134s0.955,2.133,2.135,2.133h2.393l-8.779,8.779
	c-2.855-2.322-6.49-3.72-10.449-3.72c-9.148,0-16.592,7.442-16.592,16.593c0,8.425,6.316,15.387,14.459,16.439v10.107h-4.215
	c-1.178,0-2.133,0.956-2.133,2.134s0.955,2.134,2.133,2.134h4.215v3.317c0,1.178,0.955,2.134,2.133,2.134s2.133-0.956,2.133-2.134
	v-3.317h4.215c1.178,0,2.133-0.956,2.133-2.134s-0.955-2.134-2.133-2.134h-4.215V60.258c8.143-1.053,14.459-8.015,14.459-16.439
	c0-3.655-1.201-7.027-3.211-9.772l8.863-8.863v1.889c0,1.178,0.955,2.134,2.133,2.134c1.18,0,2.135-0.956,2.135-2.134V17.9H62.137z
	 M45.301,56.145c-6.797,0-12.326-5.529-12.326-12.326s5.529-12.326,12.326-12.326s12.326,5.529,12.326,12.326
	S52.098,56.145,45.301,56.145z"/>
</svg>
