<?xml version="1.0" encoding="utf-8"?>
<!-- Generator: Adobe Illustrator 16.0.0, SVG Export Plug-In . SVG Version: 6.00 Build 0)  -->
<!DOCTYPE svg PUBLIC "-//W3C//DTD SVG 1.1//EN" "http://www.w3.org/Graphics/SVG/1.1/DTD/svg11.dtd">
<svg version="1.1" id="Layer_1" xmlns="http://www.w3.org/2000/svg" xmlns:xlink="http://www.w3.org/1999/xlink" x="0px" y="0px"
	 width="100px" height="100px" viewBox="0 0 100 100" enable-background="new 0 0 100 100" xml:space="preserve">
<g>
	<path d="M54.344,28.618c-0.205-0.005-0.411-0.007-0.617-0.007c-1.172,0-2.126,0.954-2.126,2.126v11.913
		c0,1.172,0.954,2.126,2.126,2.126s2.125-0.954,2.125-2.126v-9.681c10.654,1.085,19.141,10.345,19.141,21.161
		c0,11.727-9.54,21.267-21.267,21.267c-11.727,0-21.267-9.54-21.267-21.267c0-6.033,2.578-11.805,7.071-15.837
		c0.423-0.378,0.673-0.899,0.705-1.465c0.032-0.568-0.16-1.113-0.541-1.539c-0.403-0.448-0.979-0.705-1.583-0.705
		c-0.522,0-1.025,0.192-1.418,0.542c-5.394,4.838-8.487,11.764-8.487,19.003c0,14.07,11.448,25.518,25.519,25.518
		c14.071,0,25.518-11.447,25.518-25.518C79.245,40.387,68.073,28.943,54.344,28.618z"/>
	<path d="M40.822,44.007l11.386,11.606c0.402,0.413,0.941,0.641,1.52,0.641c0.559,0,1.087-0.216,1.489-0.607
		c0.836-0.819,0.85-2.168,0.029-3.006L43.857,41.032c-0.403-0.412-0.942-0.639-1.519-0.639c-0.56,0-1.088,0.216-1.487,0.608
		c-0.405,0.398-0.632,0.929-0.637,1.497C40.208,43.067,40.424,43.603,40.822,44.007z"/>
</g>
</svg>
