<?xml version="1.0" encoding="utf-8"?>
<!-- Generator: Adobe Illustrator 16.0.0, SVG Export Plug-In . SVG Version: 6.00 Build 0)  -->
<!DOCTYPE svg PUBLIC "-//W3C//DTD SVG 1.1//EN" "http://www.w3.org/Graphics/SVG/1.1/DTD/svg11.dtd">
<svg version="1.1" id="Layer_1" xmlns="http://www.w3.org/2000/svg" xmlns:xlink="http://www.w3.org/1999/xlink" x="0px" y="0px"
	 width="100px" height="100px" viewBox="0 0 100 100" enable-background="new 0 0 100 100" xml:space="preserve">
<path d="M51.975,22.061c-15.642,0-28.365,12.724-28.365,28.364c0,10.285,5.505,19.309,13.722,24.281
	c4.277,2.589,9.289,4.082,14.644,4.082c5.354,0,10.365-1.493,14.642-4.081c8.217-4.974,13.722-13.997,13.722-24.282
	C80.338,34.785,67.613,22.061,51.975,22.061z M64.969,71.161c-1.783-2.453-4.705-4.354-8.225-5.27v-3.696
	c2.018-3.364,3.912-7.351,3.912-10.496c0-5.929-2.953-10.886-6.997-11.988c0.458-1.455-0.355-2.74-0.396-2.804
	c-0.143-0.223-0.408-0.338-0.671-0.281c-0.259,0.054-0.459,0.262-0.504,0.524c-0.204,1.22-1.898,2.432-2.87,2.958
	c-3.548,1.657-5.93,6.312-5.93,11.591c0,3.173,1.929,7.201,3.968,10.584v3.593c-3.544,0.911-6.486,2.819-8.278,5.285
	c-6.901-4.339-11.509-12-11.509-20.735c0-13.512,10.992-24.505,24.505-24.505c13.511,0,24.504,10.993,24.504,24.505
	C76.479,59.161,71.868,66.822,64.969,71.161z"/>
</svg>
