<?xml version="1.0" encoding="utf-8"?>
<!-- Generator: Adobe Illustrator 16.0.0, SVG Export Plug-In . SVG Version: 6.00 Build 0)  -->
<!DOCTYPE svg PUBLIC "-//W3C//DTD SVG 1.1//EN" "http://www.w3.org/Graphics/SVG/1.1/DTD/svg11.dtd">
<svg version="1.1" id="Layer_1" xmlns="http://www.w3.org/2000/svg" xmlns:xlink="http://www.w3.org/1999/xlink" x="0px" y="0px"
	 width="100px" height="100px" viewBox="0 0 100 100" enable-background="new 0 0 100 100" xml:space="preserve">
<path d="M48.871,21.545c-14.87,0-26.969,12.099-26.969,26.969c0,14.871,12.099,26.968,26.969,26.968s26.968-12.097,26.968-26.968
	C75.839,33.644,63.741,21.545,48.871,21.545z M48.871,71.534c-1.971,0-3.874-0.274-5.7-0.742c0.002-0.038,0.011-0.074,0.011-0.113
	V47.475l1.336,1.336c0.833,0.833,2.183,0.833,3.017,0c0.833-0.833,0.833-2.184,0-3.017l-4.977-4.977
	c0-0.001-0.001-0.001-0.002-0.002l-1.507-1.508l-1.507,1.508c-0.001,0.001-0.002,0.001-0.002,0.001l-5.333,5.333
	c-0.833,0.833-0.833,2.184,0,3.017c0.417,0.417,0.962,0.625,1.508,0.625s1.092-0.208,1.508-0.625l1.692-1.691v21.765
	c-7.717-3.723-13.066-11.602-13.066-20.726c0-12.694,10.328-23.021,23.021-23.021c1.545,0,3.053,0.158,4.514,0.45
	c-0.028,0.139-0.043,0.28-0.043,0.428v23.204l-1.336-1.336c-0.833-0.833-2.184-0.833-3.017,0c-0.833,0.833-0.833,2.184,0,3.017
	l4.976,4.977c0,0.001,0.001,0.001,0.002,0.002l1.507,1.508l1.507-1.508c0.001-0.001,0.002-0.001,0.002-0.001l5.333-5.333
	c0.833-0.833,0.833-2.184,0-3.017c-0.833-0.833-2.183-0.833-3.017,0l-1.691,1.691V27.226c8.372,3.448,14.285,11.687,14.285,21.288
	C71.893,61.207,61.564,71.534,48.871,71.534z"/>
</svg>
