<?xml version="1.0" encoding="utf-8"?>
<!-- Generator: Adobe Illustrator 16.0.0, SVG Export Plug-In . SVG Version: 6.00 Build 0)  -->
<!DOCTYPE svg PUBLIC "-//W3C//DTD SVG 1.1//EN" "http://www.w3.org/Graphics/SVG/1.1/DTD/svg11.dtd">
<svg version="1.1" id="Layer_1" xmlns="http://www.w3.org/2000/svg" xmlns:xlink="http://www.w3.org/1999/xlink" x="0px" y="0px"
	 width="100px" height="100px" viewBox="0 0 100 100" enable-background="new 0 0 100 100" xml:space="preserve">
<g>
	<g>
		<path d="M58.561,58.808H41.439c-1.211,0-2.191,0.955-2.191,2.132c0,1.178,0.98,2.132,2.191,2.132h17.121
			c1.21,0,2.19-0.954,2.19-2.132C60.751,59.763,59.771,58.808,58.561,58.808z"/>
		<path d="M58.561,66.335H41.439c-1.211,0-2.191,0.954-2.191,2.132c0,1.177,0.98,2.132,2.191,2.132h17.121
			c1.21,0,2.19-0.955,2.19-2.132C60.751,67.289,59.771,66.335,58.561,66.335z"/>
	</g>
	<path d="M73.252,35.551h-6.391V23.946c0-1.039-0.842-1.882-1.881-1.882H35.018c-1.039,0-1.881,0.843-1.881,1.882v11.604h-6.389
		c-0.66,0-1.295,0.232-1.762,0.644c-0.466,0.414-0.729,0.975-0.729,1.558v29.341c0,0.607,0.278,1.158,0.729,1.557
		c0.45,0.398,1.074,0.645,1.762,0.645h6.389v7.041c0,1.038,0.842,1.881,1.881,1.881H64.98c1.039,0,1.881-0.843,1.881-1.881v-7.041
		h6.391c0.66,0,1.293-0.232,1.762-0.645c0.465-0.414,0.729-0.975,0.729-1.557V37.752C75.742,36.536,74.627,35.551,73.252,35.551z
		 M36.9,25.828h26.197v9.723H36.9V25.828z M63.098,64.892v4.402v5.158H36.9v-5.158v-4.402V54.305h26.197V64.892z M70.76,64.892
		h-3.898V52.423c0-1.039-0.842-1.882-1.881-1.882H35.018c-1.039,0-1.881,0.843-1.881,1.882v12.469h-3.898V39.952H70.76V64.892z"/>
</g>
</svg>
