<?xml version="1.0" encoding="utf-8"?>
<!-- Generator: Adobe Illustrator 16.0.0, SVG Export Plug-In . SVG Version: 6.00 Build 0)  -->
<!DOCTYPE svg PUBLIC "-//W3C//DTD SVG 1.1//EN" "http://www.w3.org/Graphics/SVG/1.1/DTD/svg11.dtd">
<svg version="1.1" id="Layer_1" xmlns="http://www.w3.org/2000/svg" xmlns:xlink="http://www.w3.org/1999/xlink" x="0px" y="0px"
	 width="100px" height="100px" viewBox="0 0 100 100" enable-background="new 0 0 100 100" xml:space="preserve">
<path d="M77.517,47.792H75.87v-3.981c0-1.239-1.005-2.244-2.245-2.244H26.648c-1.24,0-2.244,1.005-2.244,2.244v21.626
	c0,1.239,1.004,2.244,2.244,2.244h46.978c1.24,0,2.245-1.005,2.245-2.244v-3.981h1.646c1.24,0,2.244-1.005,2.244-2.244v-9.175
	C79.761,48.798,78.756,47.792,77.517,47.792z M28.892,46.055H40.68l17.138,17.138H28.892V46.055z M71.381,63.193h-7.216
	L47.027,46.055h24.354v3.981v9.175V63.193z"/>
</svg>
