<?xml version="1.0" encoding="utf-8"?>
<!-- Generator: Adobe Illustrator 16.0.0, SVG Export Plug-In . SVG Version: 6.00 Build 0)  -->
<!DOCTYPE svg PUBLIC "-//W3C//DTD SVG 1.1//EN" "http://www.w3.org/Graphics/SVG/1.1/DTD/svg11.dtd">
<svg version="1.1" id="Layer_1" xmlns="http://www.w3.org/2000/svg" xmlns:xlink="http://www.w3.org/1999/xlink" x="0px" y="0px"
	 width="100px" height="100px" viewBox="0 0 100 100" enable-background="new 0 0 100 100" xml:space="preserve">
<g>
	<path d="M75.517,28.193H31.384c-2.407,0-4.365,1.958-4.365,4.364v44.134c0,2.406,1.958,4.364,4.365,4.364h44.133
		c2.407,0,4.365-1.958,4.365-4.364V32.557C79.882,30.151,77.924,28.193,75.517,28.193z M75.394,32.681v3.989H31.507v-3.989H75.394z
		 M31.507,76.567V41.158h43.886v35.409H31.507z"/>
	<path d="M49.722,59.824c0.345-0.313,0.664-0.631,0.959-0.96c0.293-0.328,0.548-0.688,0.765-1.076
		c0.216-0.389,0.384-0.821,0.505-1.296c0.122-0.478,0.181-1.007,0.181-1.595c0-0.917-0.15-1.72-0.454-2.413
		c-0.302-0.689-0.721-1.265-1.257-1.723c-0.536-0.458-1.167-0.805-1.893-1.036c-0.726-0.235-1.503-0.351-2.333-0.351
		c-0.899,0-1.732,0.115-2.501,0.351c-0.769,0.231-1.439,0.582-2.009,1.047c-0.57,0.466-1.029,1.051-1.374,1.752
		c-0.346,0.698-0.545,1.525-0.598,2.475l3.89,0.285c0.051-0.656,0.28-1.21,0.687-1.659c0.406-0.45,0.973-0.675,1.699-0.675
		c0.604,0,1.131,0.177,1.582,0.532c0.449,0.354,0.673,0.843,0.673,1.465c0,0.554-0.181,1.036-0.544,1.453
		c-0.363,0.413-0.726,0.786-1.089,1.113l-7.13,6.404v4.123h12.808V64.62h-8.141L49.722,59.824z"/>
	<path d="M66.678,60.031c-0.294-0.38-0.652-0.701-1.075-0.96c-0.425-0.26-0.913-0.422-1.466-0.492v-0.077
		c1.021-0.208,1.798-0.674,2.334-1.401c0.535-0.726,0.804-1.597,0.804-2.618c0-0.881-0.169-1.643-0.506-2.282
		c-0.336-0.639-0.791-1.17-1.361-1.594c-0.57-0.422-1.231-0.735-1.983-0.934c-0.752-0.197-1.534-0.296-2.347-0.296
		c-0.777,0-1.517,0.082-2.216,0.244c-0.701,0.165-1.335,0.42-1.906,0.767c-0.57,0.345-1.063,0.799-1.478,1.36
		c-0.416,0.561-0.727,1.241-0.934,2.037l4.278,0.88c0.12-0.484,0.38-0.888,0.777-1.217c0.397-0.33,0.898-0.494,1.504-0.494
		c0.639,0,1.18,0.181,1.621,0.543c0.44,0.364,0.66,0.823,0.66,1.376c0,0.432-0.086,0.78-0.258,1.047
		c-0.173,0.269-0.402,0.478-0.688,0.623c-0.285,0.149-0.601,0.247-0.946,0.301c-0.346,0.05-0.7,0.076-1.063,0.076h-1.271v3.371
		h0.909c0.431,0,0.864,0.013,1.295,0.038c0.433,0.028,0.821,0.109,1.167,0.247c0.346,0.139,0.627,0.351,0.843,0.635
		c0.216,0.285,0.324,0.688,0.324,1.207c0,0.689-0.204,1.255-0.609,1.696c-0.406,0.441-1.034,0.662-1.879,0.662
		c-0.831,0-1.458-0.19-1.88-0.571c-0.424-0.38-0.705-0.897-0.842-1.555l-4.097,0.96c0.381,1.641,1.163,2.842,2.347,3.603
		c1.184,0.76,2.597,1.14,4.24,1.14c0.897,0,1.75-0.111,2.552-0.334c0.804-0.227,1.505-0.568,2.101-1.025
		c0.596-0.459,1.072-1.032,1.426-1.724c0.354-0.69,0.532-1.495,0.532-2.413c0-0.533-0.079-1.044-0.235-1.529
		C67.197,60.843,66.973,60.411,66.678,60.031z"/>
</g>
</svg>
