<?xml version="1.0" encoding="utf-8"?>
<!-- Generator: Adobe Illustrator 16.0.0, SVG Export Plug-In . SVG Version: 6.00 Build 0)  -->
<!DOCTYPE svg PUBLIC "-//W3C//DTD SVG 1.1//EN" "http://www.w3.org/Graphics/SVG/1.1/DTD/svg11.dtd">
<svg version="1.1" id="Layer_1" xmlns="http://www.w3.org/2000/svg" xmlns:xlink="http://www.w3.org/1999/xlink" x="0px" y="0px"
	 width="100px" height="100px" viewBox="0 0 100 100" enable-background="new 0 0 100 100" xml:space="preserve">
<path d="M89.558,48.804l-9.469-9.471c-0.003,0-0.003-0.003-0.006-0.003L55.63,14.877c0,0-0.003-0.002-0.003-0.003l-0.988-0.988
	c-1.167-1.169-3.063-1.169-4.231,0l-0.988,0.988c0,0.001-0.003,0.001-0.003,0.001L24.965,39.331c-0.003,0-0.003,0.003-0.006,0.003
	l-9.469,9.471c-1.168,1.169-1.168,3.063,0,4.231c0.583,0.584,1.35,0.877,2.116,0.877s1.533-0.292,2.116-0.877l4.364-4.364v31.935
	c0,3.989,3.245,7.234,7.232,7.234H73.73c3.987,0,7.232-3.245,7.232-7.234V48.671l4.364,4.364c0.583,0.584,1.35,0.877,2.116,0.877
	s1.532-0.292,2.115-0.877C90.727,51.867,90.727,49.973,89.558,48.804z M73.73,81.855H31.318c-0.687,0-1.248-0.561-1.248-1.25V42.687
	l22.454-22.454l22.453,22.454v37.919C74.978,81.294,74.417,81.855,73.73,81.855z"/>
</svg>
