<?xml version="1.0" encoding="utf-8"?>
<!-- Generator: Adobe Illustrator 16.0.0, SVG Export Plug-In . SVG Version: 6.00 Build 0)  -->
<!DOCTYPE svg PUBLIC "-//W3C//DTD SVG 1.1//EN" "http://www.w3.org/Graphics/SVG/1.1/DTD/svg11.dtd">
<svg version="1.1" id="Layer_1" xmlns="http://www.w3.org/2000/svg" xmlns:xlink="http://www.w3.org/1999/xlink" x="0px" y="0px"
	 width="100px" height="100px" viewBox="0 0 100 100" enable-background="new 0 0 100 100" xml:space="preserve">
<g>
	<path d="M47.985,61.855c2.466-0.628,4.297-2.868,4.297-5.527V37.592c0-3.146-2.558-5.702-5.703-5.702h-0.56
		c1.701-1.98,2.736-4.544,2.736-7.351c0-6.229-5.067-11.297-11.295-11.297c-6.229,0-11.296,5.067-11.296,11.297
		c0,2.807,1.035,5.37,2.735,7.351h-0.56c-3.144,0-5.702,2.556-5.702,5.702v18.736c0,2.659,1.831,4.899,4.298,5.527l-3.959,5.863
		c-0.409,0.604-0.45,1.387-0.107,2.03c0.343,0.645,1.013,1.048,1.743,1.048h3.946v11.729c0,3.251,1.713,5.702,3.984,5.702h9.836
		c2.272,0,3.983-2.451,3.983-5.702V70.797h3.947c0.01,0,0.018,0,0.026,0c1.09,0,1.973-0.884,1.973-1.973
		c0-0.517-0.197-0.983-0.519-1.336L47.985,61.855z M37.46,17.188c4.052,0,7.349,3.297,7.349,7.352c0,4.054-3.297,7.351-7.349,7.351
		c-4.053,0-7.35-3.297-7.35-7.351C30.11,20.484,33.407,17.188,37.46,17.188z M42.753,61.164l3.841,5.686h-2.206
		c-1.09,0-1.973,0.885-1.973,1.975v13.701c0,0.883-0.229,1.487-0.384,1.756h-9.143c-0.156-0.269-0.384-0.873-0.384-1.756V68.824
		c0-1.09-0.883-1.975-1.973-1.975h-2.207l3.842-5.686c0.409-0.607,0.45-1.387,0.107-2.032c-0.343-0.644-1.013-1.048-1.743-1.048
		h-2.192c-0.967,0-1.755-0.787-1.755-1.756V37.592c0-0.969,0.788-1.757,1.755-1.757h18.24c0.969,0,1.755,0.788,1.755,1.757v18.736
		c0,0.969-0.787,1.756-1.755,1.756h-2.191c-0.73,0-1.4,0.404-1.743,1.048C42.303,59.777,42.345,60.557,42.753,61.164z"/>
	<path d="M84.862,67.488l-3.804-5.633c2.466-0.628,4.297-2.868,4.297-5.527V37.592c0-3.146-2.558-5.702-5.702-5.702h-0.56
		c1.701-1.98,2.735-4.544,2.735-7.351c0-6.229-5.067-11.297-11.295-11.297c-6.228,0-11.295,5.067-11.295,11.297
		c0,2.807,1.036,5.37,2.735,7.351h-0.559c-3.145,0-5.703,2.556-5.703,5.702v18.736c0,2.659,1.831,4.899,4.298,5.527l-3.959,5.863
		c-0.409,0.604-0.45,1.387-0.107,2.03c0.342,0.645,1.013,1.048,1.743,1.048h3.946v11.729c0,3.251,1.713,5.702,3.984,5.702h9.836
		c2.271,0,3.984-2.451,3.984-5.702V70.797h3.947c0.009,0,0.017,0,0.026,0c1.09,0,1.974-0.884,1.974-1.973
		C85.382,68.308,85.185,67.841,84.862,67.488z M70.534,17.188c4.053,0,7.349,3.297,7.349,7.352c0,4.054-3.296,7.351-7.349,7.351
		s-7.35-3.297-7.35-7.351C63.184,20.484,66.481,17.188,70.534,17.188z M75.827,61.164l3.841,5.686h-2.206
		c-1.09,0-1.973,0.885-1.973,1.975v13.701c0,0.883-0.227,1.487-0.384,1.756h-9.143c-0.156-0.269-0.383-0.873-0.383-1.756V68.824
		c0-1.09-0.884-1.975-1.974-1.975h-2.206l3.841-5.686c0.409-0.607,0.449-1.387,0.107-2.032c-0.342-0.644-1.012-1.048-1.743-1.048
		h-2.19c-0.968,0-1.756-0.787-1.756-1.756V37.592c0-0.969,0.788-1.757,1.756-1.757h18.239c0.968,0,1.754,0.788,1.754,1.757v18.736
		c0,0.969-0.787,1.756-1.754,1.756h-2.192c-0.729,0-1.4,0.404-1.742,1.048C75.377,59.777,75.418,60.557,75.827,61.164z"/>
</g>
</svg>
