<?xml version="1.0" encoding="utf-8"?>
<!-- Generator: Adobe Illustrator 16.0.0, SVG Export Plug-In . SVG Version: 6.00 Build 0)  -->
<!DOCTYPE svg PUBLIC "-//W3C//DTD SVG 1.1//EN" "http://www.w3.org/Graphics/SVG/1.1/DTD/svg11.dtd">
<svg version="1.1" id="Layer_1" xmlns="http://www.w3.org/2000/svg" xmlns:xlink="http://www.w3.org/1999/xlink" x="0px" y="0px"
	 width="100px" height="100px" viewBox="0 0 100 100" enable-background="new 0 0 100 100" xml:space="preserve">
<g>
	<path d="M73.921,43.769l-0.003-0.497c0-11.488-9.346-20.834-20.833-20.834s-20.833,9.346-20.833,20.834l-0.004,0.526
		c-0.021,2.266-0.061,6.487,1.733,8.733c1.928,2.412,3.597,3.781,4.938,4.881c2.26,1.854,3.624,2.971,4.776,7.857
		c0.16,0.676,0.764,1.154,1.46,1.154h15.859c0.696,0,1.3-0.479,1.46-1.154c1.16-4.918,2.682-6.168,4.986-8.059
		c1.387-1.139,2.959-2.43,4.734-4.689C73.975,50.26,73.939,46.037,73.921,43.769z M69.838,50.668
		c-1.574,2.002-2.951,3.133-4.281,4.225c-2.304,1.891-4.314,3.543-5.705,8.531H46.32c-1.361-4.939-3.207-6.451-5.5-8.332
		c-1.295-1.063-2.765-2.268-4.495-4.434c-1.128-1.412-1.093-5.209-1.077-6.832l0.004-0.555c0-9.834,8-17.834,17.833-17.834
		s17.833,8,17.833,17.834l0.003,0.521C70.935,45.422,70.967,49.232,69.838,50.668z"/>
	<path d="M60.96,68.549H45.335c-0.829,0-1.5,0.672-1.5,1.5s0.671,1.5,1.5,1.5H60.96c0.829,0,1.5-0.672,1.5-1.5
		S61.789,68.549,60.96,68.549z"/>
	<path d="M60.96,72.549H45.335c-0.829,0-1.5,0.672-1.5,1.5s0.671,1.5,1.5,1.5H60.96c0.829,0,1.5-0.672,1.5-1.5
		S61.789,72.549,60.96,72.549z"/>
	<path d="M58.21,76.549H48.085c-0.829,0-1.5,0.672-1.5,1.5s0.671,1.5,1.5,1.5H58.21c0.829,0,1.5-0.672,1.5-1.5
		S59.039,76.549,58.21,76.549z"/>
</g>
</svg>
