<?xml version="1.0" encoding="utf-8"?>
<!-- Generator: Adobe Illustrator 16.0.0, SVG Export Plug-In . SVG Version: 6.00 Build 0)  -->
<!DOCTYPE svg PUBLIC "-//W3C//DTD SVG 1.1//EN" "http://www.w3.org/Graphics/SVG/1.1/DTD/svg11.dtd">
<svg version="1.1" id="Layer_1" xmlns="http://www.w3.org/2000/svg" xmlns:xlink="http://www.w3.org/1999/xlink" x="0px" y="0px"
	 width="100px" height="100px" viewBox="0 0 100 100" enable-background="new 0 0 100 100" xml:space="preserve">
<path d="M70.17,28.995H57.51H44.267h-12.66c-1.291,0-2.337,1.047-2.337,2.337v38.563c0,1.29,1.046,2.337,2.337,2.337h9.899
	l0.073,0.073l0.073-0.073h2.615H57.51h12.66c1.291,0,2.337-1.047,2.337-2.337V31.332C72.507,30.042,71.461,28.995,70.17,28.995z
	 M46.604,33.67H54.4l-7.796,7.796V33.67z M33.944,33.67h7.985v12.471l-7.985,7.985V33.67z M39.716,67.559h-5.772v-6.823l7.985-7.985
	l4.674-4.674l8.569-8.569l4.674-4.675l1.163-1.162h6.822v5.772l-7.985,7.985l-4.674,4.674l-8.569,8.57l-4.674,4.674L39.716,67.559z
	 M55.173,67.559h-8.569v-0.277l8.569-8.569V67.559z M67.833,67.559h-7.985V54.037l7.985-7.984V67.559z"/>
</svg>
