<?xml version="1.0" encoding="utf-8"?>
<!-- Generator: Adobe Illustrator 16.0.0, SVG Export Plug-In . SVG Version: 6.00 Build 0)  -->
<!DOCTYPE svg PUBLIC "-//W3C//DTD SVG 1.1//EN" "http://www.w3.org/Graphics/SVG/1.1/DTD/svg11.dtd">
<svg version="1.1" id="Layer_1" xmlns="http://www.w3.org/2000/svg" xmlns:xlink="http://www.w3.org/1999/xlink" x="0px" y="0px"
	 width="100px" height="100px" viewBox="0 0 100 100" enable-background="new 0 0 100 100" xml:space="preserve">
<g>
	<path d="M67.139,22.851H32.572c-1.039,0-1.882,0.843-1.882,1.882v51.854c0,1.038,0.843,1.882,1.882,1.882h34.566
		c1.039,0,1.882-0.844,1.882-1.882V24.732C69.021,23.693,68.178,22.851,67.139,22.851z M34.454,74.705V26.614h30.803v3.345H46.1
		c-1.039,0-1.882,0.843-1.882,1.882s0.843,1.882,1.882,1.882h19.157v3.764H51.764c-1.04,0-1.883,0.843-1.883,1.882
		c0,1.038,0.843,1.882,1.883,1.882h13.493v3.763H51.764c-1.04,0-1.883,0.844-1.883,1.882c0,1.039,0.843,1.882,1.883,1.882h13.493
		v3.764H51.764c-1.04,0-1.883,0.843-1.883,1.882s0.843,1.882,1.883,1.882h13.493v2.509H51.764c-1.04,0-1.883,0.843-1.883,1.882
		s0.843,1.882,1.883,1.882h13.493v5.019H46.1c-1.039,0-1.882,0.843-1.882,1.881c0,1.039,0.843,1.882,1.882,1.882h19.157v3.348
		H34.454z"/>
</g>
</svg>
