<?xml version="1.0" encoding="utf-8"?>
<!-- Generator: Adobe Illustrator 16.0.0, SVG Export Plug-In . SVG Version: 6.00 Build 0)  -->
<!DOCTYPE svg PUBLIC "-//W3C//DTD SVG 1.1//EN" "http://www.w3.org/Graphics/SVG/1.1/DTD/svg11.dtd">
<svg version="1.1" id="Layer_1" xmlns="http://www.w3.org/2000/svg" xmlns:xlink="http://www.w3.org/1999/xlink" x="0px" y="0px"
	 width="100px" height="100px" viewBox="0 0 100 100" enable-background="new 0 0 100 100" xml:space="preserve">
<path d="M74.431,70.618L63.229,43.313v-7.927h1.816c0.295,0,0.579-0.04,0.855-0.103h0.113v-0.036
	c1.667-0.434,2.906-1.938,2.906-3.737v-3.632c0-2.136-1.738-3.875-3.875-3.875H35.743c-2.137,0-3.874,1.739-3.874,3.875v3.632
	c0,1.8,1.238,3.304,2.905,3.737v0.036h0.114c0.276,0.063,0.56,0.103,0.854,0.103h1.816v7.927L26.166,71.087
	c-0.493,1.198-0.354,2.557,0.364,3.628c0.72,1.075,1.924,1.719,3.219,1.719h41.514l0.043-0.006c2.031-0.118,3.647-1.808,3.647-3.867
	C74.953,71.878,74.771,71.204,74.431,70.618z M57.417,35.284v9.176l0.859,2.091H42.514l0.858-2.091v-9.176H57.417z M32.639,70.621
	l7.491-18.259h20.529l7.492,18.259H32.639z"/>
</svg>
