<?xml version="1.0" encoding="utf-8"?>
<!-- Generator: Adobe Illustrator 16.0.0, SVG Export Plug-In . SVG Version: 6.00 Build 0)  -->
<!DOCTYPE svg PUBLIC "-//W3C//DTD SVG 1.1//EN" "http://www.w3.org/Graphics/SVG/1.1/DTD/svg11.dtd">
<svg version="1.1" id="Layer_1" xmlns="http://www.w3.org/2000/svg" xmlns:xlink="http://www.w3.org/1999/xlink" x="0px" y="0px"
	 width="100px" height="100px" viewBox="0 0 100 100" enable-background="new 0 0 100 100" xml:space="preserve">
<g>
	<path d="M80.807,47.445L73.9,43.301l6.924-4.234c0.69-0.422,1.113-1.172,1.117-1.983c0.004-0.81-0.412-1.563-1.099-1.993
		L62.251,23.472c-0.746-0.464-1.689-0.474-2.441-0.021l-9.255,5.554L41.3,23.45c-0.753-0.452-1.696-0.442-2.441,0.021L20.268,35.09
		c-0.687,0.431-1.103,1.184-1.099,1.993c0.004,0.812,0.427,1.562,1.118,1.983l6.924,4.234l-6.907,4.145
		c-0.701,0.42-1.13,1.176-1.134,1.993c-0.004,0.818,0.42,1.578,1.118,2.004l9.04,5.529v6.649c0,0.793,0.402,1.532,1.067,1.963
		l18.892,12.225c0.025,0.018,0.056,0.021,0.082,0.037c0.025,0.016,0.045,0.039,0.071,0.053c0.098,0.053,0.202,0.08,0.304,0.119
		c0.067,0.025,0.129,0.059,0.197,0.078c0.202,0.055,0.409,0.088,0.615,0.088c0.207,0,0.413-0.033,0.616-0.088
		c0.067-0.02,0.13-0.053,0.197-0.078c0.102-0.039,0.207-0.066,0.305-0.119c0.026-0.014,0.045-0.037,0.071-0.053
		s0.056-0.02,0.082-0.037l18.892-12.225c0.666-0.431,1.067-1.17,1.067-1.963v-6.649l9.04-5.529c0.697-0.426,1.121-1.186,1.117-2.004
		C81.938,48.621,81.508,47.865,80.807,47.445z M67.11,54.352l-6.397,3.914L55,54.771l1.521-0.951l10.588-6.477V54.352z
		 M46.111,54.771l-5.713,3.494L34,54.352v-7.008l10.589,6.477L46.111,54.771z M50.555,34.563l8.208,4.926l5.999,3.67l-10.751,6.718
		l-3.456,2.113L47.1,49.877l-10.75-6.718l5.999-3.67L50.555,34.563z M60.988,28.194l14.172,8.857l-5.634,3.444l-8.397-5.038
		l-6.064-3.709L60.988,28.194z M40.123,28.194l5.923,3.555l-6.064,3.709l-8.396,5.038l-5.634-3.444L40.123,28.194z M26.016,49.469
		l3.31-1.985v4.011L26.016,49.469z M34,59.831l5.178,3.168c0.374,0.229,0.796,0.344,1.219,0.344c0.422,0,0.845-0.114,1.22-0.344
		l6.601-4.037v12.589L34,62.35V59.831z M67.11,62.35l-14.217,9.201V58.962l6.601,4.037c0.374,0.229,0.797,0.344,1.219,0.344
		c0.423,0,0.845-0.114,1.22-0.344l5.178-3.168V62.35z M71.784,51.494v-4.011l3.311,1.985L71.784,51.494z"/>
</g>
</svg>
