<?xml version="1.0" encoding="utf-8"?>
<!-- Generator: Adobe Illustrator 16.0.0, SVG Export Plug-In . SVG Version: 6.00 Build 0)  -->
<!DOCTYPE svg PUBLIC "-//W3C//DTD SVG 1.1//EN" "http://www.w3.org/Graphics/SVG/1.1/DTD/svg11.dtd">
<svg version="1.1" id="Layer_1" xmlns="http://www.w3.org/2000/svg" xmlns:xlink="http://www.w3.org/1999/xlink" x="0px" y="0px"
	 width="100px" height="100px" viewBox="0 0 100 100" enable-background="new 0 0 100 100" xml:space="preserve">
<g>
	<path d="M48.906,31.871v33.432c0,1.656,1.347,3.004,3.001,3.004c1.655,0,3.002-1.348,3.002-3.004V31.871l5.782,5.784
		c1.17,1.166,3.072,1.166,4.249-0.006c0.563-0.567,0.873-1.319,0.873-2.119c0-0.801-0.311-1.552-0.878-2.121L54.046,22.52
		c-0.277-0.283-0.607-0.506-1.01-0.675c-0.365-0.146-0.746-0.219-1.129-0.219c-0.387,0-0.767,0.073-1.147,0.229
		c-0.379,0.155-0.712,0.38-0.974,0.651L38.879,33.408C38.311,33.974,38,34.729,38,35.529c0,0.8,0.312,1.555,0.881,2.125
		c1.168,1.164,3.069,1.164,4.244-0.001L48.906,31.871z"/>
	<path d="M72.773,70.875c0,2.203-1.794,3.996-3.999,3.996H35.037c-2.205,0-3.999-1.793-3.999-3.996v-8.877h-6.002v8.877
		c0,5.515,4.487,10,10.001,10h33.738c5.514,0,10.001-4.485,10.001-10v-8.877h-6.002V70.875z"/>
</g>
</svg>
