<?xml version="1.0" encoding="utf-8"?>
<!-- Generator: Adobe Illustrator 16.0.0, SVG Export Plug-In . SVG Version: 6.00 Build 0)  -->
<!DOCTYPE svg PUBLIC "-//W3C//DTD SVG 1.1//EN" "http://www.w3.org/Graphics/SVG/1.1/DTD/svg11.dtd">
<svg version="1.1" id="Layer_1" xmlns="http://www.w3.org/2000/svg" xmlns:xlink="http://www.w3.org/1999/xlink" x="0px" y="0px"
	 width="100px" height="100px" viewBox="0 0 100 100" enable-background="new 0 0 100 100" xml:space="preserve">
<g>
	<path d="M30.638,57.467H53.23c1.076,0,1.948-0.871,1.948-1.947V30.785c0-1.076-0.872-1.947-1.948-1.947H30.638
		c-1.076,0-1.948,0.871-1.948,1.947V55.52C28.69,56.596,29.563,57.467,30.638,57.467z M32.585,32.732h18.697v20.84H32.585V32.732z"
		/>
	<path d="M71.079,40.711c-1.996-3.422-10.606-4.432-13.198-4.66c-0.547-0.043-1.083,0.135-1.486,0.504
		c-0.403,0.369-0.632,0.891-0.632,1.436v19.867H30.638c-1.076,0-1.948,0.871-1.948,1.947v6.621c0,1.076,0.872,1.947,1.948,1.947
		h3.856c0.814,2.371,3.043,4.09,5.687,4.09c2.644,0,4.872-1.719,5.687-4.09h12.192c0.815,2.371,3.043,4.09,5.687,4.09
		s4.872-1.719,5.687-4.09h1.324c1.076,0,1.948-0.871,1.948-1.947l-0.003-6.516C72.841,57.408,73.41,44.713,71.079,40.711z
		 M34.495,64.479h-1.909v-2.727h3.822C35.534,62.459,34.867,63.395,34.495,64.479z M41.063,68.373H39.3
		c-0.742-0.338-1.261-1.082-1.261-1.947s0.52-1.609,1.261-1.947h1.762c0.742,0.338,1.261,1.082,1.261,1.947
		S41.804,68.035,41.063,68.373z M64.628,68.373h-1.762c-0.742-0.338-1.262-1.082-1.262-1.947s0.52-1.609,1.262-1.947h1.762
		c0.742,0.338,1.262,1.082,1.262,1.947S65.371,68.035,64.628,68.373z M63.748,60.389c-2.644,0-4.872,1.719-5.687,4.09H45.868
		c-0.373-1.084-1.039-2.02-1.913-2.727H57.71c1.076,0,1.948-0.871,1.948-1.947V40.176c3.923,0.561,7.556,1.646,8.055,2.496
		c1.283,2.203,1.417,11.281,1.099,17.133v3.355C67.735,61.498,65.873,60.389,63.748,60.389z"/>
</g>
</svg>
