<?xml version="1.0" encoding="utf-8"?>
<!-- Generator: Adobe Illustrator 16.0.0, SVG Export Plug-In . SVG Version: 6.00 Build 0)  -->
<!DOCTYPE svg PUBLIC "-//W3C//DTD SVG 1.1//EN" "http://www.w3.org/Graphics/SVG/1.1/DTD/svg11.dtd">
<svg version="1.1" id="Layer_1" xmlns="http://www.w3.org/2000/svg" xmlns:xlink="http://www.w3.org/1999/xlink" x="0px" y="0px"
	 width="100px" height="100px" viewBox="0 0 100 100" enable-background="new 0 0 100 100" xml:space="preserve">
<g>
	<path d="M86.643,39.519h-3.536c-0.395-4.259-2.082-8.148-4.671-11.268l2.503-2.501c0.752-0.752,0.752-1.968,0-2.723
		c-0.752-0.75-1.972-0.75-2.723,0l-2.502,2.501c-3.118-2.587-7.007-4.273-11.267-4.668v-3.534c0-1.061-0.861-1.926-1.925-1.926
		c-1.063,0-1.925,0.865-1.925,1.926v3.534c-4.26,0.395-8.148,2.081-11.266,4.668l-2.501-2.501c-0.751-0.75-1.972-0.75-2.723,0
		c-0.752,0.755-0.752,1.971,0,2.723l2.504,2.501c-2.59,3.119-4.277,7.009-4.672,11.268h-3.535c-1.062,0-1.924,0.862-1.924,1.926
		c0,1.062,0.862,1.927,1.924,1.927h1.338c-2.46,0.66-4.71,1.836-6.616,3.419l-2.116-2.116c-0.637-0.634-1.668-0.634-2.304,0
		c-0.636,0.637-0.636,1.666,0,2.303l2.118,2.117c-2.191,2.637-3.617,5.927-3.952,9.532h-2.992c-0.898,0-1.627,0.729-1.627,1.629
		c0,0.899,0.729,1.629,1.627,1.629h2.992c0.334,3.602,1.761,6.893,3.952,9.529l-2.118,2.117c-0.635,0.637-0.635,1.667,0,2.304
		c0.319,0.317,0.736,0.476,1.152,0.476c0.416,0,0.833-0.159,1.152-0.476l2.116-2.117c2.638,2.19,5.928,3.616,9.53,3.951v2.989
		c0,0.9,0.73,1.629,1.629,1.629c0.9,0,1.628-0.729,1.628-1.629v-2.989c3.604-0.334,6.893-1.76,9.532-3.951l2.117,2.117
		c0.318,0.317,0.735,0.476,1.152,0.476s0.833-0.159,1.152-0.476c0.637-0.637,0.637-1.667,0-2.304l-2.118-2.117
		c1.276-1.537,2.284-3.302,2.977-5.214c0.265,0.745,0.958,1.287,1.795,1.287c1.064,0,1.925-0.863,1.925-1.926v-3.534
		c4.26-0.393,8.148-2.079,11.267-4.668l2.502,2.501c0.376,0.374,0.869,0.563,1.362,0.563c0.491,0,0.984-0.188,1.361-0.563
		c0.752-0.755,0.752-1.971,0-2.724l-2.503-2.501c2.589-3.119,4.276-7.009,4.671-11.263h3.536c1.062,0,1.924-0.865,1.924-1.927
		C88.567,40.381,87.705,39.519,86.643,39.519z M58.447,61.749c-0.295,2.81-1.411,5.375-3.103,7.461
		c-0.625,0.77-1.331,1.473-2.102,2.101c-2.083,1.69-4.65,2.807-7.461,3.102c-0.491,0.051-0.989,0.082-1.494,0.082
		s-1.002-0.031-1.494-0.082c-2.809-0.295-5.376-1.412-7.459-3.102c-0.771-0.628-1.477-1.33-2.102-2.101
		c-1.692-2.086-2.809-4.652-3.104-7.461c-0.051-0.491-0.08-0.991-0.08-1.494c0-0.505,0.028-1,0.08-1.496
		c0.295-2.808,1.412-5.375,3.103-7.461c0.626-0.77,1.33-1.473,2.103-2.1c1.984-1.612,4.416-2.678,7.07-3.033
		c0.424,1.81,1.088,3.527,1.955,5.121c-0.024,0-0.048-0.004-0.071-0.004c-4.947,0-8.972,4.025-8.972,8.974
		c0,4.946,4.025,8.973,8.972,8.973c4.948,0,8.972-4.027,8.972-8.973c0-0.115-0.013-0.228-0.018-0.342
		c1.625,0.818,3.375,1.419,5.208,1.786C58.449,61.715,58.45,61.733,58.447,61.749z M50.002,60.255c0,3.149-2.563,5.713-5.714,5.713
		c-3.151,0-5.714-2.564-5.714-5.713c0-3.151,2.563-5.714,5.714-5.714c0.716,0,1.395,0.147,2.029,0.389l-2.208,2.206
		c-0.751,0.752-0.751,1.968,0,2.724c0.375,0.374,0.87,0.563,1.361,0.563c0.492,0,0.984-0.188,1.361-0.563l2.407-2.407
		C49.71,58.285,50.002,59.231,50.002,60.255z M79.261,43.209c-0.349,3.321-1.668,6.354-3.669,8.82
		c-0.739,0.91-1.572,1.742-2.484,2.482c-2.463,1.997-5.497,3.318-8.818,3.667c-0.582,0.06-1.169,0.097-1.767,0.097
		c-0.295,0-0.583-0.032-0.875-0.048c-0.297-0.016-0.597-0.018-0.89-0.048c-0.854-0.09-1.688-0.247-2.499-0.461
		c-2.343-0.617-4.49-1.721-6.319-3.206c-0.912-0.741-1.746-1.571-2.484-2.482c-1.377-1.698-2.4-3.678-3.038-5.821
		c-0.289-0.97-0.522-1.964-0.631-3c-0.061-0.58-0.094-1.172-0.094-1.765c0-0.596,0.033-1.182,0.094-1.768
		c0.009-0.083,0.035-0.162,0.045-0.244c0.386-3.225,1.673-6.172,3.622-8.575c0.74-0.912,1.572-1.742,2.486-2.484
		c2.461-1.997,5.495-3.318,8.818-3.667c0.581-0.059,1.168-0.097,1.765-0.097c0.598,0,1.185,0.038,1.767,0.097
		c3.322,0.349,6.357,1.67,8.818,3.667c0.912,0.742,1.745,1.572,2.484,2.484c2,2.465,3.32,5.498,3.669,8.819
		c0.06,0.586,0.094,1.172,0.094,1.768C79.355,42.038,79.321,42.629,79.261,43.209z"/>
	<path d="M62.523,30.838c-5.847,0-10.605,4.757-10.605,10.606c0,1.175,0.2,2.304,0.555,3.362c1.091,3.25,3.708,5.799,6.999,6.791
		c0.967,0.292,1.991,0.453,3.051,0.453c5.85,0,10.604-4.759,10.604-10.606C73.127,35.596,68.373,30.838,62.523,30.838z
		 M62.523,48.199c-1.119,0-2.16-0.301-3.091-0.786c-0.982-0.511-1.836-1.236-2.463-2.143c-0.753-1.09-1.199-2.405-1.199-3.825
		c0-3.723,3.029-6.754,6.753-6.754c3.726,0,6.754,3.032,6.754,6.754C69.277,45.166,66.249,48.199,62.523,48.199z"/>
</g>
</svg>
