<?xml version="1.0" encoding="utf-8"?>
<!-- Generator: Adobe Illustrator 16.0.0, SVG Export Plug-In . SVG Version: 6.00 Build 0)  -->
<!DOCTYPE svg PUBLIC "-//W3C//DTD SVG 1.1//EN" "http://www.w3.org/Graphics/SVG/1.1/DTD/svg11.dtd">
<svg version="1.1" id="Layer_1" xmlns="http://www.w3.org/2000/svg" xmlns:xlink="http://www.w3.org/1999/xlink" x="0px" y="0px"
	 width="100px" height="100px" viewBox="0 0 100 100" enable-background="new 0 0 100 100" xml:space="preserve">
<path d="M75.032,36.587c0.201-0.364,0.305-0.781,0.29-1.213c-0.031-0.892-0.568-1.689-1.384-2.052L48.976,22.19
	c-0.606-0.271-1.299-0.271-1.904,0L22.122,33.316c-0.029,0.014-0.059,0.027-0.088,0.041c-0.515,0.252-0.897,0.669-1.113,1.16
	c-0.041,0.094-0.076,0.19-0.104,0.288c-0.066,0.228-0.098,0.465-0.093,0.706v24.246c0,0.764,0.372,1.479,0.999,1.916l24.962,17.435
	c0.004,0.003,0.007,0.003,0.011,0.006c0.174,0.12,0.367,0.208,0.57,0.278c0.045,0.015,0.088,0.029,0.133,0.042
	c0.201,0.055,0.406,0.095,0.624,0.095c0.192,0,0.378-0.031,0.556-0.073c0.051-0.012,0.097-0.03,0.146-0.045
	c0.143-0.046,0.278-0.104,0.408-0.174c0.026-0.015,0.057-0.02,0.083-0.035l24.963-14.802c0.71-0.42,1.145-1.185,1.145-2.01V37.719
	C75.323,37.309,75.218,36.924,75.032,36.587z M48.023,26.884l19.646,8.76L48.023,46.12L28.38,35.644L48.023,26.884z M25.398,39.352
	L45.687,50.17v22.538l-20.288-14.17V39.352z M70.649,61.057L50.36,73.088V50.17l20.289-10.818V61.057z"/>
</svg>
