<?xml version="1.0" encoding="utf-8"?>
<!-- Generator: Adobe Illustrator 16.0.0, SVG Export Plug-In . SVG Version: 6.00 Build 0)  -->
<!DOCTYPE svg PUBLIC "-//W3C//DTD SVG 1.1//EN" "http://www.w3.org/Graphics/SVG/1.1/DTD/svg11.dtd">
<svg version="1.1" id="Layer_1" xmlns="http://www.w3.org/2000/svg" xmlns:xlink="http://www.w3.org/1999/xlink" x="0px" y="0px"
	 width="100px" height="100px" viewBox="0 0 100 100" enable-background="new 0 0 100 100" xml:space="preserve">
<path d="M49.999,75.96c14.871,0,26.97-12.099,26.97-26.969S64.87,22.024,49.999,22.024c-14.87,0-26.968,12.098-26.968,26.968
	S35.129,75.96,49.999,75.96z M49.999,25.971c12.034,0,21.926,9.285,22.923,21.065H50.928l1.336-1.336
	c0.834-0.833,0.834-2.184,0-3.017c-0.416-0.417-0.963-0.625-1.508-0.625c-0.547,0-1.092,0.208-1.509,0.625l-4.976,4.977
	c0,0-0.002,0.002-0.004,0.002l-1.506,1.507l1.506,1.507c0.002,0,0.003,0.002,0.004,0.003l5.331,5.332
	c0.833,0.833,2.184,0.833,3.017,0c0.834-0.833,0.834-2.184,0-3.017l-1.691-1.691h21.977c-1.163,11.612-10.99,20.712-22.905,20.712
	c-12.694,0-23.021-10.329-23.021-23.023C26.979,36.298,37.305,25.971,49.999,25.971z"/>
</svg>
