<?xml version="1.0" encoding="utf-8"?>
<!-- Generator: Adobe Illustrator 16.0.0, SVG Export Plug-In . SVG Version: 6.00 Build 0)  -->
<!DOCTYPE svg PUBLIC "-//W3C//DTD SVG 1.1//EN" "http://www.w3.org/Graphics/SVG/1.1/DTD/svg11.dtd">
<svg version="1.1" id="Layer_1" xmlns="http://www.w3.org/2000/svg" xmlns:xlink="http://www.w3.org/1999/xlink" x="0px" y="0px"
	 width="100px" height="100px" viewBox="0 0 100 100" enable-background="new 0 0 100 100" xml:space="preserve">
<path d="M79.256,39.243h-5.419V28.896c0-2.407-1.958-4.364-4.365-4.364H29.328c-2.407,0-4.365,1.958-4.365,4.364V54.08
	c0,2.407,1.958,4.364,4.365,4.364h5.419v10.347c0,2.407,1.958,4.364,4.365,4.364h40.144c2.407,0,4.365-1.958,4.365-4.364V43.607
	C83.621,41.201,81.663,39.243,79.256,39.243z M34.747,43.607v10.349h-5.295V29.02h39.897v10.223H39.112
	C36.705,39.243,34.747,41.201,34.747,43.607z M79.132,68.667H39.235V58.444v-4.488V43.731h30.113h4.488h5.295V68.667z"/>
</svg>
