<?xml version="1.0" encoding="utf-8"?>
<!-- Generator: Adobe Illustrator 16.0.0, SVG Export Plug-In . SVG Version: 6.00 Build 0)  -->
<!DOCTYPE svg PUBLIC "-//W3C//DTD SVG 1.1//EN" "http://www.w3.org/Graphics/SVG/1.1/DTD/svg11.dtd">
<svg version="1.1" id="Layer_1" xmlns="http://www.w3.org/2000/svg" xmlns:xlink="http://www.w3.org/1999/xlink" x="0px" y="0px"
	 width="100px" height="100px" viewBox="0 0 100 100" enable-background="new 0 0 100 100" xml:space="preserve">
<g>
	<path d="M78.669,76.645H58.105c7.051-2.708,12.247-9.182,13.078-16.957h2.018c4.059,0,7.361-3.302,7.361-7.36
		s-3.302-7.361-7.361-7.361h-3.397H31.749c-0.829,0-1.5,0.672-1.5,1.5v11.027c0,8.734,5.493,16.192,13.199,19.151H22.884
		c-0.829,0-1.5,0.672-1.5,1.5s0.671,1.5,1.5,1.5h55.785c0.829,0,1.5-0.672,1.5-1.5S79.498,76.645,78.669,76.645z M77.562,52.328
		c0,2.404-1.956,4.36-4.361,4.36h-1.897v-8.722h1.897C75.605,47.966,77.562,49.922,77.562,52.328z M33.249,57.494v-9.527h35.055
		v9.527c0,9.665-7.863,17.527-17.527,17.527S33.249,67.159,33.249,57.494z"/>
	<path d="M39.193,29.902c1.744,0.736,2.751,1.59,2.837,2.404c0.127,1.204-1.534,2.781-2.358,3.356
		c-0.68,0.471-0.85,1.403-0.38,2.084c0.291,0.422,0.76,0.648,1.236,0.648c0.293,0,0.59-0.086,0.85-0.266
		c0.408-0.281,3.974-2.842,3.637-6.126c-0.207-2.013-1.773-3.649-4.619-4.85c-0.744-0.337-1.581-1.058-1.572-1.353
		c0-0.009,0.169-0.906,3.369-2.13c0.773-0.297,1.161-1.164,0.865-1.938c-0.295-0.772-1.16-1.16-1.937-0.865
		c-3.505,1.342-5.238,2.926-5.295,4.842C35.748,28.265,38.808,29.728,39.193,29.902z"/>
	<path d="M49.539,29.902c1.744,0.736,2.751,1.59,2.837,2.404c0.127,1.204-1.534,2.781-2.358,3.356
		c-0.68,0.471-0.85,1.403-0.38,2.084c0.291,0.422,0.76,0.648,1.236,0.648c0.293,0,0.59-0.086,0.85-0.266
		c0.408-0.281,3.974-2.842,3.637-6.126c-0.207-2.013-1.773-3.649-4.619-4.85c-0.744-0.337-1.581-1.058-1.572-1.353
		c0-0.009,0.169-0.906,3.369-2.13c0.773-0.297,1.161-1.164,0.865-1.938c-0.295-0.772-1.161-1.16-1.937-0.865
		c-3.505,1.342-5.238,2.926-5.295,4.842C46.094,28.265,49.153,29.728,49.539,29.902z"/>
	<path d="M59.603,29.902c1.744,0.736,2.751,1.59,2.837,2.404c0.127,1.204-1.534,2.781-2.358,3.356
		c-0.68,0.471-0.85,1.403-0.38,2.084c0.291,0.422,0.76,0.648,1.236,0.648c0.293,0,0.59-0.086,0.85-0.266
		c0.408-0.281,3.974-2.842,3.637-6.126c-0.207-2.013-1.773-3.649-4.619-4.85c-0.744-0.337-1.581-1.058-1.572-1.353
		c0-0.009,0.169-0.906,3.369-2.13c0.773-0.297,1.161-1.164,0.865-1.938c-0.295-0.772-1.161-1.16-1.937-0.865
		c-3.505,1.342-5.238,2.926-5.295,4.842C56.158,28.265,59.217,29.728,59.603,29.902z"/>
</g>
</svg>
