<?xml version="1.0" encoding="utf-8"?>
<!-- Generator: Adobe Illustrator 16.0.0, SVG Export Plug-In . SVG Version: 6.00 Build 0)  -->
<!DOCTYPE svg PUBLIC "-//W3C//DTD SVG 1.1//EN" "http://www.w3.org/Graphics/SVG/1.1/DTD/svg11.dtd">
<svg version="1.1" id="Layer_1" xmlns="http://www.w3.org/2000/svg" xmlns:xlink="http://www.w3.org/1999/xlink" x="0px" y="0px"
	 width="100px" height="100px" viewBox="0 0 100 100" enable-background="new 0 0 100 100" xml:space="preserve">
<path d="M72.892,26.354H28.726c-1.293,0-2.338,1.047-2.338,2.337v44.167c0,1.29,1.045,2.337,2.338,2.337h44.166
	c1.291,0,2.336-1.047,2.336-2.337V28.691C75.228,27.4,74.183,26.354,72.892,26.354z M46.782,55.282v-8.049h8.051v8.049H46.782z
	 M54.833,59.956V70.52h-8.051V59.956H54.833z M31.062,47.232h11.047v8.049H31.062V47.232z M46.782,42.558v-11.53h8.051v11.53H46.782
	z M59.507,47.232h11.047v8.049H59.507V47.232z M70.554,42.558H59.507v-11.53h11.047V42.558z M42.108,31.028v11.53H31.062v-11.53
	H42.108z M31.062,59.956h11.047V70.52H31.062V59.956z M59.507,70.52V59.956h11.047V70.52H59.507z"/>
</svg>
