<?xml version="1.0" encoding="utf-8"?>
<!-- Generator: Adobe Illustrator 16.0.0, SVG Export Plug-In . SVG Version: 6.00 Build 0)  -->
<!DOCTYPE svg PUBLIC "-//W3C//DTD SVG 1.1//EN" "http://www.w3.org/Graphics/SVG/1.1/DTD/svg11.dtd">
<svg version="1.1" id="Layer_1" xmlns="http://www.w3.org/2000/svg" xmlns:xlink="http://www.w3.org/1999/xlink" x="0px" y="0px"
	 width="100px" height="100px" viewBox="0 0 100 100" enable-background="new 0 0 100 100" xml:space="preserve">
<g>
	<path d="M62.367,60.128h-4.154c-0.86,0-1.558,0.697-1.558,1.559c0,0.86,0.698,1.558,1.558,1.558h4.154
		c0.86,0,1.558-0.697,1.558-1.558C63.925,60.825,63.227,60.128,62.367,60.128z"/>
	<path d="M70.293,60.128h-4.282c-0.861,0-1.558,0.697-1.558,1.559c0,0.86,0.697,1.558,1.558,1.558h4.282
		c0.86,0,1.558-0.697,1.558-1.558C71.852,60.825,71.154,60.128,70.293,60.128z"/>
	<path d="M39.438,46.676h13.695c0.86,0,1.558-0.697,1.558-1.558c0-0.861-0.698-1.559-1.558-1.559H39.438
		c-0.861,0-1.558,0.697-1.558,1.559C37.879,45.979,38.577,46.676,39.438,46.676z"/>
	<path d="M78.816,74.704h-2.037V48.431c0-0.861-0.697-1.559-1.558-1.559h-3.37V30.98c0-0.861-0.698-1.558-1.558-1.558h-4.282
		c-0.861,0-1.558,0.696-1.558,1.558v15.892h-1.37V30.98c0-0.861-0.698-1.558-1.558-1.558h-4.281c-0.861,0-1.559,0.696-1.559,1.558
		v15.892H33.915c-0.86,0-1.558,0.697-1.558,1.559v26.273H30.32c-0.86,0-1.558,0.697-1.558,1.559s0.697,1.559,1.558,1.559h3.595
		h5.523h13.695h22.089h3.595c0.86,0,1.558-0.697,1.558-1.559S79.676,74.704,78.816,74.704z M67.57,32.539h1.166v14.333H67.57V32.539
		z M58.802,32.539h1.166v14.333h-1.166V32.539z M40.996,74.704v-11.46h10.579v11.46H40.996z M54.69,74.704V61.687
		c0-0.861-0.698-1.559-1.558-1.559H39.438c-0.861,0-1.558,0.697-1.558,1.559v13.018h-2.406V49.988h21.771h4.281h4.486h4.282h3.369
		v24.716H54.69z"/>
</g>
</svg>
