<?xml version="1.0" encoding="utf-8"?>
<!-- Generator: Adobe Illustrator 16.0.0, SVG Export Plug-In . SVG Version: 6.00 Build 0)  -->
<!DOCTYPE svg PUBLIC "-//W3C//DTD SVG 1.1//EN" "http://www.w3.org/Graphics/SVG/1.1/DTD/svg11.dtd">
<svg version="1.1" id="Layer_1" xmlns="http://www.w3.org/2000/svg" xmlns:xlink="http://www.w3.org/1999/xlink" x="0px" y="0px"
	 width="100px" height="100px" viewBox="0 0 100 100" enable-background="new 0 0 100 100" xml:space="preserve">
<g>
	<g>
		<path d="M89.448,48.804l-9.469-9.471c-0.003,0-0.003-0.003-0.006-0.003L55.521,14.877c0,0-0.003-0.002-0.003-0.003l-0.988-0.988
			c-1.167-1.169-3.064-1.169-4.231,0l-0.987,0.988c0,0.001-0.003,0.001-0.003,0.001L24.855,39.331c-0.003,0-0.003,0.003-0.006,0.003
			l-9.469,9.471c-1.169,1.169-1.169,3.063,0,4.231c0.583,0.584,1.35,0.877,2.116,0.877s1.533-0.292,2.116-0.877l4.364-4.364
			l2.992,31.935c0,3.989,3.245,7.234,7.232,7.234h36.427c3.987,0,7.232-3.245,7.232-7.234l2.992-31.935l4.364,4.364
			c0.583,0.584,1.35,0.877,2.115,0.877s1.533-0.292,2.116-0.877C90.617,51.867,90.617,49.973,89.448,48.804z M70.628,81.855H34.201
			c-0.687,0-1.248-0.561-1.248-1.25L29.96,42.687l22.454-22.454l22.454,22.454l-2.992,37.919
			C71.875,81.294,71.314,81.855,70.628,81.855z"/>
	</g>
	<g>
		<path d="M52.414,62.264c-6.528,0-11.839-5.311-11.839-11.839c0-6.528,5.311-11.839,11.839-11.839
			c6.528,0,11.839,5.311,11.839,11.839C64.253,56.953,58.942,62.264,52.414,62.264z M52.414,44.57c-3.229,0-5.854,2.627-5.854,5.854
			s2.625,5.854,5.854,5.854s5.854-2.627,5.854-5.854S55.643,44.57,52.414,44.57z"/>
	</g>
</g>
</svg>
