<?xml version="1.0" encoding="utf-8"?>
<!-- Generator: Adobe Illustrator 16.0.0, SVG Export Plug-In . SVG Version: 6.00 Build 0)  -->
<!DOCTYPE svg PUBLIC "-//W3C//DTD SVG 1.1//EN" "http://www.w3.org/Graphics/SVG/1.1/DTD/svg11.dtd">
<svg version="1.1" id="Layer_1" xmlns="http://www.w3.org/2000/svg" xmlns:xlink="http://www.w3.org/1999/xlink" x="0px" y="0px"
	 width="100px" height="100px" viewBox="0 0 100 100" enable-background="new 0 0 100 100" xml:space="preserve">
<g>
	<path d="M59.51,46.365h3.314l-2.272,12.828c-0.253,1.483-0.261,2.557-0.024,3.22c0.237,0.661,0.766,0.993,1.586,0.993
		s1.625-0.189,2.414-0.568s1.498-0.962,2.13-1.751s1.144-1.782,1.539-2.981c0.394-1.199,0.592-2.619,0.592-4.261
		c0-2.367-0.396-4.387-1.184-6.059c-0.789-1.672-1.87-3.054-3.242-4.142c-1.373-1.09-2.991-1.886-4.853-2.391
		s-3.865-0.759-6.012-0.759c-2.461,0-4.749,0.442-6.863,1.326c-2.114,0.885-3.952,2.1-5.515,3.645
		c-1.562,1.547-2.785,3.385-3.668,5.516c-0.884,2.129-1.325,4.44-1.325,6.934c0,2.462,0.37,4.67,1.111,6.627
		c0.742,1.958,1.823,3.621,3.243,4.995c1.42,1.372,3.179,2.429,5.277,3.17s4.505,1.112,7.22,1.112c0.914,0,1.955-0.11,3.123-0.33
		c1.168-0.222,2.225-0.553,3.172-0.995l1.467,4.545c-1.294,0.631-2.611,1.072-3.952,1.324c-1.342,0.253-2.88,0.38-4.615,0.38
		c-3.061,0-5.894-0.443-8.497-1.325c-2.604-0.885-4.859-2.194-6.768-3.929c-1.91-1.736-3.401-3.89-4.475-6.462
		c-1.072-2.571-1.608-5.546-1.608-8.922c0-3.44,0.615-6.549,1.847-9.326c1.23-2.775,2.887-5.143,4.97-7.101
		c2.083-1.956,4.497-3.462,7.242-4.521c2.745-1.056,5.648-1.585,8.709-1.585c2.903,0,5.602,0.419,8.095,1.254
		c2.492,0.837,4.654,2.035,6.484,3.598c1.83,1.562,3.267,3.472,4.309,5.729c1.041,2.255,1.562,4.82,1.562,7.691
		c0,2.02-0.354,3.912-1.065,5.681c-0.71,1.768-1.688,3.298-2.934,4.592c-1.248,1.293-2.699,2.318-4.355,3.076
		c-1.656,0.757-3.432,1.136-5.325,1.136c-0.79,0-1.522-0.086-2.202-0.26c-0.678-0.174-1.246-0.466-1.703-0.876
		c-0.458-0.411-0.797-0.947-1.018-1.61c-0.221-0.662-0.285-1.482-0.189-2.461h-0.189c-0.474,0.663-0.986,1.31-1.538,1.94
		c-0.553,0.632-1.16,1.192-1.823,1.681c-0.662,0.49-1.389,0.876-2.177,1.16c-0.79,0.283-1.657,0.426-2.604,0.426
		c-0.757,0-1.483-0.166-2.177-0.496c-0.695-0.332-1.295-0.798-1.799-1.397c-0.506-0.599-0.908-1.325-1.207-2.178
		c-0.301-0.852-0.45-1.799-0.45-2.84c0-1.956,0.315-3.858,0.946-5.704c0.631-1.847,1.492-3.479,2.58-4.899s2.351-2.563,3.787-3.432
		c1.436-0.867,2.959-1.301,4.567-1.301c1.104,0,2.036,0.165,2.793,0.496c0.758,0.332,1.451,0.766,2.083,1.303L59.51,46.365z
		 M56.527,52.094c-0.41-0.348-0.836-0.616-1.277-0.805c-0.442-0.19-0.994-0.284-1.657-0.284c-0.946,0-1.822,0.268-2.626,0.805
		c-0.805,0.536-1.5,1.229-2.083,2.082c-0.585,0.852-1.034,1.808-1.35,2.863c-0.315,1.059-0.474,2.092-0.474,3.101
		c0,1.042,0.213,1.895,0.64,2.558c0.426,0.661,1.159,0.993,2.2,0.993c0.442,0,0.916-0.134,1.42-0.401
		c0.506-0.269,0.994-0.624,1.469-1.066c0.473-0.441,0.93-0.947,1.372-1.514c0.442-0.569,0.836-1.168,1.184-1.799L56.527,52.094z"/>
</g>
</svg>
