<?xml version="1.0" encoding="utf-8"?>
<!-- Generator: Adobe Illustrator 16.0.0, SVG Export Plug-In . SVG Version: 6.00 Build 0)  -->
<!DOCTYPE svg PUBLIC "-//W3C//DTD SVG 1.1//EN" "http://www.w3.org/Graphics/SVG/1.1/DTD/svg11.dtd">
<svg version="1.1" id="Layer_1" xmlns="http://www.w3.org/2000/svg" xmlns:xlink="http://www.w3.org/1999/xlink" x="0px" y="0px"
	 width="100px" height="100px" viewBox="0 0 100 100" enable-background="new 0 0 100 100" xml:space="preserve">
<g>
	<path d="M65.494,20.5h-18.67c-4.016,0-7.283,4.414-7.283,9.837v39.605c0,5.424,3.267,9.838,7.283,9.838h18.67
		c4.016,0,7.283-4.414,7.283-9.838V30.337C72.776,24.914,69.51,20.5,65.494,20.5z M65.494,74.571h-18.67
		c-1.651,0-3.046-2.119-3.046-4.629V30.337c0-2.508,1.395-4.628,3.046-4.628h18.67c1.651,0,3.047,2.12,3.047,4.628v39.605
		C68.541,72.452,67.145,74.571,65.494,74.571z"/>
	<g>
		<circle cx="56.159" cy="69.706" r="2.401"/>
	</g>
</g>
</svg>
