<?xml version="1.0" encoding="utf-8"?>
<!-- Generator: Adobe Illustrator 16.0.0, SVG Export Plug-In . SVG Version: 6.00 Build 0)  -->
<!DOCTYPE svg PUBLIC "-//W3C//DTD SVG 1.1//EN" "http://www.w3.org/Graphics/SVG/1.1/DTD/svg11.dtd">
<svg version="1.1" id="Layer_1" xmlns="http://www.w3.org/2000/svg" xmlns:xlink="http://www.w3.org/1999/xlink" x="0px" y="0px"
	 width="100px" height="100px" viewBox="0 0 100 100" enable-background="new 0 0 100 100" xml:space="preserve">
<g>
	<path d="M60.228,47.971H49.325c-2.621,0-4.754,2.133-4.754,4.754s2.133,4.754,4.754,4.754h10.902c2.621,0,4.754-2.133,4.754-4.754
		S62.849,47.971,60.228,47.971z M49.325,52.027h10.902c0.384,0,0.696,0.313,0.696,0.697s-0.313,0.697-0.696,0.697H49.325
		c-0.384,0-0.696-0.313-0.696-0.697S48.941,52.027,49.325,52.027z"/>
	<path d="M74.965,28.742H34.107c-4.124,0-7.48,3.355-7.48,7.48v4.645c0,1.118,0.911,2.028,2.029,2.028h1.337v23.287
		c0,4.124,3.355,7.479,7.479,7.479h34.608c4.124,0,7.479-3.355,7.479-7.479V42.896h0.856c1.119,0,2.029-0.91,2.029-2.028v-4.645
		C82.445,32.098,79.089,28.742,74.965,28.742z M72.081,69.605H37.472c-1.887,0-3.422-1.535-3.422-3.423V42.896h41.453v23.287
		C75.502,68.07,73.968,69.605,72.081,69.605z M30.685,36.223c0-1.889,1.536-3.423,3.423-3.423h40.857
		c1.887,0,3.423,1.534,3.423,3.423v2.615H30.685V36.223z"/>
</g>
</svg>
