<?xml version="1.0" encoding="utf-8"?>
<!-- Generator: Adobe Illustrator 16.0.0, SVG Export Plug-In . SVG Version: 6.00 Build 0)  -->
<!DOCTYPE svg PUBLIC "-//W3C//DTD SVG 1.1//EN" "http://www.w3.org/Graphics/SVG/1.1/DTD/svg11.dtd">
<svg version="1.1" id="Layer_1" xmlns="http://www.w3.org/2000/svg" xmlns:xlink="http://www.w3.org/1999/xlink" x="0px" y="0px"
	 width="100px" height="100px" viewBox="0 0 100 100" enable-background="new 0 0 100 100" xml:space="preserve">
<path d="M65.951,52.714c1.384,0,2.692,0.535,3.681,1.508c0.575,0.566,1.432,0.73,2.175,0.42c0.744-0.313,1.227-1.039,1.227-1.846
	V40.131c0-1.104-0.896-2-2-2h-9.858c0.818-1.392,1.274-3.004,1.274-4.696c0-5.103-4.151-9.254-9.254-9.254
	c-5.103,0-9.254,4.151-9.254,9.254c0,1.692,0.456,3.305,1.274,4.696h-9.858c-1.104,0-2,0.896-2,2v35.675c0,1.105,0.896,2,2,2h35.675
	c1.104,0,2-0.895,2-2V63.14c0-0.805-0.483-1.533-1.227-1.844c-0.743-0.313-1.601-0.146-2.175,0.418
	c-0.989,0.973-2.296,1.508-3.681,1.508c-2.897,0-5.254-2.355-5.254-5.254C60.696,55.072,63.053,52.714,65.951,52.714z
	 M65.951,67.222c1.065,0,2.105-0.18,3.083-0.525v7.109H37.358V42.131h13.048c0.954,0,1.774-0.673,1.961-1.608
	c0.187-0.935-0.313-1.871-1.192-2.238c-1.964-0.817-3.234-2.722-3.234-4.85c0-2.897,2.357-5.254,5.254-5.254
	c2.897,0,5.254,2.356,5.254,5.254c0,2.128-1.27,4.032-3.234,4.85c-0.88,0.367-1.379,1.304-1.192,2.238
	c0.187,0.936,1.008,1.608,1.961,1.608h13.048v7.109c-0.978-0.346-2.018-0.525-3.083-0.525c-5.103,0-9.254,4.152-9.254,9.254
	C56.696,63.072,60.848,67.222,65.951,67.222z"/>
</svg>
