<?xml version="1.0" encoding="utf-8"?>
<!-- Generator: Adobe Illustrator 16.0.0, SVG Export Plug-In . SVG Version: 6.00 Build 0)  -->
<!DOCTYPE svg PUBLIC "-//W3C//DTD SVG 1.1//EN" "http://www.w3.org/Graphics/SVG/1.1/DTD/svg11.dtd">
<svg version="1.1" id="Layer_1" xmlns="http://www.w3.org/2000/svg" xmlns:xlink="http://www.w3.org/1999/xlink" x="0px" y="0px"
	 width="100px" height="100px" viewBox="0 0 100 100" enable-background="new 0 0 100 100" xml:space="preserve">
<path d="M52.945,27.432c-12.638,0-22.919,10.281-22.919,22.918c0,12.639,10.281,22.92,22.919,22.92s22.919-10.282,22.919-22.92
	C75.864,37.713,65.583,27.432,52.945,27.432z M52.945,69.017c-10.294,0-18.668-8.374-18.668-18.667c0-4.947,1.947-9.437,5.099-12.78
	c-0.159,0.798-0.148,1.647,0.188,2.486c1.276,3.192,0.798,1.596,2.067,4.789c1.271,3.192,3.359,1.756,4.81,2.075
	c1.45,0.319,2.221,1.117,2.699,1.277c0.479,0.16,1.916,0.798,2.109,2.444c0.194,1.646-0.354,1.546-1.287,2.345
	c-0.934,0.798,0.136,1.756,0,3.033s1.892,0.479,4.445,2.234s0.799,2.395,0.319,3.352c-0.479,0.958-1.596,0.479-3.478,0.479
	c-1.881,0,0,1.117,0,1.117s0.765,0.958,1.695,0.798c0.932-0.16,2.262-0.319,3.213-0.639s2.24-1.117,3.996-1.437
	s3.831-4.469,5.906-5.746c2.075-1.277,0.958-2.395,0.958-3.671s-1.117,0-2.235,0c-1.117,0-1.756-0.16-3.671-1.866
	c-1.915-1.706-1.437-1.167-3.086-2.125c-1.648-0.958-3.458-0.639-4.257-0.639c-0.798,0-3.671-0.319-5.746-1.756
	c-2.074-1.437-3.512-2.554-2.873-3.512c0.639-0.958,0,0,1.291,0s2.964-0.212,3.521,0.479c0.201,0.248-0.226,1.051,0,1.277
	c0.527,0.528,2.413,0.483,2.982,0c0.342-0.289,0.187-1.117,0.346-1.756c0.16-0.638-0.159-1.596,0-3.033c0.16-1.437,0,0,0.485-0.638
	c0.485-0.639,1.909-0.798,3.186-1.596c1.277-0.798,1.118-0.639,0.958-1.756c-0.159-1.117,0-1.117,0-1.117s-2.075-0.958-2.71-1.118
	c-0.607-0.152-1.355-1.506-1.421-1.627c9.901,0.445,17.824,8.615,17.824,18.625C71.613,60.644,63.239,69.017,52.945,69.017z"/>
</svg>
