<?xml version="1.0" encoding="utf-8"?>
<!-- Generator: Adobe Illustrator 16.0.0, SVG Export Plug-In . SVG Version: 6.00 Build 0)  -->
<!DOCTYPE svg PUBLIC "-//W3C//DTD SVG 1.1//EN" "http://www.w3.org/Graphics/SVG/1.1/DTD/svg11.dtd">
<svg version="1.1" id="Layer_1" xmlns="http://www.w3.org/2000/svg" xmlns:xlink="http://www.w3.org/1999/xlink" x="0px" y="0px"
	 width="100px" height="100px" viewBox="0 0 100 100" enable-background="new 0 0 100 100" xml:space="preserve">
<path d="M65.858,19.32h-21.5c-0.829,0-1.5,0.672-1.5,1.5v56.998c0,0.828,0.671,1.5,1.5,1.5h21.5c0.829,0,1.5-0.672,1.5-1.5V20.82
	C67.358,19.992,66.687,19.32,65.858,19.32z M45.858,76.318V22.32h18.5v1.998h-3.875c-0.829,0-1.5,0.672-1.5,1.5s0.671,1.5,1.5,1.5
	h3.875v1h-9.25c-0.829,0-1.5,0.672-1.5,1.5s0.671,1.5,1.5,1.5h9.25v1h-3.875c-0.829,0-1.5,0.672-1.5,1.5s0.671,1.5,1.5,1.5h3.875v1
	h-9.25c-0.829,0-1.5,0.672-1.5,1.5s0.671,1.5,1.5,1.5h9.25v1h-3.875c-0.829,0-1.5,0.672-1.5,1.5s0.671,1.5,1.5,1.5h3.875v1h-9.25
	c-0.829,0-1.5,0.672-1.5,1.5s0.671,1.5,1.5,1.5h9.25v1h-3.875c-0.829,0-1.5,0.672-1.5,1.5s0.671,1.5,1.5,1.5h3.875v1h-9.25
	c-0.829,0-1.5,0.672-1.5,1.5s0.671,1.5,1.5,1.5h9.25v1h-3.875c-0.829,0-1.5,0.672-1.5,1.5s0.671,1.5,1.5,1.5h3.875v1h-9.25
	c-0.829,0-1.5,0.672-1.5,1.5s0.671,1.5,1.5,1.5h9.25v1h-3.875c-0.829,0-1.5,0.672-1.5,1.5s0.671,1.5,1.5,1.5h3.875v1h-9.25
	c-0.829,0-1.5,0.672-1.5,1.5s0.671,1.5,1.5,1.5h9.25v1h-3.875c-0.829,0-1.5,0.672-1.5,1.5s0.671,1.5,1.5,1.5h3.875v1H45.858z"/>
</svg>
