<?xml version="1.0" encoding="utf-8"?>
<!-- Generator: Adobe Illustrator 16.0.0, SVG Export Plug-In . SVG Version: 6.00 Build 0)  -->
<!DOCTYPE svg PUBLIC "-//W3C//DTD SVG 1.1//EN" "http://www.w3.org/Graphics/SVG/1.1/DTD/svg11.dtd">
<svg version="1.1" id="Layer_1" xmlns="http://www.w3.org/2000/svg" xmlns:xlink="http://www.w3.org/1999/xlink" x="0px" y="0px"
	 width="100px" height="100px" viewBox="0 0 100 100" enable-background="new 0 0 100 100" xml:space="preserve">
<path d="M80.477,23.385c0.006-0.534-0.203-1.048-0.578-1.428c-0.376-0.379-0.888-0.593-1.422-0.593h-8.834
	c-0.195,0-0.382,0.037-0.561,0.09h-1.705c-0.313,0-0.633,0.021-1.003,0.067H38.54c-0.37-0.046-0.69-0.067-1.004-0.067h-1.432
	c-0.179-0.053-0.365-0.09-0.562-0.09h-8.834c-0.533,0-1.045,0.214-1.421,0.593c-0.376,0.38-0.584,0.894-0.579,1.428
	c0.008,0.692,0.273,15.907,8.876,17.923v0.093c0,0.072,0.009,0.145,0.026,0.217c0.333,9.29,7.584,17.037,16.755,18.064v15.185
	h-7.528c-0.553,0-1,0.447-1,1v2.184c0,0.553,0.447,1,1,1h19.24c0.552,0,1-0.447,1-1v-2.184c0-0.553-0.448-1-1-1h-7.529V59.683
	c9.066-0.996,16.078-8.273,16.717-17.4c0.112-0.163,0.176-0.36,0.176-0.567v-0.37C80.201,39.484,80.469,24.082,80.477,23.385z
	 M52.457,55.636c-8.101,0-14.691-6.591-14.691-14.692V25.705H67.15v15.239C67.15,49.045,60.559,55.636,52.457,55.636z
	 M33.543,37.018c-3.355-1.861-4.389-8.321-4.701-11.653h4.701V37.018z M71.643,37.021V25.365h4.705
	C76.039,28.698,75.011,35.164,71.643,37.021z"/>
</svg>
