<?xml version="1.0" encoding="utf-8"?>
<!-- Generator: Adobe Illustrator 16.0.0, SVG Export Plug-In . SVG Version: 6.00 Build 0)  -->
<!DOCTYPE svg PUBLIC "-//W3C//DTD SVG 1.1//EN" "http://www.w3.org/Graphics/SVG/1.1/DTD/svg11.dtd">
<svg version="1.1" id="Layer_1" xmlns="http://www.w3.org/2000/svg" xmlns:xlink="http://www.w3.org/1999/xlink" x="0px" y="0px"
	 width="100px" height="100px" viewBox="0 0 100 100" enable-background="new 0 0 100 100" xml:space="preserve">
<g>
	<path d="M72.722,32.481H62.6v-5.634c0-0.861-0.698-1.559-1.558-1.559H38.958c-0.861,0-1.559,0.697-1.559,1.559v5.634H27.278
		c-1.291,0-2.338,1.047-2.338,2.338v37.991c0,1.291,1.047,2.338,2.338,2.338h45.443c1.291,0,2.338-1.047,2.338-2.338V34.819
		C75.06,33.528,74.013,32.481,72.722,32.481z M40.516,28.405h18.968v3.896H40.516V28.405z M70.385,70.474H29.614V37.156h40.771
		V70.474z"/>
	<path d="M38.958,56.803h8.054v8.055c0,0.431,0.349,0.779,0.779,0.779h4.417c0.431,0,0.779-0.349,0.779-0.779v-8.055h8.055
		c0.43,0,0.778-0.349,0.778-0.779v-4.416c0-0.431-0.349-0.778-0.778-0.778h-8.055v-8.056c0-0.431-0.349-0.779-0.779-0.779h-4.417
		c-0.431,0-0.779,0.349-0.779,0.779v8.056h-8.054c-0.432,0-0.779,0.348-0.779,0.778v4.416
		C38.179,56.454,38.526,56.803,38.958,56.803z M39.736,52.387h8.055c0.431,0,0.778-0.349,0.778-0.779v-8.055h2.859v8.055
		c0,0.431,0.349,0.779,0.779,0.779h8.055v2.857h-8.055c-0.431,0-0.779,0.349-0.779,0.779v8.056h-2.859v-8.056
		c0-0.431-0.348-0.779-0.778-0.779h-8.055V52.387z"/>
</g>
</svg>
