<?xml version="1.0" encoding="utf-8"?>
<!-- Generator: Adobe Illustrator 16.0.0, SVG Export Plug-In . SVG Version: 6.00 Build 0)  -->
<!DOCTYPE svg PUBLIC "-//W3C//DTD SVG 1.1//EN" "http://www.w3.org/Graphics/SVG/1.1/DTD/svg11.dtd">
<svg version="1.1" id="Layer_1" xmlns="http://www.w3.org/2000/svg" xmlns:xlink="http://www.w3.org/1999/xlink" x="0px" y="0px"
	 width="100px" height="100px" viewBox="0 0 100 100" enable-background="new 0 0 100 100" xml:space="preserve">
<path d="M74.792,37.884c0-5.488-4.466-9.954-9.955-9.954c-3.263,0-6.156,1.586-7.972,4.019L34.14,55.313
	c-0.211,0.197-0.413,0.407-0.607,0.623l-0.125,0.13c-0.009,0.009-0.012,0.021-0.02,0.032c-1.49,1.738-2.395,3.992-2.395,6.457
	c0,5.488,4.466,9.954,9.955,9.954c2.259,0,4.339-0.765,6.012-2.039c0.034-0.022,0.065-0.048,0.099-0.073
	c0.65-0.508,1.234-1.094,1.741-1.745l22.144-22.922C73.281,43.906,74.792,41.072,74.792,37.884z M70.119,37.884
	c0,1.054-0.317,2.028-0.851,2.854l-1.443,1.492c-0.85,0.588-1.878,0.935-2.987,0.935c-2.912,0-5.281-2.369-5.281-5.28
	c0-1.071,0.325-2.066,0.876-2.899l1.365-1.403c0.861-0.61,1.906-0.977,3.04-0.977C67.75,32.604,70.119,34.974,70.119,37.884z
	 M43.071,52.835l12.136-12.477c0.924,3.595,3.805,6.41,7.443,7.23L50.579,60.084C49.649,56.464,46.739,53.636,43.071,52.835z
	 M35.667,62.555c0-1.36,0.532-2.59,1.38-3.527l0.32-0.33c0.943-0.875,2.196-1.422,3.581-1.422c2.911,0,5.28,2.369,5.28,5.279
	c0,1.147-0.377,2.202-1,3.067l-1.008,1.044c-0.903,0.72-2.031,1.169-3.272,1.169C38.036,67.835,35.667,65.466,35.667,62.555z"/>
</svg>
