<?xml version="1.0" encoding="utf-8"?>
<!-- Generator: Adobe Illustrator 16.0.0, SVG Export Plug-In . SVG Version: 6.00 Build 0)  -->
<!DOCTYPE svg PUBLIC "-//W3C//DTD SVG 1.1//EN" "http://www.w3.org/Graphics/SVG/1.1/DTD/svg11.dtd">
<svg version="1.1" id="Layer_1" xmlns="http://www.w3.org/2000/svg" xmlns:xlink="http://www.w3.org/1999/xlink" x="0px" y="0px"
	 width="100px" height="100px" viewBox="0 0 100 100" enable-background="new 0 0 100 100" xml:space="preserve">
<g>
	<path d="M65.365,31.217c-0.438-0.438-1.021-0.68-1.641-0.68c-0.62,0-1.203,0.241-1.641,0.68l-7.12,7.118V23.867
		c0-1.279-1.042-2.321-2.322-2.321s-2.321,1.042-2.321,2.321v14.468l-7.119-7.118c-0.438-0.438-1.021-0.68-1.641-0.68
		s-1.203,0.241-1.642,0.68c-0.905,0.905-0.905,2.378,0,3.283l11.077,11.075c0.213,0.216,0.466,0.386,0.765,0.511
		c0.286,0.116,0.582,0.176,0.88,0.176s0.594-0.06,0.893-0.181c0.287-0.12,0.54-0.29,0.749-0.501L65.365,34.5
		C66.27,33.595,66.27,32.122,65.365,31.217z"/>
	<path fill="none" d="M74.024,48.274c-0.687-0.667-1.587-1.033-2.541-1.033h-9.026c-0.03,4.029-3.157,6.732-7.8,6.732h-4.032
		c-4.644,0-7.77-2.703-7.8-6.732h-9.025c-2.011,0-3.647,1.636-3.647,3.647v13.287c0,2.011,1.636,3.646,3.647,3.646h37.683
		c2.01,0,3.646-1.636,3.646-3.646V50.889c0-0.972-0.379-1.887-1.068-2.575L74.024,48.274z"/>
	<path d="M77.703,46.196l0.024-0.038l-9.594-10.354l-2.936,2.936v0.006l4.024,4.344H58.305v4.094c0,2.295-2.285,2.638-3.647,2.638
		h-4.032c-1.362,0-3.647-0.343-3.647-2.638v-4.094H35.801l3.274-3.726l-2.943-2.944l-8.274,9.42l-0.657,0.756l0.058,0.057
		C26.442,47.909,26,49.383,26,50.889v13.287c0,4.301,3.5,7.8,7.801,7.8h37.683c4.301,0,7.8-3.499,7.8-7.8V50.889
		C79.284,49.185,78.728,47.547,77.703,46.196z M75.13,64.176c0,2.011-1.636,3.646-3.646,3.646H33.801
		c-2.011,0-3.647-1.636-3.647-3.646V50.889c0-2.012,1.636-3.647,3.647-3.647h9.025c0.03,4.029,3.156,6.732,7.8,6.732h4.032
		c4.643,0,7.771-2.703,7.8-6.732h9.026c0.954,0,1.854,0.366,2.541,1.033l0.038,0.039c0.688,0.688,1.068,1.604,1.068,2.575V64.176z"
		/>
</g>
</svg>
