<?xml version="1.0" encoding="utf-8"?>
<!-- Generator: Adobe Illustrator 16.0.0, SVG Export Plug-In . SVG Version: 6.00 Build 0)  -->
<!DOCTYPE svg PUBLIC "-//W3C//DTD SVG 1.1//EN" "http://www.w3.org/Graphics/SVG/1.1/DTD/svg11.dtd">
<svg version="1.1" id="Layer_1" xmlns="http://www.w3.org/2000/svg" xmlns:xlink="http://www.w3.org/1999/xlink" x="0px" y="0px"
	 width="100px" height="100px" viewBox="0 0 100 100" enable-background="new 0 0 100 100" xml:space="preserve">
<path d="M81.98,47h-3.963c-2.316-3-6.207-5.616-10.611-5.616c-4.402,0-8.293,2.616-10.609,5.616H46.21
	c-2.315-3-6.206-5.616-10.608-5.616C31.197,41.384,27.307,44,24.99,47h-4.857c-1.24,0-2.244,1.261-2.244,2.5
	c0,1.239,1.004,2.5,2.244,2.5h2.923c-0.193,1-0.302,1.7-0.302,2.642c0,7.083,5.764,12.797,12.848,12.797
	c7.082,0,12.846-5.689,12.846-12.772c0-0.941-0.109-1.667-0.303-2.667h6.717c-0.193,1-0.302,1.7-0.302,2.642
	c0,7.083,5.765,12.797,12.847,12.797c7.084,0,12.848-5.689,12.848-12.772c0-0.941-0.108-1.667-0.302-2.667h2.028
	c1.24,0,2.244-1.261,2.244-2.5C84.225,48.261,83.221,47,81.98,47z M35.602,62.899c-4.61,0-8.359-3.749-8.359-8.358
	c0-4.61,3.749-8.359,8.359-8.359c4.607,0,8.357,3.749,8.357,8.359C43.959,59.15,40.209,62.899,35.602,62.899z M67.406,62.899
	c-4.609,0-8.357-3.749-8.357-8.358c0-4.61,3.748-8.359,8.357-8.359c4.61,0,8.359,3.749,8.359,8.359
	C75.766,59.15,72.017,62.899,67.406,62.899z"/>
</svg>
