<?xml version="1.0" encoding="utf-8"?>
<!-- Generator: Adobe Illustrator 16.0.0, SVG Export Plug-In . SVG Version: 6.00 Build 0)  -->
<!DOCTYPE svg PUBLIC "-//W3C//DTD SVG 1.1//EN" "http://www.w3.org/Graphics/SVG/1.1/DTD/svg11.dtd">
<svg version="1.1" id="Layer_1" xmlns="http://www.w3.org/2000/svg" xmlns:xlink="http://www.w3.org/1999/xlink" x="0px" y="0px"
	 width="100px" height="100px" viewBox="0 0 100 100" enable-background="new 0 0 100 100" xml:space="preserve">
<g>
	<path d="M49.889,28.062c-12.638,0-22.919,10.282-22.919,22.919c0,12.639,10.281,22.92,22.919,22.92s22.919-10.281,22.919-22.92
		C72.808,38.343,62.526,28.062,49.889,28.062z M49.889,69.647c-10.294,0-18.669-8.374-18.669-18.667
		c0-10.294,8.375-18.667,18.669-18.667s18.667,8.374,18.667,18.667C68.556,61.273,60.183,69.647,49.889,69.647z"/>
	<path d="M58.101,42.203c-0.297-0.243-0.688-0.338-1.063-0.262l-9.064,1.853c-0.595,0.121-1.021,0.645-1.021,1.251v9.158
		c-0.488-0.14-1.023-0.219-1.596-0.219c-2.367,0-4.15,1.304-4.15,3.033s1.783,3.033,4.15,3.033c1.373,0,2.537-0.449,3.283-1.155
		c0.501-0.173,0.866-0.635,0.866-1.195V46.087l6.511-1.331v6.973c-0.488-0.14-1.023-0.22-1.596-0.22c-2.367,0-4.15,1.305-4.15,3.033
		c0,1.728,1.783,3.033,4.15,3.033c2.365,0,4.149-1.305,4.149-3.033V43.192C58.57,42.808,58.398,42.445,58.101,42.203z"/>
</g>
</svg>
