<?xml version="1.0" encoding="utf-8"?>
<!-- Generator: Adobe Illustrator 16.0.0, SVG Export Plug-In . SVG Version: 6.00 Build 0)  -->
<!DOCTYPE svg PUBLIC "-//W3C//DTD SVG 1.1//EN" "http://www.w3.org/Graphics/SVG/1.1/DTD/svg11.dtd">
<svg version="1.1" id="Layer_1" xmlns="http://www.w3.org/2000/svg" xmlns:xlink="http://www.w3.org/1999/xlink" x="0px" y="0px"
	 width="100px" height="100px" viewBox="0 0 100 100" enable-background="new 0 0 100 100" xml:space="preserve">
<path d="M55.938,32.349c-1.18,0-2.135,0.955-2.135,2.133s0.955,2.134,2.135,2.134h2.393l-3.9,3.899
	c-0.264,0.104-0.512,0.26-0.725,0.472l-4.383,4.384l-8.883-8.882h1.891c1.178,0,2.133-0.955,2.133-2.133s-0.955-2.134-2.133-2.134
	h-9.174v9.676c0,1.178,0.955,2.134,2.135,2.134c1.178,0,2.133-0.956,2.133-2.134v-2.393l3.9,3.899
	c0.104,0.265,0.258,0.512,0.471,0.724l4.385,4.385L37.3,57.395v-1.891c0-1.178-0.955-2.133-2.135-2.133
	c-1.178,0-2.133,0.955-2.133,2.133v9.174h9.676c1.178,0,2.133-0.956,2.133-2.134s-0.955-2.133-2.133-2.133h-2.393l3.9-3.899
	c0.264-0.104,0.51-0.26,0.723-0.473l4.385-4.385l8.883,8.883h-1.891c-1.178,0-2.133,0.956-2.133,2.134s0.955,2.133,2.133,2.133
	h9.172v-9.676c0-1.178-0.953-2.134-2.133-2.134c-1.178,0-2.133,0.956-2.133,2.134v2.393l-3.9-3.899
	c-0.104-0.264-0.258-0.511-0.471-0.724l-4.385-4.385l8.881-8.882v1.89c0,1.178,0.955,2.133,2.133,2.133
	c1.18,0,2.133-0.955,2.133-2.133v-9.172H55.938z"/>
</svg>
