<?xml version="1.0" encoding="utf-8"?>
<!-- Generator: Adobe Illustrator 16.0.0, SVG Export Plug-In . SVG Version: 6.00 Build 0)  -->
<!DOCTYPE svg PUBLIC "-//W3C//DTD SVG 1.1//EN" "http://www.w3.org/Graphics/SVG/1.1/DTD/svg11.dtd">
<svg version="1.1" id="Layer_1" xmlns="http://www.w3.org/2000/svg" xmlns:xlink="http://www.w3.org/1999/xlink" x="0px" y="0px"
	 width="100px" height="100px" viewBox="0 0 100 100" enable-background="new 0 0 100 100" xml:space="preserve">
<g>
	<g>
		<g>
			<circle cx="40.105" cy="60.427" r="3.04"/>
		</g>
		<g>
			<path d="M62.638,61.617c-0.305,0.307-0.726,0.494-1.19,0.494c-0.931,0-1.685-0.753-1.685-1.682
				c0.003-5.251-2.043-10.187-5.756-13.9c-3.715-3.716-8.65-5.761-13.901-5.76c-0.931,0.001-1.685-0.753-1.685-1.683
				c0.002-0.928,0.756-1.683,1.684-1.685c6.15,0.002,11.934,2.397,16.283,6.747c4.35,4.352,6.744,10.133,6.744,16.281
				C63.132,60.891,62.943,61.313,62.638,61.617z"/>
		</g>
		<g>
			<path d="M55.524,61.617c-0.305,0.304-0.725,0.494-1.189,0.495c-0.93,0-1.684-0.755-1.684-1.684
				c0-6.917-5.63-12.547-12.547-12.547c-0.93,0-1.684-0.752-1.684-1.683c0.002-0.929,0.756-1.685,1.684-1.683
				c8.775-0.001,15.914,7.138,15.914,15.913C56.018,60.892,55.83,61.313,55.524,61.617z"/>
		</g>
		<g>
			<path d="M48.412,61.617c-0.305,0.307-0.726,0.494-1.19,0.494c-0.931,0-1.684-0.753-1.684-1.682
				c-0.002-2.996-2.439-5.433-5.433-5.433c-0.931,0-1.685-0.753-1.685-1.684s0.757-1.682,1.687-1.684
				c4.847,0.001,8.795,3.948,8.798,8.799C48.905,60.891,48.717,61.313,48.412,61.617z"/>
		</g>
	</g>
	<g>
		<path d="M30.867,69.665c-0.347-0.347-0.561-0.825-0.561-1.354V32.556c0-0.506,0.202-0.995,0.561-1.354
			c0.359-0.359,0.847-0.561,1.354-0.561h35.755c1.058,0,1.915,0.858,1.915,1.916v35.754c0,0.509-0.202,0.995-0.561,1.354
			c-0.359,0.359-0.848,0.562-1.354,0.562H32.222C31.692,70.226,31.214,70.011,30.867,69.665z M34.137,34.472v31.923h31.925V34.472
			H34.137z"/>
	</g>
</g>
</svg>
