<?xml version="1.0" encoding="utf-8"?>
<!-- Generator: Adobe Illustrator 16.0.0, SVG Export Plug-In . SVG Version: 6.00 Build 0)  -->
<!DOCTYPE svg PUBLIC "-//W3C//DTD SVG 1.1//EN" "http://www.w3.org/Graphics/SVG/1.1/DTD/svg11.dtd">
<svg version="1.1" id="Layer_1" xmlns="http://www.w3.org/2000/svg" xmlns:xlink="http://www.w3.org/1999/xlink" x="0px" y="0px"
	 width="100px" height="100px" viewBox="0 0 100 100" enable-background="new 0 0 100 100" xml:space="preserve">
<g>
	<path d="M53.812,37.15c-9.096,0-16.497,7.4-16.497,16.496s7.4,16.496,16.497,16.496c9.096,0,16.496-7.4,16.496-16.496
		S62.908,37.15,53.812,37.15z M53.812,65.891c-6.752,0-12.245-5.493-12.245-12.245s5.493-12.245,12.245-12.245
		c6.751,0,12.244,5.493,12.244,12.245S60.563,65.891,53.812,65.891z"/>
	<path d="M53.812,36.716c1.172,0,2.125-0.954,2.125-2.125v-11.22c0-1.172-0.954-2.126-2.125-2.126c-1.172,0-2.125,0.954-2.125,2.126
		v11.22C51.686,35.763,52.639,36.716,53.812,36.716z"/>
	<path d="M53.812,71.541c-1.172,0-2.125,0.954-2.125,2.126v11.218c0,1.172,0.953,2.126,2.125,2.126c1.172,0,2.125-0.954,2.125-2.126
		V73.667C55.937,72.495,54.983,71.541,53.812,71.541z"/>
	<path d="M38.493,41.817c0.401,0.401,0.936,0.622,1.504,0.622c0.568,0,1.102-0.221,1.503-0.624c0.829-0.829,0.828-2.177,0-3.005
		l-7.935-7.935c-0.401-0.4-0.935-0.621-1.502-0.621c-0.567,0-1.101,0.221-1.503,0.623c-0.401,0.4-0.623,0.935-0.623,1.502
		s0.221,1.101,0.623,1.504L38.493,41.817z"/>
	<path d="M69.128,66.44c-0.401-0.402-0.936-0.623-1.502-0.623c-0.567,0-1.101,0.221-1.503,0.623
		c-0.402,0.403-0.624,0.937-0.624,1.505c0.001,0.569,0.223,1.101,0.623,1.501l7.934,7.934c0.402,0.401,0.936,0.624,1.503,0.624
		s1.101-0.222,1.502-0.624c0.401-0.4,0.623-0.935,0.623-1.502s-0.221-1.102-0.623-1.504L69.128,66.44z"/>
	<path d="M36.4,54.13c0-1.172-0.953-2.126-2.125-2.126H23.055c-1.172,0-2.126,0.954-2.126,2.126c0,1.171,0.954,2.125,2.126,2.125
		h11.219C35.447,56.255,36.4,55.301,36.4,54.13z"/>
	<path d="M84.569,52.004h-11.22c-1.172,0-2.126,0.954-2.126,2.126c0,1.171,0.954,2.125,2.126,2.125h11.22
		c1.172,0,2.125-0.954,2.125-2.125C86.694,52.958,85.741,52.004,84.569,52.004z"/>
	<path d="M39.998,65.818c-0.567,0-1.101,0.221-1.503,0.623l-7.934,7.934c-0.401,0.402-0.623,0.937-0.623,1.505
		c0,0.569,0.223,1.101,0.623,1.501c0.402,0.401,0.936,0.624,1.503,0.624s1.101-0.222,1.503-0.624l7.933-7.934
		c0.402-0.4,0.623-0.935,0.623-1.502s-0.221-1.101-0.623-1.504C41.099,66.039,40.565,65.818,39.998,65.818z"/>
	<path d="M67.627,42.439c0.569,0,1.104-0.222,1.503-0.622l7.934-7.934c0.401-0.403,0.623-0.937,0.623-1.505
		c0-0.568-0.223-1.101-0.624-1.501c-0.401-0.402-0.935-0.623-1.502-0.623c-0.567,0-1.101,0.221-1.503,0.623l-7.932,7.932
		c-0.401,0.401-0.624,0.934-0.624,1.502c0,0.569,0.221,1.103,0.622,1.504C66.524,42.217,67.058,42.439,67.627,42.439z"/>
</g>
</svg>
