<?xml version="1.0" encoding="utf-8"?>
<!-- Generator: Adobe Illustrator 16.0.0, SVG Export Plug-In . SVG Version: 6.00 Build 0)  -->
<!DOCTYPE svg PUBLIC "-//W3C//DTD SVG 1.1//EN" "http://www.w3.org/Graphics/SVG/1.1/DTD/svg11.dtd">
<svg version="1.1" id="Layer_1" xmlns="http://www.w3.org/2000/svg" xmlns:xlink="http://www.w3.org/1999/xlink" x="0px" y="0px"
	 width="100px" height="100px" viewBox="0 0 100 100" enable-background="new 0 0 100 100" xml:space="preserve">
<path d="M81.047,58.58h-2.595v-2.225h1.408c1.291,0,2.338-1.047,2.338-2.337c0-13.568-13.734-24.605-30.614-24.605
	c-16.009,0-29.187,9.927-30.507,22.522c-0.756,0.388-1.274,1.175-1.274,2.083c0,1.29,1.046,2.337,2.337,2.337h1.409v2.225h-2.595
	c-1.291,0-2.338,1.047-2.338,2.337v6.105c0,1.29,1.047,2.337,2.338,2.337h0.098v7.655c0,1.29,1.045,2.337,2.336,2.337h55.225
	c1.291,0,2.337-1.047,2.337-2.337v-7.655h0.098c1.291,0,2.337-1.047,2.337-2.337v-6.105C83.384,59.627,82.338,58.58,81.047,58.58z
	 M51.584,34.088c13.274,0,24.252,7.7,25.763,17.594h-1.232H25.886H25.82C27.331,41.788,38.31,34.088,51.584,34.088z M28.224,56.355
	h45.554v2.225H28.224V56.355z M23.291,63.255h2.595h50.229h2.596v1.43h-0.098H23.388h-0.097V63.255z M76.275,74.677h-50.55v-5.317
	h50.55V74.677z"/>
</svg>
