<?xml version="1.0" encoding="utf-8"?>
<!-- Generator: Adobe Illustrator 16.0.0, SVG Export Plug-In . SVG Version: 6.00 Build 0)  -->
<!DOCTYPE svg PUBLIC "-//W3C//DTD SVG 1.1//EN" "http://www.w3.org/Graphics/SVG/1.1/DTD/svg11.dtd">
<svg version="1.1" id="Layer_1" xmlns="http://www.w3.org/2000/svg" xmlns:xlink="http://www.w3.org/1999/xlink" x="0px" y="0px"
	 width="100px" height="100px" viewBox="0 0 100 100" enable-background="new 0 0 100 100" xml:space="preserve">
<g>
	<path d="M71.301,28.193H42.147c-2.407,0-4.365,1.958-4.365,4.364v14.075h-2.866c-2.407,0-4.365,1.958-4.365,4.364v25.695
		c0,2.407,1.958,4.364,4.365,4.364h2.491h33.894c2.407,0,4.364-1.958,4.364-4.364V32.557C75.666,30.151,73.708,28.193,71.301,28.193
		z M35.04,51.12h2.244v25.447H35.04V51.12z M71.177,76.567H41.772V50.286c0.312-0.386,0.498-0.875,0.498-1.41V32.682h28.907V76.567z
		"/>
	<path d="M45.892,65.097h20.874c1.24,0,2.244-1.005,2.244-2.244c0-1.239-1.004-2.244-2.244-2.244H45.892
		c-1.24,0-2.244,1.005-2.244,2.244C43.648,64.091,44.652,65.097,45.892,65.097z"/>
	<path d="M45.892,57.616h20.874c1.24,0,2.244-1.005,2.244-2.245c0-1.239-1.004-2.244-2.244-2.244H45.892
		c-1.24,0-2.244,1.005-2.244,2.244C43.648,56.611,44.652,57.616,45.892,57.616z"/>
	<path d="M45.892,72.577h20.874c1.24,0,2.244-1.005,2.244-2.244c0-1.239-1.004-2.244-2.244-2.244H45.892
		c-1.24,0-2.244,1.005-2.244,2.244C43.648,71.572,44.652,72.577,45.892,72.577z"/>
	<rect x="44.689" y="36.172" width="23.279" height="12.704"/>
</g>
</svg>
