<?xml version="1.0" encoding="utf-8"?>
<!-- Generator: Adobe Illustrator 16.0.0, SVG Export Plug-In . SVG Version: 6.00 Build 0)  -->
<!DOCTYPE svg PUBLIC "-//W3C//DTD SVG 1.1//EN" "http://www.w3.org/Graphics/SVG/1.1/DTD/svg11.dtd">
<svg version="1.1" id="Layer_1" xmlns="http://www.w3.org/2000/svg" xmlns:xlink="http://www.w3.org/1999/xlink" x="0px" y="0px"
	 width="100px" height="100px" viewBox="0 0 100 100" enable-background="new 0 0 100 100" xml:space="preserve">
<path d="M54.805,32.497c-0.415-0.188-0.89-0.188-1.305,0c-1.396,0.625-13.647,6.336-13.647,14.16V69.12
	c0,0.882,0.715,1.597,1.597,1.597h6.979v3.587c0,0.882,0.715,1.596,1.596,1.596h8.256c0.882,0,1.596-0.714,1.596-1.596v-3.587h6.979
	c0.882,0,1.597-0.715,1.597-1.597V46.657C68.452,38.833,56.201,33.122,54.805,32.497z M56.684,72.708h-5.063v-1.991h5.063V72.708z
	 M58.28,67.524h-8.256h-6.979V46.657c0-4.598,7.487-9.184,11.108-10.941c3.621,1.753,11.106,6.333,11.106,10.941v20.868H58.28z"/>
</svg>
