<?xml version="1.0" encoding="utf-8"?>
<!-- Generator: Adobe Illustrator 16.0.0, SVG Export Plug-In . SVG Version: 6.00 Build 0)  -->
<!DOCTYPE svg PUBLIC "-//W3C//DTD SVG 1.1//EN" "http://www.w3.org/Graphics/SVG/1.1/DTD/svg11.dtd">
<svg version="1.1" id="Layer_1" xmlns="http://www.w3.org/2000/svg" xmlns:xlink="http://www.w3.org/1999/xlink" x="0px" y="0px"
	 width="100px" height="100px" viewBox="0 0 100 100" enable-background="new 0 0 100 100" xml:space="preserve">
<g>
	<g>
		<path d="M51.17,77.688c-14.871,0-26.97-12.099-26.97-26.969s12.099-26.969,26.97-26.969c14.869,0,26.968,12.099,26.968,26.969
			S66.039,77.688,51.17,77.688z M51.17,27.696c-12.695,0-23.023,10.329-23.023,23.023c0,12.693,10.328,23.021,23.023,23.021
			c12.693,0,23.021-10.328,23.021-23.021C74.191,38.025,63.863,27.696,51.17,27.696z"/>
	</g>
	<g>
		<g>
			<circle cx="45.071" cy="48.114" r="2.604"/>
		</g>
		<g>
			<circle cx="57.267" cy="48.114" r="2.604"/>
		</g>
	</g>
	<g>
		<path d="M64.533,61.216H37.805c-1.09,0-1.973-0.884-1.973-1.973c0-1.091,0.883-1.974,1.973-1.974h26.729
			c1.09,0,1.974,0.883,1.974,1.974C66.507,60.332,65.623,61.216,64.533,61.216z"/>
	</g>
</g>
</svg>
