<?xml version="1.0" encoding="utf-8"?>
<!-- Generator: Adobe Illustrator 16.0.0, SVG Export Plug-In . SVG Version: 6.00 Build 0)  -->
<!DOCTYPE svg PUBLIC "-//W3C//DTD SVG 1.1//EN" "http://www.w3.org/Graphics/SVG/1.1/DTD/svg11.dtd">
<svg version="1.1" id="Layer_1" xmlns="http://www.w3.org/2000/svg" xmlns:xlink="http://www.w3.org/1999/xlink" x="0px" y="0px"
	 width="100px" height="100px" viewBox="0 0 100 100" enable-background="new 0 0 100 100" xml:space="preserve">
<g>
	<circle cx="46.307" cy="50.981" r="5.613"/>
	<path d="M46.307,34.513c-9.08,0-16.467,7.386-16.467,16.466c0,9.081,7.387,16.469,16.467,16.469s16.468-7.389,16.468-16.469
		C62.774,41.899,55.387,34.513,46.307,34.513z M46.307,63.618c-6.968,0-12.637-5.67-12.637-12.639
		c0-6.967,5.669-12.635,12.637-12.635s12.638,5.667,12.638,12.635C58.944,57.947,53.274,63.618,46.307,63.618z"/>
	<path d="M66.441,61.92c1.774-3.253,2.784-6.981,2.784-10.94c0-3.92-0.994-7.613-2.736-10.844c0.057-0.045,0.126-0.066,0.179-0.119
		c1.267-1.266,1.963-2.949,1.963-4.74s-0.696-3.474-1.963-4.74c-1.267-1.267-2.95-1.964-4.741-1.964s-3.474,0.697-4.74,1.964
		c-0.062,0.062-0.087,0.142-0.139,0.209c-3.207-1.71-6.86-2.686-10.741-2.686c-3.988,0-7.74,1.029-11.01,2.828
		c-0.067-0.1-0.109-0.211-0.197-0.298c-1.266-1.267-2.949-1.964-4.741-1.964c-1.791,0-3.475,0.697-4.739,1.964
		c-1.267,1.266-1.965,2.95-1.965,4.74c0,1.791,0.698,3.474,1.965,4.74c0.119,0.12,0.266,0.188,0.405,0.27
		c-1.677,3.182-2.637,6.799-2.637,10.639c0,3.932,0.997,7.636,2.749,10.873c-0.163,0.086-0.328,0.171-0.465,0.308
		c-1.267,1.266-1.964,2.949-1.964,4.74s0.697,3.474,1.964,4.74c1.267,1.267,2.95,1.964,4.74,1.964c1.791,0,3.475-0.697,4.741-1.964
		c0.14-0.14,0.227-0.308,0.313-0.474c3.23,1.741,6.921,2.733,10.84,2.733c3.864,0,7.504-0.97,10.7-2.666
		c0.075,0.12,0.13,0.248,0.234,0.353c1.267,1.267,2.95,1.964,4.74,1.964c1.791,0,3.475-0.697,4.74-1.964
		c1.266-1.266,1.964-2.95,1.964-4.74c0-1.791-0.698-3.474-1.964-4.74C66.638,62.024,66.533,61.985,66.441,61.92z M63.959,33.247
		c0.543,0.542,0.841,1.264,0.841,2.031c0,0.572-0.167,1.119-0.477,1.585c-1.162-1.481-2.504-2.812-3.99-3.968
		C61.438,32.178,63.008,32.296,63.959,33.247z M27.485,35.332c0-0.767,0.3-1.489,0.843-2.031c0.988-0.989,2.641-1.066,3.748-0.253
		c-1.485,1.181-2.812,2.545-3.965,4.053C27.713,36.596,27.485,35.984,27.485,35.332z M28.381,68.932
		c-0.543-0.542-0.842-1.264-0.842-2.031c0-0.693,0.256-1.343,0.703-1.864c1.175,1.505,2.528,2.857,4.036,4.029
		C31.175,70.003,29.415,69.965,28.381,68.932z M27.639,50.98c0-10.294,8.374-18.667,18.668-18.667s18.668,8.374,18.668,18.667
		c0,10.293-8.374,18.667-18.668,18.667S27.639,61.273,27.639,50.98z M64.012,68.878c-0.99,0.992-2.648,1.066-3.756,0.246
		c1.501-1.157,2.855-2.489,4.03-3.976c0.364,0.49,0.568,1.077,0.568,1.698C64.854,67.614,64.556,68.336,64.012,68.878z"/>
</g>
</svg>
