<?xml version="1.0" encoding="utf-8"?>
<!-- Generator: Adobe Illustrator 16.0.0, SVG Export Plug-In . SVG Version: 6.00 Build 0)  -->
<!DOCTYPE svg PUBLIC "-//W3C//DTD SVG 1.1//EN" "http://www.w3.org/Graphics/SVG/1.1/DTD/svg11.dtd">
<svg version="1.1" id="Layer_1" xmlns="http://www.w3.org/2000/svg" xmlns:xlink="http://www.w3.org/1999/xlink" x="0px" y="0px"
	 width="100px" height="100px" viewBox="0 0 100 100" enable-background="new 0 0 100 100" xml:space="preserve">
<path d="M72.842,40.631c-0.832,0-1.664,0.062-2.489,0.181c-3.218-3.36-7.266-5.723-11.808-6.874
	c-0.061-0.016-0.121-0.029-0.182-0.04l-2.93-0.554c-3.584-4.483-9.01-7.117-14.803-7.117c-9.963,0-18.154,7.723-18.899,17.497
	c-6.747,2.546-11.282,8.969-11.282,16.356c0,9.653,7.854,17.508,17.51,17.508c2.492,0,4.93-0.526,7.169-1.535
	c4.615,4.455,10.784,6.968,17.265,6.968c6.824,0,13.273-2.772,17.96-7.662c0.824,0.12,1.657,0.181,2.489,0.181
	c9.625,0,17.455-7.83,17.455-17.454C90.297,48.461,82.467,40.631,72.842,40.631z M72.842,70.028c-0.56,0-1.131-0.042-1.695-0.125
	l-4.773,1.641c-3.687,3.845-8.651,5.964-13.98,5.964c-5.041,0-9.814-1.926-13.436-5.422l-6.095-1.06
	c-1.544,0.695-3.194,1.049-4.903,1.049c-6.615,0-11.996-5.381-11.996-11.996c0-5.033,3.028-9.43,7.715-11.199l3.551-4.738
	c0.53-6.955,6.417-12.403,13.402-12.403c4.106,0,7.932,1.839,10.497,5.046l3.282,1.976l2.861,0.541
	c3.521,0.923,6.641,2.754,9.1,5.323l4.773,1.642c0.566-0.082,1.139-0.124,1.697-0.124c6.585,0,11.941,5.358,11.941,11.943
	C84.783,64.67,79.427,70.028,72.842,70.028z"/>
</svg>
