<?xml version="1.0" encoding="utf-8"?>
<!-- Generator: Adobe Illustrator 16.0.0, SVG Export Plug-In . SVG Version: 6.00 Build 0)  -->
<!DOCTYPE svg PUBLIC "-//W3C//DTD SVG 1.1//EN" "http://www.w3.org/Graphics/SVG/1.1/DTD/svg11.dtd">
<svg version="1.1" id="Layer_1" xmlns="http://www.w3.org/2000/svg" xmlns:xlink="http://www.w3.org/1999/xlink" x="0px" y="0px"
	 width="100px" height="100px" viewBox="0 0 100 100" enable-background="new 0 0 100 100" xml:space="preserve">
<path d="M76.33,18.999c-0.678-0.675-1.697-0.757-2.454-0.276l-7.189,7.189l-7.736,7.735v-0.006c0-0.113-0.015-0.221-0.029-0.329
	c1.509-1.919,2.423-4.326,2.423-6.953c0-6.229-5.067-11.296-11.295-11.296c-6.229,0-11.296,5.067-11.296,11.296
	c0,2.623,0.911,5.025,2.417,6.945c-0.008,0.08-0.023,0.159-0.023,0.241v0.164v0.034l-7.834-7.832l-7.187-7.189
	c-0.757-0.48-1.777-0.398-2.455,0.276c-0.78,0.785-0.799,2.035-0.038,2.795l0.677,0.675l2.407,2.409l10.037,10.038l4.393,4.393
	v20.596v3.949v1.599v18.894c0,3.253,1.713,5.704,3.984,5.704h9.836c2.271,0,3.984-2.451,3.984-5.704V66.895v-3.041v-3.949V39.211
	l4.295-4.295l10.036-10.038l2.409-2.409l0.677-0.675C77.128,21.034,77.11,19.784,76.33,18.999z M55.004,84.346
	c0,0.883-0.227,1.49-0.383,1.757h-2.599V64.067c0-1.089-0.883-1.974-1.973-1.974c-1.09,0-1.974,0.885-1.974,1.974v22.035h-2.599
	c-0.156-0.267-0.383-0.874-0.383-1.757V65.902c0.028-0.145,0.043-0.297,0.043-0.45V37.655h9.823v29.239
	c0,0.16,0.015,0.318,0.044,0.469V84.346z M50.049,33.71c-4.054,0-7.349-3.297-7.349-7.351c0-4.053,3.295-7.349,7.349-7.349
	c4.052,0,7.348,3.296,7.348,7.349C57.397,30.413,54.101,33.71,50.049,33.71z"/>
</svg>
