<?xml version="1.0" encoding="utf-8"?>
<!-- Generator: Adobe Illustrator 16.0.0, SVG Export Plug-In . SVG Version: 6.00 Build 0)  -->
<!DOCTYPE svg PUBLIC "-//W3C//DTD SVG 1.1//EN" "http://www.w3.org/Graphics/SVG/1.1/DTD/svg11.dtd">
<svg version="1.1" id="Layer_1" xmlns="http://www.w3.org/2000/svg" xmlns:xlink="http://www.w3.org/1999/xlink" x="0px" y="0px"
	 width="100px" height="100px" viewBox="0 0 100 100" enable-background="new 0 0 100 100" xml:space="preserve">
<g>
	<g>
		<path d="M74.703,78.038H30.537c-1.291,0-2.337-1.047-2.337-2.337V31.536c0-1.291,1.046-2.337,2.337-2.337h44.166
			c1.291,0,2.337,1.047,2.337,2.337v44.165C77.04,76.991,75.994,78.038,74.703,78.038z M32.874,73.364h39.492V33.873H32.874V73.364z
			"/>
	</g>
	<g>
		<path d="M65.251,43.421H47.826c-0.86,0-1.558-0.697-1.558-1.558s0.698-1.558,1.558-1.558h17.425c0.861,0,1.559,0.697,1.559,1.558
			S66.112,43.421,65.251,43.421z"/>
	</g>
	<g>
		<path d="M65.251,55.886H47.826c-0.86,0-1.558-0.697-1.558-1.558s0.698-1.558,1.558-1.558h17.425c0.861,0,1.559,0.697,1.559,1.558
			S66.112,55.886,65.251,55.886z"/>
	</g>
	<g>
		<path d="M65.251,68.35H47.826c-0.86,0-1.558-0.697-1.558-1.558c0-0.861,0.698-1.558,1.558-1.558h17.425
			c0.861,0,1.559,0.697,1.559,1.558C66.81,67.653,66.112,68.35,65.251,68.35z"/>
	</g>
	<g>
		<rect x="35.831" y="38.632" width="6.46" height="6.461"/>
	</g>
	<g>
		<rect x="35.831" y="51.097" width="6.46" height="6.461"/>
	</g>
	<g>
		<rect x="35.831" y="63.562" width="6.46" height="6.46"/>
	</g>
</g>
</svg>
