<?xml version="1.0" encoding="utf-8"?>
<!-- Generator: Adobe Illustrator 16.0.0, SVG Export Plug-In . SVG Version: 6.00 Build 0)  -->
<!DOCTYPE svg PUBLIC "-//W3C//DTD SVG 1.1//EN" "http://www.w3.org/Graphics/SVG/1.1/DTD/svg11.dtd">
<svg version="1.1" id="Layer_1" xmlns="http://www.w3.org/2000/svg" xmlns:xlink="http://www.w3.org/1999/xlink" x="0px" y="0px"
	 width="100px" height="100px" viewBox="0 0 100 100" enable-background="new 0 0 100 100" xml:space="preserve">
<path d="M47.967,21.545c-14.871,0-26.969,12.098-26.969,26.968s12.098,26.969,26.969,26.969c14.87,0,26.968-12.099,26.968-26.969
	S62.837,21.545,47.967,21.545z M47.967,71.534c-12.034,0-21.925-9.286-22.923-21.065h21.995l-1.336,1.336
	c-0.833,0.833-0.833,2.184,0,3.017c0.417,0.416,0.963,0.625,1.509,0.625c0.545,0,1.091-0.209,1.508-0.625l4.977-4.977
	c0-0.001,0.002-0.003,0.002-0.003l1.508-1.507l-1.507-1.507c0,0-0.002-0.001-0.003-0.003l-5.332-5.331
	c-0.833-0.834-2.183-0.834-3.017,0c-0.833,0.833-0.833,2.183,0,3.017l1.692,1.691H25.063C26.225,34.59,36.053,25.49,47.967,25.49
	c12.694,0,23.021,10.329,23.021,23.022C70.989,61.207,60.662,71.534,47.967,71.534z"/>
</svg>
