<?xml version="1.0" encoding="utf-8"?>
<!-- Generator: Adobe Illustrator 16.0.0, SVG Export Plug-In . SVG Version: 6.00 Build 0)  -->
<!DOCTYPE svg PUBLIC "-//W3C//DTD SVG 1.1//EN" "http://www.w3.org/Graphics/SVG/1.1/DTD/svg11.dtd">
<svg version="1.1" id="Layer_1" xmlns="http://www.w3.org/2000/svg" xmlns:xlink="http://www.w3.org/1999/xlink" x="0px" y="0px"
	 width="100px" height="100px" viewBox="0 0 100 100" enable-background="new 0 0 100 100" xml:space="preserve">
<g>
	<path d="M51.241,28.422c-12.638,0-22.919,10.282-22.919,22.919c0,12.639,10.281,22.92,22.919,22.92S74.16,63.98,74.16,51.341
		C74.16,38.704,63.879,28.422,51.241,28.422z M51.241,70.008c-10.294,0-18.668-8.374-18.668-18.667
		c0-10.294,8.374-18.668,18.668-18.668s18.667,8.374,18.667,18.668C69.908,61.634,61.535,70.008,51.241,70.008z"/>
	<path d="M57.329,48.998l-8.762-6.381c-0.881-0.642-2.049-0.733-3.022-0.241c-0.972,0.495-1.585,1.494-1.585,2.585v12.762
		c0,1.091,0.613,2.09,1.585,2.584c0.415,0.212,0.865,0.315,1.315,0.315c0.602,0,1.201-0.187,1.707-0.555l8.762-6.381
		c0.748-0.545,1.192-1.418,1.192-2.344C58.521,50.416,58.077,49.543,57.329,48.998z"/>
</g>
</svg>
