<?xml version="1.0" encoding="utf-8"?>
<!-- Generator: Adobe Illustrator 16.0.0, SVG Export Plug-In . SVG Version: 6.00 Build 0)  -->
<!DOCTYPE svg PUBLIC "-//W3C//DTD SVG 1.1//EN" "http://www.w3.org/Graphics/SVG/1.1/DTD/svg11.dtd">
<svg version="1.1" id="Layer_1" xmlns="http://www.w3.org/2000/svg" xmlns:xlink="http://www.w3.org/1999/xlink" x="0px" y="0px"
	 width="100px" height="100px" viewBox="0 0 100 100" enable-background="new 0 0 100 100" xml:space="preserve">
<path d="M68.313,39.781c-1.031-0.57-2.33-0.194-2.898,0.838l-0.689,1.247c-2.358-7.217-9.145-12.448-17.139-12.448
	c-9.944,0-18.035,8.09-18.035,18.035s8.091,18.035,18.035,18.035c1.179,0,2.134-0.955,2.134-2.133s-0.955-2.133-2.134-2.133
	c-7.592,0-13.769-6.177-13.769-13.77s6.177-13.769,13.769-13.769c6.021,0,11.139,3.89,13.005,9.284l-1.165-0.643
	c-1.031-0.57-2.33-0.195-2.898,0.837c-0.569,1.032-0.195,2.329,0.837,2.898l4.216,2.326c0.347,0.707,1.066,1.199,1.908,1.199
	c0.213,0,0.414-0.041,0.607-0.099c0.012,0,0.021,0.004,0.033,0.004c0.752,0,1.48-0.397,1.87-1.103l3.15-5.71
	C69.72,41.648,69.345,40.35,68.313,39.781z"/>
</svg>
