<?xml version="1.0" encoding="utf-8"?>
<!-- Generator: Adobe Illustrator 16.0.0, SVG Export Plug-In . SVG Version: 6.00 Build 0)  -->
<!DOCTYPE svg PUBLIC "-//W3C//DTD SVG 1.1//EN" "http://www.w3.org/Graphics/SVG/1.1/DTD/svg11.dtd">
<svg version="1.1" id="Layer_1" xmlns="http://www.w3.org/2000/svg" xmlns:xlink="http://www.w3.org/1999/xlink" x="0px" y="0px"
	 width="100px" height="100px" viewBox="0 0 100 100" enable-background="new 0 0 100 100" xml:space="preserve">
<g>
	<path d="M75.103,33.355c0.082-0.232,0.135-0.478,0.135-0.738v-9.044c0-1.239-1.005-2.244-2.244-2.244H30.487
		c-1.239,0-2.244,1.005-2.244,2.244v9.044c0,0.26,0.053,0.505,0.135,0.738c0.009,0.025,0.014,0.051,0.023,0.076
		c0.088,0.225,0.214,0.428,0.365,0.61c0.015,0.018,0.019,0.04,0.033,0.056l10.07,11.487v40.09c0,1.239,1.004,2.244,2.244,2.244
		h21.253c1.239,0,2.244-1.005,2.244-2.244v-40.09l10.069-11.487c0.015-0.016,0.019-0.038,0.033-0.056
		c0.151-0.183,0.278-0.386,0.365-0.61C75.089,33.407,75.094,33.38,75.103,33.355z M70.749,25.818v4.556H32.732v-4.556H70.749z
		 M60.68,43.26c-0.359,0.411-0.557,0.936-0.557,1.48v38.69H43.358V44.74c0-0.545-0.198-1.07-0.557-1.48l-7.362-8.398h32.603
		L60.68,43.26z"/>
	<path d="M51.74,52.38c-1.239,0-2.244,1.005-2.244,2.244v10.228c0,1.239,1.005,2.244,2.244,2.244c1.24,0,2.244-1.005,2.244-2.244
		V54.624C53.984,53.385,52.98,52.38,51.74,52.38z"/>
</g>
</svg>
