<?xml version="1.0" encoding="utf-8"?>
<!-- Generator: Adobe Illustrator 16.0.0, SVG Export Plug-In . SVG Version: 6.00 Build 0)  -->
<!DOCTYPE svg PUBLIC "-//W3C//DTD SVG 1.1//EN" "http://www.w3.org/Graphics/SVG/1.1/DTD/svg11.dtd">
<svg version="1.1" id="Layer_1" xmlns="http://www.w3.org/2000/svg" xmlns:xlink="http://www.w3.org/1999/xlink" x="0px" y="0px"
	 width="100px" height="100px" viewBox="0 0 100 100" enable-background="new 0 0 100 100" xml:space="preserve">
<g>
	<path d="M68.858,51.611c-5.82,0-10.555,4.735-10.555,10.555c0,5.822,4.735,10.558,10.555,10.558c5.82,0,10.555-4.735,10.555-10.558
		C79.414,56.347,74.678,51.611,68.858,51.611z M68.858,67.67c-3.034,0-5.503-2.468-5.503-5.504c0-3.033,2.469-5.503,5.503-5.503
		c3.033,0,5.502,2.47,5.502,5.503C74.36,65.202,71.892,67.67,68.858,67.67z"/>
	<path d="M40.312,51.611c-5.82,0-10.555,4.735-10.555,10.555c0,5.822,4.735,10.558,10.555,10.558s10.555-4.735,10.555-10.558
		C50.867,56.347,46.132,51.611,40.312,51.611z M40.312,67.67c-3.034,0-5.503-2.468-5.503-5.504c0-3.033,2.469-5.503,5.503-5.503
		s5.503,2.47,5.503,5.503C45.815,65.202,43.346,67.67,40.312,67.67z"/>
	<path d="M51.09,47.719l2.229-2.46l3.616,4.439c0.48,0.588,1.199,0.93,1.959,0.93h7.368c1.396,0,2.526-1.13,2.526-2.525
		s-1.13-2.525-2.526-2.525h-6.168l-4.715-5.788c-0.466-0.571-1.157-0.912-1.893-0.93c-0.732-0.062-1.445,0.282-1.938,0.829
		l-5.895,6.508c-0.935,1.033-0.858,2.629,0.173,3.566l6.12,5.563v9.619c0,1.396,1.131,2.526,2.527,2.526
		c1.395,0,2.526-1.131,2.526-2.526V54.209c0-0.713-0.3-1.392-0.827-1.872L51.09,47.719z"/>
	<circle cx="62.389" cy="37.766" r="3.246"/>
</g>
</svg>
