<?xml version="1.0" encoding="utf-8"?>
<!-- Generator: Adobe Illustrator 16.0.0, SVG Export Plug-In . SVG Version: 6.00 Build 0)  -->
<!DOCTYPE svg PUBLIC "-//W3C//DTD SVG 1.1//EN" "http://www.w3.org/Graphics/SVG/1.1/DTD/svg11.dtd">
<svg version="1.1" id="Layer_1" xmlns="http://www.w3.org/2000/svg" xmlns:xlink="http://www.w3.org/1999/xlink" x="0px" y="0px"
	 width="100px" height="100px" viewBox="0 0 100 100" enable-background="new 0 0 100 100" xml:space="preserve">
<g>
	<g>
		<g>
			<path d="M52.052,76.111c-4.28,0-7.763-3.482-7.763-7.763c0-4.281,3.482-7.763,7.763-7.763c4.281,0,7.764,3.481,7.764,7.763
				C59.815,72.629,56.333,76.111,52.052,76.111z M52.052,65.074c-1.806,0-3.274,1.468-3.274,3.274c0,1.806,1.469,3.274,3.274,3.274
				s3.274-1.468,3.274-3.274C55.326,66.542,53.857,65.074,52.052,65.074z"/>
		</g>
	</g>
	<g>
		<g>
			<path d="M79.453,43.525c-1.416,0-2.748-0.551-3.748-1.552c-6.315-6.317-14.715-9.796-23.652-9.796
				c-8.936,0-17.336,3.479-23.653,9.796c-2.004,2-5.491,2-7.493,0.004c-2.07-2.073-2.069-5.435-0.002-7.501
				c8.319-8.319,19.382-12.901,31.148-12.901c11.77,0,22.831,4.582,31.148,12.903c2.066,2.066,2.066,5.428,0.002,7.495
				C82.199,42.976,80.869,43.525,79.453,43.525z M52.053,27.688c10.137,0,19.663,3.946,26.826,11.111
				c0.205,0.206,0.448,0.237,0.574,0.237c0.127,0,0.369-0.031,0.576-0.237c0.314-0.315,0.314-0.831-0.002-1.148
				c-7.471-7.472-17.404-11.587-27.973-11.587c-10.569,0-20.506,4.116-27.979,11.587c-0.316,0.317-0.315,0.833,0.002,1.151
				c0.204,0.203,0.446,0.234,0.572,0.234c0.127,0,0.369-0.031,0.576-0.238C32.391,31.635,41.918,27.688,52.053,27.688z"/>
		</g>
	</g>
	<g>
		<g>
			<path d="M70.32,52.66c-1.416,0-2.748-0.551-3.749-1.553c-3.877-3.877-9.032-6.012-14.519-6.012
				c-5.488,0-10.643,2.136-14.52,6.015c-2.013,2.001-5.494,1.999-7.495,0.003c-2.069-2.07-2.069-5.435-0.005-7.501
				c5.885-5.881,13.703-9.119,22.02-9.119s16.135,3.239,22.016,9.12c1.001,0.999,1.554,2.33,1.554,3.748
				c0,1.416-0.552,2.747-1.552,3.748C73.063,52.11,71.733,52.66,70.32,52.66z M52.047,40.606c6.691,0,12.975,2.602,17.697,7.327
				c0.208,0.208,0.449,0.238,0.576,0.238c0.125,0,0.369-0.031,0.578-0.24c0.203-0.203,0.234-0.446,0.234-0.571
				s-0.031-0.367-0.236-0.573c-5.035-5.035-11.727-7.807-18.844-7.807s-13.811,2.771-18.844,7.802
				c-0.317,0.317-0.317,0.835,0.001,1.154c0.203,0.202,0.446,0.232,0.573,0.232s0.371-0.031,0.58-0.238
				C39.082,43.209,45.365,40.606,52.047,40.606z"/>
		</g>
	</g>
	<g>
		<g>
			<path d="M42.919,61.792c-1.417,0-2.75-0.552-3.752-1.556c-0.999-0.998-1.552-2.331-1.55-3.746c0-1.416,0.552-2.747,1.553-3.748
				c3.438-3.435,8.012-5.325,12.883-5.325c4.87,0,9.445,1.891,12.881,5.324c1.002,1.002,1.554,2.333,1.555,3.748
				c0.001,1.417-0.551,2.749-1.551,3.75c-2.011,2.007-5.504,2.003-7.5-0.001c-1.434-1.432-3.347-2.223-5.385-2.223
				c-2.039,0-3.952,0.791-5.389,2.227C45.667,61.24,44.336,61.792,42.919,61.792z M52.053,51.906c-3.674,0-7.121,1.424-9.711,4.012
				c-0.206,0.206-0.236,0.448-0.236,0.574c0,0.126,0.03,0.367,0.236,0.573c0.209,0.209,0.451,0.24,0.577,0.24
				c0.125,0,0.364-0.031,0.569-0.235c2.287-2.285,5.328-3.543,8.564-3.543c3.235,0,6.275,1.258,8.561,3.539
				c0.197,0.199,0.422,0.24,0.574,0.24c0.125,0,0.367-0.031,0.576-0.241C61.97,56.859,62,56.618,62,56.492
				c0-0.125-0.031-0.368-0.238-0.575C59.174,53.33,55.725,51.906,52.053,51.906z"/>
		</g>
	</g>
</g>
</svg>
