<?xml version="1.0" encoding="utf-8"?>
<!-- Generator: Adobe Illustrator 16.0.0, SVG Export Plug-In . SVG Version: 6.00 Build 0)  -->
<!DOCTYPE svg PUBLIC "-//W3C//DTD SVG 1.1//EN" "http://www.w3.org/Graphics/SVG/1.1/DTD/svg11.dtd">
<svg version="1.1" id="Layer_1" xmlns="http://www.w3.org/2000/svg" xmlns:xlink="http://www.w3.org/1999/xlink" x="0px" y="0px"
	 width="100px" height="100px" viewBox="0 0 100 100" enable-background="new 0 0 100 100" xml:space="preserve">
<g>
	<path d="M39.294,42.786c-3.857,0-6.996,3.139-6.996,6.996s3.139,6.994,6.996,6.994s6.995-3.137,6.995-6.994
		S43.151,42.786,39.294,42.786z M39.294,53.679c-2.148,0-3.896-1.748-3.896-3.896s1.748-3.896,3.896-3.896
		c2.149,0,3.897,1.748,3.897,3.896S41.443,53.679,39.294,53.679z"/>
	<path d="M74.27,20.683c-6.352,0-11.519,5.166-11.519,11.518c0,5.896,9.405,18.859,10.478,20.318l0.394,0.537
		c0.151,0.205,0.393,0.328,0.647,0.328s0.496-0.123,0.646-0.328l0.395-0.537C76.383,51.06,85.788,38.097,85.788,32.2
		C85.788,25.849,80.621,20.683,74.27,20.683z M74.27,49.524c-4.401-6.291-8.934-13.957-8.934-17.324
		c0-4.924,4.008-8.934,8.934-8.934s8.933,4.01,8.933,8.934C83.202,35.567,78.671,43.233,74.27,49.524z"/>
	<path d="M74.27,28.454c-2.607,0-4.729,2.121-4.729,4.729s2.121,4.729,4.729,4.729s4.729-2.121,4.729-4.729
		S76.877,28.454,74.27,28.454z M74.27,35.817c-1.452,0-2.634-1.182-2.634-2.635s1.182-2.635,2.634-2.635s2.635,1.182,2.635,2.635
		S75.722,35.817,74.27,35.817z"/>
	<path d="M45.538,72.147l-0.718,0.537c4.637-6.92,11.516-18.221,11.516-24.355c0-9.396-7.645-17.041-17.042-17.041
		c-9.396,0-17.041,7.645-17.041,17.041c0,8.725,13.914,27.902,15.501,30.059l0.582,0.795c0.224,0.303,0.582,0.484,0.958,0.484
		c0.378,0,0.735-0.182,0.956-0.482l0.585-0.797c0.211-0.287,0.646-0.883,1.231-1.709c0.295,0.367,0.727,0.564,1.166,0.564
		c0.313,0,0.628-0.096,0.897-0.299l3.204-2.395c0.664-0.494,0.799-1.436,0.304-2.098C47.141,71.786,46.201,71.649,45.538,72.147z
		 M39.294,73.958c-6.512-9.307-13.216-20.646-13.216-25.629c0-7.287,5.929-13.217,13.216-13.217c7.288,0,13.216,5.93,13.216,13.217
		C52.51,53.312,45.807,64.651,39.294,73.958z"/>
	<path d="M54.754,65.261l-6.144,4.592c-0.663,0.494-0.8,1.436-0.304,2.1c0.295,0.393,0.746,0.602,1.203,0.602
		c0.313,0,0.627-0.098,0.896-0.299l6.145-4.592c0.663-0.496,0.799-1.436,0.303-2.1S55.417,64.763,54.754,65.261z"/>
	<path d="M63.971,58.374l-6.145,4.592c-0.663,0.494-0.799,1.436-0.303,2.1c0.295,0.393,0.746,0.602,1.202,0.602
		c0.313,0,0.628-0.098,0.897-0.299l6.144-4.592c0.663-0.496,0.8-1.436,0.304-2.1C65.572,58.013,64.633,57.876,63.971,58.374z"/>
	<path d="M70.246,53.683l-3.203,2.395c-0.664,0.496-0.8,1.436-0.305,2.1c0.295,0.395,0.746,0.602,1.203,0.602
		c0.313,0,0.627-0.096,0.896-0.299l3.205-2.395c0.663-0.494,0.799-1.436,0.303-2.098C71.849,53.321,70.91,53.185,70.246,53.683z"/>
</g>
</svg>
