<?xml version="1.0" encoding="utf-8"?>
<!-- Generator: Adobe Illustrator 16.0.0, SVG Export Plug-In . SVG Version: 6.00 Build 0)  -->
<!DOCTYPE svg PUBLIC "-//W3C//DTD SVG 1.1//EN" "http://www.w3.org/Graphics/SVG/1.1/DTD/svg11.dtd">
<svg version="1.1" id="Layer_1" xmlns="http://www.w3.org/2000/svg" xmlns:xlink="http://www.w3.org/1999/xlink" x="0px" y="0px"
	 width="100px" height="100px" viewBox="0 0 100 100" enable-background="new 0 0 100 100" xml:space="preserve">
<g>
	<g>
		<path d="M50.8,79.433c-15.357,0-27.851-12.493-27.851-27.851S35.443,23.731,50.8,23.731s27.851,12.494,27.851,27.851
			S66.158,79.433,50.8,79.433z M50.8,28.22c-12.882,0-23.362,10.48-23.362,23.362S37.918,74.944,50.8,74.944
			s23.362-10.48,23.362-23.362S63.683,28.22,50.8,28.22z"/>
	</g>
	<g>
		<g>
			<path d="M44.384,45.448c0.33-0.847,0.79-1.579,1.381-2.199c0.593-0.623,1.308-1.106,2.145-1.452
				c0.836-0.35,1.771-0.523,2.806-0.523c1.335,0,2.449,0.183,3.343,0.551c0.893,0.367,1.612,0.824,2.158,1.368
				c0.545,0.546,0.936,1.134,1.171,1.762c0.234,0.631,0.352,1.22,0.352,1.764c0,0.901-0.118,1.645-0.352,2.228
				c-0.235,0.583-0.527,1.081-0.875,1.495c-0.349,0.414-0.733,0.767-1.157,1.058c-0.422,0.292-0.822,0.583-1.198,0.875
				c-0.376,0.291-0.71,0.624-1.001,1c-0.292,0.375-0.476,0.846-0.55,1.409v1.072h-3.808v-1.27c0.056-0.808,0.212-1.484,0.465-2.029
				c0.254-0.545,0.55-1.011,0.888-1.397c0.339-0.384,0.696-0.719,1.073-1.001c0.375-0.283,0.722-0.565,1.043-0.844
				c0.318-0.284,0.578-0.593,0.776-0.932c0.197-0.337,0.286-0.763,0.267-1.27c0-0.865-0.211-1.504-0.635-1.917
				c-0.422-0.415-1.01-0.621-1.763-0.621c-0.507,0-0.944,0.098-1.311,0.295c-0.367,0.197-0.667,0.462-0.903,0.791
				c-0.235,0.33-0.409,0.716-0.521,1.156c-0.113,0.444-0.169,0.916-0.169,1.426h-4.146C43.881,47.225,44.054,46.296,44.384,45.448z
				 M52.832,57.549v4.342h-4.429v-4.342H52.832z"/>
		</g>
	</g>
</g>
</svg>
