<?xml version="1.0" encoding="utf-8"?>
<!-- Generator: Adobe Illustrator 16.0.0, SVG Export Plug-In . SVG Version: 6.00 Build 0)  -->
<!DOCTYPE svg PUBLIC "-//W3C//DTD SVG 1.1//EN" "http://www.w3.org/Graphics/SVG/1.1/DTD/svg11.dtd">
<svg version="1.1" id="Layer_1" xmlns="http://www.w3.org/2000/svg" xmlns:xlink="http://www.w3.org/1999/xlink" x="0px" y="0px"
	 width="100px" height="100px" viewBox="0 0 100 100" enable-background="new 0 0 100 100" xml:space="preserve">
<g>
	<path d="M49.177,24.476c-14.946,0-27.106,12.16-27.106,27.106s12.16,27.106,27.106,27.106s27.106-12.16,27.106-27.106
		S64.123,24.476,49.177,24.476z M49.177,75.688c-13.292,0-24.106-10.814-24.106-24.106s10.814-24.106,24.106-24.106
		S73.283,38.29,73.283,51.582S62.469,75.688,49.177,75.688z"/>
	<path d="M51.902,34.657c-4.279,0-7.686,3.369-7.926,7.588C43.947,42.392,44,42.544,44,42.699V60.1l-1.559-1.774
		c-0.795-0.95-2.246-1.075-3.197-0.277c-0.948,0.797-1.09,2.212-0.293,3.162l5.443,6.496c0.02,0.023,0.036,0.038,0.056,0.058
		c0.066,0.073,0.136,0.141,0.212,0.202c0.043,0.038,0.084,0.076,0.131,0.111c0.083,0.058,0.17,0.111,0.262,0.158
		c0.045,0.026,0.089,0.053,0.136,0.076c0.104,0.047,0.214,0.079,0.327,0.111c0.039,0.009,0.075,0.026,0.115,0.035
		c0.152,0.032,0.31,0.052,0.473,0.052s0.32-0.02,0.474-0.052c0.039-0.009,0.075-0.026,0.114-0.035
		c0.113-0.032,0.223-0.064,0.328-0.111c0.047-0.023,0.09-0.049,0.135-0.076c0.092-0.047,0.18-0.1,0.264-0.158
		c0.046-0.035,0.088-0.073,0.132-0.111c0.075-0.061,0.147-0.128,0.213-0.202c0.019-0.021,0.042-0.035,0.06-0.058l5.453-6.496
		c0.797-0.95,0.673-2.364-0.276-3.162c-0.95-0.795-2.04-0.672-2.837,0.277L49,60.1V42.699c0-1.961,1.27-3.553,3.229-3.553
		s3.391,1.592,3.391,3.553c0,1.239,0.923,2.244,2.163,2.244c1.239,0,2.202-1.005,2.202-2.244
		C59.984,38.263,56.338,34.657,51.902,34.657z"/>
</g>
</svg>
