<?xml version="1.0" encoding="utf-8"?>
<!-- Generator: Adobe Illustrator 16.0.0, SVG Export Plug-In . SVG Version: 6.00 Build 0)  -->
<!DOCTYPE svg PUBLIC "-//W3C//DTD SVG 1.1//EN" "http://www.w3.org/Graphics/SVG/1.1/DTD/svg11.dtd">
<svg version="1.1" id="Layer_1" xmlns="http://www.w3.org/2000/svg" xmlns:xlink="http://www.w3.org/1999/xlink" x="0px" y="0px"
	 width="100px" height="100px" viewBox="0 0 100 100" enable-background="new 0 0 100 100" xml:space="preserve">
<path d="M76.225,35.532H69.82v-4.595l-3.773-3.772v0.016l-1.427-1.428h0.015l-3.785-3.786H37.9c-1.041,0-1.886,0.848-1.886,1.893
	v11.673H29.61c-0.662,0-1.298,0.234-1.767,0.648c-0.466,0.415-0.73,0.979-0.73,1.566v29.513c0,0.611,0.279,1.166,0.73,1.566
	c0.453,0.4,1.078,0.648,1.767,0.648h6.404v7.082c0,1.045,0.845,1.893,1.886,1.893h30.033c1.042,0,1.887-0.848,1.887-1.893v-7.082
	h6.404c0.662,0,1.297-0.234,1.766-0.648c0.467-0.416,0.73-0.979,0.73-1.566V37.747C78.721,36.524,77.604,35.532,76.225,35.532z
	 M61.805,25.765l3.92,3.92h-3.92V25.765z M39.787,25.752h18.018v7.933h8.242v1.847h-26.26V25.752z M66.047,65.046v4.428v5.189
	h-26.26v-5.189v-4.428v-10.65h26.26V65.046z M73.727,65.046H69.82V52.503c0-1.045-0.845-1.893-1.887-1.893H37.9
	c-1.041,0-1.886,0.848-1.886,1.893v12.543h-3.907V39.959h41.619V65.046z"/>
</svg>
