<?xml version="1.0" encoding="utf-8"?>
<!-- Generator: Adobe Illustrator 16.0.0, SVG Export Plug-In . SVG Version: 6.00 Build 0)  -->
<!DOCTYPE svg PUBLIC "-//W3C//DTD SVG 1.1//EN" "http://www.w3.org/Graphics/SVG/1.1/DTD/svg11.dtd">
<svg version="1.1" id="Layer_1" xmlns="http://www.w3.org/2000/svg" xmlns:xlink="http://www.w3.org/1999/xlink" x="0px" y="0px"
	 width="100px" height="100px" viewBox="0 0 100 100" enable-background="new 0 0 100 100" xml:space="preserve">
<g>
	<path d="M49.79,27.432c-12.638,0-22.919,10.282-22.919,22.919c0,12.639,10.281,22.92,22.919,22.92s22.919-10.281,22.919-22.92
		C72.709,37.714,62.428,27.432,49.79,27.432z M49.79,69.018c-10.294,0-18.668-8.374-18.668-18.667
		c0-10.294,8.374-18.668,18.668-18.668s18.667,8.374,18.667,18.668C68.457,60.644,60.084,69.018,49.79,69.018z"/>
	<g>
		<path d="M57.609,57.165l-1.19-4.069l3.719-2.034c0.259-0.142,0.421-0.414,0.421-0.711c0-0.295-0.161-0.57-0.422-0.711
			l-3.719-2.034l1.191-4.069c0.083-0.285,0.005-0.592-0.204-0.801c-0.21-0.209-0.517-0.288-0.802-0.206l-4.068,1.192l-2.034-3.72
			c-0.141-0.261-0.414-0.421-0.71-0.421c-0.297,0-0.569,0.161-0.712,0.421l-2.034,3.719l-4.069-1.19
			c-0.284-0.083-0.592-0.005-0.8,0.205c-0.209,0.208-0.288,0.516-0.205,0.801l1.191,4.069l-3.72,2.033
			c-0.259,0.143-0.421,0.415-0.421,0.712c0,0.218,0.087,0.424,0.237,0.574c0.053,0.054,0.115,0.1,0.185,0.137l3.719,2.034
			l-1.192,4.069c-0.082,0.285-0.004,0.593,0.206,0.802c0.209,0.209,0.516,0.287,0.8,0.204l4.069-1.192l2.035,3.72
			c0.037,0.069,0.083,0.131,0.137,0.185c0.149,0.15,0.355,0.237,0.574,0.237c0.296,0,0.568-0.162,0.71-0.421l2.034-3.72l4.068,1.191
			c0.285,0.083,0.592,0.005,0.801-0.205C57.613,57.757,57.692,57.449,57.609,57.165z M52.367,55.241c-0.001-0.001-0.002,0-0.002,0
			l-2.348-0.688c-0.148-0.042-0.307-0.042-0.456,0.001l-2.347,0.687l0,0L43.942,56.2l1.646-5.621
			c0.044-0.149,0.044-0.307,0.001-0.456L44.9,47.776c0-0.001,0.001-0.001,0.001-0.001l-0.959-3.271l3.271,0.958
			c0.001,0,0.002,0,0.002,0l2.347,0.688c0.149,0.042,0.308,0.042,0.456-0.001l5.62-1.645l-0.958,3.272l0,0l-0.688,2.347
			c-0.044,0.149-0.044,0.307-0.001,0.456l0.688,2.347c0,0,0.001,0.001,0,0.002l0.959,3.27L52.367,55.241z"/>
		<path d="M51.331,48.811c-0.962-0.961-2.526-0.961-3.488,0.001c-0.96,0.96-0.96,2.524,0.002,3.485c0.96,0.96,2.524,0.96,3.484,0
			C52.291,51.336,52.291,49.771,51.331,48.811z M48.99,51.15c-0.329-0.329-0.33-0.864-0.001-1.193c0.33-0.329,0.866-0.329,1.195,0
			c0.328,0.329,0.328,0.865-0.001,1.195C49.854,51.481,49.319,51.479,48.99,51.15z"/>
	</g>
</g>
</svg>
