<?xml version="1.0" encoding="utf-8"?>
<!-- Generator: Adobe Illustrator 16.0.0, SVG Export Plug-In . SVG Version: 6.00 Build 0)  -->
<!DOCTYPE svg PUBLIC "-//W3C//DTD SVG 1.1//EN" "http://www.w3.org/Graphics/SVG/1.1/DTD/svg11.dtd">
<svg version="1.1" id="Layer_1" xmlns="http://www.w3.org/2000/svg" xmlns:xlink="http://www.w3.org/1999/xlink" x="0px" y="0px"
	 width="100px" height="100px" viewBox="0 0 100 100" enable-background="new 0 0 100 100" xml:space="preserve">
<path d="M35.757,53.865h4.384c-0.021,1.771,0.019,4.646,0.086,9.445c0.015,1.046,0.868,1.888,1.915,1.888h3.512
	c0.727,0,1.389-0.41,1.714-1.059l6.493-12.988h0.393c0.284,0.702,0.973,1.197,1.775,1.197h9.099c1.058,0,1.915-0.858,1.915-1.916
	V37.584c0-1.058-0.857-1.916-1.915-1.916h-9.099c-1.058,0-1.915,0.858-1.915,1.916v0.557l-1.077,0.045l-1.631-1.863
	c-0.363-0.417-0.89-0.655-1.441-0.655H35.757c-1.058,0-1.914,0.858-1.914,1.916V51.95C33.843,53.007,34.7,53.865,35.757,53.865z
	 M57.945,39.5h5.268v9.019h-5.268v-8.54V39.5z M37.673,39.5h11.422l1.662,1.899c0.382,0.437,0.933,0.668,1.521,0.653l1.835-0.076
	v5.345h-1.437c-0.726,0-1.389,0.411-1.713,1.059L44.47,61.367h-0.437c-0.049-4.091-0.065-8.107-0.019-9.002
	c0.03-0.133,0.046-0.273,0.046-0.416c0-1.057-0.858-1.915-1.915-1.915h-4.473V39.5z"/>
</svg>
