<?xml version="1.0" encoding="utf-8"?>
<!-- Generator: Adobe Illustrator 16.0.0, SVG Export Plug-In . SVG Version: 6.00 Build 0)  -->
<!DOCTYPE svg PUBLIC "-//W3C//DTD SVG 1.1//EN" "http://www.w3.org/Graphics/SVG/1.1/DTD/svg11.dtd">
<svg version="1.1" id="Layer_1" xmlns="http://www.w3.org/2000/svg" xmlns:xlink="http://www.w3.org/1999/xlink" x="0px" y="0px"
	 width="100px" height="100px" viewBox="0 0 100 100" enable-background="new 0 0 100 100" xml:space="preserve">
<path d="M51.534,25.317c-13.751,0-24.937,9.396-24.937,20.946c0,6.226,3.339,12.145,9.01,16.104
	c-0.18,3.083-2.679,7.061-3.664,8.359c-0.686,0.904-0.803,2.121-0.301,3.14c0.506,1.02,1.545,1.666,2.683,1.666
	c6.839,0,14.323-5.353,17.957-8.331c13.403-0.333,24.188-9.598,24.188-20.937C76.47,34.713,65.284,25.317,51.534,25.317z
	 M51.546,61.223h-0.003c-0.82-0.057-1.662,0.168-2.291,0.707c-2.559,2.192-5.783,4.473-8.912,5.96c0.938-2.38,1.565-5.128,1.1-7.738
	c-0.15-0.846-0.659-1.587-1.395-2.033c-4.742-2.876-7.463-7.198-7.463-11.856c0-8.249,8.502-14.961,18.952-14.961
	c10.449,0,18.951,6.712,18.951,14.961S61.986,61.223,51.546,61.223z"/>
</svg>
