<?xml version="1.0" encoding="utf-8"?>
<!-- Generator: Adobe Illustrator 16.0.0, SVG Export Plug-In . SVG Version: 6.00 Build 0)  -->
<!DOCTYPE svg PUBLIC "-//W3C//DTD SVG 1.1//EN" "http://www.w3.org/Graphics/SVG/1.1/DTD/svg11.dtd">
<svg version="1.1" id="Layer_1" xmlns="http://www.w3.org/2000/svg" xmlns:xlink="http://www.w3.org/1999/xlink" x="0px" y="0px"
	 width="100px" height="100px" viewBox="0 0 100 100" enable-background="new 0 0 100 100" xml:space="preserve">
<g>
	<g>
		<path d="M51.125,79.433c-15.357,0-27.851-12.494-27.851-27.851c0-15.357,12.494-27.851,27.851-27.851
			c15.357,0,27.851,12.494,27.851,27.851C78.976,66.939,66.482,79.433,51.125,79.433z M51.125,28.219
			c-12.882,0-23.363,10.48-23.363,23.362s10.48,23.363,23.363,23.363c12.882,0,23.362-10.48,23.362-23.363
			S64.007,28.219,51.125,28.219z"/>
	</g>
	<g>
		<g>
			<path d="M46.848,63.125c0.631-0.105,1.063-0.263,1.297-0.473c0.351-0.316,0.525-0.883,0.525-1.701V50.398
				c0-0.73-0.122-1.229-0.368-1.493c-0.246-0.266-0.73-0.461-1.455-0.593v-0.859h6.89v13.639c0,0.783,0.117,1.286,0.351,1.508
				s0.672,0.397,1.315,0.526v0.859h-8.555V63.125z M49.241,39.994c0.543-0.544,1.201-0.815,1.972-0.815
				c0.76,0,1.412,0.271,1.955,0.815c0.543,0.543,0.815,1.201,0.815,1.972c0,0.77-0.271,1.429-0.815,1.973s-1.195,0.815-1.955,0.815
				c-0.771,0-1.428-0.271-1.972-0.815s-0.815-1.203-0.815-1.973C48.426,41.195,48.697,40.538,49.241,39.994z"/>
		</g>
	</g>
</g>
</svg>
