<?xml version="1.0" encoding="utf-8"?>
<!-- Generator: Adobe Illustrator 16.0.0, SVG Export Plug-In . SVG Version: 6.00 Build 0)  -->
<!DOCTYPE svg PUBLIC "-//W3C//DTD SVG 1.1//EN" "http://www.w3.org/Graphics/SVG/1.1/DTD/svg11.dtd">
<svg version="1.1" id="Layer_1" xmlns="http://www.w3.org/2000/svg" xmlns:xlink="http://www.w3.org/1999/xlink" x="0px" y="0px"
	 width="100px" height="100px" viewBox="0 0 100 100" enable-background="new 0 0 100 100" xml:space="preserve">
<path d="M74.155,40.624c0.456,0,0.898-0.156,1.253-0.441l7.667-6.166c0.472-0.381,0.747-0.953,0.747-1.559s-0.274-1.18-0.747-1.559
	l-7.667-6.168c-0.355-0.285-0.797-0.441-1.253-0.441h-13.25v-3.377c0-1.104-0.896-2-2-2h-6.083c-1.104,0-2,0.896-2,2v3.377h-17
	c-1.104,0-2,0.896-2,2v12.334c0,1.105,0.896,2,2,2h16.958v2.145h-16.75c-0.456,0-0.898,0.156-1.253,0.441l-7.667,6.166
	c-0.472,0.381-0.747,0.953-0.747,1.559s0.274,1.18,0.747,1.559l7.667,6.168c0.355,0.285,0.797,0.441,1.253,0.441h16.75v18.689
	c0,1.104,0.896,2,2,2h6.083c1.104,0,2-0.896,2-2V59.103h13.5c1.104,0,2-0.896,2-2V44.769c0-1.105-0.896-2-2-2h-13.5v-2.145H74.155z
	 M56.863,75.792h-2.083V59.103h2.083V75.792z M72.363,55.103h-13.5h-6.083H34.734l-5.18-4.168l5.18-4.166h37.629V55.103z
	 M54.821,22.913h2.083v1.377h-2.083V22.913z M35.821,28.29h17h6.083H73.45l5.18,4.168l-5.18,4.166H58.863h-6.083H35.821V28.29z
	 M56.863,42.001h-2.083v-1.377h2.083V42.001z"/>
</svg>
