<?xml version="1.0" encoding="utf-8"?>
<!-- Generator: Adobe Illustrator 16.0.0, SVG Export Plug-In . SVG Version: 6.00 Build 0)  -->
<!DOCTYPE svg PUBLIC "-//W3C//DTD SVG 1.1//EN" "http://www.w3.org/Graphics/SVG/1.1/DTD/svg11.dtd">
<svg version="1.1" id="Layer_1" xmlns="http://www.w3.org/2000/svg" xmlns:xlink="http://www.w3.org/1999/xlink" x="0px" y="0px"
	 width="100px" height="100px" viewBox="0 0 100 100" enable-background="new 0 0 100 100" xml:space="preserve">
<g>
	<path d="M51.895,27.432c-12.639,0-22.92,10.281-22.92,22.918c0,12.639,10.281,22.92,22.92,22.92
		c12.637,0,22.918-10.282,22.918-22.92C74.813,37.713,64.531,27.432,51.895,27.432z M34.398,56.802
		c0.438-0.261,0.521-0.74,0.586-1.154c0.067-0.437,0.16-1.035,0.551-1.928c0.594-1.357,0.639-1.672,0.649-1.817
		c0.042-0.087,0.146-0.237,0.414-0.639c0.813-1.218,0.912-2.085,1.052-3.286c0.043-0.372,0.09-0.79,0.166-1.281
		c0.229-1.483,0.905-2.346,1.502-3.106c0.17-0.214,0.329-0.417,0.467-0.618c0.263-0.379,0.459-0.936,0.666-1.525
		c0.224-0.632,0.561-1.586,0.871-1.757c0.003-0.001,0.06-0.031,0.205-0.031c0.395,0,0.996,0.221,1.383,0.645
		c0.26,0.286,0.376,0.612,0.343,0.972c-0.073,0.812-0.431,1.703-0.745,2.489c-0.355,0.888-0.637,1.59-0.521,2.163
		c0.207,1.035,1.134,1.485,1.619,1.721c0.09,0.046,0.23,0.08,0.331,0.08c0.501,0,0.737-0.427,1.012-0.922
		c0.195-0.35,0.521-0.939,0.81-1.041c0.717-0.254,1.317-0.86,1.848-1.396c0.236-0.239,0.451-0.463,0.646-0.603
		c0.132-0.092,0.388-0.353,0.677,0.128c0.292,0.486,0.728,0.746,1.078,0.954c0.41,0.245,0.559,0.351,0.596,0.579
		c0.048,0.283,0.083,0.726,0.125,1.222c0.139,1.672,0.26,2.81,0.646,3.353c0.402,0.564,1.002,0.791,1.441,0.957
		c0.165,0.063,0.352,0.132,0.434,0.216c0.162,0.202,0.434,0.54,0.867,0.54c0.791,0,0.905-0.97,0.943-1.29
		c0.092-0.791-0.226-1.261-0.416-1.541c-0.045-0.066-0.105-0.156-0.113-0.175c0-0.006,0.016-0.152,0.373-0.558
		c0.6-0.681,0.887-0.897,1.189-1.126c0.338-0.254,0.688-0.519,1.363-1.279c1.387-1.56,2.236-3.952,2.236-4.734
		c0-0.467-0.299-0.784-0.496-0.994c-0.029-0.03-0.066-0.07-0.098-0.105c0.052-0.055,0.146-0.141,0.317-0.258
		c0.493-0.34,0.874-0.685,1.21-0.988c0.667-0.601,1.148-1.036,2.183-1.172c1.323-0.177,1.706-0.011,2.002,0.293
		c-0.017,0.348-0.443,1.278-0.632,1.689c-0.113,0.25-0.218,0.477-0.291,0.659c-0.027,0.071-0.254,0.112-0.339,0.127
		c-0.509,0.092-0.635,0.391-0.651,0.622c-0.037,0.525,0.33,0.647,1.063,0.892c1.543,0.514,1.896,0.311,2.639-0.019l0.363-0.158
		c0.326-0.136,0.688-0.367,1.038-0.647c1.618,2.764,2.563,5.967,2.563,9.395c0,1.218-0.126,2.407-0.35,3.561
		c-0.216-0.186-0.434-0.343-0.624-0.447c-0.123-0.066-0.219-0.147-0.314-0.226c-0.011,0.617-0.214,1.455-0.324,1.822
		c-0.195,0.648-0.958,1.437-1.916,1.916c-0.957,0.479-0.776-0.421-0.957-0.647c-0.498-0.624-2.075-0.47-3.192,0
		c-1.118,0.47-1.313,1.207-1.756,1.605c-0.639,0.573-2.235,0.958-3.192,1.259c-0.958,0.302-0.479,1.773-0.639,2.957
		c-0.16,1.184,0.51,1.477,0.958,1.53c0.753,0.09,2.554-0.16,3.032,0c0.235,0.079,0.465,1.171,0.792,2.294
		c-2.932,1.917-6.427,3.042-10.185,3.042C43.871,69.017,37.033,63.919,34.398,56.802z"/>
	<path d="M68.949,52.507c-0.233-0.002-0.08,0.394,0.324,0.732C69.281,52.826,69.205,52.509,68.949,52.507z"/>
	<path d="M53.945,54.279c-0.479-0.303-1.277-0.814-2.052-2.411s-1.477,1.057-1.46,1.596c0.022,0.743,0.277,2.334,0.798,2.865
		c0.497,0.505,2.036,1.011,2.714,0.807c0.428-0.128,0.798-0.958,1.596-0.807c0.799,0.151,1.061-1.72,0.639-2.05
		C55.739,53.935,54.424,54.582,53.945,54.279z"/>
	<path d="M57.898,51.419c0.904,0.127,0.771,0.839,1.896,0.002c1.333-0.99,1.885-1.927,1.812-2.746
		c-0.042-0.479-0.909-1.916-1.812-0.639s-0.902,0.953-1.381,1.673l-1.133,1.711C57.531,51.392,57.732,51.396,57.898,51.419z"/>
</g>
</svg>
