<?xml version="1.0" encoding="utf-8"?>
<!-- Generator: Adobe Illustrator 16.0.0, SVG Export Plug-In . SVG Version: 6.00 Build 0)  -->
<!DOCTYPE svg PUBLIC "-//W3C//DTD SVG 1.1//EN" "http://www.w3.org/Graphics/SVG/1.1/DTD/svg11.dtd">
<svg version="1.1" id="Layer_1" xmlns="http://www.w3.org/2000/svg" xmlns:xlink="http://www.w3.org/1999/xlink" x="0px" y="0px"
	 width="100px" height="100px" viewBox="0 0 100 100" enable-background="new 0 0 100 100" xml:space="preserve">
<g>
	<path d="M67.606,30.592h-6.831c-1.04,0-1.882,0.843-1.882,1.882v16.563c0,5.091-2.229,10.569-7.122,10.569
		s-7.122-5.479-7.122-10.569V32.474c0-1.039-0.843-1.882-1.882-1.882h-6.831c-1.04,0-1.882,0.843-1.882,1.882v21.127
		c0,9.444,7.947,17.128,17.717,17.128c9.769,0,17.717-7.684,17.717-17.128V32.474C69.488,31.435,68.646,30.592,67.606,30.592z
		 M65.725,38.452h-3.067v-4.097h3.067V38.452z M40.886,34.355v4.097h-3.068v-4.097H40.886z M51.771,66.966
		c-7.694,0-13.954-5.996-13.954-13.365V42.216h3.068v6.821c0,8.438,4.477,14.333,10.886,14.333s10.886-5.895,10.886-14.333v-6.821
		h3.067v11.385C65.725,60.97,59.465,66.966,51.771,66.966z"/>
</g>
</svg>
