<?xml version="1.0" encoding="utf-8"?>
<!-- Generator: Adobe Illustrator 16.0.0, SVG Export Plug-In . SVG Version: 6.00 Build 0)  -->
<!DOCTYPE svg PUBLIC "-//W3C//DTD SVG 1.1//EN" "http://www.w3.org/Graphics/SVG/1.1/DTD/svg11.dtd">
<svg version="1.1" id="Layer_1" xmlns="http://www.w3.org/2000/svg" xmlns:xlink="http://www.w3.org/1999/xlink" x="0px" y="0px"
	 width="100px" height="100px" viewBox="0 0 100 100" enable-background="new 0 0 100 100" xml:space="preserve">
<g>
	<path d="M67.349,37.198h-30.06c-1.04,0-1.882,0.843-1.882,1.882v36.157c0,1.038,0.842,1.881,1.882,1.881h30.06
		c1.04,0,1.882-0.843,1.882-1.881V39.08C69.23,38.041,68.389,37.198,67.349,37.198z M65.467,73.355H39.171V40.962h26.296V73.355z"/>
	<path d="M52.318,63.103c5.274,0,9.565-4.292,9.565-9.566v-7.684c0-1.039-0.842-1.882-1.882-1.882c-1.039,0-1.881,0.843-1.881,1.882
		v7.684c0,3.199-2.604,5.803-5.803,5.803s-5.802-2.604-5.802-5.803v-7.684c0-1.039-0.843-1.882-1.882-1.882
		c-1.04,0-1.882,0.843-1.882,1.882v7.684C42.753,58.811,47.044,63.103,52.318,63.103z"/>
</g>
</svg>
