<?xml version="1.0" encoding="utf-8"?>
<!-- Generator: Adobe Illustrator 16.0.0, SVG Export Plug-In . SVG Version: 6.00 Build 0)  -->
<!DOCTYPE svg PUBLIC "-//W3C//DTD SVG 1.1//EN" "http://www.w3.org/Graphics/SVG/1.1/DTD/svg11.dtd">
<svg version="1.1" id="Layer_1" xmlns="http://www.w3.org/2000/svg" xmlns:xlink="http://www.w3.org/1999/xlink" x="0px" y="0px"
	 width="100px" height="100px" viewBox="0 0 100 100" enable-background="new 0 0 100 100" xml:space="preserve">
<g>
	<path d="M57.423,43.511c-0.398,0-0.779,0.158-1.061,0.439l-21.64,21.641c-0.586,0.586-0.586,1.535,0,2.121
		c1.217,1.217,2.938,1.86,4.976,1.86c0,0,0,0,0,0c2.84,0,6.195-1.253,9.408-3.422v20.281c0,0.828,0.671,1.5,1.5,1.5
		s1.5-0.672,1.5-1.5V63.808c0.432-0.385,0.859-0.78,1.275-1.196c6.662-6.662,8.903-14.859,5.103-18.661
		C58.202,43.669,57.821,43.511,57.423,43.511z M51.26,60.491c-3.696,3.694-8.234,6.082-11.562,6.082
		c-0.563,0-1.068-0.068-1.512-0.202l18.941-18.942C57.963,50.316,56.095,55.655,51.26,60.491z"/>
	<path d="M77.722,48.085c-1.034-3.354-3.289-6.885-6.348-9.944c-4.294-4.295-9.538-6.962-13.685-6.962
		c-2.039,0-3.759,0.643-4.976,1.859c-0.281,0.281-0.439,0.662-0.439,1.061c0,0.397,0.158,0.779,0.439,1.061l21.641,21.64
		c0.293,0.293,0.677,0.439,1.061,0.439s0.768-0.146,1.061-0.439C78.414,54.861,78.857,51.765,77.722,48.085z M75.127,53.332
		l-18.951-18.95c0.444-0.135,0.95-0.202,1.512-0.202c3.33,0,7.868,2.388,11.564,6.083c2.72,2.721,4.709,5.813,5.602,8.707
		C75.384,50.685,75.47,52.195,75.127,53.332z"/>
	<path d="M43.874,38.543c0.398,0,0.779-0.158,1.061-0.439l21.64-21.641c0.586-0.586,0.586-1.535,0-2.121
		c-1.217-1.217-2.937-1.859-4.976-1.859c-4.146,0-9.389,2.667-13.684,6.961c-6.662,6.662-8.903,14.858-5.103,18.66
		C43.094,38.385,43.476,38.543,43.874,38.543z M50.037,21.565c3.696-3.695,8.234-6.082,11.563-6.082
		c0.563,0,1.067,0.067,1.512,0.201L44.169,34.626C43.333,31.739,45.202,26.401,50.037,21.565z"/>
	<path d="M43.607,50.876c2.039,0,3.76-0.644,4.977-1.86c0.281-0.281,0.439-0.663,0.439-1.061s-0.158-0.779-0.439-1.061
		L26.943,25.256c-0.586-0.586-1.535-0.586-2.121,0c-1.939,1.938-2.383,5.033-1.248,8.714c1.034,3.353,3.289,6.884,6.348,9.944
		C34.217,48.208,39.46,50.876,43.607,50.876C43.607,50.876,43.607,50.876,43.607,50.876z M26.442,33.085
		c-0.529-1.716-0.616-3.226-0.273-4.361l18.952,18.95c-0.445,0.135-0.95,0.202-1.514,0.202c-3.329,0-7.868-2.388-11.563-6.083
		C29.324,39.073,27.334,35.98,26.442,33.085z"/>
	<path d="M50.606,46.265c2.573,0,4.667-2.094,4.667-4.667s-2.094-4.667-4.667-4.667s-4.667,2.094-4.667,4.667
		S48.033,46.265,50.606,46.265z M50.606,39.931c0.919,0,1.667,0.748,1.667,1.667s-0.748,1.667-1.667,1.667s-1.667-0.748-1.667-1.667
		S49.687,39.931,50.606,39.931z"/>
</g>
</svg>
