<?xml version="1.0" encoding="utf-8"?>
<!-- Generator: Adobe Illustrator 16.0.0, SVG Export Plug-In . SVG Version: 6.00 Build 0)  -->
<!DOCTYPE svg PUBLIC "-//W3C//DTD SVG 1.1//EN" "http://www.w3.org/Graphics/SVG/1.1/DTD/svg11.dtd">
<svg version="1.1" id="Layer_1" xmlns="http://www.w3.org/2000/svg" xmlns:xlink="http://www.w3.org/1999/xlink" x="0px" y="0px"
	 width="100px" height="100px" viewBox="0 0 100 100" enable-background="new 0 0 100 100" xml:space="preserve">
<path d="M66.652,62.177h-2.867c-3.166-2.24-6.713-8.846-9.875-18.383c3.045-1.464,5.156-4.569,5.156-8.168
	c0-5-4.068-9.066-9.066-9.066c-5,0-9.066,4.066-9.066,9.066c0,3.598,2.111,6.703,5.154,8.167c-3.16,9.537-6.707,16.141-9.875,18.384
	h-2.865c-2.826,0-5.125,2.299-5.125,5.125c0,2.824,2.299,5.123,5.125,5.123h33.305c2.826,0,5.125-2.299,5.125-5.123
	C71.777,64.476,69.479,62.177,66.652,62.177z M54.799,35.626c0,2.647-2.152,4.8-4.799,4.8s-4.801-2.152-4.801-4.8
	c0-2.289,1.613-4.202,3.762-4.679c0.336-0.068,0.684-0.105,1.039-0.105s0.703,0.037,1.039,0.105
	C53.186,31.424,54.799,33.337,54.799,35.626z M49.121,44.649c0.289,0.027,0.582,0.044,0.879,0.044c0.295,0,0.588-0.017,0.877-0.044
	c2.041,6.188,4.906,13.248,8.408,17.528h-18.57C44.219,57.897,47.082,50.837,49.121,44.649z M66.652,69.273H33.348
	c-1.088,0-1.971-0.885-1.971-1.971c0-1.088,0.883-1.971,1.971-1.971h33.305c1.088,0,1.971,0.883,1.971,1.971
	C68.623,68.388,67.74,69.273,66.652,69.273z"/>
</svg>
