<?xml version="1.0" encoding="utf-8"?>
<!-- Generator: Adobe Illustrator 16.0.0, SVG Export Plug-In . SVG Version: 6.00 Build 0)  -->
<!DOCTYPE svg PUBLIC "-//W3C//DTD SVG 1.1//EN" "http://www.w3.org/Graphics/SVG/1.1/DTD/svg11.dtd">
<svg version="1.1" id="Layer_1" xmlns="http://www.w3.org/2000/svg" xmlns:xlink="http://www.w3.org/1999/xlink" x="0px" y="0px"
	 width="100px" height="100px" viewBox="0 0 100 100" enable-background="new 0 0 100 100" xml:space="preserve">
<g>
	<path d="M66.762,26.688H31.635c-0.499,0-0.978,0.198-1.331,0.552c-0.353,0.353-0.551,0.833-0.551,1.33v35.126
		c0,0.52,0.21,0.99,0.551,1.331c0.341,0.341,0.811,0.551,1.331,0.551h1.599v1.255h2.479h0.03h2.479v-1.255h21.481v1.255h2.479h0.03
		h2.479v-1.255h2.071c0.499,0,0.978-0.198,1.331-0.551c0.352-0.354,0.55-0.831,0.55-1.331V28.57
		C68.643,27.531,67.802,26.688,66.762,26.688z M64.88,61.814H33.517V30.452H64.88V61.814z"/>
	<path d="M35.743,51.575h-1.255v2.51h1.255v4.021c0,0.693,0.562,1.255,1.254,1.255h23.946c0.693,0,1.254-0.562,1.254-1.255V34.16
		c0-0.693-0.562-1.254-1.254-1.254H36.998c-0.693,0-1.254,0.561-1.254,1.254v4.013h-1.285v2.509h1.285V51.575z M38.252,35.415
		h21.437v21.437H38.252V35.415z"/>
	<path d="M55.788,38.771c-0.49-0.489-1.284-0.489-1.774,0l-2.618,2.62c-0.731-0.377-1.548-0.609-2.425-0.609
		c-0.818,0-1.585,0.199-2.279,0.529L43.92,38.54c-0.49-0.49-1.284-0.49-1.774,0c-0.49,0.49-0.49,1.284,0,1.774l2.587,2.587
		c-0.688,0.9-1.114,2.014-1.114,3.232s0.426,2.331,1.114,3.231l-2.577,2.578c-0.49,0.489-0.49,1.283,0,1.773
		c0.245,0.245,0.566,0.368,0.887,0.368c0.321,0,0.642-0.123,0.887-0.368l2.761-2.761c0.693,0.329,1.46,0.528,2.279,0.528
		c0.926,0,1.785-0.258,2.545-0.674l2.437,2.438c0.245,0.245,0.566,0.367,0.887,0.367c0.321,0,0.642-0.122,0.887-0.367
		c0.49-0.49,0.49-1.284,0-1.774l-2.334-2.334c0.584-0.857,0.928-1.893,0.928-3.006c0-1.162-0.382-2.23-1.013-3.108l2.479-2.479
		C56.278,40.056,56.278,39.262,55.788,38.771z M48.971,48.976c-1.567,0-2.842-1.275-2.842-2.842c0-1.567,1.274-2.843,2.842-2.843
		c1.566,0,2.841,1.275,2.841,2.843C51.812,47.7,50.537,48.976,48.971,48.976z"/>
</g>
</svg>
