<?xml version="1.0" encoding="utf-8"?>
<!-- Generator: Adobe Illustrator 16.0.0, SVG Export Plug-In . SVG Version: 6.00 Build 0)  -->
<!DOCTYPE svg PUBLIC "-//W3C//DTD SVG 1.1//EN" "http://www.w3.org/Graphics/SVG/1.1/DTD/svg11.dtd">
<svg version="1.1" id="Layer_1" xmlns="http://www.w3.org/2000/svg" xmlns:xlink="http://www.w3.org/1999/xlink" x="0px" y="0px"
	 width="100px" height="100px" viewBox="0 0 100 100" enable-background="new 0 0 100 100" xml:space="preserve">
<g>
	<path fill="none" d="M53.373,50.853l-2.328-4.715l-2.326,4.715c-0.311,0.629-0.911,1.065-1.605,1.167l-5.204,0.755l3.765,3.671
		c0.503,0.49,0.732,1.195,0.614,1.889l-0.89,5.182l4.654-2.447c0.311-0.162,0.652-0.244,0.992-0.244
		c0.342,0,0.683,0.082,0.992,0.244l4.655,2.447l-0.889-5.182c-0.119-0.693,0.11-1.398,0.614-1.889l3.765-3.671l-5.204-0.755
		C54.284,51.918,53.684,51.482,53.373,50.853z"/>
	<path fill="none" d="M43.53,31.279l2.243,15.9l3.359-6.807c0.359-0.728,1.101-1.188,1.912-1.188c0.813,0,1.554,0.461,1.914,1.188
		l3.285,6.658l2.223-15.752H43.53z"/>
	<path d="M45.773,47.179l-2.243-15.9h14.937l-2.223,15.752l0.458,0.928l3.646,0.53l2.688-19.045
		c0.086-0.612-0.098-1.231-0.502-1.697c-0.405-0.467-0.993-0.734-1.611-0.734H41.075c-0.618,0-1.206,0.268-1.61,0.734
		c-0.405,0.466-0.588,1.085-0.502,1.697l2.688,19.058l3.738-0.543L45.773,47.179z"/>
	<path d="M66.797,52.048c-0.252-0.771-0.92-1.334-1.723-1.451l-4.727-0.686l-3.646-0.531l-0.458-0.928l-3.285-6.657
		c-0.36-0.729-1.102-1.189-1.914-1.189c-0.812,0-1.553,0.461-1.912,1.189l-3.359,6.807L45.39,49.38l-3.738,0.544l-4.634,0.673
		c-0.804,0.117-1.471,0.68-1.723,1.451c-0.25,0.772-0.041,1.621,0.541,2.188l6.057,5.904l-1.43,8.337
		c-0.137,0.802,0.191,1.609,0.849,2.088c0.372,0.27,0.812,0.406,1.255,0.406c0.339,0,0.68-0.08,0.992-0.244l7.486-3.938l7.488,3.938
		c0.719,0.377,1.588,0.314,2.246-0.162c0.657-0.479,0.986-1.286,0.85-2.088l-1.43-8.337l6.057-5.904
		C66.838,53.669,67.047,52.821,66.797,52.048z M56.418,57.868c-0.504,0.49-0.733,1.196-0.614,1.889l0.889,5.182l-4.655-2.446
		c-0.31-0.163-0.65-0.245-0.992-0.245c-0.34,0-0.682,0.082-0.992,0.245l-4.654,2.446l0.89-5.182
		c0.118-0.692-0.111-1.398-0.614-1.889l-3.765-3.67l5.204-0.756c0.694-0.102,1.295-0.538,1.605-1.167l2.326-4.715l2.328,4.715
		c0.311,0.629,0.911,1.065,1.605,1.167l5.204,0.756L56.418,57.868z"/>
</g>
</svg>
