<?xml version="1.0" encoding="utf-8"?>
<!-- Generator: Adobe Illustrator 16.0.0, SVG Export Plug-In . SVG Version: 6.00 Build 0)  -->
<!DOCTYPE svg PUBLIC "-//W3C//DTD SVG 1.1//EN" "http://www.w3.org/Graphics/SVG/1.1/DTD/svg11.dtd">
<svg version="1.1" id="Layer_1" xmlns="http://www.w3.org/2000/svg" xmlns:xlink="http://www.w3.org/1999/xlink" x="0px" y="0px"
	 width="100px" height="100px" viewBox="0 0 100 100" enable-background="new 0 0 100 100" xml:space="preserve">
<path d="M87.44,58.554c0-18.672-14.602-33.989-32.985-35.152v-3.068c0-1.239-1.005-2.244-2.244-2.244s-2.244,1.005-2.244,2.244
	v3.068C31.583,24.565,16.98,39.882,16.98,58.554v2.244h32.986v22.245c0,1.961-1.596,3.556-3.556,3.556
	c-1.961,0-3.557-1.594-3.557-3.555c0-1.239-1.004-2.244-2.244-2.244c-1.239,0-2.244,1.005-2.244,2.244
	c0,4.435,3.608,8.043,8.045,8.043c4.436,0,8.044-3.609,8.044-8.045V60.798H87.44V58.554z M21.549,56.31
	c1.154-15.908,14.465-28.498,30.662-28.498S81.719,40.402,82.87,56.31H21.549z"/>
</svg>
