<?xml version="1.0" encoding="utf-8"?>
<!-- Generator: Adobe Illustrator 16.0.0, SVG Export Plug-In . SVG Version: 6.00 Build 0)  -->
<!DOCTYPE svg PUBLIC "-//W3C//DTD SVG 1.1//EN" "http://www.w3.org/Graphics/SVG/1.1/DTD/svg11.dtd">
<svg version="1.1" id="Layer_1" xmlns="http://www.w3.org/2000/svg" xmlns:xlink="http://www.w3.org/1999/xlink" x="0px" y="0px"
	 width="100px" height="100px" viewBox="0 0 100 100" enable-background="new 0 0 100 100" xml:space="preserve">
<g>
	<path d="M44.165,45.383l3.032-3.032c-0.903-0.456-1.909-0.736-2.987-0.736c-3.689,0-6.69,3.001-6.69,6.69
		c0,3.688,3.001,6.69,6.69,6.69s6.69-3.002,6.69-6.69c0-1.078-0.28-2.084-0.736-2.987l-3.032,3.032
		c-0.024,1.593-1.323,2.882-2.922,2.882c-1.614,0-2.927-1.313-2.927-2.927C41.283,46.706,42.571,45.407,44.165,45.383z"/>
	<path d="M51.909,37.64c-2.169-1.569-4.824-2.507-7.699-2.507c-7.264,0-13.172,5.909-13.172,13.172
		c0,7.262,5.908,13.171,13.172,13.171s13.172-5.909,13.172-13.171c0-2.876-0.937-5.53-2.506-7.697l-2.707,2.705
		c0.913,1.449,1.449,3.156,1.449,4.992c0,5.187-4.221,9.407-9.408,9.407s-9.408-4.221-9.408-9.407c0-5.188,4.221-9.408,9.408-9.408
		c1.836,0,3.543,0.537,4.992,1.448L51.909,37.64z"/>
	<path d="M56.813,38.668c2.053,2.677,3.286,6.012,3.286,9.637c0,8.761-7.128,15.888-15.89,15.888s-15.89-7.127-15.89-15.888
		s7.128-15.889,15.89-15.889c3.625,0,6.96,1.233,9.637,3.286l2.686-2.686c-3.375-2.724-7.658-4.364-12.322-4.364
		c-10.836,0-19.653,8.816-19.653,19.652s8.817,19.651,19.653,19.651s19.653-8.815,19.653-19.651c0-4.664-1.641-8.947-4.364-12.321
		L56.813,38.668z"/>
	<path d="M65.7,29.238h-2.424v-2.419c0-0.693-0.563-1.254-1.254-1.254c-0.693,0-1.256,0.561-1.256,1.254v3.153l-1.176,1.177v-0.711
		c0-0.693-0.562-1.254-1.254-1.254c-0.693,0-1.255,0.561-1.255,1.254v3.22L43.323,47.417c-0.49,0.49-0.49,1.284,0,1.774
		c0.244,0.245,0.566,0.367,0.887,0.367s0.643-0.122,0.887-0.367l13.826-13.825h3.092c0.692,0,1.254-0.562,1.254-1.255
		s-0.562-1.254-1.254-1.254h-0.584l1.11-1.11H65.7c0.691,0,1.254-0.562,1.254-1.255S66.392,29.238,65.7,29.238z"/>
</g>
</svg>
