<?xml version="1.0" encoding="utf-8"?>
<!-- Generator: Adobe Illustrator 16.0.0, SVG Export Plug-In . SVG Version: 6.00 Build 0)  -->
<!DOCTYPE svg PUBLIC "-//W3C//DTD SVG 1.1//EN" "http://www.w3.org/Graphics/SVG/1.1/DTD/svg11.dtd">
<svg version="1.1" id="Layer_1" xmlns="http://www.w3.org/2000/svg" xmlns:xlink="http://www.w3.org/1999/xlink" x="0px" y="0px"
	 width="100px" height="100px" viewBox="0 0 100 100" enable-background="new 0 0 100 100" xml:space="preserve">
<path d="M56.131,38.914H39.948l1.336-1.336c0.833-0.833,0.833-2.183,0-3.017c-0.833-0.833-2.183-0.833-3.017,0l-4.977,4.977
	c-0.001,0.001-0.002,0.001-0.002,0.001l-1.508,1.509l1.508,1.507c0,0,0.001,0.001,0.002,0.003l5.332,5.331
	c0.417,0.417,0.963,0.625,1.508,0.625c0.547,0,1.092-0.208,1.509-0.625c0.833-0.833,0.833-2.183,0-3.017l-1.691-1.691h16.183
	c4.313,0,7.822,3.51,7.822,7.822s-3.51,7.822-7.822,7.822H34.799c-1.179,0-2.134,0.955-2.134,2.133s0.955,2.133,2.134,2.133h21.332
	c6.666,0,12.088-5.423,12.088-12.088S62.797,38.914,56.131,38.914z"/>
</svg>
