<?xml version="1.0" encoding="utf-8"?>
<!-- Generator: Adobe Illustrator 16.0.0, SVG Export Plug-In . SVG Version: 6.00 Build 0)  -->
<!DOCTYPE svg PUBLIC "-//W3C//DTD SVG 1.1//EN" "http://www.w3.org/Graphics/SVG/1.1/DTD/svg11.dtd">
<svg version="1.1" id="Layer_1" xmlns="http://www.w3.org/2000/svg" xmlns:xlink="http://www.w3.org/1999/xlink" x="0px" y="0px"
	 width="100px" height="100px" viewBox="0 0 100 100" enable-background="new 0 0 100 100" xml:space="preserve">
<g>
	<path d="M72.186,51.142c0.041-0.324,0.061-0.648,0.061-0.968c0-4.576-3.721-8.299-8.297-8.299c-0.836,0-1.654,0.128-2.449,0.382
		c-2.514-2.134-5.698-3.288-9.069-3.198c-2.171-5.526-7.485-9.242-13.565-9.242c-8.055,0-14.607,6.554-14.607,14.607
		c0,5.194,2.739,9.914,7.111,12.528c-0.092,0.563-0.147,1.124-0.147,1.686c0,5.036,3.319,9.379,7.997,10.834v0.563h26.527
		c5.824,0,10.563-4.737,10.563-10.563C76.309,56.173,74.766,53.119,72.186,51.142z M38.865,34.49c3.844,0,7.242,2.181,8.887,5.509
		c-0.136,0.055-0.263,0.123-0.396,0.183c-0.172,0.074-0.342,0.152-0.51,0.234c-0.33,0.161-0.65,0.338-0.964,0.523
		c-0.136,0.082-0.274,0.154-0.407,0.24c-0.438,0.281-0.863,0.581-1.266,0.91c-0.021,0.018-0.038,0.037-0.059,0.055
		c-0.38,0.313-0.739,0.65-1.082,1.004c-0.113,0.115-0.216,0.237-0.325,0.355c-0.245,0.271-0.479,0.55-0.703,0.839
		c-0.109,0.142-0.215,0.286-0.319,0.433c-0.212,0.299-0.409,0.609-0.597,0.926c-0.083,0.139-0.169,0.274-0.247,0.416
		c-0.251,0.461-0.483,0.934-0.681,1.426c-0.436,0.094-0.858,0.222-1.275,0.365c-0.126,0.042-0.249,0.094-0.373,0.141
		c-0.296,0.114-0.585,0.238-0.867,0.375c-0.128,0.061-0.254,0.121-0.378,0.188c-0.314,0.167-0.62,0.348-0.917,0.544
		c-0.068,0.044-0.141,0.082-0.207,0.13c-0.355,0.244-0.695,0.511-1.021,0.794c-0.091,0.081-0.177,0.166-0.266,0.249
		c-0.233,0.218-0.459,0.443-0.674,0.68c-0.099,0.107-0.193,0.216-0.288,0.326c-0.21,0.252-0.409,0.514-0.599,0.782
		c-0.065,0.093-0.136,0.182-0.199,0.277c-0.021,0.033-0.048,0.063-0.069,0.098c-2.563-1.842-4.132-4.82-4.132-8.067
		C28.933,38.945,33.388,34.49,38.865,34.49z M65.746,65.36H42.608l-0.778-0.092c-3.384-0.399-5.935-3.25-5.935-6.631
		c0-0.686,0.128-1.392,0.39-2.154c0.874-2.541,3.167-4.311,5.842-4.509l1.652-0.123l0.432-1.598c0.89-3.293,3.631-5.807,6.982-6.404
		c3.191-0.568,6.041,0.51,8.088,2.748l1.264,1.382l1.625-0.933c0.576-0.33,1.174-0.498,1.779-0.498c1.998,0,3.623,1.627,3.623,3.625
		c0,0.391-0.078,0.795-0.238,1.235l-0.701,1.925l1.814,0.947c1.967,1.026,3.188,3.015,3.188,5.19
		C71.635,62.719,68.992,65.36,65.746,65.36z"/>
</g>
</svg>
