<?xml version="1.0" encoding="utf-8"?>
<!-- Generator: Adobe Illustrator 16.0.0, SVG Export Plug-In . SVG Version: 6.00 Build 0)  -->
<!DOCTYPE svg PUBLIC "-//W3C//DTD SVG 1.1//EN" "http://www.w3.org/Graphics/SVG/1.1/DTD/svg11.dtd">
<svg version="1.1" id="Layer_1" xmlns="http://www.w3.org/2000/svg" xmlns:xlink="http://www.w3.org/1999/xlink" x="0px" y="0px"
	 width="100px" height="100px" viewBox="0 0 100 100" enable-background="new 0 0 100 100" xml:space="preserve">
<g>
	<path d="M73.427,48.243c1.291,0,2.337-1.047,2.337-2.337c0-1.291-1.046-2.337-2.337-2.337H68.29v-5.064h5.138
		c1.291,0,2.337-1.047,2.337-2.337s-1.046-2.337-2.337-2.337H68.29v-5.139c0-1.29-1.046-2.337-2.337-2.337
		c-1.291,0-2.337,1.047-2.337,2.337v5.139h-5.063v-5.139c0-1.29-1.046-2.337-2.337-2.337c-1.291,0-2.337,1.047-2.337,2.337v5.139
		h-5.063v-5.139c0-1.29-1.046-2.337-2.337-2.337c-1.291,0-2.337,1.047-2.337,2.337v5.139h-5.063v-5.139
		c0-1.29-1.046-2.337-2.337-2.337c-1.291,0-2.337,1.047-2.337,2.337v5.139h-5.138c-1.291,0-2.337,1.047-2.337,2.337
		s1.046,2.337,2.337,2.337h5.138v5.064h-5.138c-1.291,0-2.337,1.047-2.337,2.337c0,1.29,1.046,2.337,2.337,2.337h5.138v5.063h-5.138
		c-1.291,0-2.337,1.047-2.337,2.337s1.046,2.337,2.337,2.337h5.138v5.064h-5.138c-1.291,0-2.337,1.047-2.337,2.337
		c0,1.29,1.046,2.337,2.337,2.337h5.138v5.138c0,1.291,1.046,2.337,2.337,2.337c1.292,0,2.337-1.047,2.337-2.337v-5.138h5.063v5.138
		c0,1.291,1.046,2.337,2.337,2.337c1.292,0,2.337-1.047,2.337-2.337v-5.138h5.063v5.138c0,1.291,1.046,2.337,2.337,2.337
		c1.292,0,2.337-1.047,2.337-2.337v-5.138h5.063v5.138c0,1.291,1.046,2.337,2.337,2.337c1.292,0,2.337-1.047,2.337-2.337v-5.138
		h5.138c1.291,0,2.337-1.047,2.337-2.337c0-1.291-1.046-2.337-2.337-2.337H68.29v-5.064h5.138c1.291,0,2.337-1.047,2.337-2.337
		s-1.046-2.337-2.337-2.337H68.29v-5.063H73.427z M63.615,38.504v5.064h-5.063v-5.064H63.615z M53.878,38.504v5.064h-5.063v-5.064
		H53.878z M53.878,48.243v5.063h-5.063v-5.063H53.878z M39.078,38.504h5.063v5.064h-5.063V38.504z M39.078,48.243h5.063v5.063
		h-5.063V48.243z M39.078,63.043v-5.064h5.063v5.064H39.078z M48.815,63.043v-5.064h5.063v5.064H48.815z M63.615,63.043h-5.063
		v-5.064h5.063V63.043z M63.615,53.305h-5.063v-5.063h5.063V53.305z"/>
</g>
</svg>
