<?xml version="1.0" encoding="utf-8"?>
<!-- Generator: Adobe Illustrator 16.0.0, SVG Export Plug-In . SVG Version: 6.00 Build 0)  -->
<!DOCTYPE svg PUBLIC "-//W3C//DTD SVG 1.1//EN" "http://www.w3.org/Graphics/SVG/1.1/DTD/svg11.dtd">
<svg version="1.1" id="Layer_1" xmlns="http://www.w3.org/2000/svg" xmlns:xlink="http://www.w3.org/1999/xlink" x="0px" y="0px"
	 width="100px" height="100px" viewBox="0 0 100 100" enable-background="new 0 0 100 100" xml:space="preserve">
<g>
	<path d="M54.845,59.619V24.628c0-1.655-1.347-3.003-3-3.003c-1.655,0-3.002,1.348-3.002,3.003v34.991l-5.782-5.784
		c-1.17-1.165-3.072-1.165-4.249,0.007c-0.563,0.566-0.874,1.318-0.874,2.119s0.311,1.552,0.878,2.121l10.889,10.889
		c0.277,0.283,0.607,0.506,1.01,0.676c0.365,0.146,0.746,0.219,1.129,0.219c0.387,0,0.767-0.073,1.147-0.229
		c0.379-0.155,0.712-0.381,0.974-0.651l10.907-10.903c0.567-0.566,0.879-1.32,0.879-2.121s-0.312-1.555-0.881-2.126
		c-1.168-1.164-3.069-1.164-4.244,0.002L54.845,59.619z"/>
	<path d="M72.719,70.875c0,2.203-1.794,3.996-3.999,3.996H34.982c-2.205,0-3.999-1.793-3.999-3.996v-8.877h-6.002v8.877
		c0,5.515,4.487,10,10.001,10H68.72c5.514,0,10.001-4.485,10.001-10v-8.877h-6.002V70.875z"/>
</g>
</svg>
