<?xml version="1.0" encoding="utf-8"?>
<!-- Generator: Adobe Illustrator 16.0.0, SVG Export Plug-In . SVG Version: 6.00 Build 0)  -->
<!DOCTYPE svg PUBLIC "-//W3C//DTD SVG 1.1//EN" "http://www.w3.org/Graphics/SVG/1.1/DTD/svg11.dtd">
<svg version="1.1" id="Layer_1" xmlns="http://www.w3.org/2000/svg" xmlns:xlink="http://www.w3.org/1999/xlink" x="0px" y="0px"
	 width="100px" height="100px" viewBox="0 0 100 100" enable-background="new 0 0 100 100" xml:space="preserve">
<g>
	<path d="M78.962,30.902h-0.561c1.701-1.979,2.736-4.543,2.736-7.35c0-6.229-5.068-11.297-11.295-11.297
		c-6.229,0-11.297,5.068-11.297,11.297c0,2.807,1.035,5.371,2.735,7.35h-0.56c-3.144,0-5.701,2.557-5.701,5.701v18.738
		c0,3.145,2.558,5.703,5.701,5.703h0.218v20.494c0,3.25,1.714,5.703,3.984,5.703h9.835c2.272,0,3.984-2.453,3.984-5.703V61.045
		h0.219c3.143,0,5.701-2.559,5.701-5.703V36.604C84.663,33.459,82.104,30.902,78.962,30.902z M69.843,16.201
		c4.051,0,7.348,3.299,7.348,7.352s-3.297,7.35-7.348,7.35c-4.054,0-7.351-3.297-7.351-7.35S65.789,16.201,69.843,16.201z
		 M80.718,55.342c0,0.969-0.789,1.756-1.756,1.756h-2.191c-1.09,0-1.974,0.883-1.974,1.973v22.469c0,0.881-0.228,1.488-0.384,1.756
		h-9.143c-0.156-0.268-0.384-0.875-0.384-1.756V59.07c0-1.09-0.884-1.973-1.974-1.973h-2.191c-0.967,0-1.755-0.787-1.755-1.756
		V36.604c0-0.967,0.788-1.756,1.755-1.756h18.24c0.967,0,1.756,0.789,1.756,1.756V55.342z"/>
	<path d="M46.03,62.842c2.467-0.627,4.297-2.867,4.297-5.527V38.578c0-3.146-2.558-5.701-5.701-5.701h-0.561
		c1.701-1.98,2.736-4.545,2.736-7.352c0-6.229-5.067-11.297-11.297-11.297c-6.227,0-11.295,5.068-11.295,11.297
		c0,2.807,1.035,5.371,2.736,7.352h-0.561c-3.143,0-5.701,2.555-5.701,5.701v18.736c0,2.66,1.831,4.9,4.297,5.527l-3.959,5.863
		c-0.409,0.605-0.45,1.387-0.107,2.031c0.342,0.645,1.013,1.047,1.742,1.047h3.947v11.729c0,3.252,1.712,5.703,3.983,5.703h9.836
		c2.271,0,3.983-2.451,3.983-5.703V71.783h3.947c0.01,0,0.018,0,0.027,0c1.089,0,1.973-0.883,1.973-1.973
		c0-0.516-0.197-0.982-0.521-1.336L46.03,62.842z M35.505,18.174c4.054,0,7.35,3.297,7.35,7.352s-3.296,7.352-7.35,7.352
		c-4.052,0-7.348-3.297-7.348-7.352S31.453,18.174,35.505,18.174z M40.8,62.15l3.84,5.686h-2.205c-1.09,0-1.975,0.885-1.975,1.975
		v13.701c0,0.883-0.227,1.488-0.383,1.756h-9.143c-0.156-0.268-0.384-0.873-0.384-1.756V69.811c0-1.09-0.884-1.975-1.974-1.975
		h-2.205l3.84-5.686c0.41-0.607,0.45-1.387,0.107-2.031c-0.342-0.645-1.012-1.049-1.742-1.049h-2.191
		c-0.968,0-1.754-0.787-1.754-1.756V38.578c0-0.969,0.786-1.756,1.754-1.756h18.24c0.967,0,1.754,0.787,1.754,1.756v18.736
		c0,0.969-0.787,1.756-1.754,1.756h-2.191c-0.73,0-1.4,0.404-1.742,1.049C40.35,60.764,40.39,61.543,40.8,62.15z"/>
</g>
</svg>
