<?xml version="1.0" encoding="utf-8"?>
<!-- Generator: Adobe Illustrator 16.0.0, SVG Export Plug-In . SVG Version: 6.00 Build 0)  -->
<!DOCTYPE svg PUBLIC "-//W3C//DTD SVG 1.1//EN" "http://www.w3.org/Graphics/SVG/1.1/DTD/svg11.dtd">
<svg version="1.1" id="Layer_1" xmlns="http://www.w3.org/2000/svg" xmlns:xlink="http://www.w3.org/1999/xlink" x="0px" y="0px"
	 width="100px" height="100px" viewBox="0 0 100 100" enable-background="new 0 0 100 100" xml:space="preserve">
<path d="M87.14,28.27l-0.023,0.026l-0.025-0.021l0.025-0.028c-2.057-1.796-4.68-2.785-7.389-2.785h-54.85
	c-2.691,0-5.298,0.976-7.411,2.808V28.27c-2.44,2.142-3.84,5.22-3.84,8.443v27.423c0,3.223,1.4,6.3,3.838,8.445l0.004-0.004
	l0.023,0.019l-0.006,0.006c2.056,1.796,4.68,2.785,7.39,2.785h54.85c2.693,0,5.299-0.976,7.409-2.807l0.003,0.001
	c2.44-2.145,3.84-5.222,3.84-8.445V36.713C90.98,33.49,89.58,30.412,87.14,28.27z M52.302,58.055L24.206,31.042
	C24.43,31.015,24.653,31,24.878,31h54.85c0.224,0,0.449,0.015,0.672,0.042L52.302,58.055z M36.378,50.425L19.686,66.471
	c-0.343-0.735-0.52-1.524-0.52-2.335V36.713c0-0.811,0.177-1.601,0.52-2.336L36.378,50.425z M40.372,54.265l10.014,9.625
	c0.519,0.499,1.201,0.773,1.917,0.773c0.719,0,1.4-0.274,1.92-0.773l10.011-9.625L80.4,69.805c-0.224,0.029-0.449,0.044-0.672,0.044
	h-54.85c-0.225,0-0.447-0.015-0.672-0.044L40.372,54.265z M68.228,50.425l16.693-16.049c0.343,0.735,0.521,1.525,0.521,2.336v27.423
	c0,0.811-0.178,1.6-0.521,2.335L68.228,50.425z"/>
</svg>
