<?xml version="1.0" encoding="utf-8"?>
<!-- Generator: Adobe Illustrator 16.0.0, SVG Export Plug-In . SVG Version: 6.00 Build 0)  -->
<!DOCTYPE svg PUBLIC "-//W3C//DTD SVG 1.1//EN" "http://www.w3.org/Graphics/SVG/1.1/DTD/svg11.dtd">
<svg version="1.1" id="Layer_1" xmlns="http://www.w3.org/2000/svg" xmlns:xlink="http://www.w3.org/1999/xlink" x="0px" y="0px"
	 width="100px" height="100px" viewBox="0 0 100 100" enable-background="new 0 0 100 100" xml:space="preserve">
<g>
	<path d="M69.64,36.686c-1.031-0.57-2.328-0.194-2.898,0.838l-0.688,1.247c-2.359-7.217-9.145-12.448-17.139-12.448
		c-9.945,0-18.035,8.09-18.035,18.035c0,1.178,0.953,2.134,2.133,2.134c1.178,0,2.133-0.956,2.133-2.134
		c0-7.593,6.178-13.769,13.77-13.769c6.02,0,11.137,3.89,13.004,9.284l-1.166-0.643c-1.029-0.57-2.328-0.195-2.898,0.837
		c-0.568,1.032-0.193,2.329,0.838,2.898l4.215,2.326c0.348,0.707,1.068,1.199,1.91,1.199c0.211,0,0.414-0.041,0.607-0.099
		c0.01,0,0.021,0.004,0.031,0.004c0.754,0,1.482-0.397,1.871-1.103l3.15-5.71C71.046,38.553,70.673,37.255,69.64,36.686z"/>
	<path d="M66.214,48.414c-1.18,0-2.135,0.955-2.135,2.133c0,7.593-6.176,13.77-13.768,13.77c-6.021,0-11.139-3.891-13.006-9.284
		l1.166,0.643c0.326,0.181,0.68,0.266,1.029,0.266c0.752,0,1.48-0.397,1.869-1.104c0.568-1.031,0.195-2.328-0.838-2.898
		l-4.215-2.326c-0.348-0.707-1.066-1.198-1.908-1.198c-0.219,0-0.426,0.042-0.623,0.103c-0.758-0.006-1.496,0.384-1.887,1.095
		l-3.152,5.709c-0.568,1.032-0.193,2.329,0.838,2.898c0.326,0.181,0.68,0.266,1.029,0.266c0.752,0,1.48-0.397,1.869-1.103
		l0.689-1.247c2.357,7.216,9.145,12.448,17.139,12.448c9.943,0,18.035-8.09,18.035-18.036
		C68.347,49.369,67.392,48.414,66.214,48.414z"/>
</g>
</svg>
