<?xml version="1.0" encoding="utf-8"?>
<!-- Generator: Adobe Illustrator 16.0.0, SVG Export Plug-In . SVG Version: 6.00 Build 0)  -->
<!DOCTYPE svg PUBLIC "-//W3C//DTD SVG 1.1//EN" "http://www.w3.org/Graphics/SVG/1.1/DTD/svg11.dtd">
<svg version="1.1" id="Layer_1" xmlns="http://www.w3.org/2000/svg" xmlns:xlink="http://www.w3.org/1999/xlink" x="0px" y="0px"
	 width="100px" height="100px" viewBox="0 0 100 100" enable-background="new 0 0 100 100" xml:space="preserve">
<g>
	<path d="M65.68,58.021c-0.401-0.402-0.936-0.623-1.503-0.623l-8.555,0.001v-7.108c-0.001-0.569-0.223-1.103-0.624-1.504
		c-0.402-0.402-0.936-0.623-1.503-0.623c-0.568,0.001-1.102,0.222-1.502,0.623c-0.401,0.401-0.623,0.935-0.623,1.502l0,9.234
		c0.001,1.172,0.955,2.126,2.126,2.126l10.681-0.001c0.567,0,1.101-0.221,1.503-0.623c0.401-0.401,0.622-0.934,0.624-1.501
		C66.301,58.955,66.08,58.421,65.68,58.021z"/>
	<path d="M44.914,32.967c0.401-0.402,0.623-0.936,0.623-1.504c0-0.559-0.227-1.107-0.623-1.501
		c-2.394-2.397-5.578-3.716-8.966-3.716c-3.388,0-6.572,1.319-8.966,3.715c-2.396,2.393-3.715,5.578-3.715,8.966
		c0,3.387,1.319,6.572,3.716,8.968c0.402,0.399,0.936,0.62,1.5,0.62c0.565,0,1.099-0.221,1.503-0.623L44.914,32.967z M27.519,38.926
		c0-2.251,0.876-4.367,2.469-5.959c1.592-1.594,3.708-2.471,5.96-2.471c1.531,0,2.986,0.397,4.269,1.155L28.673,43.193
		C27.915,41.91,27.519,40.456,27.519,38.926z"/>
	<path d="M80.13,29.961c-2.393-2.397-5.577-3.716-8.965-3.716c-3.387,0-6.572,1.319-8.967,3.714
		c-0.401,0.401-0.623,0.935-0.623,1.504c0,0.57,0.222,1.104,0.623,1.504l14.928,14.927c0.402,0.4,0.935,0.621,1.502,0.621
		c0.566,0,1.099-0.221,1.502-0.623c2.396-2.396,3.715-5.579,3.715-8.966C83.843,35.537,82.523,32.352,80.13,29.961z M78.438,43.193
		L66.896,31.652c1.283-0.759,2.738-1.156,4.27-1.156c2.251,0,4.367,0.877,5.959,2.471c1.592,1.592,2.469,3.708,2.469,5.959
		C79.593,40.455,79.197,41.91,78.438,43.193z"/>
	<path d="M71.183,73.627c3.302-3.973,5.292-9.072,5.292-14.629c0-12.637-10.282-22.919-22.919-22.919
		c-12.638,0-22.919,10.282-22.919,22.919c0,5.165,1.738,9.921,4.632,13.758l-5.986,5.986c-0.749,0.748-0.749,1.96,0,2.708
		c0.374,0.374,0.864,0.561,1.354,0.561s0.98-0.187,1.354-0.561l5.831-5.831c4.11,3.893,9.641,6.298,15.734,6.298
		c5.705,0,10.917-2.108,14.932-5.569l5.102,5.102c0.375,0.374,0.864,0.561,1.354,0.561s0.981-0.187,1.354-0.561
		c0.749-0.749,0.749-1.96,0-2.708L71.183,73.627z M34.888,58.998c0-10.294,8.375-18.668,18.668-18.668
		c10.293,0,18.667,8.374,18.667,18.668c0,4.798-1.835,9.167-4.822,12.477c-0.238,0.093-0.462,0.233-0.654,0.425
		c-0.201,0.201-0.338,0.437-0.431,0.686c-3.341,3.14-7.824,5.079-12.76,5.079C43.262,77.665,34.888,69.291,34.888,58.998z"/>
</g>
</svg>
