<?xml version="1.0" encoding="utf-8"?>
<!-- Generator: Adobe Illustrator 16.0.0, SVG Export Plug-In . SVG Version: 6.00 Build 0)  -->
<!DOCTYPE svg PUBLIC "-//W3C//DTD SVG 1.1//EN" "http://www.w3.org/Graphics/SVG/1.1/DTD/svg11.dtd">
<svg version="1.1" id="Layer_1" xmlns="http://www.w3.org/2000/svg" xmlns:xlink="http://www.w3.org/1999/xlink" x="0px" y="0px"
	 width="100px" height="100px" viewBox="0 0 100 100" enable-background="new 0 0 100 100" xml:space="preserve">
<path d="M73.892,26.845h-54.43c-1.387,0-2.51,1.123-2.51,2.509s1.123,2.51,2.51,2.51h3.096v31.961c0,1.039,0.843,1.882,1.883,1.882
	h18.025l-6.164,6.163c-0.734,0.736-0.734,1.926,0,2.662c0.734,0.734,1.926,0.734,2.661,0l7.476-7.475l7.949,7.951
	c0.368,0.367,0.85,0.551,1.331,0.551s0.963-0.184,1.331-0.551c0.734-0.736,0.734-1.926,0-2.662l-6.641-6.64h18.503
	c1.04,0,1.882-0.843,1.882-1.882V31.863h3.098c1.385,0,2.508-1.124,2.508-2.51S75.276,26.845,73.892,26.845z M67.03,61.943H26.321
	v-30.08H67.03V61.943z"/>
</svg>
