<?xml version="1.0" encoding="utf-8"?>
<!-- Generator: Adobe Illustrator 16.0.0, SVG Export Plug-In . SVG Version: 6.00 Build 0)  -->
<!DOCTYPE svg PUBLIC "-//W3C//DTD SVG 1.1//EN" "http://www.w3.org/Graphics/SVG/1.1/DTD/svg11.dtd">
<svg version="1.1" id="Layer_1" xmlns="http://www.w3.org/2000/svg" xmlns:xlink="http://www.w3.org/1999/xlink" x="0px" y="0px"
	 width="100px" height="100px" viewBox="0 0 100 100" enable-background="new 0 0 100 100" xml:space="preserve">
<g>
	<path d="M78.13,12.094c-1.09,0-1.974,0.884-1.974,1.974v7.675H30.266v-7.675c0-1.09-0.884-1.974-1.974-1.974
		c-1.09,0-1.973,0.884-1.973,1.974v19.297c0,1.089,0.883,1.974,1.973,1.974c1.09,0,1.974-0.885,1.974-1.974v-7.677h3.297
		c-0.051,0.145-0.088,0.297-0.088,0.455v17.031v2.412c0,0.704,0.559,1.297,1.333,1.518h1.302h5.636h2.204v0.015v20.783H33.921
		c-3.094,0-5.612,2.509-5.629,5.598v13.894c0,3.103,2.525,5.628,5.629,5.628c3.104,0,5.628-2.525,5.628-5.628v-8.234h4.4h3.947
		h4.955h4.955h3.946h4.621v8.234c0,3.103,2.525,5.628,5.628,5.628c3.103,0,5.628-2.525,5.628-5.628V73.53
		c0-3.104-2.525-5.629-5.628-5.629H61.754V47.118v-0.013h2.231h6.019h1.292c0.778-0.22,1.339-0.812,1.339-1.52v-2.412V26.143
		c0-0.158-0.037-0.311-0.089-0.455h3.61v7.677c0,1.089,0.884,1.974,1.974,1.974c1.089,0,1.973-0.885,1.973-1.974V14.067
		C80.103,12.978,79.22,12.094,78.13,12.094z M37.443,43.174V26.143c0-0.158-0.037-0.311-0.089-0.455h10.536
		c-3.745,1.844-6.334,5.687-6.334,10.134c0,2.623,0.911,5.026,2.417,6.945c-0.008,0.081-0.023,0.159-0.023,0.241v0.164l0,0
		L37.443,43.174z M52.853,28.47c4.052,0,7.349,3.297,7.349,7.352c0,4.054-3.297,7.351-7.349,7.351c-4.053,0-7.349-3.297-7.349-7.351
		C45.504,31.767,48.799,28.47,52.853,28.47z M72.003,71.848c0.892,0,1.623,0.697,1.679,1.574l0.003,13.971
		c0,0.928-0.754,1.682-1.682,1.682c-0.929,0-1.682-0.754-1.682-1.682V75.211h-8.567h-3.99h-4.911h-4.94H43.95h-8.348v12.182
		c0,0.928-0.754,1.682-1.681,1.682c-0.928,0-1.683-0.754-1.683-1.682V73.776l0.006-0.042l-0.002-0.305
		c0.052-0.881,0.785-1.582,1.679-1.582H43.95h3.991v-3.946V47.118h9.823v20.783v3.946h3.99H72.003z M68.666,26.143v17.031h-6.912
		v-0.002v-0.069c0-0.112-0.016-0.221-0.029-0.329c1.509-1.919,2.424-4.326,2.424-6.952c0-4.447-2.59-8.29-6.335-10.134h10.941
		C68.703,25.832,68.666,25.984,68.666,26.143z"/>
	<path d="M82.515,12.094c-1.09,0-1.974,0.884-1.974,1.974v19.297c0,1.089,0.884,1.974,1.974,1.974s1.973-0.885,1.973-1.974V14.067
		C84.488,12.978,83.604,12.094,82.515,12.094z"/>
	<path d="M86.941,12.094c-1.09,0-1.974,0.884-1.974,1.974v19.297c0,1.089,0.883,1.974,1.974,1.974s1.973-0.885,1.973-1.974V14.067
		C88.914,12.978,88.031,12.094,86.941,12.094z"/>
	<path d="M19.48,12.094c-1.09,0-1.973,0.884-1.973,1.974v19.297c0,1.089,0.883,1.974,1.973,1.974c1.09,0,1.974-0.885,1.974-1.974
		V14.067C21.455,12.978,20.571,12.094,19.48,12.094z"/>
	<path d="M23.865,12.094c-1.089,0-1.973,0.884-1.973,1.974v19.297c0,1.089,0.884,1.974,1.973,1.974c1.09,0,1.975-0.885,1.975-1.974
		V14.067C25.839,12.978,24.955,12.094,23.865,12.094z"/>
</g>
</svg>
