<?xml version="1.0" encoding="utf-8"?>
<!-- Generator: Adobe Illustrator 16.0.0, SVG Export Plug-In . SVG Version: 6.00 Build 0)  -->
<!DOCTYPE svg PUBLIC "-//W3C//DTD SVG 1.1//EN" "http://www.w3.org/Graphics/SVG/1.1/DTD/svg11.dtd">
<svg version="1.1" id="Layer_1" xmlns="http://www.w3.org/2000/svg" xmlns:xlink="http://www.w3.org/1999/xlink" x="0px" y="0px"
	 width="100px" height="100px" viewBox="0 0 100 100" enable-background="new 0 0 100 100" xml:space="preserve">
<g>
	<g>
		<path d="M71.562,70.029H35.379c-2.702,0-4.818-1.722-4.818-3.922V41.104c0-2.2,2.117-3.922,4.818-3.922h7.75l0.785-3.728
			c0.187-0.887,0.968-1.521,1.875-1.521h15.364c0.906,0,1.688,0.635,1.875,1.521l0.785,3.728h7.75c2.702,0,4.819,1.722,4.819,3.922
			v25.002C76.38,68.307,74.263,70.029,71.562,70.029z M34.392,65.934c0.138,0.104,0.48,0.264,0.987,0.264h36.182
			c0.508,0,0.85-0.161,0.988-0.264V41.278c-0.138-0.104-0.48-0.265-0.988-0.265h-9.304c-0.906,0-1.688-0.635-1.875-1.521
			l-0.785-3.727H47.343l-0.785,3.727c-0.186,0.887-0.968,1.521-1.874,1.521h-9.304c-0.507,0-0.849,0.161-0.987,0.265V65.934z"/>
	</g>
	<g>
		<path d="M53.471,62.728c-5.106,0-9.26-4.154-9.26-9.259c0-5.105,4.154-9.259,9.26-9.259c5.105,0,9.259,4.154,9.259,9.259
			C62.729,58.574,58.576,62.728,53.471,62.728z M53.471,48.04c-2.994,0-5.429,2.436-5.429,5.428c0,2.993,2.435,5.428,5.429,5.428
			c2.993,0,5.428-2.435,5.428-5.428C58.899,50.476,56.463,48.04,53.471,48.04z"/>
	</g>
</g>
</svg>
