<?xml version="1.0" encoding="utf-8"?>
<!-- Generator: Adobe Illustrator 16.0.0, SVG Export Plug-In . SVG Version: 6.00 Build 0)  -->
<!DOCTYPE svg PUBLIC "-//W3C//DTD SVG 1.1//EN" "http://www.w3.org/Graphics/SVG/1.1/DTD/svg11.dtd">
<svg version="1.1" id="Layer_1" xmlns="http://www.w3.org/2000/svg" xmlns:xlink="http://www.w3.org/1999/xlink" x="0px" y="0px"
	 width="100px" height="100px" viewBox="0 0 100 100" enable-background="new 0 0 100 100" xml:space="preserve">
<path d="M77.135,51.121H68.34l-3.004-20.668h3.635c1.291,0,2.338-1.046,2.338-2.337c0-1.29-1.047-2.337-2.338-2.337H40.414
	c-0.014,0-0.025,0-0.037,0h-7.471c-1.291,0-2.338,1.047-2.338,2.337c0,1.291,1.047,2.337,2.338,2.337h4.777l-3.58,20.668h-9.359
	c-1.291,0-2.338,1.047-2.338,2.337c0,1.291,1.047,2.337,2.338,2.337h8.551l-2.691,15.54c-0.221,1.272,0.631,2.481,1.904,2.701
	c0.135,0.024,0.268,0.035,0.4,0.035c1.115,0,2.104-0.803,2.301-1.938l2.83-16.338h26.256l2.363,16.275
	c0.17,1.162,1.168,2.001,2.311,2.001c0.111,0,0.225-0.008,0.338-0.024c1.277-0.186,2.162-1.371,1.977-2.649l-2.266-15.603h8.117
	c1.291,0,2.336-1.046,2.336-2.337C79.471,52.168,78.426,51.121,77.135,51.121z M38.848,51.121l3.58-20.668h18.186l3.002,20.668
	H38.848z"/>
</svg>
