<?xml version="1.0" encoding="utf-8"?>
<!-- Generator: Adobe Illustrator 16.0.0, SVG Export Plug-In . SVG Version: 6.00 Build 0)  -->
<!DOCTYPE svg PUBLIC "-//W3C//DTD SVG 1.1//EN" "http://www.w3.org/Graphics/SVG/1.1/DTD/svg11.dtd">
<svg version="1.1" id="Layer_1" xmlns="http://www.w3.org/2000/svg" xmlns:xlink="http://www.w3.org/1999/xlink" x="0px" y="0px"
	 width="100px" height="100px" viewBox="0 0 100 100" enable-background="new 0 0 100 100" xml:space="preserve">
<g>
	<g>
		<path d="M74.154,78.038h-4.674c-1.291,0-2.337-1.046-2.337-2.337s1.046-2.337,2.337-2.337h2.337v-2.337
			c0-1.29,1.046-2.337,2.337-2.337s2.337,1.047,2.337,2.337v4.674C76.491,76.992,75.445,78.038,74.154,78.038z"/>
	</g>
	<g>
		<path d="M57.874,78.038H46.268c-1.291,0-2.337-1.046-2.337-2.337s1.046-2.337,2.337-2.337h11.605c1.291,0,2.337,1.047,2.337,2.337
			S59.165,78.038,57.874,78.038z"/>
	</g>
	<g>
		<path d="M34.662,78.038h-4.674c-1.291,0-2.337-1.046-2.337-2.337v-4.674c0-1.29,1.046-2.337,2.337-2.337s2.337,1.047,2.337,2.337
			v2.337h2.337c1.291,0,2.337,1.047,2.337,2.337S35.953,78.038,34.662,78.038z"/>
	</g>
	<g>
		<path d="M29.988,61.759c-1.291,0-2.337-1.046-2.337-2.337V47.817c0-1.291,1.046-2.337,2.337-2.337s2.337,1.047,2.337,2.337v11.605
			C32.325,60.712,31.279,61.759,29.988,61.759z"/>
	</g>
	<g>
		<path d="M29.988,38.547c-1.291,0-2.337-1.047-2.337-2.337v-4.674c0-1.291,1.046-2.337,2.337-2.337h4.674
			c1.291,0,2.337,1.047,2.337,2.337c0,1.29-1.046,2.337-2.337,2.337h-2.337v2.337C32.325,37.5,31.279,38.547,29.988,38.547z"/>
	</g>
	<g>
		<path d="M57.874,33.873H46.268c-1.291,0-2.337-1.047-2.337-2.337c0-1.291,1.046-2.337,2.337-2.337h11.605
			c1.291,0,2.337,1.047,2.337,2.337C60.211,32.826,59.165,33.873,57.874,33.873z"/>
	</g>
	<g>
		<path d="M74.154,38.547c-1.291,0-2.337-1.047-2.337-2.337v-2.337h-2.337c-1.291,0-2.337-1.047-2.337-2.337
			c0-1.291,1.046-2.337,2.337-2.337h4.674c1.291,0,2.337,1.047,2.337,2.337v4.674C76.491,37.5,75.445,38.547,74.154,38.547z"/>
	</g>
	<g>
		<path d="M74.154,61.757c-1.291,0-2.337-1.047-2.337-2.337V47.815c0-1.291,1.046-2.337,2.337-2.337s2.337,1.047,2.337,2.337V59.42
			C76.491,60.71,75.445,61.757,74.154,61.757z"/>
	</g>
</g>
</svg>
