<?xml version="1.0" encoding="utf-8"?>
<!-- Generator: Adobe Illustrator 16.0.0, SVG Export Plug-In . SVG Version: 6.00 Build 0)  -->
<!DOCTYPE svg PUBLIC "-//W3C//DTD SVG 1.1//EN" "http://www.w3.org/Graphics/SVG/1.1/DTD/svg11.dtd">
<svg version="1.1" id="Layer_1" xmlns="http://www.w3.org/2000/svg" xmlns:xlink="http://www.w3.org/1999/xlink" x="0px" y="0px"
	 width="100px" height="100px" viewBox="0 0 100 100" enable-background="new 0 0 100 100" xml:space="preserve">
<path d="M68.737,51.191c-0.833-0.833-2.184-0.833-3.017,0l-1.335,1.335v-9.395c0-5.794-9.159-8.92-17.777-8.92
	s-17.777,3.126-17.777,8.92v14.546c0,1.178,0.955,2.133,2.133,2.133c1.179,0,2.133-0.955,2.133-2.133V43.131
	c0-1.579,4.769-4.653,13.511-4.653c8.122,0,13.511,2.801,13.511,4.653v9.397l-1.693-1.693c-0.833-0.833-2.183-0.833-3.017,0
	c-0.833,0.833-0.833,2.184,0,3.017l6.842,6.842l1.5-1.5c0.005-0.007,0.011-0.013,0.017-0.019l4.968-4.968
	C69.57,53.375,69.57,52.024,68.737,51.191z"/>
</svg>
