<?xml version="1.0" encoding="utf-8"?>
<!-- Generator: Adobe Illustrator 16.0.0, SVG Export Plug-In . SVG Version: 6.00 Build 0)  -->
<!DOCTYPE svg PUBLIC "-//W3C//DTD SVG 1.1//EN" "http://www.w3.org/Graphics/SVG/1.1/DTD/svg11.dtd">
<svg version="1.1" id="Layer_1" xmlns="http://www.w3.org/2000/svg" xmlns:xlink="http://www.w3.org/1999/xlink" x="0px" y="0px"
	 width="100px" height="100px" viewBox="0 0 100 100" enable-background="new 0 0 100 100" xml:space="preserve">
<g>
	<path d="M46.578,28.378H22.378c-2.495,0-4.525,1.985-4.525,4.427V79.62c0,2.44,2.03,4.426,4.525,4.426h24.199
		c2.496,0,4.525-1.985,4.525-4.426V32.805C51.103,30.364,49.074,28.378,46.578,28.378z M48.103,79.62
		c0,0.786-0.684,1.426-1.525,1.426H22.378c-0.841,0-1.525-0.64-1.525-1.426v-7.074h27.25V79.62z M48.103,34.712h-27.25v-1.907
		c0-0.787,0.685-1.427,1.525-1.427h24.199c0.842,0,1.525,0.64,1.525,1.427V34.712z"/>
	<circle cx="34.478" cy="76.4" r="3.063"/>
	<path d="M87.373,18.961H42.375c-2.665,0-4.835,2.169-4.835,4.835v3.581h4v-3.581c0-0.46,0.375-0.835,0.835-0.835h44.997
		c0.461,0,0.835,0.375,0.835,0.835v28.997c0,0.46-0.374,0.835-0.835,0.835H52.57v4h10.305v1.75H57c-1.104,0-2,0.897-2,2s0.896,2,2,2
		h15.625c1.103,0,2-0.897,2-2s-0.897-2-2-2h-5.75v-1.75h20.498c2.666,0,4.835-2.169,4.835-4.835V23.796
		C92.208,21.13,90.039,18.961,87.373,18.961z"/>
</g>
</svg>
