<?xml version="1.0" encoding="utf-8"?>
<!-- Generator: Adobe Illustrator 16.0.0, SVG Export Plug-In . SVG Version: 6.00 Build 0)  -->
<!DOCTYPE svg PUBLIC "-//W3C//DTD SVG 1.1//EN" "http://www.w3.org/Graphics/SVG/1.1/DTD/svg11.dtd">
<svg version="1.1" id="Layer_1" xmlns="http://www.w3.org/2000/svg" xmlns:xlink="http://www.w3.org/1999/xlink" x="0px" y="0px"
	 width="100px" height="100px" viewBox="0 0 100 100" enable-background="new 0 0 100 100" xml:space="preserve">
<g>
	<path d="M51.622,42.025c-2.284,0-4.142,1.857-4.142,4.143v3.541h8.283v-3.541C55.764,43.883,53.905,42.025,51.622,42.025z"/>
	<path d="M51.623,24.025c-15.358,0-27.851,12.494-27.851,27.852s12.492,27.852,27.851,27.852c15.355,0,27.851-12.494,27.851-27.852
		S66.979,24.025,51.623,24.025z M60.562,62.941c0,0.67-0.543,1.211-1.213,1.211H43.894c-0.669,0-1.211-0.541-1.211-1.211v-12.02
		c0-0.67,0.542-1.213,1.211-1.213h1.163v-3.541c0-3.621,2.946-6.564,6.565-6.564c3.618,0,6.563,2.943,6.563,6.564v3.541h1.163
		c0.67,0,1.213,0.543,1.213,1.213V62.941z"/>
</g>
</svg>
