<?xml version="1.0" encoding="utf-8"?>
<!-- Generator: Adobe Illustrator 16.0.0, SVG Export Plug-In . SVG Version: 6.00 Build 0)  -->
<!DOCTYPE svg PUBLIC "-//W3C//DTD SVG 1.1//EN" "http://www.w3.org/Graphics/SVG/1.1/DTD/svg11.dtd">
<svg version="1.1" id="Layer_1" xmlns="http://www.w3.org/2000/svg" xmlns:xlink="http://www.w3.org/1999/xlink" x="0px" y="0px"
	 width="100px" height="100px" viewBox="0 0 100 100" enable-background="new 0 0 100 100" xml:space="preserve">
<g>
	<path d="M72.979,48.643c0-5.324-2.073-10.331-5.838-14.096c-3.767-3.766-8.771-5.839-14.098-5.839
		c-5.325,0-10.33,2.073-14.097,5.839c-6.495,6.496-7.676,16.391-3.091,24.163l-7.089,7.085c-0.406,0.407-0.635,0.959-0.635,1.533
		s0.229,1.127,0.635,1.533l4.057,4.057c0.424,0.423,0.979,0.635,1.533,0.635c0.556,0,1.109-0.212,1.533-0.635l7.088-7.087
		c3.049,1.794,6.503,2.735,10.091,2.735h0.002c5.314,0,10.312-2.071,14.068-5.828C70.903,58.974,72.979,53.968,72.979,48.643z
		 M41.154,61.523l-6.798,6.797l-0.989-0.991l6.796-6.796c0.753-0.751,0.849-1.938,0.228-2.801c-1.496-2.078-2.404-4.404-2.769-6.782
		l13.105,13.104c-2.439-0.365-4.747-1.299-6.772-2.757C43.091,60.673,41.905,60.769,41.154,61.523z"/>
	<path d="M71.432,63.617c-2.741,0-4.969,2.229-4.969,4.969c0,2.739,2.228,4.968,4.969,4.968c2.738,0,4.969-2.229,4.969-4.968
		C76.4,65.845,74.17,63.617,71.432,63.617z"/>
</g>
</svg>
