<?xml version="1.0" encoding="utf-8"?>
<!-- Generator: Adobe Illustrator 16.0.0, SVG Export Plug-In . SVG Version: 6.00 Build 0)  -->
<!DOCTYPE svg PUBLIC "-//W3C//DTD SVG 1.1//EN" "http://www.w3.org/Graphics/SVG/1.1/DTD/svg11.dtd">
<svg version="1.1" id="Layer_1" xmlns="http://www.w3.org/2000/svg" xmlns:xlink="http://www.w3.org/1999/xlink" x="0px" y="0px"
	 width="100px" height="100px" viewBox="0 0 100 100" enable-background="new 0 0 100 100" xml:space="preserve">
<g>
	<path d="M67.505,49.43c-5.358,0-9.716,4.357-9.716,9.714c0,5.357,4.357,9.715,9.716,9.715c5.354,0,9.712-4.357,9.712-9.715
		C77.217,53.787,72.859,49.43,67.505,49.43z"/>
	<path d="M41.233,49.43c-5.355,0-9.713,4.357-9.713,9.714c0,5.357,4.357,9.715,9.713,9.715c5.356,0,9.714-4.357,9.714-9.715
		C50.947,53.787,46.589,49.43,41.233,49.43z"/>
	<path d="M51.153,45.848l2.049-2.265l3.328,4.087c0.441,0.54,1.104,0.854,1.803,0.854h6.781c1.284,0,2.326-1.04,2.326-2.323
		c0-1.285-1.042-2.325-2.326-2.325h-5.675l-4.341-5.326c-0.429-0.525-1.064-0.839-1.742-0.855c-0.672-0.057-1.328,0.26-1.784,0.763
		l-5.424,5.989c-0.86,0.951-0.79,2.42,0.159,3.282l5.632,5.119V61.7c0,1.285,1.042,2.325,2.326,2.325
		c1.283,0,2.324-1.04,2.324-2.325v-9.881c0-0.655-0.276-1.279-0.761-1.722L51.153,45.848z"/>
	<circle cx="61.55" cy="36.688" r="2.986"/>
</g>
</svg>
