<?xml version="1.0" encoding="utf-8"?>
<!-- Generator: Adobe Illustrator 16.0.0, SVG Export Plug-In . SVG Version: 6.00 Build 0)  -->
<!DOCTYPE svg PUBLIC "-//W3C//DTD SVG 1.1//EN" "http://www.w3.org/Graphics/SVG/1.1/DTD/svg11.dtd">
<svg version="1.1" id="Layer_1" xmlns="http://www.w3.org/2000/svg" xmlns:xlink="http://www.w3.org/1999/xlink" x="0px" y="0px"
	 width="100px" height="100px" viewBox="0 0 100 100" enable-background="new 0 0 100 100" xml:space="preserve">
<g>
	<path d="M56.666,51.108v6.566c0,1.188-0.963,2.15-2.151,2.15s-2.15-0.963-2.15-2.15v-6.566c-2.772,0.911-4.792,3.494-4.792,6.566
		c0,3.827,3.114,6.941,6.942,6.941c3.827,0,6.94-3.114,6.94-6.941C61.455,54.603,59.436,52.02,56.666,51.108z"/>
	<path d="M78.854,74.124l-5.836-31.88c-0.188-1.021-1.078-1.763-2.116-1.763H57.338v-2.434h17.605c1.188,0,2.15-0.964,2.15-2.15
		v-8.979c0-1.188-0.962-2.152-2.15-2.152s-2.151,0.964-2.151,2.152v6.828H37.582v-6.828c0-1.188-0.962-2.152-2.149-2.152
		c-1.188,0-2.151,0.964-2.151,2.152v8.979c0,1.187,0.963,2.15,2.151,2.15h17.604v2.434H37.902c-1.045,0-1.938,0.75-2.119,1.778
		L30.17,74.139c-0.11,0.626,0.063,1.269,0.471,1.755c0.409,0.487,1.013,0.769,1.648,0.769h44.45c0.64,0,1.243-0.282,1.652-0.773
		C78.799,75.398,78.97,74.752,78.854,74.124z M54.514,68.918c-6.2,0-11.244-5.045-11.244-11.243c0-6.2,5.044-11.243,11.244-11.243
		c6.198,0,11.242,5.043,11.242,11.243C65.756,63.873,60.712,68.918,54.514,68.918z"/>
</g>
</svg>
