<?xml version="1.0" encoding="utf-8"?>
<!-- Generator: Adobe Illustrator 16.0.0, SVG Export Plug-In . SVG Version: 6.00 Build 0)  -->
<!DOCTYPE svg PUBLIC "-//W3C//DTD SVG 1.1//EN" "http://www.w3.org/Graphics/SVG/1.1/DTD/svg11.dtd">
<svg version="1.1" id="Layer_1" xmlns="http://www.w3.org/2000/svg" xmlns:xlink="http://www.w3.org/1999/xlink" x="0px" y="0px"
	 width="100px" height="100px" viewBox="0 0 100 100" enable-background="new 0 0 100 100" xml:space="preserve">
<path d="M79.802,40.716c-0.366-1.118-1.95-2.933-2.666-3.715c-0.077-0.077-0.157-0.149-0.24-0.22l-1.062,1.231l0.913-1.363
	c-0.081-0.076-0.165-0.149-0.228-0.2c-0.099-0.084-0.203-0.16-0.306-0.235l-0.955,1.316l0.827-1.41
	c-0.096-0.073-0.19-0.144-0.312-0.226c-0.101-0.065-0.204-0.125-0.306-0.185l-0.823,1.402l0.695-1.48
	c-0.096-0.06-0.193-0.12-0.313-0.186c-0.098-0.052-0.449-0.217-0.449-0.217c-0.115-0.059-0.233-0.115-0.345-0.161
	c-0.12-0.05-0.244-0.093-0.369-0.139l-0.537,1.535l0.383-1.59c-0.109-0.041-0.217-0.081-0.306-0.108
	c-0.126-0.039-0.258-0.073-0.386-0.103c0,0-0.426-0.109-0.479-0.118c-0.166-0.035-0.334-0.06-0.502-0.082
	c0,0-0.344-0.054-0.42-0.061c-0.308-0.031-0.619-0.047-0.938-0.047H45.357c-1.464-3.275-4.696-5.401-8.382-5.401h-7.189
	c-0.316,0-0.63,0.016-0.944,0.049c-0.097,0.01-0.189,0.025-0.401,0.059c-0.164,0.021-0.324,0.044-0.48,0.074
	c-0.107,0.021-0.212,0.049-0.317,0.077l0.434,1.568l-0.581-1.53c-0.139,0.033-0.279,0.069-0.43,0.114
	c-0.1,0.032-0.195,0.066-0.292,0.104l0.574,1.52l-0.79-1.442c-0.109,0.038-0.216,0.077-0.341,0.129
	c-0.096,0.04-0.191,0.086-0.285,0.132l0.716,1.459l-0.904-1.37c-0.107,0.05-0.217,0.101-0.331,0.164l-0.337,0.2
	c0,0-0.318,0.192-0.399,0.249c-0.104,0.068-0.204,0.144-0.401,0.291c-0.101,0.073-0.2,0.146-0.316,0.239
	c-0.081,0.067-0.372,0.331-0.372,0.331c-0.086,0.075-0.173,0.15-0.311,0.292c-0.664,0.734-2.244,2.563-2.61,3.684
	c-0.23,0.704-0.173,1.944-0.082,2.892v29.21c0,5.074,4.129,9.202,9.203,9.202h40.895c5.075,0,9.203-4.128,9.203-9.202v-23.81
	C79.979,42.677,80.036,41.424,79.802,40.716z M43.325,39.875h27.355c0.25,0,0.497,0.025,0.742,0.075
	c1.396,0.287,2.479,1.36,2.823,2.696h-48.14v-4.492c0-2.029,1.651-3.68,3.68-3.68h7.189c1.809,0,3.333,1.296,3.624,3.081
	C40.817,38.898,41.964,39.875,43.325,39.875z"/>
</svg>
