<?xml version="1.0" encoding="utf-8"?>
<!-- Generator: Adobe Illustrator 16.0.0, SVG Export Plug-In . SVG Version: 6.00 Build 0)  -->
<!DOCTYPE svg PUBLIC "-//W3C//DTD SVG 1.1//EN" "http://www.w3.org/Graphics/SVG/1.1/DTD/svg11.dtd">
<svg version="1.1" id="Layer_1" xmlns="http://www.w3.org/2000/svg" xmlns:xlink="http://www.w3.org/1999/xlink" x="0px" y="0px"
	 width="100px" height="100px" viewBox="0 0 100 100" enable-background="new 0 0 100 100" xml:space="preserve">
<g>
	<path d="M48.801,70.443c-0.799,0-1.6-0.305-2.211-0.916l-17.578-17.58c-1.221-1.221-1.221-3.199,0-4.42
		c1.219-1.223,3.201-1.223,4.422,0l15.367,15.369l24.621-24.621v-8.068c0-1.295-1.049-2.344-2.344-2.344H21.461
		c-1.295,0-2.346,1.049-2.346,2.344v49.617c0,1.295,1.051,2.346,2.346,2.346h49.617c1.295,0,2.344-1.051,2.344-2.346V47.119
		l-22.41,22.408C50.402,70.139,49.602,70.443,48.801,70.443z"/>
	<path d="M84.514,31.605c-1.221-1.221-3.203-1.221-4.42,0l-6.672,6.67v8.844l11.092-11.092
		C85.736,34.807,85.736,32.828,84.514,31.605z"/>
</g>
</svg>
