<?xml version="1.0" encoding="utf-8"?>
<!-- Generator: Adobe Illustrator 16.0.0, SVG Export Plug-In . SVG Version: 6.00 Build 0)  -->
<!DOCTYPE svg PUBLIC "-//W3C//DTD SVG 1.1//EN" "http://www.w3.org/Graphics/SVG/1.1/DTD/svg11.dtd">
<svg version="1.1" id="Layer_1" xmlns="http://www.w3.org/2000/svg" xmlns:xlink="http://www.w3.org/1999/xlink" x="0px" y="0px"
	 width="100px" height="100px" viewBox="0 0 100 100" enable-background="new 0 0 100 100" xml:space="preserve">
<g>
	<path d="M79.823,44.694h-4.282c-0.039-0.031-0.07-0.066-0.112-0.097L56.907,31.812c-0.738-0.51-1.717-0.508-2.453,0.007
		L36.01,44.694h-4.94c-1.188,0-2.151,0.963-2.151,2.15c0,1.188,0.963,2.15,2.151,2.15h9.475v1.971h1.907v12.13h-1.907v2.868h6.683
		v-2.868h-1.908v-12.13h1.908v-1.971h1.203v1.971h1.907v12.13H48.43v2.868h6.683v-2.868h-1.907v-12.13h1.907v-1.971h0.846v1.971
		h1.907v12.13h-1.907v2.868h6.683v-2.868h-1.907v-12.13h1.907v-1.971h1.024v1.971h1.907v12.13h-1.907v2.868h6.683v-2.868h-1.907
		v-12.13h1.907v-1.971h9.475c1.187,0,2.15-0.962,2.15-2.15C81.973,45.657,81.009,44.694,79.823,44.694z"/>
	<path d="M74.207,66.828H35.671c-1.188,0-2.151,0.964-2.151,2.151c0,1.187,0.963,2.15,2.151,2.15h38.535
		c1.188,0,2.15-0.964,2.15-2.15C76.357,67.792,75.395,66.828,74.207,66.828z"/>
</g>
</svg>
