<?xml version="1.0" encoding="utf-8"?>
<!-- Generator: Adobe Illustrator 16.0.0, SVG Export Plug-In . SVG Version: 6.00 Build 0)  -->
<!DOCTYPE svg PUBLIC "-//W3C//DTD SVG 1.1//EN" "http://www.w3.org/Graphics/SVG/1.1/DTD/svg11.dtd">
<svg version="1.1" id="Layer_1" xmlns="http://www.w3.org/2000/svg" xmlns:xlink="http://www.w3.org/1999/xlink" x="0px" y="0px"
	 width="100px" height="100px" viewBox="0 0 100 100" enable-background="new 0 0 100 100" xml:space="preserve">
<g>
	<path d="M81.172,71.194H58.89v-1.368c0-1.295-1.049-2.345-2.345-2.345H43.842c-1.295,0-2.345,1.05-2.345,2.345v1.368H19.216
		c-1.727,0-3.127,1.399-3.127,3.126c0,1.728,1.4,3.127,3.127,3.127h22.281v1.369c0,1.294,1.05,2.344,2.345,2.344h12.702
		c1.296,0,2.345-1.05,2.345-2.344v-1.369h22.282c1.727,0,3.127-1.399,3.127-3.127C84.299,72.594,82.898,71.194,81.172,71.194z
		 M54.199,72.172v4.299h-8.012v-4.299H54.199z"/>
	<g>
		<path d="M70.879,44.373h-41.37v6.449h41.37V44.373z M34.264,49.16h-3.127v-3.126h3.127V49.16z M38.954,49.16h-3.127v-3.126h3.127
			V49.16z M43.644,49.16h-3.126v-3.126h3.126V49.16z"/>
		<path d="M70.879,28.739h-41.37v6.448h41.37V28.739z M34.264,33.527h-3.127V30.4h3.127V33.527z M38.954,33.527h-3.127V30.4h3.127
			V33.527z M43.644,33.527h-3.126V30.4h3.126V33.527z"/>
		<path d="M79.17,15.979H21.219c-0.824,0-1.615,0.328-2.195,0.91c-0.582,0.582-0.91,1.373-0.91,2.195v41.395
			c0,0.856,0.348,1.633,0.91,2.195c0.56,0.562,1.337,0.91,2.195,0.91H79.17c0.824,0,1.612-0.328,2.195-0.91
			c0.58-0.584,0.909-1.374,0.909-2.195V19.084C82.274,17.37,80.886,15.979,79.17,15.979z M74.005,53.949H26.383V41.246h47.623
			V53.949z M74.005,38.314H26.383V25.613h47.623V38.314z"/>
	</g>
</g>
</svg>
