<?xml version="1.0" encoding="utf-8"?>
<!-- Generator: Adobe Illustrator 16.0.0, SVG Export Plug-In . SVG Version: 6.00 Build 0)  -->
<!DOCTYPE svg PUBLIC "-//W3C//DTD SVG 1.1//EN" "http://www.w3.org/Graphics/SVG/1.1/DTD/svg11.dtd">
<svg version="1.1" id="Layer_1" xmlns="http://www.w3.org/2000/svg" xmlns:xlink="http://www.w3.org/1999/xlink" x="0px" y="0px"
	 width="100px" height="100px" viewBox="0 0 100 100" enable-background="new 0 0 100 100" xml:space="preserve">
<g>
	<path d="M22.681,49.551c-1.523,0-2.762,1.239-2.762,2.762c0,1.521,1.238,2.76,2.762,2.76h11.628v-5.522H22.681z"/>
	<path d="M74.562,27.585H43.515c-5.076,0-9.206,4.128-9.206,9.203v0.288v12.474h24.878l-5.321-5.321
		c-1.075-1.077-1.075-2.829,0-3.906c0.521-0.521,1.214-0.809,1.952-0.809c0.74,0,1.432,0.288,1.955,0.809l10.034,10.036
		c0.252,0.251,0.452,0.548,0.594,0.885c0.148,0.363,0.216,0.713,0.216,1.069c0,0.355-0.067,0.705-0.205,1.042
		c-0.148,0.354-0.346,0.65-0.597,0.905L57.772,64.301c-0.524,0.521-1.218,0.808-1.955,0.808c-0.736,0-1.432-0.287-1.952-0.808
		c-1.075-1.08-1.075-2.831,0-3.907l5.321-5.321H34.309v3.021v5.546v4.196c0,5.073,4.13,9.201,9.206,9.201h31.047
		c5.075,0,9.203-4.128,9.203-9.201V36.789C83.765,31.713,79.637,27.585,74.562,27.585z"/>
</g>
</svg>
