<?xml version="1.0" encoding="utf-8"?>
<!-- Generator: Adobe Illustrator 16.0.0, SVG Export Plug-In . SVG Version: 6.00 Build 0)  -->
<!DOCTYPE svg PUBLIC "-//W3C//DTD SVG 1.1//EN" "http://www.w3.org/Graphics/SVG/1.1/DTD/svg11.dtd">
<svg version="1.1" id="Layer_1" xmlns="http://www.w3.org/2000/svg" xmlns:xlink="http://www.w3.org/1999/xlink" x="0px" y="0px"
	 width="100px" height="100px" viewBox="0 0 100 100" enable-background="new 0 0 100 100" xml:space="preserve">
<g>
	<path d="M61.315,49.525c-0.158-0.071-0.32-0.162-0.438-0.251l-6.407-4.827v2.44c0,1.188-0.956,2.154-2.143,2.168
		c-5.446,0.063-9.546,1.645-12.188,4.696c-1.465,1.691-2.349,3.66-2.875,5.549c4.421-3.755,10.019-4.288,12.832-4.288
		c1.467,0,2.418,0.134,2.522,0.148c1.064,0.156,1.852,1.069,1.852,2.146v3.341l10.833-8.037l-3.612-2.722
		C61.551,49.783,61.426,49.66,61.315,49.525z M56.11,57.391v-0.084c0-1.875-1.397-3.494-3.277-3.771
		c-0.359-0.05-1.341-0.162-2.736-0.162c-2.097,0-5.469,0.272-8.908,1.677c0.062-0.076,0.125-0.151,0.19-0.226
		c2.322-2.684,6.013-4.072,10.969-4.131c1.806-0.021,3.318-1.318,3.68-3.021l3.859,2.907c0.138,0.104,0.285,0.196,0.422,0.272
		c0.126,0.126,0.258,0.241,0.397,0.345l1.862,1.403L56.11,57.391z"/>
	<path d="M71.216,49.584l-5.388-4.06c-0.446-0.538-1.029-0.977-1.737-1.312l-9.498-7.156c-0.655-0.493-1.47-0.766-2.291-0.766
		c-0.586,0-1.172,0.139-1.697,0.4c-1.3,0.647-2.109,1.953-2.109,3.407v3.245c-5.433,0.718-9.759,2.9-12.875,6.497
		c-6.222,7.188-4.976,17.351-4.919,17.784c0.231,1.738,1.61,3.09,3.365,3.284c0.137,0.014,0.275,0.021,0.411,0.021
		c1.588,0,3.023-1.003,3.572-2.494c1.982-5.396,6.479-7.056,10.445-7.383v3.901c0,1.447,0.802,2.75,2.095,3.4
		c0.529,0.267,1.121,0.406,1.712,0.406c0.823,0,1.606-0.258,2.268-0.749l16.622-12.331c0.958-0.711,1.535-1.85,1.539-3.042
		C72.738,51.445,72.17,50.304,71.216,49.584z M70.217,54.366L53.595,66.697c-0.659,0.488-1.535,0.563-2.267,0.194
		c-0.731-0.368-1.193-1.118-1.193-1.937v-5.606c-0.013,0-0.025,0-0.038,0c-3.904,0-10.86,1.106-13.584,8.522
		c-0.316,0.86-1.135,1.42-2.034,1.42c-0.079,0-0.16-0.004-0.24-0.012c-0.991-0.11-1.78-0.883-1.911-1.871
		c-0.052-0.399-1.228-9.84,4.534-16.495c3.111-3.592,7.57-5.638,13.274-6.096v-4.719c0-0.821,0.464-1.574,1.202-1.941
		c0.734-0.365,1.615-0.285,2.271,0.209l9.642,7.266c0.688,0.296,1.135,0.679,1.423,1.072l5.557,4.188
		c0.546,0.412,0.867,1.057,0.864,1.74S70.766,53.958,70.217,54.366z"/>
</g>
</svg>
