<?xml version="1.0" encoding="utf-8"?>
<!-- Generator: Adobe Illustrator 16.0.0, SVG Export Plug-In . SVG Version: 6.00 Build 0)  -->
<!DOCTYPE svg PUBLIC "-//W3C//DTD SVG 1.1//EN" "http://www.w3.org/Graphics/SVG/1.1/DTD/svg11.dtd">
<svg version="1.1" id="Layer_1" xmlns="http://www.w3.org/2000/svg" xmlns:xlink="http://www.w3.org/1999/xlink" x="0px" y="0px"
	 width="100px" height="100px" viewBox="0 0 100 100" enable-background="new 0 0 100 100" xml:space="preserve">
<g>
	<path d="M59.005,39.73c-2.305,0-4.173,1.868-4.173,4.171c0,2.304,1.868,4.17,4.173,4.17c2.302,0,4.17-1.866,4.17-4.17
		C63.175,41.599,61.307,39.73,59.005,39.73z"/>
	<path d="M80.349,47.281c-7.434-10.435-15.641-15.727-24.394-15.727c-14.771,0-25.293,15.115-25.735,15.759
		c-0.549,0.8-0.492,1.87,0.139,2.609c8.106,9.53,16.616,14.362,25.292,14.362c14.783,0,24.334-13.962,24.731-14.556
		C80.882,48.985,80.87,48.011,80.349,47.281z M55.296,58.27c-5.717,0-10.351-4.634-10.351-10.351s4.634-10.351,10.351-10.351
		s10.351,4.634,10.351,10.351S61.013,58.27,55.296,58.27z"/>
</g>
</svg>
