<?xml version="1.0" encoding="utf-8"?>
<!-- Generator: Adobe Illustrator 16.0.0, SVG Export Plug-In . SVG Version: 6.00 Build 0)  -->
<!DOCTYPE svg PUBLIC "-//W3C//DTD SVG 1.1//EN" "http://www.w3.org/Graphics/SVG/1.1/DTD/svg11.dtd">
<svg version="1.1" id="Layer_1" xmlns="http://www.w3.org/2000/svg" xmlns:xlink="http://www.w3.org/1999/xlink" x="0px" y="0px"
	 width="100px" height="100px" viewBox="0 0 100 100" enable-background="new 0 0 100 100" xml:space="preserve">
<g>
	<path d="M58.136,30.085l5.321,5.322c1.075,1.072,2.825,1.072,3.909-0.005c0.518-0.523,0.804-1.214,0.804-1.951
		c0-0.737-0.286-1.429-0.809-1.953L57.34,21.479c-0.255-0.26-0.557-0.466-0.93-0.622c-0.336-0.135-0.686-0.202-1.039-0.202
		c-0.355,0-0.706,0.067-1.056,0.21c-0.348,0.143-0.655,0.35-0.896,0.6L43.382,31.5c-0.521,0.521-0.81,1.215-0.81,1.953
		c0,0.736,0.289,1.431,0.812,1.956c1.077,1.071,2.824,1.071,3.904-0.001l5.321-5.321v27.725h5.526V30.085z"/>
	<path d="M74.937,57.811h-0.362H58.136v3.042c0,1.524-1.241,2.765-2.765,2.765c-1.521,0-2.762-1.24-2.762-2.765v-3.042H36.167h-0.36
		h-5.164v8.17c0,5.074,4.131,9.202,9.205,9.202h31.047c5.075,0,9.205-4.128,9.205-9.202v-8.17H74.937z"/>
</g>
</svg>
