<?xml version="1.0" encoding="utf-8"?>
<!-- Generator: Adobe Illustrator 16.0.0, SVG Export Plug-In . SVG Version: 6.00 Build 0)  -->
<!DOCTYPE svg PUBLIC "-//W3C//DTD SVG 1.1//EN" "http://www.w3.org/Graphics/SVG/1.1/DTD/svg11.dtd">
<svg version="1.1" id="Layer_1" xmlns="http://www.w3.org/2000/svg" xmlns:xlink="http://www.w3.org/1999/xlink" x="0px" y="0px"
	 width="100px" height="100px" viewBox="0 0 100 100" enable-background="new 0 0 100 100" xml:space="preserve">
<g>
	<path d="M48.709,53.148c-3.227,0-6.034,1.823-7.453,4.492c2.242,1.14,4.77,1.797,7.453,1.797c0.578,0,1.15-0.031,1.714-0.09
		c-0.034-0.402-0.063-0.806-0.063-1.218c0-1.618,0.287-3.167,0.79-4.617C50.377,53.276,49.557,53.148,48.709,53.148z"/>
	<path d="M48.709,63.738c-2.997,0-5.843-0.65-8.421-1.795c0.189,4.488,3.889,8.083,8.421,8.083c2.145,0,4.097-0.809,5.586-2.131
		c-1.201-1.257-2.177-2.728-2.853-4.356C50.546,63.655,49.638,63.738,48.709,63.738z"/>
	<path d="M64.318,48.288c-0.182,0.004-0.361,0.014-0.54,0.028c0.156,0.056,0.309,0.117,0.469,0.166
		C64.271,48.416,64.297,48.353,64.318,48.288z"/>
	<path d="M64.514,43.976c0.225,0,0.443,0.023,0.664,0.033c0.025-0.365,0.057-0.728,0.057-1.098c0-4.854-2.114-9.211-5.455-12.236
		c-1.928,1.939-3.12,4.609-3.12,7.551c0,2.591,0.925,4.97,2.457,6.826C60.782,44.361,62.602,43.976,64.514,43.976z"/>
	<path d="M54.926,55.902c-0.166,0.716-0.264,1.459-0.264,2.226c0,0.061,0.009,0.118,0.01,0.177c0.509-0.197,1.007-0.418,1.49-0.664
		C55.824,57.006,55.407,56.426,54.926,55.902z"/>
	<path d="M53.189,49.675c0.656-0.875,1.401-1.68,2.238-2.384c-1.916-2.523-3.07-5.658-3.07-9.065c0-3.851,1.469-7.358,3.858-10.018
		c-2.253-1.157-4.802-1.823-7.507-1.823c-9.113,0-16.527,7.413-16.527,16.526c0,4.882,2.143,9.264,5.521,12.292
		c2.208-3.793,6.31-6.356,11.007-6.356C50.288,48.846,51.795,49.149,53.189,49.675z"/>
	<path d="M67.386,53.254c-0.204,0-0.403-0.022-0.605-0.03c-1.401,2.446-3.285,4.572-5.52,6.267c0.114,0.684,0.187,1.381,0.187,2.097
		c0,1.932-0.443,3.757-1.215,5.398c1.297,0.63,2.745,0.993,4.281,0.993c5.432,0,9.85-4.418,9.85-9.85c0-2.16-0.708-4.152-1.893-5.78
		C70.88,52.923,69.172,53.254,67.386,53.254z"/>
	<path d="M67.386,27.5c-1.378,0-2.693,0.269-3.904,0.746c3.739,3.768,6.055,8.95,6.055,14.665c0,0.664-0.039,1.319-0.1,1.967
		c1.438,0.537,2.771,1.29,3.944,2.238c2.852-1.929,4.73-5.194,4.73-8.89C78.111,32.311,73.3,27.5,67.386,27.5z"/>
	<path d="M56.743,64.161c0.226-0.704,0.353-1.448,0.386-2.217c-0.466,0.208-0.944,0.388-1.428,0.561
		C55.995,63.092,56.342,63.646,56.743,64.161z"/>
	<path d="M55.147,15.465c-17.896,0-32.454,14.559-32.454,32.454c0,17.894,14.559,32.455,32.454,32.455
		c17.894,0,32.452-14.561,32.452-32.455C87.6,30.024,73.041,15.465,55.147,15.465z M64.514,72.28c-2.449,0-4.754-0.627-6.765-1.727
		c-2.312,2.328-5.51,3.773-9.04,3.773c-7.024,0-12.74-5.714-12.74-12.74c0-0.715,0.072-1.413,0.188-2.097
		c-5.017-3.807-8.275-9.811-8.275-16.58c0-11.486,9.344-20.828,20.828-20.828c4.066,0,7.853,1.188,11.062,3.211
		c2.235-1.323,4.835-2.095,7.615-2.095c8.286,0,15.028,6.74,15.028,15.027c0,4.95-2.418,9.336-6.12,12.075
		c1.496,2.244,2.37,4.935,2.37,7.827C78.664,65.931,72.317,72.28,64.514,72.28z"/>
	<path d="M58.516,50.332c-0.585,0.451-1.125,0.959-1.596,1.529c1.114,0.943,2.058,2.074,2.796,3.341
		c0.953-0.854,1.813-1.813,2.548-2.866C60.913,51.844,59.656,51.168,58.516,50.332z"/>
</g>
</svg>
