<?xml version="1.0" encoding="utf-8"?>
<!-- Generator: Adobe Illustrator 16.0.0, SVG Export Plug-In . SVG Version: 6.00 Build 0)  -->
<!DOCTYPE svg PUBLIC "-//W3C//DTD SVG 1.1//EN" "http://www.w3.org/Graphics/SVG/1.1/DTD/svg11.dtd">
<svg version="1.1" id="Layer_1" xmlns="http://www.w3.org/2000/svg" xmlns:xlink="http://www.w3.org/1999/xlink" x="0px" y="0px"
	 width="100px" height="100px" viewBox="0 0 100 100" enable-background="new 0 0 100 100" xml:space="preserve">
<path d="M61.923,11.633H38.658c-5.004,0-9.076,5.5-9.076,12.259v49.356c0,6.758,4.072,12.259,9.076,12.259h23.266
	c5.005,0,9.077-5.501,9.077-12.259V23.892C71,17.133,66.928,11.633,61.923,11.633z M50.292,75.945c-1.653,0-2.994-1.339-2.994-2.992
	c0-1.654,1.341-2.992,2.994-2.992c1.652,0,2.992,1.338,2.992,2.992C53.284,74.606,51.943,75.945,50.292,75.945z"/>
</svg>
