<?xml version="1.0" encoding="utf-8"?>
<!-- Generator: Adobe Illustrator 16.0.0, SVG Export Plug-In . SVG Version: 6.00 Build 0)  -->
<!DOCTYPE svg PUBLIC "-//W3C//DTD SVG 1.1//EN" "http://www.w3.org/Graphics/SVG/1.1/DTD/svg11.dtd">
<svg version="1.1" id="Layer_1" xmlns="http://www.w3.org/2000/svg" xmlns:xlink="http://www.w3.org/1999/xlink" x="0px" y="0px"
	 width="100px" height="100px" viewBox="0 0 100 100" enable-background="new 0 0 100 100" xml:space="preserve">
<g>
	<path d="M37.664,43.83c-5.366,0-9.732,4.366-9.732,9.732c0,5.367,4.366,9.732,9.732,9.732c5.17,0,11.178-4.251,11.178-9.732
		C48.842,48.082,42.834,43.83,37.664,43.83z M37.664,61.656c-4.463,0-8.094-3.63-8.094-8.094c0-4.463,3.631-8.094,8.094-8.094
		c4.321,0,9.539,3.611,9.539,8.094C47.203,58.046,41.985,61.656,37.664,61.656z"/>
	<path d="M62.911,43.926c-5.366,0-9.732,4.366-9.732,9.732c0,5.367,4.366,9.732,9.732,9.732s9.732-4.365,9.732-9.732
		C72.644,48.292,68.277,43.926,62.911,43.926z M62.911,61.752c-4.464,0-8.094-3.63-8.094-8.094c0-4.463,3.63-8.093,8.094-8.093
		c4.463,0,8.094,3.63,8.094,8.093C71.005,58.122,67.374,61.752,62.911,61.752z"/>
	<path d="M62.911,37.951c-4.712,0-9.19,2.174-12.151,5.792c-3.339-3.586-8.348-5.888-13.096-5.888
		c-8.66,0-15.707,7.046-15.707,15.707s7.047,15.708,15.707,15.708c4.777,0,9.668-2.222,13.012-5.795
		c2.961,3.681,7.471,5.891,12.235,5.891c8.661,0,15.708-7.046,15.708-15.708C78.619,44.998,71.572,37.951,62.911,37.951z
		 M62.911,67.728c-5.167,0-9.679-2.808-12.125-6.969c-2.968,4.181-8.231,6.872-13.122,6.872c-7.758,0-14.068-6.311-14.068-14.068
		s6.311-14.068,14.068-14.068c4.926,0,10.23,2.729,13.188,6.959c2.458-4.103,6.938-6.863,12.06-6.863
		c7.758,0,14.068,6.312,14.068,14.068C76.979,61.416,70.669,67.728,62.911,67.728z"/>
</g>
</svg>
