<?xml version="1.0" encoding="utf-8"?>
<!-- Generator: Adobe Illustrator 16.0.0, SVG Export Plug-In . SVG Version: 6.00 Build 0)  -->
<!DOCTYPE svg PUBLIC "-//W3C//DTD SVG 1.1//EN" "http://www.w3.org/Graphics/SVG/1.1/DTD/svg11.dtd">
<svg version="1.1" id="Layer_1" xmlns="http://www.w3.org/2000/svg" xmlns:xlink="http://www.w3.org/1999/xlink" x="0px" y="0px"
	 width="100px" height="100px" viewBox="0 0 100 100" enable-background="new 0 0 100 100" xml:space="preserve">
<g>
	<path d="M51.357,46.377c-3.229,0-5.856,2.627-5.856,5.855c0,3.227,2.627,5.854,5.856,5.854s5.853-2.627,5.853-5.854
		C57.21,49.004,54.586,46.377,51.357,46.377z"/>
	<path d="M88.39,50.611l-9.467-9.471c-0.003,0-0.003-0.002-0.006-0.002L54.464,16.684c0,0-0.003,0-0.003-0.002l-0.988-0.988
		c-1.169-1.168-3.065-1.168-4.231,0l-0.988,0.988c0,0.002-0.003,0.002-0.003,0.002L23.799,41.139c-0.003,0-0.003,0.002-0.006,0.002
		l-9.471,9.471c-1.168,1.17-1.168,3.063,0,4.232c0.584,0.584,1.35,0.875,2.116,0.875s1.534-0.291,2.116-0.875l4.366-4.365
		l2.992,31.936c0,3.988,3.244,7.232,7.232,7.232h36.427c3.986,0,7.232-3.244,7.232-7.232l2.992-31.936l4.363,4.365
		c0.584,0.584,1.35,0.875,2.116,0.875c0.765,0,1.534-0.291,2.115-0.875C89.559,53.674,89.559,51.781,88.39,50.611z M51.357,64.07
		c-6.528,0-11.84-5.311-11.84-11.838c0-6.529,5.313-11.84,11.84-11.84c6.528,0,11.838,5.311,11.838,11.84
		C63.195,58.76,57.886,64.07,51.357,64.07z"/>
</g>
</svg>
