<?xml version="1.0" encoding="utf-8"?>
<!-- Generator: Adobe Illustrator 16.0.0, SVG Export Plug-In . SVG Version: 6.00 Build 0)  -->
<!DOCTYPE svg PUBLIC "-//W3C//DTD SVG 1.1//EN" "http://www.w3.org/Graphics/SVG/1.1/DTD/svg11.dtd">
<svg version="1.1" id="Layer_1" xmlns="http://www.w3.org/2000/svg" xmlns:xlink="http://www.w3.org/1999/xlink" x="0px" y="0px"
	 width="100px" height="100px" viewBox="0 0 100 100" enable-background="new 0 0 100 100" xml:space="preserve">
<path d="M49.948,26.203c-15.113,0-27.409,12.296-27.409,27.409c0,15.113,12.296,27.408,27.409,27.408s27.409-12.295,27.409-27.408
	C77.357,38.499,65.062,26.203,49.948,26.203z M59.021,67.504c0.783,0.783,0.783,2.053,0,2.836c-0.391,0.391-0.904,0.588-1.417,0.588
	c-0.515,0-1.026-0.197-1.419-0.588L40.875,55.031c-0.783-0.785-0.783-2.055,0-2.838l15.311-15.309c0.783-0.784,2.053-0.784,2.836,0
	c0.783,0.783,0.783,2.052,0,2.834L45.129,53.611L59.021,67.504z"/>
</svg>
