<?xml version="1.0" encoding="utf-8"?>
<!-- Generator: Adobe Illustrator 16.0.0, SVG Export Plug-In . SVG Version: 6.00 Build 0)  -->
<!DOCTYPE svg PUBLIC "-//W3C//DTD SVG 1.1//EN" "http://www.w3.org/Graphics/SVG/1.1/DTD/svg11.dtd">
<svg version="1.1" id="Layer_1" xmlns="http://www.w3.org/2000/svg" xmlns:xlink="http://www.w3.org/1999/xlink" x="0px" y="0px"
	 width="100px" height="100px" viewBox="0 0 100 100" enable-background="new 0 0 100 100" xml:space="preserve">
<path d="M73.521,42.775c0.456,0,0.898-0.156,1.253-0.441l7.667-6.167c0.472-0.38,0.747-0.953,0.747-1.559s-0.275-1.179-0.747-1.559
	l-7.667-6.167c-0.354-0.285-0.797-0.441-1.253-0.441h-13.25v-3.377c0-1.104-0.896-2-2-2h-6.083c-1.105,0-2,0.896-2,2v3.377h-17
	c-1.105,0-2,0.896-2,2v12.334c0,1.104,0.895,2,2,2h16.957v2.144h-16.75c-0.455,0-0.898,0.156-1.253,0.441l-7.667,6.167
	c-0.472,0.38-0.746,0.953-0.746,1.559s0.274,1.179,0.746,1.559l7.667,6.167c0.354,0.285,0.798,0.441,1.253,0.441h16.75v18.689
	c0,1.104,0.896,2,2,2h6.084c1.104,0,2-0.896,2-2V61.253h13.5c1.104,0,2-0.896,2-2V46.919c0-1.104-0.896-2-2-2h-13.5v-2.144H73.521z
	 M56.229,77.942h-2.084V61.253h2.084V77.942z M54.188,25.064h2.083v1.377h-2.083V25.064z M56.229,44.152h-2.084v-1.377h2.084V44.152
	z"/>
</svg>
