<?xml version="1.0" encoding="utf-8"?>
<!-- Generator: Adobe Illustrator 16.0.0, SVG Export Plug-In . SVG Version: 6.00 Build 0)  -->
<!DOCTYPE svg PUBLIC "-//W3C//DTD SVG 1.1//EN" "http://www.w3.org/Graphics/SVG/1.1/DTD/svg11.dtd">
<svg version="1.1" id="Layer_1" xmlns="http://www.w3.org/2000/svg" xmlns:xlink="http://www.w3.org/1999/xlink" x="0px" y="0px"
	 width="100px" height="100px" viewBox="0 0 100 100" enable-background="new 0 0 100 100" xml:space="preserve">
<g>
	<path d="M49.374,52.887V33.254c-5.333,0.239-10.18,2.378-13.876,5.757L49.374,52.887z M44.623,42.162
		c0.509-0.223,1.097,0.01,1.317,0.515l2.863,6.537c0.222,0.506-0.009,1.096-0.515,1.317c-0.131,0.058-0.267,0.084-0.4,0.084
		c-0.386,0-0.753-0.224-0.917-0.599l-2.863-6.537C43.886,42.974,44.117,42.384,44.623,42.162z"/>
	<path d="M51.374,33.254v19.633L65.25,39.011C61.553,35.632,56.707,33.493,51.374,33.254z M53.565,49.886
		c-0.154,0.395-0.532,0.636-0.932,0.636c-0.121,0-0.244-0.021-0.364-0.068c-0.515-0.201-0.769-0.781-0.567-1.296L54.3,42.51
		c0.201-0.515,0.779-0.768,1.296-0.567c0.515,0.201,0.769,0.781,0.567,1.296L53.565,49.886z"/>
	<path d="M50.374,26.551c-15.854,0-28.75,12.897-28.75,28.75s12.896,28.75,28.75,28.75s28.75-12.897,28.75-28.75
		S66.227,26.551,50.374,26.551z M50.374,79.373c-6.626,0-12.635-2.691-16.992-7.037c-0.007-0.008-0.018-0.01-0.025-0.018
		c-0.007-0.008-0.01-0.018-0.017-0.025c-4.347-4.357-7.038-10.366-7.038-16.992c0-6.614,2.683-12.612,7.016-16.968
		c0.014-0.017,0.02-0.038,0.035-0.054s0.037-0.021,0.054-0.035c4.354-4.333,10.354-7.016,16.968-7.016s12.613,2.683,16.968,7.016
		c0.017,0.014,0.038,0.02,0.054,0.035s0.021,0.037,0.035,0.054c4.333,4.355,7.016,10.354,7.016,16.968
		C74.446,68.574,63.647,79.373,50.374,79.373z"/>
	<path d="M28.327,56.301c0.24,5.333,2.378,10.18,5.757,13.877l13.876-13.877H28.327z M45.093,58.703l-6.538,2.862
		c-0.131,0.058-0.267,0.084-0.4,0.084c-0.386,0-0.753-0.224-0.917-0.599c-0.222-0.506,0.009-1.096,0.515-1.317l6.538-2.862
		c0.509-0.222,1.097,0.01,1.317,0.515C45.83,57.892,45.599,58.481,45.093,58.703z"/>
	<path d="M49.374,77.348V57.715L35.498,71.592C39.194,74.97,44.041,77.108,49.374,77.348z M47.179,60.723
		c0.201-0.514,0.779-0.771,1.296-0.567c0.515,0.201,0.769,0.781,0.567,1.296l-2.595,6.637c-0.154,0.395-0.532,0.636-0.932,0.636
		c-0.121,0-0.244-0.021-0.364-0.068c-0.515-0.201-0.769-0.781-0.567-1.296L47.179,60.723z"/>
	<path d="M72.42,54.301c-0.24-5.333-2.378-10.18-5.757-13.876L52.788,54.301H72.42z M55.667,51.891l6.526-2.858
		c0.509-0.224,1.097,0.01,1.317,0.515c0.222,0.506-0.009,1.096-0.515,1.317l-6.526,2.858c-0.131,0.058-0.267,0.084-0.4,0.084
		c-0.386,0-0.753-0.224-0.917-0.599C54.931,52.702,55.162,52.112,55.667,51.891z"/>
	<path d="M51.374,77.348c5.333-0.239,10.18-2.378,13.876-5.757L51.374,57.715V77.348z M52.466,60.076
		c0.509-0.223,1.097,0.01,1.317,0.515l2.858,6.527c0.222,0.506-0.009,1.096-0.515,1.317c-0.131,0.058-0.267,0.084-0.4,0.084
		c-0.386,0-0.753-0.224-0.917-0.599l-2.858-6.527C51.73,60.888,51.96,60.298,52.466,60.076z"/>
	<path d="M66.664,70.177c3.379-3.696,5.517-8.543,5.757-13.876H52.788L66.664,70.177z M56.527,56.631l6.638,2.594
		c0.514,0.201,0.769,0.781,0.567,1.296c-0.154,0.395-0.532,0.636-0.932,0.636c-0.121,0-0.244-0.021-0.364-0.068l-6.638-2.594
		c-0.514-0.201-0.769-0.781-0.567-1.296S56.009,56.431,56.527,56.631z"/>
	<path d="M34.083,40.425c-3.379,3.696-5.517,8.543-5.757,13.876h19.633L34.083,40.425z M44.597,54.039
		c-0.121,0-0.244-0.021-0.364-0.068l-6.647-2.599c-0.515-0.201-0.769-0.781-0.567-1.296c0.201-0.514,0.78-0.77,1.296-0.567
		l6.647,2.599c0.515,0.201,0.769,0.781,0.567,1.296C45.375,53.798,44.997,54.039,44.597,54.039z"/>
</g>
</svg>
