<?xml version="1.0" encoding="utf-8"?>
<!-- Generator: Adobe Illustrator 16.0.0, SVG Export Plug-In . SVG Version: 6.00 Build 0)  -->
<!DOCTYPE svg PUBLIC "-//W3C//DTD SVG 1.1//EN" "http://www.w3.org/Graphics/SVG/1.1/DTD/svg11.dtd">
<svg version="1.1" id="Layer_1" xmlns="http://www.w3.org/2000/svg" xmlns:xlink="http://www.w3.org/1999/xlink" x="0px" y="0px"
	 width="100px" height="100px" viewBox="0 0 100 100" enable-background="new 0 0 100 100" xml:space="preserve">
<g>
	<path d="M80.787,54.577h-2.388V52.53h1.297c1.188,0,2.15-0.964,2.15-2.152c0-12.486-12.639-22.644-28.174-22.644
		c-14.732,0-26.859,9.135-28.074,20.728c-0.697,0.356-1.174,1.08-1.174,1.916c0,1.188,0.964,2.152,2.151,2.152h1.296v2.047h-2.388
		c-1.188,0-2.151,0.963-2.151,2.15v5.617c0,1.188,0.964,2.151,2.151,2.151h0.089v7.045c0,1.188,0.963,2.151,2.15,2.151h50.822
		c1.189,0,2.152-0.964,2.152-2.151v-7.045h0.089c1.188,0,2.15-0.963,2.15-2.151v-5.617C82.938,55.54,81.976,54.577,80.787,54.577z
		 M32.175,52.53h41.923v2.047H32.175V52.53z M27.635,58.878h2.39h46.225h2.387v1.316h-0.09H27.724h-0.089V58.878z"/>
</g>
</svg>
