<?xml version="1.0" encoding="utf-8"?>
<!-- Generator: Adobe Illustrator 16.0.0, SVG Export Plug-In . SVG Version: 6.00 Build 0)  -->
<!DOCTYPE svg PUBLIC "-//W3C//DTD SVG 1.1//EN" "http://www.w3.org/Graphics/SVG/1.1/DTD/svg11.dtd">
<svg version="1.1" id="Layer_1" xmlns="http://www.w3.org/2000/svg" xmlns:xlink="http://www.w3.org/1999/xlink" x="0px" y="0px"
	 width="100px" height="100px" viewBox="0 0 100 100" enable-background="new 0 0 100 100" xml:space="preserve">
<g>
	<path d="M27.713,49.544l5.322-5.321c1.072-1.076,1.072-2.827-0.006-3.91c-0.523-0.518-1.215-0.804-1.951-0.804
		s-1.428,0.286-1.951,0.808L19.105,50.338c-0.26,0.254-0.467,0.559-0.621,0.93c-0.135,0.335-0.203,0.686-0.203,1.039
		c0,0.356,0.068,0.705,0.211,1.055c0.143,0.349,0.35,0.656,0.6,0.896l10.035,10.037c0.52,0.522,1.215,0.809,1.951,0.809
		s1.432-0.287,1.957-0.811c1.07-1.075,1.07-2.824-0.002-3.905l-5.32-5.321h9.264v-5.524H27.713z"/>
	<path d="M77.229,27.583H46.18c-5.076,0-9.203,4.13-9.203,9.205v0.455v12.301h27.238c1.523,0,2.764,1.239,2.764,2.764
		c0,1.521-1.24,2.761-2.764,2.761H36.977v4.653v4.085v4.031c0,5.074,4.127,9.204,9.203,9.204h31.049c5.076,0,9.203-4.13,9.203-9.204
		V36.788C86.432,31.713,82.305,27.583,77.229,27.583z"/>
</g>
</svg>
