<?xml version="1.0" encoding="utf-8"?>
<!-- Generator: Adobe Illustrator 16.0.0, SVG Export Plug-In . SVG Version: 6.00 Build 0)  -->
<!DOCTYPE svg PUBLIC "-//W3C//DTD SVG 1.1//EN" "http://www.w3.org/Graphics/SVG/1.1/DTD/svg11.dtd">
<svg version="1.1" id="Layer_1" xmlns="http://www.w3.org/2000/svg" xmlns:xlink="http://www.w3.org/1999/xlink" x="0px" y="0px"
	 width="100px" height="100px" viewBox="0 0 100 100" enable-background="new 0 0 100 100" xml:space="preserve">
<path d="M29.525,76.688h48.753V27.936H29.525V76.688z M58.125,29.84h16.101c1.187,0,2.15,0.964,2.15,2.15v14.727h-4.302V34.142
	H58.125V29.84z M58.125,70.485h13.949v-13.88h4.302v16.031c0,1.188-0.964,2.151-2.15,2.151H58.125V70.485z M31.429,31.99
	c0-1.187,0.963-2.15,2.151-2.15h14.655v4.302H35.731v12.575h-4.302V31.99z M31.429,56.604h4.302v13.88h12.505v4.302H33.581
	c-1.188,0-2.151-0.963-2.151-2.151V56.604z"/>
</svg>
