<?xml version="1.0" encoding="utf-8"?>
<!-- Generator: Adobe Illustrator 16.0.0, SVG Export Plug-In . SVG Version: 6.00 Build 0)  -->
<!DOCTYPE svg PUBLIC "-//W3C//DTD SVG 1.1//EN" "http://www.w3.org/Graphics/SVG/1.1/DTD/svg11.dtd">
<svg version="1.1" id="Layer_1" xmlns="http://www.w3.org/2000/svg" xmlns:xlink="http://www.w3.org/1999/xlink" x="0px" y="0px"
	 width="100px" height="100px" viewBox="0 0 100 100" enable-background="new 0 0 100 100" xml:space="preserve">
<g>
	<path d="M52.269,19.875c-16.614,0-30.083,13.469-30.083,30.083c0,16.613,13.469,30.082,30.083,30.082s30.083-13.469,30.083-30.082
		C82.351,33.343,68.882,19.875,52.269,19.875z M52.269,77.184c-15.113,0-27.409-12.296-27.409-27.407
		c0-15.114,12.296-27.411,27.409-27.411s27.409,12.297,27.409,27.411C79.677,64.888,67.382,77.184,52.269,77.184z"/>
	<path d="M54.617,26.498v22.335l1.719-1.72c0.847-0.847,2.219-0.847,3.066,0c0.847,0.848,0.847,2.22,0,3.066l-5.419,5.419
		c-0.001,0-0.003,0.002-0.003,0.002l-1.531,1.532L50.917,55.6c0,0-0.001-0.002-0.003-0.002l-5.057-5.058
		c-0.423-0.424-0.635-0.979-0.635-1.533s0.212-1.109,0.635-1.533c0.847-0.847,2.219-0.847,3.066,0l1.357,1.358V26.478
		c-11.972,1.014-21.41,11.066-21.41,23.299c0,12.901,10.496,23.397,23.397,23.397s23.399-10.496,23.399-23.397
		C75.667,37.666,66.419,27.678,54.617,26.498z"/>
</g>
</svg>
