<?xml version="1.0" encoding="utf-8"?>
<!-- Generator: Adobe Illustrator 16.0.0, SVG Export Plug-In . SVG Version: 6.00 Build 0)  -->
<!DOCTYPE svg PUBLIC "-//W3C//DTD SVG 1.1//EN" "http://www.w3.org/Graphics/SVG/1.1/DTD/svg11.dtd">
<svg version="1.1" id="Layer_1" xmlns="http://www.w3.org/2000/svg" xmlns:xlink="http://www.w3.org/1999/xlink" x="0px" y="0px"
	 width="100px" height="100px" viewBox="0 0 100 100" enable-background="new 0 0 100 100" xml:space="preserve">
<path d="M76.028,18.885c-0.689-0.688-1.724-0.77-2.494-0.281l-7.305,7.307l-7.864,7.861v-0.006c0-0.115-0.016-0.225-0.03-0.336
	c1.535-1.951,2.463-4.396,2.463-7.066c0-6.328-5.151-11.48-11.48-11.48c-6.331,0-11.48,5.152-11.48,11.48
	c0,2.666,0.926,5.109,2.453,7.061c-0.007,0.082-0.021,0.162-0.021,0.246v0.166v0.035l-7.962-7.961l-7.305-7.307
	c-0.771-0.488-1.807-0.406-2.494,0.281c-0.795,0.797-0.812,2.066-0.04,2.84l0.689,0.688l2.447,2.445l10.2,10.201l4.465,4.467v20.934
	v4.01v1.627v19.203c0,3.305,1.74,5.795,4.05,5.795h9.996c2.308,0,4.048-2.49,4.048-5.795V67.563v-3.094v-4.01V39.426l4.364-4.367
	l10.201-10.201l2.448-2.445l0.688-0.688C76.839,20.951,76.822,19.682,76.028,18.885z"/>
</svg>
