<?xml version="1.0" encoding="utf-8"?>
<!-- Generator: Adobe Illustrator 16.0.0, SVG Export Plug-In . SVG Version: 6.00 Build 0)  -->
<!DOCTYPE svg PUBLIC "-//W3C//DTD SVG 1.1//EN" "http://www.w3.org/Graphics/SVG/1.1/DTD/svg11.dtd">
<svg version="1.1" id="Layer_1" xmlns="http://www.w3.org/2000/svg" xmlns:xlink="http://www.w3.org/1999/xlink" x="0px" y="0px"
	 width="100px" height="100px" viewBox="0 0 100 100" enable-background="new 0 0 100 100" xml:space="preserve">
<path d="M52.782,22.586c-15.473,0-28.06,12.588-28.06,28.06c0,15.473,12.586,28.061,28.06,28.061
	c15.472,0,28.06-12.588,28.06-28.061C80.841,35.174,68.253,22.586,52.782,22.586z M63.411,55.007c0,2.116-2.185,3.713-5.081,3.713
	s-5.081-1.597-5.081-3.713s2.185-3.713,5.081-3.713c0.701,0,1.357,0.098,1.954,0.269v-8.538l-7.971,1.629v14.217
	c0,0.686-0.447,1.25-1.061,1.462c-0.913,0.864-2.337,1.414-4.02,1.414c-2.898,0-5.081-1.597-5.081-3.713
	c0-2.116,2.183-3.713,5.081-3.713c0.701,0,1.357,0.098,1.954,0.269V43.378c0-0.742,0.522-1.383,1.25-1.531l11.098-2.269
	c0.459-0.093,0.938,0.023,1.301,0.321c0.365,0.296,0.575,0.74,0.575,1.21V55.007z"/>
</svg>
