<?xml version="1.0" encoding="utf-8"?>
<!-- Generator: Adobe Illustrator 16.0.0, SVG Export Plug-In . SVG Version: 6.00 Build 0)  -->
<!DOCTYPE svg PUBLIC "-//W3C//DTD SVG 1.1//EN" "http://www.w3.org/Graphics/SVG/1.1/DTD/svg11.dtd">
<svg version="1.1" id="Layer_1" xmlns="http://www.w3.org/2000/svg" xmlns:xlink="http://www.w3.org/1999/xlink" x="0px" y="0px"
	 width="100px" height="100px" viewBox="0 0 100 100" enable-background="new 0 0 100 100" xml:space="preserve">
<path d="M67.43,67.076h3.156c1.295,0,2.344-1.051,2.344-2.346s-1.049-2.346-2.344-2.346h-5.41l-4.354-9.066
	c4.471-2.996,7.42-8.09,7.42-13.863c0-8.398-6.246-15.348-14.334-16.492v-7.998c0-1.295-1.049-2.346-2.344-2.346
	s-2.346,1.051-2.346,2.346v7.998c-8.086,1.145-14.332,8.094-14.332,16.492c0,5.584,2.768,10.523,6.992,13.551l-4.873,9.379h-4.463
	c-1.297,0-2.346,1.051-2.346,2.346s1.049,2.346,2.346,2.346h2.023L28.898,77.98c-0.596,1.148-0.15,2.564,1,3.162
	c0.346,0.18,0.717,0.264,1.08,0.264c0.846,0,1.664-0.459,2.082-1.264l6.793-13.066h9.365v2.344c0,1.295,1.051,2.346,2.346,2.346
	s2.344-1.051,2.344-2.346v-2.344h8.318l6.244,13c0.402,0.84,1.242,1.33,2.115,1.33c0.34,0,0.686-0.072,1.016-0.23
	c1.166-0.561,1.656-1.961,1.098-3.129L67.43,67.076z M53.908,62.385v-0.26c0-1.293-1.049-2.344-2.344-2.344
	s-2.346,1.051-2.346,2.344v0.26h-6.928l3.746-7.211c1.734,0.609,3.588,0.959,5.527,0.959c1.754,0,3.443-0.275,5.033-0.779
	l3.377,7.031H53.908z"/>
</svg>
