<?xml version="1.0" encoding="utf-8"?>
<!-- Generator: Adobe Illustrator 16.0.0, SVG Export Plug-In . SVG Version: 6.00 Build 0)  -->
<!DOCTYPE svg PUBLIC "-//W3C//DTD SVG 1.1//EN" "http://www.w3.org/Graphics/SVG/1.1/DTD/svg11.dtd">
<svg version="1.1" id="Layer_1" xmlns="http://www.w3.org/2000/svg" xmlns:xlink="http://www.w3.org/1999/xlink" x="0px" y="0px"
	 width="100px" height="100px" viewBox="0 0 100 100" enable-background="new 0 0 100 100" xml:space="preserve">
<path d="M52.572,25.543c-14.191,0-25.734,11.547-25.734,25.738c0,14.189,11.543,25.736,25.734,25.736
	c14.189,0,25.736-11.547,25.736-25.736C78.309,37.09,66.762,25.543,52.572,25.543z M69.577,43.946
	c0.241,0.753-0.177,1.559-0.932,1.8l-3.943,1.255c-0.145,0.047-0.291,0.067-0.436,0.067c-0.607,0-1.17-0.389-1.367-1
	c-0.238-0.754,0.178-1.56,0.934-1.801l3.942-1.255C68.529,42.771,69.336,43.19,69.577,43.946z M35.566,43.587
	c0.24-0.756,1.047-1.174,1.802-0.933l3.944,1.255c0.754,0.241,1.172,1.047,0.931,1.801c-0.193,0.61-0.76,1-1.365,1
	c-0.145,0-0.29-0.021-0.436-0.067l-3.943-1.255C35.744,45.147,35.327,44.341,35.566,43.587z M42.311,52.714H35.5
	c-0.793,0-1.435-0.641-1.435-1.433c0-0.794,0.642-1.436,1.435-1.436h6.811c0.792,0,1.434,0.642,1.434,1.436
	C43.744,52.073,43.103,52.714,42.311,52.714z M45.43,42.705c-0.279,0.279-0.646,0.42-1.013,0.42c-0.367,0-0.734-0.141-1.015-0.42
	l-3.494-3.495c-0.562-0.56-0.562-1.468,0-2.028c0.559-0.56,1.467-0.56,2.026,0l3.495,3.496C45.99,41.237,45.99,42.145,45.43,42.705z
	 M48.687,39.479c-0.204,0.102-0.424,0.15-0.638,0.15c-0.526,0-1.033-0.29-1.286-0.792l-1.881-3.765
	c-0.354-0.709-0.067-1.569,0.641-1.924c0.71-0.352,1.571-0.067,1.924,0.642l1.882,3.764C49.684,38.263,49.396,39.125,48.687,39.479z
	 M54.057,56.837c0,0.792-0.643,1.434-1.435,1.434c-0.793,0-1.434-0.642-1.434-1.434V32.729c0-0.793,0.641-1.435,1.434-1.435
	c0.792,0,1.435,0.642,1.435,1.435V56.837z M57.098,39.988c-0.216,0-0.435-0.05-0.642-0.151c-0.709-0.354-0.994-1.215-0.642-1.924
	l1.882-3.764c0.354-0.708,1.216-0.995,1.925-0.642c0.709,0.354,0.997,1.215,0.641,1.924l-1.882,3.765
	C58.13,39.698,57.624,39.988,57.098,39.988z M59.713,43.063c-0.56-0.561-0.56-1.468,0-2.027l3.495-3.496
	c0.561-0.56,1.468-0.56,2.028,0c0.56,0.561,0.56,1.468,0,2.028l-3.496,3.495c-0.279,0.279-0.646,0.42-1.013,0.42
	C60.36,43.483,59.993,43.343,59.713,43.063z M69.645,53.072h-6.813c-0.791,0-1.434-0.641-1.434-1.434
	c0-0.792,0.643-1.435,1.434-1.435h6.813c0.792,0,1.434,0.643,1.434,1.435C71.078,52.432,70.437,53.072,69.645,53.072z"/>
</svg>
