<?xml version="1.0" encoding="utf-8"?>
<!-- Generator: Adobe Illustrator 16.0.0, SVG Export Plug-In . SVG Version: 6.00 Build 0)  -->
<!DOCTYPE svg PUBLIC "-//W3C//DTD SVG 1.1//EN" "http://www.w3.org/Graphics/SVG/1.1/DTD/svg11.dtd">
<svg version="1.1" id="Layer_1" xmlns="http://www.w3.org/2000/svg" xmlns:xlink="http://www.w3.org/1999/xlink" x="0px" y="0px"
	 width="100px" height="100px" viewBox="0 0 100 100" enable-background="new 0 0 100 100" xml:space="preserve">
<g>
	<path d="M80.924,40.938L57.381,17.397c-0.813-0.814-2.215-0.732-3.131,0.184L30.246,41.587l26.488,26.49l24.004-24.008
		C81.652,43.153,81.738,41.753,80.924,40.938z"/>
	<path d="M22.389,49.442c-0.916,0.914-0.998,2.318-0.184,3.131l23.541,23.543c0.277,0.277,0.631,0.412,1.004,0.484
		c0.412,0.361,0.945,0.588,1.537,0.588H76.74c1.295,0,2.346-1.051,2.346-2.346s-1.051-2.346-2.346-2.346H52.313l2.211-2.211
		L28.035,43.798L22.389,49.442z"/>
</g>
</svg>
