<?xml version="1.0" encoding="utf-8"?>
<!-- Generator: Adobe Illustrator 16.0.0, SVG Export Plug-In . SVG Version: 6.00 Build 0)  -->
<!DOCTYPE svg PUBLIC "-//W3C//DTD SVG 1.1//EN" "http://www.w3.org/Graphics/SVG/1.1/DTD/svg11.dtd">
<svg version="1.1" id="Layer_1" xmlns="http://www.w3.org/2000/svg" xmlns:xlink="http://www.w3.org/1999/xlink" x="0px" y="0px"
	 width="100px" height="100px" viewBox="0 0 100 100" enable-background="new 0 0 100 100" xml:space="preserve">
<g>
	<path d="M48.175,37.901h-1.61v-7.014c0-1.188-0.963-2.151-2.15-2.151H33.016c-1.188,0-2.15,0.963-2.15,2.151v7.014h-2.904
		c-1.188,0-2.15,0.964-2.15,2.15v8.698v17.157v8.695c0,1.188,0.963,2.151,2.15,2.151h20.214c1.188,0,2.151-0.964,2.151-2.151V40.052
		C50.326,38.865,49.363,37.901,48.175,37.901z M30.112,50.9h5.805v12.855h-5.805V50.9z"/>
	<path d="M71.304,42.053l-16.726-6.71l16.816-7.669c0.793-0.361,1.261-1.143,1.261-1.959c0-0.299-0.064-0.602-0.196-0.891
		c-0.492-1.083-1.768-1.558-2.848-1.065l-21.39,9.753c-0.018,0.009-0.033,0.024-0.051,0.033c-0.148,0.073-0.287,0.163-0.415,0.269
		c-0.034,0.028-0.067,0.053-0.099,0.083c-0.131,0.122-0.252,0.255-0.35,0.411c-0.016,0.024-0.025,0.049-0.039,0.073
		c-0.054,0.092-0.109,0.185-0.15,0.289c-0.019,0.043-0.023,0.087-0.038,0.132c-0.017,0.048-0.03,0.098-0.043,0.149
		c-0.038,0.153-0.063,0.308-0.066,0.464c0,0.019-0.009,0.038-0.009,0.057c0,0.006,0.004,0.013,0.004,0.02
		c0,0.128,0.017,0.258,0.038,0.384c0.007,0.018,0.007,0.036,0.009,0.056c0.032,0.141,0.079,0.276,0.138,0.408
		c0.003,0.008,0.003,0.016,0.007,0.023c0.007,0.017,0.021,0.029,0.029,0.046c0.073,0.149,0.165,0.289,0.272,0.418
		c0.027,0.035,0.053,0.068,0.082,0.101c0.122,0.131,0.257,0.25,0.412,0.349c0.021,0.015,0.044,0.023,0.065,0.036
		c0.095,0.056,0.19,0.111,0.295,0.153l21.389,8.582c0.262,0.104,0.533,0.154,0.799,0.154c0.854,0,1.661-0.51,1.997-1.35
		C72.94,43.749,72.406,42.496,71.304,42.053z"/>
</g>
</svg>
