<?xml version="1.0" encoding="utf-8"?>
<!-- Generator: Adobe Illustrator 16.0.0, SVG Export Plug-In . SVG Version: 6.00 Build 0)  -->
<!DOCTYPE svg PUBLIC "-//W3C//DTD SVG 1.1//EN" "http://www.w3.org/Graphics/SVG/1.1/DTD/svg11.dtd">
<svg version="1.1" id="Layer_1" xmlns="http://www.w3.org/2000/svg" xmlns:xlink="http://www.w3.org/1999/xlink" x="0px" y="0px"
	 width="100px" height="100px" viewBox="0 0 100 100" enable-background="new 0 0 100 100" xml:space="preserve">
<path d="M75.409,35.166l-4.8-4.219c-0.813-0.713-2.027-0.713-2.84,0l-4.799,4.219c-0.466,0.408-0.731,0.996-0.731,1.615v6.469
	h-1.434v-6.469c0-0.619-0.266-1.207-0.73-1.615l-4.799-4.219c-0.813-0.713-2.027-0.713-2.84,0l-4.799,4.219
	c-0.466,0.408-0.731,0.996-0.731,1.615v6.469h-1.433v-6.469c0-0.619-0.267-1.207-0.731-1.615l-4.8-4.219
	c-0.812-0.713-2.027-0.713-2.839,0l-4.8,4.219c-0.465,0.408-0.73,0.996-0.73,1.615v37.545c0,1.188,0.962,2.15,2.15,2.15h9.598
	c1.189,0,2.152-0.963,2.152-2.15v-9.389h1.433v9.389c0,1.188,0.962,2.15,2.151,2.15h9.598c1.188,0,2.15-0.963,2.15-2.15v-9.389
	h1.434v9.389c0,1.188,0.963,2.15,2.151,2.15h9.598c1.188,0,2.15-0.963,2.15-2.15V36.781C76.139,36.162,75.872,35.574,75.409,35.166z
	 M46.906,60.637h-1.433V47.553h1.433V60.637z M62.239,60.637h-1.434V47.553h1.434V60.637z"/>
</svg>
