<?xml version="1.0" encoding="utf-8"?>
<!-- Generator: Adobe Illustrator 16.0.0, SVG Export Plug-In . SVG Version: 6.00 Build 0)  -->
<!DOCTYPE svg PUBLIC "-//W3C//DTD SVG 1.1//EN" "http://www.w3.org/Graphics/SVG/1.1/DTD/svg11.dtd">
<svg version="1.1" id="Layer_1" xmlns="http://www.w3.org/2000/svg" xmlns:xlink="http://www.w3.org/1999/xlink" x="0px" y="0px"
	 width="100px" height="100px" viewBox="0 0 100 100" enable-background="new 0 0 100 100" xml:space="preserve">
<path d="M77.261,42.506c1.188,0,2.149-0.963,2.149-2.151v-8.129c0-1.187-0.961-2.15-2.149-2.15h-8.13c-1.188,0-2.15,0.964-2.15,2.15
	v1.915H38.766v-1.913c0-1.188-0.963-2.151-2.15-2.151h-8.13c-1.188,0-2.151,0.964-2.151,2.151v8.128
	c0,1.188,0.964,2.151,2.151,2.151h1.913v19.611h-1.913c-1.188,0-2.151,0.963-2.151,2.151v8.129c0,1.187,0.964,2.15,2.151,2.15h8.13
	c1.188,0,2.15-0.964,2.15-2.15v-1.915h28.213v1.915c0,1.187,0.964,2.15,2.151,2.15h8.131c1.187,0,2.149-0.964,2.149-2.15V64.27
	c0-1.188-0.963-2.151-2.149-2.151h-1.914V42.506H77.261z M71.281,34.377h3.828v3.827h-1.913h-1.915v-1.914V34.377z M30.636,34.378
	h3.828v1.913v1.915h-1.913h-1.915V34.378z M34.464,70.247h-3.828v-3.828h1.915h1.913v1.914V70.247z M75.109,70.247H71.28v-1.914
	v-1.914h1.916h1.913V70.247z"/>
</svg>
