<?xml version="1.0" encoding="utf-8"?>
<!-- Generator: Adobe Illustrator 16.0.0, SVG Export Plug-In . SVG Version: 6.00 Build 0)  -->
<!DOCTYPE svg PUBLIC "-//W3C//DTD SVG 1.1//EN" "http://www.w3.org/Graphics/SVG/1.1/DTD/svg11.dtd">
<svg version="1.1" id="Layer_1" xmlns="http://www.w3.org/2000/svg" xmlns:xlink="http://www.w3.org/1999/xlink" x="0px" y="0px"
	 width="100px" height="100px" viewBox="0 0 100 100" enable-background="new 0 0 100 100" xml:space="preserve">
<g>
	<path d="M30.93,27.166l-2.846-2.846c-0.846-0.847-2.219-0.847-3.065,0s-0.847,2.219,0,3.065l2.841,2.84
		C28.811,29.134,29.834,28.11,30.93,27.166z"/>
	<path d="M27.857,69.688l-2.839,2.838c-0.847,0.847-0.847,2.219,0,3.066c0.423,0.423,0.979,0.635,1.533,0.635
		s1.109-0.212,1.532-0.635l2.845-2.845C29.832,71.803,28.809,70.78,27.857,69.688z"/>
	<path d="M73.201,69.688c-0.951,1.091-1.975,2.114-3.072,3.06l2.845,2.845c0.424,0.423,0.979,0.635,1.533,0.635
		s1.109-0.212,1.532-0.635c0.848-0.848,0.848-2.22,0-3.066L73.201,69.688z"/>
	<path d="M73.199,30.225l2.84-2.84c0.848-0.847,0.848-2.219,0-3.065c-0.846-0.847-2.219-0.847-3.065,0l-2.845,2.846
		C71.225,28.11,72.248,29.134,73.199,30.225z"/>
	<path d="M56.298,61.347c0,1.196-0.971,2.168-2.168,2.168c-1.198,0-2.168-0.972-2.168-2.168v-9.835h9.321
		c1.197,0,2.168,0.972,2.168,2.169c0,1.196-0.971,2.168-2.168,2.168h-1.92l13.838,13.839c4.604-5.285,7.41-12.174,7.41-19.73
		c0-7.559-2.809-14.447-7.412-19.732L59.363,44.061h2.432c1.197,0,2.168,0.972,2.168,2.168c0,1.197-0.971,2.168-2.168,2.168h-9.833
		v-9.321c0-1.197,0.97-2.168,2.168-2.168c1.197,0,2.168,0.971,2.168,2.168v1.92l13.831-13.83c-5.268-4.532-12.105-7.291-19.6-7.291
		s-14.333,2.759-19.6,7.291l13.832,13.831v-2.432c0-1.197,0.97-2.168,2.168-2.168s2.168,0.971,2.168,2.168v9.834h-9.322
		c-1.197,0-2.169-0.971-2.169-2.168s0.972-2.168,2.169-2.168h1.92L27.859,30.225c-4.604,5.285-7.412,12.174-7.412,19.732
		c0,7.557,2.807,14.445,7.41,19.73L41.695,55.85h-2.432c-1.197,0-2.168-0.971-2.168-2.168s0.971-2.168,2.168-2.168h9.834v9.321
		c0,1.197-0.97,2.169-2.168,2.169s-2.168-0.972-2.168-2.169v-1.919L30.929,72.748c5.268,4.534,12.105,7.292,19.601,7.292
		s14.334-2.758,19.6-7.292L56.298,58.915V61.347z"/>
</g>
</svg>
