<?xml version="1.0" encoding="utf-8"?>
<!-- Generator: Adobe Illustrator 16.0.0, SVG Export Plug-In . SVG Version: 6.00 Build 0)  -->
<!DOCTYPE svg PUBLIC "-//W3C//DTD SVG 1.1//EN" "http://www.w3.org/Graphics/SVG/1.1/DTD/svg11.dtd">
<svg version="1.1" id="Layer_1" xmlns="http://www.w3.org/2000/svg" xmlns:xlink="http://www.w3.org/1999/xlink" x="0px" y="0px"
	 width="100px" height="100px" viewBox="0 0 100 100" enable-background="new 0 0 100 100" xml:space="preserve">
<g>
	<path d="M44.904,59.171c0.052-0.019,0.854-0.279,0.854-0.279c0.208-0.063,0.778-0.217,0.778-0.217
		c0.31-0.084,0.474-0.127,0.637-0.165c0.232-0.058,0.482-0.108,0.733-0.159l0.171-0.035c0.168-0.037,0.336-0.073,0.505-0.104
		c0.235-0.041,0.866-0.133,0.866-0.133l0.586-0.083c0.188-0.023,0.378-0.041,0.571-0.056v-3.435h-6.496
		C44.248,56.06,44.513,57.62,44.904,59.171z"/>
	<path d="M49.387,62.794c0,0-1.016,0.208-1.173,0.246c0,0-0.965,0.258-1.145,0.313c0,0-0.685,0.226-0.705,0.233
		c1.058,2.566,2.476,5.13,4.241,7.661v-8.637c-0.015,0.001-0.504,0.073-0.504,0.073C49.762,62.733,49.573,62.759,49.387,62.794z"/>
	<path d="M48.84,46.38l-0.739-0.099c-0.217-0.029-0.434-0.058-0.647-0.095l-0.461-0.085l-0.226-0.044
		c-0.221-0.044-0.442-0.087-0.661-0.136c-0.165-0.037-1.088-0.272-1.335-0.34c-0.019-0.006-0.037-0.011-0.057-0.017
		c-0.318,1.425-0.53,2.86-0.637,4.292h6.528v-3.339c-0.119-0.004-0.718-0.044-0.718-0.044C49.469,46.44,49.154,46.417,48.84,46.38z"
		/>
	<path d="M47.09,41.376c0.226,0.052,0.434,0.09,0.641,0.13l0.486,0.094c0.171,0.029,1.121,0.157,1.121,0.157
		c0.208,0.023,0.788,0.067,0.788,0.067s0.443,0.035,0.479,0.037v-9.113c-1.527,2.13-3.246,4.972-4.543,8.363L47.09,41.376z"/>
	<path d="M37.771,36.414l0.394,0.357c0.154,0.137,0.304,0.267,0.457,0.395l0.423,0.344l0.472,0.365
		c0.136,0.101,0.278,0.206,0.421,0.306c0.168,0.119,0.332,0.23,0.497,0.339c0.152,0.102,0.299,0.198,0.446,0.29
		c0.171,0.107,0.342,0.209,0.513,0.308c0,0,0.492,0.281,0.513,0.292c1.528-3.978,3.543-7.287,5.263-9.692
		c-3.866,0.996-7.428,2.977-10.325,5.768c0.037,0.038,0.498,0.511,0.498,0.511L37.771,36.414z"/>
	<path d="M41.73,65.871c-0.157,0.102-0.302,0.203-0.447,0.305c-0.182,0.128-0.357,0.253-0.528,0.383
		c-0.149,0.111-0.29,0.221-0.429,0.331c-0.171,0.135-0.337,0.271-0.502,0.409l-0.409,0.357c-0.162,0.144-0.32,0.289-0.477,0.437
		c-0.134,0.128-0.266,0.255-0.394,0.385c-0.159,0.157-0.307,0.316-0.455,0.472c0,0-0.477,0.528-0.531,0.589
		c2.843,2.533,6.176,4.286,9.811,5.171c-2.165-2.996-3.896-6.055-5.172-9.139C42.04,65.669,41.884,65.767,41.73,65.871z"/>
	<path d="M40.487,43.917c-0.047-0.024-0.588-0.304-0.808-0.425c-0.18-0.098-0.36-0.198-0.541-0.301
		c-0.22-0.128-0.437-0.261-0.652-0.394c-0.175-0.108-0.353-0.22-0.528-0.336c-0.182-0.118-0.721-0.493-0.721-0.493l-0.401-0.286
		c-0.212-0.159-1.085-0.85-1.085-0.85C35.539,40.655,34.7,39.91,34.7,39.91c-0.192-0.177-0.379-0.362-0.562-0.545l-0.319-0.313
		c-2.223,3.221-3.576,6.908-3.963,10.803h9.696C39.689,47.875,40.003,45.886,40.487,43.917z"/>
	<path d="M38.695,62.312l0.539-0.366c0.229-0.146,0.446-0.286,0.667-0.421c0.186-0.114,0.694-0.411,0.759-0.447
		c-0.586-2.169-0.958-4.371-1.11-6.571h-9.696c0.418,4.239,1.967,8.2,4.533,11.597l0.38-0.405c0.191-0.203,0.383-0.407,0.582-0.603
		l0.371-0.354l0.128-0.122c0.187-0.176,0.373-0.35,0.565-0.518l0.412-0.353c0.289-0.241,0.495-0.414,0.707-0.579
		c0.163-0.13,0.34-0.261,0.518-0.394C38.266,62.617,38.478,62.461,38.695,62.312z"/>
	<path d="M66.458,41.686c-0.187,0.136-0.375,0.27-0.566,0.401c-0.218,0.152-0.444,0.305-0.675,0.453
		c-0.06,0.039-0.118,0.077-0.179,0.115c0.678,2.385,1.105,4.797,1.273,7.2h9.698c-0.446-4.579-2.195-8.8-5.121-12.35
		c-0.007,0.009-0.015,0.017-0.021,0.026c-0.15,0.179-0.301,0.348-0.451,0.518c-0.236,0.267-0.397,0.45-0.563,0.626
		c-0.119,0.129-0.48,0.493-0.48,0.493c-0.219,0.218-0.405,0.406-0.597,0.586c-0.153,0.144-0.314,0.287-0.473,0.431
		c-0.238,0.212-0.444,0.393-0.653,0.568l-0.541,0.435C66.894,41.359,66.678,41.524,66.458,41.686z"/>
	<path d="M63.777,37.881c0.174-0.128,0.347-0.261,0.516-0.396c0.156-0.122,0.304-0.246,0.452-0.371
		c0.165-0.139,0.33-0.281,0.492-0.426c0.151-0.134,0.29-0.264,0.428-0.397c0.162-0.154,0.317-0.305,0.47-0.463
		c0.141-0.142,0.276-0.282,0.409-0.426c0.146-0.16,0.296-0.324,0.442-0.493c0.131-0.149,0.258-0.298,0.382-0.449
		c0.07-0.085,0.139-0.171,0.208-0.258c-2.617-2.139-5.628-3.657-8.876-4.483c1.597,2.225,3.32,5.055,4.739,8.406L63.777,37.881z"/>
	<path d="M58.84,63.347l-1.139-0.31c-0.165-0.04-1.16-0.245-1.16-0.245c-0.226-0.04-0.458-0.072-0.688-0.104
		c0,0-0.562-0.081-0.598-0.084v8.649c1.765-2.535,3.185-5.107,4.241-7.69C59.451,63.548,58.84,63.347,58.84,63.347z"/>
	<path d="M67.364,68.457l-0.408-0.395c-0.148-0.139-0.302-0.28-0.458-0.418c-0.144-0.128-0.281-0.249-0.423-0.368
		c-0.162-0.136-0.322-0.266-0.482-0.392l-0.45-0.347c-0.171-0.128-0.341-0.249-0.512-0.371l-0.45-0.305
		c-0.168-0.113-0.495-0.316-0.501-0.319c-1.276,3.095-3.014,6.165-5.185,9.17c3.652-0.889,6.999-2.654,9.846-5.203
		c-0.052-0.061-0.542-0.599-0.542-0.599C67.658,68.757,67.512,68.606,67.364,68.457z"/>
	<path d="M52.932,19.696c-17.913,0-32.482,14.573-32.482,32.482c0,17.913,14.569,32.484,32.482,32.484
		c17.912,0,32.482-14.571,32.482-32.484C85.414,34.269,70.843,19.696,52.932,19.696z M73.153,71.309
		c-5.317,5.62-12.499,8.714-20.221,8.714c-7.701,0-14.867-3.079-20.183-8.671c-4.939-5.199-7.661-12.006-7.661-19.171
		c0-6.733,2.443-13.234,6.876-18.307c5.294-6.06,12.936-9.536,20.968-9.536c7.27,0,14.153,2.791,19.377,7.859
		c5.451,5.287,8.458,12.374,8.464,19.956C80.773,59.322,78.067,66.115,73.153,71.309z"/>
	<path d="M65.211,61.044c0.075,0.043,0.777,0.455,0.777,0.455c0.232,0.142,0.456,0.286,0.681,0.432
		c0.18,0.118,0.36,0.237,0.541,0.363c0.214,0.146,0.431,0.305,0.65,0.469c0.162,0.121,0.336,0.249,0.507,0.383
		c0.186,0.145,0.768,0.627,0.768,0.627l0.343,0.293c0.215,0.191,0.416,0.375,0.614,0.562l0.452,0.431
		c0.205,0.203,0.397,0.406,0.589,0.609l0.373,0.394c2.548-3.391,4.085-7.337,4.502-11.557h-9.696
		C66.161,56.695,65.793,58.886,65.211,61.044z"/>
	<path d="M56.628,41.273c0,0,1.003-0.279,1.183-0.336c0,0,0.983-0.337,1.167-0.407l0.42-0.173c-1.235-3.011-2.77-5.559-4.142-7.508
		v8.718c0.053-0.008,0.861-0.177,0.861-0.177C56.287,41.353,56.458,41.316,56.628,41.273z"/>
	<path d="M60.858,44.785c-0.085,0.034-0.171,0.068-0.26,0.102c-0.229,0.087-0.91,0.324-0.91,0.324l-0.513,0.172
		c-0.267,0.084-0.536,0.159-0.805,0.234l-0.655,0.177c-0.226,0.056-0.458,0.106-0.691,0.155l-0.792,0.168
		c-0.264,0.047-0.531,0.087-0.798,0.127l-0.179,0.027v3.583h6.469C61.585,48.187,61.295,46.489,60.858,44.785z"/>
	<path d="M56.464,58.078c0.286,0.04,0.577,0.083,0.867,0.134c0.156,0.026,0.321,0.061,0.489,0.096c0.381,0.078,0.656,0.134,0.93,0.2
		c0.172,0.04,0.34,0.085,0.511,0.133c0.37,0.098,0.632,0.167,0.889,0.246c0,0,0.696,0.225,0.797,0.258
		c0.389-1.559,0.65-3.11,0.782-4.64h-6.473v3.429c0.214,0.019,0.423,0.037,0.632,0.061L56.464,58.078z"/>
</g>
</svg>
