<?xml version="1.0" encoding="utf-8"?>
<!-- Generator: Adobe Illustrator 16.0.0, SVG Export Plug-In . SVG Version: 6.00 Build 0)  -->
<!DOCTYPE svg PUBLIC "-//W3C//DTD SVG 1.1//EN" "http://www.w3.org/Graphics/SVG/1.1/DTD/svg11.dtd">
<svg version="1.1" id="Layer_1" xmlns="http://www.w3.org/2000/svg" xmlns:xlink="http://www.w3.org/1999/xlink" x="0px" y="0px"
	 width="100px" height="100px" viewBox="0 0 100 100" enable-background="new 0 0 100 100" xml:space="preserve">
<path d="M61.368,25.154c-15.113,0-27.409,12.296-27.409,27.41c0,15.113,12.296,27.408,27.409,27.408
	c15.113,0,27.409-12.295,27.409-27.408C88.777,37.45,76.481,25.154,61.368,25.154z M78.097,46.327l-15.31,15.309
	c-0.393,0.391-0.908,0.588-1.419,0.588c-0.515,0-1.027-0.197-1.418-0.588L44.641,46.327c-0.784-0.785-0.784-2.055,0-2.837
	c0.783-0.785,2.052-0.785,2.835,0l13.892,13.894L75.261,43.49c0.783-0.785,2.052-0.785,2.836,0
	C78.88,44.272,78.88,45.542,78.097,46.327z"/>
</svg>
