<?xml version="1.0" encoding="utf-8"?>
<!-- Generator: Adobe Illustrator 16.0.0, SVG Export Plug-In . SVG Version: 6.00 Build 0)  -->
<!DOCTYPE svg PUBLIC "-//W3C//DTD SVG 1.1//EN" "http://www.w3.org/Graphics/SVG/1.1/DTD/svg11.dtd">
<svg version="1.1" id="Layer_1" xmlns="http://www.w3.org/2000/svg" xmlns:xlink="http://www.w3.org/1999/xlink" x="0px" y="0px"
	 width="100px" height="100px" viewBox="0 0 100 100" enable-background="new 0 0 100 100" xml:space="preserve">
<g>
	<path d="M46.222,55.236c0,1.104-0.896,2-2,2c-1.105,0-2-0.896-2-2v-1.732h-2v1.732c0,1.104-0.896,2-2,2c-1.105,0-2-0.896-2-2
		v-1.732h-4.666c1.16,9.473,8.791,16.971,18.332,17.898v-4.565h-2.066c-1.104,0-2-0.896-2-2s0.896-2,2-2h2.066v-2h-2.066
		c-1.104,0-2-0.896-2-2s0.896-2,2-2h2.066v-3.333h-3.666V55.236z"/>
	<path d="M67.554,55.236c0,1.104-0.895,2-2,2c-1.104,0-2-0.896-2-2v-1.732h-2v1.732c0,1.104-0.895,2-2,2c-1.104,0-2-0.896-2-2
		v-1.732h-3.666v3.333h2.066c1.104,0,2,0.896,2,2s-0.896,2-2,2h-2.066v2h2.066c1.104,0,2,0.896,2,2s-0.896,2-2,2h-2.066v4.565
		c9.541-0.928,17.172-8.426,18.332-17.898h-4.666V55.236z"/>
	<path d="M31.464,49.504h4.758v-2.4c0-1.104,0.895-2,2-2c1.104,0,2,0.896,2,2v2.4h2v-2.4c0-1.104,0.895-2,2-2c1.104,0,2,0.896,2,2
		v2.4h3.666v-4h-2.066c-1.104,0-2-0.896-2-2s0.896-2,2-2h2.066v-2h-2.066c-1.104,0-2-0.896-2-2s0.896-2,2-2h2.066v-4.898
		C40.014,31.566,32.188,39.563,31.464,49.504z"/>
	<path d="M53.888,30.605v4.898h2.066c1.104,0,2,0.896,2,2s-0.896,2-2,2h-2.066v2h2.066c1.104,0,2,0.896,2,2s-0.896,2-2,2h-2.066v4
		h3.666v-2.4c0-1.104,0.896-2,2-2c1.105,0,2,0.896,2,2v2.4h2v-2.4c0-1.104,0.896-2,2-2c1.105,0,2,0.896,2,2v2.4h4.758
		C71.587,39.563,63.762,31.566,53.888,30.605z"/>
	<path d="M51.888,18.71c-18.082,0-32.793,14.711-32.793,32.793c0,18.083,14.711,32.794,32.793,32.794
		c18.083,0,32.794-14.711,32.794-32.794C84.682,33.421,69.971,18.71,51.888,18.71z M81.388,53.504h-5.127
		c-1.189,11.684-10.623,20.957-22.373,21.912v5.588c0,1.104-0.896,2-2,2s-2-0.896-2-2v-5.588
		c-11.75-0.955-21.184-10.229-22.373-21.912h-5.127c-1.104,0-2-0.896-2-2s0.896-2,2-2h5.051
		c0.737-12.149,10.367-21.93,22.449-22.912v-4.588c0-1.104,0.896-2,2-2s2,0.896,2,2v4.588C65.97,27.574,75.6,37.354,76.337,49.504
		h5.051c1.104,0,2,0.896,2,2S82.492,53.504,81.388,53.504z"/>
</g>
</svg>
