<?xml version="1.0" encoding="utf-8"?>
<!-- Generator: Adobe Illustrator 16.0.0, SVG Export Plug-In . SVG Version: 6.00 Build 0)  -->
<!DOCTYPE svg PUBLIC "-//W3C//DTD SVG 1.1//EN" "http://www.w3.org/Graphics/SVG/1.1/DTD/svg11.dtd">
<svg version="1.1" id="Layer_1" xmlns="http://www.w3.org/2000/svg" xmlns:xlink="http://www.w3.org/1999/xlink" x="0px" y="0px"
	 width="100px" height="100px" viewBox="0 0 100 100" enable-background="new 0 0 100 100" xml:space="preserve">
<g>
	<path fill="none" d="M42.828,33.529l2.281,16.16l3.414-6.917c0.363-0.74,1.117-1.209,1.943-1.209s1.579,0.469,1.943,1.209
		l3.34,6.767l2.258-16.01H42.828z"/>
	<path d="M45.109,49.689l-2.281-16.16h15.18l-2.258,16.01l0.466,0.942l3.705,0.54l2.731-19.356c0.088-0.623-0.1-1.252-0.512-1.726
		s-1.008-0.746-1.637-0.746h-20.17c-0.629,0-1.227,0.272-1.639,0.746c-0.41,0.474-0.597,1.103-0.509,1.726l2.732,19.368l3.798-0.552
		L45.109,49.689z"/>
	<path d="M66.475,54.638c-0.256-0.785-0.935-1.356-1.75-1.475l-4.804-0.697l-3.705-0.539l-0.466-0.943l-3.34-6.767
		c-0.364-0.74-1.117-1.209-1.943-1.209s-1.58,0.469-1.943,1.209l-3.414,6.918l-0.393,0.792l-3.798,0.552l-4.71,0.685
		c-0.816,0.118-1.494,0.689-1.75,1.475c-0.254,0.785-0.043,1.647,0.55,2.224l6.155,6l-1.451,8.474
		c-0.141,0.814,0.193,1.636,0.86,2.121c0.378,0.273,0.825,0.414,1.276,0.414c0.344,0,0.691-0.082,1.008-0.249l7.609-4.001
		l7.609,4.001c0.73,0.383,1.615,0.319,2.283-0.165c0.668-0.485,1.003-1.307,0.863-2.121l-1.453-8.474l6.156-6
		C66.518,56.286,66.729,55.423,66.475,54.638z"/>
</g>
</svg>
