<?xml version="1.0" encoding="utf-8"?>
<!-- Generator: Adobe Illustrator 16.0.0, SVG Export Plug-In . SVG Version: 6.00 Build 0)  -->
<!DOCTYPE svg PUBLIC "-//W3C//DTD SVG 1.1//EN" "http://www.w3.org/Graphics/SVG/1.1/DTD/svg11.dtd">
<svg version="1.1" id="Layer_1" xmlns="http://www.w3.org/2000/svg" xmlns:xlink="http://www.w3.org/1999/xlink" x="0px" y="0px"
	 width="100px" height="100px" viewBox="0 0 100 100" enable-background="new 0 0 100 100" xml:space="preserve">
<g>
	<path d="M42.589,31.847h-0.569c1.728-2.01,2.781-4.615,2.781-7.467c0-6.332-5.152-11.482-11.481-11.482
		c-6.331,0-11.48,5.15-11.48,11.482c0,2.852,1.052,5.457,2.781,7.467h-0.57c-3.196,0-5.794,2.602-5.794,5.797v19.045
		c0,3.195,2.599,5.795,5.794,5.795h0.225v20.828c0,3.307,1.737,5.797,4.045,5.797h9.998c2.308,0,4.05-2.49,4.05-5.797V62.483h0.222
		c3.194,0,5.795-2.6,5.795-5.795V37.644C48.385,34.448,45.784,31.847,42.589,31.847z"/>
	<path d="M76.205,31.847h-0.57c1.729-2.01,2.781-4.615,2.781-7.467c0-6.332-5.15-11.482-11.481-11.482
		c-6.329,0-11.481,5.15-11.481,11.482c0,2.852,1.054,5.457,2.782,7.467h-0.568c-3.196,0-5.794,2.602-5.794,5.797v19.045
		c0,3.195,2.599,5.795,5.794,5.795h0.221v20.828c0,3.307,1.741,5.797,4.048,5.797h9.998c2.308,0,4.048-2.49,4.048-5.797V62.483
		h0.223c3.194,0,5.794-2.6,5.794-5.795V37.644C81.999,34.448,79.399,31.847,76.205,31.847z"/>
</g>
</svg>
