<?xml version="1.0" encoding="utf-8"?>
<!-- Generator: Adobe Illustrator 16.0.0, SVG Export Plug-In . SVG Version: 6.00 Build 0)  -->
<!DOCTYPE svg PUBLIC "-//W3C//DTD SVG 1.1//EN" "http://www.w3.org/Graphics/SVG/1.1/DTD/svg11.dtd">
<svg version="1.1" id="Layer_1" xmlns="http://www.w3.org/2000/svg" xmlns:xlink="http://www.w3.org/1999/xlink" x="0px" y="0px"
	 width="100px" height="100px" viewBox="0 0 100 100" enable-background="new 0 0 100 100" xml:space="preserve">
<g>
	<path d="M52.528,52.269c-1.323,0.371-2.091,1.323-2.091,2.567c-0.027,1.243,0.926,2.409,2.434,2.409
		c1.431,0,2.357-0.928,2.357-2.145C55.228,53.592,54.116,52.692,52.528,52.269z"/>
	<path d="M52.831,25.187c-14.304,0-25.941,11.64-25.941,25.943c0,14.305,11.637,25.944,25.941,25.944
		c14.305,0,25.944-11.64,25.944-25.944C78.775,36.827,67.136,25.187,52.831,25.187z M52.831,65.548
		c-7.95,0-14.417-6.468-14.417-14.418c0-7.949,6.467-14.417,14.417-14.417s14.417,6.468,14.417,14.417
		C67.249,59.081,60.781,65.548,52.831,65.548z"/>
	<path d="M53.136,49.279c0.926-0.266,1.747-1.112,1.747-2.196c0-1.059-0.609-2.117-2.092-2.117c-1.375,0-2.089,0.899-2.089,1.984
		C50.703,48.115,51.761,48.855,53.136,49.279z"/>
	<path d="M52.831,41.049c-5.559,0-10.081,4.522-10.081,10.081s4.522,10.082,10.081,10.082s10.081-4.523,10.081-10.082
		S58.39,41.049,52.831,41.049z M52.712,60.023c-4.367,0-6.377-2.461-6.377-4.79c0-2.063,1.191-3.492,3.068-4.313V50.84
		c-1.666-0.847-2.487-2.25-2.487-3.758c0-2.912,2.62-4.845,6.061-4.845c4.023,0,5.69,2.329,5.69,4.422
		c0,1.481-0.795,2.937-2.489,3.784v0.079c1.668,0.635,3.151,2.064,3.151,4.286C59.33,57.933,56.71,60.023,52.712,60.023z"/>
</g>
</svg>
