<?xml version="1.0" encoding="utf-8"?>
<!-- Generator: Adobe Illustrator 16.0.0, SVG Export Plug-In . SVG Version: 6.00 Build 0)  -->
<!DOCTYPE svg PUBLIC "-//W3C//DTD SVG 1.1//EN" "http://www.w3.org/Graphics/SVG/1.1/DTD/svg11.dtd">
<svg version="1.1" id="Layer_1" xmlns="http://www.w3.org/2000/svg" xmlns:xlink="http://www.w3.org/1999/xlink" x="0px" y="0px"
	 width="100px" height="100px" viewBox="0 0 100 100" enable-background="new 0 0 100 100" xml:space="preserve">
<path d="M79.435,26.692H30.892c-2.914,0-5.279,2.366-5.279,5.277v30.454c0,2.911,2.365,5.277,5.279,5.277h8.903
	c-0.599,1.344-0.602,2.896,0.079,4.24c0.844,1.657,2.547,2.705,4.406,2.705h21.762c1.859,0,3.563-1.048,4.406-2.705
	c0.36-0.709,0.537-1.474,0.537-2.24c0-0.686-0.154-1.365-0.435-2h8.884c2.912,0,5.279-2.366,5.279-5.277V31.97
	C84.714,29.059,82.347,26.692,79.435,26.692z"/>
</svg>
