<?xml version="1.0" encoding="utf-8"?>
<!-- Generator: Adobe Illustrator 16.0.0, SVG Export Plug-In . SVG Version: 6.00 Build 0)  -->
<!DOCTYPE svg PUBLIC "-//W3C//DTD SVG 1.1//EN" "http://www.w3.org/Graphics/SVG/1.1/DTD/svg11.dtd">
<svg version="1.1" id="Layer_1" xmlns="http://www.w3.org/2000/svg" xmlns:xlink="http://www.w3.org/1999/xlink" x="0px" y="0px"
	 width="100px" height="100px" viewBox="0 0 100 100" enable-background="new 0 0 100 100" xml:space="preserve">
<path d="M64.296,63.981c-4.424-7.485-5.952-11.581-5.999-14.521c0.002-0.031,0.009-0.061,0.009-0.093
	c0-0.036-0.008-0.071-0.01-0.106c0.015-2.246,0.906-3.823,2.014-5.778c5.359-9.453,2.259-15.118,2.124-15.355
	c-0.153-0.269-0.386-0.483-0.665-0.615c-0.693-0.326-1.408-0.56-2.135-0.713v-4.181c0-0.828-0.672-1.5-1.5-1.5s-1.5,0.672-1.5,1.5
	v4.049c-3.383,0.372-6.161,2.398-7.629,3.717c-1.398-1.256-3.982-3.163-7.147-3.664v-4.102c0-0.828-0.671-1.5-1.5-1.5
	s-1.5,0.672-1.5,1.5v4.1c-0.894,0.141-1.771,0.396-2.616,0.794c-0.279,0.132-0.512,0.347-0.665,0.615
	c-0.135,0.237-3.235,5.902,2.124,15.355c1.116,1.97,2.014,3.556,2.016,5.829c-0.001,0.019-0.006,0.036-0.006,0.056
	c0,0.015,0.004,0.029,0.004,0.044c-0.031,2.943-1.553,7.043-6,14.568c-3.555,6.014-5.01,12.558-4.582,20.594
	c0.043,0.796,0.701,1.42,1.498,1.42h36.75c0.797,0,1.455-0.624,1.498-1.42C69.306,76.538,67.851,69.994,64.296,63.981z"/>
</svg>
