<?xml version="1.0" encoding="utf-8"?>
<!-- Generator: Adobe Illustrator 16.0.0, SVG Export Plug-In . SVG Version: 6.00 Build 0)  -->
<!DOCTYPE svg PUBLIC "-//W3C//DTD SVG 1.1//EN" "http://www.w3.org/Graphics/SVG/1.1/DTD/svg11.dtd">
<svg version="1.1" id="Layer_1" xmlns="http://www.w3.org/2000/svg" xmlns:xlink="http://www.w3.org/1999/xlink" x="0px" y="0px"
	 width="100px" height="100px" viewBox="0 0 100 100" enable-background="new 0 0 100 100" xml:space="preserve">
<path d="M49.792,19.173c-15.357,0-27.851,12.494-27.851,27.852s12.493,27.851,27.851,27.851s27.852-12.493,27.852-27.851
	S65.149,19.173,49.792,19.173z M61.171,41.53l-3.051,3.054c-0.713,0.712-1.861,0.712-2.571,0l-1.096-1.095
	c-0.099-0.099-0.22-0.152-0.347-0.186c-1.01-0.749-2.438-0.676-3.353,0.237l-4.443,4.444c-0.916,0.914-0.989,2.344-0.238,3.352
	c0.034,0.127,0.088,0.247,0.185,0.347l1.098,1.096c0.709,0.71,0.711,1.861,0,2.569l-3.053,3.055c-0.713,0.711-1.861,0.711-2.572,0
	l-2.192-2.193c-2.72-2.717-2.718-7.141,0-9.859l9.583-9.582c2.718-2.717,7.141-2.717,9.859,0l2.191,2.191
	C61.883,39.672,61.883,40.821,61.171,41.53z"/>
</svg>
