<?xml version="1.0" encoding="utf-8"?>
<!-- Generator: Adobe Illustrator 16.0.0, SVG Export Plug-In . SVG Version: 6.00 Build 0)  -->
<!DOCTYPE svg PUBLIC "-//W3C//DTD SVG 1.1//EN" "http://www.w3.org/Graphics/SVG/1.1/DTD/svg11.dtd">
<svg version="1.1" id="Layer_1" xmlns="http://www.w3.org/2000/svg" xmlns:xlink="http://www.w3.org/1999/xlink" x="0px" y="0px"
	 width="100px" height="100px" viewBox="0 0 100 100" enable-background="new 0 0 100 100" xml:space="preserve">
<g>
	<path d="M70.408,52.21l3.201-5.802c0.492-0.891,0.605-1.92,0.324-2.896c-0.283-0.977-0.928-1.785-1.816-2.276
		c-0.563-0.311-1.197-0.475-1.838-0.475c-0.803,0-1.572,0.253-2.205,0.701c-3.357-6.664-10.188-10.965-17.816-10.965
		c-11.012,0-19.969,8.958-19.969,19.969c0,1.527,0.908,2.839,2.211,3.444c0.605-0.482,1.336-0.8,2.133-0.848
		c0.305-0.077,0.596-0.113,0.883-0.113c0.436,0,0.846,0.096,1.24,0.233c0.705-0.692,1.146-1.652,1.146-2.717
		c0-6.812,5.543-12.354,12.355-12.354c4.111,0,7.877,2.05,10.146,5.328c-1.049,0.239-1.965,0.912-2.494,1.875
		c-0.492,0.891-0.605,1.919-0.324,2.896c0.283,0.977,0.928,1.784,1.818,2.276l3.896,2.148c0.463,0.671,1.125,1.144,1.879,1.404
		c0.688-0.673,1.625-1.091,2.66-1.091c0.572,0,1.111,0.137,1.6,0.364C69.82,53.009,70.162,52.651,70.408,52.21z M67.072,52.538
		c-0.012,0-0.023-0.004-0.035-0.004c-0.197,0.06-0.402,0.101-0.617,0.101c-0.855,0-1.588-0.5-1.941-1.22l-4.283-2.363
		c-1.047-0.578-1.43-1.896-0.85-2.945c0.578-1.051,1.9-1.429,2.945-0.852l1.184,0.653c-1.896-5.482-7.098-9.436-13.217-9.436
		c-7.717,0-13.994,6.276-13.994,13.993c0,1.197-0.971,2.169-2.168,2.169s-2.168-0.972-2.168-2.169c0-10.107,8.223-18.33,18.33-18.33
		c8.127,0,15.023,5.317,17.42,12.653l0.699-1.269c0.58-1.049,1.902-1.429,2.947-0.852c1.047,0.579,1.43,1.898,0.85,2.946
		l-3.201,5.803C68.576,52.135,67.836,52.538,67.072,52.538z"/>
	<path d="M66.42,54.273c-0.436,0-0.846-0.097-1.24-0.233c-0.705,0.691-1.146,1.651-1.146,2.716c0,6.813-5.543,12.355-12.355,12.355
		c-4.111,0-7.877-2.05-10.146-5.329c1.049-0.236,1.963-0.911,2.496-1.874c0.49-0.891,0.605-1.92,0.322-2.896
		c-0.281-0.977-0.926-1.784-1.816-2.276l-3.898-2.15c-0.465-0.67-1.127-1.142-1.879-1.402c-0.688,0.673-1.625,1.091-2.66,1.091
		c-0.572,0-1.109-0.136-1.596-0.363c-0.383,0.306-0.727,0.661-0.971,1.103l-3.201,5.802c-0.492,0.891-0.607,1.919-0.324,2.896
		c0.281,0.978,0.928,1.785,1.816,2.276c0.561,0.311,1.197,0.475,1.84,0.475c0.803,0,1.57-0.253,2.203-0.702
		c3.357,6.664,10.186,10.965,17.814,10.965c11.012,0,19.969-8.957,19.969-19.969c0-1.525-0.908-2.836-2.207-3.442
		c-0.621,0.498-1.371,0.821-2.188,0.859C66.967,54.241,66.691,54.273,66.42,54.273z M70.008,56.756
		c0,10.108-8.223,18.33-18.33,18.33c-8.125,0-15.021-5.317-17.418-12.651l-0.701,1.268c-0.395,0.717-1.135,1.121-1.898,1.121
		c-0.355,0-0.715-0.086-1.047-0.27c-1.049-0.579-1.43-1.898-0.852-2.946l3.203-5.803c0.398-0.72,1.146-1.115,1.914-1.11
		c0.203-0.063,0.414-0.106,0.637-0.106c0.854,0,1.586,0.5,1.939,1.218l4.285,2.365c1.049,0.578,1.43,1.896,0.852,2.945
		c-0.395,0.717-1.137,1.121-1.9,1.121c-0.354,0-0.713-0.086-1.045-0.27l-1.186-0.654c1.896,5.482,7.098,9.437,13.217,9.437
		c7.717,0,13.994-6.277,13.994-13.994c0-1.196,0.971-2.168,2.168-2.168S70.008,55.56,70.008,56.756z"/>
</g>
</svg>
