<?xml version="1.0" encoding="utf-8"?>
<!-- Generator: Adobe Illustrator 16.0.0, SVG Export Plug-In . SVG Version: 6.00 Build 0)  -->
<!DOCTYPE svg PUBLIC "-//W3C//DTD SVG 1.1//EN" "http://www.w3.org/Graphics/SVG/1.1/DTD/svg11.dtd">
<svg version="1.1" id="Layer_1" xmlns="http://www.w3.org/2000/svg" xmlns:xlink="http://www.w3.org/1999/xlink" x="0px" y="0px"
	 width="100px" height="100px" viewBox="0 0 100 100" enable-background="new 0 0 100 100" xml:space="preserve">
<g>
	<path d="M70.266,46.988c1.188,0,2.152-0.963,2.152-2.15V31.754c0-1.188-0.964-2.15-2.152-2.15H56.301V28.17
		c0-1.188-0.964-2.152-2.151-2.152c-1.188,0-2.15,0.965-2.15,2.152v1.434h-9.308c-0.683,0-1.326,0.326-1.732,0.877l-4.66,6.35
		c-0.544,0.74-0.558,1.742-0.034,2.498l4.661,6.734c0.4,0.58,1.061,0.926,1.766,0.926h9.308v0.807H38.032
		c-1.188,0-2.151,0.963-2.151,2.152v13.084c0,1.188,0.964,2.15,2.151,2.15h13.967v6.541h-6.005c-1.188,0-2.15,0.965-2.15,2.152
		s0.963,2.15,2.15,2.15h16.311c1.188,0,2.151-0.963,2.151-2.15s-0.964-2.152-2.151-2.152h-6.004v-6.541h9.306
		c0.683,0,1.328-0.326,1.734-0.879L72,57.953c0.544-0.74,0.558-1.742,0.033-2.496l-4.66-6.734c-0.399-0.582-1.061-0.928-1.767-0.928
		h-9.306v-0.807H70.266z"/>
</g>
</svg>
