<?xml version="1.0" encoding="utf-8"?>
<!-- Generator: Adobe Illustrator 16.0.0, SVG Export Plug-In . SVG Version: 6.00 Build 0)  -->
<!DOCTYPE svg PUBLIC "-//W3C//DTD SVG 1.1//EN" "http://www.w3.org/Graphics/SVG/1.1/DTD/svg11.dtd">
<svg version="1.1" id="Layer_1" xmlns="http://www.w3.org/2000/svg" xmlns:xlink="http://www.w3.org/1999/xlink" x="0px" y="0px"
	 width="100px" height="100px" viewBox="0 0 100 100" enable-background="new 0 0 100 100" xml:space="preserve">
<path d="M84.625,47.786h-4.48c-0.502-5.399-2.639-10.328-5.92-14.282l3.17-3.172c0.955-0.953,0.955-2.497,0-3.451
	c-0.952-0.952-2.498-0.952-3.45,0l-3.171,3.172c-3.953-3.283-8.883-5.42-14.283-5.92v-4.48c0-1.348-1.093-2.44-2.439-2.44
	c-1.35,0-2.44,1.093-2.44,2.44v4.48c-5.4,0.5-10.33,2.637-14.284,5.92l-3.17-3.172c-0.954-0.952-2.498-0.952-3.451,0
	c-0.954,0.954-0.954,2.498,0,3.451l3.171,3.172c-3.282,3.954-5.418,8.883-5.921,14.282h-4.479c-1.35,0-2.44,1.095-2.44,2.441
	s1.091,2.44,2.44,2.44h4.479c0.503,5.399,2.639,10.329,5.924,14.281l-3.174,3.171c-0.953,0.954-0.953,2.498,0,3.452
	c0.477,0.477,1.102,0.715,1.726,0.715s1.249-0.238,1.726-0.715L37.33,70.4c3.95,3.283,8.88,5.419,14.28,5.92v4.481
	c0,1.347,1.091,2.44,2.44,2.44c1.347,0,2.439-1.094,2.439-2.44V76.32c5.4-0.501,10.33-2.637,14.281-5.92l3.173,3.172
	c0.476,0.477,1.102,0.715,1.727,0.715c0.624,0,1.248-0.238,1.724-0.715c0.955-0.954,0.955-2.498,0-3.452l-3.172-3.171
	c3.283-3.953,5.42-8.882,5.922-14.281h4.48c1.35,0,2.441-1.094,2.441-2.44S85.975,47.786,84.625,47.786z M54.051,58.789
	c-4.723,0-8.564-3.84-8.564-8.562s3.842-8.563,8.564-8.563c4.721,0,8.562,3.842,8.562,8.563S58.771,58.789,54.051,58.789z"/>
</svg>
