<?xml version="1.0" encoding="utf-8"?>
<!-- Generator: Adobe Illustrator 16.0.0, SVG Export Plug-In . SVG Version: 6.00 Build 0)  -->
<!DOCTYPE svg PUBLIC "-//W3C//DTD SVG 1.1//EN" "http://www.w3.org/Graphics/SVG/1.1/DTD/svg11.dtd">
<svg version="1.1" id="Layer_1" xmlns="http://www.w3.org/2000/svg" xmlns:xlink="http://www.w3.org/1999/xlink" x="0px" y="0px"
	 width="100px" height="100px" viewBox="0 0 100 100" enable-background="new 0 0 100 100" xml:space="preserve">
<g>
	<path d="M75.77,29.838H35.124c-1.188,0-2.152,0.963-2.152,2.15v40.645c0,1.188,0.964,2.151,2.152,2.151H75.77
		c1.188,0,2.15-0.963,2.15-2.151V31.989C77.92,30.801,76.957,29.838,75.77,29.838z M47.924,64.606l-1.367,1.332l0.322,1.881
		c0.093,0.538-0.128,1.082-0.57,1.402c-0.25,0.181-0.546,0.273-0.843,0.273c-0.229,0-0.457-0.055-0.668-0.165l-1.688-0.888
		l-1.688,0.888c-0.481,0.254-1.066,0.212-1.511-0.108c-0.44-0.321-0.663-0.865-0.57-1.402l0.322-1.881l-1.366-1.332
		c-0.391-0.381-0.53-0.949-0.363-1.469c0.168-0.52,0.618-0.897,1.157-0.976l1.89-0.276l0.844-1.709c0.481-0.98,2.089-0.98,2.57,0
		l0.846,1.709l1.888,0.276c0.54,0.079,0.989,0.457,1.157,0.976S48.313,64.225,47.924,64.606z M47.924,53.135l-1.367,1.332
		l0.322,1.881c0.093,0.538-0.128,1.082-0.57,1.402c-0.25,0.181-0.546,0.273-0.843,0.273c-0.229,0-0.457-0.055-0.668-0.165
		L43.11,56.97l-1.688,0.888c-0.481,0.255-1.066,0.212-1.511-0.108c-0.44-0.321-0.663-0.865-0.57-1.402l0.322-1.881l-1.366-1.332
		c-0.391-0.381-0.53-0.949-0.363-1.469c0.168-0.52,0.618-0.897,1.157-0.976l1.89-0.276l0.844-1.709c0.481-0.98,2.089-0.98,2.57,0
		l0.846,1.709l1.888,0.276c0.54,0.079,0.989,0.457,1.157,0.976S48.313,52.754,47.924,53.135z M47.924,41.664l-1.367,1.332
		l0.322,1.881c0.093,0.537-0.128,1.083-0.57,1.403c-0.25,0.18-0.546,0.272-0.843,0.272c-0.229,0-0.457-0.055-0.668-0.165
		l-1.688-0.888l-1.688,0.888c-0.481,0.254-1.066,0.211-1.511-0.107c-0.44-0.321-0.663-0.866-0.57-1.403l0.322-1.881l-1.366-1.332
		c-0.391-0.381-0.53-0.949-0.363-1.469c0.168-0.52,0.618-0.897,1.157-0.977l1.89-0.275l0.844-1.709c0.481-0.98,2.089-0.98,2.57,0
		l0.846,1.709l1.888,0.275c0.54,0.079,0.989,0.457,1.157,0.977S48.313,41.283,47.924,41.664z M67.072,65.87H51.036
		c-0.793,0-1.434-0.642-1.434-1.434c0-0.793,0.641-1.434,1.434-1.434h16.036c0.792,0,1.435,0.641,1.435,1.434
		C68.507,65.228,67.864,65.87,67.072,65.87z M67.072,54.398H51.036c-0.793,0-1.434-0.642-1.434-1.434
		c0-0.793,0.641-1.434,1.434-1.434h16.036c0.792,0,1.435,0.641,1.435,1.434C68.507,53.756,67.864,54.398,67.072,54.398z
		 M67.072,42.927H51.036c-0.793,0-1.434-0.642-1.434-1.434c0-0.792,0.641-1.434,1.434-1.434h16.036c0.792,0,1.435,0.642,1.435,1.434
		C68.507,42.285,67.864,42.927,67.072,42.927z"/>
	<path d="M43.11,37.868l-1.177,2.386l-2.635,0.384l1.905,1.857l-0.449,2.624l2.355-1.239l2.355,1.239l-0.449-2.624l1.905-1.857
		l-2.633-0.384L43.11,37.868z M43.583,42.525c-0.152-0.054-0.313-0.08-0.473-0.08s-0.318,0.026-0.471,0.08
		c0.006-0.323-0.098-0.64-0.294-0.899c0.312-0.093,0.579-0.288,0.765-0.555c0.186,0.267,0.453,0.462,0.765,0.555
		C43.679,41.885,43.575,42.202,43.583,42.525z"/>
	<path d="M43.11,49.339l-1.177,2.386l-2.635,0.384l1.905,1.857l-0.449,2.624l2.355-1.239l2.355,1.239l-0.449-2.624l1.905-1.857
		l-2.633-0.384L43.11,49.339z M43.583,53.996c-0.152-0.053-0.313-0.08-0.473-0.08s-0.318,0.026-0.471,0.08
		c0.006-0.324-0.098-0.641-0.294-0.899c0.312-0.092,0.579-0.288,0.765-0.554c0.186,0.266,0.453,0.462,0.765,0.554
		C43.679,53.355,43.575,53.672,43.583,53.996z"/>
	<path d="M43.11,60.81l-1.177,2.386l-2.635,0.383l1.905,1.857l-0.449,2.625l2.355-1.24l2.355,1.24l-0.449-2.625l1.905-1.857
		l-2.633-0.383L43.11,60.81z M43.583,65.467c-0.152-0.053-0.313-0.08-0.473-0.08s-0.318,0.026-0.471,0.08
		c0.006-0.324-0.098-0.641-0.294-0.899c0.312-0.092,0.579-0.288,0.765-0.554c0.186,0.266,0.453,0.462,0.765,0.554
		C43.679,64.827,43.575,65.144,43.583,65.467z"/>
</g>
</svg>
