<?xml version="1.0" encoding="utf-8"?>
<!-- Generator: Adobe Illustrator 16.0.0, SVG Export Plug-In . SVG Version: 6.00 Build 0)  -->
<!DOCTYPE svg PUBLIC "-//W3C//DTD SVG 1.1//EN" "http://www.w3.org/Graphics/SVG/1.1/DTD/svg11.dtd">
<svg version="1.1" id="Layer_1" xmlns="http://www.w3.org/2000/svg" xmlns:xlink="http://www.w3.org/1999/xlink" x="0px" y="0px"
	 width="100px" height="100px" viewBox="0 0 100 100" enable-background="new 0 0 100 100" xml:space="preserve">
<path d="M68.073,62.348l2.215-2.215c0.847-0.847,0.847-2.219,0-3.065c-0.845-0.847-2.219-0.847-3.066,0l-0.426,0.426l-6.375-6.375
	l14.663-14.663l-2.069-7.3l-7.299-2.068L51.051,41.749L36.386,27.085l-7.299,2.068l-2.069,7.3l14.666,14.665l-6.377,6.378
	l-0.426-0.426c-0.847-0.847-2.22-0.847-3.066,0c-0.847,0.845-0.847,2.219,0,3.065l2.213,2.215l-7.836,7.835l5.792,5.793l7.837-7.837
	l2.213,2.215c0.847,0.848,2.22,0.848,3.066,0c0.847-0.846,0.847-2.219,0-3.065l-0.426-0.427l6.378-6.378l6.376,6.376l-0.426,0.426
	c-0.847,0.847-0.847,2.221,0,3.065c0.846,0.848,2.219,0.848,3.066,0l2.214-2.214l7.835,7.836l5.793-5.791L68.073,62.348z"/>
</svg>
