<?xml version="1.0" encoding="utf-8"?>
<!-- Generator: Adobe Illustrator 16.0.0, SVG Export Plug-In . SVG Version: 6.00 Build 0)  -->
<!DOCTYPE svg PUBLIC "-//W3C//DTD SVG 1.1//EN" "http://www.w3.org/Graphics/SVG/1.1/DTD/svg11.dtd">
<svg version="1.1" id="Layer_1" xmlns="http://www.w3.org/2000/svg" xmlns:xlink="http://www.w3.org/1999/xlink" x="0px" y="0px"
	 width="100px" height="100px" viewBox="0 0 100 100" enable-background="new 0 0 100 100" xml:space="preserve">
<path d="M73.006,35.238h-2.047c-0.352-0.959-0.838-2.039-1.563-3.247c-0.408-0.679-1.288-0.899-1.968-0.491
	c-0.678,0.408-0.9,1.288-0.49,1.967c0.397,0.663,0.693,1.265,0.946,1.831c-0.255,0.109-0.435,0.362-0.435,0.658v11.202
	c0,0.396,0.32,0.716,0.718,0.716h0.716v18.193c0,1.52-0.492,2.109-0.896,2.151c-1.042,0-1.074-1.959-1.074-1.972v-21.15
	c0-1.433-0.643-2.263-1.181-2.707c-0.626-0.515-1.376-0.726-2.046-0.806V28.069c0-0.793-0.643-1.435-1.435-1.435H34.828
	c-0.792,0-1.434,0.642-1.434,1.435v44.988h-1.254c-0.794,0-1.435,0.642-1.435,1.434c0,0.793,0.641,1.435,1.435,1.435h2.688h27.423
	h3.227c0.792,0,1.435-0.642,1.435-1.435c0-0.792-0.643-1.434-1.435-1.434h-1.792v-28.56c0.087,0.03,0.169,0.061,0.224,0.105
	c0.089,0.076,0.135,0.241,0.135,0.493v21.15c0,2.331,1.231,4.839,3.942,4.839c1.302,0,3.765-1.049,3.765-5.019V47.874h1.255
	c0.395,0,0.717-0.319,0.717-0.716V35.956C73.723,35.56,73.4,35.238,73.006,35.238z M57.412,48.682H39.668
	c-0.793,0-1.435-0.641-1.435-1.435c0-0.792,0.642-1.434,1.435-1.434h17.744c0.791,0,1.434,0.642,1.434,1.434
	C58.846,48.041,58.203,48.682,57.412,48.682z M57.412,44.38H39.668c-0.793,0-1.435-0.641-1.435-1.435
	c0-0.792,0.642-1.434,1.435-1.434h17.744c0.791,0,1.434,0.642,1.434,1.434C58.846,43.739,58.203,44.38,57.412,44.38z M57.412,40.078
	H39.668c-0.793,0-1.435-0.641-1.435-1.435c0-0.792,0.642-1.434,1.435-1.434h17.744c0.791,0,1.434,0.642,1.434,1.434
	C58.846,39.438,58.203,40.078,57.412,40.078z"/>
</svg>
