<?xml version="1.0" encoding="utf-8"?>
<!-- Generator: Adobe Illustrator 16.0.0, SVG Export Plug-In . SVG Version: 6.00 Build 0)  -->
<!DOCTYPE svg PUBLIC "-//W3C//DTD SVG 1.1//EN" "http://www.w3.org/Graphics/SVG/1.1/DTD/svg11.dtd">
<svg version="1.1" id="Layer_1" xmlns="http://www.w3.org/2000/svg" xmlns:xlink="http://www.w3.org/1999/xlink" x="0px" y="0px"
	 width="100px" height="100px" viewBox="0 0 100 100" enable-background="new 0 0 100 100" xml:space="preserve">
<g>
	<path d="M21.251,66.71h57.951c0.824,0,1.612-0.328,2.195-0.91c0.58-0.583,0.908-1.373,0.908-2.195V22.211
		c0-1.715-1.388-3.105-3.104-3.105H21.251c-0.825,0-1.615,0.328-2.195,0.909c-0.582,0.582-0.91,1.373-0.91,2.196v41.394
		c0,0.857,0.348,1.634,0.91,2.195C19.616,66.362,20.394,66.71,21.251,66.71z"/>
	<path d="M81.755,71.78H18.697c-1.727,0-3.127,1.4-3.127,3.127s1.4,3.127,3.127,3.127h63.058c1.725,0,3.126-1.4,3.126-3.127
		S83.48,71.78,81.755,71.78z"/>
</g>
</svg>
