<?xml version="1.0" encoding="utf-8"?>
<!-- Generator: Adobe Illustrator 16.0.0, SVG Export Plug-In . SVG Version: 6.00 Build 0)  -->
<!DOCTYPE svg PUBLIC "-//W3C//DTD SVG 1.1//EN" "http://www.w3.org/Graphics/SVG/1.1/DTD/svg11.dtd">
<svg version="1.1" id="Layer_1" xmlns="http://www.w3.org/2000/svg" xmlns:xlink="http://www.w3.org/1999/xlink" x="0px" y="0px"
	 width="100px" height="100px" viewBox="0 0 100 100" enable-background="new 0 0 100 100" xml:space="preserve">
<path d="M70.775,27.294c0-1.188-0.961-2.151-2.15-2.151H30.15c-1.188,0-2.151,0.964-2.151,2.151c0,1.156,0.917,2.095,2.063,2.142
	l13.817,16.699l1.822,27.7c0.038,0.561,0.398,1.047,0.921,1.247c0.166,0.063,0.34,0.094,0.512,0.094c0.369,0,0.73-0.142,1.005-0.41
	l6.36-6.237c0.275-0.27,0.431-0.639,0.431-1.024v-21.41l13.785-16.658C69.86,29.389,70.775,28.451,70.775,27.294z"/>
</svg>
