<?xml version="1.0" encoding="utf-8"?>
<!-- Generator: Adobe Illustrator 16.0.0, SVG Export Plug-In . SVG Version: 6.00 Build 0)  -->
<!DOCTYPE svg PUBLIC "-//W3C//DTD SVG 1.1//EN" "http://www.w3.org/Graphics/SVG/1.1/DTD/svg11.dtd">
<svg version="1.1" id="Layer_1" xmlns="http://www.w3.org/2000/svg" xmlns:xlink="http://www.w3.org/1999/xlink" x="0px" y="0px"
	 width="100px" height="100px" viewBox="0 0 100 100" enable-background="new 0 0 100 100" xml:space="preserve">
<path d="M66.263,36.862h-1.209c-1.579-4.833-4.791-8.248-8.589-9.194v-3.859c0-1.187-0.964-2.15-2.151-2.15
	c-1.189,0-2.15,0.964-2.15,2.15v3.859c-3.801,0.946-7.013,4.361-8.59,9.194h-1.21c-1.187,0-2.15,0.963-2.15,2.151V75.7
	c0,1.188,0.964,2.151,2.15,2.151h23.899c1.188,0,2.15-0.963,2.15-2.151V39.014C68.413,37.825,67.451,36.862,66.263,36.862z
	 M54.313,31.695c2.429,0,4.732,2.039,6.123,5.167H48.189C49.579,33.733,51.883,31.695,54.313,31.695z"/>
</svg>
