<?xml version="1.0" encoding="utf-8"?>
<!-- Generator: Adobe Illustrator 16.0.0, SVG Export Plug-In . SVG Version: 6.00 Build 0)  -->
<!DOCTYPE svg PUBLIC "-//W3C//DTD SVG 1.1//EN" "http://www.w3.org/Graphics/SVG/1.1/DTD/svg11.dtd">
<svg version="1.1" id="Layer_1" xmlns="http://www.w3.org/2000/svg" xmlns:xlink="http://www.w3.org/1999/xlink" x="0px" y="0px"
	 width="100px" height="100px" viewBox="0 0 100 100" enable-background="new 0 0 100 100" xml:space="preserve">
<g>
	<path d="M67.65,54.683V35.64c0-3.197-2.602-5.797-5.799-5.797h-0.566c1.729-2.012,2.779-4.617,2.779-7.471
		c0-6.33-5.148-11.48-11.48-11.48c-6.328,0-11.48,5.15-11.48,11.48c0,2.854,1.055,5.459,2.783,7.471h-0.57
		c-3.195,0-5.795,2.6-5.795,5.797v19.043c0,3.197,2.6,5.797,5.795,5.797h0.221v20.826c0,3.307,1.742,5.797,4.049,5.797h9.996
		c2.311,0,4.051-2.49,4.051-5.797V60.479h0.219C65.049,60.479,67.65,57.88,67.65,54.683z M52.584,36.104
		c0.982,0,1.779,0.797,1.779,1.779c0,0.98-0.797,1.777-1.779,1.777c-0.98,0-1.775-0.797-1.775-1.777
		C50.809,36.901,51.604,36.104,52.584,36.104z M54.59,53.763c0,1.107-0.896,2.006-2.006,2.006c-1.107,0-2.006-0.898-2.006-2.006
		V42.394c0-1.107,0.898-2.006,2.006-2.006c1.109,0,2.006,0.898,2.006,2.006V53.763z"/>
	<path d="M70.813,63.038H70.77V61.03c0-1.105-0.898-2.006-2.006-2.006c-1.109,0-2.006,0.9-2.006,2.006v2.008h-0.045
		c-1.941,0-3.521,1.58-3.521,3.52v17.246c0,1.941,1.58,3.521,3.521,3.521h4.1c1.941,0,3.521-1.58,3.521-3.521V66.558
		C74.334,64.618,72.754,63.038,70.813,63.038z"/>
</g>
</svg>
