<?xml version="1.0" encoding="utf-8"?>
<!-- Generator: Adobe Illustrator 16.0.0, SVG Export Plug-In . SVG Version: 6.00 Build 0)  -->
<!DOCTYPE svg PUBLIC "-//W3C//DTD SVG 1.1//EN" "http://www.w3.org/Graphics/SVG/1.1/DTD/svg11.dtd">
<svg version="1.1" id="Layer_1" xmlns="http://www.w3.org/2000/svg" xmlns:xlink="http://www.w3.org/1999/xlink" x="0px" y="0px"
	 width="100px" height="100px" viewBox="0 0 100 100" enable-background="new 0 0 100 100" xml:space="preserve">
<g>
	<rect x="41.397" y="53.403" width="3.865" height="3.866"/>
	<rect x="54.932" y="66.939" width="3.867" height="3.865"/>
	<rect x="54.932" y="39.869" width="3.867" height="3.865"/>
	<rect x="54.932" y="53.403" width="3.867" height="3.866"/>
	<rect x="41.397" y="66.939" width="3.865" height="3.865"/>
	<rect x="27.861" y="53.403" width="3.866" height="3.866"/>
	<rect x="27.861" y="39.869" width="3.866" height="3.865"/>
	<rect x="41.397" y="39.869" width="3.865" height="3.865"/>
	<rect x="27.861" y="26.332" width="44.474" height="3.867"/>
	<rect x="27.861" y="66.939" width="3.866" height="3.865"/>
	<rect x="68.466" y="39.869" width="3.869" height="3.865"/>
	<path d="M79.715,16.896H20.479c-0.801,0-1.45,0.648-1.45,1.45v60.444c0,0.802,0.649,1.451,1.45,1.451h59.235
		c0.8,0,1.45-0.649,1.45-1.451V18.347C81.165,17.545,80.515,16.896,79.715,16.896z M34.628,72.256c0,0.803-0.648,1.451-1.451,1.451
		h-6.766c-0.803,0-1.452-0.648-1.452-1.451v-6.768c0-0.801,0.649-1.449,1.452-1.449h6.766c0.803,0,1.451,0.648,1.451,1.449V72.256z
		 M34.628,58.719c0,0.803-0.648,1.451-1.451,1.451h-6.766c-0.803,0-1.452-0.648-1.452-1.451v-6.766c0-0.803,0.649-1.452,1.452-1.452
		h6.766c0.803,0,1.451,0.649,1.451,1.452V58.719z M34.628,45.186c0,0.801-0.648,1.449-1.451,1.449h-6.766
		c-0.803,0-1.452-0.648-1.452-1.449v-6.769c0-0.802,0.649-1.45,1.452-1.45h6.766c0.803,0,1.451,0.648,1.451,1.45V45.186z
		 M48.163,72.256c0,0.803-0.648,1.451-1.449,1.451h-6.769c-0.802,0-1.45-0.648-1.45-1.451v-6.768c0-0.801,0.648-1.449,1.45-1.449
		h6.769c0.801,0,1.449,0.648,1.449,1.449V72.256z M48.163,58.719c0,0.803-0.648,1.451-1.449,1.451h-6.769
		c-0.802,0-1.45-0.648-1.45-1.451v-6.766c0-0.803,0.648-1.452,1.45-1.452h6.769c0.801,0,1.449,0.649,1.449,1.452V58.719z
		 M48.163,45.186c0,0.801-0.648,1.449-1.449,1.449h-6.769c-0.802,0-1.45-0.648-1.45-1.449v-6.769c0-0.802,0.648-1.45,1.45-1.45
		h6.769c0.801,0,1.449,0.648,1.449,1.45V45.186z M61.699,72.256c0,0.803-0.649,1.451-1.45,1.451h-6.768
		c-0.802,0-1.452-0.648-1.452-1.451v-6.768c0-0.801,0.65-1.449,1.452-1.449h6.768c0.801,0,1.45,0.648,1.45,1.449V72.256z
		 M61.699,58.719c0,0.803-0.649,1.451-1.45,1.451h-6.768c-0.802,0-1.452-0.648-1.452-1.451v-6.766c0-0.803,0.65-1.452,1.452-1.452
		h6.768c0.801,0,1.45,0.649,1.45,1.452V58.719z M61.699,45.186c0,0.801-0.649,1.449-1.45,1.449h-6.768
		c-0.802,0-1.452-0.648-1.452-1.449v-6.769c0-0.802,0.65-1.45,1.452-1.45h6.768c0.801,0,1.45,0.648,1.45,1.45V45.186z
		 M75.235,72.256c0,0.803-0.65,1.451-1.451,1.451h-6.769c-0.8,0-1.45-0.648-1.45-1.451V51.953c0-0.803,0.65-1.452,1.45-1.452h6.769
		c0.801,0,1.451,0.649,1.451,1.452V72.256z M75.235,45.186c0,0.801-0.65,1.449-1.451,1.449h-6.769c-0.8,0-1.45-0.648-1.45-1.449
		v-6.769c0-0.802,0.65-1.45,1.45-1.45h6.769c0.801,0,1.451,0.648,1.451,1.45V45.186z M75.235,31.648c0,0.803-0.65,1.451-1.451,1.451
		H26.411c-0.803,0-1.452-0.648-1.452-1.451v-6.768c0-0.801,0.649-1.45,1.452-1.45h47.373c0.801,0,1.451,0.649,1.451,1.45V31.648z"/>
	<rect x="68.466" y="53.403" width="3.869" height="17.401"/>
</g>
</svg>
