<?xml version="1.0" encoding="utf-8"?>
<!-- Generator: Adobe Illustrator 16.0.0, SVG Export Plug-In . SVG Version: 6.00 Build 0)  -->
<!DOCTYPE svg PUBLIC "-//W3C//DTD SVG 1.1//EN" "http://www.w3.org/Graphics/SVG/1.1/DTD/svg11.dtd">
<svg version="1.1" id="Layer_1" xmlns="http://www.w3.org/2000/svg" xmlns:xlink="http://www.w3.org/1999/xlink" x="0px" y="0px"
	 width="100px" height="100px" viewBox="0 0 100 100" enable-background="new 0 0 100 100" xml:space="preserve">
<g>
	<rect x="33.677" y="18.271" width="32.647" height="12.116"/>
	<path d="M33.677,53.758v13.194v5.485v6.43h32.647v-6.43v-5.485V53.758H33.677z M60.669,74.064H39.332
		c-1.509,0-2.73-1.189-2.73-2.657s1.222-2.656,2.73-2.656h21.337c1.509,0,2.729,1.188,2.729,2.656S62.178,74.064,60.669,74.064z
		 M60.669,64.684H39.332c-1.509,0-2.73-1.189-2.73-2.656s1.222-2.656,2.73-2.656h21.337c1.509,0,2.729,1.189,2.729,2.656
		S62.178,64.684,60.669,64.684z"/>
	<path d="M75.872,66.952h-4.858V51.414c0-1.295-1.05-2.346-2.345-2.346H31.332c-1.297,0-2.346,1.051-2.346,2.346v15.538h-4.857
		V35.873h51.743V66.952z"/>
</g>
</svg>
