<?xml version="1.0" encoding="utf-8"?>
<!-- Generator: Adobe Illustrator 16.0.0, SVG Export Plug-In . SVG Version: 6.00 Build 0)  -->
<!DOCTYPE svg PUBLIC "-//W3C//DTD SVG 1.1//EN" "http://www.w3.org/Graphics/SVG/1.1/DTD/svg11.dtd">
<svg version="1.1" id="Layer_1" xmlns="http://www.w3.org/2000/svg" xmlns:xlink="http://www.w3.org/1999/xlink" x="0px" y="0px"
	 width="100px" height="100px" viewBox="0 0 100 100" enable-background="new 0 0 100 100" xml:space="preserve">
<g>
	<path d="M77.977,81.739H57.412c7.052-2.708,12.247-9.182,13.078-16.957h2.018c4.059,0,7.361-3.302,7.361-7.36
		s-3.303-7.361-7.361-7.361h-3.396H31.057c-0.828,0-1.5,0.672-1.5,1.5v11.027c0,8.734,5.493,16.192,13.199,19.151H22.191
		c-0.828,0-1.5,0.672-1.5,1.5s0.672,1.5,1.5,1.5h55.785c0.828,0,1.5-0.672,1.5-1.5S78.805,81.739,77.977,81.739z M76.869,57.421
		c0,2.404-1.956,4.36-4.361,4.36h-1.896V53.06h1.896C74.913,53.06,76.869,55.016,76.869,57.421z"/>
	<path d="M38.501,34.996c1.743,0.736,2.751,1.59,2.837,2.404c0.127,1.204-1.533,2.781-2.358,3.356
		c-0.68,0.471-0.851,1.403-0.38,2.084c0.291,0.422,0.76,0.648,1.236,0.648c0.293,0,0.59-0.086,0.85-0.266
		c0.408-0.281,3.975-2.842,3.637-6.126c-0.206-2.013-1.772-3.649-4.619-4.85c-0.743-0.337-1.58-1.058-1.572-1.353
		c0-0.009,0.17-0.906,3.369-2.13c0.773-0.297,1.161-1.164,0.865-1.938c-0.295-0.772-1.16-1.16-1.938-0.865
		c-3.505,1.342-5.237,2.926-5.295,4.842C35.056,33.359,38.115,34.822,38.501,34.996z"/>
	<path d="M48.847,34.996c1.743,0.736,2.751,1.59,2.837,2.404c0.127,1.204-1.533,2.781-2.358,3.356
		c-0.68,0.471-0.851,1.403-0.38,2.084c0.291,0.422,0.76,0.648,1.236,0.648c0.293,0,0.59-0.086,0.85-0.266
		c0.408-0.281,3.975-2.842,3.637-6.126c-0.206-2.013-1.772-3.649-4.619-4.85c-0.743-0.337-1.58-1.058-1.572-1.353
		c0-0.009,0.17-0.906,3.369-2.13c0.773-0.297,1.161-1.164,0.865-1.938c-0.295-0.772-1.16-1.16-1.938-0.865
		c-3.505,1.342-5.237,2.926-5.295,4.842C45.401,33.359,48.461,34.822,48.847,34.996z"/>
	<path d="M58.91,34.996c1.744,0.736,2.752,1.59,2.838,2.404c0.127,1.204-1.534,2.781-2.359,3.356c-0.68,0.471-0.85,1.403-0.38,2.084
		c0.291,0.422,0.76,0.648,1.236,0.648c0.294,0,0.591-0.086,0.851-0.266c0.407-0.281,3.974-2.842,3.637-6.126
		c-0.207-2.013-1.773-3.649-4.619-4.85c-0.744-0.337-1.581-1.058-1.572-1.353c0-0.009,0.17-0.906,3.369-2.13
		c0.773-0.297,1.16-1.164,0.865-1.938c-0.296-0.772-1.161-1.16-1.938-0.865c-3.506,1.342-5.238,2.926-5.295,4.842
		C55.465,33.359,58.525,34.822,58.91,34.996z"/>
</g>
</svg>
