<?xml version="1.0" encoding="utf-8"?>
<!-- Generator: Adobe Illustrator 16.0.0, SVG Export Plug-In . SVG Version: 6.00 Build 0)  -->
<!DOCTYPE svg PUBLIC "-//W3C//DTD SVG 1.1//EN" "http://www.w3.org/Graphics/SVG/1.1/DTD/svg11.dtd">
<svg version="1.1" id="Layer_1" xmlns="http://www.w3.org/2000/svg" xmlns:xlink="http://www.w3.org/1999/xlink" x="0px" y="0px"
	 width="100px" height="100px" viewBox="0 0 100 100" enable-background="new 0 0 100 100" xml:space="preserve">
<path d="M62.303,29.929c-1.197,0-2.168,0.971-2.168,2.168c0,1.196,0.971,2.168,2.168,2.168h2.432l-8.922,8.922
	c-2.902-2.359-6.596-3.78-10.619-3.78c-9.299,0-16.863,7.564-16.863,16.864c0,9.299,7.564,16.863,16.863,16.863
	s16.863-7.564,16.863-16.863c0-3.716-1.221-7.143-3.264-9.932l9.008-9.009v1.92c0,1.197,0.971,2.168,2.168,2.168
	s2.168-0.971,2.168-2.168v-9.321H62.303z"/>
</svg>
