<?xml version="1.0" encoding="utf-8"?>
<!-- Generator: Adobe Illustrator 16.0.0, SVG Export Plug-In . SVG Version: 6.00 Build 0)  -->
<!DOCTYPE svg PUBLIC "-//W3C//DTD SVG 1.1//EN" "http://www.w3.org/Graphics/SVG/1.1/DTD/svg11.dtd">
<svg version="1.1" id="Layer_1" xmlns="http://www.w3.org/2000/svg" xmlns:xlink="http://www.w3.org/1999/xlink" x="0px" y="0px"
	 width="100px" height="100px" viewBox="0 0 100 100" enable-background="new 0 0 100 100" xml:space="preserve">
<g>
	<path d="M52.855,19.697c-17.913,0-32.482,14.572-32.482,32.482c0,17.913,14.569,32.484,32.482,32.484
		c17.911,0,32.482-14.571,32.482-32.484C85.337,34.269,70.766,19.697,52.855,19.697z M52.855,78.634
		c-14.589,0-26.459-11.867-26.459-26.455c0-14.591,11.87-26.458,26.459-26.458c14.591,0,26.455,11.867,26.455,26.458
		C79.31,66.767,67.446,78.634,52.855,78.634z"/>
	<path d="M73,41.49c-1.525,0.241-3.558,0.652-3.583,1.141c-0.042,0.782,0.043,1.954,0,2.736c-0.042,0.782,0.8,2.541-0.012,2.931
		c-0.812,0.391-1.676,1.173-2.612,0c-0.936-1.172-1.718-3.208-1.718-3.208s0.391-3.632-0.977-3.827
		c-1.368-0.196-2.345,0.195-3.127,0c-0.781-0.196-0.586-2.541-0.781-0.196c-0.196,2.345-0.782,3.688-1.563,3.408
		s-2.345-0.281-3.713-1.063c-1.368-0.782-1.563-3.829-3.127-3.38c-1.563,0.449-2.541-0.044-2.541-0.044s-0.782,1.47,0,3.229
		s3.518,4.104,5.863,4.299c2.345,0.195,2.345,0.849,1.563,1.401c-0.782,0.553-4.299,1.53-4.886,2.996
		c-0.586,1.465-0.782,0.684-1.172,3.224c-0.391,2.541-2.061,6.645-1.714,7.426c0.346,0.781-0.631,2.149-2.194,2.149
		c-1.563,0-2.287,1.172-3.293,0s-1.006-4.69-1.788-6.449s-1.701-2.541-2.902-3.909c-1.202-1.368-2.625-3.713-2.625-3.713
		s-1.696-3.18-3.462-3.908c-1.352-0.557-1.777-0.269-1.906-0.101C30.27,48.438,30,50.319,30,52.266
		C30,64.868,40.252,75.12,52.855,75.12c12.602,0,22.855-10.252,22.855-22.854C75.71,48.372,74.725,44.703,73,41.49z M57.649,61.782
		c-0.196,2.149-4.495,0-4.495,0s0,0-0.299-2.345s1.081-2.736,2.839-3.713l1.955,2.345C57.649,58.069,57.844,59.632,57.649,61.782z"
		/>
</g>
</svg>
