<?xml version="1.0" encoding="utf-8"?>
<!-- Generator: Adobe Illustrator 16.0.0, SVG Export Plug-In . SVG Version: 6.00 Build 0)  -->
<!DOCTYPE svg PUBLIC "-//W3C//DTD SVG 1.1//EN" "http://www.w3.org/Graphics/SVG/1.1/DTD/svg11.dtd">
<svg version="1.1" id="Layer_1" xmlns="http://www.w3.org/2000/svg" xmlns:xlink="http://www.w3.org/1999/xlink" x="0px" y="0px"
	 width="100px" height="100px" viewBox="0 0 100 100" enable-background="new 0 0 100 100" xml:space="preserve">
<path d="M50.521,21.49c-16.951,0-30.741,13.791-30.741,30.742s13.79,30.741,30.741,30.741s30.74-13.79,30.74-30.741
	S67.473,21.49,50.521,21.49z M41.027,58.462c0.503-1.544-0.044-3.225-1.358-4.182l-11.803-8.574h14.587
	c1.628,0,3.057-1.039,3.56-2.585l4.509-13.876l4.506,13.877c0.505,1.545,1.935,2.584,3.559,2.584h14.588L61.371,54.28
	c-1.312,0.956-1.858,2.637-1.358,4.182l4.509,13.877l-11.803-8.576c-0.643-0.467-1.402-0.714-2.197-0.714s-1.558,0.247-2.2,0.714
	l-11.803,8.576L41.027,58.462z"/>
</svg>
