<?xml version="1.0" encoding="utf-8"?>
<!-- Generator: Adobe Illustrator 16.0.0, SVG Export Plug-In . SVG Version: 6.00 Build 0)  -->
<!DOCTYPE svg PUBLIC "-//W3C//DTD SVG 1.1//EN" "http://www.w3.org/Graphics/SVG/1.1/DTD/svg11.dtd">
<svg version="1.1" id="Layer_1" xmlns="http://www.w3.org/2000/svg" xmlns:xlink="http://www.w3.org/1999/xlink" x="0px" y="0px"
	 width="100px" height="100px" viewBox="0 0 100 100" enable-background="new 0 0 100 100" xml:space="preserve">
<path d="M83.009,26.911c-0.376-0.809-1.122-1.387-2.014-1.549c-0.156-0.025-0.312-0.039-0.469-0.039
	c-0.727,0-1.414,0.281-1.932,0.797l-4.427,4.432l-2.066-0.158l-0.16-2.068l4.426-4.428c0.632-0.627,0.916-1.531,0.759-2.42
	c-0.16-0.879-0.74-1.625-1.553-1.994c-1.957-0.896-4.133-1.369-6.288-1.369c-4.02,0-7.802,1.566-10.647,4.408
	c-3.965,3.967-5.386,9.648-3.785,14.963L28.416,63.921c-2.423,2.424-2.442,6.346-0.045,8.748l1.453,1.451
	c1.154,1.154,2.693,1.791,4.333,1.791c1.664,0,3.23-0.65,4.416-1.832L65.01,47.64c1.397,0.414,2.844,0.627,4.316,0.627
	c4.019,0,7.8-1.568,10.645-4.412C84.396,39.429,85.618,32.622,83.009,26.911z"/>
</svg>
