<?xml version="1.0" encoding="utf-8"?>
<!-- Generator: Adobe Illustrator 16.0.0, SVG Export Plug-In . SVG Version: 6.00 Build 0)  -->
<!DOCTYPE svg PUBLIC "-//W3C//DTD SVG 1.1//EN" "http://www.w3.org/Graphics/SVG/1.1/DTD/svg11.dtd">
<svg version="1.1" id="Layer_1" xmlns="http://www.w3.org/2000/svg" xmlns:xlink="http://www.w3.org/1999/xlink" x="0px" y="0px"
	 width="100px" height="100px" viewBox="0 0 100 100" enable-background="new 0 0 100 100" xml:space="preserve">
<path d="M60.007,54.134c0.719,0.719,1.676,1.115,2.692,1.115s1.973-0.396,2.692-1.115l8.112-8.111l-7.75-7.751
	c-0.719-0.719-1.676-1.115-2.692-1.115s-1.973,0.396-2.692,1.115c-0.718,0.719-1.115,1.676-1.115,2.691
	c0,0.434,0.072,0.855,0.21,1.252H46.438c-7.679,0-13.925,6.246-13.925,13.925s6.246,13.925,13.925,13.925h21.681
	c2.099,0,3.807-1.708,3.807-3.807s-1.708-3.807-3.807-3.807H46.438c-3.479,0-6.311-2.832-6.311-6.312s2.832-6.311,6.311-6.311
	h12.811c-0.234,0.498-0.357,1.046-0.357,1.613C58.892,52.459,59.289,53.417,60.007,54.134z M46.438,48.191
	c-4.383,0-7.95,3.566-7.95,7.949s3.567,7.95,7.95,7.95h21.681c1.197,0,2.168,0.971,2.168,2.168s-0.971,2.168-2.168,2.168H46.438
	c-6.774,0-12.286-5.512-12.286-12.286c0-6.773,5.512-12.285,12.286-12.285h16.447l-1.357-1.358c-0.847-0.847-0.847-2.219,0-3.065
	c0.847-0.848,2.219-0.848,3.065,0l6.592,6.592l-6.953,6.953c-0.423,0.423-0.978,0.635-1.533,0.635s-1.109-0.212-1.533-0.635
	c-0.847-0.848-0.847-2.219,0-3.066l1.719-1.719H46.438z"/>
</svg>
