<?xml version="1.0" encoding="utf-8"?>
<!-- Generator: Adobe Illustrator 16.0.0, SVG Export Plug-In . SVG Version: 6.00 Build 0)  -->
<!DOCTYPE svg PUBLIC "-//W3C//DTD SVG 1.1//EN" "http://www.w3.org/Graphics/SVG/1.1/DTD/svg11.dtd">
<svg version="1.1" id="Layer_1" xmlns="http://www.w3.org/2000/svg" xmlns:xlink="http://www.w3.org/1999/xlink" x="0px" y="0px"
	 width="100px" height="100px" viewBox="0 0 100 100" enable-background="new 0 0 100 100" xml:space="preserve">
<path d="M82.691,48h-4.213C77.188,36,68,25.759,55,24.735V19.99c0-1.187-0.813-2.15-2-2.15s-2,0.964-2,2.15v4.745
	C39,25.759,28.591,36,27.301,48h-4.212c-1.188,0-2.15,0.813-2.15,2c0,1.187,0.962,2,2.15,2h4.146C28.013,65,38,74.937,51,75.992
	v3.601c0,1.188,0.813,2.151,2,2.151s2-0.963,2-2.151v-3.601C68,74.937,77.767,65,78.547,52h4.145c1.188,0,2.151-0.813,2.151-2
	C84.843,48.813,83.879,48,82.691,48z M63.174,53H55v7.647c0,1.052-0.95,1.904-2,1.904c-1.053,0-2-0.853-2-1.904V53h-8.394
	c-1.053,0-1.904-0.949-1.904-2c0-1.052,0.852-2,1.904-2H51v-8.92c0-1.052,0.947-1.905,2-1.905c1.05,0,2,0.853,2,1.905V49h8.174
	c1.051,0,1.904,0.948,1.904,2C65.078,52.051,64.225,53,63.174,53z"/>
</svg>
