<?xml version="1.0" encoding="utf-8"?>
<!-- Generator: Adobe Illustrator 16.0.0, SVG Export Plug-In . SVG Version: 6.00 Build 0)  -->
<!DOCTYPE svg PUBLIC "-//W3C//DTD SVG 1.1//EN" "http://www.w3.org/Graphics/SVG/1.1/DTD/svg11.dtd">
<svg version="1.1" id="Layer_1" xmlns="http://www.w3.org/2000/svg" xmlns:xlink="http://www.w3.org/1999/xlink" x="0px" y="0px"
	 width="100px" height="100px" viewBox="0 0 100 100" enable-background="new 0 0 100 100" xml:space="preserve">
<path d="M54.264,25.154c-15.113,0-27.41,12.295-27.41,27.41c0,15.113,12.297,27.408,27.41,27.408
	c15.115,0,27.41-12.295,27.41-27.408C81.674,37.449,69.379,25.154,54.264,25.154z M40.682,47.911h6.641
	c1.106,0,2.006,0.896,2.006,2.006c0,1.105-0.899,2.006-2.006,2.006h-6.641c-1.107,0-2.005-0.9-2.005-2.006
	C38.677,48.808,39.574,47.911,40.682,47.911z M67.848,63.229H40.682c-1.107,0-2.005-0.898-2.005-2.006
	c0-1.105,0.897-2.006,2.005-2.006h27.166c1.107,0,2.006,0.9,2.006,2.006C69.854,62.331,68.955,63.229,67.848,63.229z M67.848,51.923
	h-6.641c-1.107,0-2.006-0.9-2.006-2.006c0-1.109,0.898-2.006,2.006-2.006h6.641c1.107,0,2.006,0.896,2.006,2.006
	C69.854,51.022,68.955,51.923,67.848,51.923z"/>
</svg>
