<?xml version="1.0" encoding="utf-8"?>
<!-- Generator: Adobe Illustrator 16.0.0, SVG Export Plug-In . SVG Version: 6.00 Build 0)  -->
<!DOCTYPE svg PUBLIC "-//W3C//DTD SVG 1.1//EN" "http://www.w3.org/Graphics/SVG/1.1/DTD/svg11.dtd">
<svg version="1.1" id="Layer_1" xmlns="http://www.w3.org/2000/svg" xmlns:xlink="http://www.w3.org/1999/xlink" x="0px" y="0px"
	 width="100px" height="100px" viewBox="0 0 100 100" enable-background="new 0 0 100 100" xml:space="preserve">
<path d="M68.668,41.668h-2.873V32.92c0-8.939-7.272-16.213-16.211-16.213c-8.942,0-16.213,7.273-16.213,16.213v8.748h-2.872
	c-1.653,0-2.992,1.34-2.992,2.992v29.688c0,1.652,1.339,2.992,2.992,2.992h38.169c1.65,0,2.992-1.34,2.992-2.992V44.66
	C71.66,43.008,70.318,41.668,68.668,41.668z M39.355,32.92c0-5.641,4.588-10.229,10.229-10.229c5.639,0,10.227,4.588,10.227,10.229
	v8.748H39.355V32.92z"/>
</svg>
