<?xml version="1.0" encoding="utf-8"?>
<!-- Generator: Adobe Illustrator 16.0.0, SVG Export Plug-In . SVG Version: 6.00 Build 0)  -->
<!DOCTYPE svg PUBLIC "-//W3C//DTD SVG 1.1//EN" "http://www.w3.org/Graphics/SVG/1.1/DTD/svg11.dtd">
<svg version="1.1" id="Layer_1" xmlns="http://www.w3.org/2000/svg" xmlns:xlink="http://www.w3.org/1999/xlink" x="0px" y="0px"
	 width="100px" height="100px" viewBox="0 0 100 100" enable-background="new 0 0 100 100" xml:space="preserve">
<g>
	<path d="M76.106,18.075H29.053c-0.793,0-1.434,0.642-1.434,1.434v20.967c0,0.792,0.641,1.434,1.434,1.434h47.053
		c0.792,0,1.434-0.642,1.434-1.434V19.509C77.54,18.717,76.898,18.075,76.106,18.075z M70.636,25.366H34.312
		c-0.792,0-1.435-0.642-1.435-1.434c0-0.793,0.643-1.434,1.435-1.434h36.324c0.793,0,1.435,0.641,1.435,1.434
		C72.071,24.724,71.429,25.366,70.636,25.366z"/>
	<path d="M53.909,52.019v-6.852c0-0.792-0.643-1.434-1.434-1.434H25.329v-12.36c0-0.793-0.641-1.434-1.434-1.434
		c-0.792,0-1.435,0.641-1.435,1.434v13.794c0,0.792,0.643,1.434,1.435,1.434h27.146v5.532c-0.794,0.507-1.324,1.389-1.33,2.4
		l-0.104,24.829c-0.009,1.583,1.272,2.874,2.855,2.881c0.004,0,0.007,0,0.013,0c1.577,0,2.859-1.276,2.867-2.855l0.104-24.829
		C55.452,53.453,54.823,52.502,53.909,52.019z"/>
</g>
</svg>
