<?xml version="1.0" encoding="utf-8"?>
<!-- Generator: Adobe Illustrator 16.0.0, SVG Export Plug-In . SVG Version: 6.00 Build 0)  -->
<!DOCTYPE svg PUBLIC "-//W3C//DTD SVG 1.1//EN" "http://www.w3.org/Graphics/SVG/1.1/DTD/svg11.dtd">
<svg version="1.1" id="Layer_1" xmlns="http://www.w3.org/2000/svg" xmlns:xlink="http://www.w3.org/1999/xlink" x="0px" y="0px"
	 width="100px" height="100px" viewBox="0 0 100 100" enable-background="new 0 0 100 100" xml:space="preserve">
<path d="M68.837,40.764c1.344-1.701,5.324-7.303,3.451-11.899c-1.163-2.851-4.153-4.515-8.888-4.947
	c-3.497-0.33-7.036,1.451-10.468,3.161c-5.719,2.85-9.438,4.353-12.822,1.193c-0.875-0.818-2.247-0.771-3.065,0.104
	c-0.816,0.874-0.771,2.246,0.104,3.063c5.828,5.445,12.421,2.159,17.718-0.48c3.023-1.507,5.874-2.945,8.139-2.723
	c1.684,0.152,4.605,0.65,5.265,2.263c0.773,1.886-1.106,5.25-2.526,7.172l-2.148-2.148c-0.847-0.847-2.219-0.847-3.066,0
	l-3.018,3.019c-2.498-1.007-5.118-1.517-7.812-1.517c-11.624,0-21.081,9.457-21.081,21.081s9.457,21.081,21.081,21.081
	s21.081-9.457,21.081-21.081c0-3.194-0.738-6.353-2.146-9.229l2.624-2.624c0.848-0.847,0.848-2.219,0-3.066L68.837,40.764z"/>
</svg>
