<?xml version="1.0" encoding="utf-8"?>
<!-- Generator: Adobe Illustrator 16.0.0, SVG Export Plug-In . SVG Version: 6.00 Build 0)  -->
<!DOCTYPE svg PUBLIC "-//W3C//DTD SVG 1.1//EN" "http://www.w3.org/Graphics/SVG/1.1/DTD/svg11.dtd">
<svg version="1.1" id="Layer_1" xmlns="http://www.w3.org/2000/svg" xmlns:xlink="http://www.w3.org/1999/xlink" x="0px" y="0px"
	 width="100px" height="100px" viewBox="0 0 100 100" enable-background="new 0 0 100 100" xml:space="preserve">
<g>
	<path d="M82.541,24.382H39.136c-2.603,0-4.719,2.117-4.719,4.719v3.234h-0.571c-2.602,0-4.721,2.116-4.721,4.719v3.235h-0.568
		c-2.603,0-4.721,2.116-4.721,4.717v27.23c0,2.602,2.118,4.719,4.721,4.719h43.405c2.603,0,4.721-2.118,4.721-4.719v-3.235h0.568
		c2.603,0,4.72-2.116,4.72-4.719v-3.233h0.57c2.603,0,4.719-2.116,4.719-4.718v-27.23C87.26,26.5,85.144,24.382,82.541,24.382z
		 M56.161,60.026l-7.084,5.16c-0.409,0.298-0.895,0.449-1.382,0.449c-0.363,0-0.728-0.083-1.064-0.255
		c-0.785-0.4-1.281-1.208-1.281-2.09V52.97c0-0.882,0.496-1.69,1.281-2.09c0.788-0.398,1.731-0.325,2.446,0.194l7.084,5.16
		c0.606,0.441,0.965,1.146,0.965,1.896C57.125,58.88,56.767,59.585,56.161,60.026z"/>
</g>
</svg>
