<?xml version="1.0" encoding="utf-8"?>
<!-- Generator: Adobe Illustrator 16.0.0, SVG Export Plug-In . SVG Version: 6.00 Build 0)  -->
<!DOCTYPE svg PUBLIC "-//W3C//DTD SVG 1.1//EN" "http://www.w3.org/Graphics/SVG/1.1/DTD/svg11.dtd">
<svg version="1.1" id="Layer_1" xmlns="http://www.w3.org/2000/svg" xmlns:xlink="http://www.w3.org/1999/xlink" x="0px" y="0px"
	 width="100px" height="100px" viewBox="0 0 100 100" enable-background="new 0 0 100 100" xml:space="preserve">
<path d="M69.251,54.736c1.385,0,2.692,0.535,3.682,1.508c0.574,0.566,1.432,0.729,2.175,0.419c0.743-0.312,1.228-1.039,1.228-1.845
	V42.152c0-1.104-0.896-2-2-2h-9.858c0.818-1.392,1.274-3.004,1.274-4.696c0-5.103-4.151-9.254-9.254-9.254
	c-5.104,0-9.254,4.151-9.254,9.254c0,1.692,0.455,3.305,1.273,4.696H38.66c-1.104,0-2,0.896-2,2v35.676c0,1.104,0.896,2,2,2h35.676
	c1.104,0,2-0.896,2-2V65.162c0-0.806-0.484-1.533-1.228-1.845s-1.601-0.146-2.175,0.419c-0.989,0.973-2.297,1.508-3.682,1.508
	c-2.896,0-5.254-2.356-5.254-5.254S66.355,54.736,69.251,54.736z"/>
</svg>
