<?xml version="1.0" encoding="utf-8"?>
<!-- Generator: Adobe Illustrator 16.0.0, SVG Export Plug-In . SVG Version: 6.00 Build 0)  -->
<!DOCTYPE svg PUBLIC "-//W3C//DTD SVG 1.1//EN" "http://www.w3.org/Graphics/SVG/1.1/DTD/svg11.dtd">
<svg version="1.1" id="Layer_1" xmlns="http://www.w3.org/2000/svg" xmlns:xlink="http://www.w3.org/1999/xlink" x="0px" y="0px"
	 width="100px" height="100px" viewBox="0 0 100 100" enable-background="new 0 0 100 100" xml:space="preserve">
<g>
	<g>
		<path d="M39.441,42.025c-3.904,0-7.082-3.177-7.082-7.081c0-3.904,3.178-7.08,7.082-7.08s7.08,3.176,7.08,7.08
			C46.521,38.848,43.346,42.025,39.441,42.025z"/>
	</g>
	<g>
		<path d="M54.164,41.97c-3.902,0-7.08-3.177-7.08-7.081c0-3.904,3.178-7.08,7.08-7.08c3.904,0,7.082,3.176,7.082,7.08
			C61.246,38.793,58.068,41.97,54.164,41.97z"/>
	</g>
	<g>
		<path d="M68.641,41.97c-3.904,0-7.08-3.177-7.08-7.081c0-3.904,3.176-7.08,7.08-7.08s7.082,3.176,7.082,7.08
			C75.723,38.793,72.545,41.97,68.641,41.97z"/>
	</g>
	<g>
		<path d="M39.316,56.832c-3.904,0-7.08-3.177-7.08-7.08c0-3.905,3.176-7.08,7.08-7.08c3.902,0,7.08,3.175,7.08,7.08
			C46.396,53.655,43.219,56.832,39.316,56.832z"/>
	</g>
	<g>
		<path d="M54.041,56.778c-3.904,0-7.082-3.178-7.082-7.081c0-3.904,3.178-7.08,7.082-7.08s7.08,3.176,7.08,7.08
			C61.121,53.6,57.945,56.778,54.041,56.778z"/>
	</g>
	<g>
		<path d="M68.641,56.778c-3.904,0-7.08-3.178-7.08-7.081c0-3.904,3.176-7.08,7.08-7.08s7.082,3.176,7.082,7.08
			C75.723,53.6,72.545,56.778,68.641,56.778z"/>
	</g>
	<g>
		<path d="M39.441,71.775c-3.904,0-7.082-3.177-7.082-7.081s3.178-7.08,7.082-7.08s7.08,3.176,7.08,7.08
			S43.346,71.775,39.441,71.775z"/>
	</g>
	<g>
		<path d="M54.164,71.72c-3.902,0-7.08-3.177-7.08-7.081s3.178-7.08,7.08-7.08c3.904,0,7.082,3.176,7.082,7.08
			S58.068,71.72,54.164,71.72z"/>
	</g>
	<g>
		<path d="M68.641,71.72c-3.904,0-7.08-3.177-7.08-7.081s3.176-7.08,7.08-7.08s7.082,3.176,7.082,7.08S72.545,71.72,68.641,71.72z"
			/>
	</g>
</g>
</svg>
