<?xml version="1.0" encoding="utf-8"?>
<!-- Generator: Adobe Illustrator 16.0.0, SVG Export Plug-In . SVG Version: 6.00 Build 0)  -->
<!DOCTYPE svg PUBLIC "-//W3C//DTD SVG 1.1//EN" "http://www.w3.org/Graphics/SVG/1.1/DTD/svg11.dtd">
<svg version="1.1" id="Layer_1" xmlns="http://www.w3.org/2000/svg" xmlns:xlink="http://www.w3.org/1999/xlink" x="0px" y="0px"
	 width="100px" height="100px" viewBox="0 0 100 100" enable-background="new 0 0 100 100" xml:space="preserve">
<path d="M58.527,25.154c-15.112,0-27.409,12.295-27.409,27.41c0,15.113,12.297,27.408,27.409,27.408
	c15.113,0,27.409-12.295,27.409-27.408C85.936,37.449,73.64,25.154,58.527,25.154z M64.726,47.271c1.461,0,2.645,1.186,2.645,2.646
	s-1.184,2.646-2.645,2.646c-1.462,0-2.648-1.186-2.648-2.646S63.264,47.271,64.726,47.271z M52.329,47.271
	c1.462,0,2.648,1.186,2.648,2.646s-1.186,2.646-2.648,2.646c-1.461,0-2.645-1.186-2.645-2.646S50.868,47.271,52.329,47.271z
	 M77.013,58.021c-2.398,8.135-9.999,13.814-18.486,13.814c-8.558,0-15.973-5.5-18.447-13.684c-0.322-1.063,0.276-2.18,1.336-2.5
	c1.062-0.324,2.181,0.277,2.501,1.338c1.929,6.379,7.94,10.836,14.609,10.836c6.72,0,12.74-4.5,14.64-10.936
	c0.313-1.063,1.424-1.68,2.49-1.357C76.718,55.845,77.328,56.962,77.013,58.021z"/>
</svg>
