<?xml version="1.0" encoding="utf-8"?>
<!-- Generator: Adobe Illustrator 16.0.0, SVG Export Plug-In . SVG Version: 6.00 Build 0)  -->
<!DOCTYPE svg PUBLIC "-//W3C//DTD SVG 1.1//EN" "http://www.w3.org/Graphics/SVG/1.1/DTD/svg11.dtd">
<svg version="1.1" id="Layer_1" xmlns="http://www.w3.org/2000/svg" xmlns:xlink="http://www.w3.org/1999/xlink" x="0px" y="0px"
	 width="100px" height="100px" viewBox="0 0 100 100" enable-background="new 0 0 100 100" xml:space="preserve">
<path d="M32.263,53.934h5.367c-0.028,2.168,0.022,5.688,0.105,11.563c0.019,1.281,1.063,2.312,2.345,2.312h4.299
	c0.888,0,1.699-0.502,2.098-1.296l7.95-15.901h0.479c0.348,0.859,1.19,1.466,2.175,1.466h11.139c1.296,0,2.345-1.051,2.345-2.345V34
	c0-1.294-1.049-2.345-2.345-2.345H57.082c-1.296,0-2.345,1.05-2.345,2.345v0.683l-1.32,0.055l-1.996-2.281
	c-0.444-0.51-1.088-0.801-1.765-0.801H32.263c-1.296,0-2.345,1.05-2.345,2.345v17.588C29.918,52.883,30.967,53.934,32.263,53.934z"
	/>
</svg>
