<?xml version="1.0" encoding="utf-8"?>
<!-- Generator: Adobe Illustrator 16.0.0, SVG Export Plug-In . SVG Version: 6.00 Build 0)  -->
<!DOCTYPE svg PUBLIC "-//W3C//DTD SVG 1.1//EN" "http://www.w3.org/Graphics/SVG/1.1/DTD/svg11.dtd">
<svg version="1.1" id="Layer_1" xmlns="http://www.w3.org/2000/svg" xmlns:xlink="http://www.w3.org/1999/xlink" x="0px" y="0px"
	 width="100px" height="100px" viewBox="0 0 100 100" enable-background="new 0 0 100 100" xml:space="preserve">
<g>
	<path fill="none" d="M46.224,48.406h18.69V30.308h-18.69V48.406z M47.883,32.459h14.982v14.066H47.883V32.459z"/>
	<rect x="69.604" y="45.28" fill="none" width="5.248" height="3.126"/>
	<rect x="69.604" y="37.463" fill="none" width="5.248" height="3.127"/>
	<rect x="69.604" y="30.308" fill="none" width="5.248" height="2.466"/>
	<rect x="36.285" y="45.28" fill="none" width="5.249" height="3.126"/>
	<rect x="36.285" y="37.463" fill="none" width="5.249" height="3.127"/>
	<rect x="36.285" y="30.308" fill="none" width="5.249" height="2.466"/>
	<rect x="47.883" y="32.459" width="14.982" height="14.066"/>
	<path fill="none" d="M64.719,52.932h-18.69v18.1h18.69V52.932z M63.059,68.88H48.078V54.813h14.981V68.88z"/>
	<rect x="36.091" y="52.932" fill="none" width="5.247" height="3.127"/>
	<rect x="36.091" y="60.749" fill="none" width="5.247" height="3.126"/>
	<rect x="36.091" y="68.565" fill="none" width="5.247" height="2.466"/>
	<rect x="69.409" y="52.932" fill="none" width="5.249" height="3.127"/>
	<rect x="69.409" y="60.749" fill="none" width="5.249" height="3.126"/>
	<rect x="69.409" y="68.565" fill="none" width="5.249" height="2.466"/>
	<path d="M77.196,23.742c-1.134,0-2.081,0.807-2.297,1.875h-5.342c-0.218-1.068-1.163-1.875-2.297-1.875
		c-1.135,0-2.08,0.807-2.298,1.875H46.175c-0.217-1.068-1.164-1.875-2.296-1.875c-1.136,0-2.081,0.807-2.299,1.875h-5.438
		c-0.322-0.908-1.182-1.563-2.202-1.563c-1.294,0-2.345,1.051-2.345,2.346v24.27h-0.194v24.582c0,1.295,1.049,2.345,2.345,2.345
		c1.134,0,2.081-0.806,2.298-1.875h5.342c0.218,1.069,1.164,1.875,2.298,1.875s2.079-0.806,2.297-1.875h18.787
		c0.217,1.069,1.163,1.875,2.296,1.875c1.136,0,2.081-0.806,2.299-1.875h5.438c0.322,0.909,1.182,1.563,2.201,1.563
		c1.295,0,2.345-1.05,2.345-2.345V50.669h0.194V26.088C79.542,24.793,78.493,23.742,77.196,23.742z M41.338,71.031h-5.247v-2.466
		h5.247V71.031z M41.338,63.875h-5.247v-3.126h5.247V63.875z M41.338,56.059h-5.247v-3.127h5.247V56.059z M64.719,71.031h-18.69
		v-18.1h18.69V71.031z M74.658,71.031h-5.249v-2.466h5.249V71.031z M74.658,63.875h-5.249v-3.126h5.249V63.875z M74.658,56.059
		h-5.249v-3.127h5.249V56.059z M69.604,30.308h5.248v2.466h-5.248V30.308z M69.604,37.463h5.248v3.127h-5.248V37.463z M69.604,45.28
		h5.248v3.126h-5.248V45.28z M46.224,30.308h18.69v18.099h-18.69V30.308z M36.285,30.308h5.249v2.466h-5.249V30.308z M36.285,37.463
		h5.249v3.127h-5.249V37.463z M36.285,45.28h5.249v3.126h-5.249V45.28z"/>
	<rect x="48.078" y="54.813" width="14.981" height="14.067"/>
</g>
</svg>
