<?xml version="1.0" encoding="utf-8"?>
<!-- Generator: Adobe Illustrator 16.0.0, SVG Export Plug-In . SVG Version: 6.00 Build 0)  -->
<!DOCTYPE svg PUBLIC "-//W3C//DTD SVG 1.1//EN" "http://www.w3.org/Graphics/SVG/1.1/DTD/svg11.dtd">
<svg version="1.1" id="Layer_1" xmlns="http://www.w3.org/2000/svg" xmlns:xlink="http://www.w3.org/1999/xlink" x="0px" y="0px"
	 width="100px" height="100px" viewBox="0 0 100 100" enable-background="new 0 0 100 100" xml:space="preserve">
<path d="M76.533,18.886c-0.689-0.688-1.725-0.77-2.494-0.281l-7.306,7.307l-7.863,7.861v-0.006c0-0.115-0.016-0.225-0.03-0.336
	c1.534-1.951,2.463-4.396,2.463-7.066c0-6.328-5.15-11.48-11.48-11.48c-6.329,0-11.479,5.152-11.479,11.48
	c0,2.666,0.926,5.109,2.455,7.061c-0.007,0.082-0.021,0.162-0.021,0.246v0.166v0.035l-7.962-7.961l-7.306-7.307
	c-0.77-0.488-1.806-0.406-2.495,0.281c-0.793,0.797-0.812,2.066-0.038,2.84l0.688,0.688l2.448,2.445L36.312,35.06l4.464,4.467V60.46
	v1.357l-1.569,2.314l-4.219,6.225c-0.355,0.6-0.387,1.34-0.058,1.959c0.349,0.654,1.03,1.064,1.771,1.064h4.013V85.3
	c0,3.305,1.739,5.795,4.048,5.795h0.062h9.935h0.062c2.308,0,4.048-2.49,4.048-5.795V73.38h3.948c0.01-0.002,0.019-0.002,0.028,0
	c1.106,0,2.006-0.898,2.006-2.006c0-0.523-0.202-1-0.529-1.355l-3.865-5.725c0.018-0.008,0.035-0.014,0.055-0.021l-0.096-0.141
	l-1.547-2.281V60.46V39.427l4.366-4.367l10.2-10.201l2.449-2.445l0.688-0.688C77.343,20.952,77.326,19.683,76.533,18.886z"/>
</svg>
