<?xml version="1.0" encoding="utf-8"?>
<!-- Generator: Adobe Illustrator 16.0.0, SVG Export Plug-In . SVG Version: 6.00 Build 0)  -->
<!DOCTYPE svg PUBLIC "-//W3C//DTD SVG 1.1//EN" "http://www.w3.org/Graphics/SVG/1.1/DTD/svg11.dtd">
<svg version="1.1" id="Layer_1" xmlns="http://www.w3.org/2000/svg" xmlns:xlink="http://www.w3.org/1999/xlink" x="0px" y="0px"
	 width="100px" height="100px" viewBox="0 0 100 100" enable-background="new 0 0 100 100" xml:space="preserve">
<g>
	<path d="M33.088,83.396c-1.296,0-2.345-1.05-2.345-2.345V31.309c0-1.118,0.79-2.081,1.886-2.299c0.295-0.06,0.451-0.171,0.9-0.516
		c2.474-1.899,5.105-2.971,16.504,0.575c11.731,3.655,14.824,1.108,14.843,1.077c0.526-0.922,1.606-1.373,2.638-1.104
		c1.028,0.273,1.744,1.203,1.744,2.267v24.443c0,0.408-0.107,0.809-0.311,1.163c-0.596,1.049-4.391,6.028-20.307,1.077
		c-9.953-3.099-11.34-2.037-12.254-1.336c-0.268,0.205-0.576,0.443-0.953,0.668v23.727C35.434,82.346,34.385,83.396,33.088,83.396z"
		/>
</g>
</svg>
