<?xml version="1.0" encoding="utf-8"?>
<!-- Generator: Adobe Illustrator 16.0.0, SVG Export Plug-In . SVG Version: 6.00 Build 0)  -->
<!DOCTYPE svg PUBLIC "-//W3C//DTD SVG 1.1//EN" "http://www.w3.org/Graphics/SVG/1.1/DTD/svg11.dtd">
<svg version="1.1" id="Layer_1" xmlns="http://www.w3.org/2000/svg" xmlns:xlink="http://www.w3.org/1999/xlink" x="0px" y="0px"
	 width="100px" height="100px" viewBox="0 0 100 100" enable-background="new 0 0 100 100" xml:space="preserve">
<path d="M55.009,15.043c-19.677,0-35.626,15.951-35.626,35.628c0,19.676,15.949,35.624,35.626,35.624
	c19.676,0,35.625-15.948,35.625-35.624C90.634,30.994,74.685,15.043,55.009,15.043z M51.885,22.492c0-1.726,1.399-3.127,3.127-3.127
	c1.727,0,3.126,1.401,3.126,3.127V49.57c0,1.725-1.399,3.126-3.126,3.126c-1.728,0-3.127-1.401-3.127-3.126V22.492z M55.009,80.028
	c-15.473,0-28.06-12.587-28.06-28.062c0-13.176,9.144-24.232,21.412-27.23v5.368c-9.37,2.854-16.208,11.572-16.208,21.862
	c0,12.602,10.254,22.854,22.855,22.854c12.604,0,22.854-10.253,22.854-22.854c0-10.29-6.838-19.008-16.208-21.862v-5.368
	c12.27,2.998,21.414,14.052,21.414,27.23C83.069,67.441,70.48,80.028,55.009,80.028z"/>
</svg>
