<?xml version="1.0" encoding="utf-8"?>
<!-- Generator: Adobe Illustrator 16.0.0, SVG Export Plug-In . SVG Version: 6.00 Build 0)  -->
<!DOCTYPE svg PUBLIC "-//W3C//DTD SVG 1.1//EN" "http://www.w3.org/Graphics/SVG/1.1/DTD/svg11.dtd">
<svg version="1.1" id="Layer_1" xmlns="http://www.w3.org/2000/svg" xmlns:xlink="http://www.w3.org/1999/xlink" x="0px" y="0px"
	 width="100px" height="100px" viewBox="0 0 100 100" enable-background="new 0 0 100 100" xml:space="preserve">
<g>
	<path d="M37.561,50.812h25.273c0.01,0,0.02,0,0.03,0c1.296,0,2.345-1.051,2.345-2.346c0-0.271-0.045-0.535-0.131-0.777
		l-3.063-17.348c-0.197-1.121-1.17-1.938-2.309-1.938H40.687c-1.139,0-2.112,0.816-2.31,1.938L35.25,48.06
		c-0.12,0.682,0.067,1.383,0.513,1.914C36.207,50.505,36.867,50.812,37.561,50.812z"/>
	<path d="M46.445,53.999c-0.196-1.119-1.169-1.938-2.308-1.938H25.117c-1.139,0-2.112,0.818-2.31,1.938l-3.127,17.719
		c-0.12,0.684,0.067,1.385,0.513,1.916c0.444,0.531,1.104,0.838,1.797,0.838h25.273c0.013,0,0.021,0,0.031,0
		c1.296,0,2.345-1.051,2.345-2.346c0-0.273-0.046-0.535-0.132-0.777L46.445,53.999z"/>
	<path d="M80.647,71.349l-3.063-17.35c-0.197-1.119-1.169-1.938-2.309-1.938H56.256c-1.139,0-2.112,0.818-2.309,1.938l-3.128,17.719
		c-0.12,0.684,0.067,1.385,0.514,1.916c0.444,0.531,1.104,0.838,1.797,0.838h25.273c0.013,0,0.021,0,0.03,0
		c1.297,0,2.346-1.051,2.346-2.346C80.779,71.853,80.732,71.591,80.647,71.349z"/>
	<path d="M66.588,33.093h3.127v3.127c0,1.295,1.049,2.346,2.345,2.346s2.345-1.051,2.345-2.346v-3.127h3.127
		c1.297,0,2.346-1.051,2.346-2.346s-1.049-2.344-2.346-2.344h-3.127v-3.127c0-1.295-1.049-2.346-2.345-2.346
		s-2.345,1.051-2.345,2.346v3.127h-3.127c-1.297,0-2.346,1.049-2.346,2.344S65.291,33.093,66.588,33.093z"/>
</g>
</svg>
