<?xml version="1.0" encoding="utf-8"?>
<!-- Generator: Adobe Illustrator 16.0.0, SVG Export Plug-In . SVG Version: 6.00 Build 0)  -->
<!DOCTYPE svg PUBLIC "-//W3C//DTD SVG 1.1//EN" "http://www.w3.org/Graphics/SVG/1.1/DTD/svg11.dtd">
<svg version="1.1" id="Layer_1" xmlns="http://www.w3.org/2000/svg" xmlns:xlink="http://www.w3.org/1999/xlink" x="0px" y="0px"
	 width="100px" height="100px" viewBox="0 0 100 100" enable-background="new 0 0 100 100" xml:space="preserve">
<path d="M60.839,39.084v-7.859c0-1.026-0.83-1.856-1.856-1.856H24.296c-0.493,0-0.967,0.195-1.315,0.543
	c-0.348,0.349-0.543,0.822-0.543,1.313v34.687c0,0.514,0.206,0.978,0.543,1.313c0.336,0.339,0.802,0.546,1.315,0.546h34.687
	c0.491,0,0.965-0.195,1.313-0.546c0.349-0.349,0.544-0.821,0.544-1.313v-7.859h16.983V39.084H60.839z M74.536,52.992h-2.644v-2.644
	h2.644V52.992z M74.536,46.788h-2.644v-2.645h2.644V46.788z"/>
</svg>
