<?xml version="1.0" encoding="utf-8"?>
<!-- Generator: Adobe Illustrator 16.0.0, SVG Export Plug-In . SVG Version: 6.00 Build 0)  -->
<!DOCTYPE svg PUBLIC "-//W3C//DTD SVG 1.1//EN" "http://www.w3.org/Graphics/SVG/1.1/DTD/svg11.dtd">
<svg version="1.1" id="Layer_1" xmlns="http://www.w3.org/2000/svg" xmlns:xlink="http://www.w3.org/1999/xlink" x="0px" y="0px"
	 width="100px" height="100px" viewBox="0 0 100 100" enable-background="new 0 0 100 100" xml:space="preserve">
<path d="M78.134,28.369C77.784,27.467,76.915,27,75.948,27H48.649c-0.689,0-1.346,0.174-1.792,0.701l-4.431,5.178l-9.45-11.178
	c-0.052-0.061-0.119-0.114-0.177-0.169c-0.09-0.086-0.178-0.179-0.283-0.251c-0.1-0.07-0.209-0.126-0.316-0.181
	c-0.075-0.035-0.137-0.09-0.213-0.117c-0.035-0.012-0.07-0.011-0.104-0.021c-0.117-0.037-0.238-0.055-0.36-0.07
	c-0.116-0.02-0.229-0.04-0.345-0.04c-0.111,0-0.221,0.021-0.332,0.039c-0.127,0.018-0.248,0.035-0.371,0.072
	c-0.03,0.012-0.064,0.008-0.094,0.02c-0.078,0.029-0.14,0.082-0.211,0.117c-0.113,0.055-0.222,0.107-0.324,0.18
	c-0.104,0.072-0.189,0.158-0.279,0.246c-0.058,0.057-0.128,0.096-0.182,0.158L19.55,33.489c-0.582,0.699-0.709,1.505-0.322,2.327
	C19.613,36.643,20.44,37,21.351,37H29v12.747c0,0.035-0.064,0.066-0.064,0.102c0.008,0.115-0.032,0.232-0.009,0.348
	c0.01,0.057,0.016,0.109,0.031,0.164c0.018,0.064,0.025,0.125,0.049,0.188c0.059,0.16,0.129,0.313,0.221,0.455
	c0.022,0.037,0.036,0.074,0.061,0.109c0.122,0.17,0.267,0.32,0.431,0.453c0.041,0.033,0.09,0.061,0.133,0.09
	c0.082,0.057,0.155,0.119,0.244,0.168l13.343,7.02l8.023,16.393c0.4,0.818,1.225,1.314,2.104,1.314c0.178,0,0.398-0.02,0.574-0.061
	c1.063-0.246,1.86-1.191,1.86-2.283V50.534l21.572-19.649C78.287,30.232,78.485,29.271,78.134,28.369z"/>
</svg>
