<?xml version="1.0" encoding="utf-8"?>
<!-- Generator: Adobe Illustrator 16.0.0, SVG Export Plug-In . SVG Version: 6.00 Build 0)  -->
<!DOCTYPE svg PUBLIC "-//W3C//DTD SVG 1.1//EN" "http://www.w3.org/Graphics/SVG/1.1/DTD/svg11.dtd">
<svg version="1.1" id="Layer_1" xmlns="http://www.w3.org/2000/svg" xmlns:xlink="http://www.w3.org/1999/xlink" x="0px" y="0px"
	 width="100px" height="100px" viewBox="0 0 100 100" enable-background="new 0 0 100 100" xml:space="preserve">
<g>
	<path d="M51.398,19.875c-16.613,0-30.082,13.469-30.082,30.082s13.469,30.082,30.082,30.082c16.614,0,30.083-13.469,30.083-30.082
		S68.012,19.875,51.398,19.875z M51.398,77.366c-15.113,0-27.409-12.295-27.409-27.409c0-15.113,12.296-27.409,27.409-27.409
		c15.113,0,27.409,12.296,27.409,27.409C78.807,65.071,66.512,77.366,51.398,77.366z"/>
	<path d="M60.278,28.321v22.714l1.72-1.719c0.847-0.848,2.219-0.848,3.065,0c0.847,0.847,0.847,2.219,0,3.065l-5.419,5.419
		l-0.002,0.003l-1.532,1.531l-1.531-1.531l-0.003-0.003l-5.058-5.058c-0.847-0.847-0.847-2.219,0-3.065
		c0.847-0.847,2.219-0.847,3.066,0l1.358,1.357V27.451c0-0.149,0.016-0.293,0.044-0.435c-1.485-0.296-3.018-0.457-4.588-0.457
		c-12.901,0-23.397,10.496-23.397,23.397c0,9.273,5.438,17.281,13.28,21.064v-22.12l-1.719,1.719
		c-0.423,0.424-0.978,0.636-1.533,0.636s-1.109-0.212-1.533-0.636c-0.847-0.847-0.847-2.219,0-3.065l5.419-5.419
		c0.001-0.001,0.001-0.001,0.001-0.001l1.533-1.533l1.532,1.531c0,0,0.001,0.002,0.003,0.003l5.058,5.058
		c0.847,0.847,0.847,2.219,0,3.065c-0.847,0.847-2.219,0.847-3.066,0l-1.358-1.357v23.584c0,0.039-0.009,0.076-0.011,0.114
		c1.856,0.476,3.79,0.755,5.792,0.755c12.901,0,23.399-10.496,23.399-23.397C74.797,40.199,68.787,31.826,60.278,28.321z"/>
</g>
</svg>
