<?xml version="1.0" encoding="utf-8"?>
<!-- Generator: Adobe Illustrator 16.0.0, SVG Export Plug-In . SVG Version: 6.00 Build 0)  -->
<!DOCTYPE svg PUBLIC "-//W3C//DTD SVG 1.1//EN" "http://www.w3.org/Graphics/SVG/1.1/DTD/svg11.dtd">
<svg version="1.1" id="Layer_1" xmlns="http://www.w3.org/2000/svg" xmlns:xlink="http://www.w3.org/1999/xlink" x="0px" y="0px"
	 width="100px" height="100px" viewBox="0 0 100 100" enable-background="new 0 0 100 100" xml:space="preserve">
<path d="M73.053,46.655c-0.283-0.978-0.928-1.784-1.818-2.277c-0.561-0.309-1.195-0.473-1.835-0.473
	c-0.804,0-1.569,0.253-2.204,0.701C63.838,37.942,57.01,33.642,49.38,33.642c-11.011,0-19.969,8.958-19.969,19.969
	c0,11.012,8.958,19.97,19.969,19.97c2.099,0,3.807-1.708,3.807-3.808c0-2.099-1.708-3.807-3.807-3.807
	c-6.812,0-12.354-5.543-12.354-12.355c0-6.812,5.543-12.354,12.354-12.354c4.11,0,7.876,2.05,10.146,5.328
	c-1.049,0.237-1.965,0.912-2.495,1.875c-0.491,0.891-0.605,1.919-0.323,2.896c0.282,0.977,0.928,1.784,1.818,2.276l3.898,2.15
	c0.705,1.021,1.854,1.636,3.118,1.636c0.272,0,0.546-0.032,0.831-0.101c1.316-0.063,2.514-0.803,3.154-1.963l3.202-5.803
	C73.221,48.661,73.335,47.632,73.053,46.655z M71.294,48.76l-3.202,5.803c-0.395,0.717-1.136,1.12-1.899,1.12
	c-0.011,0-0.022-0.004-0.034-0.004c-0.195,0.06-0.4,0.101-0.616,0.101c-0.854,0-1.587-0.5-1.939-1.219l-4.286-2.364
	c-1.049-0.578-1.43-1.896-0.851-2.945c0.579-1.051,1.901-1.429,2.946-0.852l1.186,0.653c-1.897-5.482-7.099-9.436-13.218-9.436
	c-7.717,0-13.993,6.276-13.993,13.993s6.276,13.994,13.993,13.994c1.196,0,2.168,0.972,2.168,2.168c0,1.197-0.972,2.168-2.168,2.168
	c-10.108,0-18.33-8.222-18.33-18.33c0-10.107,8.222-18.33,18.33-18.33c8.124,0,15.021,5.317,17.419,12.65l0.697-1.266
	c0.581-1.048,1.9-1.429,2.947-0.852C71.491,46.393,71.873,47.711,71.294,48.76z"/>
</svg>
