<?xml version="1.0" encoding="utf-8"?>
<!-- Generator: Adobe Illustrator 16.0.0, SVG Export Plug-In . SVG Version: 6.00 Build 0)  -->
<!DOCTYPE svg PUBLIC "-//W3C//DTD SVG 1.1//EN" "http://www.w3.org/Graphics/SVG/1.1/DTD/svg11.dtd">
<svg version="1.1" id="Layer_1" xmlns="http://www.w3.org/2000/svg" xmlns:xlink="http://www.w3.org/1999/xlink" x="0px" y="0px"
	 width="100px" height="100px" viewBox="0 0 100 100" enable-background="new 0 0 100 100" xml:space="preserve">
<g>
	<path d="M61.291,24.063c-6.352,0-11.518,5.167-11.518,11.519c0,5.896,9.404,18.859,10.477,20.318l0.395,0.536
		c0.15,0.205,0.393,0.328,0.646,0.328c0.256,0,0.496-0.123,0.646-0.327l0.395-0.537c1.072-1.459,10.479-14.422,10.479-20.318
		C72.811,29.23,67.643,24.063,61.291,24.063z M61.291,41.292c-2.607,0-4.729-2.12-4.729-4.728s2.121-4.729,4.729-4.729
		s4.729,2.122,4.729,4.729S63.898,41.292,61.291,41.292z"/>
	<path d="M61.291,33.93c-1.451,0-2.633,1.182-2.633,2.635c0,1.452,1.182,2.634,2.633,2.634c1.453,0,2.635-1.182,2.635-2.634
		C63.926,35.111,62.744,33.93,61.291,33.93z"/>
	<path d="M32.561,75.529l-0.719,0.536c4.637-6.919,11.516-18.22,11.516-24.354c0-9.397-7.645-17.042-17.041-17.042
		S9.275,42.313,9.275,51.711c0,8.724,13.914,27.901,15.5,30.059l0.582,0.794c0.225,0.304,0.582,0.485,0.959,0.485
		s0.734-0.182,0.955-0.483l0.586-0.796c0.211-0.287,0.645-0.883,1.23-1.709c0.295,0.367,0.727,0.564,1.166,0.564
		c0.313,0,0.629-0.097,0.898-0.299l3.203-2.395c0.664-0.495,0.799-1.436,0.305-2.099C34.162,75.168,33.223,75.031,32.561,75.529z
		 M26.316,60.158c-3.857,0-6.996-3.137-6.996-6.995c0-3.857,3.139-6.996,6.996-6.996s6.994,3.139,6.994,6.996
		C33.311,57.021,30.174,60.158,26.316,60.158z"/>
	<path d="M26.316,49.267c-2.148,0-3.896,1.748-3.896,3.896c0,2.149,1.748,3.897,3.896,3.897s3.896-1.748,3.896-3.897
		C30.213,51.015,28.465,49.267,26.316,49.267z"/>
	<path d="M41.775,68.642l-6.143,4.592c-0.664,0.495-0.801,1.436-0.305,2.1c0.295,0.394,0.746,0.602,1.203,0.602
		c0.313,0,0.627-0.097,0.896-0.299l6.145-4.592c0.664-0.495,0.799-1.436,0.303-2.1C43.379,68.281,42.439,68.144,41.775,68.642z"/>
	<path d="M50.992,61.755l-6.145,4.592c-0.662,0.495-0.799,1.436-0.303,2.1c0.295,0.394,0.746,0.602,1.203,0.602
		c0.313,0,0.627-0.097,0.896-0.299l6.145-4.592c0.662-0.495,0.799-1.436,0.303-2.1C52.594,61.395,51.654,61.257,50.992,61.755z"/>
	<path d="M57.268,57.064l-3.203,2.395c-0.664,0.495-0.799,1.436-0.305,2.099c0.295,0.395,0.746,0.603,1.203,0.603
		c0.313,0,0.627-0.097,0.896-0.299l3.205-2.395c0.664-0.495,0.799-1.436,0.303-2.099C58.871,56.703,57.932,56.566,57.268,57.064z"/>
</g>
</svg>
