<?xml version="1.0" encoding="utf-8"?>
<!-- Generator: Adobe Illustrator 16.0.0, SVG Export Plug-In . SVG Version: 6.00 Build 0)  -->
<!DOCTYPE svg PUBLIC "-//W3C//DTD SVG 1.1//EN" "http://www.w3.org/Graphics/SVG/1.1/DTD/svg11.dtd">
<svg version="1.1" id="Layer_1" xmlns="http://www.w3.org/2000/svg" xmlns:xlink="http://www.w3.org/1999/xlink" x="0px" y="0px"
	 width="100px" height="100px" viewBox="0 0 100 100" enable-background="new 0 0 100 100" xml:space="preserve">
<g>
	<path d="M32.835,51.132c0-4.741,1.586-9.106,4.234-12.637c1.059,1.414,1.939,2.967,2.625,4.62l-1.892,0.793l1.118,2.665
		l1.704-0.715c0.322,1.235,0.528,2.516,0.618,3.828h-2.881v2.892h2.881c-0.095,1.376-0.323,2.713-0.67,4.003l-1.651-0.691
		l-1.118,2.664l1.827,0.766c-0.678,1.589-1.537,3.083-2.561,4.447C34.421,60.238,32.835,55.872,32.835,51.132z"/>
	<path d="M53.965,72.26c-5.158,0-9.882-1.86-13.554-4.938c1.486-1.856,2.708-3.927,3.647-6.145l2.657,1.112l1.118-2.665
		l-2.797-1.172c0.557-1.88,0.903-3.845,1.016-5.874h2.306v-2.892h-2.306c-0.11-1.967-0.433-3.874-0.96-5.699l2.741-1.149
		l-1.118-2.665l-2.587,1.084c-0.947-2.282-2.194-4.412-3.719-6.314c3.672-3.079,8.398-4.94,13.556-4.94
		c4.579,0,8.809,1.479,12.273,3.964c-1.507,2.102-2.711,4.435-3.545,6.933l-1.731-0.726l-1.116,2.665l2.098,0.88
		c-0.364,1.718-0.573,3.493-0.573,5.32c0,0.252,0.028,0.496,0.035,0.748h-2.87v2.891h3.12c0.284,1.987,0.776,3.907,1.486,5.724
		l-2.685,1.125l1.116,2.665l2.771-1.16c1.071,2.032,2.398,3.914,3.945,5.59C64.521,70.107,59.496,72.26,53.965,72.26z"/>
	<path d="M71.462,62.964c-1.022-1.16-1.903-2.443-2.654-3.806l1.677-0.703l-1.117-2.665l-1.797,0.754
		c-0.476-1.237-0.83-2.532-1.064-3.867h2.026v-2.891h-2.316c-0.01-0.25-0.037-0.496-0.037-0.748c0-1.166,0.102-2.31,0.285-3.425
		l2.292,0.96l1.117-2.665l-2.74-1.149c0.621-1.992,1.53-3.861,2.679-5.556c3.277,3.724,5.282,8.591,5.282,13.929
		C75.096,55.514,73.753,59.586,71.462,62.964z"/>
</g>
</svg>
