<?xml version="1.0" encoding="utf-8"?>
<!-- Generator: Adobe Illustrator 16.0.0, SVG Export Plug-In . SVG Version: 6.00 Build 0)  -->
<!DOCTYPE svg PUBLIC "-//W3C//DTD SVG 1.1//EN" "http://www.w3.org/Graphics/SVG/1.1/DTD/svg11.dtd">
<svg version="1.1" id="Layer_1" xmlns="http://www.w3.org/2000/svg" xmlns:xlink="http://www.w3.org/1999/xlink" x="0px" y="0px"
	 width="100px" height="100px" viewBox="0 0 100 100" enable-background="new 0 0 100 100" xml:space="preserve">
<g>
	<path d="M58.649,49.026l1.173-4.006l-6.88,2.014c-0.183,0.053-0.376,0.053-0.559,0.001l-2.874-0.843h-0.002l-4.004-1.173
		l1.173,4.003c0,0,0,0.001,0,0.003l0.843,2.873c0.052,0.184,0.052,0.376-0.002,0.559l-2.014,6.881l4.006-1.174l2.874-0.841
		c0.183-0.054,0.376-0.054,0.559-0.002l2.873,0.843c0,0,0.002-0.001,0.003,0l4.004,1.173l-1.173-4.003v-0.003l-0.843-2.873
		c-0.053-0.183-0.053-0.375,0-0.559L58.649,49.026z M54.547,54.562c-1.176,1.176-3.092,1.176-4.268,0
		c-1.176-1.177-1.176-3.091,0-4.267c1.178-1.179,3.094-1.179,4.27-0.001C55.725,51.469,55.725,53.385,54.547,54.562z"/>
	<path d="M52.663,24.12c-15.474,0-28.06,12.587-28.06,28.059c0,15.474,12.586,28.062,28.06,28.062
		c15.472,0,28.06-12.588,28.06-28.062C80.723,36.707,68.135,24.12,52.663,24.12z M65.33,53.049l-4.553,2.49l1.458,4.982
		c0.103,0.348,0.005,0.725-0.251,0.98c-0.254,0.257-0.631,0.353-0.979,0.25l-4.981-1.458l-2.49,4.554
		c-0.172,0.317-0.507,0.516-0.869,0.516c-0.268,0-0.52-0.107-0.701-0.29c-0.068-0.066-0.125-0.142-0.168-0.226l-2.492-4.554
		l-4.983,1.459c-0.349,0.101-0.724,0.006-0.979-0.25c-0.257-0.256-0.352-0.633-0.251-0.981l1.46-4.982l-4.553-2.49
		c-0.086-0.046-0.162-0.103-0.227-0.168c-0.185-0.183-0.291-0.435-0.289-0.703c0-0.363,0.196-0.696,0.514-0.872l4.555-2.488
		l-1.46-4.982c-0.101-0.348-0.005-0.725,0.251-0.98c0.256-0.256,0.631-0.353,0.979-0.25l4.983,1.457l2.49-4.553
		c0.174-0.319,0.508-0.516,0.871-0.516c0.362,0,0.697,0.197,0.869,0.516l2.49,4.554l4.981-1.459
		c0.349-0.101,0.726-0.004,0.981,0.252c0.257,0.255,0.352,0.632,0.25,0.98l-1.459,4.982l4.553,2.49
		c0.32,0.173,0.516,0.509,0.516,0.87C65.846,52.542,65.648,52.875,65.33,53.049z"/>
	<circle cx="52.413" cy="52.428" r="1.034"/>
</g>
</svg>
