<?xml version="1.0" encoding="utf-8"?>
<!-- Generator: Adobe Illustrator 16.0.0, SVG Export Plug-In . SVG Version: 6.00 Build 0)  -->
<!DOCTYPE svg PUBLIC "-//W3C//DTD SVG 1.1//EN" "http://www.w3.org/Graphics/SVG/1.1/DTD/svg11.dtd">
<svg version="1.1" id="Layer_1" xmlns="http://www.w3.org/2000/svg" xmlns:xlink="http://www.w3.org/1999/xlink" x="0px" y="0px"
	 width="100px" height="100px" viewBox="0 0 100 100" enable-background="new 0 0 100 100" xml:space="preserve">
<g>
	<path d="M62.918,52.509c0.9,1.174,2.26,1.883,3.645,1.945c0.15,0.016,0.301,0.023,0.447,0.023l0.389-0.018
		c0.512-0.033,0.988-0.143,1.43-0.332l10.027-5.137c2.523-1.299,3.596-4.418,2.387-6.953l-0.51-1.08
		c-0.848-1.777-2.596-2.883-4.564-2.883c-0.814,0-1.631,0.201-2.365,0.578l-3.764,1.932l-1.756-4.248
		c-0.357-0.754-0.836-1.42-1.395-1.994c4.377-0.926,7.68-4.93,7.68-9.711c0-5.465-4.311-9.91-9.613-9.91
		c-5.301,0-9.61,4.445-9.61,9.91c0,1.342,0.261,2.619,0.731,3.785c-0.549-0.055-1.1-0.031-1.637,0.096
		c-0.165-0.014-0.332-0.021-0.502-0.021H38.23c-0.77,0-1.529,0.121-2.264,0.359c-1.406,0.32-2.611,1.254-3.27,2.492
		c-0.119,0.191-0.217,0.389-0.313,0.611c-0.271,0.627-0.402,1.232-0.402,1.842v11.33c0,2.926,2.268,5.307,5.061,5.307h1.156
		c2.79,0,5.061-2.381,5.061-5.307v-4.773h3.238l-6.293,12.584c-0.633,1.23-0.744,2.646-0.33,3.965
		c-0.001,0.016-0.001,0.033-0.001,0.049v6.164H34.29c-3.216,0-5.831,2.684-5.831,5.98v1.508c0,3.301,2.615,5.982,5.831,5.982h12.868
		c3.213,0,5.829-2.682,5.829-5.982v-3.359l14.995,15.586c1.104,1.148,2.578,1.779,4.15,1.779s3.047-0.631,4.152-1.779l1.025-1.066
		c2.227-2.316,2.227-6.088,0-8.404L59.67,55.032l2.09-4.174C62.072,51.458,62.461,52.013,62.918,52.509z"/>
	<path d="M66.902,50.478l0.107-0.01v-0.002C67.018,50.466,66.967,50.468,66.902,50.478z"/>
</g>
</svg>
