<?xml version="1.0" encoding="utf-8"?>
<!-- Generator: Adobe Illustrator 16.0.0, SVG Export Plug-In . SVG Version: 6.00 Build 0)  -->
<!DOCTYPE svg PUBLIC "-//W3C//DTD SVG 1.1//EN" "http://www.w3.org/Graphics/SVG/1.1/DTD/svg11.dtd">
<svg version="1.1" id="Layer_1" xmlns="http://www.w3.org/2000/svg" xmlns:xlink="http://www.w3.org/1999/xlink" x="0px" y="0px"
	 width="100px" height="100px" viewBox="0 0 100 100" enable-background="new 0 0 100 100" xml:space="preserve">
<g>
	<path d="M50.801,28.515h-16.26c-1.188,0-2.15,0.964-2.15,2.15v16.259c0,1.188,0.963,2.151,2.15,2.151h16.26
		c1.188,0,2.15-0.963,2.15-2.151V30.666C52.951,29.479,51.988,28.515,50.801,28.515z"/>
	<path d="M72.795,28.515h-16.26c-1.186,0-2.15,0.964-2.15,2.15v16.259c0,1.188,0.965,2.151,2.15,2.151h16.26
		c1.188,0,2.15-0.963,2.15-2.151V30.666C74.945,29.479,73.982,28.515,72.795,28.515z"/>
	<path d="M50.801,50.51h-16.26c-1.188,0-2.15,0.962-2.15,2.15v16.259c0,1.188,0.963,2.15,2.15,2.15h16.26
		c1.188,0,2.15-0.962,2.15-2.15V52.66C52.951,51.472,51.988,50.51,50.801,50.51z"/>
	<path d="M72.795,50.51h-16.26c-1.186,0-2.15,0.962-2.15,2.15v16.259c0,1.188,0.965,2.15,2.15,2.15h16.26
		c1.188,0,2.15-0.962,2.15-2.15V52.66C74.945,51.472,73.982,50.51,72.795,50.51z"/>
</g>
</svg>
