<?xml version="1.0" encoding="utf-8"?>
<!-- Generator: Adobe Illustrator 16.0.0, SVG Export Plug-In . SVG Version: 6.00 Build 0)  -->
<!DOCTYPE svg PUBLIC "-//W3C//DTD SVG 1.1//EN" "http://www.w3.org/Graphics/SVG/1.1/DTD/svg11.dtd">
<svg version="1.1" id="Layer_1" xmlns="http://www.w3.org/2000/svg" xmlns:xlink="http://www.w3.org/1999/xlink" x="0px" y="0px"
	 width="100px" height="100px" viewBox="0 0 100 100" enable-background="new 0 0 100 100" xml:space="preserve">
<path d="M50.238,19.875c-16.614,0-30.083,13.469-30.083,30.083c0,16.613,13.469,30.082,30.083,30.082s30.083-13.469,30.083-30.082
	C80.321,33.343,66.853,19.875,50.238,19.875z M53.47,44.299l-4.142,6.412l4.142,6.411h8.089l-1.54-1.54
	c-0.847-0.848-0.847-2.219,0-3.066c0.848-0.847,2.221-0.847,3.067,0l4.827,4.829c0.439,0.213,0.793,0.565,1.006,1.005l1.119,1.121
	l-6.592,6.592c-0.424,0.423-0.977,0.635-1.533,0.635c-0.553,0-1.109-0.212-1.533-0.635c-0.847-0.848-0.847-2.219,0-3.066
	l1.539-1.538H52.29c-0.17,0-0.332-0.024-0.49-0.061c-0.043-0.01-0.082-0.025-0.123-0.038c-0.119-0.034-0.23-0.076-0.339-0.13
	c-0.046-0.022-0.092-0.048-0.138-0.075c-0.104-0.061-0.201-0.13-0.291-0.206c-0.037-0.029-0.074-0.057-0.107-0.089
	c-0.121-0.114-0.231-0.243-0.324-0.383c-0.004-0.004-0.006-0.007-0.01-0.011l-3.721-5.761l-3.721,5.761
	c-0.002,0.004-0.006,0.007-0.01,0.011c-0.092,0.14-0.201,0.268-0.322,0.383c-0.035,0.032-0.072,0.06-0.109,0.09
	c-0.092,0.076-0.186,0.145-0.289,0.204c-0.045,0.028-0.092,0.054-0.141,0.076c-0.106,0.054-0.219,0.095-0.336,0.13
	c-0.04,0.011-0.081,0.028-0.123,0.038c-0.158,0.036-0.32,0.061-0.49,0.061h-0.003l-10.595-0.002c-1.197,0-2.168-0.971-2.168-2.168
	c0-1.196,0.971-2.168,2.168-2.168l9.418,0.002l4.141-6.411l-4.141-6.412l-9.418-0.001c-1.197,0-2.168-0.971-2.168-2.168
	s0.971-2.168,2.168-2.168l10.598,0.001c0.003,0,0.007,0.002,0.012,0.002c0.121,0,0.24,0.016,0.357,0.035
	c0.024,0.004,0.051,0.004,0.074,0.008c0.109,0.024,0.216,0.062,0.322,0.101c0.025,0.01,0.055,0.016,0.081,0.027
	c0.091,0.038,0.177,0.09,0.263,0.143c0.034,0.02,0.072,0.035,0.104,0.056c0.051,0.035,0.097,0.081,0.146,0.12
	c0.061,0.05,0.124,0.097,0.18,0.151c0.029,0.029,0.053,0.066,0.082,0.099c0.066,0.076,0.133,0.154,0.189,0.238
	c0.004,0.005,0.008,0.009,0.01,0.013l3.721,5.761l3.721-5.761c0.004-0.004,0.008-0.008,0.011-0.013
	c0.055-0.081,0.118-0.155,0.183-0.229c0.03-0.036,0.057-0.076,0.09-0.11c0.042-0.042,0.093-0.076,0.139-0.115
	c0.169-0.146,0.354-0.27,0.556-0.354c0.005-0.003,0.011-0.003,0.017-0.006c0.125-0.052,0.254-0.091,0.386-0.12
	c0.019-0.004,0.04-0.002,0.058-0.007c0.125-0.021,0.247-0.035,0.373-0.036c0.002,0,0.007-0.002,0.012-0.002h9.449l-1.721-1.721
	c-0.847-0.847-0.847-2.219,0-3.065c0.848-0.847,2.221-0.847,3.067,0l6.952,6.954l-1.53,1.532l-0.003,0.003l-5.059,5.057
	c-0.424,0.424-0.977,0.636-1.533,0.636c-0.553,0-1.109-0.212-1.533-0.636c-0.847-0.847-0.847-2.219,0-3.065l1.358-1.358H53.47z"/>
</svg>
