<?xml version="1.0" encoding="utf-8"?>
<!-- Generator: Adobe Illustrator 16.0.0, SVG Export Plug-In . SVG Version: 6.00 Build 0)  -->
<!DOCTYPE svg PUBLIC "-//W3C//DTD SVG 1.1//EN" "http://www.w3.org/Graphics/SVG/1.1/DTD/svg11.dtd">
<svg version="1.1" id="Layer_1" xmlns="http://www.w3.org/2000/svg" xmlns:xlink="http://www.w3.org/1999/xlink" x="0px" y="0px"
	 width="100px" height="100px" viewBox="0 0 100 100" enable-background="new 0 0 100 100" xml:space="preserve">
<g>
	<path d="M52.893,19.697c-17.913,0-32.482,14.573-32.482,32.482c0,17.913,14.57,32.484,32.482,32.484
		c17.912,0,32.482-14.571,32.482-32.484C85.375,34.27,70.805,19.697,52.893,19.697z M52.893,78.634
		c-14.589,0-26.459-11.867-26.459-26.455c0-14.591,11.87-26.458,26.459-26.458c14.591,0,26.455,11.867,26.455,26.458
		C79.348,66.767,67.484,78.634,52.893,78.634z"/>
	<path d="M52.895,75.865c-12.604,0-22.856-10.252-22.856-22.854c0-6.056,2.383-11.554,6.243-15.647
		c-0.195,0.977-0.182,2.017,0.229,3.044c1.563,3.909,0.978,1.955,2.533,5.863s4.111,2.149,5.888,2.541
		c1.774,0.391,2.718,1.368,3.304,1.563c0.586,0.195,2.345,0.977,2.583,2.992s-0.434,1.893-1.576,2.87
		c-1.145,0.977,0.165,2.15,0,3.713c-0.168,1.563,2.314,0.586,5.441,2.736c3.126,2.15,0.977,2.932,0.391,4.104
		c-0.586,1.172-1.954,0.586-4.256,0.586s0,1.368,0,1.368s0.935,1.173,2.076,0.977c1.139-0.195,2.767-0.391,3.933-0.782
		c1.163-0.391,2.742-1.368,4.892-1.759c2.149-0.391,4.69-5.472,7.23-7.035c2.541-1.563,1.172-2.932,1.172-4.495
		c0-1.563-1.368,0-2.736,0c-1.368,0-2.149-0.196-4.495-2.284s-1.759-1.429-3.777-2.602c-2.019-1.172-4.235-0.782-5.212-0.782
		s-4.495-0.391-7.035-2.149s-4.299-3.127-3.518-4.299s0,0,1.582,0c1.579,0,3.627-0.26,4.312,0.586c0.245,0.304-0.278,1.287,0,1.563
		c0.645,0.646,2.954,0.591,3.652,0c0.418-0.354,0.226-1.368,0.421-2.149c0.196-0.782-0.195-1.954,0-3.713
		c0.196-1.759,0,0,0.596-0.782c0.592-0.782,2.336-0.977,3.899-1.954c1.563-0.977,1.368-0.782,1.173-2.15
		c-0.195-1.368,0-1.368,0-1.368s-2.541-1.173-3.318-1.368c-0.743-0.186-1.659-1.844-1.739-1.992
		c12.122,0.545,21.821,10.548,21.821,22.803C75.748,65.613,65.496,75.865,52.895,75.865z"/>
</g>
</svg>
