<?xml version="1.0" encoding="utf-8"?>
<!-- Generator: Adobe Illustrator 16.0.0, SVG Export Plug-In . SVG Version: 6.00 Build 0)  -->
<!DOCTYPE svg PUBLIC "-//W3C//DTD SVG 1.1//EN" "http://www.w3.org/Graphics/SVG/1.1/DTD/svg11.dtd">
<svg version="1.1" id="Layer_1" xmlns="http://www.w3.org/2000/svg" xmlns:xlink="http://www.w3.org/1999/xlink" x="0px" y="0px"
	 width="100px" height="100px" viewBox="0 0 100 100" enable-background="new 0 0 100 100" xml:space="preserve">
<path d="M57.368,49.389V48.57c4.029-0.971,7.032-4.605,7.032-8.93c0-5.063-4.12-9.184-9.184-9.184c-5.064,0-9.187,4.121-9.187,9.184
	c0,1.188,0.964,2.15,2.151,2.15c1.189,0,2.15-0.963,2.15-2.15c0-2.691,2.191-4.881,4.885-4.881c2.691,0,4.882,2.189,4.882,4.881
	s-2.19,4.883-4.882,4.883c-1.188,0-2.151,0.963-2.151,2.15v2.715C39.573,50.111,29.286,57.535,29.286,66.9
	c0,1.188,0.963,2.152,2.15,2.152h47.558c1.188,0,2.149-0.965,2.149-2.152C81.144,57.535,70.86,50.111,57.368,49.389z"/>
</svg>
