<?xml version="1.0" encoding="utf-8"?>
<!-- Generator: Adobe Illustrator 16.0.0, SVG Export Plug-In . SVG Version: 6.00 Build 0)  -->
<!DOCTYPE svg PUBLIC "-//W3C//DTD SVG 1.1//EN" "http://www.w3.org/Graphics/SVG/1.1/DTD/svg11.dtd">
<svg version="1.1" id="Layer_1" xmlns="http://www.w3.org/2000/svg" xmlns:xlink="http://www.w3.org/1999/xlink" x="0px" y="0px"
	 width="100px" height="100px" viewBox="0 0 100 100" enable-background="new 0 0 100 100" xml:space="preserve">
<g>
	<path d="M74.425,24.35c0-1.295-1.049-2.346-2.344-2.346h-8.514c-1.295,0-2.346,1.051-2.346,2.346v9.383h13.203V24.35z"/>
	<path d="M43.472,24.35c0-1.295-1.051-2.346-2.346-2.346h-8.512c-1.295,0-2.346,1.051-2.346,2.346v9.383h13.203V24.35z"/>
	<path d="M61.222,44.99c0,6.344-2.775,13.172-8.873,13.172c-6.1,0-8.877-6.828-8.877-13.172v-9.172H30.269v14.859
		c0,11.77,9.904,21.344,22.08,21.344c12.174,0,22.076-9.574,22.076-21.344V35.818H61.222V44.99z"/>
</g>
</svg>
