<?xml version="1.0" encoding="utf-8"?>
<!-- Generator: Adobe Illustrator 16.0.0, SVG Export Plug-In . SVG Version: 6.00 Build 0)  -->
<!DOCTYPE svg PUBLIC "-//W3C//DTD SVG 1.1//EN" "http://www.w3.org/Graphics/SVG/1.1/DTD/svg11.dtd">
<svg version="1.1" id="Layer_1" xmlns="http://www.w3.org/2000/svg" xmlns:xlink="http://www.w3.org/1999/xlink" x="0px" y="0px"
	 width="100px" height="100px" viewBox="0 0 100 100" enable-background="new 0 0 100 100" xml:space="preserve">
<g>
	<path d="M54.728,51.033V43.62h-2.631v7.413c0,0.397-0.32,0.718-0.717,0.718h-7.414v2.629h7.414c0.396,0,0.717,0.321,0.717,0.718
		v7.412h2.631v-7.412c0-0.396,0.32-0.718,0.718-0.718h7.411v-2.629h-7.411C55.048,51.751,54.728,51.431,54.728,51.033z"/>
	<path d="M74.323,33.433h-9.315v-5.186c0-0.794-0.642-1.435-1.434-1.435H43.25c-0.791,0-1.435,0.641-1.435,1.435v5.186h-9.314
		c-1.188,0-2.151,0.962-2.151,2.15v34.964c0,1.188,0.964,2.15,2.151,2.15h41.822c1.189,0,2.151-0.963,2.151-2.15V35.583
		C76.475,34.395,75.513,33.433,74.323,33.433z M44.684,29.681H62.14v3.584H44.684V29.681z M64.29,55.098
		c0,0.396-0.318,0.717-0.716,0.717h-7.413v7.413c0,0.396-0.319,0.717-0.716,0.717H51.38c-0.396,0-0.718-0.321-0.718-0.717v-7.413
		H43.25c-0.395,0-0.718-0.321-0.718-0.717v-4.064c0-0.396,0.323-0.717,0.718-0.717h7.412v-7.413c0-0.396,0.321-0.717,0.718-0.717
		h4.065c0.396,0,0.716,0.32,0.716,0.717v7.413h7.413c0.397,0,0.716,0.32,0.716,0.717V55.098z"/>
</g>
</svg>
