<?xml version="1.0" encoding="utf-8"?>
<!-- Generator: Adobe Illustrator 16.0.0, SVG Export Plug-In . SVG Version: 6.00 Build 0)  -->
<!DOCTYPE svg PUBLIC "-//W3C//DTD SVG 1.1//EN" "http://www.w3.org/Graphics/SVG/1.1/DTD/svg11.dtd">
<svg version="1.1" id="Layer_1" xmlns="http://www.w3.org/2000/svg" xmlns:xlink="http://www.w3.org/1999/xlink" x="0px" y="0px"
	 width="100px" height="100px" viewBox="0 0 100 100" enable-background="new 0 0 100 100" xml:space="preserve">
<path d="M81.355,33.837l-10.331,0.002h-11.21v-0.002v-0.07c0-0.115-0.016-0.225-0.03-0.336c1.535-1.951,2.463-4.396,2.463-7.066
	c0-6.328-5.151-11.48-11.48-11.48c-6.33,0-11.48,5.152-11.48,11.48c0,2.666,0.926,5.109,2.455,7.061
	c-0.007,0.082-0.022,0.162-0.022,0.246v0.166l0,0l-11.184,0.002l-10.331-0.002c-0.889,0.199-1.564,0.99-1.565,1.963
	c0.001,1.125,0.888,2.033,1.982,2.033h0.971h3.461h14.426h2.24v0.014V60.46v4.01v1.627V85.3c0,3.305,1.742,5.795,4.05,5.795h9.995
	c2.31,0,4.05-2.49,4.05-5.795V67.563V64.47v-4.01V37.847v-0.014h2.269h14.424h3.461h0.973c1.092,0,1.979-0.908,1.981-2.033
	C82.92,34.827,82.246,34.036,81.355,33.837z"/>
</svg>
