<?xml version="1.0" encoding="utf-8"?>
<!-- Generator: Adobe Illustrator 16.0.0, SVG Export Plug-In . SVG Version: 6.00 Build 0)  -->
<!DOCTYPE svg PUBLIC "-//W3C//DTD SVG 1.1//EN" "http://www.w3.org/Graphics/SVG/1.1/DTD/svg11.dtd">
<svg version="1.1" id="Layer_1" xmlns="http://www.w3.org/2000/svg" xmlns:xlink="http://www.w3.org/1999/xlink" x="0px" y="0px"
	 width="100px" height="100px" viewBox="0 0 100 100" enable-background="new 0 0 100 100" xml:space="preserve">
<g>
	<g>
		<g>
			<path d="M49.656,76.939c-4.28,0-7.764-3.482-7.764-7.764s3.483-7.762,7.764-7.762c4.281,0,7.765,3.48,7.765,7.762
				S53.938,76.939,49.656,76.939z"/>
		</g>
	</g>
	<g>
		<g>
			<path d="M77.058,44.353c-1.416,0-2.747-0.551-3.748-1.552c-6.316-6.317-14.714-9.797-23.651-9.797
				c-8.937,0-17.336,3.479-23.653,9.797c-2.005,2-5.492,2-7.494,0.004c-2.07-2.072-2.07-5.435-0.001-7.5
				c8.319-8.32,19.381-12.902,31.146-12.902c11.771,0,22.832,4.582,31.149,12.903c2.066,2.065,2.066,5.428,0,7.495
				C79.804,43.803,78.474,44.353,77.058,44.353z"/>
		</g>
	</g>
	<g>
		<g>
			<path d="M67.924,53.487c-1.415,0-2.746-0.551-3.747-1.554c-3.878-3.877-9.032-6.012-14.519-6.012
				c-5.489,0-10.645,2.136-14.521,6.016c-2.012,2.001-5.495,1.998-7.495,0.002c-2.069-2.07-2.069-5.435-0.004-7.5
				c5.884-5.881,13.701-9.119,22.018-9.119s16.137,3.239,22.017,9.12c1.001,0.999,1.554,2.33,1.554,3.747
				c0,1.416-0.553,2.747-1.552,3.748C70.667,52.938,69.337,53.487,67.924,53.487z"/>
		</g>
	</g>
	<g>
		<g>
			<path d="M40.523,62.62c-1.417,0-2.75-0.552-3.752-1.556c-0.999-0.998-1.55-2.33-1.55-3.746s0.552-2.747,1.553-3.748
				c3.438-3.436,8.011-5.326,12.882-5.326s9.446,1.891,12.883,5.324c1.001,1.003,1.553,2.334,1.555,3.748
				c0.001,1.418-0.552,2.748-1.552,3.75c-2.011,2.007-5.504,2.002-7.5-0.002c-1.434-1.432-3.346-2.223-5.386-2.223
				c-2.038,0-3.95,0.791-5.388,2.227C43.271,62.068,41.94,62.62,40.523,62.62z"/>
		</g>
	</g>
</g>
</svg>
