<?xml version="1.0" encoding="utf-8"?>
<!-- Generator: Adobe Illustrator 16.0.0, SVG Export Plug-In . SVG Version: 6.00 Build 0)  -->
<!DOCTYPE svg PUBLIC "-//W3C//DTD SVG 1.1//EN" "http://www.w3.org/Graphics/SVG/1.1/DTD/svg11.dtd">
<svg version="1.1" id="Layer_1" xmlns="http://www.w3.org/2000/svg" xmlns:xlink="http://www.w3.org/1999/xlink" x="0px" y="0px"
	 width="100px" height="100px" viewBox="0 0 100 100" enable-background="new 0 0 100 100" xml:space="preserve">
<g>
	<path d="M50.653,73.846c-3.076-2.279-5.197-5.776-5.615-9.782c1.73,0.596,3.578,0.934,5.508,0.934c2.013,0,3.937-0.37,5.73-1.016
		C55.879,68.022,53.751,71.551,50.653,73.846z"/>
	<path d="M36.678,49.814c1.735-0.771,3.649-1.21,5.668-1.21c1.963,0,3.831,0.409,5.527,1.142c-2.813,2.43-4.828,5.754-5.581,9.535
		C39.279,57.07,37.184,53.693,36.678,49.814z"/>
	<path d="M50.546,61.998c-1.939,0-3.787-0.397-5.468-1.113c0.48-3.896,2.566-7.293,5.575-9.522c2.984,2.211,5.058,5.57,5.561,9.426
		C54.479,61.56,52.563,61.998,50.546,61.998z"/>
	<path d="M53.435,49.746c1.696-0.732,3.564-1.142,5.527-1.142c1.938,0,3.786,0.397,5.467,1.113c-0.473,3.838-2.504,7.19-5.439,9.422
		C58.214,55.416,56.212,52.145,53.435,49.746z"/>
	<path d="M50.546,33.998c7.227,0,13.19,5.504,13.923,12.54c-1.729-0.595-3.578-0.934-5.507-0.934c-3.018,0-5.85,0.799-8.309,2.184
		c-2.459-1.385-5.29-2.184-8.308-2.184c-2.013,0-3.937,0.37-5.729,1.015C37.311,39.544,43.292,33.998,50.546,33.998z"/>
	<path d="M42.346,76.604c-7.72,0-14-6.28-14-14c0-4.547,2.188-8.583,5.558-11.142c0.99,4.765,3.99,8.791,8.061,11.186
		c0.013,5.118,2.307,9.703,5.909,12.814C46.177,76.195,44.309,76.604,42.346,76.604z"/>
	<path d="M58.962,76.604c-1.963,0-3.831-0.409-5.527-1.142c3.611-3.12,5.911-7.722,5.911-12.858c0-0.029-0.005-0.058-0.005-0.086
		c4.002-2.433,6.93-6.455,7.874-11.197c3.476,2.55,5.747,6.651,5.747,11.283C72.962,70.324,66.681,76.604,58.962,76.604z"/>
</g>
</svg>
