<?xml version="1.0" encoding="utf-8"?>
<!-- Generator: Adobe Illustrator 16.0.0, SVG Export Plug-In . SVG Version: 6.00 Build 0)  -->
<!DOCTYPE svg PUBLIC "-//W3C//DTD SVG 1.1//EN" "http://www.w3.org/Graphics/SVG/1.1/DTD/svg11.dtd">
<svg version="1.1" id="Layer_1" xmlns="http://www.w3.org/2000/svg" xmlns:xlink="http://www.w3.org/1999/xlink" x="0px" y="0px"
	 width="100px" height="100px" viewBox="0 0 100 100" enable-background="new 0 0 100 100" xml:space="preserve">
<path d="M30.807,76.977v-59.93h38.387v4.168H45.318c-1.295,0-2.346,1.051-2.346,2.346s1.051,2.346,2.346,2.346h23.875v4.689H52.377
	c-1.295,0-2.344,1.051-2.344,2.346s1.049,2.344,2.344,2.344h16.816v4.691H52.377c-1.295,0-2.344,1.049-2.344,2.344
	s1.049,2.346,2.344,2.346h16.816v4.689H52.377c-1.295,0-2.344,1.051-2.344,2.346s1.049,2.346,2.344,2.346h16.816v3.125H52.377
	c-1.295,0-2.344,1.051-2.344,2.346s1.049,2.346,2.344,2.346h16.816v6.254H45.318c-1.295,0-2.346,1.049-2.346,2.344
	s1.051,2.346,2.346,2.346h23.875v4.17H30.807z"/>
</svg>
