<?xml version="1.0" encoding="utf-8"?>
<!-- Generator: Adobe Illustrator 16.0.0, SVG Export Plug-In . SVG Version: 6.00 Build 0)  -->
<!DOCTYPE svg PUBLIC "-//W3C//DTD SVG 1.1//EN" "http://www.w3.org/Graphics/SVG/1.1/DTD/svg11.dtd">
<svg version="1.1" id="Layer_1" xmlns="http://www.w3.org/2000/svg" xmlns:xlink="http://www.w3.org/1999/xlink" x="0px" y="0px"
	 width="100px" height="100px" viewBox="0 0 100 100" enable-background="new 0 0 100 100" xml:space="preserve">
<g>
	<path d="M50.501,31.106l1.488,1.775c0.444,0.529,1.081,0.803,1.721,0.803c0.509,0,1.021-0.173,1.441-0.525
		c0.949-0.797,1.073-2.213,0.277-3.161l-5.453-6.497c-0.018-0.02-0.037-0.033-0.055-0.052c-0.085-0.095-0.179-0.18-0.278-0.259
		c-0.012-0.01-0.023-0.02-0.035-0.029c-0.377-0.286-0.841-0.463-1.351-0.463c-0.511,0-0.975,0.177-1.352,0.463
		c-0.012,0.01-0.023,0.02-0.035,0.029c-0.1,0.079-0.193,0.164-0.278,0.259c-0.018,0.019-0.038,0.032-0.056,0.052l-5.452,6.497
		c-0.796,0.948-0.672,2.364,0.277,3.161c0.95,0.795,2.365,0.672,3.162-0.277l1.488-1.775v5.141h4.489V31.106z"/>
	<path d="M64.09,36.247h-0.062h-7.893h-5.635v22.625c0,1.238-1.004,2.244-2.244,2.244c-1.241,0-2.245-1.006-2.245-2.244V36.247
		h-5.454h-8.072h-0.063c-2.406,0-4.364,1.957-4.364,4.364v31.667c0,2.406,1.958,4.364,4.364,4.364H64.09
		c2.406,0,4.364-1.958,4.364-4.364V40.611C68.455,38.204,66.497,36.247,64.09,36.247z"/>
</g>
</svg>
