<?xml version="1.0" encoding="utf-8"?>
<!-- Generator: Adobe Illustrator 16.0.0, SVG Export Plug-In . SVG Version: 6.00 Build 0)  -->
<!DOCTYPE svg PUBLIC "-//W3C//DTD SVG 1.1//EN" "http://www.w3.org/Graphics/SVG/1.1/DTD/svg11.dtd">
<svg version="1.1" id="Layer_1" xmlns="http://www.w3.org/2000/svg" xmlns:xlink="http://www.w3.org/1999/xlink" x="0px" y="0px"
	 width="100px" height="100px" viewBox="0 0 100 100" enable-background="new 0 0 100 100" xml:space="preserve">
<path d="M73.718,29.565H18.412c-1.189,0-2.15,0.962-2.15,2.15v42.165c0,1.188,0.961,2.151,2.15,2.151h55.306
	c1.188,0,2.151-0.963,2.151-2.151V31.716C75.869,30.528,74.905,29.565,73.718,29.565z M64.91,36.044h4.032
	c0.794,0,1.435,0.642,1.435,1.434c0,0.793-0.641,1.434-1.435,1.434H64.91c-0.791,0-1.434-0.641-1.434-1.434
	C63.477,36.686,64.119,36.044,64.91,36.044z M51.333,36.044h4.033c0.792,0,1.433,0.642,1.433,1.434c0,0.793-0.641,1.434-1.433,1.434
	h-4.033c-0.791,0-1.435-0.641-1.435-1.434C49.898,36.686,50.542,36.044,51.333,36.044z M37.129,36.268h4.032
	c0.793,0,1.434,0.642,1.434,1.434c0,0.793-0.641,1.434-1.434,1.434h-4.032c-0.792,0-1.435-0.641-1.435-1.434
	C35.694,36.91,36.337,36.268,37.129,36.268z M27.181,69.875h-4.302c-0.791,0-1.434-0.641-1.434-1.434
	c0-0.792,0.643-1.434,1.434-1.434h4.302c0.793,0,1.434,0.642,1.434,1.434C28.614,69.234,27.974,69.875,27.181,69.875z
	 M27.181,59.569h-4.302c-0.791,0-1.434-0.642-1.434-1.434c0-0.793,0.643-1.434,1.434-1.434h4.302c0.793,0,1.434,0.641,1.434,1.434
	C28.614,58.928,27.974,59.569,27.181,59.569z M27.181,49.218h-4.302c-0.791,0-1.434-0.642-1.434-1.434
	c0-0.793,0.643-1.434,1.434-1.434h4.302c0.793,0,1.434,0.641,1.434,1.434C28.614,48.577,27.974,49.218,27.181,49.218z
	 M27.718,38.912h-4.302c-0.791,0-1.434-0.641-1.434-1.434c0-0.792,0.643-1.434,1.434-1.434h4.302c0.794,0,1.435,0.642,1.435,1.434
	C29.152,38.271,28.512,38.912,27.718,38.912z M43.914,71.73h-9.295v-6.65h9.295V71.73z M43.914,60.779h-9.295v-5.736h9.295V60.779z
	 M43.914,50.742h-9.295v-5.736h9.295V50.742z M58.253,71.73H48.216v-6.65h10.037V71.73z M58.253,60.779H48.216v-5.736h10.037V60.779
	z M58.253,50.742H48.216v-5.736h10.037V50.742z M71.567,71.73h-9.013v-6.65h9.013V71.73z M71.567,60.779h-9.013v-5.736h9.013V60.779
	z M71.567,50.742h-9.013v-5.736h9.013V50.742z"/>
</svg>
