<?xml version="1.0" encoding="utf-8"?>
<!-- Generator: Adobe Illustrator 16.0.0, SVG Export Plug-In . SVG Version: 6.00 Build 0)  -->
<!DOCTYPE svg PUBLIC "-//W3C//DTD SVG 1.1//EN" "http://www.w3.org/Graphics/SVG/1.1/DTD/svg11.dtd">
<svg version="1.1" id="Layer_1" xmlns="http://www.w3.org/2000/svg" xmlns:xlink="http://www.w3.org/1999/xlink" x="0px" y="0px"
	 width="100px" height="100px" viewBox="0 0 100 100" enable-background="new 0 0 100 100" xml:space="preserve">
<path d="M70.499,30.143H33.04c-1.295,0-2.346,1.051-2.346,2.346v45.059c0,1.293,1.051,2.344,2.346,2.344h37.459
	c1.297,0,2.346-1.051,2.346-2.344V32.488C72.845,31.193,71.796,30.143,70.499,30.143z M63.69,50.504
	c0,6.572-5.346,11.92-11.92,11.92s-11.922-5.348-11.922-11.92v-9.576c0-1.295,1.051-2.346,2.346-2.346s2.346,1.051,2.346,2.346
	v9.576c0,3.986,3.242,7.23,7.23,7.23c3.986,0,7.23-3.244,7.23-7.23v-9.576c0-1.295,1.051-2.346,2.344-2.346
	c1.295,0,2.346,1.051,2.346,2.346V50.504z"/>
</svg>
