<?xml version="1.0" encoding="utf-8"?>
<!-- Generator: Adobe Illustrator 16.0.0, SVG Export Plug-In . SVG Version: 6.00 Build 0)  -->
<!DOCTYPE svg PUBLIC "-//W3C//DTD SVG 1.1//EN" "http://www.w3.org/Graphics/SVG/1.1/DTD/svg11.dtd">
<svg version="1.1" id="Layer_1" xmlns="http://www.w3.org/2000/svg" xmlns:xlink="http://www.w3.org/1999/xlink" x="0px" y="0px"
	 width="100px" height="100px" viewBox="0 0 100 100" enable-background="new 0 0 100 100" xml:space="preserve">
<path d="M79.365,39.596c-0.154-0.504-0.561-0.891-1.072-1.018c-0.51-0.13-1.051,0.022-1.424,0.395l-2.043,2.042
	c-0.059,0.059-0.113,0.123-0.16,0.19c-0.244,0.344-0.496,0.645-0.77,0.918l-1.414,1.414c-1.369,1.369-3.191,2.123-5.127,2.123
	c-1.938,0-3.758-0.754-5.127-2.123c-2.826-2.827-2.826-7.427,0-10.254l4.43-4.43c0.375-0.374,0.525-0.919,0.393-1.432
	c-0.131-0.514-0.521-0.92-1.031-1.068c-1.238-0.363-2.521-0.547-3.814-0.547c-3.6,0-6.98,1.399-9.521,3.941l-3.537,3.535
	c-4.188,4.188-5.113,10.671-2.398,15.834L23.021,72.844c-2.729,2.729-2.729,7.171,0,9.9c1.322,1.322,3.08,2.05,4.949,2.05
	s3.627-0.728,4.949-2.05l23.727-23.726c1.932,1.018,4.084,1.551,6.293,1.551c0.002,0,0.002,0,0.002,0
	c3.604,0,6.992-1.403,9.541-3.951l3.535-3.536C79.545,49.555,80.828,44.387,79.365,39.596z M29.879,78.54
	c-0.732,0.731-1.92,0.731-2.652,0c-0.732-0.732-0.732-1.92,0-2.652s1.92-0.732,2.652,0S30.611,77.807,29.879,78.54z"/>
</svg>
