<?xml version="1.0" encoding="utf-8"?>
<!-- Generator: Adobe Illustrator 16.0.0, SVG Export Plug-In . SVG Version: 6.00 Build 0)  -->
<!DOCTYPE svg PUBLIC "-//W3C//DTD SVG 1.1//EN" "http://www.w3.org/Graphics/SVG/1.1/DTD/svg11.dtd">
<svg version="1.1" id="Layer_1" xmlns="http://www.w3.org/2000/svg" xmlns:xlink="http://www.w3.org/1999/xlink" x="0px" y="0px"
	 width="100px" height="100px" viewBox="0 0 100 100" enable-background="new 0 0 100 100" xml:space="preserve">
<g>
	<path d="M54.757,34.817c0-2.146-1.745-3.891-3.89-3.891s-3.89,1.745-3.89,3.891c0,2.145,1.745,3.889,3.89,3.889
		S54.757,36.962,54.757,34.817z"/>
	<path d="M77.364,60.31l-5.333-10.602l-10.602,5.34c-3.083,1.555-4.328,5.329-2.773,8.412c0.246,0.487,0.546,0.932,0.894,1.327
		c-0.711,0.663-1.524,1.24-2.417,1.719V53.458c3.174-0.304,5.666-2.985,5.666-6.237c0-1.927-0.875-3.653-2.247-4.804
		c1.666-2.117,2.64-4.775,2.64-7.6c0-6.795-5.529-12.324-12.324-12.324c-6.795,0-12.324,5.529-12.324,12.324
		c0,2.865,1.002,5.557,2.711,7.689c-1.312,1.15-2.141,2.836-2.141,4.714c0,3.191,2.399,5.834,5.488,6.218v12.96
		c-0.882-0.493-1.685-1.087-2.385-1.763c0.295-0.358,0.553-0.752,0.768-1.179c1.551-3.084,0.304-6.856-2.779-8.411l-10.598-5.338
		l-5.334,10.6c-0.752,1.495-0.877,3.193-0.352,4.783c0.525,1.589,1.639,2.879,3.129,3.629c0.87,0.438,1.843,0.67,2.819,0.67
		c0.063,0,0.125-0.001,0.189-0.003c4.28,6.829,12.184,11.184,20.896,11.184c8.665,0,16.597-4.361,20.886-11.182
		c0.95-0.01,1.898-0.241,2.744-0.668C77.671,67.168,78.917,63.394,77.364,60.31z M72.743,65.061
		c-0.313,0.158-0.646,0.231-0.974,0.231c-0.758,0-1.479-0.408-1.876-1.104c-2.775,7.145-10.204,12.284-18.938,12.284
		c-8.848,0-16.365-5.274-19.05-12.569l-0.099,0.194c-0.38,0.759-1.144,1.194-1.937,1.194c-0.329,0-0.661-0.073-0.974-0.231
		c-1.07-0.538-1.5-1.842-0.962-2.91l3.492-6.939l6.937,3.493c1.07,0.54,1.5,1.843,0.962,2.912c-0.539,1.07-1.84,1.499-2.913,0.962
		l-0.475-0.239c1.821,5.055,6.75,8.86,12.763,9.637V49.389h-3.32c-1.197,0-2.168-0.972-2.168-2.168c0-1.197,0.971-2.168,2.168-2.168
		h3.32v-2.31c-3.486-0.956-6.058-4.142-6.058-7.926c0-4.537,3.689-8.227,8.226-8.227s8.227,3.689,8.227,8.227
		c0,3.784-2.572,6.97-6.058,7.926v2.31h3.498c1.197,0,2.168,0.971,2.168,2.168c0,1.196-0.971,2.168-2.168,2.168h-3.498V72
		c6.163-0.731,11.217-4.642,13.004-9.831l-0.813,0.409c-1.069,0.536-2.373,0.108-2.912-0.962c-0.539-1.069-0.107-2.372,0.961-2.912
		l6.938-3.493l3.491,6.939C74.242,63.219,73.812,64.522,72.743,65.061z"/>
</g>
</svg>
