<?xml version="1.0" encoding="utf-8"?>
<!-- Generator: Adobe Illustrator 16.0.0, SVG Export Plug-In . SVG Version: 6.00 Build 0)  -->
<!DOCTYPE svg PUBLIC "-//W3C//DTD SVG 1.1//EN" "http://www.w3.org/Graphics/SVG/1.1/DTD/svg11.dtd">
<svg version="1.1" id="Layer_1" xmlns="http://www.w3.org/2000/svg" xmlns:xlink="http://www.w3.org/1999/xlink" x="0px" y="0px"
	 width="100px" height="100px" viewBox="0 0 100 100" enable-background="new 0 0 100 100" xml:space="preserve">
<path d="M69.944,41.204c0.01-0.217,0.033-0.431,0.033-0.651c0-8.46-6.883-15.344-15.346-15.344c-8.46,0-15.343,6.884-15.343,15.344
	c0,0.313,0.03,0.617,0.047,0.925c-5.138,2.483-8.699,7.729-8.699,13.808c0,8.46,6.884,15.345,15.345,15.345
	c3.338,0,6.42-1.083,8.942-2.901c2.521,1.818,5.604,2.901,8.94,2.901c8.461,0,15.344-6.885,15.344-15.345
	C79.208,48.983,75.388,43.563,69.944,41.204z"/>
</svg>
