<?xml version="1.0" encoding="utf-8"?>
<!-- Generator: Adobe Illustrator 16.0.0, SVG Export Plug-In . SVG Version: 6.00 Build 0)  -->
<!DOCTYPE svg PUBLIC "-//W3C//DTD SVG 1.1//EN" "http://www.w3.org/Graphics/SVG/1.1/DTD/svg11.dtd">
<svg version="1.1" id="Layer_1" xmlns="http://www.w3.org/2000/svg" xmlns:xlink="http://www.w3.org/1999/xlink" x="0px" y="0px"
	 width="100px" height="100px" viewBox="0 0 100 100" enable-background="new 0 0 100 100" xml:space="preserve">
<path d="M61.414,70.268l-0.4-10.062l3.218-4.109V39.925l-10.216,3.961v12.175l2.688,4.123v11.284
	c-0.912,0.123-1.837,0.207-2.78,0.207c-2.518,0-4.923-0.469-7.16-1.285V56.565h4.578V41.51h-10.59v15.056h4.578v13.246
	C38.048,66.524,32.96,59.21,32.96,50.716c0-11.561,9.402-20.963,20.963-20.963c11.558,0,20.963,9.402,20.963,20.963
	C74.886,59.631,69.278,67.244,61.414,70.268z"/>
</svg>
