<?xml version="1.0" encoding="utf-8"?>
<!-- Generator: Adobe Illustrator 16.0.0, SVG Export Plug-In . SVG Version: 6.00 Build 0)  -->
<!DOCTYPE svg PUBLIC "-//W3C//DTD SVG 1.1//EN" "http://www.w3.org/Graphics/SVG/1.1/DTD/svg11.dtd">
<svg version="1.1" id="Layer_1" xmlns="http://www.w3.org/2000/svg" xmlns:xlink="http://www.w3.org/1999/xlink" x="0px" y="0px"
	 width="100px" height="100px" viewBox="0 0 100 100" enable-background="new 0 0 100 100" xml:space="preserve">
<g>
	<path d="M55.241,64.487c6.772,0,12.281-5.675,12.281-12.648v-17.88c0-6.976-5.509-12.65-12.281-12.65s-12.283,5.675-12.283,12.65
		v17.88C42.958,58.813,48.469,64.487,55.241,64.487z"/>
	<path d="M75.003,58.029c0-1.667-1.492-3.022-3.328-3.022c-1.835,0-3.331,1.355-3.331,3.022c0,4.948-4.434,8.973-9.884,8.973h-6.438
		c-5.45,0-9.885-4.024-9.885-8.973c0-1.667-1.493-3.022-3.33-3.022c-1.835,0-3.33,1.355-3.33,3.022
		c0,8.247,7.363,14.962,16.436,15.017v0.938h-7.278c-1.835,0-3.328,1.355-3.328,3.023c0,1.667,1.493,3.022,3.328,3.022h21.212
		c1.837,0,3.331-1.355,3.331-3.022c0-1.668-1.494-3.023-3.331-3.023h-7.276v-0.938C67.642,72.991,75.003,66.276,75.003,58.029z"/>
</g>
</svg>
