<?xml version="1.0" encoding="utf-8"?>
<!-- Generator: Adobe Illustrator 16.0.0, SVG Export Plug-In . SVG Version: 6.00 Build 0)  -->
<!DOCTYPE svg PUBLIC "-//W3C//DTD SVG 1.1//EN" "http://www.w3.org/Graphics/SVG/1.1/DTD/svg11.dtd">
<svg version="1.1" id="Layer_1" xmlns="http://www.w3.org/2000/svg" xmlns:xlink="http://www.w3.org/1999/xlink" x="0px" y="0px"
	 width="100px" height="100px" viewBox="0 0 100 100" enable-background="new 0 0 100 100" xml:space="preserve">
<path d="M70.029,40.183c-0.039-10.26-8.396-18.596-18.666-18.596c-10.268,0-18.627,8.336-18.666,18.596l-0.826,8.932
	c-0.039,0.421,0.101,0.838,0.385,1.149s0.687,0.489,1.108,0.489h2.416v29.166c0,0.828,0.671,1.5,1.5,1.5h28.167
	c0.828,0,1.5-0.672,1.5-1.5V50.753h2.417c0.422,0,0.824-0.178,1.108-0.489c0.284-0.313,0.424-0.729,0.385-1.149L70.029,40.183z
	 M66.947,47.753v-2.5c0-0.828-0.672-1.5-1.5-1.5H37.28c-0.829,0-1.5,0.672-1.5,1.5v2.5H35.01l0.682-7.361
	c0.004-0.046,0.006-0.093,0.006-0.139c0-8.639,7.028-15.666,15.666-15.666c8.639,0,15.666,7.027,15.666,15.666
	c0,0.046,0.002,0.093,0.007,0.139l0.683,7.361H66.947z"/>
</svg>
