<?xml version="1.0" encoding="utf-8"?>
<!-- Generator: Adobe Illustrator 16.0.0, SVG Export Plug-In . SVG Version: 6.00 Build 0)  -->
<!DOCTYPE svg PUBLIC "-//W3C//DTD SVG 1.1//EN" "http://www.w3.org/Graphics/SVG/1.1/DTD/svg11.dtd">
<svg version="1.1" id="Layer_1" xmlns="http://www.w3.org/2000/svg" xmlns:xlink="http://www.w3.org/1999/xlink" x="0px" y="0px"
	 width="100px" height="100px" viewBox="0 0 100 100" enable-background="new 0 0 100 100" xml:space="preserve">
<path d="M73.348,34.751l1.477-1.476l1.444,1.444c0.491,0.493,1.145,0.765,1.841,0.765s1.35-0.272,1.838-0.762
	c0.492-0.492,0.763-1.145,0.763-1.841c0-0.693-0.27-1.347-0.763-1.841l-6.043-6.041c-0.492-0.492-1.145-0.762-1.839-0.762
	c-0.695,0-1.348,0.271-1.84,0.762c-1.014,1.012-1.014,2.661,0,3.681l0.916,0.916l-1.563,1.565
	c-4.849-3.905-10.794-6.29-16.977-6.809v-4.046c0-1.434-1.167-2.602-2.602-2.602s-2.604,1.168-2.604,2.602v4.044
	c-16.159,1.325-28.638,14.762-28.638,31.128c0,17.228,14.015,31.243,31.243,31.243s31.243-14.016,31.243-31.243
	C81.243,47.794,78.449,40.484,73.348,34.751z M54.498,58.081h-1.896v5.185c0,1.435-1.167,2.603-2.602,2.603
	s-2.604-1.168-2.604-2.603v-5.185h-1.808c-1.435,0-2.602-1.168-2.602-2.604c0-1.435,1.167-2.603,2.602-2.603h1.808V34.71
	c0-1.434,1.169-2.602,2.604-2.602s2.602,1.168,2.602,2.602v18.165h1.896c1.437,0,2.605,1.168,2.605,2.603
	C57.103,56.913,55.935,58.081,54.498,58.081z"/>
</svg>
