<?xml version="1.0" encoding="utf-8"?>
<!-- Generator: Adobe Illustrator 16.0.0, SVG Export Plug-In . SVG Version: 6.00 Build 0)  -->
<!DOCTYPE svg PUBLIC "-//W3C//DTD SVG 1.1//EN" "http://www.w3.org/Graphics/SVG/1.1/DTD/svg11.dtd">
<svg version="1.1" id="Layer_1" xmlns="http://www.w3.org/2000/svg" xmlns:xlink="http://www.w3.org/1999/xlink" x="0px" y="0px"
	 width="100px" height="100px" viewBox="0 0 100 100" enable-background="new 0 0 100 100" xml:space="preserve">
<path d="M75.741,68.529L65.432,43.4v-7.295h1.673c0.271,0,0.533-0.037,0.786-0.094h0.105v-0.033c1.533-0.4,2.675-1.783,2.675-3.439
	v-3.342c0-1.967-1.6-3.568-3.566-3.568H40.137c-1.967,0-3.566,1.602-3.566,3.568v3.342c0,1.656,1.141,3.039,2.676,3.439v0.033h0.104
	c0.254,0.057,0.516,0.094,0.787,0.094h1.671V43.4L31.322,68.959c-0.454,1.104-0.326,2.354,0.336,3.34
	c0.663,0.988,1.77,1.582,2.964,1.582h38.202l0.039-0.006c1.871-0.109,3.357-1.664,3.357-3.559
	C76.221,69.688,76.053,69.068,75.741,68.529z M60.084,36.012v8.443l0.79,1.924H46.367l0.79-1.924v-8.443H60.084z"/>
</svg>
