<?xml version="1.0" encoding="utf-8"?>
<!-- Generator: Adobe Illustrator 16.0.0, SVG Export Plug-In . SVG Version: 6.00 Build 0)  -->
<!DOCTYPE svg PUBLIC "-//W3C//DTD SVG 1.1//EN" "http://www.w3.org/Graphics/SVG/1.1/DTD/svg11.dtd">
<svg version="1.1" id="Layer_1" xmlns="http://www.w3.org/2000/svg" xmlns:xlink="http://www.w3.org/1999/xlink" x="0px" y="0px"
	 width="100px" height="100px" viewBox="0 0 100 100" enable-background="new 0 0 100 100" xml:space="preserve">
<g>
	<path d="M53.552,47.348c-1.18,0-2.271,0.334-3.273,1.004c-1.004,0.668-1.869,1.531-2.596,2.594
		c-0.73,1.063-1.289,2.252-1.682,3.568c-0.395,1.32-0.59,2.605-0.59,3.865c0,1.297,0.266,2.359,0.797,3.186
		c0.531,0.824,1.443,1.238,2.742,1.238c0.549,0,1.143-0.166,1.771-0.502c0.629-0.334,1.236-0.775,1.828-1.328
		c0.59-0.549,1.158-1.18,1.711-1.887c0.549-0.707,1.041-1.455,1.475-2.24l1.475-8.141c-0.514-0.434-1.045-0.768-1.594-1.004
		C55.065,47.465,54.376,47.348,53.552,47.348z"/>
	<path d="M52.106,20.707c-18.949,0-34.311,15.361-34.311,34.309c0,18.949,15.361,34.311,34.311,34.311
		c18.951,0,34.309-15.361,34.309-34.311C86.415,36.068,71.058,20.707,52.106,20.707z M74.05,63.688
		c-1.555,1.613-3.363,2.891-5.426,3.834c-2.064,0.943-4.279,1.416-6.637,1.416c-0.986,0-1.898-0.107-2.744-0.324
		s-1.555-0.58-2.123-1.092c-0.57-0.512-0.994-1.18-1.27-2.006s-0.354-1.848-0.234-3.066H55.38c-0.588,0.824-1.23,1.631-1.918,2.418
		c-0.686,0.787-1.443,1.484-2.271,2.094c-0.824,0.611-1.73,1.092-2.711,1.445c-0.986,0.354-2.066,0.531-3.246,0.531
		c-0.943,0-1.848-0.207-2.715-0.619c-0.863-0.414-1.611-0.994-2.24-1.74s-1.131-1.652-1.502-2.715
		c-0.377-1.061-0.563-2.24-0.563-3.539c0-2.438,0.395-4.807,1.18-7.107c0.787-2.301,1.859-4.336,3.215-6.105
		c1.357-1.77,2.932-3.193,4.721-4.277c1.789-1.08,3.686-1.621,5.691-1.621c1.377,0,2.537,0.207,3.48,0.619
		c0.943,0.414,1.809,0.953,2.596,1.623l1.828-1.889h4.129l-2.83,15.986c-0.314,1.848-0.324,3.186-0.031,4.012
		c0.297,0.824,0.953,1.238,1.977,1.238c1.021,0,2.027-0.236,3.01-0.709c0.98-0.471,1.865-1.197,2.654-2.182
		c0.783-0.982,1.426-2.221,1.916-3.715c0.492-1.496,0.736-3.266,0.736-5.311c0-2.949-0.492-5.467-1.475-7.551
		s-2.33-3.805-4.039-5.16c-1.711-1.357-3.727-2.35-6.047-2.979s-4.818-0.945-7.492-0.945c-3.066,0-5.918,0.551-8.553,1.65
		c-2.635,1.104-4.926,2.617-6.873,4.543c-1.945,1.928-3.469,4.219-4.572,6.873c-1.098,2.654-1.65,5.535-1.65,8.641
		c0,3.068,0.463,5.82,1.385,8.258c0.926,2.441,2.273,4.514,4.043,6.225c1.768,1.711,3.961,3.027,6.578,3.951
		c2.613,0.924,5.611,1.387,8.994,1.387c1.141,0,2.438-0.137,3.895-0.412c1.453-0.275,2.771-0.688,3.951-1.24l1.828,5.664
		c-1.611,0.787-3.254,1.336-4.926,1.65s-3.588,0.475-5.752,0.475c-3.814,0-7.344-0.553-10.586-1.652
		c-3.246-1.102-6.059-2.734-8.438-4.896c-2.379-2.164-4.238-4.848-5.574-8.051c-1.338-3.205-2.004-6.912-2.004-11.119
		c0-4.287,0.766-8.162,2.299-11.623c1.533-3.459,3.602-6.408,6.195-8.848c2.596-2.439,5.604-4.314,9.023-5.635
		c3.424-1.314,7.041-1.975,10.855-1.975c3.617,0,6.98,0.521,10.086,1.563c3.107,1.043,5.801,2.537,8.082,4.482
		c2.281,1.947,4.07,4.328,5.367,7.139c1.299,2.813,1.949,6.008,1.949,9.586c0,2.518-0.443,4.877-1.328,7.08
		C76.821,60.168,75.603,62.076,74.05,63.688z"/>
</g>
</svg>
