<?xml version="1.0" encoding="utf-8"?>
<!-- Generator: Adobe Illustrator 16.0.0, SVG Export Plug-In . SVG Version: 6.00 Build 0)  -->
<!DOCTYPE svg PUBLIC "-//W3C//DTD SVG 1.1//EN" "http://www.w3.org/Graphics/SVG/1.1/DTD/svg11.dtd">
<svg version="1.1" id="Layer_1" xmlns="http://www.w3.org/2000/svg" xmlns:xlink="http://www.w3.org/1999/xlink" x="0px" y="0px"
	 width="100px" height="100px" viewBox="0 0 100 100" enable-background="new 0 0 100 100" xml:space="preserve">
<g>
	<rect x="45.977" y="64.839" width="13.289" height="8.299"/>
	<rect x="31.931" y="48.887" width="9.356" height="11.263"/>
	<path d="M63.955,73.139h7.018c1.15,0,2.085-0.936,2.085-2.087v-6.212h-9.103V73.139z"/>
	<rect x="63.955" y="48.887" width="9.103" height="11.263"/>
	<path d="M31.931,71.052c0,1.151,0.937,2.087,2.086,2.087h7.271v-8.299h-9.356V71.052z"/>
	<path d="M75.784,24.587h-46.32c-2.447,0-4.433,1.985-4.433,4.432V75.34c0,2.447,1.985,4.432,4.433,4.432h46.32
		c2.447,0,4.433-1.985,4.433-4.432V29.02C80.217,26.572,78.231,24.587,75.784,24.587z M52.492,26.531
		c4.027,0,7.295,3.266,7.295,7.294c0,3.203-2.076,5.893-4.946,6.874v11.876c0,1.295-1.05,2.345-2.345,2.345
		c-1.297,0-2.346-1.05-2.346-2.345V40.702c-2.873-0.98-4.952-3.672-4.952-6.876C45.198,29.797,48.464,26.531,52.492,26.531z
		 M77.748,71.052c0,3.737-3.039,6.777-6.775,6.777H34.017c-3.736,0-6.776-3.04-6.776-6.777V34.098c0-3.738,3.04-6.777,6.776-6.777
		h8.314c1.294,0,2.345,1.05,2.345,2.345c0,1.294-1.051,2.345-2.345,2.345h-8.314c-1.149,0-2.086,0.936-2.086,2.087v10.099h9.356
		v-4.379c0-1.294,1.05-2.345,2.345-2.345c1.296,0,2.345,1.05,2.345,2.345v4.379h0.788c1.296,0,2.345,1.05,2.345,2.345
		c0,1.295-1.049,2.345-2.345,2.345h-0.788v11.263h13.289V48.887h-1.041c-1.295,0-2.346-1.05-2.346-2.345
		c0-1.294,1.051-2.345,2.346-2.345h1.041v-4.379c0-1.294,1.05-2.345,2.345-2.345c1.296,0,2.345,1.05,2.345,2.345v4.379h9.103V34.098
		c0-1.151-0.935-2.087-2.085-2.087h-7.537c-1.295,0-2.344-1.05-2.344-2.345c0-1.295,1.049-2.345,2.344-2.345h7.537
		c3.736,0,6.775,3.04,6.775,6.777V71.052z"/>
</g>
</svg>
