<?xml version="1.0" encoding="utf-8"?>
<!-- Generator: Adobe Illustrator 16.0.0, SVG Export Plug-In . SVG Version: 6.00 Build 0)  -->
<!DOCTYPE svg PUBLIC "-//W3C//DTD SVG 1.1//EN" "http://www.w3.org/Graphics/SVG/1.1/DTD/svg11.dtd">
<svg version="1.1" id="Layer_1" xmlns="http://www.w3.org/2000/svg" xmlns:xlink="http://www.w3.org/1999/xlink" x="0px" y="0px"
	 width="100px" height="100px" viewBox="0 0 100 100" enable-background="new 0 0 100 100" xml:space="preserve">
<path d="M82.949,48.074L51.996,17.121c-0.916-0.916-2.4-0.916-3.316,0L17.728,48.074c-0.44,0.44-0.687,1.037-0.687,1.658
	s0.247,1.218,0.687,1.658L48.68,82.342c0.458,0.459,1.057,0.688,1.658,0.688c0.599,0,1.2-0.229,1.658-0.688L82.949,51.39
	c0.439-0.44,0.687-1.037,0.687-1.658S83.388,48.514,82.949,48.074z M61.242,47.242L55.184,53.3
	c-0.458,0.458-1.057,0.687-1.658,0.687c-0.599,0-1.2-0.229-1.658-0.687c-0.916-0.916-0.916-2.4,0-3.316l2.073-2.072H43.434v12.507
	c0,1.294-1.049,2.345-2.345,2.345c-1.295,0-2.345-1.051-2.345-2.345V45.567c0-1.294,1.05-2.345,2.345-2.345h12.818l-2.522-2.521
	c-0.916-0.916-0.916-2.4,0-3.316s2.4-0.916,3.316,0l6.54,6.541C62.158,44.842,62.158,46.326,61.242,47.242z"/>
</svg>
