<?xml version="1.0" encoding="utf-8"?>
<!-- Generator: Adobe Illustrator 16.0.0, SVG Export Plug-In . SVG Version: 6.00 Build 0)  -->
<!DOCTYPE svg PUBLIC "-//W3C//DTD SVG 1.1//EN" "http://www.w3.org/Graphics/SVG/1.1/DTD/svg11.dtd">
<svg version="1.1" id="Layer_1" xmlns="http://www.w3.org/2000/svg" xmlns:xlink="http://www.w3.org/1999/xlink" x="0px" y="0px"
	 width="100px" height="100px" viewBox="0 0 100 100" enable-background="new 0 0 100 100" xml:space="preserve">
<g>
	<path d="M53.429,53.408V26.182c0-0.273-0.111-0.534-0.31-0.724s-0.468-0.299-0.737-0.275c-0.479,0.022-11.736,0.797-11.736,22.749
		c0,0.553,0.447,1,1,1h3.533v4.476c-1.22,0.316-2.125,1.415-2.125,2.734v22.955c0,1.565,1.27,2.835,2.834,2.835h6.832
		c1.564,0,2.834-1.27,2.834-2.835V56.142C55.554,54.823,54.648,53.724,53.429,53.408z"/>
	<path d="M34.562,25.182h-0.582c-1.127,0-2.132,0.498-2.834,1.275c-0.702-0.777-1.707-1.275-2.834-1.275h-0.582
		c-1.162,0-2.193,0.531-2.896,1.352c-0.703-0.82-1.734-1.352-2.896-1.352h-0.582c-2.113,0-3.834,1.721-3.834,3.835v10.455
		c0,0.184,0.063,0.346,0.148,0.493c0.185,4.23,2.691,7.836,6.227,9.443v3.999c-1.22,0.316-2.125,1.415-2.125,2.734v22.955
		c0,1.565,1.27,2.835,2.834,2.835h6.832c1.564,0,2.834-1.27,2.834-2.835V56.142c0-1.319-0.905-2.418-2.125-2.734v-3.999
		c3.674-1.67,6.25-5.492,6.25-9.937V29.017C38.396,26.903,36.675,25.182,34.562,25.182z"/>
	<path d="M72.104,25.182c-5.721,0-10.375,4.86-10.375,10.835v3.936c0,4.443,2.576,8.267,6.25,9.937v3.519
		c-1.221,0.316-2.125,1.415-2.125,2.734v22.955c0,1.565,1.269,2.835,2.834,2.835h6.831c1.565,0,2.835-1.27,2.835-2.835V56.142
		c0-1.319-0.905-2.418-2.125-2.734v-3.519c3.673-1.67,6.25-5.492,6.25-9.937v-3.936C82.479,30.042,77.825,25.182,72.104,25.182z"/>
</g>
</svg>
