<?xml version="1.0" encoding="utf-8"?>
<!-- Generator: Adobe Illustrator 16.0.0, SVG Export Plug-In . SVG Version: 6.00 Build 0)  -->
<!DOCTYPE svg PUBLIC "-//W3C//DTD SVG 1.1//EN" "http://www.w3.org/Graphics/SVG/1.1/DTD/svg11.dtd">
<svg version="1.1" id="Layer_1" xmlns="http://www.w3.org/2000/svg" xmlns:xlink="http://www.w3.org/1999/xlink" x="0px" y="0px"
	 width="100px" height="100px" viewBox="0 0 100 100" enable-background="new 0 0 100 100" xml:space="preserve">
<path d="M69.601,17.962c-11.929-8.172-27.79-8.186-39.729-0.031c-2.479-1.42-5.689-1.1-7.805,1.015l-0.406,0.407
	c-2.113,2.113-2.435,5.326-1.015,7.804c-8.152,11.942-8.141,27.803,0.032,39.729c-1.461,2.485-1.148,5.732,0.982,7.865l0.406,0.407
	c2.133,2.132,5.379,2.442,7.866,0.983c8.249,5.611,18.444,7.457,28.242,5.047c4.1-1.009,7.916-2.714,11.376-5.073
	c2.492,1.493,5.771,1.188,7.913-0.957l0.409-0.407c2.145-2.146,2.448-5.422,0.955-7.914c2.361-3.458,4.067-7.277,5.076-11.374
	c2.411-9.802,0.563-19.996-5.05-28.245c1.461-2.485,1.148-5.733-0.981-7.865l-0.409-0.407
	C75.334,16.813,72.087,16.502,69.601,17.962z M74.29,22.118l0.409,0.408c0.777,0.777,0.777,2.041,0.003,2.82l-10.689,10.68
	l-0.014,0.012c-0.792,0.758-2.017,0.748-2.788-0.023l-0.409-0.408c-0.763-0.764-0.771-2.02-0.038-2.775l10.707-10.714
	C72.248,21.341,73.513,21.341,74.29,22.118z M64.551,53.333c-2.229-0.706-4.745-0.188-6.514,1.582l-0.409,0.406
	c-1.768,1.77-2.288,4.282-1.58,6.515c-0.798,0.343-1.613,0.632-2.449,0.837c-3.366,0.829-6.955,0.515-10.137-0.813
	c0.701-2.238,0.192-4.786-1.561-6.538l-0.406-0.406c-1.768-1.77-4.342-2.276-6.601-1.541c-1.739-4.034-1.754-8.6-0.044-12.647
	c2.259,0.755,4.851,0.256,6.645-1.538l0.406-0.406c1.794-1.795,2.297-4.387,1.54-6.646c4.044-1.709,8.608-1.693,12.642,0.042
	c-0.731,2.253-0.226,4.831,1.545,6.604l0.409,0.406c1.745,1.747,4.287,2.26,6.534,1.555c1.332,3.184,1.646,6.771,0.818,10.141
	C65.182,51.718,64.893,52.534,64.551,53.333z M28.06,71.986c-0.777,0.776-2.04,0.776-2.82-0.001l-0.406-0.408
	c-0.777-0.777-0.777-2.043-0.003-2.821l10.681-10.672l0.012-0.012c0.777-0.757,2.034-0.748,2.799,0.017l0.406,0.407
	c0.771,0.771,0.783,1.996,0.059,2.754l-4.651,4.659L28.06,71.986z M24.833,22.526l0.406-0.408c0.78-0.777,2.046-0.777,2.826,0.002
	l6.104,6.104l4.562,4.563c0.774,0.778,0.774,2.044-0.003,2.819l-0.406,0.408c-0.776,0.775-2.042,0.777-2.816,0.006l-0.009-0.01
	l-10.663-10.66C24.056,24.571,24.056,23.305,24.833,22.526z M74.699,71.577l-0.409,0.408c-0.777,0.777-2.042,0.777-2.822-0.002
	L60.89,61.407l-0.123-0.143c-0.739-0.791-0.725-2.009,0.035-2.769l0.409-0.407c0.707-0.707,1.794-0.742,2.577-0.158L74.72,68.785
	C75.471,69.566,75.468,70.809,74.699,71.577z"/>
</svg>
