<?xml version="1.0" encoding="utf-8"?>
<!-- Generator: Adobe Illustrator 16.0.0, SVG Export Plug-In . SVG Version: 6.00 Build 0)  -->
<!DOCTYPE svg PUBLIC "-//W3C//DTD SVG 1.1//EN" "http://www.w3.org/Graphics/SVG/1.1/DTD/svg11.dtd">
<svg version="1.1" id="Layer_1" xmlns="http://www.w3.org/2000/svg" xmlns:xlink="http://www.w3.org/1999/xlink" x="0px" y="0px"
	 width="100px" height="100px" viewBox="0 0 100 100" enable-background="new 0 0 100 100" xml:space="preserve">
<g>
	<path d="M73.065,47.397c0-5.234-3.329-9.724-8.084-11.355c0.251-0.967,0.377-1.964,0.377-2.983c0-6.622-5.389-12.009-12.009-12.009
		c-6.624,0-12.009,5.387-12.009,12.009c0,1.052,0.14,2.102,0.414,3.117c-4.567,1.734-7.763,6.175-7.763,11.222
		c0,6.095,4.564,11.131,10.454,11.896l7.058,19.659c0.007,0.02,0.022,0.034,0.029,0.055c0.073,0.186,0.164,0.359,0.284,0.518
		c0.018,0.023,0.036,0.04,0.055,0.062c0.11,0.133,0.237,0.253,0.379,0.359c0.032,0.021,0.06,0.046,0.091,0.067
		c0.141,0.094,0.292,0.178,0.459,0.237c0.014,0.006,0.029,0.004,0.043,0.008c0.22,0.073,0.448,0.119,0.685,0.119
		c0.235,0,0.465-0.046,0.684-0.119c0.014-0.004,0.028-0.002,0.042-0.008c0.168-0.06,0.319-0.144,0.462-0.237
		c0.03-0.021,0.06-0.046,0.09-0.067c0.14-0.106,0.27-0.227,0.379-0.359c0.017-0.021,0.035-0.038,0.052-0.062
		c0.121-0.158,0.214-0.332,0.287-0.518c0.008-0.021,0.021-0.035,0.029-0.055l7.056-19.659
		C68.498,58.528,73.065,53.492,73.065,47.397z M53.528,71.86l-4.603-12.819c1.679-0.423,3.249-1.2,4.603-2.291
		c1.353,1.091,2.924,1.868,4.602,2.291L53.528,71.86z"/>
</g>
</svg>
