<?xml version="1.0" encoding="utf-8"?>
<!-- Generator: Adobe Illustrator 16.0.0, SVG Export Plug-In . SVG Version: 6.00 Build 0)  -->
<!DOCTYPE svg PUBLIC "-//W3C//DTD SVG 1.1//EN" "http://www.w3.org/Graphics/SVG/1.1/DTD/svg11.dtd">
<svg version="1.1" id="Layer_1" xmlns="http://www.w3.org/2000/svg" xmlns:xlink="http://www.w3.org/1999/xlink" x="0px" y="0px"
	 width="100px" height="100px" viewBox="0 0 100 100" enable-background="new 0 0 100 100" xml:space="preserve">
<path d="M74.256,47.102c0-1.727-1.4-3.127-3.126-3.127h-7.884l-5.043-10.463c-0.56-1.164-1.962-1.65-3.131-1.094
	c-1.167,0.563-1.655,1.965-1.093,3.131l4.061,8.426H44.159l4.062-8.426c0.562-1.166,0.073-2.568-1.093-3.131
	c-1.167-0.557-2.568-0.072-3.131,1.094l-5.043,10.463h-7.884c-1.727,0-3.127,1.4-3.127,3.127c0,0.971,0.452,1.828,1.147,2.402
	l4.355,26.381c0.188,1.133,1.167,1.963,2.314,1.963H66.44c1.148,0,2.126-0.83,2.314-1.963l4.355-26.381
	C73.805,48.93,74.256,48.072,74.256,47.102z"/>
</svg>
