<?xml version="1.0" encoding="utf-8"?>
<!-- Generator: Adobe Illustrator 16.0.0, SVG Export Plug-In . SVG Version: 6.00 Build 0)  -->
<!DOCTYPE svg PUBLIC "-//W3C//DTD SVG 1.1//EN" "http://www.w3.org/Graphics/SVG/1.1/DTD/svg11.dtd">
<svg version="1.1" id="Layer_1" xmlns="http://www.w3.org/2000/svg" xmlns:xlink="http://www.w3.org/1999/xlink" x="0px" y="0px"
	 width="100px" height="100px" viewBox="0 0 100 100" enable-background="new 0 0 100 100" xml:space="preserve">
<g>
	<path d="M50.161,72.77c-0.593,0-1.189-0.176-1.7-0.531c-0.459-0.314-11.289-7.85-19.12-16.732
		c-4.739-5.371-8.313-12.492-8.313-16.564c0-9.74,7.925-17.664,17.664-17.664c4.004,0,7.867,1.373,10.971,3.84
		c3.105-2.467,6.969-3.84,10.972-3.84c9.74,0,17.662,7.924,17.662,17.664c0,4.363-4.22,11.361-8.142,16.016
		c-7.527,8.939-17.731,16.855-18.164,17.189C51.453,72.561,50.807,72.77,50.161,72.77z"/>
</g>
</svg>
