<?xml version="1.0" encoding="utf-8"?>
<!-- Generator: Adobe Illustrator 16.0.0, SVG Export Plug-In . SVG Version: 6.00 Build 0)  -->
<!DOCTYPE svg PUBLIC "-//W3C//DTD SVG 1.1//EN" "http://www.w3.org/Graphics/SVG/1.1/DTD/svg11.dtd">
<svg version="1.1" id="Layer_1" xmlns="http://www.w3.org/2000/svg" xmlns:xlink="http://www.w3.org/1999/xlink" x="0px" y="0px"
	 width="100px" height="100px" viewBox="0 0 100 100" enable-background="new 0 0 100 100" xml:space="preserve">
<path d="M65.04,33.474l1.738-1.503c0.83-0.715,0.986-1.941,0.367-2.846l-3.281-4.771c-0.401-0.584-1.064-0.934-1.772-0.934h-14.61
	c-0.646,0-1.254,0.29-1.663,0.787l-3.777,4.604c-0.709,0.863-0.638,2.126,0.162,2.905l1.813,1.765
	c-7.179,3.794-12.09,11.33-12.09,19.999c0,12.467,10.144,22.609,22.611,22.609c12.469,0,22.612-10.143,22.612-22.609
	C77.15,44.804,72.229,37.263,65.04,33.474z M54.538,72.791c-10.648,0-19.313-8.663-19.313-19.311c0-7.79,4.646-14.501,11.303-17.553
	l5.953,5.796c0.415,0.406,0.957,0.611,1.5,0.611c0.501,0,1.002-0.174,1.405-0.524l6.935-5.99c6.781,3,11.529,9.78,11.529,17.66
	C73.851,64.128,65.188,72.791,54.538,72.791z"/>
</svg>
