<?xml version="1.0" encoding="utf-8"?>
<!-- Generator: Adobe Illustrator 16.0.0, SVG Export Plug-In . SVG Version: 6.00 Build 0)  -->
<!DOCTYPE svg PUBLIC "-//W3C//DTD SVG 1.1//EN" "http://www.w3.org/Graphics/SVG/1.1/DTD/svg11.dtd">
<svg version="1.1" id="Layer_1" xmlns="http://www.w3.org/2000/svg" xmlns:xlink="http://www.w3.org/1999/xlink" x="0px" y="0px"
	 width="100px" height="100px" viewBox="0 0 100 100" enable-background="new 0 0 100 100" xml:space="preserve">
<g>
	<path d="M71.257,38.783l-20.912,6.885l-10.02-17.564c3.093-1.564,6.574-2.467,10.272-2.467
		C59.724,25.637,67.597,31.029,71.257,38.783z"/>
	<path d="M27.741,48.492c0-7.227,3.378-13.666,8.63-17.856l10.443,18.307L43.5,70.203C34.364,67.209,27.741,58.615,27.741,48.492z"
		/>
	<path d="M50.597,71.346c-0.849,0-1.682-0.055-2.507-0.145l3.264-20.93l21.457-7.061c0.403,1.697,0.64,3.461,0.64,5.281
		C73.451,61.094,63.199,71.346,50.597,71.346z"/>
</g>
</svg>
