<?xml version="1.0" encoding="utf-8"?>
<!-- Generator: Adobe Illustrator 16.0.0, SVG Export Plug-In . SVG Version: 6.00 Build 0)  -->
<!DOCTYPE svg PUBLIC "-//W3C//DTD SVG 1.1//EN" "http://www.w3.org/Graphics/SVG/1.1/DTD/svg11.dtd">
<svg version="1.1" id="Layer_1" xmlns="http://www.w3.org/2000/svg" xmlns:xlink="http://www.w3.org/1999/xlink" x="0px" y="0px"
	 width="100px" height="100px" viewBox="0 0 100 100" enable-background="new 0 0 100 100" xml:space="preserve">
<path d="M67.522,31.348H22.524c-2.666,0-4.834,2.169-4.834,4.835V65.18c0,2.666,2.168,4.835,4.834,4.835h20.498v1.75h-5.875
	c-1.104,0-2,0.897-2,2s0.896,2,2,2h15.625c1.104,0,2-0.897,2-2s-0.896-2-2-2h-5.75v-1.75h20.5c2.664,0,4.834-2.169,4.834-4.835
	V36.183C72.356,33.517,70.187,31.348,67.522,31.348z"/>
</svg>
