<?xml version="1.0" encoding="utf-8"?>
<!-- Generator: Adobe Illustrator 16.0.0, SVG Export Plug-In . SVG Version: 6.00 Build 0)  -->
<!DOCTYPE svg PUBLIC "-//W3C//DTD SVG 1.1//EN" "http://www.w3.org/Graphics/SVG/1.1/DTD/svg11.dtd">
<svg version="1.1" id="Layer_1" xmlns="http://www.w3.org/2000/svg" xmlns:xlink="http://www.w3.org/1999/xlink" x="0px" y="0px"
	 width="100px" height="100px" viewBox="0 0 100 100" enable-background="new 0 0 100 100" xml:space="preserve">
<g>
	<path d="M57.773,49.521H44.187c-0.479,0-0.867,0.389-0.867,0.868s0.388,0.868,0.867,0.868h13.586c0.478,0,0.869-0.389,0.869-0.868
		S58.251,49.521,57.773,49.521z"/>
	<path d="M76.138,20.502H25.222c-5.139,0-9.32,4.182-9.32,9.321v5.789c0,1.393,1.134,2.527,2.528,2.527h1.666v29.02
		c0,5.139,4.182,9.32,9.32,9.32h43.128c5.139,0,9.32-4.182,9.32-9.32V38.14h1.067c1.394,0,2.528-1.135,2.528-2.527v-5.789
		C85.46,24.684,81.278,20.502,76.138,20.502z M57.773,56.313H44.187c-3.267,0-5.924-2.658-5.924-5.924s2.657-5.923,5.924-5.923
		h13.586c3.266,0,5.925,2.657,5.925,5.923S61.039,56.313,57.773,56.313z"/>
</g>
</svg>
