<?xml version="1.0" encoding="utf-8"?>
<!-- Generator: Adobe Illustrator 16.0.0, SVG Export Plug-In . SVG Version: 6.00 Build 0)  -->
<!DOCTYPE svg PUBLIC "-//W3C//DTD SVG 1.1//EN" "http://www.w3.org/Graphics/SVG/1.1/DTD/svg11.dtd">
<svg version="1.1" id="Layer_1" xmlns="http://www.w3.org/2000/svg" xmlns:xlink="http://www.w3.org/1999/xlink" x="0px" y="0px"
	 width="100px" height="100px" viewBox="0 0 100 100" enable-background="new 0 0 100 100" xml:space="preserve">
<g>
	<path d="M37.081,61.277h26.714V34.563H37.081V61.277z M41.934,38.457c0.61-0.611,1.6-0.611,2.21,0l3.452,3.453
		c0.865-0.41,1.821-0.658,2.841-0.658c1.095,0,2.112,0.289,3.023,0.758l3.263-3.264c0.611-0.611,1.6-0.611,2.211,0
		c0.61,0.611,0.61,1.6,0,2.211l-3.09,3.09c0.786,1.094,1.261,2.426,1.261,3.873c0,1.389-0.428,2.678-1.156,3.746l2.908,2.908
		c0.611,0.611,0.611,1.602,0,2.211c-0.305,0.307-0.705,0.459-1.105,0.459c-0.4,0-0.8-0.152-1.105-0.459l-3.037-3.037
		c-0.948,0.518-2.019,0.84-3.173,0.84c-1.02,0-1.976-0.248-2.839-0.658l-3.44,3.441c-0.305,0.305-0.705,0.457-1.105,0.457
		c-0.4,0-0.8-0.152-1.105-0.457c-0.611-0.611-0.611-1.602,0-2.211l3.21-3.213c-0.858-1.121-1.388-2.508-1.388-4.027
		s0.53-2.906,1.388-4.027l-3.224-3.225C41.323,40.057,41.323,39.068,41.934,38.457z"/>
	<path d="M50.438,51.461c1.953,0,3.541-1.588,3.541-3.541s-1.587-3.543-3.541-3.543c-1.953,0-3.54,1.59-3.54,3.543
		S48.485,51.461,50.438,51.461z"/>
	<path d="M72.61,23.688H28.835c-0.622,0-1.219,0.248-1.658,0.688c-0.44,0.439-0.686,1.037-0.686,1.658v43.773
		c0,0.648,0.261,1.234,0.686,1.658s1.011,0.688,1.658,0.688h1.992v1.563h3.09h0.037h3.09v-1.563h26.77v1.563h3.09h0.037h3.09v-1.563
		h2.58c0.62,0,1.218-0.248,1.658-0.688c0.438-0.439,0.686-1.035,0.686-1.658V26.033C74.954,24.738,73.905,23.688,72.61,23.688z
		 M66.922,62.84c0,0.865-0.699,1.564-1.563,1.564H35.517c-0.864,0-1.563-0.699-1.563-1.564v-5.012h-1.563v-3.127h1.563V41.127h-1.6
		V38h1.6v-5c0-0.865,0.699-1.564,1.563-1.564h29.841c0.864,0,1.563,0.699,1.563,1.564V62.84z"/>
</g>
</svg>
