<?xml version="1.0" encoding="utf-8"?>
<!-- Generator: Adobe Illustrator 16.0.0, SVG Export Plug-In . SVG Version: 6.00 Build 0)  -->
<!DOCTYPE svg PUBLIC "-//W3C//DTD SVG 1.1//EN" "http://www.w3.org/Graphics/SVG/1.1/DTD/svg11.dtd">
<svg version="1.1" id="Layer_1" xmlns="http://www.w3.org/2000/svg" xmlns:xlink="http://www.w3.org/1999/xlink" x="0px" y="0px"
	 width="100px" height="100px" viewBox="0 0 100 100" enable-background="new 0 0 100 100" xml:space="preserve">
<g>
	<path d="M58.354,51.817l0.115-0.01v-0.004C58.475,51.8,58.422,51.808,58.354,51.817z"/>
	<path d="M93.553,49.181l-8.332-8.332c-1.094-1.096-2.549-1.699-4.098-1.699s-3.004,0.604-4.098,1.697l-3.92,3.918
		c-0.074-0.473-0.193-0.939-0.404-1.389l-0.516-1.08c-0.846-1.777-2.592-2.881-4.563-2.881c-0.811,0-1.629,0.199-2.363,0.576
		l-3.764,1.934l-1.756-4.248c-0.359-0.754-0.838-1.422-1.395-1.996c4.377-0.924,7.68-4.928,7.68-9.711
		c0-5.463-4.314-9.908-9.613-9.908c-5.301,0-9.613,4.445-9.613,9.908c0,1.34,0.264,2.619,0.734,3.785
		c-0.545-0.053-1.1-0.031-1.637,0.096c-0.166-0.012-0.334-0.021-0.502-0.021H29.688c-0.77,0-1.533,0.123-2.262,0.361
		c-1.408,0.318-2.613,1.254-3.271,2.49c-0.119,0.191-0.215,0.393-0.313,0.611c-0.271,0.629-0.404,1.23-0.404,1.844v11.328
		c0,2.926,2.271,5.307,5.059,5.307h1.16c2.791,0,5.059-2.381,5.059-5.307V41.69h3.242l-6.295,12.586
		c-0.633,1.229-0.744,2.646-0.332,3.963c0,0.016,0,0.033,0,0.049v6.166h-5.584c-3.213,0-5.828,2.682-5.828,5.979v1.508
		c0,3.299,2.615,5.982,5.828,5.982h12.867c3.217,0,5.83-2.684,5.83-5.982v-3.357l14.996,15.584c1.105,1.146,2.578,1.777,4.15,1.777
		s3.045-0.631,4.15-1.777l1.023-1.068c2.23-2.314,2.23-6.082,0-8.4L51.127,56.37l2.088-4.174c0.313,0.602,0.703,1.154,1.16,1.65
		c0.9,1.174,2.258,1.883,3.643,1.945c0.154,0.018,0.303,0.023,0.451,0.023l0.387-0.016c0.512-0.035,0.99-0.145,1.43-0.332
		l4.346-2.229l-0.918,0.922c-1.098,1.094-1.697,2.549-1.697,4.096c0,1.549,0.602,3.004,1.697,4.1l8.332,8.332
		c1.094,1.096,2.551,1.701,4.1,1.701c1.547,0,3.004-0.605,4.098-1.701l13.313-13.311c1.094-1.094,1.699-2.549,1.699-4.098
		C95.254,51.729,94.648,50.276,93.553,49.181z"/>
</g>
</svg>
