<?xml version="1.0" encoding="utf-8"?>
<!-- Generator: Adobe Illustrator 16.0.0, SVG Export Plug-In . SVG Version: 6.00 Build 0)  -->
<!DOCTYPE svg PUBLIC "-//W3C//DTD SVG 1.1//EN" "http://www.w3.org/Graphics/SVG/1.1/DTD/svg11.dtd">
<svg version="1.1" id="Layer_1" xmlns="http://www.w3.org/2000/svg" xmlns:xlink="http://www.w3.org/1999/xlink" x="0px" y="0px"
	 width="100px" height="100px" viewBox="0 0 100 100" enable-background="new 0 0 100 100" xml:space="preserve">
<g>
	<circle cx="44.897" cy="37.012" r="2.868"/>
	<path d="M68.864,51.293c-0.42-0.279-0.951-0.326-1.414-0.129l-16.746,7.132l-3.703-1.578c2.857-4.032,10.438-15.25,10.438-20.775
		c0-6.916-5.625-12.542-12.541-12.542s-12.541,5.626-12.541,12.542c0,4.608,5.275,13.18,8.686,18.238l-7.082-3.017
		c-0.016-0.007-0.033-0.008-0.047-0.014c-0.063-0.024-0.127-0.038-0.191-0.054c-0.055-0.014-0.109-0.029-0.166-0.036
		c-0.063-0.008-0.123-0.007-0.186-0.007c-0.061,0-0.123-0.001-0.184,0.007c-0.057,0.007-0.111,0.022-0.166,0.036
		c-0.064,0.016-0.129,0.029-0.191,0.055c-0.016,0.006-0.031,0.006-0.045,0.013L15.45,58.547c-0.553,0.235-0.912,0.778-0.912,1.38
		v22.284c0,0.504,0.254,0.974,0.674,1.251c0.248,0.165,0.537,0.249,0.826,0.249c0.199,0,0.398-0.04,0.588-0.12l16.746-7.131
		l16.744,7.131c0.035,0.015,0.072,0.021,0.107,0.033c0.033,0.012,0.066,0.022,0.102,0.031c0.125,0.033,0.252,0.056,0.379,0.056
		c0.129,0,0.254-0.022,0.379-0.056c0.035-0.009,0.068-0.02,0.102-0.031c0.035-0.012,0.072-0.019,0.107-0.033l17.334-7.382
		c0.553-0.235,0.912-0.778,0.912-1.38V52.544C69.538,52.041,69.284,51.571,68.864,51.293z M31.872,73.838l-14.334,6.104V60.918
		l14.334-6.104V73.838z M39.749,37.011c0-2.839,2.309-5.148,5.148-5.148c2.838,0,5.148,2.31,5.148,5.148
		c0,2.84-2.311,5.148-5.148,5.148C42.058,42.16,39.749,39.851,39.749,37.011z M49.204,79.942l-14.332-6.104V54.814l14.332,6.104
		V79.942z M66.538,73.838l-14.334,6.104V60.918l14.334-6.104V73.838z"/>
</g>
</svg>
