<?xml version="1.0" encoding="utf-8"?>
<!-- Generator: Adobe Illustrator 16.0.0, SVG Export Plug-In . SVG Version: 6.00 Build 0)  -->
<!DOCTYPE svg PUBLIC "-//W3C//DTD SVG 1.1//EN" "http://www.w3.org/Graphics/SVG/1.1/DTD/svg11.dtd">
<svg version="1.1" id="Layer_1" xmlns="http://www.w3.org/2000/svg" xmlns:xlink="http://www.w3.org/1999/xlink" x="0px" y="0px"
	 width="100px" height="100px" viewBox="0 0 100 100" enable-background="new 0 0 100 100" xml:space="preserve">
<path d="M71.047,55.168h-4.656v-18.93l5.956-5.957c0.718-0.717,0.718-1.881,0-2.6c-0.72-0.717-1.882-0.717-2.6,0l-6.018,6.019
	h-6.878c-0.17,0-0.334,0.024-0.49,0.071H44.065V28.32c0-1.015-0.824-1.839-1.838-1.839h-7.7c-1.015,0-1.838,0.824-1.838,1.839v5.453
	h-4.656c-1.015,0-1.839,0.823-1.839,1.839v7.699c0,1.017,0.824,1.839,1.839,1.839h4.656v19.593l-5.957,5.954
	c-0.717,0.719-0.717,1.882,0,2.601c0.359,0.359,0.83,0.54,1.301,0.54c0.47,0,0.939-0.181,1.3-0.54l6.68-6.68h6.215
	c0.171,0,0.335-0.024,0.49-0.071h12.298v5.453c0,1.015,0.823,1.839,1.837,1.839h7.7c1.015,0,1.839-0.824,1.839-1.839v-5.453h4.656
	c1.015,0,1.838-0.823,1.838-1.839v-7.699C72.885,55.991,72.062,55.168,71.047,55.168z M55.015,55.168H47.46l7.555-7.553V55.168z
	 M44.065,45.149h8.216l-8.216,8.216V45.149z"/>
</svg>
