<?xml version="1.0" encoding="utf-8"?>
<!-- Generator: Adobe Illustrator 16.0.0, SVG Export Plug-In . SVG Version: 6.00 Build 0)  -->
<!DOCTYPE svg PUBLIC "-//W3C//DTD SVG 1.1//EN" "http://www.w3.org/Graphics/SVG/1.1/DTD/svg11.dtd">
<svg version="1.1" id="Layer_1" xmlns="http://www.w3.org/2000/svg" xmlns:xlink="http://www.w3.org/1999/xlink" x="0px" y="0px"
	 width="100px" height="100px" viewBox="0 0 100 100" enable-background="new 0 0 100 100" xml:space="preserve">
<path d="M55.686,25.154c-15.113,0-27.41,12.295-27.41,27.41c0,15.113,12.297,27.408,27.41,27.408s27.408-12.295,27.408-27.408
	C83.094,37.449,70.799,25.154,55.686,25.154z M61.883,47.271c1.461,0,2.646,1.186,2.646,2.646s-1.186,2.646-2.646,2.646
	s-2.646-1.186-2.646-2.646S60.422,47.271,61.883,47.271z M49.488,47.271c1.463,0,2.646,1.186,2.646,2.646s-1.184,2.646-2.646,2.646
	s-2.646-1.186-2.646-2.646S48.025,47.271,49.488,47.271z M69.268,63.229H42.102c-1.106,0-2.004-0.898-2.004-2.006
	c0-1.105,0.897-2.006,2.004-2.006h27.166c1.109,0,2.005,0.9,2.005,2.006C71.272,62.331,70.377,63.229,69.268,63.229z"/>
</svg>
