<?xml version="1.0" encoding="utf-8"?>
<!-- Generator: Adobe Illustrator 16.0.0, SVG Export Plug-In . SVG Version: 6.00 Build 0)  -->
<!DOCTYPE svg PUBLIC "-//W3C//DTD SVG 1.1//EN" "http://www.w3.org/Graphics/SVG/1.1/DTD/svg11.dtd">
<svg version="1.1" id="Layer_1" xmlns="http://www.w3.org/2000/svg" xmlns:xlink="http://www.w3.org/1999/xlink" x="0px" y="0px"
	 width="100px" height="100px" viewBox="0 0 100 100" enable-background="new 0 0 100 100" xml:space="preserve">
<g>
	<path d="M52.844,25.154c-15.115,0-27.412,12.295-27.412,27.41c0,15.113,12.297,27.408,27.412,27.408
		c15.111,0,27.408-12.295,27.408-27.408C80.252,37.449,67.955,25.154,52.844,25.154z M56.764,47.911h1.314v-1.316
		c0-1.107,0.898-2.006,2.006-2.006s2.006,0.898,2.006,2.006v1.316h1.314c1.109,0,2.006,0.896,2.006,2.006
		c0,1.105-0.896,2.006-2.006,2.006H62.09v1.313c0,1.109-0.898,2.006-2.006,2.006s-2.006-0.896-2.006-2.006v-1.313h-1.314
		c-1.107,0-2.004-0.9-2.004-2.006C54.76,48.808,55.656,47.911,56.764,47.911z M42.279,47.911h1.314v-1.316
		c0-1.107,0.896-2.006,2.006-2.006s2.006,0.898,2.006,2.006v1.316h1.313c1.109,0,2.006,0.896,2.006,2.006
		c0,1.105-0.896,2.006-2.006,2.006h-1.313v1.313c0,1.109-0.896,2.006-2.006,2.006s-2.006-0.896-2.006-2.006v-1.313h-1.314
		c-1.109,0-2.006-0.9-2.006-2.006C40.273,48.808,41.17,47.911,42.279,47.911z M66.291,64.218c-0.736,0.832-2.004,0.906-2.832,0.176
		c-2.787-2.463-6.373-3.82-10.098-3.82c-4.199,0-8.111,1.668-11.018,4.697c-0.393,0.412-0.918,0.619-1.445,0.619
		c-0.5,0-1-0.188-1.389-0.561c-0.801-0.766-0.826-2.035-0.059-2.834c3.67-3.826,8.609-5.932,13.91-5.932
		c4.703,0,9.234,1.711,12.752,4.822C66.945,62.12,67.021,63.388,66.291,64.218z"/>
</g>
</svg>
