<?xml version="1.0" encoding="utf-8"?>
<!-- Generator: Adobe Illustrator 16.0.0, SVG Export Plug-In . SVG Version: 6.00 Build 0)  -->
<!DOCTYPE svg PUBLIC "-//W3C//DTD SVG 1.1//EN" "http://www.w3.org/Graphics/SVG/1.1/DTD/svg11.dtd">
<svg version="1.1" id="Layer_1" xmlns="http://www.w3.org/2000/svg" xmlns:xlink="http://www.w3.org/1999/xlink" x="0px" y="0px"
	 width="100px" height="100px" viewBox="0 0 100 100" enable-background="new 0 0 100 100" xml:space="preserve">
<g>
	<rect x="28.647" y="57.579" width="5.018" height="5.018"/>
	<circle cx="31.156" cy="45.509" r="2.509"/>
	<path d="M74.761,29.565H19.455c-1.188,0-2.151,0.964-2.151,2.15v42.167c0,1.188,0.964,2.15,2.151,2.15h55.306
		c1.188,0,2.151-0.962,2.151-2.15V31.716C76.912,30.529,75.949,29.565,74.761,29.565z M37.967,64.748
		c0,1.188-0.962,2.151-2.151,2.151h-9.32c-1.188,0-2.15-0.964-2.15-2.151v-9.32c0-1.188,0.963-2.15,2.15-2.15h9.32
		c1.189,0,2.151,0.962,2.151,2.15V64.748z M31.156,52.321c-3.756,0-6.812-3.056-6.812-6.812c0-3.754,3.056-6.811,6.812-6.811
		s6.811,3.056,6.811,6.811C37.967,49.265,34.912,52.321,31.156,52.321z M67.72,65.584H47.236c-1.187,0-2.15-0.964-2.15-2.15
		c0-1.188,0.964-2.151,2.15-2.151H67.72c1.189,0,2.15,0.963,2.15,2.151C69.87,64.62,68.909,65.584,67.72,65.584z M67.72,58.414
		H47.236c-1.187,0-2.15-0.963-2.15-2.15c0-1.188,0.964-2.151,2.15-2.151H67.72c1.189,0,2.15,0.964,2.15,2.151
		C69.87,57.451,68.909,58.414,67.72,58.414z M67.72,51.245H47.236c-1.187,0-2.15-0.962-2.15-2.15c0-1.188,0.964-2.151,2.15-2.151
		H67.72c1.189,0,2.15,0.964,2.15,2.151C69.87,50.282,68.909,51.245,67.72,51.245z M67.72,44.075H47.236
		c-1.187,0-2.15-0.964-2.15-2.15c0-1.188,0.964-2.151,2.15-2.151H67.72c1.189,0,2.15,0.963,2.15,2.151
		C69.87,43.111,68.909,44.075,67.72,44.075z"/>
</g>
</svg>
