<?xml version="1.0" encoding="utf-8"?>
<!-- Generator: Adobe Illustrator 16.0.0, SVG Export Plug-In . SVG Version: 6.00 Build 0)  -->
<!DOCTYPE svg PUBLIC "-//W3C//DTD SVG 1.1//EN" "http://www.w3.org/Graphics/SVG/1.1/DTD/svg11.dtd">
<svg version="1.1" id="Layer_1" xmlns="http://www.w3.org/2000/svg" xmlns:xlink="http://www.w3.org/1999/xlink" x="0px" y="0px"
	 width="100px" height="100px" viewBox="0 0 100 100" enable-background="new 0 0 100 100" xml:space="preserve">
<g>
	<circle cx="55.934" cy="51.824" r="2.689"/>
	<circle cx="51.687" cy="56.07" r="2.688"/>
	<path d="M49.448,50.028c-1.051-1.05-2.754-1.049-3.803,0c-1.049,1.051-1.05,2.752,0,3.805c1.049,1.048,2.754,1.048,3.803,0
		C50.498,52.781,50.498,51.079,49.448,50.028z"/>
	<circle cx="51.793" cy="47.686" r="2.689"/>
	<circle cx="60.307" cy="47.453" r="2.689"/>
	<path d="M77.689,34.714l-8.785-8.784c-2.423-2.424-6.366-2.424-8.792,0L30.037,56.005c-2.424,2.424-2.424,6.368,0,8.792
		l8.785,8.783c2.423,2.424,6.366,2.424,8.79,0l30.077-30.075C80.111,41.081,80.111,37.138,77.689,34.714z M51.075,61.839
		l-9.296-9.295l14.872-14.871l9.294,9.295L51.075,61.839z"/>
	<circle cx="56.167" cy="43.312" r="2.689"/>
</g>
</svg>
