<?xml version="1.0" encoding="utf-8"?>
<!-- Generator: Adobe Illustrator 16.0.0, SVG Export Plug-In . SVG Version: 6.00 Build 0)  -->
<!DOCTYPE svg PUBLIC "-//W3C//DTD SVG 1.1//EN" "http://www.w3.org/Graphics/SVG/1.1/DTD/svg11.dtd">
<svg version="1.1" id="Layer_1" xmlns="http://www.w3.org/2000/svg" xmlns:xlink="http://www.w3.org/1999/xlink" x="0px" y="0px"
	 width="100px" height="100px" viewBox="0 0 100 100" enable-background="new 0 0 100 100" xml:space="preserve">
<path d="M84.481,45h-3.966c-2.315-4-6.207-5.615-10.61-5.615c-4.404,0-8.293,1.615-10.607,5.615H48.71
	c-2.316-4-6.205-5.615-10.609-5.615S29.804,41,27.491,45H22.63c-1.238,0-2.244,0.762-2.244,2c0,1.24,1.006,2,2.244,2h2.924
	c-0.193,1-0.303,1.826-0.303,2.768c0,7.084,5.766,12.86,12.85,12.86s12.846-5.782,12.846-12.866c0-0.941-0.107-1.762-0.301-2.762
	h6.715c-0.193,1-0.301,1.826-0.301,2.768c0,7.084,5.762,12.86,12.846,12.86s12.848-5.782,12.848-12.866
	c0-0.941-0.108-1.762-0.302-2.762h2.03c1.238,0,2.244-0.76,2.244-2C86.726,45.762,85.72,45,84.481,45z"/>
</svg>
