<?xml version="1.0" encoding="utf-8"?>
<!-- Generator: Adobe Illustrator 16.0.0, SVG Export Plug-In . SVG Version: 6.00 Build 0)  -->
<!DOCTYPE svg PUBLIC "-//W3C//DTD SVG 1.1//EN" "http://www.w3.org/Graphics/SVG/1.1/DTD/svg11.dtd">
<svg version="1.1" id="Layer_1" xmlns="http://www.w3.org/2000/svg" xmlns:xlink="http://www.w3.org/1999/xlink" x="0px" y="0px"
	 width="100px" height="100px" viewBox="0 0 100 100" enable-background="new 0 0 100 100" xml:space="preserve">
<path d="M83.998,39.87l0.029-0.047L70.672,25.409H34.191L21.88,39.425l-0.818,0.941l0.072,0.07
	c-1.017,1.568-1.568,3.404-1.568,5.281v16.559c0,5.359,4.362,9.719,9.721,9.719h46.962c5.359,0,9.719-4.359,9.719-9.719V45.718
	C85.967,43.593,85.274,41.552,83.998,39.87z M68.411,30.585l5.016,5.412H59.824v5.102c0,2.859-2.848,3.287-4.545,3.287h-5.024
	c-1.698,0-4.546-0.428-4.546-3.287v-5.102H31.779l4.756-5.412H68.411z"/>
</svg>
