<?xml version="1.0" encoding="utf-8"?>
<!-- Generator: Adobe Illustrator 16.0.0, SVG Export Plug-In . SVG Version: 6.00 Build 0)  -->
<!DOCTYPE svg PUBLIC "-//W3C//DTD SVG 1.1//EN" "http://www.w3.org/Graphics/SVG/1.1/DTD/svg11.dtd">
<svg version="1.1" id="Layer_1" xmlns="http://www.w3.org/2000/svg" xmlns:xlink="http://www.w3.org/1999/xlink" x="0px" y="0px"
	 width="100px" height="100px" viewBox="0 0 100 100" enable-background="new 0 0 100 100" xml:space="preserve">
<path d="M69.807,49.557c-1.118,0-2.202,0.143-3.247,0.385l-4.245-4.416c6.189-6.26,12.643-12.85,13.977-14.451
	c3.13-3.756,1.142-10.557,0.498-12.453c0.152-0.76-0.073-1.58-0.675-2.156c-0.932-0.898-2.417-0.869-3.316,0.066L53.625,36.482
	L34.452,16.531c-0.898-0.938-2.383-0.965-3.316-0.066c-0.602,0.576-0.827,1.396-0.673,2.156c-0.644,1.896-2.633,8.697,0.497,12.453
	c1.334,1.602,7.789,8.191,13.977,14.451l-4.139,4.307c-0.901-0.178-1.829-0.275-2.78-0.275c-7.9,0-14.33,6.43-14.33,14.33
	s6.429,14.33,14.33,14.33c7.901,0,14.33-6.43,14.33-14.33c0-2.406-0.603-4.672-1.653-6.664c0.643-0.645,1.662-1.666,2.933-2.943
	c1.569,1.576,2.752,2.762,3.32,3.328c-0.931,1.9-1.468,4.025-1.468,6.279c0,7.9,6.429,14.33,14.33,14.33
	c7.902,0,14.33-6.43,14.33-14.33S77.709,49.557,69.807,49.557z M38.016,73.525c-5.314,0-9.64-4.324-9.64-9.639
	c0-5.316,4.325-9.641,9.64-9.641c1.153,0,2.255,0.215,3.28,0.586l3.152,1.895c1.963,1.766,3.208,4.316,3.208,7.16
	C47.656,69.201,43.331,73.525,38.016,73.525z M69.807,73.525c-5.314,0-9.64-4.324-9.64-9.639c0-5.316,4.325-9.641,9.64-9.641
	c5.316,0,9.64,4.324,9.64,9.641C79.447,69.201,75.123,73.525,69.807,73.525z"/>
</svg>
