<?xml version="1.0" encoding="utf-8"?>
<!-- Generator: Adobe Illustrator 16.0.0, SVG Export Plug-In . SVG Version: 6.00 Build 0)  -->
<!DOCTYPE svg PUBLIC "-//W3C//DTD SVG 1.1//EN" "http://www.w3.org/Graphics/SVG/1.1/DTD/svg11.dtd">
<svg version="1.1" id="Layer_1" xmlns="http://www.w3.org/2000/svg" xmlns:xlink="http://www.w3.org/1999/xlink" x="0px" y="0px"
	 width="100px" height="100px" viewBox="0 0 100 100" enable-background="new 0 0 100 100" xml:space="preserve">
<path d="M84.944,50.989c0-18.672-14.602-33.988-32.984-35.151V12.77c0-1.239-1.006-2.244-2.244-2.244
	c-1.239,0-2.244,1.005-2.244,2.244v3.068c-18.384,1.163-32.988,16.479-32.988,35.151v2.244h32.988v22.245
	c0,1.961-1.596,3.556-3.557,3.556s-3.557-1.594-3.557-3.555c0-1.238-1.005-2.244-2.244-2.244c-1.238,0-2.244,1.006-2.244,2.244
	c0,4.435,3.609,8.043,8.045,8.043s8.045-3.608,8.045-8.044V53.233h32.984V50.989z"/>
</svg>
