<?xml version="1.0" encoding="utf-8"?>
<!-- Generator: Adobe Illustrator 16.0.0, SVG Export Plug-In . SVG Version: 6.00 Build 0)  -->
<!DOCTYPE svg PUBLIC "-//W3C//DTD SVG 1.1//EN" "http://www.w3.org/Graphics/SVG/1.1/DTD/svg11.dtd">
<svg version="1.1" id="Layer_1" xmlns="http://www.w3.org/2000/svg" xmlns:xlink="http://www.w3.org/1999/xlink" x="0px" y="0px"
	 width="100px" height="100px" viewBox="0 0 100 100" enable-background="new 0 0 100 100" xml:space="preserve">
<g>
	<path d="M42.391,47.917c-0.115-0.104-0.236-0.202-0.345-0.312l-4.447-4.445c-2.468,0.193-4.425,2.241-4.425,4.757
		c0.001,2.518,1.957,4.566,4.428,4.757l4.444-4.444C42.154,48.12,42.275,48.021,42.391,47.917z"/>
	<path d="M47.818,43.647c-0.645-0.325-1.364-0.525-2.135-0.525h-2.038l1.442,1.441c0.548,0.549,1.227,0.91,1.946,1.126
		c0.473-0.076,0.955-0.124,1.442-0.124c0.45,0,0.894,0.043,1.332,0.107C49.044,45.105,48.372,44.423,47.818,43.647z"/>
	<path d="M45.684,38.82c0.157,0,0.311,0.016,0.466,0.024c-0.009-0.156-0.023-0.308-0.023-0.464v-6.286
		c-0.868-0.745-1.95-1.169-3.105-1.169c-1.28,0-2.484,0.498-3.39,1.402c-1.779,1.779-1.844,4.61-0.234,6.492H45.684z"/>
	<path d="M46.955,50.135c-0.694,0.232-1.335,0.605-1.867,1.137l-1.44,1.439h2.036c0.772,0,1.491-0.2,2.137-0.526
		c0.554-0.773,1.224-1.454,1.985-2.023c-0.437,0.065-0.879,0.108-1.329,0.108C47.961,50.271,47.453,50.219,46.955,50.135z"/>
	<path d="M39.399,57.013c-1.61,1.882-1.546,4.713,0.235,6.494c1.719,1.72,4.649,1.784,6.491,0.23v-6.281
		c0-0.157,0.015-0.312,0.023-0.467c-0.155,0.008-0.309,0.024-0.466,0.024H39.399z"/>
	<path d="M55.22,35.089c0.106-0.115,0.204-0.236,0.315-0.346l4.441-4.445c-0.192-2.468-2.239-4.426-4.757-4.426
		s-4.564,1.959-4.755,4.428l4.442,4.443C55.018,34.855,55.116,34.974,55.22,35.089z"/>
	<path d="M71.045,38.82c1.607-1.882,1.544-4.713-0.234-6.492c-0.904-0.906-2.109-1.404-3.389-1.404c-1.157,0-2.237,0.425-3.105,1.17
		v6.287c0,0.156-0.017,0.311-0.025,0.466c0.154-0.008,0.307-0.023,0.462-0.023L71.045,38.82z"/>
	<path d="M52.978,42.506c-0.063-0.438-0.107-0.882-0.107-1.333c0-0.513,0.051-1.016,0.134-1.511
		c-0.226-0.685-0.593-1.333-1.138-1.878l-1.438-1.439v2.036c0,0.77,0.199,1.488,0.523,2.134
		C51.729,41.069,52.41,41.742,52.978,42.506z"/>
	<path d="M55.533,47.605c-0.043-0.045-0.081-0.094-0.124-0.139c-0.063,0.001-0.125,0.01-0.189,0.01c-0.063,0-0.123-0.009-0.188-0.01
		c-0.042,0.045-0.081,0.094-0.125,0.139c-0.043,0.044-0.094,0.082-0.139,0.125c0.002,0.063,0.011,0.124,0.011,0.187
		c0,0.063-0.009,0.125-0.011,0.188c0.046,0.043,0.096,0.082,0.142,0.127c0.043,0.043,0.08,0.092,0.124,0.138
		c0.063-0.002,0.123-0.011,0.186-0.011c0.064,0,0.126,0.009,0.19,0.011c0.042-0.045,0.079-0.095,0.123-0.138
		c0.045-0.045,0.096-0.083,0.14-0.127c-0.001-0.063-0.009-0.124-0.009-0.188c0-0.063,0.008-0.124,0.009-0.187
		C55.629,47.687,55.578,47.649,55.533,47.605z"/>
	<path d="M64.759,57.013c-0.157,0-0.311-0.016-0.468-0.024c0.009,0.156,0.025,0.311,0.025,0.467v6.281
		c1.839,1.554,4.769,1.493,6.494-0.23c1.778-1.779,1.842-4.612,0.232-6.494H64.759z"/>
	<path d="M63.408,45.69c0.72-0.216,1.397-0.578,1.946-1.126l1.44-1.438h-2.036c-0.773,0-1.493,0.201-2.141,0.526
		c-0.554,0.773-1.224,1.455-1.985,2.022c0.438-0.064,0.88-0.107,1.33-0.107C62.453,45.566,62.936,45.614,63.408,45.69z"/>
	<path d="M66.792,52.711l-1.438-1.438c-0.533-0.533-1.175-0.905-1.868-1.139c-0.499,0.084-1.004,0.136-1.519,0.136
		c-0.451,0-0.894-0.043-1.333-0.108c0.761,0.568,1.432,1.248,1.984,2.021c0.647,0.326,1.367,0.528,2.141,0.528H66.792z"/>
	<path d="M72.844,43.16l-4.447,4.445c-0.11,0.11-0.229,0.209-0.347,0.314c0.117,0.104,0.235,0.202,0.347,0.313l4.441,4.441
		c2.471-0.191,4.429-2.242,4.432-4.758C77.267,45.402,75.312,43.354,72.844,43.16z"/>
	<path d="M55.221,19.767c-15.521,0-28.151,12.628-28.151,28.151c0,15.522,12.63,28.153,28.151,28.153
		c15.522,0,28.152-12.63,28.152-28.153C83.373,32.396,70.743,19.767,55.221,19.767z M73.852,66.549
		c-1.72,1.719-4.001,2.664-6.432,2.664c-1.304,0-2.56-0.28-3.714-0.796c-1.31,3.415-4.615,5.851-8.486,5.851
		c-3.87,0-7.175-2.436-8.485-5.85c-1.154,0.516-2.408,0.795-3.711,0.795c-2.432,0-4.714-0.945-6.432-2.664
		c-2.737-2.738-3.352-6.799-1.862-10.142c-3.418-1.31-5.855-4.618-5.857-8.49c0-3.87,2.439-7.177,5.856-8.487
		c-1.491-3.344-0.878-7.406,1.861-10.143c1.718-1.718,4.001-2.663,6.431-2.663c1.302,0,2.56,0.28,3.714,0.796
		c1.311-3.415,4.615-5.85,8.485-5.85s7.175,2.436,8.485,5.849c1.157-0.517,2.414-0.797,3.717-0.797c2.43,0,4.713,0.947,6.432,2.665
		c2.736,2.738,3.351,6.799,1.859,10.143c3.418,1.311,5.855,4.617,5.857,8.487c-0.003,3.872-2.44,7.177-5.858,8.488
		C77.204,59.75,76.592,63.811,73.852,66.549z"/>
	<path d="M57.436,39.667c0.156,0.943,0.162,1.903,0.021,2.847c0.568-0.766,1.252-1.44,2.03-1.995
		c0.325-0.647,0.527-1.367,0.527-2.139v-2.034l-1.437,1.437C58.04,38.321,57.666,38.969,57.436,39.667z"/>
	<path d="M55.223,60.749c-0.104,0.114-0.202,0.234-0.313,0.345l-4.445,4.444c0.19,2.469,2.237,4.427,4.755,4.427
		s4.566-1.958,4.757-4.428l-4.443-4.443C55.423,60.983,55.326,60.863,55.223,60.749z"/>
	<path d="M57.461,53.319c0.14,0.946,0.131,1.907-0.025,2.849c0.226,0.688,0.593,1.337,1.139,1.884l1.44,1.439v-2.036
		c0-0.773-0.202-1.495-0.53-2.141C58.709,54.759,58.027,54.085,57.461,53.319z"/>
	<path d="M53.007,56.168c-0.156-0.942-0.165-1.903-0.024-2.848c-0.568,0.766-1.252,1.441-2.027,1.997
		c-0.326,0.646-0.527,1.365-0.527,2.139v2.037l1.44-1.44C52.414,57.505,52.78,56.856,53.007,56.168z"/>
</g>
</svg>
