<?xml version="1.0" encoding="utf-8"?>
<!-- Generator: Adobe Illustrator 16.0.0, SVG Export Plug-In . SVG Version: 6.00 Build 0)  -->
<!DOCTYPE svg PUBLIC "-//W3C//DTD SVG 1.1//EN" "http://www.w3.org/Graphics/SVG/1.1/DTD/svg11.dtd">
<svg version="1.1" id="Layer_1" xmlns="http://www.w3.org/2000/svg" xmlns:xlink="http://www.w3.org/1999/xlink" x="0px" y="0px"
	 width="100px" height="100px" viewBox="0 0 100 100" enable-background="new 0 0 100 100" xml:space="preserve">
<g>
	<path d="M44.134,28.284H33.501c-0.791,0-1.434,0.641-1.434,1.433v10.646c0,0.792,0.643,1.434,1.434,1.434h10.633
		c0.795,0,1.436-0.642,1.436-1.434V29.717C45.569,28.924,44.929,28.284,44.134,28.284z"/>
	<path d="M44.134,42.911H33.501c-0.791,0-1.434,0.641-1.434,1.433v10.648c0,0.792,0.643,1.434,1.434,1.434h10.633
		c0.795,0,1.436-0.642,1.436-1.434V44.344C45.569,43.552,44.929,42.911,44.134,42.911z"/>
	<path d="M44.134,58.033H33.501c-0.791,0-1.434,0.641-1.434,1.433v10.649c0,0.792,0.643,1.434,1.434,1.434h10.633
		c0.795,0,1.436-0.642,1.436-1.434V59.466C45.569,58.674,44.929,58.033,44.134,58.033z"/>
	<path d="M59.142,28.036H48.507c-0.791,0-1.434,0.642-1.434,1.434v10.647c0,0.792,0.643,1.434,1.434,1.434h10.635
		c0.791,0,1.434-0.642,1.434-1.434V29.469C60.575,28.677,59.933,28.036,59.142,28.036z"/>
	<path d="M59.142,42.663H48.507c-0.791,0-1.434,0.642-1.434,1.434v10.646c0,0.792,0.643,1.434,1.434,1.434h10.635
		c0.791,0,1.434-0.642,1.434-1.434V44.097C60.575,43.305,59.933,42.663,59.142,42.663z"/>
	<path d="M59.142,57.786H48.507c-0.791,0-1.434,0.642-1.434,1.434v10.646c0,0.793,0.643,1.434,1.434,1.434h10.635
		c0.791,0,1.434-0.641,1.434-1.434V59.22C60.575,58.428,59.933,57.786,59.142,57.786z"/>
	<path d="M74.147,28.037H63.515c-0.791,0-1.434,0.642-1.434,1.434v10.646c0,0.793,0.643,1.434,1.434,1.434h10.633
		c0.791,0,1.434-0.641,1.434-1.434V29.471C75.581,28.678,74.938,28.037,74.147,28.037z"/>
	<path d="M74.147,42.666H63.515c-0.791,0-1.434,0.641-1.434,1.434v10.646c0,0.792,0.643,1.433,1.434,1.433h10.633
		c0.791,0,1.434-0.641,1.434-1.433V44.1C75.581,43.307,74.938,42.666,74.147,42.666z"/>
	<path d="M74.147,57.787H63.515c-0.791,0-1.434,0.642-1.434,1.435v10.646c0,0.792,0.643,1.433,1.434,1.433h10.633
		c0.791,0,1.434-0.641,1.434-1.433V59.222C75.581,58.429,74.938,57.787,74.147,57.787z"/>
</g>
</svg>
