<?xml version="1.0" encoding="utf-8"?>
<!-- Generator: Adobe Illustrator 16.0.0, SVG Export Plug-In . SVG Version: 6.00 Build 0)  -->
<!DOCTYPE svg PUBLIC "-//W3C//DTD SVG 1.1//EN" "http://www.w3.org/Graphics/SVG/1.1/DTD/svg11.dtd">
<svg version="1.1" id="Layer_1" xmlns="http://www.w3.org/2000/svg" xmlns:xlink="http://www.w3.org/1999/xlink" x="0px" y="0px"
	 width="100px" height="100px" viewBox="0 0 100 100" enable-background="new 0 0 100 100" xml:space="preserve">
<path d="M82.919,41.426l-0.028-0.104c-0.023-0.177-0.064-0.35-0.124-0.526l-0.059-0.177l-0.042-0.09
	c-0.096-0.204-0.204-0.385-0.331-0.549l-0.03-0.063l-19.574-19.57c-0.157-0.159-0.344-0.289-0.55-0.409
	c-0.089-0.051-0.172-0.106-0.271-0.151l-0.002-0.001c-0.002,0-0.003-0.002-0.006-0.003l-0.233-0.087
	c-0.001,0-0.002-0.001-0.005-0.001l-0.012-0.004c-0.186-0.061-0.373-0.102-0.524-0.122L61,19.533h-0.007H47.96h-0.002
	c-0.002,0-0.004,0-0.006,0c-0.413,0.002-0.816,0.038-1.216,0.091c-0.104,0.014-0.208,0.031-0.312,0.047
	c-0.365,0.061-0.722,0.14-1.071,0.244c-0.03,0.008-0.064,0.014-0.095,0.023c-0.38,0.117-0.746,0.265-1.103,0.427
	c-0.081,0.037-0.16,0.076-0.24,0.115c-0.328,0.163-0.648,0.341-0.954,0.54c-0.022,0.014-0.048,0.026-0.07,0.042
	c-0.338,0.224-0.656,0.474-0.962,0.738c-0.042,0.037-0.082,0.075-0.121,0.112c-0.295,0.264-0.572,0.544-0.832,0.846
	c-0.004,0.005-0.009,0.01-0.014,0.014c-0.275,0.323-0.525,0.666-0.756,1.025c-0.011,0.017-0.02,0.034-0.03,0.05
	c-0.225,0.357-0.427,0.728-0.601,1.115c-0.002,0.001-0.003,0.002-0.003,0.002v0.002c-0.52,1.152-0.815,2.425-0.815,3.77v0.293
	h-2.833v-0.017h-0.841c-5.075,0-9.205,4.128-9.205,9.203v38.646c0,5.075,4.13,9.203,9.205,9.203h25.765
	c4.702,0,8.583-3.545,9.129-8.104v-1.376h3.749c0.246,0,0.487-0.018,0.729-0.037l0,0c0.002,0,0.004,0,0.006,0
	c0.276-0.022,0.548-0.059,0.816-0.105c0.024-0.004,0.046-0.006,0.07-0.009c0.258-0.047,0.512-0.106,0.762-0.174
	c0.033-0.008,0.066-0.016,0.098-0.025c0.241-0.067,0.477-0.145,0.709-0.232c0.04-0.014,0.081-0.028,0.122-0.045
	c0.222-0.085,0.438-0.18,0.65-0.282c0.05-0.024,0.099-0.046,0.146-0.07c0.202-0.101,0.398-0.21,0.593-0.326
	c0.055-0.034,0.109-0.066,0.164-0.1c0.183-0.115,0.36-0.234,0.534-0.361c0.062-0.045,0.122-0.091,0.182-0.137
	c0.161-0.123,0.319-0.252,0.473-0.387c0.065-0.056,0.128-0.115,0.192-0.174c0.142-0.132,0.28-0.267,0.414-0.407
	c0.067-0.07,0.132-0.143,0.197-0.217c0.123-0.137,0.242-0.275,0.356-0.42c0.067-0.085,0.13-0.173,0.194-0.26
	c0.104-0.142,0.206-0.283,0.301-0.429c0.066-0.101,0.127-0.204,0.187-0.306c0.086-0.143,0.171-0.284,0.248-0.431
	c0.063-0.117,0.115-0.236,0.171-0.353c0.067-0.143,0.136-0.283,0.196-0.43c0.053-0.132,0.099-0.27,0.148-0.405
	c0.049-0.139,0.103-0.274,0.145-0.416c0.046-0.152,0.081-0.309,0.12-0.465c0.032-0.131,0.068-0.261,0.097-0.394
	c0.036-0.184,0.059-0.369,0.084-0.558c0.016-0.11,0.038-0.22,0.049-0.332c0.03-0.292,0.044-0.588,0.045-0.888
	c0-0.01,0.002-0.019,0.002-0.028v-0.001V41.687L82.919,41.426z"/>
</svg>
