<?xml version="1.0" encoding="utf-8"?>
<!-- Generator: Adobe Illustrator 16.0.0, SVG Export Plug-In . SVG Version: 6.00 Build 0)  -->
<!DOCTYPE svg PUBLIC "-//W3C//DTD SVG 1.1//EN" "http://www.w3.org/Graphics/SVG/1.1/DTD/svg11.dtd">
<svg version="1.1" id="Layer_1" xmlns="http://www.w3.org/2000/svg" xmlns:xlink="http://www.w3.org/1999/xlink" x="0px" y="0px"
	 width="100px" height="100px" viewBox="0 0 100 100" enable-background="new 0 0 100 100" xml:space="preserve">
<g>
	<path d="M61.905,57.268h-3.823c-0.792,0-1.434,0.642-1.434,1.434c0,0.793,0.642,1.434,1.434,1.434h3.823
		c0.791,0,1.434-0.641,1.434-1.434C63.339,57.909,62.696,57.268,61.905,57.268z"/>
	<path d="M69.2,57.268h-3.941c-0.791,0-1.434,0.642-1.434,1.434c0,0.793,0.643,1.434,1.434,1.434H69.2
		c0.791,0,1.433-0.641,1.433-1.434C70.633,57.909,69.991,57.268,69.2,57.268z"/>
	<path d="M40.803,44.887h12.604c0.792,0,1.434-0.641,1.434-1.433c0-0.793-0.642-1.434-1.434-1.434H40.803
		c-0.792,0-1.434,0.641-1.434,1.434C39.369,44.246,40.011,44.887,40.803,44.887z"/>
	<path d="M77.043,70.683h-1.874V46.502c0-0.792-0.643-1.434-1.434-1.434h-3.103V30.443c0-0.792-0.642-1.434-1.433-1.434h-3.941
		c-0.791,0-1.434,0.642-1.434,1.434v14.625h-1.261V30.443c0-0.792-0.643-1.434-1.434-1.434h-3.941c-0.791,0-1.433,0.642-1.433,1.434
		v14.625H35.721c-0.792,0-1.435,0.642-1.435,1.434v24.181h-1.874c-0.793,0-1.434,0.641-1.434,1.435c0,0.792,0.641,1.434,1.434,1.434
		h3.309h5.082h12.604h20.329h3.308c0.792,0,1.434-0.642,1.434-1.434C78.477,71.323,77.835,70.683,77.043,70.683z M42.236,70.683
		V60.135h9.735v10.548H42.236z"/>
</g>
</svg>
