<?xml version="1.0" encoding="utf-8"?>
<!-- Generator: Adobe Illustrator 16.0.0, SVG Export Plug-In . SVG Version: 6.00 Build 0)  -->
<!DOCTYPE svg PUBLIC "-//W3C//DTD SVG 1.1//EN" "http://www.w3.org/Graphics/SVG/1.1/DTD/svg11.dtd">
<svg version="1.1" id="Layer_1" xmlns="http://www.w3.org/2000/svg" xmlns:xlink="http://www.w3.org/1999/xlink" x="0px" y="0px"
	 width="100px" height="100px" viewBox="0 0 100 100" enable-background="new 0 0 100 100" xml:space="preserve">
<g>
	<path d="M54.005,54.908H43.104c-0.791,0-1.434,0.642-1.434,1.436v8.247c0,0.793,0.643,1.434,1.434,1.434h10.901
		c0.791,0,1.434-0.641,1.434-1.434v-8.247C55.438,55.55,54.796,54.908,54.005,54.908z"/>
	<path d="M75.625,39.902l-8.321-4.847v-3.357c0-0.793-0.643-1.435-1.435-1.435H44.53c-0.791,0-1.435,0.642-1.435,1.435v3.227
		l-8.548,4.978c-0.441,0.256-0.712,0.729-0.712,1.239v3.964c0,1.853,0.94,3.527,2.454,4.511v21.245c0,0.792,0.641,1.435,1.434,1.435
		h20.524h9.744h4.456c0.791,0,1.435-0.643,1.435-1.435V49.616c1.513-0.985,2.455-2.659,2.455-4.511v-3.964
		C76.338,40.632,76.065,40.16,75.625,39.902z M71.016,69.428h-1.59V56.344c0-0.794-0.643-1.436-1.434-1.436h-9.744
		c-0.792,0-1.434,0.642-1.434,1.436v13.084H39.157V50.503c0.025,0,0.051,0,0.076,0c1.565,0,2.977-0.67,3.963-1.738
		c0.986,1.068,2.398,1.738,3.964,1.738c1.543,0,2.937-0.651,3.922-1.694c0.989,1.096,2.417,1.784,4.005,1.784
		c1.564,0,2.978-0.669,3.963-1.737c0.145,0.156,0.316,0.284,0.478,0.423c0.113,0.097,0.213,0.209,0.335,0.295
		c0.188,0.139,0.399,0.24,0.605,0.352c0.116,0.063,0.224,0.145,0.344,0.198c0.219,0.098,0.456,0.16,0.691,0.228
		c0.123,0.036,0.239,0.093,0.369,0.12c0.368,0.08,0.748,0.122,1.14,0.122c1.585,0,3.011-0.685,3.997-1.793
		c0.247,0.262,0.52,0.499,0.814,0.709c0.801,0.573,1.773,0.911,2.807,0.961c0.104,0.006,0.203,0.033,0.311,0.033
		c0.012,0,0.022-0.004,0.034-0.005c0.014,0,0.026,0.005,0.041,0.005V69.428z"/>
</g>
</svg>
