<?xml version="1.0" encoding="utf-8"?>
<!-- Generator: Adobe Illustrator 16.0.0, SVG Export Plug-In . SVG Version: 6.00 Build 0)  -->
<!DOCTYPE svg PUBLIC "-//W3C//DTD SVG 1.1//EN" "http://www.w3.org/Graphics/SVG/1.1/DTD/svg11.dtd">
<svg version="1.1" id="Layer_1" xmlns="http://www.w3.org/2000/svg" xmlns:xlink="http://www.w3.org/1999/xlink" x="0px" y="0px"
	 width="100px" height="100px" viewBox="0 0 100 100" enable-background="new 0 0 100 100" xml:space="preserve">
<g>
	<path d="M57.275,25.145v23.181h23.18V25.145H57.275z M74.359,38.673H63.725c-1.295,0-2.345-1.05-2.345-2.345
		s1.05-2.346,2.345-2.346h10.635c1.295,0,2.346,1.051,2.346,2.346S75.654,38.673,74.359,38.673z"/>
	<path d="M29.407,48.325h23.179V25.145H29.407V48.325z M35.68,33.982h2.972v-2.971c0-1.295,1.049-2.345,2.345-2.345
		c1.297,0,2.346,1.05,2.346,2.345v2.971h2.973c1.295,0,2.345,1.051,2.345,2.346s-1.05,2.345-2.345,2.345h-2.973v2.971
		c0,1.295-1.049,2.346-2.346,2.346c-1.296,0-2.345-1.051-2.345-2.346v-2.971H35.68c-1.295,0-2.346-1.05-2.346-2.345
		S34.385,33.982,35.68,33.982z"/>
	<path d="M29.407,76.193h23.179V53.015H29.407V76.193z M35.58,62.504c-0.916-0.916-0.916-2.4,0-3.316s2.4-0.916,3.316,0l2.1,2.101
		l2.103-2.103c0.913-0.916,2.4-0.916,3.316,0s0.916,2.4,0,3.316l-2.103,2.103l2.101,2.101c0.917,0.916,0.917,2.4,0,3.316
		c-0.458,0.458-1.058,0.687-1.657,0.687c-0.601,0-1.201-0.229-1.658-0.687l-2.102-2.102l-2.102,2.103
		c-0.457,0.458-1.057,0.688-1.658,0.688c-0.599,0-1.2-0.229-1.658-0.688c-0.916-0.916-0.916-2.399,0-3.315l2.103-2.103L35.58,62.504
		z"/>
	<path d="M57.275,76.193h23.18V53.015h-23.18V76.193z M63.725,58.889h10.635c1.295,0,2.346,1.05,2.346,2.345
		s-1.051,2.345-2.346,2.345H63.725c-1.295,0-2.345-1.05-2.345-2.345S62.43,58.889,63.725,58.889z M63.725,65.632h10.635
		c1.295,0,2.346,1.05,2.346,2.345s-1.051,2.346-2.346,2.346H63.725c-1.295,0-2.345-1.051-2.345-2.346S62.43,65.632,63.725,65.632z"
		/>
</g>
</svg>
