<?xml version="1.0" encoding="utf-8"?>
<!-- Generator: Adobe Illustrator 16.0.0, SVG Export Plug-In . SVG Version: 6.00 Build 0)  -->
<!DOCTYPE svg PUBLIC "-//W3C//DTD SVG 1.1//EN" "http://www.w3.org/Graphics/SVG/1.1/DTD/svg11.dtd">
<svg version="1.1" id="Layer_1" xmlns="http://www.w3.org/2000/svg" xmlns:xlink="http://www.w3.org/1999/xlink" x="0px" y="0px"
	 width="100px" height="100px" viewBox="0 0 100 100" enable-background="new 0 0 100 100" xml:space="preserve">
<g>
	<path d="M68.834,73.693H40.413c-1.187,0-2.149-0.963-2.149-2.15V46.464c-0.647,0.097-1.33-0.109-1.83-0.608l-7.091-7.093
		c-0.84-0.839-0.84-2.2,0-3.04l9.273-9.275c0.402-0.404,0.95-0.631,1.521-0.631h7.092c1.188,0,2.151,0.964,2.151,2.15v1.021
		c0.643,1.505,2.134,2.715,3.997,3.233h4.126c1.861-0.519,3.354-1.729,3.996-3.233v-1.021c0-1.187,0.964-2.15,2.151-2.15h7.092
		c0.57,0,1.117,0.227,1.521,0.631l9.273,9.275c0.841,0.84,0.841,2.201,0,3.04l-7.093,7.093c-0.84,0.841-2.201,0.841-3.04,0
		l-0.419-0.418v26.105C70.985,72.73,70.021,73.693,68.834,73.693z"/>
</g>
</svg>
