<?xml version="1.0" encoding="utf-8"?>
<!-- Generator: Adobe Illustrator 16.0.0, SVG Export Plug-In . SVG Version: 6.00 Build 0)  -->
<!DOCTYPE svg PUBLIC "-//W3C//DTD SVG 1.1//EN" "http://www.w3.org/Graphics/SVG/1.1/DTD/svg11.dtd">
<svg version="1.1" id="Layer_1" xmlns="http://www.w3.org/2000/svg" xmlns:xlink="http://www.w3.org/1999/xlink" x="0px" y="0px"
	 width="100px" height="100px" viewBox="0 0 100 100" enable-background="new 0 0 100 100" xml:space="preserve">
<g>
	<g>
		<path d="M57.735,38.846H23.198c-1.01,0-1.828,0.82-1.828,1.83v34.537c0,1.009,0.818,1.828,1.828,1.828h34.537
			c1.011,0,1.828-0.819,1.828-1.828V40.675C59.563,39.666,58.746,38.846,57.735,38.846z M55.908,42.503v4.685H25.027v-4.685H55.908z
			"/>
		<rect x="26.12" y="43.746" width="2.741" height="2.743"/>
		<rect x="30.233" y="43.746" width="2.741" height="2.743"/>
		<rect x="34.348" y="43.746" width="2.742" height="2.743"/>
	</g>
	<g>
		<path d="M74.04,23.278H39.504c-1.011,0-1.83,0.819-1.83,1.829v12.369h3.657h20.215v20.341v3.656H74.04
			c1.012,0,1.829-0.818,1.829-1.827V25.106C75.869,24.097,75.052,23.278,74.04,23.278z M72.211,31.62h-30.88v-4.685h30.88V31.62z"/>
		<rect x="42.423" y="28.177" width="2.743" height="2.744"/>
		<rect x="46.535" y="28.177" width="2.745" height="2.744"/>
		<rect x="50.65" y="28.177" width="2.744" height="2.744"/>
	</g>
</g>
</svg>
