<?xml version="1.0" encoding="utf-8"?>
<!-- Generator: Adobe Illustrator 16.0.0, SVG Export Plug-In . SVG Version: 6.00 Build 0)  -->
<!DOCTYPE svg PUBLIC "-//W3C//DTD SVG 1.1//EN" "http://www.w3.org/Graphics/SVG/1.1/DTD/svg11.dtd">
<svg version="1.1" id="Layer_1" xmlns="http://www.w3.org/2000/svg" xmlns:xlink="http://www.w3.org/1999/xlink" x="0px" y="0px"
	 width="100px" height="100px" viewBox="0 0 100 100" enable-background="new 0 0 100 100" xml:space="preserve">
<path d="M55.196,38.175c-9.793,0-19.706,3.677-19.706,10.705v6.126c-0.397-0.137-0.819-0.209-1.251-0.209
	c-1.016,0-1.973,0.396-2.691,1.115c-0.719,0.719-1.115,1.676-1.115,2.691c0,1.017,0.396,1.974,1.115,2.692l7.75,7.75l8.112-8.111
	c1.485-1.485,1.485-3.899,0-5.384c-0.719-0.719-1.676-1.115-2.692-1.115c-0.567,0-1.115,0.123-1.615,0.357v-5.749
	c0.532-0.812,4.308-3.255,12.092-3.255c7.785,0,11.561,2.443,12.093,3.255v14.619c0,2.099,1.708,3.807,3.807,3.807
	c2.099,0,3.807-1.708,3.807-3.807V48.88C74.903,41.852,64.99,38.175,55.196,38.175z M73.264,63.664c0,1.196-0.971,2.168-2.168,2.168
	c-1.197,0-2.168-0.972-2.168-2.168V48.88c0-1.604-4.847-4.73-13.731-4.73c-8.884,0-13.731,3.126-13.731,4.73v9.55l1.721-1.72
	c0.847-0.848,2.219-0.848,3.066,0c0.847,0.847,0.847,2.219,0,3.065l-6.953,6.953l-1.526-1.525c-0.005-0.006-0.01-0.011-0.016-0.016
	l-5.05-5.051c-0.847-0.847-0.847-2.219,0-3.065c0.847-0.848,2.219-0.848,3.066,0l1.356,1.356V48.88
	c0-5.889,9.309-9.066,18.067-9.066c8.759,0,18.067,3.178,18.067,9.066V63.664z"/>
</svg>
