<?xml version="1.0" encoding="utf-8"?>
<!-- Generator: Adobe Illustrator 16.0.0, SVG Export Plug-In . SVG Version: 6.00 Build 0)  -->
<!DOCTYPE svg PUBLIC "-//W3C//DTD SVG 1.1//EN" "http://www.w3.org/Graphics/SVG/1.1/DTD/svg11.dtd">
<svg version="1.1" id="Layer_1" xmlns="http://www.w3.org/2000/svg" xmlns:xlink="http://www.w3.org/1999/xlink" x="0px" y="0px"
	 width="100px" height="100px" viewBox="0 0 100 100" enable-background="new 0 0 100 100" xml:space="preserve">
<path d="M78.36,25.052H67.416V22.11c0-2.98-2.424-5.404-5.404-5.404H50.506c-2.98,0-5.405,2.424-5.405,5.404v2.941H34.158
	c-2.98,0-5.405,2.424-5.405,5.402v5.754c0,1.551,1.261,2.811,2.813,2.811h3.818v32.896c0,2.979,2.424,5.404,5.403,5.404h31.627
	c2.98,0,5.405-2.426,5.405-5.404V39.019h3.133c1.551,0,2.812-1.26,2.812-2.811v-5.754C83.764,27.476,81.34,25.052,78.36,25.052z
	 M50.723,22.329h11.07v2.723h-11.07V22.329z M50.893,66.522c0,1.494-1.217,2.711-2.713,2.711c-1.497,0-2.715-1.217-2.715-2.711
	V43.821c0-1.496,1.218-2.715,2.715-2.715c1.496,0,2.713,1.219,2.713,2.715V66.522z M58.972,66.522c0,1.494-1.217,2.711-2.713,2.711
	c-1.496,0-2.713-1.217-2.713-2.711V43.821c0-1.496,1.217-2.715,2.713-2.715c1.497,0,2.713,1.219,2.713,2.715V66.522z M67.053,66.522
	c0,1.494-1.218,2.711-2.714,2.711s-2.711-1.217-2.711-2.711V43.821c0-1.496,1.215-2.715,2.711-2.715s2.714,1.219,2.714,2.715V66.522
	z"/>
</svg>
