<?xml version="1.0" encoding="utf-8"?>
<!-- Generator: Adobe Illustrator 16.0.0, SVG Export Plug-In . SVG Version: 6.00 Build 0)  -->
<!DOCTYPE svg PUBLIC "-//W3C//DTD SVG 1.1//EN" "http://www.w3.org/Graphics/SVG/1.1/DTD/svg11.dtd">
<svg version="1.1" id="Layer_1" xmlns="http://www.w3.org/2000/svg" xmlns:xlink="http://www.w3.org/1999/xlink" x="0px" y="0px"
	 width="100px" height="100px" viewBox="0 0 100 100" enable-background="new 0 0 100 100" xml:space="preserve">
<g>
	<path d="M67.08,72.416H53.248c-0.376,0-0.748-0.099-1.074-0.287c-0.934-0.538-1.514-1.532-1.514-2.594
		c0-0.576,0.178-1.149,0.516-1.655c0.112-0.167,0.245-0.317,0.398-0.448c0.009-0.008,0.129-0.105,0.137-0.114
		c0.62-0.618,0.91-1.327,0.91-2.073c0-1.581-1.286-2.868-2.868-2.868c-1.581,0-2.867,1.287-2.867,2.868
		c0,0.742,0.288,1.45,0.813,1.992c0.055,0.053,0.109,0.094,0.164,0.137c0.005,0.004,0.111,0.091,0.116,0.097
		c0.21,0.17,0.383,0.381,0.513,0.618c0.256,0.464,0.386,0.95,0.386,1.446c0,1.057-0.577,2.047-1.505,2.588
		c-0.33,0.191-0.702,0.292-1.083,0.292H32.428c-1.188,0-2.151-0.964-2.151-2.15V35.611c0-1.187,0.964-2.15,2.151-2.15h10.756
		c-0.393-0.895-0.6-1.868-0.6-2.868c0-3.954,3.216-7.17,7.169-7.17s7.17,3.216,7.17,7.17c0,1-0.206,1.973-0.6,2.868H67.08
		c1.188,0,2.151,0.964,2.151,2.15v10.757c0.896-0.395,1.867-0.601,2.868-0.601c3.952,0,7.169,3.217,7.169,7.169
		c0,3.954-3.217,7.17-7.169,7.17c-1.002,0-1.974-0.207-2.868-0.6v10.758C69.231,71.452,68.269,72.416,67.08,72.416z"/>
</g>
</svg>
