<?xml version="1.0" encoding="utf-8"?>
<!-- Generator: Adobe Illustrator 17.0.0, SVG Export Plug-In . SVG Version: 6.00 Build 0)  -->
<!DOCTYPE svg PUBLIC "-//W3C//DTD SVG 1.1//EN" "http://www.w3.org/Graphics/SVG/1.1/DTD/svg11.dtd">
<svg version="1.1" id="Layer_1" xmlns="http://www.w3.org/2000/svg" xmlns:xlink="http://www.w3.org/1999/xlink" x="0px" y="0px"
	 width="100px" height="100px" viewBox="0 0 100 100" enable-background="new 0 0 100 100" xml:space="preserve">
<g>
	<path d="M54.308,48.437c-0.366,0-0.744-0.042-1.125-0.123l-1.315-0.282l0.65-1.18c0.021-0.039,2.143-3.951,0.676-6.787
		c-0.765-1.479-2.417-2.466-4.92-2.942c0.101,2.259-0.33,6.831-4.736,10.532c-2.388,2.006-3.455,5.316-2.785,8.638
		c0.502,2.492,1.863,4.484,3.748,5.571c0.037-2.229,0.606-6.287,3.781-10.038l1.344-1.588l0.4,2.043
		c0.6,3.061,2.016,7.566,3.445,8.867c1.36-0.722,5.184-3.043,6.144-6.804c0.592-2.317,0.002-4.841-1.752-7.517
		C57.147,47.604,55.988,48.437,54.308,48.437z"/>
	<path d="M49.192,19c-17.093,0-31,13.907-31,31c0,17.094,13.907,31,31,31s31-13.906,31-31C80.192,32.907,66.285,19,49.192,19z
		 M61.549,54.853c-1.417,5.518-7.495,8.253-7.753,8.366l-0.431,0.189l-0.42-0.21c-2.221-1.111-3.673-5.551-4.385-8.357
		c-2.592,4.225-2.005,8.381-1.998,8.429l0.239,1.577l-1.524-0.473c-3.297-1.022-5.722-3.896-6.486-7.686
		c-0.814-4.04,0.511-8.089,3.459-10.565c5.031-4.226,3.958-9.742,3.91-9.975l-0.28-1.352l1.371,0.152
		c3.916,0.444,6.515,1.859,7.724,4.207c1.311,2.547,0.591,5.492-0.057,7.211c1.391-0.323,2.027-1.668,2.034-1.684l0.695-1.506
		l1.007,1.317C61.414,48.102,62.388,51.587,61.549,54.853z"/>
</g>
</svg>
