<?xml version="1.0" encoding="utf-8"?>
<!-- Generator: Adobe Illustrator 17.0.0, SVG Export Plug-In . SVG Version: 6.00 Build 0)  -->
<!DOCTYPE svg PUBLIC "-//W3C//DTD SVG 1.1//EN" "http://www.w3.org/Graphics/SVG/1.1/DTD/svg11.dtd">
<svg version="1.1" id="Layer_1" xmlns="http://www.w3.org/2000/svg" xmlns:xlink="http://www.w3.org/1999/xlink" x="0px" y="0px"
	 width="100px" height="100px" viewBox="0 0 100 100" enable-background="new 0 0 100 100" xml:space="preserve">
<polygon points="31.69,86.083 31.69,13.917 68.02,13.917 68.02,19.5 44.5,19.5 44.5,21.5 68.02,21.5 68.02,23.5 50,23.5 50,25.5 
	68.02,25.5 68.02,27.5 50,27.5 50,29.5 68.02,29.5 68.02,31.5 50,31.5 50,33.5 68.02,33.5 68.02,35.5 50,35.5 50,37.5 68.02,37.5 
	68.02,39.5 44.5,39.5 44.5,41.5 68.02,41.5 68.02,43.5 50,43.5 50,45.5 68.02,45.5 68.02,47.5 50,47.5 50,49.5 68.02,49.5 
	68.02,51.5 50,51.5 50,53.5 68.02,53.5 68.02,55.5 50,55.5 50,57.5 68.02,57.5 68.02,59.5 44.5,59.5 44.5,61.5 68.02,61.5 
	68.02,63.5 50,63.5 50,65.5 68.02,65.5 68.02,67.5 50,67.5 50,69.5 68.02,69.5 68.02,71.5 50,71.5 50,73.5 68.02,73.5 68.02,75.5 
	50,75.5 50,77.5 68.02,77.5 68.02,79.5 44.5,79.5 44.5,81.5 68.02,81.5 68.02,86.083 "/>
</svg>
