<?xml version="1.0" encoding="utf-8"?>
<!-- Generator: Adobe Illustrator 17.0.0, SVG Export Plug-In . SVG Version: 6.00 Build 0)  -->
<!DOCTYPE svg PUBLIC "-//W3C//DTD SVG 1.1//EN" "http://www.w3.org/Graphics/SVG/1.1/DTD/svg11.dtd">
<svg version="1.1" id="Layer_1" xmlns="http://www.w3.org/2000/svg" xmlns:xlink="http://www.w3.org/1999/xlink" x="0px" y="0px"
	 width="100px" height="100px" viewBox="0 0 100 100" enable-background="new 0 0 100 100" xml:space="preserve">
<g>
	<path d="M75.082,32.459c-0.631-0.631-1.469-0.978-2.36-0.978H63.6v-4.634c0-1.411-1.147-2.559-2.558-2.559H38.958
		c-1.411,0-2.559,1.148-2.559,2.559v4.634h-9.121c-1.84,0-3.338,1.498-3.338,3.338V72.81c0,1.841,1.498,3.339,3.338,3.339h45.443
		c1.841,0,3.338-1.498,3.338-3.339V34.82C76.06,33.928,75.712,33.089,75.082,32.459z M39.516,27.405h20.968v5.896H39.516V27.405z
		 M61.262,56.244h-8.834v8.835h-4.859v-8.835h-8.833v-4.857h8.833v-8.834h4.859v8.834h8.834V56.244z"/>
</g>
</svg>
