<?xml version="1.0" encoding="utf-8"?>
<!-- Generator: Adobe Illustrator 17.0.0, SVG Export Plug-In . SVG Version: 6.00 Build 0)  -->
<!DOCTYPE svg PUBLIC "-//W3C//DTD SVG 1.1//EN" "http://www.w3.org/Graphics/SVG/1.1/DTD/svg11.dtd">
<svg version="1.1" id="Layer_1" xmlns="http://www.w3.org/2000/svg" xmlns:xlink="http://www.w3.org/1999/xlink" x="0px" y="0px"
	 width="100px" height="100px" viewBox="0 0 100 100" enable-background="new 0 0 100 100" xml:space="preserve">
<path d="M50.861,24.076c-16.569,0-30,13.431-30,30s13.431,30,30,30s30-13.431,30-30S67.43,24.076,50.861,24.076z M61.736,68.502
	c0,5.996-4.879,10.875-10.875,10.875c-5.685,0-10.358-4.387-10.829-9.952h-0.047V35.332c0-4.354,3.542-7.896,7.896-7.896
	s7.896,3.542,7.896,7.896v25.935h-0.035c-0.181,2.745-2.448,4.93-5.239,4.93c-2.908,0-5.274-2.366-5.274-5.274V45.763h2v15.159
	c0,1.806,1.469,3.274,3.274,3.274c1.805,0,3.273-1.469,3.273-3.274v-25.59c0-3.251-2.645-5.896-5.896-5.896
	s-5.896,2.645-5.896,5.896v33.17c0,4.894,3.981,8.875,8.875,8.875c4.894,0,8.875-3.981,8.875-8.875V45.763h2V68.502z"/>
</svg>
