<?xml version="1.0" encoding="utf-8"?>
<!-- Generator: Adobe Illustrator 17.0.0, SVG Export Plug-In . SVG Version: 6.00 Build 0)  -->
<!DOCTYPE svg PUBLIC "-//W3C//DTD SVG 1.1//EN" "http://www.w3.org/Graphics/SVG/1.1/DTD/svg11.dtd">
<svg version="1.1" id="Layer_1" xmlns="http://www.w3.org/2000/svg" xmlns:xlink="http://www.w3.org/1999/xlink" x="0px" y="0px"
	 width="100px" height="100px" viewBox="0 0 100 100" enable-background="new 0 0 100 100" xml:space="preserve">
<g>
	<path d="M47.447,52.431c0.69,0.239,1.427,0.375,2.196,0.375c0.63,0,1.237-0.093,1.816-0.256l-1.877-4.388L47.447,52.431z"/>
	<path d="M56.373,46.076c0-3.711-3.019-6.731-6.73-6.731c-3.711,0-6.731,3.019-6.731,6.731c0,2.316,1.176,4.362,2.962,5.574
		l2.983-5.967c0.019-0.038,0.052-0.062,0.075-0.096c0.035-0.051,0.067-0.102,0.113-0.145c0.046-0.043,0.098-0.072,0.151-0.104
		c0.035-0.021,0.062-0.053,0.101-0.069c0.012-0.005,0.024-0.003,0.036-0.008c0.055-0.021,0.112-0.026,0.171-0.036
		c0.057-0.009,0.112-0.024,0.168-0.022c0.047,0.001,0.091,0.017,0.137,0.026c0.066,0.013,0.131,0.024,0.192,0.052
		c0.011,0.005,0.023,0.004,0.034,0.009c0.038,0.019,0.062,0.052,0.096,0.075c0.051,0.035,0.101,0.067,0.144,0.112
		c0.045,0.047,0.075,0.101,0.108,0.156c0.02,0.034,0.05,0.059,0.066,0.096l2.622,6.128C55.044,50.683,56.373,48.534,56.373,46.076z"
		/>
	<path d="M49.305,24.333c-16.569,0-30,13.431-30,30s13.431,30,30,30s30-13.431,30-30S65.874,24.333,49.305,24.333z M62.594,74.117
		c0.191,0.446-0.015,0.962-0.461,1.152c-0.113,0.049-0.23,0.071-0.346,0.071c-0.34,0-0.664-0.2-0.807-0.532L54.72,60.174
		c-2.303,1.17-4.899,1.844-7.654,1.844c-0.485,0-0.878-0.393-0.878-0.878c0-0.485,0.393-0.878,0.878-0.878
		c2.51,0,4.874-0.621,6.964-1.702l-1.873-4.378c-0.795,0.247-1.639,0.38-2.514,0.38c-1.052,0-2.055-0.201-2.986-0.553L36.235,74.855
		c-0.154,0.308-0.464,0.485-0.786,0.485c-0.132,0-0.266-0.03-0.392-0.093c-0.434-0.217-0.61-0.744-0.393-1.178l10.423-20.846
		c-2.359-1.509-3.931-4.146-3.931-7.148c0-4.383,3.341-8,7.609-8.441V31.59c0-0.485,0.393-0.878,0.878-0.878
		c0.485,0,0.878,0.393,0.878,0.878v6.045c4.268,0.441,7.608,4.058,7.608,8.441c0,3.182-1.763,5.958-4.361,7.411l1.789,4.181
		c4.055-2.737,6.727-7.373,6.727-12.622c0-0.485,0.393-0.878,0.878-0.878s0.878,0.393,0.878,0.878
		c0,5.973-3.109,11.225-7.786,14.251L62.594,74.117z"/>
</g>
</svg>
