<?xml version="1.0" encoding="utf-8"?>
<!-- Generator: Adobe Illustrator 16.0.0, SVG Export Plug-In . SVG Version: 6.00 Build 0)  -->
<!DOCTYPE svg PUBLIC "-//W3C//DTD SVG 1.1//EN" "http://www.w3.org/Graphics/SVG/1.1/DTD/svg11.dtd">
<svg version="1.1" id="Layer_1" xmlns="http://www.w3.org/2000/svg" xmlns:xlink="http://www.w3.org/1999/xlink" x="0px" y="0px"
	 width="100px" height="100px" viewBox="0 0 100 100" enable-background="new 0 0 100 100" xml:space="preserve">
<g>
	<path d="M25.492,38.525h50.883v-8.472H25.492V38.525z M27.492,32.054h46.883v4.472H27.492V32.054z"/>
	<path d="M21.492,26.054v14.555v1.917v12.719v1.836v14.635h58.883V57.08v-1.836V42.525v-1.917V26.054H21.492z M78.375,69.715H23.492
		V57.244h54.883V69.715z M78.375,42.609V55.08H23.492V42.609H78.375z M23.492,28.054h54.883v12.472H23.492V28.054z"/>
	<path d="M76.375,44.609H25.492v8.471h50.883V44.609z M74.375,51.08H27.492v-4.471h46.883V51.08z"/>
	<path d="M76.375,59.244H25.492v8.471h50.883V59.244z M74.375,65.715H27.492v-4.471h46.883V65.715z"/>
</g>
</svg>
