<?xml version="1.0" encoding="utf-8"?>
<!-- Generator: Adobe Illustrator 17.0.0, SVG Export Plug-In . SVG Version: 6.00 Build 0)  -->
<!DOCTYPE svg PUBLIC "-//W3C//DTD SVG 1.1//EN" "http://www.w3.org/Graphics/SVG/1.1/DTD/svg11.dtd">
<svg version="1.1" id="Layer_1" xmlns="http://www.w3.org/2000/svg" xmlns:xlink="http://www.w3.org/1999/xlink" x="0px" y="0px"
	 width="100px" height="100px" viewBox="0 0 100 100" enable-background="new 0 0 100 100" xml:space="preserve">
<g>
	<polygon points="38.245,61.212 50.402,54.692 44.764,49.055 	"/>
	<path d="M48.29,20.167c-17.094,0-31,13.906-31,31s13.906,31,31,31s31-13.906,31-31S65.384,20.167,48.29,20.167z M61.663,39.147
		L52.942,55.41c-0.01,0.018-0.029,0.028-0.04,0.045c-0.041,0.066-0.096,0.116-0.152,0.171c-0.055,0.055-0.105,0.111-0.171,0.152
		c-0.017,0.011-0.027,0.03-0.045,0.04L36.27,64.54c-0.149,0.08-0.312,0.119-0.473,0.119c-0.259,0-0.515-0.101-0.707-0.293
		c-0.312-0.312-0.383-0.791-0.174-1.18l8.722-16.264c0.01-0.018,0.029-0.028,0.04-0.045c0.041-0.066,0.096-0.116,0.152-0.171
		c0.055-0.055,0.105-0.111,0.171-0.152c0.017-0.011,0.027-0.03,0.045-0.04l16.263-8.721c0.39-0.209,0.867-0.139,1.18,0.174
		C61.801,38.279,61.872,38.759,61.663,39.147z"/>
	<polygon points="51.816,53.278 58.336,41.121 46.179,47.641 	"/>
</g>
</svg>
