<?xml version="1.0" encoding="utf-8"?>
<!-- Generator: Adobe Illustrator 16.0.0, SVG Export Plug-In . SVG Version: 6.00 Build 0)  -->
<!DOCTYPE svg PUBLIC "-//W3C//DTD SVG 1.1//EN" "http://www.w3.org/Graphics/SVG/1.1/DTD/svg11.dtd">
<svg version="1.1" id="Layer_1" xmlns="http://www.w3.org/2000/svg" xmlns:xlink="http://www.w3.org/1999/xlink" x="0px" y="0px"
	 width="100px" height="100px" viewBox="0 0 100 100" enable-background="new 0 0 100 100" xml:space="preserve">
<path d="M52.42,19.763c-16.867,0-30.588,13.722-30.588,30.588S35.553,80.938,52.42,80.938c16.865,0,30.587-13.722,30.587-30.588
	S69.285,19.763,52.42,19.763z M52.42,21.763c10.41,0,19.535,5.596,24.534,13.935c-3.417,0.64-4.144,1.282-4.19,2.185
	c-0.028,0.542-0.015,1.201-0.001,1.838c0.013,0.603,0.027,1.205,0.001,1.688c-0.024,0.47,0.096,1.006,0.224,1.573
	c0.09,0.399,0.251,1.112,0.213,1.412c-0.14,0.071-0.28,0.148-0.422,0.226c-0.373,0.206-0.76,0.418-1.02,0.418
	c-0.064,0-0.26,0-0.596-0.421c-0.903-1.134-1.716-3.022-1.976-3.655c0.139-1.549,0.242-5.436-2.137-5.776
	c-0.896-0.129-1.883-0.069-2.63,0.003c-0.439,0.042-0.865,0.081-1.161,0.042c-0.058-0.116-0.122-0.329-0.193-0.636
	c-0.154-0.668-0.507-1.007-1.047-1.007c-0.957,0-1.012,0.659-1.144,2.25c-0.188,2.244-0.611,3.202-0.831,3.482
	c-0.387-0.121-0.831-0.2-1.336-0.289c-0.996-0.177-2.125-0.376-3.139-0.956c-0.486-0.278-0.909-1.127-1.282-1.876
	c-0.624-1.251-1.33-2.67-2.857-2.67c-0.217,0-0.44,0.033-0.663,0.097c-0.473,0.136-0.936,0.205-1.377,0.205
	c-0.733,0-1.168-0.192-1.169-0.192l-0.873-0.439l-0.459,0.862c-0.051,0.095-1.224,2.354-0.032,5.036
	c1.181,2.662,5.019,5.85,8.386,6.132c0.541,0.045,0.93,0.106,1.207,0.167c-0.299,0.146-0.732,0.331-1.155,0.511
	c-2.004,0.852-4.497,1.911-5.181,3.621c-0.229,0.572-0.392,0.815-0.549,1.051c-0.422,0.633-0.678,1.099-1.021,3.323
	c-0.212,1.378-0.756,3.217-1.236,4.84c-0.877,2.962-1.281,4.424-0.899,5.285c0.017,0.045,0.002,0.251-0.188,0.524
	c-0.283,0.406-0.884,0.84-1.723,0.84c-0.927,0-1.644,0.253-2.22,0.456c-0.315,0.111-0.613,0.217-0.795,0.217
	c-0.057,0-0.192,0-0.469-0.324c-0.553-0.645-0.867-2.438-1.144-4.021c-0.254-1.448-0.516-2.946-1.005-4.045
	c-0.876-1.968-1.881-3.065-3.045-4.337c-0.273-0.299-0.559-0.61-0.858-0.951c-1.466-1.669-3.249-4.597-3.25-4.597c0,0,0,0,0,0
	c-0.241-0.452-2.43-4.445-4.965-5.49c-0.613-0.252-1.146-0.406-1.619-0.466C28.761,30.217,39.622,21.763,52.42,21.763z"/>
</svg>
