<?xml version="1.0" encoding="utf-8"?>
<!-- Generator: Adobe Illustrator 17.0.0, SVG Export Plug-In . SVG Version: 6.00 Build 0)  -->
<!DOCTYPE svg PUBLIC "-//W3C//DTD SVG 1.1//EN" "http://www.w3.org/Graphics/SVG/1.1/DTD/svg11.dtd">
<svg version="1.1" id="Layer_1" xmlns="http://www.w3.org/2000/svg" xmlns:xlink="http://www.w3.org/1999/xlink" x="0px" y="0px"
	 width="100px" height="100px" viewBox="0 0 100 100" enable-background="new 0 0 100 100" xml:space="preserve">
<path d="M88.167,15.579h-2h-8V26.5H27.15l-0.254-0.254L26.642,26.5h-4.475v-10h-8h-2h-8v21.333h8h2h8V28.5h4.156L43,45.178v28.697
	H30v18.5h7V82.75h26.375v9.625h7v-18.5h-12.75V45.263L74.388,28.5h3.779v8.413h8h2h8V15.579H88.167z M29.15,28.5h15.784
	c-2.5,1.735-4.143,4.623-4.143,7.89c0,2.065,0.668,3.968,1.784,5.534L29.15,28.5z M58.432,41.627
	c0.988-1.506,1.565-3.304,1.565-5.237c0-3.267-1.643-6.155-4.143-7.89H71.56L58.432,41.627z"/>
</svg>
