<?xml version="1.0" encoding="utf-8"?>
<!-- Generator: Adobe Illustrator 17.0.0, SVG Export Plug-In . SVG Version: 6.00 Build 0)  -->
<!DOCTYPE svg PUBLIC "-//W3C//DTD SVG 1.1//EN" "http://www.w3.org/Graphics/SVG/1.1/DTD/svg11.dtd">
<svg version="1.1" id="Layer_1" xmlns="http://www.w3.org/2000/svg" xmlns:xlink="http://www.w3.org/1999/xlink" x="0px" y="0px"
	 width="100px" height="100px" viewBox="0 0 100 100" enable-background="new 0 0 100 100" xml:space="preserve">
<g>
	<g>
		<path d="M32.379,72.555c-0.838,0-1.625-0.326-2.216-0.919l-3.991-3.989c-0.592-0.595-0.918-1.381-0.918-2.217
			c0-0.825,0.335-1.633,0.918-2.216l6.436-6.435c-4.299-7.961-2.876-17.853,3.58-24.311c3.894-3.894,9.07-6.039,14.578-6.039
			c5.506,0,10.683,2.145,14.576,6.039c3.894,3.892,6.037,9.068,6.037,14.575c0,5.505-2.144,10.682-6.036,14.576
			c-3.887,3.887-9.055,6.027-14.551,6.027c-3.421,0-6.778-0.844-9.759-2.448l-6.438,6.438
			C34.004,72.229,33.217,72.555,32.379,72.555z M50.766,28.43c-4.973,0-9.648,1.937-13.164,5.453
			c-5.996,5.997-7.184,15.273-2.889,22.559l0.394,0.667l-7.521,7.521c-0.211,0.211-0.332,0.503-0.332,0.801
			c0,0.303,0.118,0.588,0.333,0.804l3.991,3.989c0.428,0.431,1.176,0.429,1.601,0.001l7.523-7.521l0.667,0.392
			c2.838,1.671,6.096,2.554,9.423,2.554c4.962,0,9.628-1.933,13.137-5.441c3.515-3.517,5.45-8.191,5.45-13.162
			c0-4.973-1.936-9.646-5.451-13.161C60.412,30.367,55.737,28.43,50.766,28.43z M53.965,63.067l-19.24-19.24l0.128-0.543
			c0.696-2.95,2.201-5.646,4.352-7.798c3.088-3.088,7.194-4.789,11.561-4.789c4.364,0,8.47,1.701,11.56,4.789
			c3.088,3.087,4.789,7.192,4.789,11.56s-1.701,8.473-4.789,11.561c-2.149,2.148-4.854,3.647-7.819,4.336L53.965,63.067z"/>
	</g>
	<g>
		<path d="M68.857,72.556c-3.248,0-5.89-2.642-5.89-5.889s2.642-5.889,5.89-5.889c3.247,0,5.889,2.642,5.889,5.889
			S72.104,72.556,68.857,72.556z M68.857,62.778c-2.145,0-3.89,1.744-3.89,3.889s1.745,3.889,3.89,3.889s3.889-1.744,3.889-3.889
			S71.002,62.778,68.857,62.778z"/>
	</g>
</g>
</svg>
