<?xml version="1.0" encoding="utf-8"?>
<!-- Generator: Adobe Illustrator 17.0.0, SVG Export Plug-In . SVG Version: 6.00 Build 0)  -->
<!DOCTYPE svg PUBLIC "-//W3C//DTD SVG 1.1//EN" "http://www.w3.org/Graphics/SVG/1.1/DTD/svg11.dtd">
<svg version="1.1" id="Layer_1" xmlns="http://www.w3.org/2000/svg" xmlns:xlink="http://www.w3.org/1999/xlink" x="0px" y="0px"
	 width="100px" height="100px" viewBox="0 0 100 100" enable-background="new 0 0 100 100" xml:space="preserve">
<g>
	<path d="M77.183,39.891c-3.947,0-7.039,4.238-7.039,9.648c0,5.409,3.092,9.646,7.039,9.646s7.04-4.237,7.04-9.646
		C84.223,44.128,81.13,39.891,77.183,39.891z M77.183,57.185c-2.778,0-5.039-3.43-5.039-7.646c0-4.217,2.261-7.648,5.039-7.648
		c2.779,0,5.04,3.431,5.04,7.648C82.223,53.755,79.962,57.185,77.183,57.185z"/>
	<path d="M77.183,35.891c-2.225,0-4.271,0.784-5.987,2.132c0.608-1.78,0.948-3.738,0.948-5.794c0-8.134-5.274-14.751-11.757-14.751
		c-5.062,0-9.373,4.042-11.026,9.683c-1.652-5.641-5.964-9.683-11.026-9.683c-6.482,0-11.756,6.618-11.756,14.751
		c0,1.665,0.231,3.261,0.639,4.756c-1.342-0.703-2.827-1.094-4.4-1.094c-6.191,0-11.04,5.995-11.04,13.648
		c0,7.652,4.849,13.646,11.04,13.646c1.461,0,2.842-0.344,4.107-0.954c-1.599,3.128-2.4,6.502-2.252,9.697
		c0.205,4.449,2.134,8.065,5.428,10.179c1.48,0.957,3.1,1.441,4.812,1.441c3.168,0,5.753-1.591,8.489-3.275
		c1.384-0.852,2.812-1.73,4.217-2.345c0.228-0.024,0.723-0.064,1.533-0.064c1.031,0,1.757,0.064,2.077,0.104
		c1.41,0.658,2.752,1.542,4.053,2.399c2.546,1.675,5.178,3.407,8.409,3.407c1.531,0,3.004-0.396,4.373-1.177
		c6.4-3.637,7.904-13.127,3.456-21.304c1.648,1.197,3.576,1.891,5.664,1.891c6.19,0,11.04-5.994,11.04-13.646
		C88.223,41.886,83.373,35.891,77.183,35.891z M60.387,19.477c5.38,0,9.757,5.72,9.757,12.751S65.767,44.98,60.387,44.98
		s-9.756-5.721-9.756-12.752S55.007,19.477,60.387,19.477z M60.387,46.98c2.41,0,4.652-0.917,6.519-2.485
		c-0.487,1.555-0.762,3.25-0.762,5.043c0,1.775,0.271,3.454,0.748,4.996c-3.589-3.789-9.296-7.001-17.084-7.111l-0.39-0.002
		c-7.014,0-12.333,2.521-15.965,5.805c0.257-1.171,0.404-2.403,0.404-3.688c0-1.376-0.162-2.695-0.455-3.938
		c1.503,0.876,3.17,1.38,4.933,1.38c5.062,0,9.373-4.042,11.026-9.684C51.013,42.938,55.325,46.98,60.387,46.98z M38.335,19.477
		c5.379,0,9.756,5.72,9.756,12.751S43.714,44.98,38.335,44.98c-5.38,0-9.756-5.721-9.756-12.752S32.955,19.477,38.335,19.477z
		 M22.817,61.185c-5.069,0-9.04-5.115-9.04-11.646c0-6.532,3.971-11.648,9.04-11.648s9.04,5.116,9.04,11.648
		C31.857,56.069,27.886,61.185,22.817,61.185z M67.075,80.857c-1.065,0.607-2.204,0.916-3.385,0.916
		c-2.632,0-4.904-1.495-7.31-3.078c-1.451-0.956-2.929-1.929-4.57-2.661c-0.237-0.051-1.205-0.171-2.659-0.171
		c-1.319,0-1.978,0.098-2.083,0.124c-1.62,0.677-3.194,1.646-4.717,2.582c-2.606,1.604-4.839,2.979-7.44,2.979
		c-1.321,0-2.575-0.377-3.728-1.121c-2.737-1.757-4.34-4.808-4.515-8.591c-0.16-3.45,0.915-7.16,3.026-10.445
		c0.22-0.341,0.462-0.639,0.713-0.938c0.099-0.118,0.281-0.337,0.325-0.416c2.495-5.127,8.716-10.615,18.684-10.615l0.377,0.002
		c10.123,0.143,16.394,5.936,18.688,10.854c0.057,0.123,0.222,0.347,0.367,0.544c0.292,0.396,0.53,0.727,0.746,1.105
		C73.74,69.222,72.608,77.713,67.075,80.857z M77.183,61.185c-5.068,0-9.039-5.115-9.039-11.646c0-6.532,3.971-11.648,9.039-11.648
		c5.069,0,9.04,5.116,9.04,11.648C86.223,56.069,82.252,61.185,77.183,61.185z"/>
	<path d="M38.335,42.98c4.276,0,7.756-4.823,7.756-10.752c0-5.928-3.479-10.751-7.756-10.751c-4.277,0-7.756,4.823-7.756,10.751
		C30.579,38.157,34.058,42.98,38.335,42.98z M38.335,23.477c3.12,0,5.756,4.008,5.756,8.751c0,4.744-2.636,8.752-5.756,8.752
		s-5.756-4.008-5.756-8.752C32.579,27.485,35.215,23.477,38.335,23.477z"/>
	<path d="M60.387,42.98c4.277,0,7.757-4.823,7.757-10.752c0-5.928-3.479-10.751-7.757-10.751c-4.276,0-7.756,4.823-7.756,10.751
		C52.631,38.157,56.11,42.98,60.387,42.98z M60.387,23.477c3.12,0,5.757,4.008,5.757,8.751c0,4.744-2.637,8.752-5.757,8.752
		s-5.756-4.008-5.756-8.752C54.631,27.485,57.267,23.477,60.387,23.477z"/>
	<path d="M22.817,39.891c-3.948,0-7.04,4.238-7.04,9.648c0,5.409,3.092,9.646,7.04,9.646s7.04-4.237,7.04-9.646
		C29.857,44.128,26.765,39.891,22.817,39.891z M22.817,57.185c-2.779,0-5.04-3.43-5.04-7.646c0-4.217,2.261-7.648,5.04-7.648
		s5.04,3.431,5.04,7.648C27.857,53.755,25.596,57.185,22.817,57.185z"/>
	<path d="M67.265,62.041c-0.246-0.334-0.456-0.618-0.596-0.923c-2.049-4.389-7.704-9.565-16.895-9.695l-0.363-0.002
		c-9.039,0-14.649,4.907-16.883,9.5c-0.13,0.263-0.324,0.503-0.584,0.813c-0.197,0.236-0.396,0.476-0.565,0.738
		c-1.889,2.938-2.852,6.231-2.71,9.271c0.144,3.117,1.421,5.604,3.599,7.001c0.826,0.533,1.715,0.803,2.646,0.803
		c2.035,0,4.044-1.237,6.372-2.669c1.609-0.99,3.253-2.002,5.114-2.772c0.478-0.16,1.506-0.243,2.754-0.243
		c1.461,0,2.861,0.119,3.33,0.284c1.892,0.831,3.46,1.863,4.977,2.862c2.17,1.429,4.199,2.764,6.232,2.764
		c0.829,0,1.635-0.22,2.396-0.653c4.576-2.602,5.371-9.869,1.773-16.203C67.697,62.633,67.494,62.353,67.265,62.041z M65.096,77.383
		c-0.462,0.263-0.921,0.391-1.405,0.391c-1.436,0-3.231-1.183-5.132-2.434c-1.511-0.995-3.223-2.123-5.272-3.023l-0.141-0.056
		c-1.048-0.369-3.322-0.397-3.994-0.397c-2.354,0-3.133,0.261-3.389,0.347l-0.13,0.049c-2.006,0.83-3.727,1.889-5.402,2.92
		c-2.066,1.271-3.851,2.369-5.318,2.369c-0.546,0-1.057-0.158-1.565-0.486c-1.616-1.037-2.568-2.958-2.681-5.41
		c-0.122-2.629,0.729-5.505,2.395-8.097c0.124-0.193,0.273-0.365,0.417-0.537c0.327-0.391,0.616-0.752,0.848-1.222
		c1.97-4.049,6.967-8.375,15.074-8.375l0.346,0.002c8.265,0.116,13.306,4.674,15.104,8.528c0.225,0.49,0.517,0.887,0.804,1.276
		c0.179,0.243,0.342,0.459,0.466,0.677C69.121,69.188,68.653,75.36,65.096,77.383z"/>
</g>
</svg>
