<?xml version="1.0" encoding="utf-8"?>
<!-- Generator: Adobe Illustrator 17.0.0, SVG Export Plug-In . SVG Version: 6.00 Build 0)  -->
<!DOCTYPE svg PUBLIC "-//W3C//DTD SVG 1.1//EN" "http://www.w3.org/Graphics/SVG/1.1/DTD/svg11.dtd">
<svg version="1.1" id="Layer_1" xmlns="http://www.w3.org/2000/svg" xmlns:xlink="http://www.w3.org/1999/xlink" x="0px" y="0px"
	 width="100px" height="100px" viewBox="0 0 100 100" enable-background="new 0 0 100 100" xml:space="preserve">
<path d="M58.812,25.188c-8.822,0-16,7.178-16,16c0,4.052,1.526,7.746,4.018,10.568L25.188,73.398l1.414,1.414L48.244,53.17
	c2.822,2.492,6.516,4.018,10.568,4.018c8.822,0,16-7.178,16-16S67.634,25.188,58.812,25.188z M72.812,41.188
	c0,3.501-1.3,6.697-3.432,9.154L49.658,30.62c2.457-2.131,5.654-3.432,9.154-3.432C66.532,27.188,72.812,33.468,72.812,41.188z"/>
</svg>
