<?xml version="1.0" encoding="utf-8"?>
<!-- Generator: Adobe Illustrator 17.0.0, SVG Export Plug-In . SVG Version: 6.00 Build 0)  -->
<!DOCTYPE svg PUBLIC "-//W3C//DTD SVG 1.1//EN" "http://www.w3.org/Graphics/SVG/1.1/DTD/svg11.dtd">
<svg version="1.1" id="Layer_1" xmlns="http://www.w3.org/2000/svg" xmlns:xlink="http://www.w3.org/1999/xlink" x="0px" y="0px"
	 width="100px" height="100px" viewBox="0 0 100 100" enable-background="new 0 0 100 100" xml:space="preserve">
<g>
	<path d="M53.814,45.146c-1.948,0-3.534,1.585-3.534,3.533c0,1.947,1.585,3.531,3.534,3.531c1.947,0,3.532-1.584,3.532-3.531
		C57.347,46.731,55.762,45.146,53.814,45.146z"/>
	<path d="M51.96,41.003c-5.65,0-10.247,4.597-10.247,10.248c0,5.65,4.597,10.247,10.247,10.247s10.247-4.597,10.247-10.247
		C62.207,45.6,57.61,41.003,51.96,41.003z M53.814,54.211c-3.052,0-5.534-2.481-5.534-5.531c0-3.051,2.482-5.533,5.534-5.533
		c3.051,0,5.532,2.482,5.532,5.533C59.347,51.729,56.865,54.211,53.814,54.211z"/>
	<path d="M79.996,49.977c-8.274-11.618-17.467-17.509-27.32-17.509c-16.577,0-28.297,16.842-28.788,17.559
		c-0.849,1.24-0.762,2.905,0.211,4.048c9.009,10.589,18.513,15.958,28.247,15.958c16.615,0,27.259-15.597,27.703-16.26
		C80.818,52.628,80.798,51.103,79.996,49.977z M51.96,63.498c-6.753,0-12.247-5.494-12.247-12.247
		c0-6.753,5.494-12.248,12.247-12.248s12.247,5.495,12.247,12.248C64.207,58.004,58.713,63.498,51.96,63.498z"/>
</g>
</svg>
