<?xml version="1.0" encoding="utf-8"?>
<!-- Generator: Adobe Illustrator 17.0.0, SVG Export Plug-In . SVG Version: 6.00 Build 0)  -->
<!DOCTYPE svg PUBLIC "-//W3C//DTD SVG 1.1//EN" "http://www.w3.org/Graphics/SVG/1.1/DTD/svg11.dtd">
<svg version="1.1" id="Layer_1" xmlns="http://www.w3.org/2000/svg" xmlns:xlink="http://www.w3.org/1999/xlink" x="0px" y="0px"
	 width="100px" height="100px" viewBox="0 0 100 100" enable-background="new 0 0 100 100" xml:space="preserve">
<path d="M78.994,52.75C78.994,52.666,79,52.584,79,52.5c0-7.319-2.731-14.008-7.22-19.116l-5.34,5.34l-1.414-1.414l5.386-5.386
	C65.168,26.72,57.953,23.5,50,23.5s-15.168,3.22-20.412,8.424l5.386,5.386l-1.414,1.414l-5.34-5.34C23.731,38.492,21,45.181,21,52.5
	c0,0.084,0.006,0.166,0.006,0.25h6.744v2h-6.654c0.545,7.058,3.62,13.418,8.328,18.162l4.136-4.136l1.414,1.414l-4.09,4.09
	C35.992,78.769,42.681,81.5,50,81.5s14.008-2.731,19.116-7.22l-4.09-4.09l1.414-1.414l4.136,4.136
	c4.707-4.745,7.783-11.104,8.328-18.162H72.25v-2H78.994z M51,52.5h-2V34.25h2V52.5z M51,31.5h-2v-7.75h2V31.5z"/>
</svg>
