<?xml version="1.0" encoding="utf-8"?>
<!-- Generator: Adobe Illustrator 17.0.0, SVG Export Plug-In . SVG Version: 6.00 Build 0)  -->
<!DOCTYPE svg PUBLIC "-//W3C//DTD SVG 1.1//EN" "http://www.w3.org/Graphics/SVG/1.1/DTD/svg11.dtd">
<svg version="1.1" id="Layer_1" xmlns="http://www.w3.org/2000/svg" xmlns:xlink="http://www.w3.org/1999/xlink" x="0px" y="0px"
	 width="100px" height="100px" viewBox="0 0 100 100" enable-background="new 0 0 100 100" xml:space="preserve">
<g>
	<path d="M77.025,53.999c-2.185-2.185-5.085-3.388-8.167-3.388c-0.045,0-0.088,0.006-0.133,0.007c0.654-0.64,1.063-1.53,1.063-2.515
		c0-1.944-1.582-3.525-3.526-3.525h-5.692l-4.416-5.42c-0.652-0.799-1.615-1.272-2.583-1.294c-1.015-0.082-2.036,0.346-2.764,1.154
		l-5.895,6.508c-1.303,1.439-1.194,3.672,0.242,4.977l5.793,5.266v1.881c-1.762-4.133-5.865-7.038-10.634-7.038
		c-6.372,0-11.555,5.184-11.555,11.555c0,6.373,5.184,11.558,11.555,11.558c4.985,0,9.231-3.18,10.848-7.614
		c0.484,1.371,1.779,2.361,3.313,2.361c1.656,0,3.039-1.151,3.416-2.692c1.521,4.608,5.859,7.945,10.97,7.945
		c6.371,0,11.555-5.185,11.555-11.558C80.414,59.085,79.211,56.185,77.025,53.999z M40.312,71.724c-5.269,0-9.555-4.287-9.555-9.558
		c0-5.269,4.287-9.555,9.555-9.555s9.555,4.286,9.555,9.555C49.867,67.437,45.581,71.724,40.312,71.724z M56.845,51.597
		l-4.344-3.946l0.778-0.858l2.881,3.538c0.674,0.824,1.67,1.297,2.733,1.297h5.249c-2.846,1.278-5.076,3.674-6.144,6.626v-4.045
		C57.999,53.218,57.578,52.266,56.845,51.597z M68.858,71.724c-5.269,0-9.556-4.287-9.556-9.558c0-5.269,4.287-9.555,9.556-9.555
		c2.548,0,4.945,0.995,6.753,2.802c1.808,1.808,2.802,4.205,2.802,6.753C78.413,67.437,74.127,71.724,68.858,71.724z"/>
	<path d="M62.389,42.012c2.341,0,4.246-1.905,4.246-4.246s-1.905-4.246-4.246-4.246s-4.246,1.905-4.246,4.246
		S60.048,42.012,62.389,42.012z"/>
</g>
</svg>
