<?xml version="1.0" encoding="utf-8"?>
<!-- Generator: Adobe Illustrator 17.0.0, SVG Export Plug-In . SVG Version: 6.00 Build 0)  -->
<!DOCTYPE svg PUBLIC "-//W3C//DTD SVG 1.1//EN" "http://www.w3.org/Graphics/SVG/1.1/DTD/svg11.dtd">
<svg version="1.1" id="Layer_1" xmlns="http://www.w3.org/2000/svg" xmlns:xlink="http://www.w3.org/1999/xlink" x="0px" y="0px"
	 width="100px" height="100px" viewBox="0 0 100 100" enable-background="new 0 0 100 100" xml:space="preserve">
<g>
	<path d="M58.188,72.732H44.592l-0.278-0.546c-0.104-0.205-0.596-1.031-1.217-2.076c-5.742-9.651-12.333-21.236-12.333-25.18
		c0-11.379,9.258-20.637,20.637-20.637c11.379,0,20.637,9.258,20.637,20.637c-0.001,3.577-5.409,13.713-11.253,24.135
		c-0.804,1.434-1.562,2.788-1.663,3.027l-0.257,0.614L58.188,72.732z"/>
</g>
<g>
	<rect x="45" y="74.125" width="13.833" height="2"/>
</g>
<g>
	<rect x="45" y="77.125" width="13.833" height="2"/>
</g>
<g>
	<rect x="45" y="80.125" width="13.833" height="2"/>
</g>
</svg>
