<?xml version="1.0" encoding="utf-8"?>
<!-- Generator: Adobe Illustrator 17.0.0, SVG Export Plug-In . SVG Version: 6.00 Build 0)  -->
<!DOCTYPE svg PUBLIC "-//W3C//DTD SVG 1.1//EN" "http://www.w3.org/Graphics/SVG/1.1/DTD/svg11.dtd">
<svg version="1.1" id="Layer_1" xmlns="http://www.w3.org/2000/svg" xmlns:xlink="http://www.w3.org/1999/xlink" x="0px" y="0px"
	 width="100px" height="100px" viewBox="0 0 100 100" enable-background="new 0 0 100 100" xml:space="preserve">
<g>
	<path d="M16.613,35.363V86.75H68V72.443V35.363H27.807H16.613z M66,37.363v33.081v4V84.75H18.613V37.363h7.194h4H66z"/>
	<path d="M28.807,12.057v19.306h-3H12.613V90.75H72V74.443v-3h16.193V12.057H28.807z M70,72.443V88.75H14.613V33.363h13.194H70
		V72.443z M34.807,31.363V18.057h47.387v47.387H72V31.363H34.807z M86.193,69.443H73v-2h11.193V16.057H32.807v14.306h-2V14.057
		h55.387V69.443z"/>
</g>
</svg>
