<?xml version="1.0" encoding="utf-8"?>
<!-- Generator: Adobe Illustrator 17.0.0, SVG Export Plug-In . SVG Version: 6.00 Build 0)  -->
<!DOCTYPE svg PUBLIC "-//W3C//DTD SVG 1.1//EN" "http://www.w3.org/Graphics/SVG/1.1/DTD/svg11.dtd">
<svg version="1.1" id="Layer_1" xmlns="http://www.w3.org/2000/svg" xmlns:xlink="http://www.w3.org/1999/xlink" x="0px" y="0px"
	 width="100px" height="100px" viewBox="0 0 100 100" enable-background="new 0 0 100 100" xml:space="preserve">
<rect x="27.105" y="43.18" width="7.907" height="32.423"/>
<path d="M37.355,24.741v50.862h35.54V24.741H37.355z M67.105,67.72h-25v-2h25V67.72z M67.105,62.72h-25v-2h25V62.72z M67.105,57.72
	h-25v-2h25V57.72z M67.105,52.72h-25v-2h25V52.72z M67.105,47.72h-25v-2h25V47.72z M67.105,42.72h-25v-2h25V42.72z M67.105,37.72
	h-25v-2h25V37.72z M67.105,32.72h-25v-2h25V32.72z"/>
</svg>
