<?xml version="1.0" encoding="utf-8"?>
<!-- Generator: Adobe Illustrator 16.0.0, SVG Export Plug-In . SVG Version: 6.00 Build 0)  -->
<!DOCTYPE svg PUBLIC "-//W3C//DTD SVG 1.1//EN" "http://www.w3.org/Graphics/SVG/1.1/DTD/svg11.dtd">
<svg version="1.1" id="Layer_1" xmlns="http://www.w3.org/2000/svg" xmlns:xlink="http://www.w3.org/1999/xlink" x="0px" y="0px"
	 width="100px" height="100px" viewBox="0 0 100 100" enable-background="new 0 0 100 100" xml:space="preserve">
<g>
	<path d="M53.733,60.701c-1.789,0-3.244-1.455-3.244-3.243V32.402c-0.597,0.555-1.383,0.867-2.209,0.867c0,0,0,0,0,0
		c-0.76,0-1.5-0.269-2.084-0.758c-1.371-1.151-1.551-3.202-0.401-4.572l5.609-6.653c0.024-0.036,0.128-0.136,0.236-0.228
		c0.079-0.067,0.134-0.113,0.191-0.154c0.121-0.087,0.246-0.162,0.375-0.231c0.081-0.045,0.128-0.071,0.178-0.094
		c0.173-0.078,0.331-0.128,0.494-0.173c0.057-0.02,0.12-0.038,0.184-0.051c0.432-0.094,0.893-0.097,1.355,0.003l0.176,0.05
		c0.15,0.041,0.312,0.093,0.464,0.161c0.075,0.036,0.125,0.063,0.174,0.091c0.154,0.082,0.282,0.158,0.404,0.247
		c0.06,0.043,0.119,0.093,0.179,0.145c0.116,0.098,0.225,0.2,0.323,0.31l0.073,0.072l5.46,6.505
		c1.149,1.369,0.971,3.419-0.398,4.571c-1.221,1.023-3.148,0.958-4.294-0.108v25.056C56.978,59.246,55.522,60.701,53.733,60.701z
		 M52.489,26.946v30.512c0,0.686,0.559,1.243,1.244,1.243s1.244-0.558,1.244-1.243V26.944l3.255,3.88
		c0.236,0.283,0.585,0.445,0.954,0.445c0.206,0,0.512-0.051,0.8-0.292c0.523-0.441,0.593-1.228,0.152-1.752l-5.505-6.544
		c-0.021-0.024-0.058-0.057-0.096-0.088l0.534-0.858l-0.616,0.787c-0.043-0.031-0.091-0.057-0.14-0.083l0.354-0.947l-0.458,0.889
		c-0.03-0.014-0.092-0.03-0.152-0.046l-0.113-0.035c-0.092-0.016-0.291-0.028-0.477,0.013l-0.078,0.025
		c-0.046,0.013-0.108,0.029-0.167,0.055c-0.124,0.07-0.177,0.099-0.225,0.133c-0.111,0.096-0.15,0.132-0.186,0.171l-0.078,0.079
		l-5.41,6.447c-0.441,0.526-0.372,1.313,0.154,1.755c0.286,0.239,0.593,0.29,0.799,0.29l0,0c0.369,0,0.717-0.162,0.954-0.444
		L52.489,26.946z"/>
</g>
<g>
	<path d="M57.978,35.008v22.45c0,2.34-1.904,4.243-4.244,4.243s-4.244-1.903-4.244-4.243v-22.45H33.534v40.396H73.93V35.008H57.978z
		"/>
</g>
</svg>
