<?xml version="1.0" encoding="utf-8"?>
<!-- Generator: Adobe Illustrator 17.0.0, SVG Export Plug-In . SVG Version: 6.00 Build 0)  -->
<!DOCTYPE svg PUBLIC "-//W3C//DTD SVG 1.1//EN" "http://www.w3.org/Graphics/SVG/1.1/DTD/svg11.dtd">
<svg version="1.1" id="Layer_1" xmlns="http://www.w3.org/2000/svg" xmlns:xlink="http://www.w3.org/1999/xlink" x="0px" y="0px"
	 width="100px" height="100px" viewBox="0 0 100 100" enable-background="new 0 0 100 100" xml:space="preserve">
<g>
	<path d="M77.569,32.573l-4.459,4.459l-4.891-1.311l-1.311-4.89l4.459-4.459l-2.028-2.03l-14.015,3.755L51.57,42.113l1.24,1.241
		l-4.327,4.327L28.711,27.908l-8.309,8.308l19.772,19.772l-11.89,11.89l7.778,7.778l24.526-24.525l1.24,1.24l14.015-3.755
		l3.755-14.014L77.569,32.573z M74.21,46.984l-11.784,3.158l-1.838-1.839L36.062,72.829l-4.95-4.95l24.526-24.525L53.8,41.515
		l3.157-11.784l11.233-3.01l-3.513,3.513l1.908,7.121l7.121,1.908l3.513-3.513L74.21,46.984z"/>
	<rect x="49.295" y="65.402" transform="matrix(-0.7071 -0.7071 0.7071 -0.7071 53.5888 155.0008)" width="19.202" height="2"/>
</g>
</svg>
