<?xml version="1.0" encoding="utf-8"?>
<!-- Generator: Adobe Illustrator 17.0.0, SVG Export Plug-In . SVG Version: 6.00 Build 0)  -->
<!DOCTYPE svg PUBLIC "-//W3C//DTD SVG 1.1//EN" "http://www.w3.org/Graphics/SVG/1.1/DTD/svg11.dtd">
<svg version="1.1" id="Layer_1" xmlns="http://www.w3.org/2000/svg" xmlns:xlink="http://www.w3.org/1999/xlink" x="0px" y="0px"
	 width="100px" height="100px" viewBox="0 0 100 100" enable-background="new 0 0 100 100" xml:space="preserve">
<g>
	<path d="M66.38,76.194H49.438l1.843-4.204c0.266-0.604,0.399-1.247,0.399-1.913c0-2.642-2.149-4.791-4.791-4.791
		s-4.791,2.149-4.791,4.791c0,0.666,0.134,1.31,0.398,1.914l1.84,4.202H27.399v-38.98h15.49c0.03-0.044,0.047-0.092,0.047-0.13
		c0-0.006,0-0.012-0.001-0.018c-0.146-0.124-0.261-0.223-0.415-0.374c-1.132-1.165-1.746-2.675-1.746-4.27
		c0-3.372,2.744-6.116,6.116-6.116c3.372,0,6.116,2.744,6.116,6.116c0,1.597-0.614,3.107-1.729,4.252l-0.383,0.339
		c-0.014,0.033-0.019,0.057-0.019,0.069c0,0.044,0.017,0.089,0.045,0.13H66.38v15.477c0.043,0.024,0.097,0.042,0.151,0.042
		c0.093-0.099,0.207-0.234,0.372-0.4c1.165-1.13,2.675-1.744,4.267-1.744c3.372,0,6.116,2.744,6.116,6.116s-2.744,6.116-6.116,6.116
		c-1.594,0-3.104-0.614-4.254-1.731l-0.337-0.369c-0.063-0.011-0.144,0.006-0.199,0.034V76.194z"/>
</g>
</svg>
