<?xml version="1.0" encoding="utf-8"?>
<!-- Generator: Adobe Illustrator 17.0.0, SVG Export Plug-In . SVG Version: 6.00 Build 0)  -->
<!DOCTYPE svg PUBLIC "-//W3C//DTD SVG 1.1//EN" "http://www.w3.org/Graphics/SVG/1.1/DTD/svg11.dtd">
<svg version="1.1" id="Layer_1" xmlns="http://www.w3.org/2000/svg" xmlns:xlink="http://www.w3.org/1999/xlink" x="0px" y="0px"
	 width="100px" height="100px" viewBox="0 0 100 100" enable-background="new 0 0 100 100" xml:space="preserve">
<g>
	<path d="M53.868,87.529c-0.224,0-0.454-0.025-0.686-0.075l-0.164-0.046c-0.162-0.044-0.323-0.097-0.476-0.165
		c-0.081-0.038-0.137-0.069-0.191-0.101c-0.132-0.068-0.263-0.146-0.388-0.237c-0.059-0.043-0.118-0.093-0.177-0.145
		c-0.117-0.098-0.225-0.199-0.323-0.31l-0.088-0.091l-5.445-6.487c-0.557-0.663-0.822-1.504-0.747-2.368
		c0.075-0.863,0.482-1.646,1.146-2.202c1.22-1.023,3.147-0.958,4.294,0.108V50.355c0-1.789,1.455-3.244,3.244-3.244
		s3.244,1.456,3.244,3.244V75.41c1.146-1.066,3.076-1.129,4.293-0.109c1.371,1.152,1.551,3.203,0.4,4.572l-5.569,6.617
		c-0.093,0.099-0.18,0.181-0.271,0.258c-0.076,0.066-0.138,0.118-0.205,0.166c-0.115,0.082-0.243,0.158-0.375,0.228
		c-0.055,0.032-0.11,0.063-0.169,0.091c-0.176,0.079-0.332,0.129-0.491,0.174c-0.061,0.019-0.113,0.035-0.169,0.047
		C54.324,87.504,54.094,87.529,53.868,87.529z M52.877,85.037l0.09,0.095c0.021,0.023,0.057,0.057,0.095,0.088l-0.534,0.858
		l0.616-0.788c0.041,0.03,0.086,0.054,0.132,0.078l0.112,0.062c0.03,0.014,0.092,0.029,0.152,0.046l0.108,0.033
		c0.102,0.02,0.297,0.03,0.48-0.011l0.086-0.026c0.039-0.012,0.104-0.028,0.164-0.056c0.125-0.071,0.175-0.099,0.221-0.132
		c0.108-0.093,0.149-0.13,0.187-0.172l0.074-0.074l5.414-6.451c0.44-0.525,0.372-1.312-0.154-1.755
		c-0.286-0.239-0.592-0.29-0.799-0.29c-0.369,0-0.717,0.162-0.954,0.443l-3.255,3.881V50.355c0-0.686-0.559-1.244-1.244-1.244
		s-1.244,0.558-1.244,1.244v30.513l-3.255-3.881c-0.237-0.281-0.584-0.443-0.954-0.443c-0.206,0-0.512,0.051-0.799,0.291
		c-0.254,0.213-0.41,0.513-0.439,0.845c-0.029,0.331,0.073,0.653,0.287,0.908L52.877,85.037z"/>
</g>
<g>
	<path d="M44.06,74.831l-0.475-0.002c-5.307-0.022-10.245-2.101-13.977-5.868c-1.892,0.579-3.831,0.872-5.774,0.872
		C12.897,69.833,4,60.936,4,50c0-10.558,8.425-19.312,18.908-19.799c3.337-6.724,10.24-11.034,17.758-11.034
		c5.185,0,10.037,1.97,13.756,5.567c3.173-2.009,6.813-3.067,10.582-3.067c9.07,0,16.9,6.078,19.175,14.828
		c5.239,3.724,8.355,9.741,8.355,16.172c0,10.936-8.897,19.833-19.833,19.833c-3.573,0-7.086-0.978-10.174-2.83
		c-0.885-0.11-1.784-0.287-2.675-0.526l-0.741-0.198v-18.59c0-2.892-2.353-5.244-5.244-5.244s-5.244,2.353-5.244,5.244v22.121
		l-0.874,0.111c-0.997,0.127-1.934,0.537-2.707,1.185c-0.242,0.203-0.472,0.437-0.682,0.692L44.06,74.831z"/>
</g>
</svg>
