<?xml version="1.0" encoding="utf-8"?>
<!-- Generator: Adobe Illustrator 17.0.0, SVG Export Plug-In . SVG Version: 6.00 Build 0)  -->
<!DOCTYPE svg PUBLIC "-//W3C//DTD SVG 1.1//EN" "http://www.w3.org/Graphics/SVG/1.1/DTD/svg11.dtd">
<svg version="1.1" id="Layer_1" xmlns="http://www.w3.org/2000/svg" xmlns:xlink="http://www.w3.org/1999/xlink" x="0px" y="0px"
	 width="100px" height="100px" viewBox="0 0 100 100" enable-background="new 0 0 100 100" xml:space="preserve">
<g>
	<path d="M47.807,51.816c0.091,0.459,0.099,0.932,0.025,1.394c0.207-0.033,0.417-0.05,0.63-0.05c0.261,0,0.518,0.025,0.769,0.075
		c-0.049-0.251-0.075-0.507-0.075-0.768c0-0.212,0.017-0.421,0.049-0.626C48.745,51.915,48.261,51.905,47.807,51.816z"/>
	<path d="M53.077,50.548c-0.514,0-0.996,0.199-1.358,0.562s-0.562,0.845-0.562,1.358c0,0.513,0.2,0.995,0.562,1.358
		c0.727,0.727,1.99,0.727,2.717,0c0.363-0.363,0.563-0.846,0.563-1.358s-0.2-0.995-0.563-1.358
		C54.073,50.747,53.591,50.548,53.077,50.548z"/>
	<path d="M48.579,46.048c-0.513,0-0.996,0.2-1.358,0.563c-0.364,0.363-0.563,0.845-0.563,1.358c0,0.513,0.2,0.996,0.563,1.359
		c0.726,0.726,1.991,0.726,2.716,0c0.364-0.364,0.564-0.847,0.564-1.36c0-0.513-0.2-0.996-0.563-1.359
		C49.575,46.248,49.092,46.048,48.579,46.048z"/>
	<path d="M48.462,55.16c-0.514,0-0.997,0.2-1.359,0.562c-0.749,0.749-0.749,1.969,0,2.719c0.725,0.725,1.993,0.727,2.716,0
		c0.75-0.75,0.75-1.97,0-2.719C49.458,55.359,48.976,55.16,48.462,55.16z"/>
	<path d="M43.964,50.661c-0.514,0-0.997,0.2-1.36,0.563c-0.748,0.748-0.748,1.969,0.001,2.72c0.724,0.723,1.992,0.723,2.717-0.001
		c0.748-0.75,0.748-1.97-0.001-2.721C44.96,50.861,44.478,50.661,43.964,50.661z"/>
	<path d="M77.423,33.168l-9.546-9.545c-1.462-1.463-3.409-2.269-5.482-2.269s-4.021,0.806-5.482,2.269L24.231,56.304
		c-3.023,3.023-3.023,7.943,0,10.968l9.545,9.545c1.463,1.463,3.41,2.269,5.483,2.269c2.073,0,4.021-0.806,5.484-2.269
		l32.681-32.681C80.446,41.111,80.445,36.192,77.423,33.168z M60.6,50.49c-0.967,0.969-2.42,1.354-3.714,1.035
		c0.075,0.305,0.113,0.621,0.113,0.942c0,1.048-0.408,2.032-1.149,2.772c-0.925,0.927-2.283,1.326-3.544,1.073
		c0.246,1.242-0.111,2.581-1.071,3.542c-0.739,0.74-1.724,1.148-2.771,1.148c-1.047,0-2.032-0.407-2.773-1.147
		c-0.924-0.926-1.29-2.2-1.097-3.401c-1.222,0.196-2.51-0.207-3.401-1.097c-1.528-1.531-1.528-4.02-0.001-5.548
		c0.927-0.925,2.288-1.32,3.541-1.074c-0.049-0.25-0.075-0.506-0.074-0.767c0-1.048,0.408-2.032,1.149-2.772
		c0.967-0.969,2.419-1.357,3.719-1.035c-0.318-1.29,0.026-2.711,1.031-3.717c1.48-1.482,4.063-1.481,5.546,0
		c0.924,0.925,1.29,2.199,1.097,3.4c1.226-0.195,2.511,0.208,3.4,1.097c0.742,0.742,1.15,1.727,1.15,2.775
		C61.75,48.764,61.341,49.749,60.6,50.49z"/>
	<path d="M57.827,45.796c-0.514,0-0.996,0.2-1.359,0.562c-0.747,0.749-0.747,1.969,0.002,2.719c0.723,0.723,1.99,0.725,2.716,0
		c0.364-0.364,0.564-0.847,0.564-1.359c0-0.513-0.2-0.996-0.564-1.36C58.823,45.995,58.341,45.796,57.827,45.796z"/>
	<path d="M52.388,47.026c0.074,0.305,0.113,0.621,0.113,0.943c0,0.212-0.018,0.422-0.05,0.627c0.205-0.033,0.414-0.049,0.626-0.049
		c0.323,0,0.641,0.039,0.946,0.114c-0.127-0.515-0.148-1.05-0.064-1.572C53.44,47.174,52.894,47.15,52.388,47.026z"/>
	<path d="M53.329,41.297c-0.513,0-0.995,0.2-1.358,0.562c-0.748,0.749-0.748,1.968,0.001,2.718c0.725,0.725,1.991,0.726,2.718-0.001
		c0.748-0.749,0.748-1.967-0.001-2.717C54.326,41.498,53.843,41.297,53.329,41.297z"/>
</g>
</svg>
