<?xml version="1.0" encoding="utf-8"?>
<!-- Generator: Adobe Illustrator 17.0.0, SVG Export Plug-In . SVG Version: 6.00 Build 0)  -->
<!DOCTYPE svg PUBLIC "-//W3C//DTD SVG 1.1//EN" "http://www.w3.org/Graphics/SVG/1.1/DTD/svg11.dtd">
<svg version="1.1" id="Layer_1" xmlns="http://www.w3.org/2000/svg" xmlns:xlink="http://www.w3.org/1999/xlink" x="0px" y="0px"
	 width="100px" height="100px" viewBox="0 0 100 100" enable-background="new 0 0 100 100" xml:space="preserve">
<g>
	<path d="M20.973,47.389h6v-19.86h19.86v-6h-25.86V47.389z M22.973,23.529h13.194h8.666v2h-8.666H24.973v19.86h-2V23.529z"/>
	<path d="M74.36,74.916H54.5v6h25.86v-25.86h-6V74.916z M76.36,62.609v-5.554h2v5.554v16.307H56.5v-2h19.86V62.609z"/>
	<path d="M26.973,55.056h-6v25.86h25.86v-6h-19.86V55.056z M44.833,76.916v2h-21.86v-21.86h2v19.86H44.833z"/>
	<path d="M54.5,21.529v6h19.86v19.86h6v-25.86H54.5z M78.36,45.389h-2v-19.86H56.5v-2h21.86V45.389z"/>
</g>
</svg>
