<?xml version="1.0" encoding="utf-8"?>
<!-- Generator: Adobe Illustrator 17.0.0, SVG Export Plug-In . SVG Version: 6.00 Build 0)  -->
<!DOCTYPE svg PUBLIC "-//W3C//DTD SVG 1.1//EN" "http://www.w3.org/Graphics/SVG/1.1/DTD/svg11.dtd">
<svg version="1.1" id="Layer_1" xmlns="http://www.w3.org/2000/svg" xmlns:xlink="http://www.w3.org/1999/xlink" x="0px" y="0px"
	 width="100px" height="100px" viewBox="0 0 100 100" enable-background="new 0 0 100 100" xml:space="preserve">
<g>
	<path d="M30.745,37.969h6.438v-6.451h-6.438V37.969z M32.745,33.518h2.438v2.451h-2.438V33.518z"/>
	<path d="M26.745,41.969h14.438V27.518H26.745V41.969z M28.745,29.518h10.438v10.451H28.745V29.518z"/>
	<path d="M30.745,53.867h6.438v-6.454h-6.438V53.867z M32.745,49.413h2.438v2.454h-2.438V49.413z"/>
	<path d="M26.745,57.867h14.438V43.413H26.745V57.867z M28.745,45.413h10.438v10.454H28.745V45.413z"/>
	<path d="M30.745,70.298h6.438v-6.454h-6.438V70.298z M32.745,65.844h2.438v2.454h-2.438V65.844z"/>
	<path d="M26.745,74.298h14.438V59.844H26.745V74.298z M28.745,61.844h10.438v10.454H28.745V61.844z"/>
	<path d="M43.05,41.702h14.439V27.249H43.05V41.702z M45.05,29.249h10.439v10.453H45.05V29.249z"/>
	<path d="M47.05,37.702h6.439v-6.453H47.05V37.702z M49.05,33.249h2.439v2.453H49.05V33.249z"/>
	<path d="M43.05,57.596h14.439V43.144H43.05V57.596z M45.05,45.144h10.439v10.452H45.05V45.144z"/>
	<path d="M47.05,53.596h6.439v-6.452H47.05V53.596z M49.05,49.144h2.439v2.452H49.05V49.144z"/>
	<path d="M47.05,70.029h6.439v-6.452H47.05V70.029z M49.05,65.577h2.439v2.452H49.05V65.577z"/>
	<path d="M43.05,74.029h14.439V59.577H43.05V74.029z M45.05,61.577h10.439v10.452H45.05V61.577z"/>
	<path d="M59.356,27.25v14.453h14.438V27.25H59.356z M71.794,39.703H61.356V29.25h10.438V39.703z"/>
	<path d="M69.794,31.25h-6.438v6.453h6.438V31.25z M67.794,35.703h-2.438V33.25h2.438V35.703z"/>
	<path d="M59.356,57.599h14.438V43.146H59.356V57.599z M61.356,45.146h10.438v10.453H61.356V45.146z"/>
	<path d="M63.356,53.599h6.438v-6.453h-6.438V53.599z M65.356,49.146h2.438v2.453h-2.438V49.146z"/>
	<path d="M59.356,74.03h14.438V59.578H59.356V74.03z M61.356,61.578h10.438V72.03H61.356V61.578z"/>
	<path d="M63.356,70.03h6.438v-6.452h-6.438V70.03z M65.356,65.578h2.438v2.452h-2.438V65.578z"/>
</g>
</svg>
