<?xml version="1.0" encoding="utf-8"?>
<!-- Generator: Adobe Illustrator 17.0.0, SVG Export Plug-In . SVG Version: 6.00 Build 0)  -->
<!DOCTYPE svg PUBLIC "-//W3C//DTD SVG 1.1//EN" "http://www.w3.org/Graphics/SVG/1.1/DTD/svg11.dtd">
<svg version="1.1" id="Layer_1" xmlns="http://www.w3.org/2000/svg" xmlns:xlink="http://www.w3.org/1999/xlink" x="0px" y="0px"
	 width="100px" height="100px" viewBox="0 0 100 100" enable-background="new 0 0 100 100" xml:space="preserve">
<g>
	<path d="M51.844,70.866c-0.512,0-1.017-0.098-1.499-0.29c-0.545-0.23-0.981-0.524-1.354-0.906L38.109,58.789
		c-0.756-0.759-1.171-1.763-1.171-2.828s0.414-2.068,1.165-2.824c1.522-1.517,4.153-1.514,5.664-0.011l4.076,4.078V24.628
		c0-2.207,1.795-4.003,4.002-4.003c2.206,0,4,1.796,4,4.003v32.577l4.074-4.074c1.519-1.509,4.148-1.506,5.657-0.003
		c0.759,0.761,1.175,1.767,1.175,2.834c0,1.069-0.416,2.074-1.173,2.829L54.672,69.693c-0.352,0.362-0.807,0.667-1.304,0.869
		C52.88,70.764,52.366,70.866,51.844,70.866z"/>
</g>
<g>
	<polygon points="76.667,81.875 26.833,81.875 26.833,61.998 28.833,61.998 28.833,79.875 74.667,79.875 74.667,61.998 
		76.667,61.998 	"/>
</g>
</svg>
