<?xml version="1.0" encoding="utf-8"?>
<!-- Generator: Adobe Illustrator 17.0.0, SVG Export Plug-In . SVG Version: 6.00 Build 0)  -->
<!DOCTYPE svg PUBLIC "-//W3C//DTD SVG 1.1//EN" "http://www.w3.org/Graphics/SVG/1.1/DTD/svg11.dtd">
<svg version="1.1" id="Layer_1" xmlns="http://www.w3.org/2000/svg" xmlns:xlink="http://www.w3.org/1999/xlink" x="0px" y="0px"
	 width="100px" height="100px" viewBox="0 0 100 100" enable-background="new 0 0 100 100" xml:space="preserve">
<g>
	<path d="M73.354,84c-0.215,0-0.43-0.034-0.639-0.104l-20.521-6.91l-20.522,6.91c-0.614,0.208-1.289,0.103-1.814-0.277
		c-0.524-0.381-0.831-0.992-0.824-1.64l0.23-21.652L16.35,42.943c-0.386-0.52-0.497-1.195-0.297-1.811
		c0.2-0.616,0.687-1.097,1.305-1.291l20.664-6.473l12.541-17.652c0.376-0.528,0.983-0.842,1.631-0.842l0,0
		c0.647,0,1.255,0.313,1.631,0.842l12.54,17.653l20.664,6.472c0.618,0.194,1.104,0.675,1.305,1.291
		c0.2,0.616,0.09,1.291-0.297,1.811L75.123,60.326l0.23,21.652c0.007,0.647-0.301,1.259-0.824,1.64
		C74.183,83.869,73.771,84,73.354,84z"/>
</g>
</svg>
