<?xml version="1.0" encoding="utf-8"?>
<!-- Generator: Adobe Illustrator 17.0.0, SVG Export Plug-In . SVG Version: 6.00 Build 0)  -->
<!DOCTYPE svg PUBLIC "-//W3C//DTD SVG 1.1//EN" "http://www.w3.org/Graphics/SVG/1.1/DTD/svg11.dtd">
<svg version="1.1" id="Layer_1" xmlns="http://www.w3.org/2000/svg" xmlns:xlink="http://www.w3.org/1999/xlink" x="0px" y="0px"
	 width="100px" height="100px" viewBox="0 0 100 100" enable-background="new 0 0 100 100" xml:space="preserve">
<g>
	<polygon points="35.506,53.814 30.739,58.581 37.679,58.581 42.445,53.814 	"/>
	<polygon points="47.286,58.411 42.282,63.416 42.281,71.137 47.286,66.131 	"/>
	<path d="M76.178,49.14h-4.951l4.616-4.616c0.253-0.253,0.392-0.589,0.392-0.946s-0.139-0.693-0.392-0.945
		c-0.506-0.506-1.385-0.506-1.891,0l-6.507,6.507H53.729l9.723-9.722h9.203c0.737,0,1.337-0.6,1.337-1.338
		c0-0.737-0.6-1.337-1.337-1.337h-6.528l3.501-3.501c0.521-0.521,0.521-1.37,0-1.891c-0.507-0.506-1.386-0.505-1.891,0l-3.501,3.501
		v-6.527c0-0.738-0.601-1.338-1.338-1.338s-1.337,0.601-1.337,1.338l-0.001,9.202l-9.599,9.6V34.358l6.589-6.59
		c0.521-0.521,0.521-1.37,0-1.891c-0.506-0.505-1.385-0.505-1.891,0l-4.699,4.698v-6.269c0-0.737-0.6-1.337-1.337-1.337
		s-1.337,0.6-1.337,1.337v6.105l-4.534-4.535c-0.506-0.504-1.385-0.505-1.891,0c-0.521,0.521-0.521,1.37,0,1.891l6.425,6.425v12.596
		l-8.766-8.767v-9.318c0-0.738-0.6-1.338-1.337-1.338s-1.337,0.6-1.337,1.338v6.643l-4.433-4.432c-0.506-0.505-1.385-0.504-1.891,0
		c-0.252,0.253-0.392,0.588-0.392,0.946c0,0.357,0.14,0.692,0.392,0.945l4.316,4.316h-6.412c-0.737,0-1.337,0.6-1.337,1.337
		c0,0.738,0.6,1.338,1.337,1.338h9.086l9.343,9.343H34.843l-6.589-6.59c-0.505-0.505-1.386-0.505-1.891,0
		c-0.521,0.521-0.521,1.37,0,1.892l4.698,4.698h-6.268c-0.737,0-1.337,0.6-1.337,1.337c0,0.738,0.6,1.337,1.337,1.337h6.105
		l-4.535,4.533c-0.252,0.253-0.392,0.589-0.392,0.946s0.139,0.692,0.392,0.945c0.508,0.507,1.386,0.504,1.89,0.001l6.426-6.426
		h12.595l-8.766,8.767h-9.318c-0.737,0-1.337,0.6-1.337,1.337s0.6,1.337,1.337,1.337h6.643l-4.431,4.434
		c-0.253,0.253-0.393,0.588-0.393,0.945c0,0.356,0.14,0.692,0.392,0.945c0.505,0.506,1.386,0.504,1.889,0.001l4.317-4.317v6.412
		c0,0.737,0.6,1.337,1.337,1.337s1.337-0.6,1.337-1.337l0.001-9.087l9.004-9.007v13.378l-6.507,6.508
		c-0.252,0.253-0.392,0.589-0.392,0.946c0,0.356,0.14,0.692,0.392,0.945c0.505,0.506,1.385,0.505,1.89,0l4.616-4.616v4.952
		c0,0.737,0.6,1.337,1.337,1.337s1.337-0.6,1.337-1.337v-4.953l4.616,4.616c0.507,0.505,1.384,0.505,1.892-0.002
		c0.252-0.251,0.391-0.587,0.391-0.944c0-0.356-0.139-0.692-0.392-0.945l-6.507-6.508V53.244l9.722,9.723v9.202
		c0,0.737,0.6,1.337,1.337,1.337s1.337-0.6,1.337-1.337v-6.528l3.501,3.501c0.505,0.505,1.386,0.505,1.891,0.001
		c0.254-0.254,0.393-0.59,0.393-0.946S70,67.504,69.747,67.251l-3.501-3.501h6.527c0.737,0,1.338-0.6,1.338-1.337
		s-0.601-1.338-1.338-1.338H63.57l-9.261-9.261H67.44l6.508,6.507c0.506,0.506,1.386,0.505,1.89,0.001
		c0.254-0.254,0.393-0.589,0.393-0.946s-0.139-0.693-0.392-0.946l-4.617-4.615h4.952c0.739,0,1.341-0.6,1.341-1.337
		C77.515,49.74,76.915,49.14,76.178,49.14z"/>
	<polygon points="59.138,53.814 64.398,59.075 71.874,59.075 66.612,53.814 	"/>
	<polygon points="53.959,66.13 59.681,71.853 59.681,63.795 53.959,58.072 	"/>
	<polygon points="43.028,47.14 37.685,41.797 30.329,41.797 35.671,47.14 	"/>
	<path d="M80.381,47.495c-1.383-16.511-15.89-28.774-32.4-27.39c-16.511,1.383-28.774,15.89-27.39,32.4
		c1.383,16.511,15.89,28.774,32.4,27.39C69.501,78.512,81.764,64.006,80.381,47.495z M76.174,53.814h-0.122l1.201,1.201
		c0.631,0.631,0.978,1.469,0.978,2.36s-0.347,1.729-0.978,2.359c-0.46,0.461-1.031,0.771-1.653,0.904
		c0.324,0.514,0.512,1.122,0.512,1.773c0,1.84-1.497,3.337-3.338,3.337h-1.699l0.087,0.087c0.631,0.631,0.978,1.469,0.978,2.359
		s-0.347,1.729-0.978,2.359c-1.258,1.262-3.458,1.262-4.72,0l-0.087-0.087v1.7c0,1.84-1.497,3.337-3.337,3.337
		c-0.829,0-1.588-0.304-2.172-0.806c-0.066,0.782-0.403,1.51-0.966,2.071c-1.267,1.26-3.451,1.26-4.718,0.002l-1.203-1.204v0.125
		c0,1.84-1.497,3.337-3.337,3.337c-1.84,0-3.337-1.497-3.337-3.337V75.57l-1.202,1.202c-1.261,1.262-3.458,1.262-4.718,0
		c-0.567-0.567-0.906-1.303-0.967-2.094c-0.44,0.213-0.933,0.333-1.454,0.333c-1.84,0-3.337-1.497-3.337-3.337v-1.584l-0.902,0.902
		c-1.256,1.259-3.457,1.263-4.718,0c-0.63-0.631-0.978-1.469-0.978-2.359c0-0.892,0.348-1.729,0.979-2.359l1.019-1.02h-1.817
		c-1.84,0-3.337-1.497-3.337-3.337c0-0.529,0.124-1.03,0.344-1.476c-0.464-0.163-0.889-0.431-1.248-0.789
		c-0.63-0.63-0.978-1.468-0.978-2.359s0.348-1.729,0.978-2.36l1.119-1.119h-1.275c-1.84,0-3.337-1.497-3.337-3.337
		c0-1.84,1.497-3.337,3.337-3.337h1.44l-1.284-1.284c-0.63-0.63-0.978-1.469-0.978-2.36c0-0.892,0.348-1.73,0.978-2.36
		c0.46-0.46,1.031-0.77,1.652-0.903c-0.324-0.514-0.511-1.123-0.511-1.774c0-1.84,1.497-3.337,3.337-3.337h1.584l-0.902-0.902
		c-0.63-0.63-0.978-1.468-0.978-2.359c0-0.892,0.348-1.729,0.978-2.36c1.26-1.261,3.458-1.261,4.719,0l1.019,1.018v-1.815
		c0-1.84,1.497-3.338,3.337-3.338c0.53,0,1.031,0.124,1.477,0.345c0.16-0.457,0.422-0.884,0.787-1.249
		c1.26-1.261,3.458-1.261,4.719,0l1.12,1.12v-1.276c0-1.84,1.497-3.337,3.337-3.337c1.84,0,3.337,1.497,3.337,3.337v1.441
		l1.285-1.285c1.262-1.261,3.457-1.261,4.719,0c0.37,0.37,0.643,0.812,0.805,1.293c0.578-0.48,1.32-0.77,2.129-0.77
		c1.841,0,3.338,1.498,3.338,3.338v1.699l0.087-0.087c1.259-1.261,3.456-1.262,4.719,0c1.301,1.301,1.301,3.418,0,4.719
		l-0.087,0.087h1.7c1.84,0,3.337,1.497,3.337,3.337c0,0.83-0.304,1.589-0.807,2.173c0.782,0.067,1.509,0.403,2.071,0.965
		c0.631,0.63,0.978,1.468,0.978,2.36c0,0.891-0.347,1.729-0.978,2.36l-1.202,1.202h0.123c1.84,0,3.337,1.497,3.337,3.337
		C79.515,52.317,78.016,53.814,76.174,53.814z"/>
	<polygon points="66.617,47.14 72.339,41.418 64.28,41.418 58.558,47.14 	"/>
	<polygon points="53.962,42.297 59.561,36.699 59.562,29.586 53.962,35.186 	"/>
	<polygon points="42.521,30.255 42.521,37.194 47.287,41.959 47.287,35.021 	"/>
</g>
</svg>
