<?xml version="1.0" encoding="utf-8"?>
<!-- Generator: Adobe Illustrator 17.0.0, SVG Export Plug-In . SVG Version: 6.00 Build 0)  -->
<!DOCTYPE svg PUBLIC "-//W3C//DTD SVG 1.1//EN" "http://www.w3.org/Graphics/SVG/1.1/DTD/svg11.dtd">
<svg version="1.1" id="Layer_1" xmlns="http://www.w3.org/2000/svg" xmlns:xlink="http://www.w3.org/1999/xlink" x="0px" y="0px"
	 width="100px" height="100px" viewBox="0 0 100 100" enable-background="new 0 0 100 100" xml:space="preserve">
<polygon points="45.84,28.908 38.253,39.758 34.068,28.963 "/>
<polygon points="33.256,29.638 37.372,40.254 27.35,40.193 "/>
<polygon points="27.568,41.194 37.752,41.257 45.311,62.632 "/>
<polygon points="46.228,62.225 38.815,41.263 46.274,41.309 "/>
<polygon points="46.277,40.309 39.118,40.265 46.262,30.049 46.3,29.996 46.281,38.376 "/>
<polygon points="66.212,40.193 56.19,40.254 60.305,29.638 "/>
<polygon points="59.494,28.963 55.309,39.758 47.722,28.908 "/>
<polygon points="47.281,38.376 47.262,29.996 47.299,30.049 54.444,40.265 47.285,40.309 "/>
<polygon points="47.287,41.309 54.747,41.263 47.334,62.225 "/>
<polygon points="48.251,62.632 55.81,41.257 65.994,41.194 "/>
</svg>
