<?xml version="1.0" encoding="utf-8"?>
<!-- Generator: Adobe Illustrator 17.0.0, SVG Export Plug-In . SVG Version: 6.00 Build 0)  -->
<!DOCTYPE svg PUBLIC "-//W3C//DTD SVG 1.1//EN" "http://www.w3.org/Graphics/SVG/1.1/DTD/svg11.dtd">
<svg version="1.1" id="Layer_1" xmlns="http://www.w3.org/2000/svg" xmlns:xlink="http://www.w3.org/1999/xlink" x="0px" y="0px"
	 width="100px" height="100px" viewBox="0 0 100 100" enable-background="new 0 0 100 100" xml:space="preserve">
<g>
	<path d="M51.885,26.822c-1.86,0-3.374,1.513-3.374,3.374c0,1.86,1.513,3.373,3.374,3.373s3.374-1.513,3.374-3.373
		C55.259,28.335,53.745,26.822,51.885,26.822z"/>
	<path d="M78.459,60.482l-4.376-8.696l-8.695,4.379c-1.692,0.853-2.376,2.924-1.523,4.617c0.613,1.217,1.882,1.965,3.242,1.887
		c-2.249,4.186-6.619,7.245-11.784,8.18V47.582h2.933c1.896,0,3.438-1.542,3.438-3.438c0-1.896-1.543-3.439-3.438-3.439h-2.933
		v-0.863c4.047-1.444,6.812-5.306,6.812-9.646c0-5.652-4.598-10.25-10.249-10.25s-10.25,4.598-10.25,10.25
		c0,4.339,2.765,8.201,6.812,9.646v0.863h-2.734c-1.896,0-3.438,1.542-3.438,3.439c0,1.896,1.542,3.438,3.438,3.438h2.734v23.227
		c-5.055-0.977-9.355-4.021-11.576-8.137c1.248-0.052,2.36-0.766,2.926-1.889c0.413-0.82,0.482-1.752,0.194-2.624
		s-0.898-1.58-1.718-1.993l-8.695-4.379l-4.375,8.695c-0.413,0.82-0.482,1.752-0.193,2.625c0.288,0.872,0.898,1.579,1.719,1.992
		c1.15,0.578,2.561,0.437,3.55-0.273c3.695,7.969,12.202,13.213,21.708,13.213c9.4,0,17.901-5.195,21.635-13.073
		c0.974,0.596,2.287,0.656,3.315,0.133C78.627,64.246,79.31,62.175,78.459,60.482z M51.885,35.569c-2.963,0-5.374-2.41-5.374-5.373
		s2.411-5.374,5.374-5.374s5.374,2.411,5.374,5.374S54.848,35.569,51.885,35.569z"/>
</g>
</svg>
