<?xml version="1.0" encoding="utf-8"?>
<!-- Generator: Adobe Illustrator 17.0.0, SVG Export Plug-In . SVG Version: 6.00 Build 0)  -->
<!DOCTYPE svg PUBLIC "-//W3C//DTD SVG 1.1//EN" "http://www.w3.org/Graphics/SVG/1.1/DTD/svg11.dtd">
<svg version="1.1" id="Layer_1" xmlns="http://www.w3.org/2000/svg" xmlns:xlink="http://www.w3.org/1999/xlink" x="0px" y="0px"
	 width="100px" height="100px" viewBox="0 0 100 100" enable-background="new 0 0 100 100" xml:space="preserve">
<path d="M35.742,34.386c-0.156,0-0.319-0.016-0.496-0.05l-0.221-0.057c-1.27-0.33-2.156-1.469-2.156-2.77v-3.632
	c0-1.585,1.289-2.875,2.874-2.875h29.301c1.585,0,2.875,1.29,2.875,2.875v3.632c0,1.3-0.888,2.438-2.158,2.77l-0.122,0.038
	c-0.215,0.047-0.409,0.069-0.594,0.069h-1.816h-1h-23.67h-1H35.742z"/>
<path d="M71.22,75.434H29.749c-0.96,0-1.854-0.477-2.389-1.275c-0.534-0.797-0.635-1.803-0.269-2.691L38.558,43.51v-7.124h23.67
	v7.124l11.277,27.488l0.061,0.123c0.253,0.435,0.387,0.933,0.387,1.439C73.953,74.065,72.789,75.315,71.22,75.434z"/>
</svg>
