<?xml version="1.0" encoding="utf-8"?>
<!-- Generator: Adobe Illustrator 17.0.0, SVG Export Plug-In . SVG Version: 6.00 Build 0)  -->
<!DOCTYPE svg PUBLIC "-//W3C//DTD SVG 1.1//EN" "http://www.w3.org/Graphics/SVG/1.1/DTD/svg11.dtd">
<svg version="1.1" id="Layer_1" xmlns="http://www.w3.org/2000/svg" xmlns:xlink="http://www.w3.org/1999/xlink" x="0px" y="0px"
	 width="100px" height="100px" viewBox="0 0 100 100" enable-background="new 0 0 100 100" xml:space="preserve">
<g>
	<path d="M87.833,59.99V16.76H28.667v15.333h-16.5V83.24h35V59.99H57.25v5.166h-5.417v2h15.333v-2H59.25V59.99H87.833z
		 M45.167,81.24h-31V34.094h14.5h16.5V59.99V81.24z"/>
	<rect x="24.833" y="37.375" width="10.333" height="2"/>
	<path d="M15.333,73.26h29.5V40.594h-29.5V73.26z"/>
	<path d="M30.083,73.344c-1.884,0-3.417,1.532-3.417,3.416s1.533,3.417,3.417,3.417S33.5,78.644,33.5,76.76
		S31.967,73.344,30.083,73.344z M30.083,78.177c-0.781,0-1.417-0.636-1.417-1.417s0.636-1.416,1.417-1.416S31.5,75.979,31.5,76.76
		S30.865,78.177,30.083,78.177z"/>
</g>
</svg>
