<?xml version="1.0" encoding="utf-8"?>
<!-- Generator: Adobe Illustrator 17.0.0, SVG Export Plug-In . SVG Version: 6.00 Build 0)  -->
<!DOCTYPE svg PUBLIC "-//W3C//DTD SVG 1.1//EN" "http://www.w3.org/Graphics/SVG/1.1/DTD/svg11.dtd">
<svg version="1.1" id="Layer_1" xmlns="http://www.w3.org/2000/svg" xmlns:xlink="http://www.w3.org/1999/xlink" x="0px" y="0px"
	 width="100px" height="100px" viewBox="0 0 100 100" enable-background="new 0 0 100 100" xml:space="preserve">
<g>
	<path d="M52.179,41.451c-5.403,0-9.799,4.396-9.799,9.799s4.396,9.799,9.799,9.799c5.402,0,9.797-4.396,9.797-9.799
		S57.581,41.451,52.179,41.451z M52.179,55.786c-2.501,0-4.536-2.035-4.536-4.536c0-2.501,2.035-4.536,4.536-4.536
		s4.536,2.035,4.536,4.536C56.715,53.751,54.68,55.786,52.179,55.786z"/>
	<path d="M52.179,34.431c-9.273,0-16.818,7.545-16.818,16.819c0,9.274,7.544,16.819,16.818,16.819s16.818-7.545,16.818-16.819
		C68.997,41.976,61.452,34.431,52.179,34.431z M52.179,63.049c-6.506,0-11.799-5.293-11.799-11.799s5.293-11.799,11.799-11.799
		c6.505,0,11.797,5.293,11.797,11.799S58.684,63.049,52.179,63.049z"/>
	<path d="M52.179,24.502c-14.749,0-26.748,11.999-26.748,26.748S37.43,77.998,52.179,77.998c14.749,0,26.748-11.999,26.748-26.748
		S66.928,24.502,52.179,24.502z M52.179,70.069c-10.376,0-18.818-8.442-18.818-18.819s8.442-18.819,18.818-18.819
		c10.377,0,18.818,8.442,18.818,18.819S62.556,70.069,52.179,70.069z"/>
	<circle cx="52.179" cy="51.25" r="2.536"/>
</g>
</svg>
