<?xml version="1.0" encoding="utf-8"?>
<!-- Generator: Adobe Illustrator 17.0.0, SVG Export Plug-In . SVG Version: 6.00 Build 0)  -->
<!DOCTYPE svg PUBLIC "-//W3C//DTD SVG 1.1//EN" "http://www.w3.org/Graphics/SVG/1.1/DTD/svg11.dtd">
<svg version="1.1" id="Layer_1" xmlns="http://www.w3.org/2000/svg" xmlns:xlink="http://www.w3.org/1999/xlink" x="0px" y="0px"
	 width="100px" height="100px" viewBox="0 0 100 100" enable-background="new 0 0 100 100" xml:space="preserve">
<path d="M52.75,16.694c-16.569,0-30,13.431-30,30s13.431,30,30,30s30-13.431,30-30S69.319,16.694,52.75,16.694z M69.285,63.794
	l-1.414-1.414l5.629-5.629l-13.255-0.063v-0.003c-0.259,0-0.508-0.101-0.694-0.28l-8.616-8.321l-8.615,8.321
	c-0.187,0.18-0.436,0.28-0.695,0.28h-12v-2h11.596l8.275-7.992l-8.275-7.992H29.625v-2h12c0.259,0,0.508,0.101,0.695,0.281
	l8.615,8.321l8.616-8.321c0.187-0.18,0.436-0.281,0.694-0.281H64.5v0.023l8.99,0.043l-5.759-5.76l1.414-1.414l8.178,8.178
	l-8.038,8.038l-1.414-1.414l5.629-5.629l-12.855-0.061l-8.27,7.988l8.275,7.992H64.5v0.023l8.99,0.043l-5.759-5.76l1.414-1.414
	l8.178,8.178L69.285,63.794z"/>
</svg>
