<?xml version="1.0" encoding="utf-8"?>
<!-- Generator: Adobe Illustrator 17.0.0, SVG Export Plug-In . SVG Version: 6.00 Build 0)  -->
<!DOCTYPE svg PUBLIC "-//W3C//DTD SVG 1.1//EN" "http://www.w3.org/Graphics/SVG/1.1/DTD/svg11.dtd">
<svg version="1.1" id="Layer_1" xmlns="http://www.w3.org/2000/svg" xmlns:xlink="http://www.w3.org/1999/xlink" x="0px" y="0px"
	 width="100px" height="100px" viewBox="0 0 100 100" enable-background="new 0 0 100 100" xml:space="preserve">
<g>
	<path d="M21.858,50.219l-7.687-0.015v2l7.688,0.015c-0.011-0.338-0.026-0.676-0.026-1.017
		C21.833,50.872,21.848,50.546,21.858,50.219z"/>
	<path d="M89.495,50.199l-7.688-0.015c0.011,0.338,0.026,0.676,0.026,1.017c0,0.329-0.014,0.656-0.025,0.982l7.687,0.015V50.199z"/>
	<path d="M50.851,81.177l-0.015,7.687h2l0.015-7.688c-0.338,0.011-0.676,0.026-1.017,0.026
		C51.504,81.202,51.178,81.188,50.851,81.177z"/>
	<path d="M52.816,21.227l0.015-7.687h-2l-0.015,7.688c0.338-0.011,0.676-0.026,1.017-0.026
		C52.163,21.202,52.489,21.216,52.816,21.227z"/>
	<path d="M63.009,57.896l-1.414,1.414l-8.178-8.178l8.038-8.038l1.414,1.414l-5.629,5.629l24.567,0.048
		c-0.527-15.77-13.217-28.449-28.992-28.958l-0.048,24.558l5.76-5.759l1.414,1.414l-8.178,8.178l-8.038-8.038l1.414-1.414
		l5.629,5.629l0.048-24.567c-15.77,0.527-28.449,13.217-28.958,28.992l24.558,0.048l-5.759-5.76l1.414-1.414l8.178,8.178
		l-8.038,8.038l-1.414-1.414l5.629-5.629l-24.567-0.048c0.527,15.77,13.217,28.449,28.992,28.958l0.048-24.558l-5.76,5.759
		l-1.414-1.414l8.178-8.178l8.038,8.038l-1.414,1.414l-5.629-5.629l-0.048,24.567C68.62,80.649,81.3,67.959,81.808,52.184
		L57.25,52.136L63.009,57.896z"/>
</g>
</svg>
