<?xml version="1.0" encoding="utf-8"?>
<!-- Generator: Adobe Illustrator 17.0.0, SVG Export Plug-In . SVG Version: 6.00 Build 0)  -->
<!DOCTYPE svg PUBLIC "-//W3C//DTD SVG 1.1//EN" "http://www.w3.org/Graphics/SVG/1.1/DTD/svg11.dtd">
<svg version="1.1" id="Layer_1" xmlns="http://www.w3.org/2000/svg" xmlns:xlink="http://www.w3.org/1999/xlink" x="0px" y="0px"
	 width="100px" height="100px" viewBox="0 0 100 100" enable-background="new 0 0 100 100" xml:space="preserve">
<path d="M41.934,35.626c0-4.448,3.618-8.066,8.066-8.066c4.448,0,8.066,3.618,8.066,8.066c0,3.007-1.731,5.792-4.416,7.167h-7.301
	C43.665,41.418,41.934,38.633,41.934,35.626z"/>
<path d="M46.804,44.793h6.39c2.57,7.592,5.369,13.257,8.074,16.384H38.73C41.437,58.048,44.236,52.382,46.804,44.793z"/>
<polygon points="70.778,71.425 29.223,71.425 29.223,63.177 33.348,63.177 36.531,63.177 63.467,63.177 66.652,63.177 
	70.778,63.177 "/>
</svg>
