<?xml version="1.0" encoding="utf-8"?>
<!-- Generator: Adobe Illustrator 17.0.0, SVG Export Plug-In . SVG Version: 6.00 Build 0)  -->
<!DOCTYPE svg PUBLIC "-//W3C//DTD SVG 1.1//EN" "http://www.w3.org/Graphics/SVG/1.1/DTD/svg11.dtd">
<svg version="1.1" id="Layer_1" xmlns="http://www.w3.org/2000/svg" xmlns:xlink="http://www.w3.org/1999/xlink" x="0px" y="0px"
	 width="100px" height="100px" viewBox="0 0 100 100" enable-background="new 0 0 100 100" xml:space="preserve">
<g>
	<path d="M21.333,64.167V76.5h12.333v-5.167v-7.166H26.5H21.333z M31.667,74.5h-8.333v-8.333h8.333V74.5z"/>
	<path d="M33.667,28.333v-7.167V16H21.333v12.333H26.5H33.667z M23.333,18h8.333v8.333h-8.333V18z"/>
	<path d="M74.667,30.333H67.5v-7.167H35.667v7.167H28.5v31.833h7.167v7.166H67.5v-7.166h7.167V30.333z M72.667,60.167H65.5v7.166
		H37.667v-7.166H30.5V32.333h7.167v-7.167H65.5v7.167h7.167V60.167z"/>
	<path d="M85.833,32.333V12H65.5v7.167H37.667V12H17.333v20.333H24.5v27.833h-7.167V80.5h20.333v-7.167H65.5V80.5h20.333V60.167
		h-7.166V32.333H85.833z M83.833,62.167V78.5H67.5v-7.167H35.667V78.5H19.333V62.167H26.5V30.333h-7.167V14h16.333v7.167H67.5V14
		h16.333v16.333h-7.166v31.833H83.833z"/>
	<path d="M81.833,28.333V16H69.5v5.167v7.167h7.167H81.833z M71.5,18h8.333v8.333H71.5V18z"/>
	<path d="M69.5,64.167v7.166V76.5h12.333V64.167h-5.166H69.5z M79.833,74.5H71.5v-8.333h8.333V74.5z"/>
</g>
</svg>
