<?xml version="1.0" encoding="utf-8"?>
<!-- Generator: Adobe Illustrator 17.0.0, SVG Export Plug-In . SVG Version: 6.00 Build 0)  -->
<!DOCTYPE svg PUBLIC "-//W3C//DTD SVG 1.1//EN" "http://www.w3.org/Graphics/SVG/1.1/DTD/svg11.dtd">
<svg version="1.1" id="Layer_1" xmlns="http://www.w3.org/2000/svg" xmlns:xlink="http://www.w3.org/1999/xlink" x="0px" y="0px"
	 width="100px" height="100px" viewBox="0 0 100 100" enable-background="new 0 0 100 100" xml:space="preserve">
<path d="M49.792,21.188c-16.569,0-30,13.431-30,30s13.431,30,30,30s30-13.431,30-30S66.36,21.188,49.792,21.188z M53.958,63.914
	H36.453v-2h17.505c3.954,0,7.172-3.218,7.172-7.172c0-3.955-3.218-7.172-7.172-7.172h-1.438v-0.007l-12.235-0.059l5.759,5.76
	l-1.414,1.414l-8.178-8.178l8.038-8.038l1.414,1.414l-5.629,5.629l13.255,0.063v0.002h0.427c5.058,0,9.172,4.115,9.172,9.172
	C63.13,59.8,59.016,63.914,53.958,63.914z"/>
</svg>
