<?xml version="1.0" encoding="utf-8"?>
<!-- Generator: Adobe Illustrator 17.0.0, SVG Export Plug-In . SVG Version: 6.00 Build 0)  -->
<!DOCTYPE svg PUBLIC "-//W3C//DTD SVG 1.1//EN" "http://www.w3.org/Graphics/SVG/1.1/DTD/svg11.dtd">
<svg version="1.1" id="Layer_1" xmlns="http://www.w3.org/2000/svg" xmlns:xlink="http://www.w3.org/1999/xlink" x="0px" y="0px"
	 width="100px" height="100px" viewBox="0 0 100 100" enable-background="new 0 0 100 100" xml:space="preserve">
<g>
	<path d="M78.433,79.639L72.09,45c-0.29-1.585-1.671-2.736-3.283-2.736H55.069v-0.645h18.13c1.84,0,3.337-1.498,3.337-3.338v-9.758
		c0-1.839-1.497-3.336-3.337-3.336s-3.337,1.497-3.337,3.336v6.422h-36.26v-6.422c0-1.839-1.497-3.336-3.337-3.336
		s-3.337,1.497-3.337,3.336v9.758c0,1.841,1.497,3.338,3.337,3.338h18.13v0.645H32.948c-1.624,0-3.006,1.16-3.286,2.758
		l-6.099,34.641c-0.172,0.977,0.095,1.969,0.731,2.723c0.636,0.759,1.567,1.193,2.556,1.193h48.3c0.991,0,1.926-0.438,2.564-1.203
		C78.35,81.611,78.611,80.613,78.433,79.639z M51,70.488c-4.71,0-8.542-3.832-8.542-8.543c0-3.677,2.368-6.927,5.893-8.086
		l1.312-0.432v8.518c0,0.736,0.6,1.336,1.337,1.336s1.337-0.6,1.337-1.336v-8.518l1.312,0.432c3.524,1.159,5.893,4.409,5.893,8.086
		C59.542,66.656,55.71,70.488,51,70.488z"/>
	<path d="M54.337,56.354v5.591c0,1.84-1.497,3.336-3.337,3.336s-3.337-1.496-3.337-3.336v-5.591
		c-1.961,1.159-3.205,3.264-3.205,5.591c0,3.607,2.935,6.543,6.542,6.543s6.542-2.936,6.542-6.543
		C57.542,59.618,56.298,57.514,54.337,56.354z"/>
</g>
</svg>
