<?xml version="1.0" encoding="utf-8"?>
<!-- Generator: Adobe Illustrator 17.0.0, SVG Export Plug-In . SVG Version: 6.00 Build 0)  -->
<!DOCTYPE svg PUBLIC "-//W3C//DTD SVG 1.1//EN" "http://www.w3.org/Graphics/SVG/1.1/DTD/svg11.dtd">
<svg version="1.1" id="Layer_1" xmlns="http://www.w3.org/2000/svg" xmlns:xlink="http://www.w3.org/1999/xlink" x="0px" y="0px"
	 width="100px" height="100px" viewBox="0 0 100 100" enable-background="new 0 0 100 100" xml:space="preserve">
<path d="M62,35.902c-0.289,0-0.573,0.025-0.857,0.043C62.314,33.994,63,31.72,63,29.284c0-7.168-5.832-13-13-13s-13,5.832-13,13
	c0,2.437,0.686,4.71,1.857,6.662c-0.285-0.019-0.568-0.043-0.857-0.043c-7.168,0-13,5.832-13,13c0,6.943,5.477,12.617,12.335,12.966
	L50,90.364l12.665-28.496C69.523,61.519,75,55.845,75,48.902C75,41.734,69.168,35.902,62,35.902z M50,85.44L39.539,61.902h20.922
	L50,85.44z"/>
</svg>
