<?xml version="1.0" encoding="utf-8"?>
<!-- Generator: Adobe Illustrator 17.0.0, SVG Export Plug-In . SVG Version: 6.00 Build 0)  -->
<!DOCTYPE svg PUBLIC "-//W3C//DTD SVG 1.1//EN" "http://www.w3.org/Graphics/SVG/1.1/DTD/svg11.dtd">
<svg version="1.1" id="Layer_1" xmlns="http://www.w3.org/2000/svg" xmlns:xlink="http://www.w3.org/1999/xlink" x="0px" y="0px"
	 width="100px" height="100px" viewBox="0 0 100 100" enable-background="new 0 0 100 100" xml:space="preserve">
<g>
	<path d="M68.667,77.34H32.169v-6.675h14.995v-3.273c-1.588,0.586-3.27,0.892-4.939,0.892c-7.935,0-14.391-6.456-14.391-14.391
		c0-5.681,3.384-10.844,8.513-13.136c-0.35-1.253-0.527-2.547-0.527-3.858c0-7.935,6.455-14.39,14.389-14.39
		c7.935,0,14.391,6.456,14.391,14.39c0,1.236-0.157,2.459-0.47,3.646c5.445,2.176,9.039,7.423,9.039,13.347
		c0,7.935-6.455,14.391-14.389,14.391c-1.67,0-3.353-0.306-4.941-0.892v3.273h14.828v2.295c0.113,0.34,0.17,0.689,0.17,1.042
		s-0.057,0.702-0.17,1.042V77.34z"/>
</g>
</svg>
