<?xml version="1.0" encoding="utf-8"?>
<!-- Generator: Adobe Illustrator 17.0.0, SVG Export Plug-In . SVG Version: 6.00 Build 0)  -->
<!DOCTYPE svg PUBLIC "-//W3C//DTD SVG 1.1//EN" "http://www.w3.org/Graphics/SVG/1.1/DTD/svg11.dtd">
<svg version="1.1" id="Layer_1" xmlns="http://www.w3.org/2000/svg" xmlns:xlink="http://www.w3.org/1999/xlink" x="0px" y="0px"
	 width="100px" height="100px" viewBox="0 0 100 100" enable-background="new 0 0 100 100" xml:space="preserve">
<g>
	<path d="M64.722,33.492c-0.404-0.495-0.836-0.974-1.297-1.435c-0.461-0.461-0.941-0.894-1.436-1.297
		c-0.021-0.017-0.044-0.032-0.065-0.049c-0.471-0.38-0.954-0.737-1.451-1.066c-0.067-0.044-0.138-0.081-0.205-0.125
		c-0.466-0.3-0.938-0.585-1.423-0.84c-0.033-0.017-0.067-0.031-0.1-0.048c-4.86-2.519-10.585-2.793-15.639-0.835
		c-0.105,0.041-0.213,0.073-0.317,0.116c-0.365,0.149-0.72,0.326-1.076,0.499c-0.22,0.107-0.446,0.203-0.66,0.319
		c-0.24,0.128-0.47,0.278-0.706,0.416c-0.312,0.185-0.629,0.363-0.929,0.565c-0.114,0.076-0.221,0.166-0.334,0.245
		c-2.342,1.652-4.298,3.812-5.697,6.329c-0.032,0.058-0.07,0.114-0.102,0.172c-0.228,0.421-0.43,0.859-0.626,1.299
		c-0.06,0.135-0.13,0.267-0.187,0.404c-0.159,0.379-0.292,0.772-0.427,1.163c-0.07,0.205-0.151,0.407-0.214,0.614
		c-0.107,0.349-0.188,0.709-0.275,1.066c-0.061,0.252-0.134,0.502-0.184,0.756c-0.073,0.368-0.12,0.745-0.171,1.12
		c-0.033,0.243-0.081,0.484-0.105,0.727C31.034,44.224,31,44.849,31,45.482c0,0.644,0.034,1.28,0.097,1.907
		c0.012,0.125,0.039,0.248,0.054,0.372c0.061,0.505,0.13,1.007,0.229,1.499c0.023,0.117,0.059,0.232,0.085,0.349
		c0.112,0.505,0.234,1.007,0.385,1.496c0.014,0.046,0.033,0.09,0.047,0.136c1.865,5.849,6.488,10.474,12.336,12.342
		c0.049,0.016,0.097,0.036,0.147,0.051c0.484,0.15,0.981,0.27,1.481,0.382c0.122,0.027,0.241,0.064,0.363,0.089
		c0.485,0.098,0.981,0.166,1.478,0.226c0.131,0.016,0.261,0.043,0.392,0.056c0.627,0.063,1.262,0.096,1.905,0.096
		c0.633,0,1.258-0.034,1.875-0.095c0.246-0.024,0.49-0.072,0.736-0.106c0.372-0.052,0.747-0.097,1.112-0.17
		c0.255-0.051,0.505-0.124,0.758-0.185c0.357-0.087,0.715-0.168,1.064-0.274c0.207-0.063,0.409-0.144,0.614-0.214
		c0.392-0.135,0.784-0.268,1.164-0.427c0.135-0.056,0.266-0.126,0.4-0.185c0.441-0.197,0.88-0.399,1.303-0.629
		c0.055-0.03,0.108-0.065,0.162-0.096c2.53-1.405,4.701-3.372,6.357-5.729c0.072-0.103,0.154-0.2,0.223-0.304
		c0.208-0.308,0.39-0.633,0.58-0.954c0.133-0.227,0.278-0.449,0.401-0.68c0.12-0.223,0.22-0.457,0.33-0.685
		c0.168-0.349,0.342-0.695,0.487-1.051c0.046-0.112,0.082-0.23,0.126-0.343c1.947-5.045,1.673-10.755-0.839-15.607
		c-0.019-0.037-0.035-0.075-0.054-0.112c-0.253-0.482-0.537-0.951-0.834-1.414c-0.045-0.07-0.084-0.145-0.13-0.214
		c-0.327-0.494-0.682-0.975-1.06-1.443C64.758,33.541,64.741,33.515,64.722,33.492z M65.079,37.667
		c2.235,4.317,2.508,9.409,0.756,13.95c-0.031,0.079-0.061,0.16-0.117,0.323c-0.104,0.255-0.228,0.505-0.349,0.755l-0.217,0.454
		c-0.053,0.112-0.104,0.226-0.168,0.346c-0.064,0.121-0.138,0.238-0.209,0.355L64.5,54.312c-0.126,0.216-0.251,0.432-0.444,0.711
		c-0.052,0.068-0.104,0.137-0.146,0.199c-1.484,2.112-3.452,3.887-5.689,5.129l-0.146,0.087c-0.379,0.205-0.773,0.386-1.164,0.561
		l-0.359,0.167c-0.324,0.136-0.659,0.249-1.032,0.378l-0.287,0.102c-0.087,0.032-0.175,0.065-0.27,0.094
		c-0.244,0.075-0.494,0.134-0.744,0.193l-0.511,0.127c-0.124,0.032-0.248,0.065-0.377,0.091c-0.267,0.054-0.539,0.089-0.811,0.125
		l-0.495,0.072c-0.115,0.019-0.23,0.038-0.344,0.05c-0.576,0.057-1.142,0.085-1.68,0.085c-0.555,0-1.129-0.029-1.711-0.087
		l-0.349-0.053c-0.445-0.053-0.888-0.112-1.415-0.224l-0.229-0.057c-0.446-0.1-0.891-0.205-1.312-0.337l-0.142-0.049
		c-5.241-1.675-9.368-5.803-11.039-11.045L33.76,50.51c-0.136-0.436-0.243-0.885-0.342-1.333l-0.078-0.314
		c-0.089-0.439-0.149-0.889-0.204-1.343l-0.049-0.331C33.029,46.616,33,46.042,33,45.482c0-0.54,0.029-1.105,0.085-1.68
		c0.011-0.115,0.031-0.229,0.049-0.342l0.073-0.499c0.037-0.272,0.072-0.544,0.125-0.81c0.026-0.13,0.061-0.258,0.094-0.386
		l0.122-0.491c0.061-0.252,0.12-0.505,0.196-0.755c0.028-0.092,0.062-0.184,0.095-0.274l0.123-0.348
		c0.112-0.325,0.222-0.649,0.357-0.972l0.165-0.353c0.176-0.393,0.355-0.785,0.562-1.165l0.089-0.152
		c1.237-2.225,3.001-4.185,5.098-5.663c0.072-0.05,0.302-0.224,0.302-0.224c0.197-0.132,0.402-0.251,0.607-0.372l0.478-0.285
		c0.123-0.075,0.246-0.151,0.378-0.222c0.102-0.055,0.208-0.103,0.314-0.152l0.43-0.206c0.266-0.129,0.531-0.259,0.879-0.397
		l0.208-0.076c1.973-0.764,4.051-1.152,6.176-1.152c2.721,0,5.424,0.656,7.825,1.901l0.086,0.041
		c0.382,0.201,0.798,0.446,1.259,0.743c0.06,0.039,0.121,0.076,0.197,0.12c0.431,0.285,0.867,0.605,1.273,0.933l0.081,0.062
		c0.443,0.362,0.877,0.753,1.285,1.161c0.406,0.406,0.797,0.839,1.115,1.227l0.094,0.124c0.349,0.431,0.668,0.866,0.961,1.312
		l0.104,0.173c0.302,0.467,0.545,0.88,0.731,1.234L65.079,37.667z"/>
	<path d="M65.924,16.407v6h2.909l-4.852,4.852C59.967,24.166,55.07,22.482,50,22.482c-3.649,0-7.162,0.852-10.433,2.526l-0.126,0.06
		c-0.118,0.055-0.236,0.11-0.361,0.177c-0.139,0.075-0.272,0.157-0.406,0.24L38.52,25.58c-1.784,1.025-3.396,2.253-4.794,3.649
		c-1.482,1.482-2.767,3.194-3.839,5.12c-0.042,0.068-0.083,0.137-0.125,0.214c-0.271,0.502-0.509,1.016-0.739,1.53l-0.072,0.152
		c-0.06,0.125-0.119,0.25-0.174,0.382c-0.177,0.426-0.328,0.859-0.496,1.35l-0.079,0.219c-0.07,0.192-0.139,0.386-0.2,0.583
		c-0.102,0.336-0.185,0.676-0.267,1.016l-0.116,0.466c-0.062,0.239-0.123,0.478-0.172,0.727c-0.064,0.324-0.11,0.65-0.155,0.977
		l-0.08,0.546c-0.038,0.236-0.074,0.471-0.097,0.712c-0.065,0.661-0.1,1.341-0.104,2.026L27,45.487c0,0.737,0.039,1.506,0.116,2.292
		c0.015,0.146,0.037,0.289,0.06,0.432l0.026,0.173c0.07,0.553,0.145,1.105,0.255,1.655c0.026,0.132,0.059,0.262,0.093,0.391
		l0.037,0.146c0.128,0.567,0.266,1.132,0.438,1.693c0.024,0.078,0.051,0.154,0.092,0.269c1.129,3.523,3.017,6.625,5.61,9.219
		c2.593,2.592,5.693,4.479,9.251,5.621c0.078,0.029,0.155,0.057,0.237,0.082c0.557,0.171,1.12,0.308,1.683,0.436l0.156,0.039
		c0.128,0.033,0.256,0.065,0.396,0.094c0.514,0.102,1.032,0.175,1.551,0.24v5.723h-4.5v6H47v4.333h6V79.99h4.5v-6H53v-5.725
		l0.475-0.069c0.342-0.046,0.684-0.094,1.021-0.161c0.247-0.049,0.489-0.11,0.732-0.174l0.448-0.112
		c0.344-0.082,0.688-0.166,1.032-0.271c0.187-0.057,0.368-0.122,0.55-0.188l0.252-0.09c0.453-0.155,0.904-0.312,1.349-0.497
		c0.125-0.052,0.246-0.109,0.368-0.168l0.142-0.067c0.525-0.233,1.046-0.476,1.558-0.752c0.067-0.036,0.132-0.075,0.214-0.126
		c1.902-1.055,3.623-2.345,5.113-3.834c1.421-1.42,2.664-3.06,3.692-4.865l0.079-0.13c0.071-0.114,0.142-0.229,0.218-0.368
		c0.069-0.132,0.133-0.266,0.194-0.399l0.076-0.161C72.163,52.575,73,49.093,73,45.482c0-5.069-1.685-9.966-4.776-13.98l4.782-4.782
		v3.089h6V16.407H65.924z M77.006,27.809h-2v-5.918l-9.49,9.49C68.911,35.112,71,40.052,71,45.482c0,3.4-0.83,6.603-2.271,9.447
		c-0.087,0.174-0.161,0.353-0.253,0.525c-0.082,0.15-0.178,0.291-0.263,0.439c-0.906,1.59-2.018,3.093-3.373,4.449
		c-1.418,1.418-2.996,2.573-4.668,3.499c-0.067,0.037-0.13,0.08-0.198,0.117c-0.464,0.25-0.938,0.47-1.416,0.683
		c-0.157,0.07-0.309,0.15-0.468,0.217c-0.412,0.172-0.832,0.315-1.253,0.459c-0.238,0.082-0.472,0.175-0.714,0.249
		c-0.372,0.113-0.75,0.198-1.126,0.29c-0.296,0.073-0.588,0.157-0.889,0.217c-0.379,0.075-0.762,0.121-1.143,0.175
		c-0.3,0.043-0.596,0.1-0.9,0.13c-0.354,0.035-0.709,0.04-1.064,0.057v9.556h4.5v2H51v4.333h-2V77.99h-4.5v-2H49v-9.555
		c-0.365-0.017-0.731-0.023-1.095-0.059c-0.188-0.019-0.37-0.057-0.557-0.08c-0.505-0.063-1.009-0.131-1.508-0.231
		c-0.168-0.034-0.33-0.083-0.497-0.121c-0.517-0.117-1.032-0.241-1.54-0.397c-0.085-0.026-0.167-0.06-0.251-0.088
		c-3.076-0.986-5.973-2.681-8.41-5.118c-2.438-2.438-4.133-5.337-5.119-8.414c-0.027-0.083-0.06-0.163-0.086-0.247
		c-0.156-0.51-0.281-1.026-0.398-1.544c-0.038-0.165-0.086-0.326-0.12-0.493c-0.1-0.5-0.168-1.005-0.231-1.51
		c-0.024-0.186-0.061-0.368-0.08-0.556C29.037,46.882,29,46.185,29,45.487c0-0.002,0-0.003,0-0.005c0-0.055,0.008-0.108,0.008-0.163
		c0.005-0.634,0.034-1.269,0.096-1.901c0.03-0.307,0.088-0.606,0.131-0.91c0.054-0.378,0.099-0.757,0.173-1.133
		c0.061-0.305,0.146-0.601,0.219-0.901c0.091-0.372,0.175-0.746,0.287-1.114c0.075-0.247,0.17-0.484,0.254-0.727
		c0.143-0.416,0.285-0.831,0.454-1.239c0.069-0.164,0.151-0.321,0.224-0.484c0.211-0.472,0.428-0.941,0.675-1.399
		c0.042-0.077,0.09-0.149,0.133-0.225c0.925-1.663,2.075-3.234,3.485-4.644c1.335-1.335,2.813-2.431,4.376-3.33
		c0.174-0.101,0.34-0.214,0.517-0.31c0.143-0.077,0.292-0.137,0.437-0.211c2.864-1.466,6.097-2.31,9.529-2.31
		c5.43,0,10.37,2.09,14.102,5.484l9.56-9.56h-5.737v-2h9.082V27.809z"/>
</g>
</svg>
