<?xml version="1.0" encoding="utf-8"?>
<!-- Generator: Adobe Illustrator 16.0.0, SVG Export Plug-In . SVG Version: 6.00 Build 0)  -->
<!DOCTYPE svg PUBLIC "-//W3C//DTD SVG 1.1//EN" "http://www.w3.org/Graphics/SVG/1.1/DTD/svg11.dtd">
<svg version="1.1" id="Layer_1" xmlns="http://www.w3.org/2000/svg" xmlns:xlink="http://www.w3.org/1999/xlink" x="0px" y="0px"
	 width="100px" height="100px" viewBox="0 0 100 100" enable-background="new 0 0 100 100" xml:space="preserve">
<g>
	<path d="M54.709,39.017c-0.491-0.493-1.35-0.493-1.843,0c-0.508,0.508-0.508,1.334,0,1.842l4.185,4.183H42.05
		c-0.719,0-1.304,0.584-1.304,1.303v14.584c0,0.719,0.585,1.303,1.304,1.303s1.303-0.584,1.303-1.303V47.646h13.733l-3.744,3.74
		c-0.507,0.509-0.508,1.336,0,1.843c0.493,0.49,1.346,0.493,1.843-0.001l5.948-5.948c0.507-0.507,0.506-1.333-0.002-1.841
		L54.709,39.017z"/>
	<path d="M83.861,48.099L53.465,17.705c-1.249-1.249-3.421-1.247-4.669,0L18.4,48.099c-0.624,0.624-0.967,1.453-0.967,2.335
		c0,0.871,0.353,1.721,0.967,2.334l30.396,30.396c0.625,0.623,1.454,0.966,2.334,0.966c0.88,0,1.708-0.343,2.335-0.967
		l30.396-30.396c0.614-0.614,0.967-1.465,0.967-2.334C84.828,49.566,84.476,48.715,83.861,48.099z M62.547,48.694l-5.949,5.95
		c-1.252,1.25-3.415,1.248-4.669,0.002c-1.287-1.287-1.288-3.382-0.002-4.672l0.327-0.327h-6.901v11.282
		c0,1.821-1.482,3.303-3.303,3.303c-1.822,0-3.304-1.481-3.304-3.303V46.344c0-1.821,1.482-3.303,3.304-3.303h10.171l-0.769-0.769
		c-1.288-1.288-1.288-3.382,0-4.67c1.247-1.249,3.427-1.249,4.671,0l6.422,6.422C63.833,45.311,63.834,47.406,62.547,48.694z"/>
</g>
</svg>
