<?xml version="1.0" encoding="utf-8"?>
<!-- Generator: Adobe Illustrator 17.0.0, SVG Export Plug-In . SVG Version: 6.00 Build 0)  -->
<!DOCTYPE svg PUBLIC "-//W3C//DTD SVG 1.1//EN" "http://www.w3.org/Graphics/SVG/1.1/DTD/svg11.dtd">
<svg version="1.1" id="Layer_1" xmlns="http://www.w3.org/2000/svg" xmlns:xlink="http://www.w3.org/1999/xlink" x="0px" y="0px"
	 width="100px" height="100px" viewBox="0 0 100 100" enable-background="new 0 0 100 100" xml:space="preserve">
<path d="M69.194,51.173l3.843-3.843l-3.259-3.259c1.722-1.755,5.625-6.319,4.046-10.271c-1.56-3.902-7.677-5.716-18.654-5.535
	c0.148-0.349,0.342-0.683,0.586-0.99l1.464-1.849l-2.346,0.233c-1.288,0.128-2.537-0.309-3.427-1.199
	c-0.889-0.889-1.327-2.138-1.2-3.425l0.162-1.64l-1.53,0.613c-1.17,0.47-2.491,0.383-3.623-0.24l-1.782-0.98l0.313,2.01
	c0.213,1.366-0.218,2.701-1.179,3.662c-0.555,0.555-1.267,0.944-2.061,1.125l-2.142,0.489l1.775,1.295
	c0.177,0.129,0.357,0.256,0.517,0.416c0.912,0.912,1.347,2.188,1.193,3.502l-0.148,1.257l1.257-0.147
	c1.963-0.231,3.85,0.873,4.511,2.871l0.534,1.623l2.004-2.193c1.144-1.144,2.703-1.739,4.173-1.593l1.741,0.173l-0.735-1.588
	c-0.211-0.458-0.327-0.938-0.368-1.421c13.253-0.261,16.414,2.545,17.107,4.273c1.05,2.625-1.803,6.295-3.598,8.121l-3.993-3.993
	l-4.033,4.033c-9.063-4.939-20.348-3.34-27.699,4.011c-9.114,9.114-9.114,23.944,0,33.057s23.944,9.114,33.057,0
	C73.282,72.187,74.693,60.286,69.194,51.173z"/>
</svg>
