<?xml version="1.0" encoding="utf-8"?>
<!-- Generator: Adobe Illustrator 16.0.0, SVG Export Plug-In . SVG Version: 6.00 Build 0)  -->
<!DOCTYPE svg PUBLIC "-//W3C//DTD SVG 1.1//EN" "http://www.w3.org/Graphics/SVG/1.1/DTD/svg11.dtd">
<svg version="1.1" id="Layer_1" xmlns="http://www.w3.org/2000/svg" xmlns:xlink="http://www.w3.org/1999/xlink" x="0px" y="0px"
	 width="100px" height="100px" viewBox="0 0 100 100" enable-background="new 0 0 100 100" xml:space="preserve">
<path d="M71.529,69.417c-0.276-0.267-0.569-0.512-0.854-0.768c-0.208-0.187-0.411-0.38-0.624-0.561
	c-0.603-0.513-1.222-1.003-1.859-1.467c-0.053-0.038-0.102-0.082-0.154-0.12c-0.695-0.498-1.414-0.962-2.148-1.401
	c-0.22-0.131-0.446-0.248-0.668-0.374c-0.368-0.208-0.73-0.426-1.107-0.619c0.067-0.175,0.127-0.354,0.191-0.529
	c0.083-0.223,0.165-0.446,0.243-0.67c0.124-0.357,0.241-0.716,0.355-1.076c0.067-0.214,0.137-0.427,0.2-0.641
	c0.119-0.4,0.228-0.803,0.333-1.207c0.046-0.177,0.098-0.353,0.141-0.53c0.145-0.584,0.276-1.171,0.393-1.763
	c0.006-0.026,0.009-0.053,0.014-0.079c0.11-0.564,0.207-1.132,0.292-1.702c0.028-0.191,0.05-0.384,0.075-0.576
	c0.055-0.408,0.107-0.817,0.149-1.229c0.022-0.227,0.04-0.455,0.06-0.683c0.032-0.382,0.062-0.765,0.083-1.149
	c0.013-0.237,0.023-0.476,0.032-0.714c0.007-0.187,0.021-0.372,0.025-0.559h12.282C78.751,57.854,76.132,64.324,71.529,69.417z"/>
<path d="M60.721,66.766c-0.258,0.5-0.532,0.987-0.812,1.471c-0.114,0.197-0.22,0.399-0.338,0.594
	c-0.406,0.67-0.832,1.325-1.28,1.961c-0.074,0.104-0.155,0.201-0.23,0.305c-0.381,0.526-0.771,1.042-1.18,1.541
	c-0.165,0.202-0.34,0.395-0.51,0.592c-0.332,0.387-0.668,0.769-1.017,1.137c-0.199,0.211-0.405,0.415-0.61,0.62
	c-0.337,0.337-0.679,0.665-1.028,0.984c-0.22,0.199-0.44,0.396-0.664,0.589c-0.358,0.307-0.724,0.601-1.093,0.889
	c-0.227,0.176-0.451,0.354-0.682,0.522c-0.09,0.066-0.186,0.124-0.276,0.189V62.738c0.117,0.004,0.236,0.004,0.354,0.01
	c0.193,0.009,0.386,0.02,0.578,0.032c0.313,0.021,0.627,0.047,0.938,0.077c0.19,0.019,0.382,0.037,0.571,0.06
	c0.33,0.039,0.657,0.086,0.984,0.136c0.165,0.025,0.331,0.047,0.496,0.075c0.454,0.077,0.906,0.165,1.355,0.265
	c0.033,0.008,0.067,0.013,0.102,0.021c0.481,0.108,0.96,0.231,1.436,0.365c0.151,0.042,0.302,0.091,0.453,0.136
	c0.325,0.098,0.65,0.197,0.973,0.306c0.177,0.06,0.353,0.124,0.528,0.188c0.297,0.106,0.593,0.217,0.887,0.334
	c0.179,0.071,0.357,0.144,0.535,0.218c0.106,0.045,0.212,0.095,0.318,0.141c-0.13,0.289-0.26,0.579-0.397,0.863
	C60.982,66.231,60.856,66.502,60.721,66.766z"/>
<path d="M44.54,74.404c-0.35-0.368-0.687-0.751-1.02-1.138c-0.168-0.196-0.343-0.385-0.507-0.585
	c-0.453-0.553-0.891-1.122-1.311-1.709c-0.033-0.045-0.068-0.087-0.101-0.132c-0.45-0.635-0.875-1.29-1.283-1.959
	c-0.129-0.212-0.246-0.433-0.37-0.647c-0.271-0.467-0.537-0.937-0.786-1.418c-0.138-0.268-0.266-0.541-0.397-0.812
	c-0.137-0.282-0.266-0.569-0.395-0.855c0.106-0.047,0.211-0.097,0.317-0.142c0.187-0.079,0.374-0.156,0.561-0.231
	c0.292-0.116,0.585-0.228,0.88-0.335c0.18-0.065,0.36-0.131,0.541-0.193c0.325-0.11,0.651-0.212,0.979-0.311
	c0.152-0.046,0.304-0.096,0.458-0.14c0.48-0.136,0.964-0.262,1.451-0.372c0.031-0.007,0.063-0.012,0.095-0.019
	c0.457-0.103,0.917-0.192,1.378-0.272c0.164-0.027,0.33-0.05,0.494-0.075c0.333-0.052,0.666-0.1,1.001-0.14
	c0.191-0.022,0.383-0.041,0.575-0.06c0.316-0.031,0.632-0.058,0.95-0.079c0.195-0.013,0.391-0.024,0.587-0.033
	c0.121-0.006,0.242-0.006,0.363-0.01v15.518c-0.119-0.084-0.242-0.16-0.36-0.246c-0.24-0.175-0.475-0.356-0.71-0.539
	c-0.361-0.28-0.717-0.568-1.066-0.866c-0.23-0.197-0.459-0.396-0.685-0.602c-0.345-0.313-0.682-0.638-1.014-0.969
	C44.956,74.826,44.744,74.62,44.54,74.404z"/>
<path d="M36.365,59.515c-0.047-0.18-0.098-0.358-0.143-0.539c-0.125-0.509-0.24-1.021-0.343-1.535
	c-0.008-0.043-0.02-0.085-0.028-0.128c-0.11-0.561-0.206-1.124-0.291-1.691c-0.025-0.17-0.044-0.342-0.067-0.513
	c-0.053-0.397-0.104-0.795-0.145-1.195c-0.022-0.214-0.039-0.429-0.057-0.643c-0.031-0.363-0.058-0.727-0.079-1.092
	c-0.013-0.228-0.023-0.455-0.032-0.683c-0.006-0.165-0.007-0.331-0.012-0.496H49v9.727c-0.144,0.005-0.285,0.017-0.429,0.023
	c-0.211,0.01-0.423,0.021-0.634,0.035c-0.342,0.021-0.683,0.051-1.023,0.084c-0.201,0.02-0.402,0.038-0.603,0.062
	c-0.372,0.044-0.741,0.098-1.11,0.155c-0.163,0.025-0.327,0.046-0.49,0.073c-0.528,0.091-1.053,0.193-1.575,0.311
	c-0.06,0.014-0.118,0.031-0.178,0.045c-0.461,0.107-0.921,0.225-1.377,0.354c-0.175,0.05-0.349,0.105-0.523,0.158
	c-0.34,0.103-0.68,0.208-1.017,0.323c-0.196,0.066-0.391,0.138-0.585,0.208c-0.316,0.114-0.63,0.234-0.943,0.359
	c-0.196,0.078-0.391,0.158-0.586,0.24c-0.113,0.048-0.228,0.091-0.341,0.141c-0.053-0.14-0.11-0.278-0.162-0.418
	c-0.077-0.208-0.152-0.417-0.225-0.626c-0.118-0.338-0.23-0.678-0.337-1.019c-0.064-0.204-0.13-0.407-0.191-0.612
	C36.562,60.256,36.462,59.886,36.365,59.515z"/>
<path d="M35.208,47.907c0.02-0.354,0.045-0.706,0.074-1.057c0.017-0.203,0.032-0.406,0.052-0.609
	c0.038-0.384,0.084-0.767,0.134-1.149c0.021-0.163,0.039-0.327,0.062-0.49c0.078-0.542,0.166-1.082,0.267-1.618
	c0.012-0.064,0.028-0.127,0.041-0.191c0.092-0.471,0.191-0.94,0.302-1.406c0.042-0.181,0.091-0.36,0.136-0.54
	c0.088-0.349,0.179-0.698,0.277-1.044c0.058-0.203,0.119-0.404,0.18-0.605c0.098-0.323,0.199-0.645,0.306-0.965
	c0.069-0.206,0.139-0.412,0.211-0.617c0.042-0.12,0.089-0.239,0.133-0.358c0.115,0.051,0.231,0.095,0.346,0.145
	c0.197,0.085,0.395,0.167,0.592,0.248c0.32,0.131,0.641,0.255,0.964,0.375c0.196,0.072,0.393,0.145,0.59,0.214
	c0.343,0.119,0.689,0.229,1.036,0.335c0.177,0.054,0.353,0.112,0.53,0.164c0.454,0.131,0.911,0.249,1.37,0.358
	c0.071,0.017,0.141,0.038,0.212,0.054c0.53,0.123,1.065,0.229,1.602,0.322c0.164,0.028,0.329,0.049,0.493,0.076
	c0.376,0.059,0.753,0.115,1.133,0.161c0.204,0.024,0.41,0.043,0.615,0.064c0.345,0.034,0.691,0.064,1.039,0.087
	c0.215,0.014,0.432,0.026,0.647,0.036c0.149,0.007,0.297,0.02,0.446,0.025V49H35.168c0.004-0.152,0.005-0.305,0.011-0.457
	C35.187,48.331,35.197,48.119,35.208,47.907z"/>
<path d="M38.945,33.624c0.25-0.502,0.52-0.991,0.792-1.477c0.125-0.223,0.241-0.451,0.37-0.67c0.411-0.696,0.842-1.375,1.298-2.034
	c0.05-0.071,0.105-0.137,0.155-0.208c0.411-0.584,0.837-1.153,1.281-1.704c0.17-0.211,0.351-0.409,0.525-0.615
	c0.338-0.398,0.679-0.793,1.033-1.172c0.21-0.224,0.428-0.438,0.643-0.655c0.339-0.341,0.682-0.676,1.034-0.999
	c0.232-0.213,0.469-0.42,0.708-0.625c0.355-0.306,0.717-0.601,1.085-0.888c0.246-0.191,0.492-0.382,0.743-0.565
	c0.127-0.093,0.259-0.176,0.388-0.266v16.163c-0.127-0.004-0.254-0.005-0.381-0.011c-0.199-0.009-0.398-0.021-0.597-0.034
	c-0.327-0.022-0.652-0.05-0.977-0.082c-0.192-0.02-0.384-0.038-0.576-0.062c-0.345-0.042-0.688-0.092-1.031-0.146
	c-0.165-0.026-0.33-0.048-0.494-0.077c-0.469-0.082-0.936-0.176-1.399-0.281c-0.034-0.007-0.068-0.013-0.102-0.021
	c-0.499-0.115-0.994-0.247-1.486-0.389c-0.146-0.042-0.292-0.091-0.437-0.136c-0.344-0.105-0.687-0.214-1.027-0.333
	c-0.177-0.062-0.352-0.128-0.528-0.193c-0.309-0.114-0.617-0.233-0.923-0.358c-0.182-0.075-0.363-0.151-0.543-0.229
	c-0.121-0.053-0.24-0.11-0.361-0.165c0.132-0.307,0.265-0.613,0.405-0.915C38.677,34.191,38.805,33.904,38.945,33.624z"/>
<path d="M55.498,25.787c0.354,0.38,0.695,0.774,1.033,1.174c0.174,0.206,0.354,0.406,0.522,0.617
	c0.413,0.515,0.809,1.047,1.192,1.59c0.078,0.11,0.163,0.214,0.24,0.325c0.457,0.663,0.891,1.347,1.303,2.047
	c0.108,0.185,0.205,0.378,0.311,0.564c0.293,0.521,0.58,1.046,0.847,1.585c0.132,0.265,0.252,0.536,0.377,0.805
	c0.146,0.314,0.283,0.633,0.42,0.953c-0.114,0.05-0.227,0.104-0.341,0.153c-0.185,0.079-0.37,0.156-0.556,0.231
	c-0.297,0.12-0.595,0.234-0.895,0.344c-0.18,0.066-0.358,0.133-0.539,0.195c-0.33,0.113-0.663,0.218-0.996,0.319
	c-0.151,0.046-0.302,0.096-0.454,0.14c-0.484,0.138-0.973,0.266-1.464,0.379c-0.044,0.01-0.088,0.017-0.132,0.027
	c-0.449,0.101-0.901,0.19-1.355,0.27c-0.165,0.029-0.332,0.051-0.498,0.077c-0.336,0.052-0.673,0.102-1.012,0.142
	c-0.191,0.023-0.384,0.042-0.577,0.061c-0.319,0.032-0.64,0.059-0.961,0.08c-0.197,0.013-0.395,0.025-0.593,0.034
	c-0.123,0.005-0.248,0.006-0.371,0.01V21.843c0.102,0.073,0.208,0.138,0.31,0.212c0.24,0.176,0.476,0.363,0.711,0.548
	c0.376,0.294,0.747,0.595,1.11,0.909c0.233,0.201,0.463,0.407,0.69,0.616c0.356,0.328,0.704,0.666,1.046,1.012
	C55.079,25.353,55.291,25.566,55.498,25.787z"/>
<path d="M63.592,40.887c0.045,0.179,0.094,0.357,0.136,0.537c0.108,0.464,0.208,0.931,0.299,1.4c0.013,0.064,0.028,0.127,0.04,0.191
	c0.101,0.534,0.188,1.07,0.265,1.609c0.023,0.164,0.041,0.329,0.062,0.493c0.049,0.378,0.095,0.757,0.133,1.139
	c0.02,0.201,0.035,0.404,0.052,0.606c0.028,0.35,0.054,0.7,0.072,1.052c0.012,0.21,0.021,0.421,0.029,0.632
	c0.006,0.15,0.006,0.302,0.01,0.452H51v-9.08c0.146-0.004,0.29-0.018,0.436-0.024c0.215-0.01,0.428-0.021,0.642-0.035
	c0.345-0.022,0.688-0.052,1.031-0.086c0.202-0.02,0.404-0.039,0.605-0.062c0.379-0.045,0.755-0.1,1.131-0.159
	c0.159-0.025,0.32-0.045,0.479-0.073c0.533-0.092,1.064-0.196,1.591-0.316c0.061-0.014,0.12-0.031,0.181-0.046
	c0.466-0.109,0.929-0.229,1.39-0.359c0.169-0.048,0.336-0.103,0.504-0.154c0.352-0.106,0.702-0.217,1.05-0.336
	c0.188-0.065,0.376-0.134,0.563-0.202c0.329-0.12,0.656-0.246,0.982-0.377c0.188-0.076,0.374-0.152,0.561-0.232
	c0.116-0.05,0.233-0.094,0.35-0.145c0.043,0.12,0.09,0.238,0.132,0.358c0.071,0.202,0.141,0.406,0.208,0.609
	c0.105,0.319,0.207,0.64,0.304,0.962c0.061,0.202,0.122,0.403,0.18,0.606C63.415,40.194,63.505,40.54,63.592,40.887z"/>
<path d="M64.646,52.175c-0.02,0.359-0.047,0.717-0.077,1.073c-0.019,0.219-0.035,0.438-0.058,0.655
	c-0.04,0.39-0.089,0.777-0.141,1.165c-0.024,0.179-0.044,0.357-0.07,0.536c-0.083,0.562-0.178,1.121-0.287,1.677
	c-0.01,0.052-0.023,0.104-0.034,0.156c-0.101,0.504-0.212,1.004-0.334,1.502c-0.045,0.184-0.097,0.364-0.145,0.547
	c-0.096,0.365-0.193,0.729-0.3,1.09c-0.062,0.211-0.129,0.42-0.195,0.629c-0.104,0.332-0.213,0.663-0.327,0.992
	c-0.075,0.216-0.152,0.432-0.232,0.646c-0.05,0.135-0.104,0.269-0.155,0.403c-0.115-0.05-0.231-0.093-0.347-0.141
	c-0.185-0.077-0.37-0.152-0.556-0.226c-0.318-0.126-0.639-0.247-0.96-0.362c-0.188-0.066-0.374-0.134-0.562-0.197
	c-0.34-0.114-0.682-0.22-1.024-0.322c-0.168-0.051-0.336-0.104-0.505-0.151c-0.457-0.128-0.916-0.244-1.379-0.351
	c-0.055-0.013-0.108-0.028-0.163-0.04c-0.517-0.116-1.036-0.217-1.559-0.305c-0.162-0.028-0.326-0.049-0.488-0.073
	c-0.364-0.056-0.729-0.108-1.095-0.151c-0.199-0.023-0.398-0.042-0.598-0.061c-0.336-0.033-0.673-0.062-1.012-0.084
	c-0.208-0.013-0.416-0.024-0.625-0.034c-0.14-0.006-0.278-0.019-0.418-0.022V51h13.689c-0.005,0.163-0.006,0.327-0.012,0.489
	C64.669,51.719,64.658,51.947,64.646,52.175z"/>
<path d="M66.7,49c-0.004-0.158-0.016-0.314-0.021-0.472c-0.009-0.25-0.02-0.5-0.033-0.75c-0.019-0.342-0.043-0.684-0.071-1.024
	c-0.02-0.241-0.037-0.482-0.062-0.723c-0.036-0.363-0.08-0.724-0.126-1.084c-0.027-0.214-0.051-0.429-0.081-0.643
	c-0.068-0.474-0.148-0.946-0.233-1.416c-0.018-0.097-0.03-0.194-0.049-0.29c-0.106-0.561-0.227-1.119-0.357-1.674
	c-0.044-0.183-0.094-0.364-0.14-0.546c-0.095-0.378-0.192-0.755-0.299-1.13c-0.06-0.21-0.125-0.419-0.188-0.628
	c-0.104-0.347-0.212-0.692-0.327-1.036c-0.07-0.211-0.145-0.422-0.219-0.633c-0.061-0.171-0.115-0.344-0.178-0.514
	c0.392-0.204,0.767-0.435,1.148-0.655c0.225-0.129,0.454-0.25,0.676-0.386c0.743-0.454,1.47-0.934,2.171-1.45
	c0.079-0.058,0.152-0.124,0.23-0.182c0.619-0.464,1.223-0.952,1.808-1.463c0.217-0.189,0.425-0.392,0.637-0.587
	c0.283-0.262,0.576-0.513,0.852-0.786c4.407,5.04,6.918,11.387,7.146,18.072H66.7z"/>
<path d="M70.449,29.449c-0.276,0.275-0.553,0.552-0.839,0.815c-0.182,0.167-0.357,0.342-0.543,0.504
	c-0.612,0.536-1.239,1.05-1.891,1.531c-0.064,0.047-0.134,0.088-0.198,0.135c-0.591,0.429-1.199,0.834-1.821,1.216
	c-0.227,0.14-0.462,0.268-0.692,0.401c-0.299,0.172-0.604,0.331-0.909,0.493c-0.15-0.348-0.318-0.685-0.479-1.026
	c-0.104-0.222-0.203-0.447-0.312-0.667c-0.37-0.748-0.759-1.481-1.175-2.196c-0.064-0.11-0.136-0.214-0.201-0.323
	c-0.361-0.605-0.738-1.197-1.132-1.776c-0.151-0.223-0.309-0.438-0.465-0.657c-0.334-0.468-0.677-0.925-1.031-1.373
	c-0.168-0.212-0.335-0.425-0.508-0.633c-0.417-0.502-0.849-0.989-1.291-1.463c-0.11-0.119-0.216-0.245-0.329-0.362
	c-0.555-0.578-1.13-1.13-1.72-1.662c-0.164-0.147-0.335-0.284-0.501-0.428c-0.299-0.258-0.593-0.523-0.899-0.768
	C59.923,21.975,65.816,24.83,70.449,29.449z"/>
<path d="M45.444,21.979c-0.166,0.143-0.334,0.279-0.498,0.426c-0.591,0.531-1.167,1.083-1.722,1.662
	c-0.094,0.098-0.182,0.204-0.275,0.303c-0.459,0.49-0.905,0.995-1.338,1.515c-0.167,0.201-0.328,0.407-0.491,0.612
	c-0.359,0.453-0.707,0.915-1.045,1.388c-0.152,0.212-0.304,0.422-0.452,0.638c-0.398,0.583-0.78,1.181-1.146,1.792
	c-0.06,0.101-0.126,0.197-0.185,0.298c-0.418,0.715-0.81,1.45-1.181,2.198c-0.103,0.207-0.195,0.418-0.294,0.627
	c-0.165,0.347-0.336,0.69-0.49,1.043c-0.297-0.159-0.596-0.316-0.887-0.485c-0.228-0.132-0.458-0.26-0.682-0.398
	c-0.616-0.381-1.217-0.784-1.802-1.21c-0.062-0.044-0.127-0.083-0.188-0.129c-0.642-0.476-1.261-0.984-1.864-1.513
	c-0.183-0.161-0.357-0.333-0.537-0.499c-0.279-0.258-0.549-0.528-0.819-0.798c4.587-4.573,10.419-7.419,16.764-8.215
	C46.018,21.473,45.733,21.73,45.444,21.979z"/>
<path d="M28.163,30.928c0.268,0.266,0.552,0.509,0.828,0.765c0.211,0.195,0.417,0.396,0.633,0.585
	c0.576,0.504,1.169,0.985,1.779,1.444c0.078,0.059,0.15,0.124,0.228,0.182c0.692,0.51,1.408,0.986,2.141,1.437
	c0.22,0.136,0.449,0.257,0.673,0.387c0.373,0.217,0.739,0.444,1.122,0.646c-0.062,0.168-0.117,0.339-0.177,0.508
	c-0.077,0.217-0.154,0.434-0.227,0.652c-0.115,0.343-0.223,0.688-0.329,1.034c-0.064,0.21-0.13,0.42-0.19,0.631
	c-0.109,0.383-0.209,0.769-0.307,1.155c-0.044,0.175-0.093,0.349-0.135,0.524c-0.133,0.562-0.256,1.127-0.364,1.696
	c-0.012,0.062-0.021,0.125-0.032,0.187c-0.094,0.508-0.179,1.019-0.253,1.531c-0.028,0.194-0.049,0.39-0.074,0.584
	c-0.05,0.384-0.097,0.768-0.135,1.153c-0.022,0.226-0.04,0.452-0.058,0.678c-0.029,0.36-0.056,0.721-0.075,1.083
	c-0.013,0.236-0.023,0.472-0.032,0.708c-0.006,0.167-0.019,0.333-0.022,0.5H21.017C21.245,42.315,23.755,35.968,28.163,30.928z"/>
<path d="M33.158,51c0.004,0.182,0.018,0.361,0.025,0.543c0.009,0.251,0.02,0.502,0.034,0.752c0.021,0.374,0.049,0.746,0.081,1.117
	c0.021,0.24,0.039,0.48,0.063,0.72c0.041,0.399,0.092,0.797,0.145,1.194c0.028,0.204,0.05,0.41,0.081,0.614
	c0.083,0.551,0.177,1.098,0.282,1.643c0.009,0.048,0.016,0.096,0.025,0.144c0.117,0.591,0.25,1.178,0.394,1.761
	c0.046,0.188,0.101,0.374,0.15,0.561c0.104,0.396,0.21,0.791,0.327,1.183c0.066,0.221,0.138,0.44,0.208,0.66
	c0.113,0.355,0.229,0.711,0.353,1.063c0.08,0.229,0.164,0.455,0.248,0.682c0.065,0.177,0.125,0.354,0.193,0.53
	c-0.366,0.189-0.718,0.404-1.076,0.607c-0.222,0.127-0.447,0.245-0.666,0.376c-0.723,0.436-1.43,0.896-2.115,1.389
	c-0.049,0.036-0.095,0.076-0.144,0.112c-0.633,0.462-1.247,0.95-1.845,1.461c-0.205,0.175-0.4,0.361-0.601,0.541
	c-0.283,0.255-0.575,0.499-0.85,0.765C23.868,64.324,21.25,57.853,21.017,51H33.158z"/>
<path d="M29.88,70.873c0.259-0.25,0.518-0.503,0.785-0.743c0.181-0.162,0.357-0.33,0.542-0.488c0.597-0.51,1.208-1.001,1.841-1.459
	c0.044-0.032,0.092-0.06,0.136-0.091c0.593-0.424,1.203-0.821,1.825-1.199c0.22-0.133,0.447-0.256,0.67-0.383
	c0.288-0.164,0.582-0.314,0.875-0.469c0.155,0.341,0.326,0.672,0.491,1.007c0.097,0.197,0.188,0.397,0.289,0.593
	c0.37,0.721,0.759,1.428,1.173,2.116c0.062,0.104,0.132,0.203,0.195,0.307c0.359,0.582,0.732,1.152,1.122,1.71
	c0.144,0.205,0.292,0.406,0.439,0.608c0.337,0.462,0.685,0.914,1.042,1.356c0.154,0.19,0.306,0.382,0.463,0.568
	c0.458,0.543,0.929,1.07,1.417,1.58c0.055,0.057,0.105,0.117,0.16,0.174c0.544,0.561,1.109,1.095,1.688,1.61
	c0.165,0.147,0.335,0.286,0.503,0.43c0.259,0.222,0.512,0.452,0.777,0.664C40.131,77.986,34.416,75.254,29.88,70.873z"/>
<path d="M54.331,78.092c0.162-0.139,0.327-0.272,0.487-0.415c0.581-0.519,1.148-1.056,1.695-1.619
	c0.069-0.071,0.134-0.148,0.202-0.22c0.475-0.498,0.935-1.013,1.381-1.542c0.16-0.189,0.314-0.385,0.471-0.578
	c0.356-0.441,0.702-0.893,1.038-1.354c0.15-0.205,0.301-0.409,0.446-0.618c0.387-0.556,0.758-1.123,1.114-1.703
	c0.067-0.109,0.14-0.214,0.206-0.323c0.412-0.688,0.801-1.396,1.169-2.115c0.105-0.206,0.202-0.418,0.305-0.627
	c0.161-0.331,0.33-0.657,0.482-0.993c0.306,0.158,0.613,0.315,0.913,0.484c0.221,0.125,0.445,0.244,0.662,0.375
	c0.656,0.394,1.298,0.808,1.92,1.252c0.024,0.018,0.05,0.032,0.073,0.049c0.646,0.465,1.269,0.963,1.877,1.481
	c0.185,0.157,0.362,0.326,0.543,0.489c0.273,0.245,0.538,0.502,0.803,0.759c-4.582,4.425-10.357,7.167-16.605,7.915
	C53.792,78.566,54.06,78.325,54.331,78.092z"/>
</svg>
