<?xml version="1.0" encoding="utf-8"?>
<!-- Generator: Adobe Illustrator 16.0.0, SVG Export Plug-In . SVG Version: 6.00 Build 0)  -->
<!DOCTYPE svg PUBLIC "-//W3C//DTD SVG 1.1//EN" "http://www.w3.org/Graphics/SVG/1.1/DTD/svg11.dtd">
<svg version="1.1" id="Layer_1" xmlns="http://www.w3.org/2000/svg" xmlns:xlink="http://www.w3.org/1999/xlink" x="0px" y="0px"
	 width="100px" height="100px" viewBox="0 0 100 100" enable-background="new 0 0 100 100" xml:space="preserve">
<g>
	<path d="M49.908,45.188l-4.425-8.094l-4.428,8.095c-0.234,0.426-0.582,0.774-1.007,1.006l-8.092,4.426l8.093,4.427
		c0.424,0.231,0.772,0.579,1.005,1.005l4.429,8.095l4.425-8.093c0.231-0.425,0.579-0.772,1.005-1.006l8.097-4.429l-8.096-4.426
		C50.488,45.961,50.14,45.614,49.908,45.188z M45.481,56.819c-3.118,0-5.654-2.536-5.654-5.653c0-3.118,2.537-5.654,5.654-5.654
		c3.117,0,5.653,2.536,5.653,5.654C51.135,54.283,48.599,56.819,45.481,56.819z"/>
	<path d="M64.534,50.157l-7.726-4.226l2.474-8.452c0.056-0.187,0.004-0.387-0.134-0.526c-0.135-0.132-0.338-0.187-0.519-0.133
		l-8.456,2.477l-4.229-7.728c-0.186-0.341-0.741-0.34-0.929,0l-4.228,7.728l-8.452-2.476c-0.189-0.055-0.388,0-0.524,0.134
		c-0.137,0.137-0.188,0.337-0.134,0.522l2.476,8.455l-7.727,4.226c-0.171,0.094-0.278,0.272-0.278,0.465
		c0,0.193,0.107,0.372,0.279,0.466l7.726,4.226l-2.476,8.452c-0.054,0.187-0.003,0.387,0.133,0.523
		c0.137,0.138,0.354,0.186,0.525,0.135l8.452-2.476l4.228,7.727c0.187,0.342,0.743,0.342,0.928,0.002l4.23-7.729l8.452,2.476
		c0.168,0.05,0.387,0,0.523-0.134c0.137-0.137,0.188-0.338,0.134-0.523l-2.475-8.453l7.727-4.226
		c0.169-0.094,0.275-0.272,0.275-0.466C64.811,50.429,64.705,50.25,64.534,50.157z M51.873,56.804
		c-0.089,0.049-0.162,0.122-0.21,0.21l-6.181,11.303l-6.183-11.303c-0.049-0.089-0.122-0.162-0.21-0.21l-11.302-6.182l6.729-3.681
		v-0.407l0.746,0l3.827-2.093c0.089-0.049,0.162-0.122,0.211-0.211l6.183-11.303l6.18,11.303c0.05,0.089,0.122,0.163,0.212,0.211
		l11.302,6.181L51.873,56.804z"/>
	<circle cx="45.481" cy="51.165" r="0.594"/>
	<path d="M45.479,19.623c-17.093,0-30.999,13.907-30.999,31c0,17.094,13.906,31,30.999,31c17.094,0,31-13.906,31-31
		C76.479,33.53,62.573,19.623,45.479,19.623z M65.496,52.842l-6.316,3.455l2.022,6.907c0.261,0.887,0.017,1.846-0.639,2.501
		c-0.639,0.641-1.625,0.894-2.495,0.641l-6.912-2.025L47.7,70.637c-0.442,0.812-1.293,1.316-2.219,1.316
		c-0.925,0-1.775-0.505-2.219-1.317l-3.456-6.315l-6.908,2.024c-0.864,0.249-1.86,0.001-2.5-0.641
		c-0.653-0.651-0.898-1.61-0.638-2.5l2.023-6.907l-6.314-3.454c-0.813-0.446-1.318-1.296-1.318-2.22s0.505-1.774,1.317-2.219
		l6.315-3.454l-2.022-6.908c-0.262-0.887-0.017-1.846,0.64-2.501c0.643-0.642,1.632-0.894,2.502-0.638l6.905,2.022l3.456-6.315
		c0.444-0.812,1.294-1.316,2.219-1.316c0.926,0,1.777,0.505,2.22,1.318l3.456,6.314l6.907-2.023
		c0.861-0.258,1.846-0.013,2.499,0.637c0.656,0.659,0.9,1.617,0.639,2.503l-2.021,6.906l6.314,3.454
		c0.812,0.445,1.316,1.295,1.316,2.22C66.811,51.546,66.307,52.396,65.496,52.842z"/>
	<path d="M45.481,47.512c-2.015,0-3.654,1.639-3.654,3.654s1.639,3.653,3.654,3.653c2.015,0,3.653-1.639,3.653-3.653
		S47.496,47.512,45.481,47.512z M45.481,53.759c-1.431,0-2.595-1.163-2.595-2.593c0-1.431,1.164-2.595,2.595-2.595
		c1.43,0,2.594,1.164,2.594,2.595C48.075,52.596,46.912,53.759,45.481,53.759z"/>
</g>
</svg>
