<?xml version="1.0" encoding="utf-8"?>
<!-- Generator: Adobe Illustrator 16.0.0, SVG Export Plug-In . SVG Version: 6.00 Build 0)  -->
<!DOCTYPE svg PUBLIC "-//W3C//DTD SVG 1.1//EN" "http://www.w3.org/Graphics/SVG/1.1/DTD/svg11.dtd">
<svg version="1.1" id="Layer_1" xmlns="http://www.w3.org/2000/svg" xmlns:xlink="http://www.w3.org/1999/xlink" x="0px" y="0px"
	 width="100px" height="100px" viewBox="0 0 100 100" enable-background="new 0 0 100 100" xml:space="preserve">
<g>
	<path d="M48,68.634h4c3.859,0,7-3.141,7-7V38.366c0-3.86-3.141-7-7-7h-4c-3.86,0-7,3.14-7,7v23.268
		C41,65.493,44.14,68.634,48,68.634z"/>
	<path d="M61.5,62.25v-7.5h-2v7.5c0,3.859-3.141,7-7,7h-5c-3.86,0-7-3.141-7-7v-7.5h-2v7.5c0,4.625,3.507,8.441,8,8.941V75h-7v2h7
		H54h6.5v-2H54v-3.886C58.25,70.397,61.5,66.701,61.5,62.25z M48.5,75v-3.75H52V75H48.5z"/>
</g>
</svg>
