<?xml version="1.0" encoding="utf-8"?>
<!-- Generator: Adobe Illustrator 16.0.0, SVG Export Plug-In . SVG Version: 6.00 Build 0)  -->
<!DOCTYPE svg PUBLIC "-//W3C//DTD SVG 1.1//EN" "http://www.w3.org/Graphics/SVG/1.1/DTD/svg11.dtd">
<svg version="1.1" id="Layer_1" xmlns="http://www.w3.org/2000/svg" xmlns:xlink="http://www.w3.org/1999/xlink" x="0px" y="0px"
	 width="100px" height="100px" viewBox="0 0 100 100" enable-background="new 0 0 100 100" xml:space="preserve">
<g>
	<path d="M70.247,43.164c-2.491-7.611-8.514-13.633-16.124-16.125c-0.38-3.979-3.739-7.102-7.816-7.102
		c-4.077,0-7.436,3.123-7.816,7.102c-7.61,2.491-13.633,8.513-16.124,16.124c-3.979,0.38-7.103,3.739-7.103,7.816
		c0,4.077,3.123,7.437,7.102,7.816c2.491,7.61,8.513,13.633,16.124,16.124c0.38,3.979,3.739,7.103,7.816,7.103
		s7.437-3.123,7.816-7.102c7.61-2.491,13.633-8.514,16.124-16.124c3.979-0.38,7.103-3.739,7.103-7.815
		C77.349,46.903,74.226,43.543,70.247,43.164z M21.775,56.671c-2.582-0.609-4.511-2.927-4.511-5.692c0-2.765,1.93-5.083,4.511-5.692
		c-0.425,1.831-0.657,3.735-0.657,5.693C21.119,52.938,21.351,54.841,21.775,56.671z M46.307,21.937c2.765,0,5.083,1.93,5.693,4.511
		c-1.831-0.425-3.735-0.657-5.693-0.657s-3.862,0.232-5.692,0.657C41.224,23.866,43.542,21.937,46.307,21.937z M46.306,80.021
		c-2.766,0-5.083-1.93-5.692-4.512c1.831,0.425,3.735,0.657,5.693,0.657c1.958,0,3.861-0.231,5.692-0.656
		C51.39,78.092,49.071,80.021,46.306,80.021z M46.307,67.834c-9.293,0-16.854-7.561-16.854-16.854
		c0-9.293,7.561-16.854,16.854-16.854c9.293,0,16.854,7.561,16.854,16.854C63.16,60.273,55.6,67.834,46.307,67.834z M70.837,56.673
		c0.425-1.831,0.657-3.735,0.657-5.693s-0.232-3.862-0.656-5.692c2.581,0.609,4.511,2.928,4.511,5.693
		C75.349,53.745,73.419,56.063,70.837,56.673z"/>
	<path d="M46.307,36.125c-8.191,0-14.854,6.664-14.854,14.854c0,8.19,6.664,14.854,14.854,14.854c8.19,0,14.854-6.664,14.854-14.854
		C61.16,42.789,54.497,36.125,46.307,36.125z M46.306,58.834c-4.331,0-7.854-3.523-7.854-7.854s3.523-7.854,7.854-7.854
		c4.331,0,7.854,3.523,7.854,7.854S50.637,58.834,46.306,58.834z"/>
	<path d="M46.306,45.125c-3.228,0-5.854,2.626-5.854,5.854c0,3.229,2.626,5.854,5.854,5.854s5.854-2.626,5.854-5.854
		C52.16,47.751,49.534,45.125,46.306,45.125z"/>
</g>
</svg>
