<?xml version="1.0" encoding="utf-8"?>
<!-- Generator: Adobe Illustrator 17.0.0, SVG Export Plug-In . SVG Version: 6.00 Build 0)  -->
<!DOCTYPE svg PUBLIC "-//W3C//DTD SVG 1.1//EN" "http://www.w3.org/Graphics/SVG/1.1/DTD/svg11.dtd">
<svg version="1.1" id="Layer_1" xmlns="http://www.w3.org/2000/svg" xmlns:xlink="http://www.w3.org/1999/xlink" x="0px" y="0px"
	 width="100px" height="100px" viewBox="0 0 100 100" enable-background="new 0 0 100 100" xml:space="preserve">
<g>
	<path d="M54.125,20.715h-37.75v37.75h37.75V20.715z"/>
	<path d="M60.643,20.252l-0.506,41.496H16.375v12h2.737c0.488,3.386,3.401,6,6.92,6s6.432-2.614,6.92-6h29.373
		c0.488,3.386,3.401,6,6.92,6s6.432-2.614,6.92-6h7.46V29.317L60.643,20.252z M81.625,71.748h-5.46c-0.488-3.386-3.401-6-6.92-6
		s-6.432,2.614-6.92,6H32.952c-0.488-3.386-3.401-6-6.92-6s-6.432,2.614-6.92,6h-0.737v-8h43.738l0.494-40.57l19.018,7.501V71.748z"
		/>
</g>
</svg>
