<?xml version="1.0" encoding="utf-8"?>
<!-- Generator: Adobe Illustrator 16.0.0, SVG Export Plug-In . SVG Version: 6.00 Build 0)  -->
<!DOCTYPE svg PUBLIC "-//W3C//DTD SVG 1.1//EN" "http://www.w3.org/Graphics/SVG/1.1/DTD/svg11.dtd">
<svg version="1.1" id="Layer_1" xmlns="http://www.w3.org/2000/svg" xmlns:xlink="http://www.w3.org/1999/xlink" x="0px" y="0px"
	 width="100px" height="100px" viewBox="0 0 100 100" enable-background="new 0 0 100 100" xml:space="preserve">
<g>
	<path d="M51.818,36.852c-4.113,0-7.458,3.346-7.458,7.458s3.346,7.458,7.458,7.458c4.112,0,7.458-3.346,7.458-7.458
		C59.274,40.197,55.929,36.852,51.818,36.852z"/>
	<path d="M51.818,22.87c-11.822,0-21.44,9.618-21.44,21.439c0,10.803,15.969,28.331,19.171,31.735l2.271,2.412l2.267-2.412
		c1.962-2.087,19.172-20.701,19.172-31.735C73.257,32.488,63.639,22.87,51.818,22.87z M51.818,53.768
		c-5.215,0-9.458-4.243-9.458-9.458s4.243-9.458,9.458-9.458c5.213,0,9.456,4.243,9.458,9.458
		C61.276,49.525,57.033,53.768,51.818,53.768z"/>
</g>
</svg>
