<?xml version="1.0" encoding="utf-8"?>
<!-- Generator: Adobe Illustrator 17.0.0, SVG Export Plug-In . SVG Version: 6.00 Build 0)  -->
<!DOCTYPE svg PUBLIC "-//W3C//DTD SVG 1.1//EN" "http://www.w3.org/Graphics/SVG/1.1/DTD/svg11.dtd">
<svg version="1.1" id="Layer_1" xmlns="http://www.w3.org/2000/svg" xmlns:xlink="http://www.w3.org/1999/xlink" x="0px" y="0px"
	 width="100px" height="100px" viewBox="0 0 100 100" enable-background="new 0 0 100 100" xml:space="preserve">
<path d="M19.792,51.188c0,16.569,13.431,30,30,30s30-13.431,30-30s-13.431-30-30-30S19.792,34.619,19.792,51.188z M36.453,54.742
	c0-5.058,4.114-9.172,9.172-9.172h0.427v-0.002l13.255-0.063l-5.629-5.629l1.414-1.414l8.038,8.038l-8.178,8.178l-1.414-1.414
	l5.759-5.76l-12.235,0.059v0.007h-1.438c-3.954,0-7.172,3.217-7.172,7.172c0,3.955,3.218,7.172,7.172,7.172H63.13v2H45.625
	C40.567,63.914,36.453,59.8,36.453,54.742z"/>
</svg>
