<?xml version="1.0" encoding="utf-8"?>
<!-- Generator: Adobe Illustrator 17.0.0, SVG Export Plug-In . SVG Version: 6.00 Build 0)  -->
<!DOCTYPE svg PUBLIC "-//W3C//DTD SVG 1.1//EN" "http://www.w3.org/Graphics/SVG/1.1/DTD/svg11.dtd">
<svg version="1.1" id="Layer_1" xmlns="http://www.w3.org/2000/svg" xmlns:xlink="http://www.w3.org/1999/xlink" x="0px" y="0px"
	 width="100px" height="100px" viewBox="0 0 100 100" enable-background="new 0 0 100 100" xml:space="preserve">
<g>
	<path d="M71.293,25.599c-0.253-0.253-0.589-0.392-0.945-0.392h-7.706c-0.737,0-1.337,0.6-1.337,1.337v1.313l-0.08,0.188
		c-0.815,1.914-2.683,3.44-4.995,4.083l-0.268,0.037l-4.753-0.037c-2.31-0.644-4.177-2.17-4.994-4.083l-0.081-0.188v-1.313
		c0-0.737-0.6-1.337-1.337-1.337h-7.706c-0.351,0-0.695,0.143-0.945,0.392L26.069,35.678c-0.252,0.252-0.392,0.588-0.392,0.945
		c0,0.357,0.139,0.693,0.392,0.946l7.707,7.706c0.3,0.3,0.722,0.441,1.134,0.379l1.146-0.169v28.408c0,0.737,0.6,1.338,1.337,1.338
		h30.88c0.357,0,0.693-0.139,0.946-0.392c0.252-0.253,0.391-0.588,0.391-0.944V43.117l2.161,2.157
		c0.506,0.506,1.385,0.506,1.892,0.001l7.707-7.706c0.253-0.253,0.392-0.589,0.392-0.946s-0.139-0.692-0.391-0.944L71.293,25.599z
		 M72.718,43.392l-5.107-5.096V73.23H38.056V43.168l-3.101,0.457l-7.003-7.002l9.416-9.416h6.767v1.06l0.241,0.564
		c1.053,2.465,3.406,4.417,6.296,5.223l0.256,0.072l5.163,0.04l0.544-0.074l0.131-0.037c2.893-0.804,5.247-2.758,6.299-5.227
		l0.24-0.563v-1.058h6.768l9.415,9.416L72.718,43.392z"/>
	<path d="M84.198,32.85L74.122,22.772c-1.008-1.009-2.349-1.565-3.774-1.565h-7.706c-2.942,0-5.337,2.394-5.337,5.337v0.354
		c-0.384,0.536-1.024,0.988-1.801,1.267h-3.566c-0.776-0.279-1.418-0.732-1.803-1.268v-0.354c0-2.943-2.394-5.337-5.337-5.337
		h-7.706c-1.404,0-2.779,0.57-3.773,1.564L23.242,32.848c-1.009,1.008-1.565,2.348-1.565,3.775c0,1.426,0.555,2.766,1.563,3.774
		l7.707,7.706c0.334,0.334,0.707,0.621,1.108,0.853v24.937c0,2.943,2.394,5.338,5.337,5.338h30.88c1.425,0,2.765-0.555,3.775-1.564
		c1.009-1.01,1.563-2.351,1.562-3.772V49.58c1.09-0.188,2.107-0.703,2.881-1.477l7.707-7.706c1.008-1.007,1.563-2.348,1.563-3.774
		C85.762,35.197,85.206,33.857,84.198,32.85z M82.784,38.983l-7.707,7.706c-0.902,0.902-2.303,1.199-3.467,0.791v26.414
		c0.001,0.891-0.347,1.729-0.977,2.359c-0.631,0.63-1.469,0.978-2.36,0.978h-30.88c-1.84,0-3.337-1.497-3.337-3.338V47.602
		c-0.637-0.128-1.223-0.441-1.694-0.913l-7.707-7.706c-0.63-0.63-0.978-1.469-0.978-2.36c0-0.892,0.347-1.729,0.978-2.359
		l10.078-10.079c0.622-0.622,1.481-0.978,2.359-0.978h7.706c1.84,0,3.337,1.497,3.337,3.337v0.892
		c0.605,1.245,1.888,2.251,3.484,2.729h4.202c1.597-0.477,2.879-1.483,3.483-2.729v-0.893c0-1.84,1.497-3.337,3.337-3.337h7.706
		c0.892,0,1.729,0.348,2.359,0.979l10.077,10.079c0.63,0.629,0.978,1.467,0.978,2.359C83.762,37.514,83.415,38.353,82.784,38.983z"
		/>
</g>
</svg>
