<?xml version="1.0" encoding="utf-8"?>
<!-- Generator: Adobe Illustrator 17.0.0, SVG Export Plug-In . SVG Version: 6.00 Build 0)  -->
<!DOCTYPE svg PUBLIC "-//W3C//DTD SVG 1.1//EN" "http://www.w3.org/Graphics/SVG/1.1/DTD/svg11.dtd">
<svg version="1.1" id="Layer_1" xmlns="http://www.w3.org/2000/svg" xmlns:xlink="http://www.w3.org/1999/xlink" x="0px" y="0px"
	 width="100px" height="100px" viewBox="0 0 100 100" enable-background="new 0 0 100 100" xml:space="preserve">
<path d="M73.557,29.128c-1.416-1.417-3.3-2.197-5.303-2.197s-3.887,0.78-5.304,2.197l-9.723,9.723l1.001,1.001L30.463,63.619
	l-1.799,7.285l-1.919,1.92l3.09,3.09l1.876-1.876l7.355-1.815l23.767-23.767l1.001,1.001l9.723-9.723
	c1.417-1.417,2.197-3.301,2.197-5.304S74.974,30.544,73.557,29.128z M38.047,70.414l-7.355,1.815l-0.856,0.856l-0.262-0.262
	l0.899-0.899l1.799-7.286l23.373-23.373l5.775,5.775L38.047,70.414z"/>
</svg>
