<?xml version="1.0" encoding="utf-8"?>
<!-- Generator: Adobe Illustrator 16.0.0, SVG Export Plug-In . SVG Version: 6.00 Build 0)  -->
<!DOCTYPE svg PUBLIC "-//W3C//DTD SVG 1.1//EN" "http://www.w3.org/Graphics/SVG/1.1/DTD/svg11.dtd">
<svg version="1.1" id="Layer_1" xmlns="http://www.w3.org/2000/svg" xmlns:xlink="http://www.w3.org/1999/xlink" x="0px" y="0px"
	 width="100px" height="100px" viewBox="0 0 100 100" enable-background="new 0 0 100 100" xml:space="preserve">
<g>
	<path d="M56.12,49.135l-8.763-6.38c-0.326-0.238-0.712-0.364-1.118-0.364c-0.298,0-0.597,0.071-0.863,0.206
		c-0.639,0.326-1.037,0.975-1.037,1.693v12.762c0,0.719,0.398,1.367,1.038,1.692c0.626,0.322,1.408,0.259,1.979-0.156l8.763-6.382
		c0.489-0.356,0.781-0.93,0.781-1.535C56.901,50.066,56.609,49.492,56.12,49.135z"/>
	<path d="M50.62,19.671c-17.093,0-31,13.907-31,31c0,17.094,13.907,31,31,31c17.094,0,31-13.906,31-31
		C81.62,33.578,67.714,19.671,50.62,19.671z M57.298,53.823l-8.763,6.381c-0.67,0.488-1.464,0.747-2.296,0.747
		c-0.616,0-1.228-0.147-1.771-0.426c-1.312-0.667-2.128-1.999-2.128-3.474V44.29c0-1.474,0.816-2.806,2.131-3.476
		c1.295-0.653,2.902-0.523,4.064,0.324l8.763,6.38c1.004,0.732,1.604,1.91,1.604,3.152S58.302,53.092,57.298,53.823z"/>
</g>
</svg>
