<?xml version="1.0" encoding="utf-8"?>
<!-- Generator: Adobe Illustrator 17.0.0, SVG Export Plug-In . SVG Version: 6.00 Build 0)  -->
<!DOCTYPE svg PUBLIC "-//W3C//DTD SVG 1.1//EN" "http://www.w3.org/Graphics/SVG/1.1/DTD/svg11.dtd">
<svg version="1.1" id="Layer_1" xmlns="http://www.w3.org/2000/svg" xmlns:xlink="http://www.w3.org/1999/xlink" x="0px" y="0px"
	 width="100px" height="100px" viewBox="0 0 100 100" enable-background="new 0 0 100 100" xml:space="preserve">
<path d="M75.085,41.217l-1.682-3.211c-0.257-0.489-0.859-0.678-1.35-0.422l-8.306,4.348l-4.349-8.306
	c-0.123-0.235-0.335-0.412-0.588-0.491c-0.131-0.041-0.267-0.054-0.401-0.04l-0.146-0.044c3.159-1.399,5.371-4.558,5.371-8.229
	c0-4.962-4.037-9-9-9s-9,4.038-9,9c0,1.807,0.54,3.489,1.461,4.901l-0.854-0.255c-0.185-0.128-0.406-0.195-0.657-0.176l-0.007,0.001
	c-0.11-0.011-0.22,0.001-0.325,0.028l-13.617,1.185c-0.55,0.048-0.957,0.533-0.909,1.083l1.214,13.947
	c0.022,0.264,0.149,0.508,0.353,0.679c0.203,0.17,0.459,0.254,0.73,0.23l3.611-0.314c0.55-0.048,0.957-0.533,0.909-1.083
	l-0.812-9.339l6.114-0.532l-7.715,19.391c-0.045,0.111-0.068,0.229-0.071,0.348l-0.236,11.021h-9.021c-0.553,0-1,0.447-1,1v5.875
	c0,0.553,0.447,1,1,1h16.5c0.553,0,1-0.447,1-1V59.099l18.815,24.685c0.196,0.258,0.494,0.394,0.796,0.394
	c0.211,0,0.424-0.066,0.605-0.205l5.17-3.94c0.211-0.16,0.349-0.398,0.385-0.661c0.035-0.263-0.035-0.529-0.196-0.74L51.129,55.346
	l5.952-14.022l3.829,7.314c0.257,0.489,0.859,0.679,1.35,0.422l12.403-6.494c0.235-0.123,0.411-0.334,0.49-0.587
	C75.232,41.726,75.208,41.452,75.085,41.217z"/>
</svg>
