<?xml version="1.0" encoding="utf-8"?>
<!-- Generator: Adobe Illustrator 17.0.0, SVG Export Plug-In . SVG Version: 6.00 Build 0)  -->
<!DOCTYPE svg PUBLIC "-//W3C//DTD SVG 1.1//EN" "http://www.w3.org/Graphics/SVG/1.1/DTD/svg11.dtd">
<svg version="1.1" id="Layer_1" xmlns="http://www.w3.org/2000/svg" xmlns:xlink="http://www.w3.org/1999/xlink" x="0px" y="0px"
	 width="100px" height="100px" viewBox="0 0 100 100" enable-background="new 0 0 100 100" xml:space="preserve">
<g>
	<path d="M61.96,26.871c-0.496-0.532-1.377-0.627-1.972-0.207l-14.012,9.859l-0.378-0.043c-0.439-0.05-0.881-0.076-1.312-0.076
		c-5.42,0-8.328,3.93-8.449,4.097c-0.432,0.598-0.369,1.416,0.151,1.943l8.578,8.687L31.143,64.555
		c-0.588,0.589-0.588,1.547,0,2.136c0.567,0.568,1.564,0.568,2.132,0l13.412-13.411l8.048,8.147c0.472,0.48,1.251,0.582,1.838,0.241
		c3.579-2.103,3.337-8.932,3.067-11.77l-0.039-0.406L69.657,37.05c0.469-0.581,0.439-1.43-0.069-1.976L61.96,26.871z M57.532,48.87
		l0.117,1.217c0.443,4.67-0.256,8.37-1.781,9.641l-8.482-8.587h0l-9.665-9.787c0.734-0.83,2.963-2.949,6.565-2.949
		c0.356,0,0.721,0.021,1.085,0.063l1.133,0.129l14.282-10.049l7.046,7.577L57.532,48.87z"/>
	<path d="M72.518,32.35l-7.632-8.207c-1.023-1.097-2.503-1.727-4.058-1.727c-1.151,0-2.239,0.339-3.143,0.978l-12.822,9.021
		c-0.193-0.007-0.385-0.011-0.576-0.011c-7.45,0-11.521,5.519-11.691,5.754c-1.58,2.188-1.35,5.172,0.547,7.096l5.785,5.858
		L28.313,61.728c-2.146,2.147-2.145,5.643,0.002,7.791c1.04,1.04,2.423,1.612,3.895,1.612c1.473,0,2.856-0.573,3.894-1.612
		L46.67,58.954l5.218,5.283c1.019,1.032,2.455,1.624,3.941,1.624c0.981,0,1.938-0.257,2.77-0.744
		c4.734-2.781,5.44-9.178,5.121-14.357l9.048-11.195C74.48,37.445,74.372,34.344,72.518,32.35z M71.212,38.307l-9.544,11.81
		c0.338,4.058,0.179,10.772-4.082,13.275c-1.36,0.797-3.173,0.556-4.274-0.561l-6.633-6.715L34.69,68.104
		c-0.661,0.662-1.542,1.026-2.48,1.026c-0.938,0-1.818-0.364-2.48-1.026c-1.368-1.369-1.368-3.596-0.001-4.964l12.019-12.019
		l-7.182-7.272c-1.208-1.226-1.354-3.126-0.348-4.52c0.146-0.202,3.64-4.925,10.07-4.925c0.38,0,0.767,0.017,1.154,0.05
		l13.395-9.424c1.383-0.978,3.429-0.765,4.588,0.478l7.629,8.204C72.234,34.982,72.303,36.958,71.212,38.307z"/>
</g>
</svg>
