<?xml version="1.0" encoding="utf-8"?>
<!-- Generator: Adobe Illustrator 17.0.0, SVG Export Plug-In . SVG Version: 6.00 Build 0)  -->
<!DOCTYPE svg PUBLIC "-//W3C//DTD SVG 1.1//EN" "http://www.w3.org/Graphics/SVG/1.1/DTD/svg11.dtd">
<svg version="1.1" id="Layer_1" xmlns="http://www.w3.org/2000/svg" xmlns:xlink="http://www.w3.org/1999/xlink" x="0px" y="0px"
	 width="100px" height="100px" viewBox="0 0 100 100" enable-background="new 0 0 100 100" xml:space="preserve">
<path d="M50,18c-17.093,0-31,13.906-31,31s13.907,31,31,31s31-13.906,31-31S67.093,18,50,18z M48.646,65.231
	c-1.639,0-2.762-1.264-2.762-2.902c0-1.731,1.17-2.949,2.809-2.949c1.638,0,2.762,1.218,2.762,2.949
	C51.455,63.968,50.378,65.231,48.646,65.231z M53.188,47.677c-2.06,2.434-2.809,4.494-2.668,6.881l0.047,1.217h-3.652l-0.093-1.217
	c-0.281-2.528,0.562-5.29,2.902-8.099C51.83,43.979,53,42.153,53,40.046c0-2.388-1.498-3.979-4.447-4.026
	c-1.686,0-3.558,0.562-4.728,1.451l-1.124-2.949c1.545-1.124,4.213-1.873,6.694-1.873c5.384,0,7.817,3.324,7.817,6.881
	C57.213,42.715,55.435,45.009,53.188,47.677z"/>
</svg>
