<?xml version="1.0" encoding="utf-8"?>
<!-- Generator: Adobe Illustrator 17.0.0, SVG Export Plug-In . SVG Version: 6.00 Build 0)  -->
<!DOCTYPE svg PUBLIC "-//W3C//DTD SVG 1.1//EN" "http://www.w3.org/Graphics/SVG/1.1/DTD/svg11.dtd">
<svg version="1.1" id="Layer_1" xmlns="http://www.w3.org/2000/svg" xmlns:xlink="http://www.w3.org/1999/xlink" x="0px" y="0px"
	 width="100px" height="100px" viewBox="0 0 100 100" enable-background="new 0 0 100 100" xml:space="preserve">
<g>
	<path d="M67.407,68.439c-7.636,0-13.848-6.189-13.848-13.798c0-0.594,0.039-1.097,0.115-1.642h-4.343
		c0.077,0.548,0.117,1.066,0.117,1.667c0,7.594-6.211,13.772-13.846,13.772c-7.636,0-13.848-6.189-13.848-13.798
		c0-0.594,0.039-1.098,0.115-1.642h-1.736c-1.728,0-3.244-1.636-3.244-3.5s1.516-3.5,3.244-3.5h4.375
		c2.893-3.525,7.005-5.616,11.094-5.616s8.2,2.09,11.09,5.616h9.622c2.893-3.525,7.005-5.616,11.092-5.616
		c4.089,0,8.201,2.091,11.093,5.616h3.481c1.729,0,3.244,1.636,3.244,3.5S83.709,53,81.981,53H81.14
		c0.075,0.545,0.115,1.062,0.115,1.667C81.255,62.261,75.043,68.439,67.407,68.439z"/>
</g>
</svg>
