<?xml version="1.0" encoding="utf-8"?>
<!-- Generator: Adobe Illustrator 17.0.0, SVG Export Plug-In . SVG Version: 6.00 Build 0)  -->
<!DOCTYPE svg PUBLIC "-//W3C//DTD SVG 1.1//EN" "http://www.w3.org/Graphics/SVG/1.1/DTD/svg11.dtd">
<svg version="1.1" id="Layer_1" xmlns="http://www.w3.org/2000/svg" xmlns:xlink="http://www.w3.org/1999/xlink" x="0px" y="0px"
	 width="100px" height="100px" viewBox="0 0 100 100" enable-background="new 0 0 100 100" xml:space="preserve">
<g>
	<path d="M51.055,46.65l4.403,8.404c3.951-1.67,6.73-5.585,6.73-10.138c0-6.065-4.935-11-11-11s-11,4.935-11,11
		c0,4.469,2.682,8.316,6.518,10.036L51.055,46.65z M42.188,44.917c0-4.962,4.038-9,9-9c4.963,0,9,4.038,9,9
		c0,3.004-1.485,5.755-3.899,7.414l-5.233-9.99l-5.157,9.844C43.599,50.509,42.188,47.817,42.188,44.917z"/>
	<path d="M48.623,55.603c0.825,0.198,1.68,0.314,2.565,0.314c0.8,0,1.579-0.091,2.331-0.254l-2.464-4.703L48.623,55.603z"/>
	<path d="M51.188,57.917c-1.22,0-2.397-0.181-3.517-0.497l-2.857,5.455h5.562V60.75H52v2.125h5.297l-2.826-5.394
		C53.42,57.756,52.323,57.917,51.188,57.917z"/>
	<path d="M70.267,60.875h-9.502l-1.684-3.213c4.376-2.712,7.106-7.513,7.106-12.746c0-7.257-5.22-13.394-12.188-14.72v-9.136h-5.625
		v9.136c-6.968,1.326-12.188,7.463-12.188,14.72c0,5.124,2.655,9.875,6.911,12.613l-1.752,3.346H31.5V67h6.637L32.04,78.64
		l5.315,2.783L44.91,67h3.465v6H54v-6h3.2l7.556,14.423l5.315-2.783L63.974,67h6.293V60.875z M68.267,65h-7.599l6.703,12.796
		L65.6,78.724L58.41,65H52v6h-1.625v-6H43.7l-7.189,13.724l-1.771-0.928L41.442,65H33.5v-2.125h9.055l3.223-6.152
		c-4.472-2.058-7.591-6.57-7.591-11.807c0-6.894,5.398-12.536,12.188-12.959v-8.897H52v8.897
		c6.789,0.423,12.188,6.065,12.188,12.959c0,5.32-3.216,9.898-7.802,11.909l3.169,6.05h8.713V65z"/>
</g>
</svg>
