<?xml version="1.0" encoding="utf-8"?>
<!-- Generator: Adobe Illustrator 17.0.0, SVG Export Plug-In . SVG Version: 6.00 Build 0)  -->
<!DOCTYPE svg PUBLIC "-//W3C//DTD SVG 1.1//EN" "http://www.w3.org/Graphics/SVG/1.1/DTD/svg11.dtd">
<svg version="1.1" id="Layer_1" xmlns="http://www.w3.org/2000/svg" xmlns:xlink="http://www.w3.org/1999/xlink" x="0px" y="0px"
	 width="100px" height="100px" viewBox="0 0 100 100" enable-background="new 0 0 100 100" xml:space="preserve">
<g>
	<path d="M48.152,56.273l-9.126-6.38l-13.594-9.503v21.714l5.87,4.104L48.152,56.273z M27.432,44.228L44.457,56.13l-13.062,7.701
		l-3.962-2.77V44.228z"/>
	<path d="M31.256,8.718L7.434,25.372L24.432,37.25l23.822-16.655L31.256,8.718z M24.431,34.81l-13.506-9.438l20.332-14.214
		l13.506,9.438L24.431,34.81z"/>
	<path d="M76.567,60.706l15.896-11.114L76.567,40.22V60.706z M78.566,43.721l10.201,6.014l-10.201,7.132V43.721z"/>
	<path d="M23.432,60.705V40.22L7.537,49.592L23.432,60.705z M21.432,56.866l-10.2-7.131l10.2-6.014V56.866z"/>
	<path d="M95.834,46.937l-14.723-8.681l14.917-10.424c0.803-0.56,1.282-1.479,1.282-2.46s-0.479-1.9-1.28-2.458L70.465,5.042
		c-0.507-0.355-1.102-0.543-1.721-0.543c-0.616,0-1.209,0.186-1.72,0.541L50,16.935L32.971,5.036
		c-0.506-0.352-1.099-0.538-1.715-0.538c-0.619,0-1.214,0.188-1.718,0.542L3.972,22.913c-0.804,0.56-1.283,1.479-1.283,2.46
		s0.479,1.9,1.281,2.459l14.918,10.425L4.165,46.937c-0.885,0.522-1.436,1.445-1.474,2.465c-0.041,1.026,0.437,1.991,1.278,2.578
		l17.462,12.208v10.235c0,0.974,0.475,1.89,1.268,2.449L48.463,95.09l0.072,0.029c0.03,0.018,0.233,0.123,0.233,0.123l0.146,0.049
		l0.16,0.062l0.107,0.03c0.274,0.078,0.55,0.118,0.82,0.118c0.271,0,0.546-0.04,0.803-0.113l0.186-0.058l0.236-0.087
		c0,0,0.219-0.112,0.254-0.134l0.067-0.028l25.752-18.209c0.794-0.561,1.269-1.477,1.269-2.45V64.188l17.466-12.209
		c0.841-0.589,1.317-1.552,1.276-2.577C97.268,48.379,96.717,47.458,95.834,46.937z M94.884,50.34L76.567,63.146v11.277
		c0,0.324-0.157,0.629-0.423,0.816L50.577,93.319c-0.017,0.012-0.037,0.016-0.055,0.027c-0.022,0.013-0.039,0.032-0.062,0.044
		c-0.034,0.018-0.071,0.026-0.107,0.04c-0.028,0.01-0.054,0.023-0.082,0.031c-0.089,0.025-0.18,0.042-0.271,0.042
		c-0.091,0-0.182-0.016-0.27-0.041c-0.029-0.008-0.055-0.021-0.083-0.031c-0.035-0.013-0.072-0.022-0.106-0.04
		c-0.023-0.012-0.04-0.03-0.062-0.044c-0.018-0.011-0.038-0.015-0.055-0.027L23.855,75.24c-0.266-0.188-0.423-0.492-0.423-0.816
		V63.145L5.116,50.34c-0.278-0.194-0.439-0.518-0.426-0.858c0.013-0.34,0.198-0.649,0.491-0.822l17.403-10.261L5.116,26.192
		c-0.268-0.187-0.427-0.492-0.427-0.819c0-0.326,0.159-0.633,0.427-0.819L30.683,6.679c0.344-0.241,0.801-0.241,1.146,0L50,19.375
		L68.17,6.678c0.346-0.24,0.803-0.241,1.146,0l25.567,17.875c0.268,0.187,0.427,0.493,0.427,0.819c0,0.327-0.159,0.633-0.427,0.819
		l-17.47,12.207l17.404,10.261c0.293,0.173,0.479,0.482,0.491,0.822C95.324,49.823,95.163,50.146,94.884,50.34z"/>
	<path d="M68.744,68.395c-0.175,0-0.351-0.046-0.508-0.139L51,58.094v32.476l23.567-16.665v-9.362l-5.25,3.67
		C69.145,68.334,68.945,68.395,68.744,68.395z M72.566,68.382v4.488L53,86.706v-25.11l14.215,8.38
		c0.462,0.274,0.99,0.419,1.529,0.419c0.617,0,1.211-0.188,1.718-0.541L72.566,68.382z"/>
	<path d="M31.256,68.395c-0.201,0-0.401-0.061-0.573-0.181l-5.251-3.671v9.362L49,90.571V58.094L31.764,68.256
		C31.607,68.349,31.431,68.395,31.256,68.395z M47,61.596v25.111L27.432,72.87v-4.488l2.105,1.472
		c0.507,0.354,1.101,0.541,1.719,0.541c0.536,0,1.063-0.144,1.523-0.416L47,61.596z"/>
	<path d="M65.597,32.72L50,21.816L34.402,32.72l-8.086,5.653L50,55.12l23.683-16.747L65.597,32.72z M29.793,38.382L50,24.256
		l20.206,14.126L50,52.67L29.793,38.382z"/>
	<path d="M51.847,56.273l16.851,9.935l5.869-4.103V40.389l-13.594,9.503L51.847,56.273z M72.566,61.062l-3.961,2.769L55.543,56.13
		l17.023-11.902V61.062z"/>
	<path d="M68.744,8.718L51.745,20.595L75.567,37.25l16.999-11.878L68.744,8.718z M55.236,20.596l13.508-9.438l20.331,14.214
		L75.567,34.81L55.236,20.596z"/>
</g>
</svg>
