<?xml version="1.0" encoding="utf-8"?>
<!-- Generator: Adobe Illustrator 17.0.0, SVG Export Plug-In . SVG Version: 6.00 Build 0)  -->
<!DOCTYPE svg PUBLIC "-//W3C//DTD SVG 1.1//EN" "http://www.w3.org/Graphics/SVG/1.1/DTD/svg11.dtd">
<svg version="1.1" id="Layer_1" xmlns="http://www.w3.org/2000/svg" xmlns:xlink="http://www.w3.org/1999/xlink" x="0px" y="0px"
	 width="100px" height="100px" viewBox="0 0 100 100" enable-background="new 0 0 100 100" xml:space="preserve">
<polygon points="16.417,41.991 13.5,41.991 13.5,31.325 11.5,31.325 11.5,41.991 8.583,41.991 8.583,31.325 6.583,31.325 
	6.583,43.991 11.5,43.991 11.5,68.675 13.5,68.675 13.5,43.991 18.417,43.991 18.417,31.325 16.417,31.325 "/>
<path d="M86.333,31.945v-0.62h-2v37.35h2V51h8.544L86.333,31.945z M86.333,36.832L91.789,49h-5.456V36.832z"/>
<path d="M50,19.667c-17.093,0-31,13.907-31,31s13.907,31,31,31c17.094,0,31-13.906,31-31S67.094,19.667,50,19.667z"/>
</svg>
