<?xml version="1.0" encoding="utf-8"?>
<!-- Generator: Adobe Illustrator 17.0.0, SVG Export Plug-In . SVG Version: 6.00 Build 0)  -->
<!DOCTYPE svg PUBLIC "-//W3C//DTD SVG 1.1//EN" "http://www.w3.org/Graphics/SVG/1.1/DTD/svg11.dtd">
<svg version="1.1" id="Layer_1" xmlns="http://www.w3.org/2000/svg" xmlns:xlink="http://www.w3.org/1999/xlink" x="0px" y="0px"
	 width="100px" height="100px" viewBox="0 0 100 100" enable-background="new 0 0 100 100" xml:space="preserve">
<path d="M90.993,41.251l-4.242-4.243l-4.752,4.752c-2.991-15.229-16.483-26.631-32.374-26.631c-18.196,0-33,14.804-33,33v2h0.249
	l-8.617,8.619l4.242,4.242l4.751-4.751c2.992,15.229,16.483,26.632,32.375,26.632c18.196,0,33-14.804,33-33v-2h-0.251L90.993,41.251
	z M49.625,17.129c16.392,0,29.844,12.79,30.922,28.913l6.204-6.205l1.414,1.414l-7.833,7.834h-1.414l-7.167-7.167l1.414-1.414
	l5.363,5.363c-1.159-14.937-13.675-26.738-28.903-26.738c-15.99,0-29,13.009-29,29h-2C18.625,31.036,32.531,17.129,49.625,17.129z
	 M76.876,49.871h-0.251v2c0,14.888-12.112,27-27,27c-11.846,0-22.128-7.822-25.673-18.68l2.133,2.133l4.242-4.242l-7.951-7.953
	h0.249v-2c0-14.888,12.112-27,27-27c11.846,0,22.128,7.822,25.674,18.68l-2.134-2.134l-4.242,4.243L76.876,49.871z M49.625,82.871
	c-16.392,0-29.844-12.79-30.922-28.913l-6.204,6.204l-1.414-1.414l7.833-7.833h1.414l7.167,7.167l-1.414,1.414l-5.363-5.363
	c1.159,14.936,13.675,26.738,28.903,26.738c15.99,0,29-13.01,29-29h2C80.625,68.964,66.719,82.871,49.625,82.871z"/>
</svg>
