<?xml version="1.0" encoding="utf-8"?>
<!-- Generator: Adobe Illustrator 16.0.0, SVG Export Plug-In . SVG Version: 6.00 Build 0)  -->
<!DOCTYPE svg PUBLIC "-//W3C//DTD SVG 1.1//EN" "http://www.w3.org/Graphics/SVG/1.1/DTD/svg11.dtd">
<svg version="1.1" id="Layer_1" xmlns="http://www.w3.org/2000/svg" xmlns:xlink="http://www.w3.org/1999/xlink" x="0px" y="0px"
	 width="100px" height="100px" viewBox="0 0 100 100" enable-background="new 0 0 100 100" xml:space="preserve">
<g>
	<path d="M59.589,50c0-2.562-0.998-4.969-2.809-6.78c-1.811-1.812-4.219-2.81-6.781-2.81c-2.562,0-4.969,0.998-6.78,2.809
		c-1.811,1.811-2.809,4.219-2.809,6.781s0.997,4.97,2.808,6.78c1.812,1.812,4.22,2.81,6.78,2.81c2.562,0,4.969-0.998,6.78-2.809
		C58.591,54.969,59.589,52.562,59.589,50z M50,57.589c-2.027,0-3.933-0.79-5.366-2.224C43.2,53.933,42.411,52.026,42.411,50
		c0-2.027,0.789-3.933,2.223-5.366C46.067,43.2,47.973,42.41,50,42.41c2.028,0,3.933,0.79,5.366,2.223
		c1.434,1.433,2.224,3.339,2.224,5.366c0,2.028-0.79,3.933-2.224,5.366C53.933,56.799,52.027,57.589,50,57.589z"/>
	<path d="M53.951,46.048C52.896,44.992,51.492,44.41,50,44.41s-2.896,0.582-3.952,1.637S44.411,48.506,44.411,50
		c0,1.493,0.581,2.896,1.637,3.952s2.459,1.638,3.952,1.638s2.896-0.582,3.952-1.638s1.638-2.459,1.638-3.952
		C55.589,48.506,55.007,47.103,53.951,46.048z M52.537,52.537c-0.679,0.678-1.58,1.052-2.538,1.052
		c-0.958,0-1.859-0.374-2.538-1.052c-0.678-0.678-1.051-1.579-1.051-2.538c0-0.959,0.373-1.86,1.051-2.538
		C48.14,46.784,49.041,46.41,50,46.41s1.859,0.374,2.538,1.052c0.679,0.678,1.052,1.579,1.052,2.537
		C53.589,50.957,53.215,51.858,52.537,52.537z"/>
	<path d="M39.823,50c0-2.719,1.059-5.275,2.98-7.197l1.415-1.414l-4.243-4.243l-1.414,1.415c-3.056,3.055-4.738,7.118-4.738,11.439
		s1.683,8.384,4.738,11.439l1.414,1.414l4.243-4.242l-1.415-1.414C40.881,55.275,39.823,52.719,39.823,50z M39.975,60.025
		c-2.678-2.678-4.152-6.237-4.152-10.025c0-3.787,1.475-7.348,4.152-10.025l1.414,1.414c-2.3,2.3-3.566,5.358-3.566,8.611
		s1.267,6.312,3.566,8.611L39.975,60.025z"/>
	<path d="M66.178,50c0-4.321-1.683-8.384-4.738-11.439l-1.414-1.415l-4.242,4.243l1.414,1.414c1.922,1.922,2.98,4.479,2.98,7.197
		s-1.059,5.275-2.98,7.197l-1.414,1.414l4.242,4.242l1.414-1.414C64.495,58.384,66.178,54.321,66.178,50z M58.611,58.611
		c2.3-2.3,3.566-5.358,3.566-8.611s-1.267-6.311-3.566-8.611l1.414-1.414c2.678,2.678,4.152,6.238,4.152,10.025
		c0,3.788-1.475,7.348-4.152,10.025L58.611,58.611z"/>
	<path d="M26.645,50c0-6.238,2.429-12.104,6.84-16.515l1.415-1.414l-4.243-4.242l-1.414,1.414
		C23.698,34.787,20.645,42.158,20.645,50s3.054,15.213,8.598,20.757l1.414,1.414l4.242-4.242l-1.414-1.414
		C29.074,62.103,26.645,56.237,26.645,50z M30.657,69.343C25.49,64.177,22.645,57.307,22.645,50c0-7.308,2.846-14.177,8.012-19.343
		l1.414,1.414C27.282,36.859,24.645,43.227,24.645,50s2.638,13.14,7.426,17.929L30.657,69.343z"/>
	<path d="M70.757,29.242l-1.414-1.414l-4.242,4.242l1.414,1.414c4.411,4.411,6.84,10.275,6.84,16.515
		c0,6.239-2.429,12.104-6.84,16.515l-1.414,1.414l4.242,4.242l1.414-1.414c5.544-5.543,8.598-12.915,8.598-20.757
		S76.301,34.786,70.757,29.242z M69.343,69.343l-1.414-1.414C72.718,63.14,75.354,56.772,75.354,50s-2.637-13.14-7.426-17.929
		l1.414-1.414C74.51,35.823,77.354,42.692,77.354,50C77.354,57.307,74.51,64.177,69.343,69.343z"/>
	<path d="M38.144,38.144l1.415-1.414l-4.243-4.243l-1.414,1.415c-8.876,8.876-8.876,23.32,0,32.197l1.414,1.414l4.243-4.242
		l-1.415-1.414C31.606,55.318,31.606,44.681,38.144,38.144z M35.315,64.685c-8.097-8.098-8.097-21.272,0-29.369l1.414,1.414
		c-7.317,7.317-7.317,19.224,0,26.541L35.315,64.685z"/>
	<path d="M66.099,33.901l-1.414-1.415l-4.242,4.243l1.414,1.414c6.536,6.538,6.536,17.175,0,23.713l-1.414,1.414l4.242,4.242
		l1.414-1.414C74.975,57.222,74.974,42.778,66.099,33.901z M63.271,63.271c7.315-7.317,7.315-19.224,0-26.541l1.414-1.414
		c8.096,8.097,8.096,21.271,0,29.369L63.271,63.271z"/>
</g>
<text transform="matrix(1 0 0 1 400 300)" font-family="'MyriadPro-Regular'" font-size="12">100%</text>
<text transform="matrix(1 0 0 1 400 300)" font-family="'MyriadPro-Regular'" font-size="12">100%</text>
</svg>
