<?xml version="1.0" encoding="utf-8"?>
<!-- Generator: Adobe Illustrator 17.0.0, SVG Export Plug-In . SVG Version: 6.00 Build 0)  -->
<!DOCTYPE svg PUBLIC "-//W3C//DTD SVG 1.1//EN" "http://www.w3.org/Graphics/SVG/1.1/DTD/svg11.dtd">
<svg version="1.1" id="Layer_1" xmlns="http://www.w3.org/2000/svg" xmlns:xlink="http://www.w3.org/1999/xlink" x="0px" y="0px"
	 width="100px" height="100px" viewBox="0 0 100 100" enable-background="new 0 0 100 100" xml:space="preserve">
<g>
	<path d="M50,19.667c-17.093,0-31,13.907-31,31s13.907,31,31,31c17.094,0,31-13.906,31-31S67.094,19.667,50,19.667z M46.333,44.658
		h-4.917v24.684h-2V44.658H34.5V31.992h2v10.667h2.917V31.992h2v10.667h2.917V31.992h2V44.658z M57.5,51.667v17.675h-2v-37.35h2
		v0.62l8.544,19.055H57.5z"/>
	<polygon points="57.5,49.667 62.956,49.667 57.5,37.499 	"/>
</g>
</svg>
