<?xml version="1.0" encoding="utf-8"?>
<!-- Generator: Adobe Illustrator 17.0.0, SVG Export Plug-In . SVG Version: 6.00 Build 0)  -->
<!DOCTYPE svg PUBLIC "-//W3C//DTD SVG 1.1//EN" "http://www.w3.org/Graphics/SVG/1.1/DTD/svg11.dtd">
<svg version="1.1" id="Layer_1" xmlns="http://www.w3.org/2000/svg" xmlns:xlink="http://www.w3.org/1999/xlink" x="0px" y="0px"
	 width="100px" height="100px" viewBox="0 0 100 100" enable-background="new 0 0 100 100" xml:space="preserve">
<g>
	<path d="M31.812,80.666h33v-3.188h3.917V67.116c4.954-0.503,8.833-4.698,8.833-9.782s-3.879-9.28-8.833-9.782V39.5H27.896v37.978
		h3.917V80.666z M62.812,78.666h-29v-1.188h29V78.666z M75.562,57.333c0,3.98-2.985,7.268-6.833,7.762V49.571
		C72.577,50.065,75.562,53.354,75.562,57.333z"/>
	<rect x="22.438" y="81" width="54.125" height="2"/>
</g>
<g>
	<rect x="47.5" y="15.333" width="2" height="19.5"/>
</g>
<g>
	<rect x="57.5" y="15.333" width="2" height="19.5"/>
</g>
<g>
	<rect x="37.5" y="15.333" width="2" height="19.5"/>
</g>
</svg>
