<?xml version="1.0" encoding="utf-8"?>
<!-- Generator: Adobe Illustrator 17.0.0, SVG Export Plug-In . SVG Version: 6.00 Build 0)  -->
<!DOCTYPE svg PUBLIC "-//W3C//DTD SVG 1.1//EN" "http://www.w3.org/Graphics/SVG/1.1/DTD/svg11.dtd">
<svg version="1.1" id="Layer_1" xmlns="http://www.w3.org/2000/svg" xmlns:xlink="http://www.w3.org/1999/xlink" x="0px" y="0px"
	 width="100px" height="100px" viewBox="0 0 100 100" enable-background="new 0 0 100 100" xml:space="preserve">
<path d="M48.258,62.96h5.346V31.166h-6.907c2.281-1.757,3.759-4.508,3.759-7.603c0-5.295-4.308-9.603-9.603-9.603
	s-9.603,4.308-9.603,9.603c0,3.095,1.478,5.846,3.759,7.603h-6.907V62.96h5.136L26.821,74h6.738v12.04h14.38V74h6.738L48.258,62.96z
	"/>
<path d="M80.258,31.166c2.281-1.757,3.759-4.508,3.759-7.603c0-5.295-4.308-9.603-9.603-9.603s-9.603,4.308-9.603,9.603
	c0,3.095,1.478,5.846,3.759,7.603h-6.907V62.96h5.455v23.08H81.5V62.96h5.665V31.166H80.258z"/>
</svg>
