<?xml version="1.0" encoding="utf-8"?>
<!-- Generator: Adobe Illustrator 17.0.0, SVG Export Plug-In . SVG Version: 6.00 Build 0)  -->
<!DOCTYPE svg PUBLIC "-//W3C//DTD SVG 1.1//EN" "http://www.w3.org/Graphics/SVG/1.1/DTD/svg11.dtd">
<svg version="1.1" id="Layer_1" xmlns="http://www.w3.org/2000/svg" xmlns:xlink="http://www.w3.org/1999/xlink" x="0px" y="0px"
	 width="100px" height="100px" viewBox="0 0 100 100" enable-background="new 0 0 100 100" xml:space="preserve">
<rect x="29.169" y="45.407" transform="matrix(0.7071 0.7071 -0.7071 0.7071 56.9504 -4.5098)" width="9.5" height="42.167"/>
<rect x="51.266" y="36.227" transform="matrix(-0.7071 -0.7071 0.7071 -0.7071 64.2347 115.3933)" width="9.5" height="16.333"/>
<polygon points="78.94,49.037 80.94,49.036 80.94,42.8 87.176,42.8 87.176,40.8 80.94,40.8 80.94,34.564 78.94,34.564 78.94,40.8 
	72.704,40.8 72.704,42.8 78.94,42.8 "/>
<polygon points="81.155,56.059 81.155,54.059 74.918,54.059 74.918,47.823 72.919,47.823 72.919,54.059 66.682,54.059 
	66.682,56.059 72.919,56.059 72.919,62.295 74.918,62.295 74.918,56.059 "/>
<polygon points="66.016,18.65 59.78,18.65 59.78,12.414 57.78,12.414 57.78,18.65 51.544,18.65 51.544,20.65 57.78,20.65 
	57.78,26.886 59.78,26.886 59.78,20.65 66.016,20.65 "/>
<polygon points="52.759,24.673 46.522,24.673 46.522,18.436 44.523,18.436 44.523,24.673 38.286,24.673 38.286,26.672 
	44.523,26.672 44.523,32.909 46.522,32.909 46.522,26.672 52.759,26.672 "/>
</svg>
