<?xml version="1.0" encoding="utf-8"?>
<!-- Generator: Adobe Illustrator 17.0.0, SVG Export Plug-In . SVG Version: 6.00 Build 0)  -->
<!DOCTYPE svg PUBLIC "-//W3C//DTD SVG 1.1//EN" "http://www.w3.org/Graphics/SVG/1.1/DTD/svg11.dtd">
<svg version="1.1" id="Layer_1" xmlns="http://www.w3.org/2000/svg" xmlns:xlink="http://www.w3.org/1999/xlink" x="0px" y="0px"
	 width="100px" height="100px" viewBox="0 0 100 100" enable-background="new 0 0 100 100" xml:space="preserve">
<path d="M78.263,41.302c-0.006-0.089-0.023-0.175-0.052-0.259c-0.011-0.032-0.019-0.062-0.033-0.093
	c-0.049-0.106-0.11-0.207-0.196-0.293L50.993,13.668c-0.086-0.086-0.186-0.147-0.292-0.195c-0.031-0.015-0.063-0.023-0.096-0.034
	c-0.083-0.028-0.166-0.045-0.253-0.05c-0.023-0.002-0.043-0.013-0.065-0.013H22.725c-0.552,0-1,0.448-1,1v71.25c0,0.553,0.448,1,1,1
	h54.55c0.553,0,1-0.447,1-1V41.364C78.275,41.342,78.264,41.323,78.263,41.302z M23.725,84.625v-69.25h25.561v25.989
	c0,0.552,0.448,1,1,1h25.989v42.261H23.725z"/>
</svg>
