<?xml version="1.0" encoding="utf-8"?>
<!-- Generator: Adobe Illustrator 17.0.0, SVG Export Plug-In . SVG Version: 6.00 Build 0)  -->
<!DOCTYPE svg PUBLIC "-//W3C//DTD SVG 1.1//EN" "http://www.w3.org/Graphics/SVG/1.1/DTD/svg11.dtd">
<svg version="1.1" id="Layer_1" xmlns="http://www.w3.org/2000/svg" xmlns:xlink="http://www.w3.org/1999/xlink" x="0px" y="0px"
	 width="100px" height="100px" viewBox="0 0 100 100" enable-background="new 0 0 100 100" xml:space="preserve">
<g>
	<path d="M53.689,38.746c1.072,0,2.077,0.417,2.831,1.173l10.901,10.904c0.363,0.354,0.666,0.808,0.869,1.304
		c0.201,0.492,0.303,1.005,0.303,1.524c0,0.512-0.099,1.017-0.292,1.501c-0.223,0.534-0.517,0.974-0.905,1.354l-10.879,10.88
		c-1.513,1.509-4.136,1.51-5.653,0.007c-1.56-1.566-1.562-4.105-0.01-5.664l4.078-4.077H17.68c-2.207,0-4.002-1.795-4.002-4.002
		c0-2.206,1.795-4,4.002-4h37.251l-4.073-4.072c-1.552-1.563-1.553-4.101-0.005-5.656C51.617,39.162,52.622,38.746,53.689,38.746z"
		/>
</g>
<g>
	<polygon points="89.186,80.267 34.667,80.267 34.667,58.614 36.667,58.614 36.667,78.267 87.186,78.267 87.186,27.748 
		36.667,27.748 36.667,48.612 34.667,48.612 34.667,25.748 89.186,25.748 	"/>
</g>
</svg>
