<?xml version="1.0" encoding="utf-8"?>
<!-- Generator: Adobe Illustrator 17.0.0, SVG Export Plug-In . SVG Version: 6.00 Build 0)  -->
<!DOCTYPE svg PUBLIC "-//W3C//DTD SVG 1.1//EN" "http://www.w3.org/Graphics/SVG/1.1/DTD/svg11.dtd">
<svg version="1.1" id="Layer_1" xmlns="http://www.w3.org/2000/svg" xmlns:xlink="http://www.w3.org/1999/xlink" x="0px" y="0px"
	 width="100px" height="100px" viewBox="0 0 100 100" enable-background="new 0 0 100 100" xml:space="preserve">
<g>
	<rect x="53.292" y="52.835" width="5.76" height="5.76"/>
	<polygon points="38.5,49.059 37,49.059 37,54.759 31.3,54.759 31.3,56.259 37,56.259 37,61.958 38.5,61.958 38.5,56.259 
		44.2,56.259 44.2,54.759 38.5,54.759 	"/>
	<path d="M51.782,38.375L40.641,27.234l-1.414,1.414l9.727,9.727H23.496v34.186h55.745V38.375H51.782z M46.2,58.259h-5.7v5.699H35
		v-5.699h-5.7v-5.5H35v-5.7h5.5v5.7h5.7V58.259z M61.052,60.595h-9.76v-9.76h9.76V60.595z M72.716,60.595h-9.761v-9.76h9.761V60.595
		z"/>
	<rect x="64.955" y="52.835" width="5.761" height="5.76"/>
</g>
</svg>
