<?xml version="1.0" encoding="utf-8"?>
<!-- Generator: Adobe Illustrator 17.0.0, SVG Export Plug-In . SVG Version: 6.00 Build 0)  -->
<!DOCTYPE svg PUBLIC "-//W3C//DTD SVG 1.1//EN" "http://www.w3.org/Graphics/SVG/1.1/DTD/svg11.dtd">
<svg version="1.1" id="Layer_1" xmlns="http://www.w3.org/2000/svg" xmlns:xlink="http://www.w3.org/1999/xlink" x="0px" y="0px"
	 width="100px" height="100px" viewBox="0 0 100 100" enable-background="new 0 0 100 100" xml:space="preserve">
<g>
	<path d="M32.03,29.551c-9.654,0-17.507,7.854-17.507,17.507c0,8.562,12.668,26.25,15.208,29.71l0.564,0.766
		c0.402,0.551,1.051,0.88,1.735,0.88c0.683,0,1.331-0.328,1.732-0.875l0.566-0.771c2.54-3.455,15.208-21.122,15.208-29.71
		C49.537,37.405,41.683,29.551,32.03,29.551z M32.03,56.242c-4.288,0-7.777-3.488-7.777-7.776s3.489-7.777,7.777-7.777
		c4.287,0,7.776,3.489,7.776,7.777C39.806,52.754,36.318,56.242,32.03,56.242z"/>
	<path d="M32.03,42.689c-3.186,0-5.777,2.591-5.777,5.777s2.591,5.776,5.777,5.776c3.185,0,5.776-2.591,5.776-5.776
		C37.806,45.28,35.214,42.689,32.03,42.689z M32.03,53.241c-2.633,0-4.774-2.143-4.774-4.775s2.142-4.774,4.774-4.774
		c2.632,0,4.774,2.142,4.774,4.774S34.662,53.241,32.03,53.241z"/>
	<circle cx="32.03" cy="48.466" r="2.775"/>
	<path d="M69.51,34.171c-3.186,0-5.776,2.591-5.776,5.777s2.591,5.777,5.776,5.777s5.776-2.591,5.776-5.777
		S72.695,34.171,69.51,34.171z M69.51,44.724c-2.633,0-4.774-2.143-4.774-4.776c0-2.632,2.142-4.774,4.774-4.774
		s4.774,2.142,4.774,4.774C74.284,42.582,72.143,44.724,69.51,44.724z"/>
	<circle cx="69.51" cy="39.949" r="2.775"/>
	<path d="M69.51,18.147c-9.653,0-17.507,9.714-17.507,21.655c0,10.582,12.621,32.627,15.151,36.939l0.564,0.96
		c0.396,0.678,1.066,1.083,1.791,1.083s1.394-0.404,1.789-1.079l0.566-0.964c1.551-2.64,15.151-26.102,15.151-36.939
		C87.017,27.861,79.163,18.147,69.51,18.147z M69.51,47.725c-4.288,0-7.776-3.489-7.776-7.777s3.488-7.777,7.776-7.777
		s7.776,3.489,7.776,7.777S73.798,47.725,69.51,47.725z"/>
</g>
</svg>
