<?xml version="1.0" encoding="utf-8"?>
<!-- Generator: Adobe Illustrator 16.0.0, SVG Export Plug-In . SVG Version: 6.00 Build 0)  -->
<!DOCTYPE svg PUBLIC "-//W3C//DTD SVG 1.1//EN" "http://www.w3.org/Graphics/SVG/1.1/DTD/svg11.dtd">
<svg version="1.1" id="Layer_1" xmlns="http://www.w3.org/2000/svg" xmlns:xlink="http://www.w3.org/1999/xlink" x="0px" y="0px"
	 width="100px" height="100px" viewBox="0 0 100 100" enable-background="new 0 0 100 100" xml:space="preserve">
<g>
	<path d="M79.4,33.965l-0.585-0.999l-0.037,0.03c-5.418-8.885-15.2-14.831-26.347-14.831C35.43,18.166,21.598,31.998,21.598,49
		S35.43,79.834,52.432,79.834c3.784,0,7.409-0.688,10.761-1.941c2.298-0.806,4.51-1.875,6.582-3.229l0.621-0.405l-0.054-0.184
		c5.87-4.205,10.211-10.412,12.007-17.62l0.323,0.278L83,55.041c0.377-1.938,0.567-3.887,0.567-5.792
		C83.567,43.907,82.126,38.623,79.4,33.965z M72.996,33.556c0.093-0.231,0.22-0.51,0.359-0.817l0.078-0.172
		c0.47-1.02,0.765-1.734,0.928-2.257c1.041,1.22,1.985,2.524,2.814,3.907c-0.235,0.147-0.462,0.269-0.67,0.355l-0.704,0.308
		c-0.59,0.262-0.868,0.378-1.304,0.378c-0.464,0-1.1-0.14-2.002-0.44c-0.372-0.125-0.826-0.276-0.996-0.381
		c0.025-0.016,0.092-0.045,0.212-0.067C72.076,34.304,72.754,34.182,72.996,33.556z M50.746,39.738
		c-0.476-0.283-1.016-0.604-1.349-1.156c-0.461-0.767-1.028-0.928-1.423-0.928c-0.512,0-0.871,0.271-1.083,0.43
		c-0.351,0.252-0.693,0.6-1.055,0.968l-0.089,0.09c-0.758,0.765-1.618,1.632-2.53,1.955c-0.749,0.266-1.264,1.105-1.82,2.106
		c-0.311,0.558-0.528,0.924-0.699,0.924l-0.1-0.027c-0.896-0.437-1.789-0.951-2-2.003c-0.123-0.609,0.289-1.638,0.789-2.886
		c0.512-1.285,1.092-2.74,1.218-4.144c0.077-0.842-0.197-1.634-0.796-2.294c-1.092-1.195-2.742-1.536-3.562-1.238l-0.158,0.071
		c-0.698,0.385-1.146,1.373-1.83,3.308c-0.289,0.821-0.587,1.671-0.93,2.165c-0.204,0.297-0.441,0.599-0.696,0.92
		c-0.964,1.228-2.164,2.756-2.564,5.351c-0.116,0.752-0.19,1.398-0.257,1.974l0.994,0.114l-1.006-0.01
		c-0.211,1.804-0.351,2.996-1.49,4.702l-0.188,0.281c-0.325,0.486-0.447,0.669-0.532,0.845l-0.083,0.172l-0.014,0.19
		c-0.01,0.137-0.122,0.658-0.94,2.529c-0.67,1.533-0.832,2.586-0.938,3.28c-0.094,0.601-0.183,0.907-0.402,1.07
		c-1.042-2.977-1.615-6.171-1.615-9.499c0-15.899,12.935-28.834,28.834-28.834c7.586,0,14.493,2.949,19.646,7.756
		c-0.506-0.02-1.1,0.019-1.837,0.117c-1.936,0.254-2.88,1.105-3.996,2.112c-0.501,0.452-1.067,0.963-1.776,1.453
		c-0.271,0.186-0.485,0.361-0.654,0.536l-0.652,0.675l0.804,0.875c0.294,0.315,0.503,0.562,0.503,0.873
		c0,0.95-1.233,4.498-3.265,6.782c-1.005,1.132-1.509,1.51-2.021,1.894c-0.491,0.374-0.999,0.761-1.996,1.893
		c-0.741,0.842-0.836,1.264-0.836,1.538v0.201l0.078,0.186c0.044,0.105,0.093,0.187,0.274,0.45c0.262,0.389,0.588,0.873,0.487,1.753
		c-0.094,0.756-0.259,1.139-0.491,1.139c-0.186,0-0.382-0.224-0.645-0.543c-0.279-0.29-0.674-0.439-1.048-0.582
		c-0.633-0.239-1.349-0.509-1.806-1.15c-0.493-0.693-0.675-2.863-0.835-4.778l-0.016-0.191c-0.062-0.733-0.114-1.366-0.19-1.808
		C52.021,40.496,51.402,40.128,50.746,39.738z M58.981,57.648c-1.223-0.163-2.015,0.565-2.515,1.027
		c-0.114,0.105-0.287,0.266-0.327,0.29c-0.03,0.009-0.12,0.03-0.297,0.03c-0.981,0-2.532-0.599-2.97-1.041
		c-0.475-0.484-0.93-2.516-0.97-3.839c-0.005-0.353,0.231-1.266,0.487-1.859c1.325,2.64,2.737,3.533,3.505,4.02
		c0.592,0.373,1.541,0.285,2.445,0.121c0.328-0.06,0.667-0.121,0.912-0.13C59.301,56.672,59.166,57.386,58.981,57.648z
		 M61.783,51.927l-2.125,0.234l2.965-4.473c0.396-0.594,0.634-0.824,0.886-1.067c0.267-0.257,0.567-0.548,1.304-1.589
		c0.722-1.021,1.498-1.235,2.021-1.235c1.558,0,2.562,1.805,2.641,2.731c0.158,1.736-0.936,3.49-3.25,5.208
		c-0.779,0.581-1.349,0.829-1.903,0.829c-0.519,0-0.887-0.221-1.154-0.382c-0.216-0.13-0.372-0.224-0.66-0.264
		C62.331,51.898,62.08,51.893,61.783,51.927z M69.764,72.026c-0.466-1.701-0.722-2.508-1.466-2.758
		c-0.289-0.097-0.658-0.138-1.233-0.138c-0.471,0-1.04,0.029-1.614,0.06c-0.798,0.042-1.62,0.095-2.121,0.033
		c-0.163-0.02-0.382-0.075-0.505-0.234c-0.148-0.19-0.193-0.562-0.128-1.044c0.089-0.66,0.068-1.32,0.05-1.959
		c-0.03-1.005-0.03-1.78,0.263-1.873c0.266-0.084,0.564-0.171,0.88-0.265c1.649-0.485,3.519-1.035,4.51-1.926
		c0.292-0.262,0.513-0.563,0.726-0.855c0.409-0.56,0.794-1.087,1.758-1.491c0.849-0.357,1.85-0.57,2.681-0.57
		c0.621,0,0.963,0.121,1.105,0.217c0.006,0.025,0.011,0.052,0.017,0.078c0.32,1.492,1.298,2.005,2.783,1.267
		c0.709-0.355,1.354-0.805,1.901-1.3C77.417,64.372,74.059,68.786,69.764,72.026z"/>
	<path d="M64.373,50.57c-0.014-0.018,0.182-0.083,0.659-0.439c1.669-1.239,2.539-2.456,2.45-3.427
		c-0.042-0.273-0.446-0.874-0.652-0.907c-0.025,0.007-0.177,0.096-0.385,0.389c-0.845,1.195-1.233,1.571-1.547,1.873
		c-0.209,0.202-0.335,0.323-0.609,0.735l-0.86,1.299c0.338,0.117,0.583,0.264,0.768,0.375C64.259,50.507,64.313,50.546,64.373,50.57
		z"/>
</g>
</svg>
