<?xml version="1.0" encoding="utf-8"?>
<!-- Generator: Adobe Illustrator 17.0.0, SVG Export Plug-In . SVG Version: 6.00 Build 0)  -->
<!DOCTYPE svg PUBLIC "-//W3C//DTD SVG 1.1//EN" "http://www.w3.org/Graphics/SVG/1.1/DTD/svg11.dtd">
<svg version="1.1" id="Layer_1" xmlns="http://www.w3.org/2000/svg" xmlns:xlink="http://www.w3.org/1999/xlink" x="0px" y="0px"
	 width="100px" height="100px" viewBox="0 0 100 100" enable-background="new 0 0 100 100" xml:space="preserve">
<g>
	<path d="M60.228,48.971H49.325c-2.07,0-3.754,1.684-3.754,3.753c0,2.07,1.684,3.754,3.754,3.754h10.901
		c2.07,0,3.755-1.684,3.755-3.754C63.981,50.655,62.298,48.971,60.228,48.971z"/>
	<path d="M30.993,43.895v28.766H78.5V43.895H30.993z M60.227,58.479H49.325c-3.173,0-5.754-2.581-5.754-5.754
		c0-3.172,2.582-5.753,5.754-5.753h10.902c3.173,0,5.754,2.581,5.754,5.753C65.981,55.897,63.399,58.479,60.227,58.479z"/>
</g>
<polygon points="81.444,41.895 80.5,41.895 28.993,41.895 27.627,41.895 27.627,29.742 81.444,29.742 "/>
</svg>
