<?xml version="1.0" encoding="utf-8"?>
<!-- Generator: Adobe Illustrator 17.0.0, SVG Export Plug-In . SVG Version: 6.00 Build 0)  -->
<!DOCTYPE svg PUBLIC "-//W3C//DTD SVG 1.1//EN" "http://www.w3.org/Graphics/SVG/1.1/DTD/svg11.dtd">
<svg version="1.1" id="Layer_1" xmlns="http://www.w3.org/2000/svg" xmlns:xlink="http://www.w3.org/1999/xlink" x="0px" y="0px"
	 width="100px" height="100px" viewBox="0 0 100 100" enable-background="new 0 0 100 100" xml:space="preserve">
<g>
	<path d="M51.897,79.103c15.543,0,28.188-12.646,28.188-28.19c0-15.545-12.646-28.191-28.188-28.191s-28.188,12.646-28.188,28.19
		C23.709,66.456,36.354,79.103,51.897,79.103z"/>
	<path d="M74.035,72.798c5.855-5.855,9.08-13.64,9.08-21.92c0-8.281-3.225-16.065-9.08-21.92l-1.414,1.414
		c5.478,5.477,8.494,12.76,8.494,20.506c0,7.746-3.017,15.028-8.494,20.506s-12.76,8.494-20.506,8.494
		c-7.747,0-15.029-3.017-20.506-8.494l-1.414,1.414c5.567,5.567,12.879,8.75,20.703,9.05v3.584h-13.25v2h28.5v-2h-13.25v-3.574
		C60.884,81.662,68.365,78.468,74.035,72.798z"/>
</g>
</svg>
