<?xml version="1.0" encoding="utf-8"?>
<!-- Generator: Adobe Illustrator 17.0.0, SVG Export Plug-In . SVG Version: 6.00 Build 0)  -->
<!DOCTYPE svg PUBLIC "-//W3C//DTD SVG 1.1//EN" "http://www.w3.org/Graphics/SVG/1.1/DTD/svg11.dtd">
<svg version="1.1" id="Layer_1" xmlns="http://www.w3.org/2000/svg" xmlns:xlink="http://www.w3.org/1999/xlink" x="0px" y="0px"
	 width="100px" height="100px" viewBox="0 0 100 100" enable-background="new 0 0 100 100" xml:space="preserve">
<g>
	<path d="M42.359,48.625c0-4.962-4.038-9-9-9s-9,4.038-9,9s4.038,9,9,9S42.359,53.587,42.359,48.625z M33.359,55.624
		c-3.86,0-7-3.14-7-7s3.14-7,7-7s7,3.14,7,7S37.219,55.624,33.359,55.624z"/>
	<path d="M63.359,39.625c-4.963,0-9,4.038-9,9s4.037,9,9,9s9-4.037,9-9S68.322,39.625,63.359,39.625z M63.359,55.624
		c-3.859,0-7-3.14-7-7s3.141-7,7-7s7,3.14,7,7S67.219,55.624,63.359,55.624z"/>
	<path d="M63.359,35.625c-7.168,0-13,5.832-13,13c0,2.51,0.733,4.934,2.059,7h-8.117c1.325-2.065,2.059-4.489,2.059-7
		c0-7.168-5.832-13-13-13s-13,5.832-13,13c0,7.167,5.832,13,13,13h30c7.168,0,13-5.832,13-13
		C76.359,41.456,70.527,35.625,63.359,35.625z M63.359,59.624h-30c-6.065,0-11-4.935-11-11c0-6.065,4.935-11,11-11s11,4.935,11,11
		c0,3.72-1.861,7.008-4.695,9h17.391c-2.835-1.992-4.695-5.28-4.695-9c0-6.065,4.935-11,11-11s11,4.935,11,11
		C74.359,54.689,69.425,59.624,63.359,59.624z"/>
</g>
</svg>
