<?xml version="1.0" encoding="utf-8"?>
<!-- Generator: Adobe Illustrator 17.0.0, SVG Export Plug-In . SVG Version: 6.00 Build 0)  -->
<!DOCTYPE svg PUBLIC "-//W3C//DTD SVG 1.1//EN" "http://www.w3.org/Graphics/SVG/1.1/DTD/svg11.dtd">
<svg version="1.1" id="Layer_1" xmlns="http://www.w3.org/2000/svg" xmlns:xlink="http://www.w3.org/1999/xlink" x="0px" y="0px"
	 width="100px" height="100px" viewBox="0 0 100 100" enable-background="new 0 0 100 100" xml:space="preserve">
<path d="M68.361,31.266l0.797,0.094l0.291,0.746c1.524,3.915,2.329,8.348,2.328,12.821c0,1.434-0.079,2.787-0.217,4.073h-18.47
	V26.65C57.259,28.981,62.523,30.579,68.361,31.266z"/>
<path d="M34.732,32.106l0.291-0.747l0.796-0.094c5.838-0.687,11.102-2.284,15.271-4.616V49H32.6
	c-0.127-1.311-0.197-2.666-0.197-4.074C32.403,40.454,33.208,36.021,34.732,32.106z"/>
<path d="M32.85,51h18.241v20.849c-1.615-0.369-5.34-1.466-9.028-4.301C37.013,63.666,33.933,58.111,32.85,51z"/>
<path d="M62.095,67.251c-3.699,2.939-7.442,4.158-9.004,4.571V51h18.197C69.887,59.359,65.709,64.383,62.095,67.251z"/>
</svg>
