<?xml version="1.0" encoding="utf-8"?>
<!-- Generator: Adobe Illustrator 16.0.0, SVG Export Plug-In . SVG Version: 6.00 Build 0)  -->
<!DOCTYPE svg PUBLIC "-//W3C//DTD SVG 1.1//EN" "http://www.w3.org/Graphics/SVG/1.1/DTD/svg11.dtd">
<svg version="1.1" id="Layer_1" xmlns="http://www.w3.org/2000/svg" xmlns:xlink="http://www.w3.org/1999/xlink" x="0px" y="0px"
	 width="100px" height="100px" viewBox="0 0 100 100" enable-background="new 0 0 100 100" xml:space="preserve">
<g>
	<path d="M60.253,36.139L48.265,24.15l0.139,23.838L60.253,36.139z M57.425,36.139l-7.049,7.049l-0.083-14.181L57.425,36.139z"/>
	<path d="M48.403,75.905l11.85-11.85L48.265,52.067L48.403,75.905z M57.425,64.056l-7.049,7.049l-0.083-14.181L57.425,64.056z"/>
	<path d="M65.909,36.139L44.208,14.437l0.163,28.08l-5.747-5.747l-4.243,4.243l8.627,8.627l-8.918,8.919l4.243,4.242l5.96-5.96
		l0.166,28.667l21.451-21.451L51.951,50.097L65.909,36.139z M63.081,64.056l-16.65,16.65l-0.166-28.667l-7.932,7.933l-1.414-1.414
		l8.918-8.919l-8.627-8.627l1.414-1.414l7.613,7.612l0.163,0.162l-0.163-28.079l16.844,16.845L49.123,50.097L63.081,64.056z"/>
</g>
</svg>
