<?xml version="1.0" encoding="utf-8"?>
<!-- Generator: Adobe Illustrator 17.0.0, SVG Export Plug-In . SVG Version: 6.00 Build 0)  -->
<!DOCTYPE svg PUBLIC "-//W3C//DTD SVG 1.1//EN" "http://www.w3.org/Graphics/SVG/1.1/DTD/svg11.dtd">
<svg version="1.1" id="Layer_1" xmlns="http://www.w3.org/2000/svg" xmlns:xlink="http://www.w3.org/1999/xlink" x="0px" y="0px"
	 width="100px" height="100px" viewBox="0 0 100 100" enable-background="new 0 0 100 100" xml:space="preserve">
<g>
	<rect x="59.438" y="52.991" width="6.125" height="5.066"/>
	<rect x="48.75" y="52.991" width="6.125" height="5.066"/>
	<path d="M73.688,69.737V43.171h-7.125V28.605h-8.125v14.566h-2.562V28.605H47.75v14.566H23.875v26.565h-3.188v3.465h56.188v-3.465
		H73.688z M58.438,51.991h8.125v7.066h-8.125V51.991z M47.75,51.991h8.125v7.066H47.75V51.991z M28.5,52.991H43v16.746H28.5V52.991z
		 M75.875,72.202H21.688v-1.465h2.188H27.5H44h29.688h2.188V72.202z"/>
	<rect x="24.375" y="38.888" width="19.125" height="1"/>
</g>
</svg>
