<?xml version="1.0" encoding="utf-8"?>
<!-- Generator: Adobe Illustrator 17.0.0, SVG Export Plug-In . SVG Version: 6.00 Build 0)  -->
<!DOCTYPE svg PUBLIC "-//W3C//DTD SVG 1.1//EN" "http://www.w3.org/Graphics/SVG/1.1/DTD/svg11.dtd">
<svg version="1.1" id="Layer_1" xmlns="http://www.w3.org/2000/svg" xmlns:xlink="http://www.w3.org/1999/xlink" x="0px" y="0px"
	 width="100px" height="100px" viewBox="0 0 100 100" enable-background="new 0 0 100 100" xml:space="preserve">
<path d="M50,19c-17.093,0-31,13.907-31,31c0,17.094,13.907,31,31,31c17.094,0,31-13.906,31-31C81,32.907,67.094,19,50,19z
	 M50.988,60.443v3.544h-2.146v-3.441c-1.976-0.034-4.021-0.647-5.213-1.5l0.818-2.282c1.227,0.817,2.998,1.465,4.907,1.465
	c2.419,0,4.055-1.396,4.055-3.339c0-1.874-1.329-3.032-3.851-4.055c-3.476-1.363-5.622-2.931-5.622-5.896
	c0-2.828,2.01-4.975,5.145-5.485v-3.441h2.113v3.305c2.044,0.068,3.441,0.613,4.429,1.192l-0.852,2.249
	c-0.716-0.409-2.112-1.158-4.293-1.158c-2.624,0-3.612,1.567-3.612,2.93c0,1.772,1.261,2.659,4.225,3.885
	c3.51,1.431,5.281,3.202,5.281,6.235C56.372,57.343,54.498,59.864,50.988,60.443z"/>
</svg>
