<?xml version="1.0" encoding="utf-8"?>
<!-- Generator: Adobe Illustrator 17.0.0, SVG Export Plug-In . SVG Version: 6.00 Build 0)  -->
<!DOCTYPE svg PUBLIC "-//W3C//DTD SVG 1.1//EN" "http://www.w3.org/Graphics/SVG/1.1/DTD/svg11.dtd">
<svg version="1.1" id="Layer_1" xmlns="http://www.w3.org/2000/svg" xmlns:xlink="http://www.w3.org/1999/xlink" x="0px" y="0px"
	 width="100px" height="100px" viewBox="0 0 100 100" enable-background="new 0 0 100 100" xml:space="preserve">
<path d="M63.537,33.891l0.865-0.842l1.618-1.398c0.745-0.644,1.165-1.583,1.147-2.492l0.002-0.167
	c0.012-0.793-0.255-1.563-0.75-2.167l-0.662-0.801l-2.731-3.974c-0.623-0.907-1.651-1.448-2.75-1.448H43.856
	c-1.1,0-2.128,0.542-2.75,1.448l-2.681,3.906l-0.713,0.869c-0.496,0.604-0.762,1.375-0.748,2.09l-0.003,0.159
	c-0.014,0.994,0.405,1.934,1.15,2.577l1.574,1.357l0.907,0.884c-11.738,4.675-19.528,16.031-19.528,28.775c0,17.094,13.906,31,31,31
	c17.094,0,31-13.906,31-31C83.065,49.923,75.275,38.566,63.537,33.891z M52.065,91.667c-15.99,0-29-13.01-29-29
	c0-12.22,7.646-23.095,19.089-27.254l6.978,6.797c0.172,0.167,0.63,0.613,2.933,0.613c2.302,0,2.76-0.446,2.932-0.614l6.979-6.796
	c11.442,4.158,19.089,15.034,19.089,27.254C81.065,78.657,68.056,91.667,52.065,91.667z"/>
</svg>
