<?xml version="1.0" encoding="utf-8"?>
<!-- Generator: Adobe Illustrator 17.0.0, SVG Export Plug-In . SVG Version: 6.00 Build 0)  -->
<!DOCTYPE svg PUBLIC "-//W3C//DTD SVG 1.1//EN" "http://www.w3.org/Graphics/SVG/1.1/DTD/svg11.dtd">
<svg version="1.1" id="Layer_1" xmlns="http://www.w3.org/2000/svg" xmlns:xlink="http://www.w3.org/1999/xlink" x="0px" y="0px"
	 width="100px" height="100px" viewBox="0 0 100 100" enable-background="new 0 0 100 100" xml:space="preserve">
<g>
	<path d="M70.958,33.973H37.252v5.684h33.706V33.973z M41.323,38.069h-2.509V35.56h2.509V38.069z M45.086,38.069h-2.509V35.56h2.509
		V38.069z M48.85,38.069h-2.509V35.56h2.509V38.069z"/>
	<path d="M70.958,46.518H37.252v5.684h33.706V46.518z M41.323,50.613h-2.509v-2.508h2.509V50.613z M45.086,50.613h-2.509v-2.508
		h2.509V50.613z M48.85,50.613h-2.509v-2.508h2.509V50.613z"/>
	<path d="M28.092,23.717v38.741h52.027V23.717H28.092z M72.958,54.202H35.252v-9.684h37.706V54.202z M72.958,41.657H35.252v-9.684
		h37.706V41.657z"/>
	<path d="M61.5,67H46.711v4.75H29.092v2h17.619v4.75H61.5v-4.75h17.619v-2H61.5V67z M59.5,76.5H48.711V69H59.5V76.5z"/>
</g>
</svg>
