<?xml version="1.0" encoding="utf-8"?>
<!-- Generator: Adobe Illustrator 17.0.0, SVG Export Plug-In . SVG Version: 6.00 Build 0)  -->
<!DOCTYPE svg PUBLIC "-//W3C//DTD SVG 1.1//EN" "http://www.w3.org/Graphics/SVG/1.1/DTD/svg11.dtd">
<svg version="1.1" id="Layer_1" xmlns="http://www.w3.org/2000/svg" xmlns:xlink="http://www.w3.org/1999/xlink" x="0px" y="0px"
	 width="100px" height="100px" viewBox="0 0 100 100" enable-background="new 0 0 100 100" xml:space="preserve">
<g>
	<path d="M51.875,87h3.5V20.214l-9,6.545V47h5.5V87z"/>
	<path d="M42.625,44.5h-0.25V51h5.5v40h11.5V12.358L42.625,24.54V44.5z M57.375,16.286V89h-7.5V49h-5.5V25.741L57.375,16.286z"/>
	<path d="M42.625,24.54v-9.29h-22V44.5h6.125v2h-1.125V91h12V46.5H36.5v-2h5.875V24.722L42.625,24.54z M40.625,42.5H34.5v6h1.125V89
		h-8V48.5h1.125v-6h-6.125V17.25h6h6h6V42.5z"/>
	<polygon points="32.625,19.25 30.625,19.25 30.625,38.5 26.625,38.5 26.625,19.25 24.625,19.25 24.625,40.5 30.75,40.5 30.75,50.5 
		29.625,50.5 29.625,87 33.625,87 33.625,50.5 32.5,50.5 32.5,40.5 38.625,40.5 38.625,19.25 36.625,19.25 36.625,38.5 32.625,38.5 
			"/>
	<path d="M74.273,19.25c-4.397,0-8.112,6.632-8.112,14.482c0,6.326,2.399,12.034,5.836,13.88l0.526,0.283V87h3.5V47.896l0.526-0.283
		c3.437-1.847,5.837-7.554,5.837-13.88C82.387,25.882,78.671,19.25,74.273,19.25z"/>
	<path d="M74.273,15.25c-6.905,0-12.112,7.945-12.112,18.482c0,6.97,2.466,13.229,6.362,16.354V91h11.5V50.086
		c3.896-3.125,6.363-9.383,6.363-16.354C86.387,23.195,81.179,15.25,74.273,15.25z M78.023,49.064V89h-7.5V49.064
		c-3.828-2.45-6.362-8.5-6.362-15.333c0-9.242,4.441-16.482,10.112-16.482s10.113,7.24,10.113,16.482
		C84.387,40.565,81.853,46.615,78.023,49.064z"/>
</g>
</svg>
