<?xml version="1.0" encoding="utf-8"?>
<!-- Generator: Adobe Illustrator 17.0.0, SVG Export Plug-In . SVG Version: 6.00 Build 0)  -->
<!DOCTYPE svg PUBLIC "-//W3C//DTD SVG 1.1//EN" "http://www.w3.org/Graphics/SVG/1.1/DTD/svg11.dtd">
<svg version="1.1" id="Layer_1" xmlns="http://www.w3.org/2000/svg" xmlns:xlink="http://www.w3.org/1999/xlink" x="0px" y="0px"
	 width="100px" height="100px" viewBox="0 0 100 100" enable-background="new 0 0 100 100" xml:space="preserve">
<path d="M81.448,68.359c7.934,0,14.389-6.456,14.389-14.391c0-5.924-3.594-11.171-9.039-13.347c0.312-1.188,0.47-2.41,0.47-3.646
	c0-7.935-6.456-14.39-14.391-14.39c-4.586,0-8.668,2.164-11.305,5.517c-2.635-3.395-6.743-5.593-11.363-5.593
	c-4.62,0-8.727,2.198-11.362,5.593c-2.637-3.352-6.72-5.517-11.306-5.517c-7.934,0-14.389,6.456-14.389,14.39
	c0,1.311,0.177,2.604,0.527,3.858c-5.129,2.292-8.513,7.455-8.513,13.136c0,7.935,6.456,14.391,14.391,14.391
	c1.669,0,3.351-0.306,4.939-0.892v3.273H9.501v6.675H46V77.34h8.837v0.076h36.498V75.12c0.113-0.34,0.17-0.689,0.17-1.042
	s-0.057-0.702-0.17-1.042v-2.295H76.506v-3.273C78.095,68.053,79.778,68.359,81.448,68.359z M39.315,67.987
	c0.94,0.194,1.913,0.296,2.91,0.296c1.669,0,3.351-0.306,4.939-0.892v3.273H32.169v0.076h-0.998v-3.273
	c1.589,0.586,3.271,0.892,4.941,0.892C37.215,68.359,38.284,68.223,39.315,67.987z M64.893,68.359c1.669,0,3.351-0.306,4.939-0.892
	v3.273h-1.165v-0.076H53.839v-3.273c1.589,0.586,3.271,0.892,4.941,0.892c0.996,0,1.969-0.102,2.909-0.296
	C62.721,68.223,63.79,68.359,64.893,68.359z"/>
</svg>
