<?xml version="1.0" encoding="utf-8"?>
<!-- Generator: Adobe Illustrator 16.0.0, SVG Export Plug-In . SVG Version: 6.00 Build 0)  -->
<!DOCTYPE svg PUBLIC "-//W3C//DTD SVG 1.1//EN" "http://www.w3.org/Graphics/SVG/1.1/DTD/svg11.dtd">
<svg version="1.1" id="Layer_1" xmlns="http://www.w3.org/2000/svg" xmlns:xlink="http://www.w3.org/1999/xlink" x="0px" y="0px"
	 width="100px" height="100px" viewBox="0 0 100 100" enable-background="new 0 0 100 100" xml:space="preserve">
<g>
	<path d="M68.899,40.976l1.414-1.414L59.969,29.217v31c-0.724-0.447-1.599-0.686-2.583-0.686c-2.333,0-5.022,1.297-7.196,3.471
		c-3.569,3.568-4.54,8.188-2.21,10.519c0.825,0.825,1.973,1.261,3.32,1.261c2.333,0,5.024-1.297,7.198-3.471
		c2.204-2.205,3.414-4.81,3.47-7.029h0.001v-0.021c0.001-0.05,0-0.099,0-0.148V34.045L68.899,40.976z"/>
	<rect x="34.25" y="31.417" width="15.75" height="2"/>
	<rect x="34.25" y="35.25" width="15.75" height="2"/>
	<rect x="34.25" y="39.25" width="15.75" height="2"/>
</g>
</svg>
