<?xml version="1.0" encoding="utf-8"?>
<!-- Generator: Adobe Illustrator 17.0.0, SVG Export Plug-In . SVG Version: 6.00 Build 0)  -->
<!DOCTYPE svg PUBLIC "-//W3C//DTD SVG 1.1//EN" "http://www.w3.org/Graphics/SVG/1.1/DTD/svg11.dtd">
<svg version="1.1" id="Layer_1" xmlns="http://www.w3.org/2000/svg" xmlns:xlink="http://www.w3.org/1999/xlink" x="0px" y="0px"
	 width="100px" height="100px" viewBox="0 0 100 100" enable-background="new 0 0 100 100" xml:space="preserve">
<path d="M22.25,48.375c0,16.569,13.431,30,30,30s30-13.431,30-30s-13.431-30-30-30S22.25,31.806,22.25,48.375z M42.19,45.833
	c0-5.058,4.114-9.172,9.172-9.172c5.058,0,9.172,4.114,9.172,9.172v0.427h0.002L60.6,59.516l5.629-5.629l1.414,1.414l-8.038,8.038
	l-8.178-8.178l1.414-1.414l5.76,5.759l-0.059-12.235h-0.007v-1.438c0-3.954-3.217-7.172-7.172-7.172
	c-3.955,0-7.172,3.218-7.172,7.172v17.505h-2V45.833z"/>
</svg>
