<?xml version="1.0" encoding="utf-8"?>
<!-- Generator: Adobe Illustrator 17.0.0, SVG Export Plug-In . SVG Version: 6.00 Build 0)  -->
<!DOCTYPE svg PUBLIC "-//W3C//DTD SVG 1.1//EN" "http://www.w3.org/Graphics/SVG/1.1/DTD/svg11.dtd">
<svg version="1.1" id="Layer_1" xmlns="http://www.w3.org/2000/svg" xmlns:xlink="http://www.w3.org/1999/xlink" x="0px" y="0px"
	 width="100px" height="100px" viewBox="0 0 100 100" enable-background="new 0 0 100 100" xml:space="preserve">
<g>
	<path d="M71.42,71.42h-5v6h11v-11h-6V71.42z M73.42,68.419h2v7h-7v-2h5V68.419z"/>
	<path d="M41.86,77.42H58.14v-6H41.86V77.42z M43.86,73.419h12.28v2H43.86V73.419z"/>
	<path d="M28.58,66.42h-6v11h11v-6h-5V66.42z M31.58,73.419v2h-7v-7h2v5H31.58z"/>
	<path d="M28.58,41.86h-6v16.28h6V41.86z M26.58,56.14h-2V43.86h2V56.14z"/>
	<path d="M22.58,33.581h6v-5h5v-6h-11V33.581z M24.58,24.581h7v2h-5v5h-2V24.581z"/>
	<path d="M41.86,28.581H58.14v-6H41.86V28.581z M43.86,24.581h12.28v2H43.86V24.581z"/>
	<path d="M66.42,22.581v6h5v5h6v-11H66.42z M75.42,31.581h-2v-5h-5v-2h7V31.581z"/>
	<path d="M71.42,58.139h6V41.86h-6V58.139z M73.42,43.86h2v12.279h-2V43.86z"/>
</g>
</svg>
