<?xml version="1.0" encoding="utf-8"?>
<!-- Generator: Adobe Illustrator 17.0.0, SVG Export Plug-In . SVG Version: 6.00 Build 0)  -->
<!DOCTYPE svg PUBLIC "-//W3C//DTD SVG 1.1//EN" "http://www.w3.org/Graphics/SVG/1.1/DTD/svg11.dtd">
<svg version="1.1" id="Layer_1" xmlns="http://www.w3.org/2000/svg" xmlns:xlink="http://www.w3.org/1999/xlink" x="0px" y="0px"
	 width="100px" height="100px" viewBox="0 0 100 100" enable-background="new 0 0 100 100" xml:space="preserve">
<polygon points="35.907,23.75 64.093,23.75 65.897,42.25 34.103,42.25 "/>
<rect x="34" y="69.5" width="5" height="6.75"/>
<rect x="61" y="69.5" width="5" height="6.75"/>
<g>
	<path d="M63.5,52.057c-2.175,0-3.943,1.769-3.943,3.943s1.769,3.943,3.943,3.943s3.943-1.769,3.943-3.943
		S65.675,52.057,63.5,52.057z"/>
	<path d="M36.5,51.364c-2.175,0-3.943,1.769-3.943,3.942c0,2.175,1.769,3.943,3.943,3.943s3.943-1.769,3.943-3.943
		C40.443,53.133,38.675,51.364,36.5,51.364z"/>
	<path d="M27,44.5v23h5h9h18h9h5v-23H27z M36.5,61.25c-3.277,0-5.943-2.666-5.943-5.943c0-3.276,2.666-5.942,5.943-5.942
		s5.943,2.666,5.943,5.942C42.443,58.584,39.777,61.25,36.5,61.25z M63.5,61.943c-3.277,0-5.943-2.666-5.943-5.943
		s2.666-5.943,5.943-5.943s5.943,2.666,5.943,5.943S66.777,61.943,63.5,61.943z"/>
</g>
</svg>
