<?xml version="1.0" encoding="utf-8"?>
<!-- Generator: Adobe Illustrator 17.0.0, SVG Export Plug-In . SVG Version: 6.00 Build 0)  -->
<!DOCTYPE svg PUBLIC "-//W3C//DTD SVG 1.1//EN" "http://www.w3.org/Graphics/SVG/1.1/DTD/svg11.dtd">
<svg version="1.1" id="Layer_1" xmlns="http://www.w3.org/2000/svg" xmlns:xlink="http://www.w3.org/1999/xlink" x="0px" y="0px"
	 width="100px" height="100px" viewBox="0 0 100 100" enable-background="new 0 0 100 100" xml:space="preserve">
<g>
	<path d="M86.625,47.25H75.218l-6.085-20.721h12.742v-6h-61.25v6h12.743L27.282,47.25H13.375v6H25.52l-6.336,21.572l5.755,1.693
		l6.833-23.266h38.956l6.833,23.266l5.756-1.693L76.98,53.25h9.645V47.25z M84.625,51.25H74.309l6.525,22.218l-1.918,0.564
		L72.225,51.25h-41.95l-6.691,22.782l-1.918-0.564l6.525-22.218H15.375v-2h13.404l7.261-24.721H22.625v-2h57.25v2H66.46
		l7.261,24.721h10.904V51.25z"/>
	<path d="M38.123,24.529L30.862,49.25h40.775l-7.261-24.721H38.123z M33.534,47.25l6.086-20.721h23.26l6.086,20.721H33.534z"/>
</g>
</svg>
