<?xml version="1.0" encoding="utf-8"?>
<!-- Generator: Adobe Illustrator 17.0.0, SVG Export Plug-In . SVG Version: 6.00 Build 0)  -->
<!DOCTYPE svg PUBLIC "-//W3C//DTD SVG 1.1//EN" "http://www.w3.org/Graphics/SVG/1.1/DTD/svg11.dtd">
<svg version="1.1" id="Layer_1" xmlns="http://www.w3.org/2000/svg" xmlns:xlink="http://www.w3.org/1999/xlink" x="0px" y="0px"
	 width="100px" height="100px" viewBox="0 0 100 100" enable-background="new 0 0 100 100" xml:space="preserve">
<path d="M79.576,29.366L69.411,19.202L24.606,64.007l-0.975,11.14l4.695-0.411l0.024,0.024l0.028-0.028l6.393-0.56L79.576,29.366z
	 M29.902,61.54l32.969-32.969l1.149,1.149L31.051,62.689L29.902,61.54z M65.434,31.134l2.563,2.563L35.028,66.666l-2.563-2.563
	L65.434,31.134z M69.411,35.112l0.795,0.795L37.238,68.876l-0.795-0.795L69.411,35.112z M64.285,27.157l0.796-0.795l7.336,7.336
	l-0.795,0.795L64.285,27.157z M29.081,72.662l-2.965-2.965l0.42-4.791l1.952-1.952l7.336,7.336l-1.952,1.952L29.081,72.662z"/>
</svg>
