<?xml version="1.0" encoding="utf-8"?>
<!-- Generator: Adobe Illustrator 17.0.0, SVG Export Plug-In . SVG Version: 6.00 Build 0)  -->
<!DOCTYPE svg PUBLIC "-//W3C//DTD SVG 1.1//EN" "http://www.w3.org/Graphics/SVG/1.1/DTD/svg11.dtd">
<svg version="1.1" id="Layer_1" xmlns="http://www.w3.org/2000/svg" xmlns:xlink="http://www.w3.org/1999/xlink" x="0px" y="0px"
	 width="100px" height="100px" viewBox="0 0 100 100" enable-background="new 0 0 100 100" xml:space="preserve">
<path d="M41.945,73.032c-2.422,0-4.865-0.228-7.26-0.677l-0.888-0.167l-11.186,6.226V67.821l-1.111-0.742
	C14.051,62.1,9.778,54.781,9.778,47c0-14.354,14.43-26.032,32.167-26.032c2.862,0,5.635,0.308,8.278,0.878
	c-8.461,4.575-14.079,12.536-14.079,21.58c0,12.229,10.265,22.482,23.956,25.049C54.929,71.347,48.676,73.032,41.945,73.032z"/>
<path d="M83.146,59.345l-1.111,0.742v8.057l-8.536-4.75l-0.021,0.004l-0.866,0.162c-1.918,0.359-3.872,0.541-5.811,0.541
	c-0.208,0-0.414-0.009-0.621-0.013c-13.861-0.268-25.036-9.43-25.036-20.662c0-8.733,6.758-16.213,16.278-19.238
	c2.425-0.77,5.028-1.252,7.746-1.391c0.541-0.028,1.084-0.046,1.634-0.046c14.147,0,25.657,9.275,25.657,20.675
	C92.459,49.587,89.064,55.39,83.146,59.345z"/>
</svg>
