<?xml version="1.0" encoding="utf-8"?>
<!-- Generator: Adobe Illustrator 16.0.0, SVG Export Plug-In . SVG Version: 6.00 Build 0)  -->
<!DOCTYPE svg PUBLIC "-//W3C//DTD SVG 1.1//EN" "http://www.w3.org/Graphics/SVG/1.1/DTD/svg11.dtd">
<svg version="1.1" id="Layer_1" xmlns="http://www.w3.org/2000/svg" xmlns:xlink="http://www.w3.org/1999/xlink" x="0px" y="0px"
	 width="100px" height="100px" viewBox="0 0 100 100" enable-background="new 0 0 100 100" xml:space="preserve">
<polygon points="18.25,68.403 18.25,57.672 27.615,48.535 37.354,55.108 46.195,52.058 60.048,58.491 69.848,45.996 81.75,57.67 
	81.75,68.403 "/>
<g>
	<path d="M38.25,38.5c-1.792,0-3.25,1.458-3.25,3.25S36.458,45,38.25,45s3.25-1.458,3.25-3.25S40.042,38.5,38.25,38.5z"/>
	<path d="M18.25,33.56v21.317l9.135-8.912l10.261,6.926l8.66-2.988l13.147,6.105l10.2-13.005L81.75,54.869V33.56H18.25z M38.25,47
		C35.355,47,33,44.645,33,41.75s2.355-5.25,5.25-5.25s5.25,2.355,5.25,5.25S41.145,47,38.25,47z"/>
</g>
</svg>
