<?xml version="1.0" encoding="utf-8"?>
<!-- Generator: Adobe Illustrator 17.0.0, SVG Export Plug-In . SVG Version: 6.00 Build 0)  -->
<!DOCTYPE svg PUBLIC "-//W3C//DTD SVG 1.1//EN" "http://www.w3.org/Graphics/SVG/1.1/DTD/svg11.dtd">
<svg version="1.1" id="Layer_1" xmlns="http://www.w3.org/2000/svg" xmlns:xlink="http://www.w3.org/1999/xlink" x="0px" y="0px"
	 width="100px" height="100px" viewBox="0 0 100 100" enable-background="new 0 0 100 100" xml:space="preserve">
<g>
	<polygon points="31.5,71.072 31.5,73.072 37.5,73.072 37.5,71.072 35.5,71.072 35.5,46.54 37.5,46.54 37.5,44.54 31.5,44.54 
		31.5,46.54 33.5,46.54 33.5,71.072 	"/>
	<polygon points="38.5,71.072 38.5,73.072 44.5,73.072 44.5,71.072 42.5,71.072 42.5,46.54 44.5,46.54 44.5,44.54 38.5,44.54 
		38.5,46.54 40.5,46.54 40.5,71.072 	"/>
	<polygon points="55.5,71.072 55.5,73.072 61.5,73.072 61.5,71.072 59.5,71.072 59.5,46.54 61.5,46.54 61.5,44.54 55.5,44.54 
		55.5,46.54 57.5,46.54 57.5,71.072 	"/>
	<polygon points="62.5,46.54 64.5,46.54 64.5,71.072 62.5,71.072 62.5,73.072 68.5,73.072 68.5,71.072 66.5,71.072 66.5,46.54 
		68.5,46.54 68.5,44.54 62.5,44.54 	"/>
	<path d="M66.872,41.54l-17.08-17.081L32.711,41.54h-5.878v2h39.211l0.124,0.124l0.124-0.124h6.875v-2H66.872z"/>
	<rect x="31.5" y="73.541" width="37" height="2"/>
</g>
</svg>
