<?xml version="1.0" encoding="utf-8"?>
<!-- Generator: Adobe Illustrator 17.0.0, SVG Export Plug-In . SVG Version: 6.00 Build 0)  -->
<!DOCTYPE svg PUBLIC "-//W3C//DTD SVG 1.1//EN" "http://www.w3.org/Graphics/SVG/1.1/DTD/svg11.dtd">
<svg version="1.1" id="Layer_1" xmlns="http://www.w3.org/2000/svg" xmlns:xlink="http://www.w3.org/1999/xlink" x="0px" y="0px"
	 width="100px" height="100px" viewBox="0 0 100 100" enable-background="new 0 0 100 100" xml:space="preserve">
<g>
	<polygon points="33.664,53.333 14.498,53.333 14.498,87.668 61.319,87.668 61.319,71.501 61.319,69.501 61.319,53.333 
		35.664,53.333 	"/>
	<rect x="25.826" y="45.338" width="1.506" height="1.505"/>
	<rect x="32.085" y="45.338" width="1.505" height="1.505"/>
	<path d="M33.664,40.848H14.498v10.485h19.167h2h25.655V40.848H35.664H33.664z M23.074,48.843h-5.506v-5.505h5.506V48.843z
		 M29.332,48.843h-5.506v-5.505h5.506V48.843z M35.59,48.843h-5.505v-5.505h5.505V48.843z"/>
	<rect x="19.568" y="45.338" width="1.506" height="1.505"/>
	<polygon points="35.664,38.848 63.319,38.848 63.319,53.333 63.319,69.501 82.486,69.501 82.486,35.166 35.664,35.166 	"/>
	<rect x="46.992" y="27.171" width="1.506" height="1.505"/>
	<path d="M35.664,22.681v10.485h46.821V22.681H35.664z M44.241,30.676h-5.506v-5.505h5.506V30.676z M50.498,30.676h-5.506v-5.505
		h5.506V30.676z M56.756,30.676h-5.505v-5.505h5.505V30.676z"/>
	<rect x="40.734" y="27.171" width="1.506" height="1.505"/>
	<rect x="53.251" y="27.171" width="1.505" height="1.505"/>
</g>
</svg>
