<?xml version="1.0" encoding="utf-8"?>
<!-- Generator: Adobe Illustrator 17.0.0, SVG Export Plug-In . SVG Version: 6.00 Build 0)  -->
<!DOCTYPE svg PUBLIC "-//W3C//DTD SVG 1.1//EN" "http://www.w3.org/Graphics/SVG/1.1/DTD/svg11.dtd">
<svg version="1.1" id="Layer_1" xmlns="http://www.w3.org/2000/svg" xmlns:xlink="http://www.w3.org/1999/xlink" x="0px" y="0px"
	 width="100px" height="100px" viewBox="0 0 100 100" enable-background="new 0 0 100 100" xml:space="preserve">
<g>
	<path d="M69,45.482c0-10.477-8.523-19-19-19s-19,8.523-19,19c0,10.477,8.523,19,19,19S69,55.959,69,45.482z M50,62.482
		c-9.374,0-17-7.626-17-17c0-9.374,7.626-17,17-17s17,7.626,17,17C67,54.856,59.374,62.482,50,62.482z"/>
	<path d="M73,45.482c0-12.682-10.317-23-23-23c-12.682,0-23,10.318-23,23c0,11.642,8.641,21.304,20,22.779v5.729h-4.5v6H47v4.333h6
		V79.99h4.5v-6H53v-5.729C64.358,66.786,73,57.124,73,45.482z M55.5,75.99v2H51v4.333h-2V77.99h-4.5v-2H49v-9.558
		c-11.114-0.527-20-9.708-20-20.95c0-11.58,9.42-21,21-21c11.579,0,21,9.42,21,21c0,11.242-8.887,20.423-20,20.95v9.558H55.5z"/>
</g>
</svg>
