<?xml version="1.0" encoding="utf-8"?>
<!-- Generator: Adobe Illustrator 16.0.0, SVG Export Plug-In . SVG Version: 6.00 Build 0)  -->
<!DOCTYPE svg PUBLIC "-//W3C//DTD SVG 1.1//EN" "http://www.w3.org/Graphics/SVG/1.1/DTD/svg11.dtd">
<svg version="1.1" id="Layer_1" xmlns="http://www.w3.org/2000/svg" xmlns:xlink="http://www.w3.org/1999/xlink" x="0px" y="0px"
	 width="100px" height="100px" viewBox="0 0 100 100" enable-background="new 0 0 100 100" xml:space="preserve">
<g>
	<path d="M57.375,52c0-3.727-2.781-6.809-6.375-7.299V26.879h-2v17.822c-3.594,0.49-6.375,3.572-6.375,7.299
		s2.781,6.809,6.375,7.299v14.904h2V59.299C54.594,58.809,57.375,55.727,57.375,52z"/>
	<path d="M70.125,61c0-3.727-2.781-6.809-6.375-7.299V26.879h-2v26.822c-3.594,0.49-6.375,3.572-6.375,7.299
		s2.781,6.809,6.375,7.299v5.904h2v-5.904C67.344,67.809,70.125,64.727,70.125,61z"/>
	<path d="M44.625,39c0-3.727-2.781-6.809-6.375-7.299v-4.822h-2v4.822c-3.594,0.49-6.375,3.572-6.375,7.299s2.781,6.809,6.375,7.299
		v27.904h2V46.299C41.844,45.809,44.625,42.727,44.625,39z"/>
</g>
</svg>
