<?xml version="1.0" encoding="utf-8"?>
<!-- Generator: Adobe Illustrator 17.0.0, SVG Export Plug-In . SVG Version: 6.00 Build 0)  -->
<!DOCTYPE svg PUBLIC "-//W3C//DTD SVG 1.1//EN" "http://www.w3.org/Graphics/SVG/1.1/DTD/svg11.dtd">
<svg version="1.1" id="Layer_1" xmlns="http://www.w3.org/2000/svg" xmlns:xlink="http://www.w3.org/1999/xlink" x="0px" y="0px"
	 width="100px" height="100px" viewBox="0 0 100 100" enable-background="new 0 0 100 100" xml:space="preserve">
<g>
	<path d="M24.666,44.898c-5.363,0-9.727,4.363-9.727,9.726c0,5.362,4.364,9.726,9.727,9.726s9.727-4.363,9.727-9.726
		C34.393,49.261,30.029,44.898,24.666,44.898z M24.666,62.35c-4.261,0-7.727-3.466-7.727-7.726c0-4.26,3.466-7.726,7.727-7.726
		s7.727,3.466,7.727,7.726C32.393,58.884,28.927,62.35,24.666,62.35z"/>
	<path d="M50.065,44.898c-5.363,0-9.726,4.363-9.726,9.726c0,5.362,4.363,9.726,9.726,9.726s9.726-4.363,9.726-9.726
		C59.791,49.261,55.428,44.898,50.065,44.898z M50.065,62.35c-4.26,0-7.726-3.466-7.726-7.726c0-4.26,3.466-7.726,7.726-7.726
		s7.726,3.466,7.726,7.726C57.791,58.884,54.325,62.35,50.065,62.35z"/>
	<path d="M75.513,44.898c-5.364,0-9.728,4.363-9.728,9.726c0,5.362,4.363,9.726,9.728,9.726c5.362,0,9.726-4.363,9.727-9.726
		C85.239,49.261,80.876,44.898,75.513,44.898z M75.513,62.35c-4.261,0-7.728-3.466-7.728-7.726c0-4.26,3.467-7.726,7.728-7.726
		s7.727,3.466,7.727,7.726C83.238,58.884,79.772,62.35,75.513,62.35z"/>
	<path d="M75.513,40.898c-5.756,0-10.688,3.565-12.725,8.6c-2.036-5.035-6.967-8.6-12.723-8.6c-5.731,0-10.647,3.534-12.699,8.534
		c-2.052-5-6.968-8.534-12.7-8.534c-7.569,0-13.727,6.158-13.727,13.726S17.097,68.35,24.666,68.35c5.732,0,10.648-3.533,12.7-8.533
		c2.052,5,6.968,8.533,12.699,8.533c5.756,0,10.687-3.565,12.723-8.599c2.036,5.034,6.968,8.599,12.725,8.599
		c7.567,0,13.726-6.157,13.727-13.726C89.239,47.056,83.082,40.898,75.513,40.898z M24.666,66.35
		c-6.466,0-11.727-5.26-11.727-11.726S18.2,42.898,24.666,42.898c6.286,0,11.417,4.974,11.7,11.191
		c-0.007,0.179-0.027,0.354-0.027,0.535s0.02,0.356,0.027,0.535C36.083,61.376,30.952,66.35,24.666,66.35z M50.065,66.35
		c-6.285,0-11.416-4.974-11.699-11.191c0.007-0.179,0.027-0.354,0.027-0.535s-0.02-0.356-0.027-0.535
		c0.283-6.217,5.414-11.191,11.699-11.191c6.446,0,11.692,5.229,11.723,11.668c0,0.019-0.003,0.038-0.003,0.058
		s0.003,0.038,0.003,0.058C61.757,61.121,56.511,66.35,50.065,66.35z M75.513,66.35c-6.447,0-11.693-5.229-11.725-11.668
		c0-0.019,0.003-0.038,0.003-0.058s-0.003-0.038-0.003-0.058c0.032-6.439,5.277-11.668,11.725-11.668
		c6.466,0,11.727,5.26,11.727,11.726C87.238,61.09,81.978,66.35,75.513,66.35z"/>
</g>
</svg>
