<?xml version="1.0" encoding="utf-8"?>
<!-- Generator: Adobe Illustrator 17.0.0, SVG Export Plug-In . SVG Version: 6.00 Build 0)  -->
<!DOCTYPE svg PUBLIC "-//W3C//DTD SVG 1.1//EN" "http://www.w3.org/Graphics/SVG/1.1/DTD/svg11.dtd">
<svg version="1.1" id="Layer_1" xmlns="http://www.w3.org/2000/svg" xmlns:xlink="http://www.w3.org/1999/xlink" x="0px" y="0px"
	 width="100px" height="100px" viewBox="0 0 100 100" enable-background="new 0 0 100 100" xml:space="preserve">
<path d="M51.111,30.886c0.744-0.744,1.732-1.153,2.784-1.153c1.053,0,2.041,0.41,2.785,1.153c1.535,1.535,1.535,4.034,0,5.569
	c-0.513,0.513-1.671,0.795-3.26,0.795c-1.118,0-2.205-0.139-2.868-0.244c-0.088-0.535-0.159-1.134-0.201-1.746
	c0.039-0.633,0.047-1.316,0-2.001C50.431,32.238,50.651,31.346,51.111,30.886z"/>
<path d="M42.021,36.455c-1.535-1.535-1.535-4.034,0-5.569c0.744-0.744,1.732-1.153,2.784-1.153s2.041,0.41,2.784,1.153
	c0.462,0.462,0.682,1.355,0.76,2.38c-0.046,0.68-0.039,1.358,0,1.987c-0.042,0.614-0.113,1.216-0.202,1.753
	c-0.663,0.105-1.75,0.244-2.868,0.244C43.691,37.25,42.534,36.967,42.021,36.455z"/>
<polygon points="31.011,52.125 31.011,39.25 48.697,39.25 48.697,52.125 32.926,52.125 "/>
<rect x="34.926" y="54.125" width="13.771" height="19.701"/>
<rect x="50.697" y="54.125" width="13.077" height="19.701"/>
<polygon points="67.69,52.125 65.774,52.125 50.697,52.125 50.697,39.25 67.69,39.25 "/>
</svg>
