<?xml version="1.0" encoding="utf-8"?>
<!-- Generator: Adobe Illustrator 17.0.0, SVG Export Plug-In . SVG Version: 6.00 Build 0)  -->
<!DOCTYPE svg PUBLIC "-//W3C//DTD SVG 1.1//EN" "http://www.w3.org/Graphics/SVG/1.1/DTD/svg11.dtd">
<svg version="1.1" id="Layer_1" xmlns="http://www.w3.org/2000/svg" xmlns:xlink="http://www.w3.org/1999/xlink" x="0px" y="0px"
	 width="100px" height="100px" viewBox="0 0 100 100" enable-background="new 0 0 100 100" xml:space="preserve">
<g>
	<path d="M54.103,23.172c0-5.295-4.308-9.603-9.603-9.603s-9.603,4.308-9.603,9.603c0,3.095,1.478,5.846,3.759,7.603H31.75V62.57
		h5.455v23.08h14.38V62.57h5.665V30.775h-6.907C52.624,29.018,54.103,26.268,54.103,23.172z M45.5,53.562h-2V38.749h2V53.562z
		 M45.5,37.937h-2v-2.684h2V37.937z"/>
	<polygon points="63.875,64.812 63.875,60.312 61.875,60.312 61.875,64.812 57.5,64.812 57.5,86.43 68.25,86.43 68.25,64.812 	"/>
</g>
</svg>
