<?xml version="1.0" encoding="utf-8"?>
<!-- Generator: Adobe Illustrator 17.0.0, SVG Export Plug-In . SVG Version: 6.00 Build 0)  -->
<!DOCTYPE svg PUBLIC "-//W3C//DTD SVG 1.1//EN" "http://www.w3.org/Graphics/SVG/1.1/DTD/svg11.dtd">
<svg version="1.1" id="Layer_1" xmlns="http://www.w3.org/2000/svg" xmlns:xlink="http://www.w3.org/1999/xlink" x="0px" y="0px"
	 width="100px" height="100px" viewBox="0 0 100 100" enable-background="new 0 0 100 100" xml:space="preserve">
<g>
	<path d="M37.298,53.913l-2.07,1.871c-0.21,0.19-0.33,0.459-0.33,0.742v2.268c0,0.553,0.448,1,1,1h11.359c0.552,0,1-0.447,1-1
		v-3.082c0-0.553-0.448-1-1-1h-3.379c2.182-2.016,4.083-4.292,4.083-7.18c0-3.662-2.598-6.027-6.619-6.027
		c-2.155,0-4.287,0.675-5.851,1.852c-0.359,0.271-0.494,0.748-0.329,1.166l1.06,2.688c0.115,0.292,0.36,0.513,0.663,0.597
		c0.302,0.085,0.626,0.021,0.875-0.17c0.973-0.746,1.921-1.124,2.817-1.124c1.468,0,1.638,0.765,1.638,1.315
		C42.179,49.295,40.602,50.958,37.298,53.913z M44.217,47.853c0-2.029-1.428-3.341-3.638-3.341c-0.981,0-1.968,0.275-2.947,0.819
		l-0.311-0.789c1.143-0.657,2.594-1.038,4.021-1.038c2.893,0,4.619,1.505,4.619,4.027c0,2.196-1.57,4.048-3.903,6.131l-1.479,1.232
		c-0.228,0.19-0.36,0.52-0.36,0.816c0,0.553,0.448,1,1,1h5.038v1.082h-9.359v-0.823l1.736-1.57
		C42.448,51.99,44.159,50.095,44.217,47.853z"/>
	<path d="M57.213,52.166v-3.548c0-0.838,0.038-1.763,0.12-2.911c0.021-0.277-0.076-0.549-0.266-0.752
		c-0.188-0.204-0.454-0.319-0.731-0.319h-0.098c-0.378,0-0.725,0.213-0.894,0.552c-0.199,0.396-0.383,0.777-0.564,1.154
		c-0.29,0.601-0.573,1.188-0.874,1.754l-2.144,3.499c-0.097,0.157-0.147,0.387-0.147,0.571c0,0.553,0.447,1,1,1h3.598
		C56.766,53.166,57.213,52.719,57.213,52.166z M55.213,51.166H54.37l0.843-1.377V51.166z"/>
	<path d="M56.213,59.796h3.549c0.553,0,1-0.447,1-1v-2.821h0.922c0.553,0,1-0.447,1-1v-2.809c0-0.553-0.447-1-1-1h-0.922v-8.39
		c0-0.552-0.447-1-1-1h-4.584c-0.346,0-0.667,0.179-0.85,0.473l-6.062,9.761c-0.098,0.158-0.15,0.341-0.15,0.527v2.438
		c0,0.553,0.448,1,1,1h6.097v2.821C55.213,59.349,55.66,59.796,56.213,59.796z M50.116,53.975v-1.152l5.617-9.046h3.028v8.39
		c0,0.553,0.447,1,1,1h0.922v0.809h-0.922c-0.553,0-1,0.447-1,1v2.821h-1.549v-2.821c0-0.553-0.447-1-1-1H50.116z"/>
	<path d="M80.99,42.892c-0.174-0.327-0.514-0.532-0.884-0.532h-5.883c-3.593-11.226-14.161-19.003-25.963-19.003
		c-15.049,0-27.293,12.244-27.293,27.293s12.244,27.293,27.293,27.293c8.711,0,16.973-4.214,22.1-11.272
		c1.078-1.488,0.747-3.579-0.74-4.661c-0.573-0.417-1.251-0.638-1.958-0.638c-1.065,0-2.076,0.515-2.705,1.376
		c-3.875,5.335-10.117,8.521-16.697,8.521c-11.369,0-20.618-9.249-20.618-20.617c0-11.369,9.249-20.618,20.618-20.618
		c8.172,0,15.573,4.897,18.849,12.327h-5.252c-0.378,0-0.724,0.213-0.894,0.551c-0.17,0.338-0.135,0.743,0.091,1.046L70.6,56.794
		c0.193,0.259,0.494,0.396,0.824,0.403c0.324-0.007,0.624-0.171,0.807-0.438l8.704-12.838C81.142,43.615,81.163,43.219,80.99,42.892
		z"/>
</g>
</svg>
