<?xml version="1.0" encoding="utf-8"?>
<!-- Generator: Adobe Illustrator 17.0.0, SVG Export Plug-In . SVG Version: 6.00 Build 0)  -->
<!DOCTYPE svg PUBLIC "-//W3C//DTD SVG 1.1//EN" "http://www.w3.org/Graphics/SVG/1.1/DTD/svg11.dtd">
<svg version="1.1" id="Layer_1" xmlns="http://www.w3.org/2000/svg" xmlns:xlink="http://www.w3.org/1999/xlink" x="0px" y="0px"
	 width="100px" height="100px" viewBox="0 0 100 100" enable-background="new 0 0 100 100" xml:space="preserve">
<path d="M50,20c-16.569,0-30,13.431-30,30c0,16.569,13.431,30,30,30c16.569,0,30-13.431,30-30C80,33.431,66.569,20,50,20z
	 M61.418,58.108l-1.414-1.414l5.629-5.629l-14.6-0.028l-0.028,14.516l5.69-5.689l1.414,1.414l-8.178,8.178l-8.038-8.038l1.414-1.414
	l5.629,5.629l0.028-14.6l-14.516-0.028l5.689,5.69l-1.414,1.414l-8.178-8.178l8.038-8.038l1.414,1.414l-5.629,5.629l14.6,0.028
	l0.028-14.516l-5.69,5.689l-1.414-1.414l8.178-8.178l8.038,8.038l-1.414,1.414l-5.629-5.629l-0.028,14.6l14.516,0.028l-5.689-5.69
	l1.414-1.414l8.178,8.178L61.418,58.108z"/>
</svg>
