<?xml version="1.0" encoding="utf-8"?>
<!-- Generator: Adobe Illustrator 17.0.0, SVG Export Plug-In . SVG Version: 6.00 Build 0)  -->
<!DOCTYPE svg PUBLIC "-//W3C//DTD SVG 1.1//EN" "http://www.w3.org/Graphics/SVG/1.1/DTD/svg11.dtd">
<svg version="1.1" id="Layer_1" xmlns="http://www.w3.org/2000/svg" xmlns:xlink="http://www.w3.org/1999/xlink" x="0px" y="0px"
	 width="100px" height="100px" viewBox="0 0 100 100" enable-background="new 0 0 100 100" xml:space="preserve">
<g>
	<path d="M33.092,44.32h10.992V33.328H33.092V44.32z M35.092,35.328h6.992v6.992h-6.992V35.328z"/>
	<path d="M29.092,48.32h18.992V29.328H29.092V48.32z M31.092,31.328h14.992V46.32H31.092V31.328z"/>
	<path d="M52.992,29.328V48.32h18.992V29.328H52.992z M69.984,46.32H54.992V31.328h14.992V46.32z"/>
	<path d="M67.984,33.328H56.992V44.32h10.992V33.328z M65.984,42.32h-6.992v-6.992h6.992V42.32z"/>
	<path d="M33.092,68.22h10.992V57.227H33.092V68.22z M35.092,59.227h6.992v6.993h-6.992V59.227z"/>
	<path d="M29.092,72.22h18.992V53.227H29.092V72.22z M31.092,55.227h14.992V70.22H31.092V55.227z"/>
	<path d="M56.992,68.22h10.992V57.227H56.992V68.22z M58.992,59.227h6.992v6.993h-6.992V59.227z"/>
	<path d="M52.992,72.22h18.992V53.227H52.992V72.22z M54.992,55.227h14.992V70.22H54.992V55.227z"/>
</g>
</svg>
