<?xml version="1.0" encoding="utf-8"?>
<!-- Generator: Adobe Illustrator 17.0.0, SVG Export Plug-In . SVG Version: 6.00 Build 0)  -->
<!DOCTYPE svg PUBLIC "-//W3C//DTD SVG 1.1//EN" "http://www.w3.org/Graphics/SVG/1.1/DTD/svg11.dtd">
<svg version="1.1" id="Layer_1" xmlns="http://www.w3.org/2000/svg" xmlns:xlink="http://www.w3.org/1999/xlink" x="0px" y="0px"
	 width="100px" height="100px" viewBox="0 0 100 100" enable-background="new 0 0 100 100" xml:space="preserve">
<polygon points="35.845,77.166 10.365,85.659 10.365,38.077 35.845,29.584 "/>
<path d="M62.968,85.659l-25.479-8.493V29.584l4.946,1.649c3.444,8.746,11.425,19.872,13.371,22.521l0.557,0.757
	c0.335,0.459,0.875,0.732,1.443,0.732c0.569,0,1.107-0.273,1.44-0.728l0.56-0.761c0.398-0.541,1.602-2.197,3.162-4.494V85.659z"/>
<path d="M90.091,77.166l-25.479,8.493V46.795c2.079-3.178,4.457-7.052,6.391-10.849l19.089-6.363V77.166z"/>
<g>
	<path d="M57.805,19.932c-3.334,0-6.047,2.713-6.047,6.047s2.713,6.047,6.047,6.047c3.335,0,6.047-2.713,6.047-6.047
		C63.852,22.645,61.139,19.932,57.805,19.932z"/>
	<path d="M57.805,8.924c-8.637,0-15.664,7.027-15.664,15.664c0,1.456,0.429,3.239,1.134,5.191c0.234,0.648,0.499,1.315,0.789,1.996
		c3.719,8.715,11.644,19.645,12.79,21.206l0.559,0.759c0.182,0.251,0.604,0.247,0.782,0.004l0.561-0.763
		c0.481-0.654,2.156-2.957,4.212-6.051c0.528-0.794,1.08-1.639,1.644-2.523c1.557-2.44,3.2-5.165,4.643-7.878
		c0.372-0.699,0.731-1.397,1.071-2.09c1.837-3.734,3.143-7.289,3.143-9.851C73.469,15.951,66.442,8.924,57.805,8.924z
		 M57.805,33.328c-4.052,0-7.349-3.297-7.349-7.349c0-4.052,3.297-7.349,7.349-7.349c4.052,0,7.349,3.297,7.35,7.349
		C65.155,30.031,61.858,33.328,57.805,33.328z"/>
</g>
</svg>
