<?xml version="1.0" encoding="utf-8"?>
<!-- Generator: Adobe Illustrator 17.0.0, SVG Export Plug-In . SVG Version: 6.00 Build 0)  -->
<!DOCTYPE svg PUBLIC "-//W3C//DTD SVG 1.1//EN" "http://www.w3.org/Graphics/SVG/1.1/DTD/svg11.dtd">
<svg version="1.1" id="Layer_1" xmlns="http://www.w3.org/2000/svg" xmlns:xlink="http://www.w3.org/1999/xlink" x="0px" y="0px"
	 width="100px" height="100px" viewBox="0 0 100 100" enable-background="new 0 0 100 100" xml:space="preserve">
<path d="M84.263,34.689c-0.006-0.089-0.023-0.175-0.052-0.259c-0.011-0.032-0.019-0.062-0.033-0.093
	c-0.049-0.106-0.11-0.207-0.196-0.293L56.993,7.054c-0.086-0.086-0.186-0.147-0.292-0.195c-0.031-0.015-0.063-0.023-0.096-0.034
	c-0.083-0.028-0.166-0.045-0.253-0.05c-0.023-0.002-0.043-0.013-0.065-0.013H28.725c-0.552,0-1,0.448-1,1v11.75h-13
	c-0.552,0-1,0.448-1,1v71.25c0,0.553,0.448,1,1,1h54.55c0.553,0,1-0.447,1-1v-11.75h13c0.553,0,1-0.447,1-1V34.75
	C84.275,34.729,84.264,34.71,84.263,34.689z M29.725,8.761h25.561v23.336L42.993,19.804c-0.086-0.086-0.186-0.147-0.292-0.195
	c-0.031-0.015-0.063-0.023-0.096-0.034c-0.083-0.028-0.166-0.045-0.253-0.05c-0.023-0.002-0.043-0.013-0.065-0.013H29.725V8.761z
	 M68.275,78.011v2v10.75h-52.55v-69.25h12h2h11.561V47.5c0,0.552,0.448,1,1,1h25.989V78.011z M82.275,78.011h-12V47.5
	c0-0.021-0.011-0.04-0.012-0.061c-0.006-0.089-0.023-0.175-0.052-0.259c-0.011-0.032-0.019-0.062-0.033-0.093
	c-0.049-0.106-0.11-0.207-0.196-0.293L58.939,35.75h23.336V78.011z"/>
</svg>
