<?xml version="1.0" encoding="utf-8"?>
<!-- Generator: Adobe Illustrator 17.0.0, SVG Export Plug-In . SVG Version: 6.00 Build 0)  -->
<!DOCTYPE svg PUBLIC "-//W3C//DTD SVG 1.1//EN" "http://www.w3.org/Graphics/SVG/1.1/DTD/svg11.dtd">
<svg version="1.1" id="Layer_1" xmlns="http://www.w3.org/2000/svg" xmlns:xlink="http://www.w3.org/1999/xlink" x="0px" y="0px"
	 width="100px" height="100px" viewBox="0 0 100 100" enable-background="new 0 0 100 100" xml:space="preserve">
<g>
	<path d="M47.139,33.25h6.511c2.566-1.223,4.348-3.834,4.348-6.861c0-4.192-3.41-7.603-7.603-7.603s-7.603,3.411-7.603,7.603
		C42.792,29.416,44.573,32.027,47.139,33.25z"/>
	<path d="M59.625,36.091l17.723-17.724l-4.242-4.243l-11.16,11.161c-0.559-5.882-5.525-10.499-11.551-10.499
		c-6.05,0-11.033,4.654-11.558,10.57l-11.94-11.941l-4.243,4.243L41,36.006v25.869H28v22.5h11V74.75h22.375v9.625h11v-22.5h-12.75
		V36.091z M70.375,63.875v18.5h-7V72.75H37v9.625h-7v-18.5h13V35.178L25.482,17.66l1.414-1.414l15.679,15.679
		c-1.115-1.566-1.784-3.469-1.784-5.534c0-5.295,4.308-9.603,9.603-9.603s9.603,4.308,9.603,9.603c0,1.932-0.576,3.731-1.565,5.237
		l14.673-14.673l1.414,1.414L57.625,35.263v28.612H70.375z"/>
	<path d="M55.625,64.875H55.48v-1.088V35.994H45.23v28.881H45v1H32v14.5h3V70.75h30.375v9.625h3v-14.5h-12.75V64.875z"/>
</g>
</svg>
