<?xml version="1.0" encoding="utf-8"?>
<!-- Generator: Adobe Illustrator 17.0.0, SVG Export Plug-In . SVG Version: 6.00 Build 0)  -->
<!DOCTYPE svg PUBLIC "-//W3C//DTD SVG 1.1//EN" "http://www.w3.org/Graphics/SVG/1.1/DTD/svg11.dtd">
<svg version="1.1" id="Layer_1" xmlns="http://www.w3.org/2000/svg" xmlns:xlink="http://www.w3.org/1999/xlink" x="0px" y="0px"
	 width="100px" height="100px" viewBox="0 0 100 100" enable-background="new 0 0 100 100" xml:space="preserve">
<path d="M76.078,35.465h-9v-10.38c0-0.021-0.011-0.04-0.012-0.061c-0.006-0.089-0.023-0.175-0.052-0.259
	c-0.011-0.032-0.019-0.062-0.033-0.093c-0.049-0.106-0.11-0.207-0.196-0.293L52.95,10.543c-0.086-0.086-0.186-0.147-0.292-0.195
	c-0.031-0.014-0.063-0.023-0.096-0.034c-0.083-0.028-0.168-0.045-0.255-0.051c-0.022-0.001-0.042-0.013-0.064-0.013H32.579
	c-0.552,0-1,0.448-1,1v24.215h-7.657c-0.552,0-1,0.448-1,1v33.569c0,0.553,0.448,1,1,1h7.657V85.25c0,0.553,0.448,1,1,1h33.5
	c0.553,0,1-0.447,1-1V71.034h9c0.553,0,1-0.447,1-1V36.465C77.078,35.913,76.631,35.465,76.078,35.465z M63.664,24.085H53.243
	V13.664l5.21,5.211L63.664,24.085z M33.579,12.25h17.665v12.835c0,0.552,0.447,1,1,1h12.835v9.38h-31.5V12.25z M65.078,84.25h-31.5
	V70.034V55.75h31.5v14.284V84.25z"/>
</svg>
