<?xml version="1.0" encoding="utf-8"?>
<!-- Generator: Adobe Illustrator 17.0.0, SVG Export Plug-In . SVG Version: 6.00 Build 0)  -->
<!DOCTYPE svg PUBLIC "-//W3C//DTD SVG 1.1//EN" "http://www.w3.org/Graphics/SVG/1.1/DTD/svg11.dtd">
<svg version="1.1" id="Layer_1" xmlns="http://www.w3.org/2000/svg" xmlns:xlink="http://www.w3.org/1999/xlink" x="0px" y="0px"
	 width="100px" height="100px" viewBox="0 0 100 100" enable-background="new 0 0 100 100" xml:space="preserve">
<g>
	<path d="M51.285,35h11.667V23H51.285V35z M53.861,28h6.417v2h-6.417V28z"/>
	<rect x="51.285" y="37" width="11.667" height="12"/>
	<rect x="51.285" y="51" width="11.667" height="12"/>
	<rect x="37.285" y="51" width="11.667" height="12"/>
	<polygon points="37.285,37 37.285,49 48.951,49 48.951,37 37.305,37 	"/>
	<path d="M37.305,35h11.646V23H37.305V35z M39.979,28h6.417v2h-6.417V28z"/>
	<path d="M23.305,35h11.979V23H23.305V35z M26.097,28h6.417v2h-6.417V28z"/>
	<path d="M23.285,49h12V37h-12V49z M26.076,42h6.417v2h-6.417V42z"/>
	<path d="M23.285,63h12V51h-12V63z M26.097,56h6.417v2h-6.417V56z"/>
	<path d="M23.285,77h12V65h-12V77z M26.076,70h6.417v2h-6.417V70z"/>
	<rect x="37.285" y="65" width="11.667" height="12"/>
	<rect x="51.285" y="65" width="11.667" height="12"/>
	<rect x="64.951" y="65" width="12" height="12"/>
	<rect x="64.951" y="51" width="12" height="12"/>
	<rect x="64.951" y="37" width="12" height="12"/>
	<path d="M64.951,23v12h12V23H64.951z M74.159,30h-6.416v-2h6.416V30z"/>
</g>
</svg>
