<?xml version="1.0" encoding="utf-8"?>
<!-- Generator: Adobe Illustrator 16.0.0, SVG Export Plug-In . SVG Version: 6.00 Build 0)  -->
<!DOCTYPE svg PUBLIC "-//W3C//DTD SVG 1.1//EN" "http://www.w3.org/Graphics/SVG/1.1/DTD/svg11.dtd">
<svg version="1.1" id="Layer_1" xmlns="http://www.w3.org/2000/svg" xmlns:xlink="http://www.w3.org/1999/xlink" x="0px" y="0px"
	 width="100px" height="100px" viewBox="0 0 100 100" enable-background="new 0 0 100 100" xml:space="preserve">
<path stroke="#000000" stroke-linecap="round" stroke-linejoin="round" stroke-miterlimit="10" d="M54.515,27.707
	c-14.19,0-25.737,11.547-25.737,25.736c0,14.19,11.547,25.737,25.737,25.737S80.25,67.634,80.25,53.443
	C80.25,39.254,68.705,27.707,54.515,27.707z M58.38,64.835c-2.466-1.233-4.003-9.046-4.003-9.046
	c-4.002,4.729-3.192,10.073-3.192,10.073c-5.962-1.85-7.606-10.896-2.467-15.212c5.139-4.317,3.906-10.074,3.906-10.074
	c10.896,1.233,5.756,10.484,5.756,10.484c2.879,0.617,4.112-2.056,4.112-2.056C70.509,59.49,58.38,64.835,58.38,64.835z"/>
</svg>
