<?xml version="1.0" encoding="utf-8"?>
<!-- Generator: Adobe Illustrator 16.0.0, SVG Export Plug-In . SVG Version: 6.00 Build 0)  -->
<!DOCTYPE svg PUBLIC "-//W3C//DTD SVG 1.1//EN" "http://www.w3.org/Graphics/SVG/1.1/DTD/svg11.dtd">
<svg version="1.1" id="Layer_1" xmlns="http://www.w3.org/2000/svg" xmlns:xlink="http://www.w3.org/1999/xlink" x="0px" y="0px"
	 width="100px" height="100px" viewBox="0 0 100 100" enable-background="new 0 0 100 100" xml:space="preserve">
<path d="M87.406,47.223l-9.467-9.471c-0.004,0-0.004-0.003-0.006-0.003L53.48,13.295c0,0-0.002-0.001-0.002-0.003l-0.988-0.988
	c-1.168-1.168-3.064-1.168-4.23,0l-0.988,0.988c0,0.002-0.004,0.002-0.004,0.002L22.814,37.75c0,0-0.002,0.003-0.004,0.003
	l-9.471,9.471c-1.168,1.169-1.168,3.062,0,4.231c0.584,0.584,1.35,0.876,2.115,0.876s1.533-0.292,2.117-0.876l4.365-4.365v31.936
	c0,3.988,3.244,7.233,7.232,7.233h42.41c3.986,0,7.232-3.245,7.232-7.233V47.089l4.363,4.365c0.584,0.584,1.35,0.876,2.115,0.876
	s1.535-0.292,2.115-0.876C88.576,50.285,88.576,48.392,87.406,47.223z"/>
</svg>
