<?xml version="1.0" encoding="utf-8"?>
<!-- Generator: Adobe Illustrator 16.0.0, SVG Export Plug-In . SVG Version: 6.00 Build 0)  -->
<!DOCTYPE svg PUBLIC "-//W3C//DTD SVG 1.1//EN" "http://www.w3.org/Graphics/SVG/1.1/DTD/svg11.dtd">
<svg version="1.1" id="Layer_1" xmlns="http://www.w3.org/2000/svg" xmlns:xlink="http://www.w3.org/1999/xlink" x="0px" y="0px"
	 width="100px" height="100px" viewBox="0 0 100 100" enable-background="new 0 0 100 100" xml:space="preserve">
<g>
	<path d="M32.652,57.295h20.791c0.989,0,1.791-0.801,1.791-1.793V32.74c0-0.99-0.802-1.793-1.791-1.793H32.652
		c-0.991,0-1.793,0.803-1.793,1.793v22.762C30.859,56.494,31.661,57.295,32.652,57.295z"/>
	<path d="M69.868,41.873c-1.837-3.148-9.76-4.078-12.146-4.287c-0.504-0.039-0.996,0.125-1.366,0.463
		c-0.373,0.342-0.582,0.82-0.582,1.322v18.283H32.652c-0.991,0-1.793,0.803-1.793,1.793v6.092c0,0.99,0.802,1.793,1.793,1.793h3.547
		c0.751,2.182,2.801,3.764,5.235,3.764c2.433,0,4.483-1.582,5.233-3.764h11.22c0.75,2.182,2.801,3.764,5.234,3.764
		c2.433,0,4.483-1.582,5.233-3.764h1.219c0.99,0,1.792-0.803,1.792-1.793l-0.002-5.994C71.489,57.24,72.014,45.557,69.868,41.873z
		 M42.244,67.332h-1.621c-0.682-0.311-1.16-0.994-1.16-1.793c0-0.795,0.479-1.48,1.16-1.791h1.621
		c0.683,0.311,1.161,0.996,1.161,1.791C43.405,66.338,42.927,67.021,42.244,67.332z M63.933,67.332h-1.622
		c-0.682-0.311-1.16-0.994-1.16-1.793c0-0.795,0.479-1.48,1.16-1.791h1.622c0.682,0.311,1.16,0.996,1.16,1.791
		C65.093,66.338,64.614,67.021,63.933,67.332z"/>
</g>
</svg>
