<?xml version="1.0" encoding="utf-8"?>
<!-- Generator: Adobe Illustrator 16.0.0, SVG Export Plug-In . SVG Version: 6.00 Build 0)  -->
<!DOCTYPE svg PUBLIC "-//W3C//DTD SVG 1.1//EN" "http://www.w3.org/Graphics/SVG/1.1/DTD/svg11.dtd">
<svg version="1.1" id="Layer_1" xmlns="http://www.w3.org/2000/svg" xmlns:xlink="http://www.w3.org/1999/xlink" x="0px" y="0px"
	 width="100px" height="100px" viewBox="0 0 100 100" enable-background="new 0 0 100 100" xml:space="preserve">
<g>
	<path d="M54.778,50.505l-4.55,0.607c-0.066,0.009-0.137,0.014-0.205,0.014c-0.42,0-0.826-0.169-1.123-0.476
		c-0.345-0.356-0.5-0.854-0.42-1.344l0.734-4.423c0.054-0.32,0.207-0.618,0.438-0.849L66.339,27.35H26.281
		c-0.62,0-1.219,0.247-1.658,0.687c-0.438,0.439-0.686,1.037-0.686,1.658v43.775c0,0.646,0.261,1.232,0.686,1.657
		c0.424,0.425,1.01,0.687,1.658,0.687h43.775c0.621,0,1.218-0.246,1.658-0.687c0.438-0.439,0.686-1.036,0.686-1.657v-40.13
		L55.678,50.061C55.436,50.304,55.121,50.459,54.778,50.505z"/>
	<path d="M76.064,29.029c0-0.415-0.166-0.812-0.459-1.105l-3.816-3.815c-0.611-0.611-1.6-0.611-2.211,0l-3.239,3.241h3.718
		c0.212,0,0.416,0.038,0.611,0.092l0.016-0.017l0.031,0.031c0.974,0.287,1.686,1.175,1.686,2.239v3.645l3.205-3.205
		C75.898,29.841,76.064,29.444,76.064,29.029z"/>
</g>
</svg>
