<?xml version="1.0" encoding="utf-8"?>
<!-- Generator: Adobe Illustrator 16.0.0, SVG Export Plug-In . SVG Version: 6.00 Build 0)  -->
<!DOCTYPE svg PUBLIC "-//W3C//DTD SVG 1.1//EN" "http://www.w3.org/Graphics/SVG/1.1/DTD/svg11.dtd">
<svg version="1.1" id="Layer_1" xmlns="http://www.w3.org/2000/svg" xmlns:xlink="http://www.w3.org/1999/xlink" x="0px" y="0px"
	 width="100px" height="100px" viewBox="0 0 100 100" enable-background="new 0 0 100 100" xml:space="preserve">
<g>
	<path d="M40.959,63.859c-0.003,0-0.006,0-0.012,0c-0.824-0.049-1.66,0.168-2.288,0.707c-2.561,2.191-5.783,4.471-8.912,5.96
		c0.938-2.38,1.566-5.128,1.098-7.737c-0.148-0.846-0.656-1.587-1.393-2.033c-4.743-2.877-7.464-7.198-7.464-11.855
		c0-8.25,8.503-14.962,18.953-14.962c4.123,0,8.083,1.075,11.32,2.995c-0.267,0.1-0.521,0.213-0.78,0.321
		c-0.146,0.063-0.298,0.12-0.444,0.186c-0.503,0.224-0.993,0.462-1.47,0.718c-0.111,0.06-0.213,0.125-0.324,0.187
		c-0.365,0.206-0.728,0.421-1.078,0.646c-0.161,0.103-0.313,0.209-0.471,0.314c-0.298,0.203-0.588,0.41-0.871,0.627
		c-0.148,0.114-0.298,0.227-0.441,0.344c-0.313,0.25-0.61,0.508-0.899,0.773c-0.097,0.088-0.198,0.17-0.29,0.26
		c-0.373,0.354-0.73,0.72-1.066,1.098c-0.094,0.104-0.178,0.213-0.266,0.317c-0.245,0.286-0.482,0.577-0.707,0.877
		c-0.105,0.144-0.207,0.286-0.31,0.431c-0.198,0.283-0.386,0.572-0.567,0.865c-0.088,0.143-0.178,0.285-0.263,0.431
		c-0.21,0.367-0.403,0.741-0.585,1.121c-0.035,0.071-0.075,0.14-0.107,0.212c-0.207,0.451-0.389,0.913-0.549,1.381
		c-0.051,0.137-0.088,0.275-0.133,0.414c-0.107,0.342-0.204,0.688-0.289,1.036c-0.041,0.167-0.076,0.337-0.11,0.505
		c-0.07,0.344-0.129,0.693-0.176,1.044c-0.021,0.156-0.044,0.312-0.062,0.468c-0.049,0.504-0.084,1.011-0.084,1.525
		c0,0.65,0.059,1.293,0.14,1.93c0.021,0.16,0.044,0.317,0.07,0.477c0.103,0.631,0.231,1.256,0.412,1.87
		c0.003,0.013,0.009,0.024,0.012,0.036c0.181,0.604,0.412,1.194,0.663,1.775c0.064,0.148,0.132,0.294,0.199,0.439
		c0.277,0.585,0.575,1.16,0.923,1.716c0.012,0.017,0.023,0.03,0.032,0.046c0.342,0.545,0.73,1.067,1.14,1.579
		c0.1,0.124,0.198,0.247,0.302,0.369c0.104,0.124,0.201,0.255,0.309,0.376C43.08,63.788,42.025,63.859,40.959,63.859z"/>
	<path d="M69.891,62.232c-0.733,0.445-1.241,1.185-1.394,2.031c-0.315,1.77-0.05,3.606,0.471,5.295
		c-2.107-1.155-4.211-2.687-5.941-4.166c-0.543-0.465-1.232-0.719-1.945-0.719c-0.1,0-0.202,0.004-0.271,0.01
		c-3.166,0-6.199-0.78-8.77-2.258c-3.844-2.204-6.137-5.715-6.137-9.393c0-0.738,0.09-1.461,0.257-2.164
		c0.169-0.703,0.421-1.384,0.745-2.037c1.099-2.217,3.051-4.109,5.553-5.435c0.359-0.191,0.732-0.371,1.115-0.538
		c0.091-0.039,0.179-0.086,0.271-0.124c1.584-0.654,3.347-1.095,5.223-1.267c0.57-0.053,1.151-0.086,1.742-0.086
		c8.217,0,14.905,5.227,14.905,11.65C75.715,56.635,73.593,59.988,69.891,62.232z"/>
</g>
</svg>
