<?xml version="1.0" encoding="utf-8"?>
<!-- Generator: Adobe Illustrator 16.0.0, SVG Export Plug-In . SVG Version: 6.00 Build 0)  -->
<!DOCTYPE svg PUBLIC "-//W3C//DTD SVG 1.1//EN" "http://www.w3.org/Graphics/SVG/1.1/DTD/svg11.dtd">
<svg version="1.1" id="Layer_1" xmlns="http://www.w3.org/2000/svg" xmlns:xlink="http://www.w3.org/1999/xlink" x="0px" y="0px"
	 width="100px" height="100px" viewBox="0 0 100 100" enable-background="new 0 0 100 100" xml:space="preserve">
<path d="M77.154,68.877l-9.97-9.972c2.951-4.152,4.704-9.214,4.704-14.686c0-14.024-11.41-25.434-25.434-25.434
	c-14.026,0-25.435,11.409-25.435,25.434c0,14.025,11.408,25.435,25.435,25.435c5.858,0,11.244-2.011,15.548-5.351l9.862,9.862
	c0.731,0.73,1.689,1.096,2.645,1.096c0.959,0,1.914-0.365,2.645-1.096C78.616,72.704,78.616,70.338,77.154,68.877z M57.488,40.476
	c-0.42,0.205-0.867,0.302-1.309,0.302c-1.107,0-2.174-0.618-2.691-1.681c-1.604-3.289-4.868-5.332-8.523-5.332
	c-1.654,0-2.993-1.338-2.993-2.992c0-1.651,1.339-2.992,2.993-2.992c5.961,0,11.288,3.331,13.903,8.693
	C59.593,37.96,58.974,39.752,57.488,40.476z"/>
</svg>
