<?xml version="1.0" encoding="utf-8"?>
<!-- Generator: Adobe Illustrator 16.0.0, SVG Export Plug-In . SVG Version: 6.00 Build 0)  -->
<!DOCTYPE svg PUBLIC "-//W3C//DTD SVG 1.1//EN" "http://www.w3.org/Graphics/SVG/1.1/DTD/svg11.dtd">
<svg version="1.1" id="Layer_1" xmlns="http://www.w3.org/2000/svg" xmlns:xlink="http://www.w3.org/1999/xlink" x="0px" y="0px"
	 width="100px" height="100px" viewBox="0 0 100 100" enable-background="new 0 0 100 100" xml:space="preserve">
<g>
	<circle cx="48.958" cy="49.669" r="4.173"/>
	<path d="M72.21,26.411c-0.676-0.673-1.575-1.044-2.532-1.044s-1.856,0.371-2.536,1.047c-1.396,1.398-1.396,3.672,0.002,5.07
		C72,36.338,74.675,42.796,74.675,49.67c0,6.873-2.675,13.331-7.533,18.185c-0.677,0.679-1.049,1.578-1.049,2.535
		c0,0.956,0.372,1.855,1.051,2.534c0.679,0.678,1.579,1.05,2.534,1.05c0.956,0,1.856-0.372,2.535-1.05
		c6.208-6.207,9.629-14.465,9.632-23.254C81.845,40.887,78.424,32.627,72.21,26.411z"/>
	<path d="M23.239,49.668c0-6.871,2.675-13.328,7.531-18.184c1.398-1.398,1.398-3.674-0.002-5.073
		c-0.677-0.673-1.575-1.044-2.532-1.044c-0.956,0-1.854,0.371-2.534,1.046c-6.211,6.214-9.633,14.474-9.633,23.255
		c0,8.787,3.422,17.045,9.635,23.258c0.678,0.676,1.578,1.048,2.533,1.048c0.956,0,1.855-0.374,2.532-1.051
		c0.678-0.677,1.051-1.576,1.051-2.533s-0.373-1.856-1.05-2.535C25.914,63,23.239,56.54,23.239,49.668z"/>
	<path d="M65.306,33.32c-0.677-0.676-1.577-1.049-2.534-1.049c-0.955,0-1.855,0.371-2.535,1.048
		c-0.676,0.678-1.049,1.578-1.049,2.535c0,0.956,0.373,1.856,1.049,2.533c6.221,6.22,6.221,16.343,0.002,22.562
		c-0.678,0.677-1.051,1.576-1.051,2.535c0,0.957,0.373,1.857,1.051,2.537c0.678,0.674,1.576,1.045,2.533,1.045
		c0.956,0,1.854-0.371,2.534-1.047c4.359-4.361,6.762-10.168,6.762-16.35C72.068,43.486,69.666,37.681,65.306,33.32z"/>
	<path d="M33.004,49.668c0-4.262,1.66-8.266,4.674-11.274c1.396-1.398,1.396-3.672-0.001-5.069c-0.677-0.677-1.577-1.05-2.534-1.05
		s-1.856,0.373-2.534,1.048c-4.367,4.365-6.772,10.17-6.772,16.346s2.405,11.981,6.772,16.35c0.676,0.676,1.575,1.048,2.533,1.048
		c0.96,0,1.861-0.374,2.535-1.049c0.676-0.675,1.05-1.575,1.05-2.532c0.002-0.959-0.371-1.859-1.05-2.537
		C34.665,57.936,33.004,53.931,33.004,49.668z"/>
	<path d="M58.401,40.229c-0.678-0.678-1.58-1.051-2.536-1.051c-0.957,0-1.856,0.373-2.532,1.048
		c-0.677,0.679-1.049,1.578-1.049,2.535s0.372,1.856,1.049,2.534c2.409,2.412,2.409,6.338,0,8.75
		c-0.677,0.678-1.049,1.578-1.049,2.535c0,0.955,0.372,1.855,1.047,2.531c0.676,0.677,1.577,1.051,2.535,1.051
		c0.959,0,1.858-0.374,2.536-1.053C63.604,53.902,63.604,45.434,58.401,40.229z"/>
	<path d="M42.778,49.67c0-1.655,0.641-3.207,1.809-4.373c0.677-0.678,1.049-1.578,1.049-2.535c0-0.958-0.372-1.857-1.052-2.537
		c-0.677-0.674-1.575-1.045-2.532-1.045s-1.855,0.371-2.535,1.046c-5.202,5.206-5.202,13.679,0,18.886
		c0.679,0.677,1.578,1.051,2.537,1.051c0.957,0,1.856-0.374,2.53-1.049c0.677-0.677,1.049-1.576,1.051-2.532
		c0.001-0.958-0.371-1.858-1.048-2.536C43.418,52.879,42.778,51.324,42.778,49.67z"/>
</g>
</svg>
