<?xml version="1.0" encoding="utf-8"?>
<!-- Generator: Adobe Illustrator 16.0.0, SVG Export Plug-In . SVG Version: 6.00 Build 0)  -->
<!DOCTYPE svg PUBLIC "-//W3C//DTD SVG 1.1//EN" "http://www.w3.org/Graphics/SVG/1.1/DTD/svg11.dtd">
<svg version="1.1" id="Layer_1" xmlns="http://www.w3.org/2000/svg" xmlns:xlink="http://www.w3.org/1999/xlink" x="0px" y="0px"
	 width="100px" height="100px" viewBox="0 0 100 100" enable-background="new 0 0 100 100" xml:space="preserve">
<g>
	<path d="M64.894,26.421c-1.134-6.612-6.89-11.663-13.821-11.663c-6.928,0-12.687,5.051-13.82,11.663h-7.075v55.804H71.97V26.421
		H64.894z M42.104,26.421c1.053-3.973,4.668-6.915,8.968-6.915s7.917,2.942,8.969,6.915H42.104z"/>
	<path d="M80.569,26.334h-4.215v55.804h4.215c3.165,0,5.739-2.572,5.739-5.74V32.073C86.309,28.908,83.734,26.334,80.569,26.334z"/>
	<path d="M20.962,82.139h4.215V26.334h-4.215c-3.165,0-5.739,2.572-5.739,5.74v44.324C15.223,79.564,17.797,82.139,20.962,82.139z"
		/>
</g>
</svg>
