<?xml version="1.0" encoding="utf-8"?>
<!-- Generator: Adobe Illustrator 16.0.0, SVG Export Plug-In . SVG Version: 6.00 Build 0)  -->
<!DOCTYPE svg PUBLIC "-//W3C//DTD SVG 1.1//EN" "http://www.w3.org/Graphics/SVG/1.1/DTD/svg11.dtd">
<svg version="1.1" id="Layer_1" xmlns="http://www.w3.org/2000/svg" xmlns:xlink="http://www.w3.org/1999/xlink" x="0px" y="0px"
	 width="100px" height="100px" viewBox="0 0 100 100" enable-background="new 0 0 100 100" xml:space="preserve">
<path d="M77.327,32.336H33.923c-2.602,0-4.719,2.115-4.719,4.719v27.229c0,2.604,2.118,4.72,4.719,4.72h43.404
	c2.605,0,4.721-2.116,4.721-4.72V37.055C82.048,34.451,79.932,32.336,77.327,32.336z M61.205,52.385l-7.084,5.16
	c-0.409,0.298-0.895,0.448-1.38,0.448c-0.363,0-0.729-0.084-1.064-0.255c-0.786-0.399-1.281-1.207-1.281-2.09v-10.32
	c0-0.883,0.495-1.69,1.281-2.091c0.787-0.399,1.73-0.325,2.444,0.194l7.084,5.16c0.606,0.443,0.965,1.146,0.965,1.896
	C62.17,51.237,61.811,51.941,61.205,52.385z"/>
</svg>
