<?xml version="1.0" encoding="utf-8"?>
<!-- Generator: Adobe Illustrator 16.0.0, SVG Export Plug-In . SVG Version: 6.00 Build 0)  -->
<!DOCTYPE svg PUBLIC "-//W3C//DTD SVG 1.1//EN" "http://www.w3.org/Graphics/SVG/1.1/DTD/svg11.dtd">
<svg version="1.1" id="Layer_1" xmlns="http://www.w3.org/2000/svg" xmlns:xlink="http://www.w3.org/1999/xlink" x="0px" y="0px"
	 width="100px" height="100px" viewBox="0 0 100 100" enable-background="new 0 0 100 100" xml:space="preserve">
<g>
	<path d="M39.42,23.137c0.49-0.492,0.762-1.145,0.762-1.841c0-0.684-0.278-1.355-0.762-1.838c-2.93-2.935-6.829-4.55-10.977-4.55
		c-4.148,0-8.047,1.615-10.977,4.548c-2.933,2.93-4.548,6.829-4.548,10.977c0,4.146,1.615,8.046,4.55,10.98
		c0.493,0.489,1.145,0.759,1.838,0.759c0.691,0,1.345-0.27,1.84-0.762L39.42,23.137z"/>
	<path d="M82.536,19.458c-2.931-2.935-6.828-4.55-10.977-4.55c-4.146,0-8.046,1.615-10.977,4.547
		c-0.492,0.491-0.764,1.145-0.764,1.841c0,0.698,0.272,1.352,0.762,1.841l18.276,18.275c0.492,0.49,1.145,0.76,1.838,0.76
		c0.693,0,1.347-0.27,1.84-0.762c2.933-2.933,4.548-6.831,4.548-10.977C87.081,26.284,85.466,22.385,82.536,19.458z"/>
	<path d="M71.581,72.917c4.042-4.864,6.479-11.107,6.479-17.91c0-15.472-12.586-28.059-28.058-28.059
		c-15.474,0-28.061,12.587-28.061,28.059c0,6.324,2.128,12.147,5.67,16.844l-7.328,7.329c-0.916,0.916-0.916,2.4,0,3.316
		c0.458,0.458,1.058,0.687,1.658,0.687s1.2-0.229,1.658-0.687l7.139-7.139c5.032,4.767,11.803,7.711,19.264,7.711
		c6.983,0,13.365-2.582,18.281-6.818l6.246,6.246c0.458,0.458,1.058,0.687,1.658,0.687s1.202-0.229,1.658-0.687
		c0.916-0.916,0.916-2.4,0-3.316L71.581,72.917z M64.843,57.492c-0.492,0.491-1.145,0.762-1.84,0.762l-13.077,0.001
		c-1.433,0-2.601-1.168-2.603-2.603V44.347c0-0.695,0.271-1.348,0.763-1.84c0.49-0.49,1.144-0.76,1.838-0.762
		c0.696,0,1.35,0.27,1.841,0.762c0.492,0.492,0.762,1.145,0.764,1.841v8.702l10.473-0.001c0.695,0,1.35,0.27,1.841,0.762
		c0.488,0.49,0.76,1.144,0.762,1.843C65.605,56.348,65.333,57,64.843,57.492z"/>
</g>
</svg>
