<?xml version="1.0" encoding="utf-8"?>
<!-- Generator: Adobe Illustrator 16.0.0, SVG Export Plug-In . SVG Version: 6.00 Build 0)  -->
<!DOCTYPE svg PUBLIC "-//W3C//DTD SVG 1.1//EN" "http://www.w3.org/Graphics/SVG/1.1/DTD/svg11.dtd">
<svg version="1.1" id="Layer_1" xmlns="http://www.w3.org/2000/svg" xmlns:xlink="http://www.w3.org/1999/xlink" x="0px" y="0px"
	 width="100px" height="100px" viewBox="0 0 100 100" enable-background="new 0 0 100 100" xml:space="preserve">
<g>
	<path d="M80.989,29.843h-0.57c1.729-2.012,2.78-4.617,2.78-7.471c0-6.33-5.149-11.48-11.479-11.48
		c-6.332,0-11.481,5.15-11.481,11.48c0,2.854,1.052,5.459,2.781,7.471h-0.57c-3.195,0-5.795,2.6-5.795,5.797v19.043
		c0,3.197,2.6,5.797,5.795,5.797h0.221v20.826c0,3.307,1.742,5.797,4.051,5.797h9.996c2.309,0,4.049-2.49,4.049-5.797V60.479h0.223
		c3.193,0,5.794-2.6,5.794-5.797V35.64C86.783,32.442,84.183,29.843,80.989,29.843z"/>
	<path d="M47.519,62.306c2.506-0.639,4.367-2.914,4.367-5.617V37.644c0-3.195-2.6-5.797-5.795-5.797h-0.568
		c1.729-2.01,2.781-4.615,2.781-7.467c0-6.332-5.152-11.482-11.481-11.482s-11.479,5.15-11.479,11.482
		c0,2.852,1.051,5.457,2.78,7.467h-0.569c-3.197,0-5.794,2.602-5.794,5.797v19.045c0,2.703,1.86,4.979,4.366,5.617l-4.024,5.959
		c-0.415,0.615-0.458,1.408-0.107,2.064c0.347,0.654,1.028,1.063,1.771,1.063h4.013v11.92c0,3.307,1.737,5.797,4.046,5.797h9.997
		c2.308,0,4.05-2.49,4.05-5.797v-11.92h4.012c0.008-0.002,0.017-0.002,0.026,0c1.105,0,2.005-0.896,2.005-2.006
		c0-0.521-0.201-0.998-0.528-1.355L47.519,62.306z"/>
</g>
</svg>
