<?xml version="1.0" encoding="utf-8"?>
<!-- Generator: Adobe Illustrator 16.0.0, SVG Export Plug-In . SVG Version: 6.00 Build 0)  -->
<!DOCTYPE svg PUBLIC "-//W3C//DTD SVG 1.1//EN" "http://www.w3.org/Graphics/SVG/1.1/DTD/svg11.dtd">
<svg version="1.1" id="Layer_1" xmlns="http://www.w3.org/2000/svg" xmlns:xlink="http://www.w3.org/1999/xlink" x="0px" y="0px"
	 width="100px" height="100px" viewBox="0 0 100 100" enable-background="new 0 0 100 100" xml:space="preserve">
<g>
	<path d="M20.446,69.446c-3.517,0.905-6.439,2.801-8.219,5.25C5.375,70.386,0.8,62.778,0.8,54.103
		c0-13.418,10.915-24.335,24.334-24.335c2.907,0,5.684,0.54,8.27,1.478c-4.021,2.897-7.248,6.825-9.29,11.397
		c-0.569,0.519-1.233,0.952-1.717,1.214c-3.521,1.646-5.888,6.269-5.888,11.51c0,3.152,1.915,7.151,3.938,10.513V69.446z"/>
	<path d="M54.943,69.574c-0.129-0.153-0.248-0.312-0.372-0.47v-3.313c2.003-3.341,3.887-7.3,3.887-10.425
		c0-5.749-2.8-10.568-6.672-11.811c-0.095-0.029-0.186-0.067-0.281-0.095c0.458-1.443-0.35-2.72-0.39-2.784
		c-0.144-0.221-0.405-0.335-0.668-0.277c-0.23,0.048-0.401,0.229-0.466,0.453c-0.007,0.025-0.03,0.042-0.032,0.066
		c-0.2,1.188-1.819,2.364-2.791,2.903c-0.02,0.01-0.044,0.024-0.061,0.034c-3.524,1.646-5.888,6.269-5.888,11.51
		c0,3.152,1.915,7.151,3.938,10.513v2.005c-0.495,0.716-1.026,1.408-1.595,2.064c-2.48,0.899-4.578,2.311-6.07,4.059
		c-1.49-1.747-3.588-3.159-6.068-4.059c-0.55-0.635-1.063-1.301-1.545-1.989c-2.748-3.934-4.372-8.703-4.372-13.856
		c0-3.673,0.844-7.146,2.307-10.27c2.085-4.455,5.472-8.169,9.679-10.662c1.291-0.764,2.655-1.407,4.083-1.926
		c2.585-0.938,5.361-1.478,8.269-1.478c2.695,0,5.28,0.459,7.706,1.271c1.475,0.493,2.886,1.12,4.218,1.874
		c4.272,2.414,7.732,6.083,9.905,10.503c1.588,3.232,2.506,6.851,2.506,10.687c0,5.636-1.942,10.813-5.173,14.937
		c-0.14,0.18-0.28,0.358-0.424,0.534c-2.755,0.782-5.113,2.175-6.814,3.965C60.059,71.749,57.697,70.356,54.943,69.574z"/>
	<path d="M86.589,74.696c-1.773-2.438-4.675-4.325-8.171-5.234v-3.671c2.006-3.341,3.888-7.3,3.888-10.425
		c0-5.57-2.627-10.271-6.313-11.689c-0.16-0.398-0.327-0.791-0.504-1.182c-0.019-1.005-0.493-1.769-0.526-1.818
		c-0.116-0.179-0.314-0.261-0.524-0.266c-2.082-3.726-4.985-6.931-8.465-9.372c2.426-0.813,5.015-1.271,7.71-1.271
		c13.416,0,24.333,10.917,24.333,24.335C98.017,62.778,93.44,70.386,86.589,74.696z"/>
</g>
</svg>
