<?xml version="1.0" encoding="utf-8"?>
<!-- Generator: Adobe Illustrator 16.0.0, SVG Export Plug-In . SVG Version: 6.00 Build 0)  -->
<!DOCTYPE svg PUBLIC "-//W3C//DTD SVG 1.1//EN" "http://www.w3.org/Graphics/SVG/1.1/DTD/svg11.dtd">
<svg version="1.1" id="Layer_1" xmlns="http://www.w3.org/2000/svg" xmlns:xlink="http://www.w3.org/1999/xlink" x="0px" y="0px"
	 width="100px" height="100px" viewBox="0 0 100 100" enable-background="new 0 0 100 100" xml:space="preserve">
<g>
	<path d="M68.692,35.774l-4.747-4.749c-0.269-0.268-0.633-0.419-1.014-0.419c-0.38,0-0.745,0.151-1.014,0.419l-37.77,37.769
		c-0.56,0.561-0.56,1.467,0,2.028l4.747,4.747c0.281,0.28,0.647,0.42,1.015,0.42s0.734-0.14,1.014-0.42l37.769-37.768
		C69.251,37.242,69.251,36.334,68.692,35.774z"/>
	<path d="M70.83,54.818h-6.445v-5.716c0-0.793-0.642-1.434-1.434-1.434c-0.793,0-1.435,0.641-1.435,1.434v5.716h-6.155
		c-0.792,0-1.434,0.642-1.434,1.434c0,0.793,0.642,1.434,1.434,1.434h6.155v5.719c0,0.793,0.642,1.434,1.435,1.434
		c0.792,0,1.434-0.641,1.434-1.434v-5.719h6.445c0.791,0,1.435-0.641,1.435-1.434C72.264,55.46,71.621,54.818,70.83,54.818z"/>
	<path d="M36.097,37.987h6.154v5.719c0,0.792,0.643,1.434,1.434,1.434c0.793,0,1.435-0.642,1.435-1.434v-5.719h6.446
		c0.793,0,1.435-0.641,1.435-1.434c0-0.792-0.642-1.434-1.435-1.434H45.12v-5.718c0-0.792-0.642-1.433-1.435-1.433
		c-0.791,0-1.434,0.641-1.434,1.433v5.718h-6.154c-0.791,0-1.434,0.642-1.434,1.434C34.664,37.346,35.306,37.987,36.097,37.987z"/>
	<path d="M53.079,30.335h1.896v1.704c0,0.793,0.641,1.434,1.434,1.434c0.791,0,1.434-0.641,1.434-1.434v-1.704h2.023
		c0.791,0,1.434-0.641,1.434-1.434c0-0.792-0.643-1.434-1.434-1.434h-2.023v-1.705c0-0.792-0.643-1.434-1.434-1.434
		c-0.793,0-1.434,0.642-1.434,1.434v1.705h-1.896c-0.793,0-1.434,0.642-1.434,1.434C51.645,29.695,52.286,30.335,53.079,30.335z"/>
	<path d="M74.225,42.271h-2.024v-1.704c0-0.792-0.643-1.434-1.434-1.434c-0.793,0-1.435,0.642-1.435,1.434v1.704h-1.896
		c-0.792,0-1.434,0.642-1.434,1.434s0.642,1.434,1.434,1.434h1.896v1.704c0,0.792,0.642,1.434,1.435,1.434
		c0.791,0,1.434-0.642,1.434-1.434V45.14h2.024c0.791,0,1.434-0.642,1.434-1.434S75.016,42.271,74.225,42.271z"/>
</g>
</svg>
