<?xml version="1.0" encoding="utf-8"?>
<!-- Generator: Adobe Illustrator 16.0.0, SVG Export Plug-In . SVG Version: 6.00 Build 0)  -->
<!DOCTYPE svg PUBLIC "-//W3C//DTD SVG 1.1//EN" "http://www.w3.org/Graphics/SVG/1.1/DTD/svg11.dtd">
<svg version="1.1" id="Layer_1" xmlns="http://www.w3.org/2000/svg" xmlns:xlink="http://www.w3.org/1999/xlink" x="0px" y="0px"
	 width="100px" height="100px" viewBox="0 0 100 100" enable-background="new 0 0 100 100" xml:space="preserve">
<g>
	<path d="M58.557,38.244c-1.642-1.638-3.506-3.013-5.395-3.976c-1.104-0.563-2.457-0.125-3.018,0.979
		c-0.564,1.105-0.126,2.457,0.979,3.02c1.476,0.752,2.948,1.842,4.261,3.152c1.952,1.952,3.407,4.271,3.988,6.361
		c0.462,1.648,0.345,2.973-0.315,3.633L39.732,70.738c-1.49,1.49-6.081,0.237-9.99-3.675c-3.913-3.912-5.167-8.503-3.677-9.993
		l7.017-7.019c0.877-0.877,0.877-2.297,0-3.174s-2.297-0.877-3.174,0l-7.016,7.019c-3.551,3.55-1.938,10.728,3.673,16.341
		c3.603,3.602,7.849,5.557,11.367,5.557c1.964,0,3.702-0.609,4.974-1.882L62.23,54.587c1.867-1.866,2.387-4.711,1.467-8.014
		C62.899,43.72,61.076,40.763,58.557,38.244z"/>
	<path d="M72.966,23.837c-2.519-2.518-5.476-4.342-8.328-5.139c-3.302-0.92-6.147-0.4-8.013,1.465L37.299,39.487
		c-1.865,1.866-2.385,4.713-1.465,8.014c0.798,2.853,2.621,5.811,5.141,8.327c1.639,1.64,3.506,3.016,5.395,3.979
		c0.327,0.167,0.675,0.245,1.02,0.245c0.815,0,1.604-0.447,1.998-1.225c0.564-1.104,0.126-2.455-0.979-3.018
		c-1.476-0.753-2.948-1.844-4.26-3.154c-1.952-1.953-3.408-4.27-3.989-6.36c-0.462-1.648-0.345-2.974,0.315-3.634l19.324-19.324
		c0.66-0.658,1.984-0.775,3.632-0.314c2.09,0.584,4.41,2.037,6.362,3.988c3.909,3.91,5.163,8.503,3.673,9.994l-7.017,7.018
		c-0.876,0.877-0.876,2.297,0,3.174c0.877,0.877,2.297,0.877,3.174,0l7.02-7.018C80.189,36.627,78.576,29.448,72.966,23.837z"/>
</g>
</svg>
