<?xml version="1.0" encoding="utf-8"?>
<!-- Generator: Adobe Illustrator 16.0.0, SVG Export Plug-In . SVG Version: 6.00 Build 0)  -->
<!DOCTYPE svg PUBLIC "-//W3C//DTD SVG 1.1//EN" "http://www.w3.org/Graphics/SVG/1.1/DTD/svg11.dtd">
<svg version="1.1" id="Layer_1" xmlns="http://www.w3.org/2000/svg" xmlns:xlink="http://www.w3.org/1999/xlink" x="0px" y="0px"
	 width="100px" height="100px" viewBox="0 0 100 100" enable-background="new 0 0 100 100" xml:space="preserve">
<g>
	<g>
		<g>
			<path d="M72.261,39.687H29.853c-2.887,0-5.236-2.35-5.236-5.236c0-2.888,2.35-5.236,5.236-5.236h42.408
				c2.887,0,5.236,2.349,5.236,5.236C77.497,37.337,75.147,39.687,72.261,39.687z"/>
		</g>
	</g>
	<g>
		<g>
			<path d="M72.261,54.907H29.853c-2.887,0-5.236-2.35-5.236-5.236s2.35-5.236,5.236-5.236h42.408c2.887,0,5.236,2.35,5.236,5.236
				S75.147,54.907,72.261,54.907z"/>
		</g>
	</g>
	<g>
		<g>
			<path d="M72.261,70.127H29.853c-2.887,0-5.236-2.349-5.236-5.235c0-2.888,2.35-5.237,5.236-5.237h42.408
				c2.887,0,5.236,2.35,5.236,5.237C77.497,67.778,75.147,70.127,72.261,70.127z"/>
		</g>
	</g>
</g>
</svg>
