<?xml version="1.0" encoding="utf-8"?>
<!-- Generator: Adobe Illustrator 16.0.0, SVG Export Plug-In . SVG Version: 6.00 Build 0)  -->
<!DOCTYPE svg PUBLIC "-//W3C//DTD SVG 1.1//EN" "http://www.w3.org/Graphics/SVG/1.1/DTD/svg11.dtd">
<svg version="1.1" id="Layer_1" xmlns="http://www.w3.org/2000/svg" xmlns:xlink="http://www.w3.org/1999/xlink" x="0px" y="0px"
	 width="100px" height="100px" viewBox="0 0 100 100" enable-background="new 0 0 100 100" xml:space="preserve">
<g>
	<g>
		<path d="M70.135,79.537H29.489c-1.188,0-2.151-0.963-2.151-2.15V36.742c0-1.188,0.964-2.151,2.151-2.151h40.646
			c1.188,0,2.15,0.963,2.15,2.151v40.645C72.285,78.574,71.323,79.537,70.135,79.537z"/>
	</g>
	<path d="M79.344,25.086H38.698c-1.188,0-2.151,0.964-2.151,2.151v4.544c0,1.188,0.964,2.15,2.151,2.15
		c0.132,0,0.26-0.016,0.387-0.039v0.045h33.991v32.956h0.003c-0.156,0.297-0.253,0.63-0.253,0.989c0,1.187,0.964,2.15,2.151,2.15
		h4.366c1.187,0,2.15-0.963,2.15-2.15V27.238C81.494,26.05,80.53,25.086,79.344,25.086z"/>
</g>
</svg>
