<?xml version="1.0" encoding="utf-8"?>
<!-- Generator: Adobe Illustrator 16.0.0, SVG Export Plug-In . SVG Version: 6.00 Build 0)  -->
<!DOCTYPE svg PUBLIC "-//W3C//DTD SVG 1.1//EN" "http://www.w3.org/Graphics/SVG/1.1/DTD/svg11.dtd">
<svg version="1.1" id="Layer_1" xmlns="http://www.w3.org/2000/svg" xmlns:xlink="http://www.w3.org/1999/xlink" x="0px" y="0px"
	 width="100px" height="100px" viewBox="0 0 100 100" enable-background="new 0 0 100 100" xml:space="preserve">
<path d="M50.818,19.875c-16.613,0-30.082,13.469-30.082,30.082c0,16.614,13.469,30.083,30.082,30.083S80.9,66.571,80.9,49.957
	C80.9,33.343,67.432,19.875,50.818,19.875z M67.586,42.54c0,1.196-0.971,2.168-2.168,2.168c-1.199,0-2.168-0.972-2.168-2.168v-1.92
	l-9.029,9.026l4.459,4.456c0.215,0.217,0.372,0.468,0.479,0.736l3.964,3.963V56.37c0-1.197,0.969-2.168,2.168-2.168
	c1.197,0,2.168,0.971,2.168,2.168v9.834h-9.323c-1.198,0-2.169-0.971-2.169-2.168s0.971-2.168,2.169-2.168h1.921l-9.027-9.028
	l-4.455,4.456c-0.218,0.216-0.469,0.374-0.737,0.479l-3.964,3.964h2.433c1.198,0,2.168,0.971,2.168,2.168s-0.97,2.168-2.168,2.168
	h-9.835v-9.322c0-1.197,0.972-2.169,2.169-2.169c1.198,0,2.168,0.972,2.168,2.169v1.921l9.028-9.027l-4.457-4.456
	c-0.215-0.216-0.373-0.467-0.479-0.735l-3.964-3.964v2.433c0,1.197-0.969,2.168-2.168,2.168c-1.198,0-2.168-0.971-2.168-2.168
	v-9.834h9.323c1.197,0,2.168,0.971,2.168,2.168s-0.971,2.168-2.168,2.168h-1.921l9.027,9.026l4.454-4.454
	c0.218-0.216,0.469-0.374,0.737-0.48l3.963-3.963h-2.432c-1.199,0-2.168-0.972-2.168-2.169c0-1.196,0.969-2.168,2.168-2.168h9.834
	V42.54z"/>
</svg>
