<?xml version="1.0" encoding="utf-8"?>
<!-- Generator: Adobe Illustrator 16.0.0, SVG Export Plug-In . SVG Version: 6.00 Build 0)  -->
<!DOCTYPE svg PUBLIC "-//W3C//DTD SVG 1.1//EN" "http://www.w3.org/Graphics/SVG/1.1/DTD/svg11.dtd">
<svg version="1.1" id="Layer_1" xmlns="http://www.w3.org/2000/svg" xmlns:xlink="http://www.w3.org/1999/xlink" x="0px" y="0px"
	 width="100px" height="100px" viewBox="0 0 100 100" enable-background="new 0 0 100 100" xml:space="preserve">
<path d="M55.086,22.609c-15.475,0-28.061,12.587-28.061,28.059c0,15.474,12.586,28.062,28.061,28.062
	c15.471,0,28.059-12.588,28.059-28.062C83.145,35.196,70.557,22.609,55.086,22.609z M62.539,53.54l-10.727,7.813
	c-0.621,0.45-1.355,0.68-2.09,0.68c-0.553,0-1.104-0.127-1.611-0.387c-1.189-0.604-1.941-1.827-1.941-3.163V42.857
	c0-1.336,0.752-2.559,1.941-3.164c1.191-0.604,2.621-0.492,3.701,0.294L62.539,47.8c0.916,0.667,1.459,1.735,1.459,2.87
	S63.455,52.873,62.539,53.54z"/>
</svg>
