<?xml version="1.0" encoding="utf-8"?>
<!-- Generator: Adobe Illustrator 16.0.0, SVG Export Plug-In . SVG Version: 6.00 Build 0)  -->
<!DOCTYPE svg PUBLIC "-//W3C//DTD SVG 1.1//EN" "http://www.w3.org/Graphics/SVG/1.1/DTD/svg11.dtd">
<svg version="1.1" id="Layer_1" xmlns="http://www.w3.org/2000/svg" xmlns:xlink="http://www.w3.org/1999/xlink" x="0px" y="0px"
	 width="100px" height="100px" viewBox="0 0 100 100" enable-background="new 0 0 100 100" xml:space="preserve">
<path d="M51.108,19.875c-16.613,0-30.082,13.469-30.082,30.083c0,16.613,13.469,30.082,30.082,30.082
	c16.614,0,30.083-13.469,30.083-30.082C81.191,33.343,67.723,19.875,51.108,19.875z M72.901,48.516l1.533,1.531l-1.533,1.532
	c0,0-0.002,0.001-0.002,0.002l-5.057,5.058c-0.424,0.424-0.98,0.636-1.533,0.636c-0.557,0-1.109-0.212-1.533-0.636
	c-0.847-0.847-0.847-2.219,0-3.065l1.358-1.357H53.368v6.301c0,0.306-0.066,0.599-0.182,0.862v5.603l1.719-1.72
	c0.848-0.847,2.22-0.847,3.066,0c0.848,0.847,0.848,2.219,0,3.066l-5.418,5.419L52.55,71.75l-1.531,1.532l-1.531-1.532l-0.003-0.002
	l-5.058-5.058c-0.847-0.848-0.847-2.22,0-3.066c0.848-0.847,2.219-0.847,3.066,0l1.357,1.358V52.216H42.55
	c-0.307,0-0.599-0.066-0.863-0.182h-5.602l1.719,1.72c0.848,0.847,0.848,2.219,0,3.065c-0.424,0.424-0.979,0.636-1.533,0.636
	s-1.109-0.212-1.532-0.636l-5.419-5.418c-0.002-0.002-0.003-0.003-0.003-0.003l-1.531-1.532l1.531-1.531
	c0,0,0.001-0.001,0.003-0.003l5.058-5.058c0.847-0.847,2.219-0.847,3.065,0c0.848,0.848,0.848,2.219,0,3.066l-1.357,1.357h12.766
	v-6.301c0-0.307,0.066-0.599,0.181-0.862v-5.603l-1.72,1.719c-0.423,0.424-0.978,0.636-1.533,0.636
	c-0.555,0-1.109-0.212-1.532-0.636c-0.847-0.847-0.847-2.219,0-3.065l5.419-5.419c0,0,0.002-0.001,0.003-0.003l1.531-1.531
	l1.532,1.531c0.001,0.002,0.002,0.003,0.002,0.003l5.058,5.058c0.847,0.847,0.847,2.219,0,3.065c-0.847,0.848-2.219,0.848-3.065,0
	l-1.357-1.357v12.766h6.302c0.306,0,0.599,0.066,0.862,0.181h5.603l-1.72-1.719c-0.847-0.847-0.847-2.22,0-3.066
	c0.848-0.847,2.219-0.847,3.066,0l5.418,5.419C72.899,48.515,72.901,48.516,72.901,48.516z"/>
</svg>
