<?xml version="1.0" encoding="utf-8"?>
<!-- Generator: Adobe Illustrator 16.0.0, SVG Export Plug-In . SVG Version: 6.00 Build 0)  -->
<!DOCTYPE svg PUBLIC "-//W3C//DTD SVG 1.1//EN" "http://www.w3.org/Graphics/SVG/1.1/DTD/svg11.dtd">
<svg version="1.1" id="Layer_1" xmlns="http://www.w3.org/2000/svg" xmlns:xlink="http://www.w3.org/1999/xlink" x="0px" y="0px"
	 width="100px" height="100px" viewBox="0 0 100 100" enable-background="new 0 0 100 100" xml:space="preserve">
<path d="M74.396,46.166l-0.028-0.103c-0.022-0.179-0.064-0.351-0.123-0.527l-0.06-0.177l-0.043-0.09
	c-0.094-0.205-0.203-0.385-0.329-0.549l-0.031-0.063L54.208,25.085c-0.227-0.227-0.492-0.41-0.827-0.564l-0.234-0.086
	c-0.172-0.059-0.349-0.101-0.533-0.126l-0.134-0.037h-13.04c-5.076,0-9.205,4.128-9.205,9.203v38.646
	c0,5.075,4.129,9.203,9.205,9.203h25.765c5.072,0,9.2-4.128,9.2-9.203V46.427L74.396,46.166z M42.135,69.287H41.36
	c-1.188,0-2.15-0.963-2.15-2.15c0-1.188,0.962-2.152,2.15-2.152h0.775c1.189,0,2.151,0.964,2.151,2.152
	C44.287,68.324,43.325,69.287,42.135,69.287z M42.135,63.552H41.36c-1.188,0-2.15-0.964-2.15-2.15c0-1.188,0.962-2.151,2.15-2.151
	h0.775c1.189,0,2.151,0.964,2.151,2.151C44.287,62.588,43.325,63.552,42.135,63.552z M42.135,57.816H41.36
	c-1.188,0-2.15-0.963-2.15-2.15c0-1.188,0.962-2.151,2.15-2.151h0.775c1.189,0,2.151,0.964,2.151,2.151
	C44.287,56.853,43.325,57.816,42.135,57.816z M63.824,69.287H48.051c-1.188,0-2.151-0.963-2.151-2.15
	c0-1.188,0.963-2.152,2.151-2.152h15.772c1.189,0,2.15,0.964,2.15,2.152C65.974,68.324,65.013,69.287,63.824,69.287z M63.824,63.552
	H48.051c-1.188,0-2.151-0.964-2.151-2.15c0-1.188,0.963-2.151,2.151-2.151h15.772c1.189,0,2.15,0.964,2.15,2.151
	C65.974,62.588,65.013,63.552,63.824,63.552z M63.824,57.816H48.051c-1.188,0-2.151-0.963-2.151-2.15
	c0-1.188,0.963-2.151,2.151-2.151h15.772c1.189,0,2.15,0.964,2.15,2.151C65.974,56.853,65.013,57.816,63.824,57.816z"/>
</svg>
