<?xml version="1.0" encoding="utf-8"?>
<!-- Generator: Adobe Illustrator 16.0.0, SVG Export Plug-In . SVG Version: 6.00 Build 0)  -->
<!DOCTYPE svg PUBLIC "-//W3C//DTD SVG 1.1//EN" "http://www.w3.org/Graphics/SVG/1.1/DTD/svg11.dtd">
<svg version="1.1" id="Layer_1" xmlns="http://www.w3.org/2000/svg" xmlns:xlink="http://www.w3.org/1999/xlink" x="0px" y="0px"
	 width="100px" height="100px" viewBox="0 0 100 100" enable-background="new 0 0 100 100" xml:space="preserve">
<g>
	<path d="M51.979,19.875c-16.614,0-30.083,13.469-30.083,30.083c0,16.613,13.469,30.082,30.083,30.082
		c16.613,0,30.082-13.469,30.082-30.082C82.061,33.343,68.592,19.875,51.979,19.875z M51.979,77.366
		c-15.113,0-27.409-12.295-27.409-27.41c0-15.111,12.296-27.407,27.409-27.407c15.113,0,27.409,12.296,27.409,27.407
		C79.388,65.071,67.092,77.366,51.979,77.366z"/>
	<path d="M51.979,26.558c-12.901,0-23.399,10.496-23.399,23.397c0,12.111,9.248,22.099,21.05,23.279V50.9l-1.719,1.72
		c-0.847,0.847-2.219,0.847-3.065,0c-0.847-0.848-0.847-2.22,0-3.066l5.418-5.419l0.003-0.003l1.532-1.531l1.531,1.531l0.003,0.003
		l5.058,5.058c0.423,0.424,0.635,0.979,0.635,1.533s-0.211,1.109-0.635,1.533c-0.847,0.847-2.219,0.847-3.066,0L53.966,50.9v22.354
		c11.973-1.014,21.41-11.066,21.41-23.299C75.376,37.054,64.88,26.558,51.979,26.558z"/>
</g>
</svg>
