<?xml version="1.0" encoding="utf-8"?>
<!-- Generator: Adobe Illustrator 16.0.0, SVG Export Plug-In . SVG Version: 6.00 Build 0)  -->
<!DOCTYPE svg PUBLIC "-//W3C//DTD SVG 1.1//EN" "http://www.w3.org/Graphics/SVG/1.1/DTD/svg11.dtd">
<svg version="1.1" id="Layer_1" xmlns="http://www.w3.org/2000/svg" xmlns:xlink="http://www.w3.org/1999/xlink" x="0px" y="0px"
	 width="100px" height="100px" viewBox="0 0 100 100" enable-background="new 0 0 100 100" xml:space="preserve">
<g>
	<path d="M33.968,51.132c0-4.741,1.588-9.106,4.235-12.637c2.646,3.53,4.234,7.896,4.234,12.637c0,4.74-1.588,9.106-4.234,12.635
		C35.556,60.238,33.968,55.872,33.968,51.132z"/>
	<path d="M55.098,72.26c-5.156,0-9.882-1.86-13.553-4.938c3.56-4.442,5.704-10.067,5.704-16.189c0-6.123-2.144-11.746-5.706-16.189
		c3.673-3.079,8.398-4.94,13.555-4.94c4.579,0,8.81,1.479,12.273,3.963c-3.052,4.255-4.868,9.449-4.868,15.072
		c0,6.787,2.641,12.952,6.92,17.582C65.654,70.107,60.629,72.26,55.098,72.26z"/>
	<path d="M72.596,62.964c-3.276-3.723-5.281-8.59-5.281-13.927c0-4.381,1.341-8.455,3.633-11.834
		c3.276,3.724,5.281,8.591,5.281,13.929C76.229,55.514,74.887,59.586,72.596,62.964z"/>
</g>
</svg>
