<?xml version="1.0" encoding="utf-8"?>
<!-- Generator: Adobe Illustrator 16.0.0, SVG Export Plug-In . SVG Version: 6.00 Build 0)  -->
<!DOCTYPE svg PUBLIC "-//W3C//DTD SVG 1.1//EN" "http://www.w3.org/Graphics/SVG/1.1/DTD/svg11.dtd">
<svg version="1.1" id="Layer_1" xmlns="http://www.w3.org/2000/svg" xmlns:xlink="http://www.w3.org/1999/xlink" x="0px" y="0px"
	 width="100px" height="100px" viewBox="0 0 100 100" enable-background="new 0 0 100 100" xml:space="preserve">
<g>
	<polygon points="67.606,55.144 61.72,58.745 56.461,55.53 57.861,54.656 67.606,48.694 	"/>
	<polygon points="48.28,55.53 43.022,58.745 37.136,55.144 37.136,48.694 46.881,54.656 	"/>
	<polygon points="52.371,36.934 59.925,41.467 65.443,44.844 55.552,51.025 52.371,52.971 49.19,51.025 39.298,44.844 
		44.817,41.467 	"/>
	<polygon points="61.972,31.071 75.014,39.223 69.829,42.394 62.104,37.757 56.521,34.343 	"/>
	<polygon points="42.771,31.071 48.221,34.343 42.639,37.757 34.911,42.394 29.729,39.223 	"/>
	<polygon points="29.787,50.65 32.834,48.823 32.834,52.514 	"/>
	<path d="M37.136,60.187l4.766,2.915c0.344,0.211,0.732,0.316,1.121,0.316c0.39,0,0.779-0.105,1.123-0.316l6.075-3.715v11.585
		l-13.085-8.468V60.187z"/>
	<path d="M67.606,62.504l-13.085,8.468V59.387l6.074,3.715c0.345,0.211,0.734,0.316,1.124,0.316c0.389,0,0.777-0.105,1.121-0.316
		l4.766-2.915V62.504z"/>
	<polygon points="71.908,52.514 71.908,48.823 74.955,50.65 	"/>
</g>
</svg>
