<?xml version="1.0" encoding="utf-8"?>
<!-- Generator: Adobe Illustrator 16.0.0, SVG Export Plug-In . SVG Version: 6.00 Build 0)  -->
<!DOCTYPE svg PUBLIC "-//W3C//DTD SVG 1.1//EN" "http://www.w3.org/Graphics/SVG/1.1/DTD/svg11.dtd">
<svg version="1.1" id="Layer_1" xmlns="http://www.w3.org/2000/svg" xmlns:xlink="http://www.w3.org/1999/xlink" x="0px" y="0px"
	 width="100px" height="100px" viewBox="0 0 100 100" enable-background="new 0 0 100 100" xml:space="preserve">
<path d="M54.367,27.707c-14.19,0-25.735,11.547-25.735,25.736c0,14.19,11.545,25.737,25.735,25.737
	c14.191,0,25.736-11.547,25.736-25.737C80.104,39.254,68.559,27.707,54.367,27.707z M52.336,66.215c-0.006,0-0.011,0-0.015,0
	c-0.002,0-0.005,0-0.007,0c-0.759-0.008-7.475-0.128-9.585-2.239c-2.112-2.11-2.232-8.826-2.24-9.585
	c0-0.194,0.075-0.378,0.21-0.514c0.137-0.137,0.341-0.211,0.514-0.211c0.76,0.008,7.477,0.128,9.588,2.239
	c1.98,1.979,2.207,8.019,2.234,9.381c0.021,0.067,0.031,0.137,0.031,0.211C53.066,65.898,52.734,66.22,52.336,66.215z
	 M54.367,56.149c-0.191,0-0.377-0.077-0.511-0.215c-0.532-0.542-5.195-5.376-5.195-8.36c0-2.985,4.663-7.82,5.195-8.361
	c0.269-0.275,0.753-0.275,1.022,0c0.532,0.541,5.194,5.376,5.194,8.361c0,2.984-4.662,7.818-5.194,8.36
	C54.744,56.072,54.559,56.149,54.367,56.149z M66.005,63.976c-2.11,2.111-8.825,2.231-9.585,2.239c-0.001,0-0.004,0-0.006,0
	c-0.189,0-0.374-0.076-0.508-0.21c-0.135-0.136-0.21-0.321-0.21-0.515c0.008-0.759,0.129-7.476,2.24-9.585
	c2.108-2.111,8.826-2.231,9.585-2.239c0.184-0.003,0.377,0.074,0.514,0.211c0.135,0.136,0.211,0.319,0.211,0.514
	C68.237,55.149,68.117,61.865,66.005,63.976z"/>
</svg>
