<?xml version="1.0" encoding="utf-8"?>
<!-- Generator: Adobe Illustrator 16.0.0, SVG Export Plug-In . SVG Version: 6.00 Build 0)  -->
<!DOCTYPE svg PUBLIC "-//W3C//DTD SVG 1.1//EN" "http://www.w3.org/Graphics/SVG/1.1/DTD/svg11.dtd">
<svg version="1.1" id="Layer_1" xmlns="http://www.w3.org/2000/svg" xmlns:xlink="http://www.w3.org/1999/xlink" x="0px" y="0px"
	 width="100px" height="100px" viewBox="0 0 100 100" enable-background="new 0 0 100 100" xml:space="preserve">
<path d="M71.636,45.232c-4.846-4.844-11.286-7.514-18.138-7.514s-13.293,2.668-18.137,7.513c-1.776,1.775-3.28,3.82-4.483,6.094
	c1.167,2.111,2.605,4.026,4.284,5.705c4.845,4.844,11.285,7.514,18.137,7.514s13.294-2.67,18.138-7.514
	c1.776-1.774,3.28-3.819,4.483-6.092C74.752,48.828,73.314,46.911,71.636,45.232z M64.083,53.299h-2.734v2.188h-4.336v-2.188h-1.445
	v2.188H51.23v-2.188h-1.446v2.168h-4.336v-2.168h-2.733v-4.337h2.733v-2.168h4.336v2.168h1.446v-2.147h4.337v2.147h1.445v-2.147
	h4.336v2.147h2.734V53.299z"/>
</svg>
