<?xml version="1.0" encoding="utf-8"?>
<!-- Generator: Adobe Illustrator 16.0.0, SVG Export Plug-In . SVG Version: 6.00 Build 0)  -->
<!DOCTYPE svg PUBLIC "-//W3C//DTD SVG 1.1//EN" "http://www.w3.org/Graphics/SVG/1.1/DTD/svg11.dtd">
<svg version="1.1" id="Layer_1" xmlns="http://www.w3.org/2000/svg" xmlns:xlink="http://www.w3.org/1999/xlink" x="0px" y="0px"
	 width="100px" height="100px" viewBox="0 0 100 100" enable-background="new 0 0 100 100" xml:space="preserve">
<path d="M50.8,28.771c-0.508-0.229-1.088-0.229-1.598,0c-1.71,0.765-16.709,7.757-16.709,17.336v27.502
	c0,1.08,0.877,1.955,1.955,1.955h8.547v4.392c0,1.08,0.873,1.954,1.953,1.954h10.107c1.078,0,1.954-0.875,1.954-1.954v-4.392h8.544
	c1.08,0,1.953-0.875,1.953-1.955V46.107C67.507,36.528,52.509,29.536,50.8,28.771z M53.102,78.001h-6.198v-2.438h6.198V78.001z"/>
</svg>
