<?xml version="1.0" encoding="utf-8"?>
<!-- Generator: Adobe Illustrator 16.0.0, SVG Export Plug-In . SVG Version: 6.00 Build 0)  -->
<!DOCTYPE svg PUBLIC "-//W3C//DTD SVG 1.1//EN" "http://www.w3.org/Graphics/SVG/1.1/DTD/svg11.dtd">
<svg version="1.1" id="Layer_1" xmlns="http://www.w3.org/2000/svg" xmlns:xlink="http://www.w3.org/1999/xlink" x="0px" y="0px"
	 width="100px" height="100px" viewBox="0 0 100 100" enable-background="new 0 0 100 100" xml:space="preserve">
<path stroke="#000000" stroke-miterlimit="10" d="M53.894,22.586c-15.472,0-28.06,12.588-28.06,28.06
	c0,15.473,12.588,28.061,28.06,28.061s28.061-12.588,28.061-28.061C81.955,35.174,69.365,22.586,53.894,22.586z M61.609,56.656
	c0,1.027-0.467,1.97-1.212,2.432c-0.742,0.467-1.635,0.38-2.309-0.226l-5.081-4.556c-0.232,0.105-0.485,0.169-0.757,0.169h-4.256
	c-1.001,0-1.817-0.813-1.817-1.817v-4.255c0-1.004,0.815-1.817,1.817-1.817h4.256c0.336,0,0.647,0.098,0.919,0.258l4.919-4.417
	c0.386-0.347,0.844-0.521,1.305-0.521c0.344,0,0.686,0.099,1.003,0.296c0.745,0.469,1.212,1.407,1.212,2.434V56.656z"/>
</svg>
