<?xml version="1.0" encoding="utf-8"?>
<!-- Generator: Adobe Illustrator 16.0.0, SVG Export Plug-In . SVG Version: 6.00 Build 0)  -->
<!DOCTYPE svg PUBLIC "-//W3C//DTD SVG 1.1//EN" "http://www.w3.org/Graphics/SVG/1.1/DTD/svg11.dtd">
<svg version="1.1" id="Layer_1" xmlns="http://www.w3.org/2000/svg" xmlns:xlink="http://www.w3.org/1999/xlink" x="0px" y="0px"
	 width="100px" height="100px" viewBox="0 0 100 100" enable-background="new 0 0 100 100" xml:space="preserve">
<g>
	<path d="M64.217,63.962H40.846v-6.757c0.711,0.714,1.688,1.121,2.698,1.121c0.967,0,1.889-0.363,2.595-1.021
		c1.535-1.43,1.621-3.844,0.191-5.381l-6.513-6.994l-0.203-0.202l-0.071-0.041c-0.224-0.197-0.467-0.366-0.724-0.504l-0.143-0.09
		l-0.138-0.06c-0.375-0.161-0.778-0.254-1.231-0.286l-0.104-0.006c0,0-0.211,0.004-0.297,0.011c-0.313,0.01-0.623,0.059-0.91,0.142
		c-0.149,0.042-0.289,0.088-0.422,0.144c-0.313,0.13-0.6,0.295-0.861,0.497l-0.111,0.054l-0.174,0.174l-7.244,6.905
		c-1.517,1.448-1.574,3.863-0.127,5.384c0.717,0.748,1.72,1.178,2.756,1.178c0.98,0,1.914-0.372,2.627-1.051l0.793-0.756v11.346
		c0,2.1,1.708,3.808,3.807,3.808h27.178c2.1,0,3.807-1.708,3.807-3.808C68.023,65.67,66.316,63.962,64.217,63.962z M64.217,69.938
		H37.039c-1.197,0-2.168-0.972-2.168-2.169V52.595l-3.563,3.398c-0.867,0.824-2.238,0.793-3.066-0.074
		c-0.825-0.866-0.793-2.238,0.074-3.065l7.227-6.89c0.004-0.003,0.009-0.006,0.014-0.009c0.002-0.003,0.002-0.005,0.005-0.008
		c0.015-0.013,0.032-0.016,0.047-0.028c0.181-0.16,0.382-0.278,0.599-0.369c0.076-0.032,0.152-0.055,0.232-0.077
		c0.171-0.05,0.344-0.076,0.52-0.082c0.079-0.003,0.152-0.014,0.23-0.009c0.238,0.018,0.477,0.062,0.704,0.158
		c0.005,0.003,0.009,0.006,0.015,0.009c0.031,0.015,0.057,0.04,0.088,0.055c0.208,0.104,0.389,0.236,0.549,0.395
		c0.025,0.023,0.057,0.032,0.081,0.058l6.505,6.985c0.815,0.877,0.768,2.249-0.109,3.064c-0.418,0.39-0.948,0.582-1.478,0.582
		c-0.58,0-1.161-0.231-1.587-0.69l-2.75-2.953v12.557h25.01c1.197,0,2.168,0.972,2.168,2.168
		C66.385,68.966,65.414,69.938,64.217,69.938z"/>
	<path d="M74.197,50.17c-0.713-0.748-1.719-1.177-2.754-1.177c-0.98,0-1.912,0.371-2.627,1.05l-0.793,0.755V39.452
		c0-2.099-1.707-3.807-3.807-3.807H37.039c-2.099,0-3.807,1.708-3.807,3.807c0,2.1,1.708,3.807,3.807,3.807H60.41v6.758
		c-0.71-0.715-1.686-1.121-2.697-1.121c-0.966,0-1.887,0.363-2.595,1.021c-1.536,1.43-1.622,3.844-0.192,5.381l6.506,6.987
		c0.076,0.082,0.16,0.155,0.213,0.196c0.068,0.062,0.135,0.121,0.225,0.194c0.674,0.529,1.508,0.82,2.348,0.82
		c0.477,0,0.945-0.089,1.389-0.264c0.256-0.101,0.438-0.232,0.574-0.324c0.1-0.052,0.244-0.129,0.417-0.259l0.069-0.034l7.406-7.061
		C75.59,54.105,75.647,51.69,74.197,50.17z M72.94,54.368l-7.228,6.89c-0.002,0.003-0.008,0.004-0.012,0.007
		c-0.002,0.003-0.004,0.007-0.006,0.01c-0.121,0.111-0.265,0.171-0.4,0.25c-0.098,0.058-0.184,0.14-0.287,0.181
		c-0.254,0.101-0.522,0.151-0.791,0.151c-0.475,0-0.944-0.164-1.334-0.471c-0.043-0.035-0.083-0.07-0.123-0.107
		c-0.042-0.039-0.09-0.07-0.129-0.112l-6.505-6.985c-0.815-0.877-0.768-2.249,0.108-3.064c0.877-0.816,2.25-0.769,3.064,0.108
		l2.75,2.953V41.62h-25.01c-1.197,0-2.168-0.971-2.168-2.168c0-1.196,0.971-2.168,2.168-2.168h27.178
		c1.197,0,2.168,0.972,2.168,2.168v15.174l3.563-3.397c0.869-0.824,2.239-0.792,3.066,0.073
		C73.84,52.169,73.807,53.541,72.94,54.368z"/>
</g>
</svg>
