<?xml version="1.0" encoding="utf-8"?>
<!-- Generator: Adobe Illustrator 16.0.0, SVG Export Plug-In . SVG Version: 6.00 Build 0)  -->
<!DOCTYPE svg PUBLIC "-//W3C//DTD SVG 1.1//EN" "http://www.w3.org/Graphics/SVG/1.1/DTD/svg11.dtd">
<svg version="1.1" id="Layer_1" xmlns="http://www.w3.org/2000/svg" xmlns:xlink="http://www.w3.org/1999/xlink" x="0px" y="0px"
	 width="100px" height="100px" viewBox="0 0 100 100" enable-background="new 0 0 100 100" xml:space="preserve">
<g>
	<path d="M78.037,52.919h-6.688l-2.289-15.77h1.465c2.082,0,3.777-1.693,3.777-3.775c0-2.083-1.695-3.776-3.777-3.776h-33.19
		c-2.082,0-3.775,1.693-3.775,3.776c0,2.082,1.693,3.775,3.775,3.775h2.465l-2.731,15.77h-7.246c-2.082,0-3.776,1.694-3.776,3.776
		s1.694,3.776,3.776,3.776h5.939l-2.148,12.399c-0.354,2.054,1.027,4.012,3.064,4.36c0.221,0.041,0.44,0.06,0.66,0.06
		c1.842,0,3.404-1.317,3.719-3.132l2.369-13.688h21.387l1.975,13.586c0.268,1.843,1.874,3.233,3.735,3.233
		c0.182,0,0.364-0.013,0.546-0.039c2.061-0.3,3.494-2.22,3.193-4.28l-1.815-12.5h5.592c2.082,0,3.776-1.694,3.776-3.776
		S80.119,52.919,78.037,52.919z M78.037,58.847h-7.471l2.086,14.358c0.171,1.176-0.644,2.267-1.818,2.438
		c-0.105,0.015-0.208,0.021-0.313,0.021c-1.05,0-1.971-0.771-2.125-1.842L66.22,58.847H42.057l-2.604,15.034
		c-0.181,1.046-1.091,1.784-2.116,1.784c-0.123,0-0.246-0.009-0.369-0.032c-1.171-0.202-1.955-1.315-1.754-2.485l2.479-14.301
		h-7.871c-1.188,0-2.15-0.964-2.15-2.151s0.962-2.15,2.15-2.15h8.615l3.295-19.021h-4.397c-1.188,0-2.15-0.964-2.15-2.15
		c0-1.188,0.962-2.151,2.15-2.151h6.876c0.011,0,0.022,0,0.034,0h26.28c1.187,0,2.15,0.964,2.15,2.151c0,1.187-0.964,2.15-2.15,2.15
		H67.18l2.762,19.021h8.096c1.188,0,2.15,0.963,2.15,2.15S79.226,58.847,78.037,58.847z"/>
	<path d="M46.098,35.524l-3.296,19.021h22.793l-2.763-19.021H46.098z M44.734,52.919l2.73-15.77h13.961l2.29,15.77H44.734z"/>
</g>
</svg>
