<?xml version="1.0" encoding="utf-8"?>
<!-- Generator: Adobe Illustrator 16.0.0, SVG Export Plug-In . SVG Version: 6.00 Build 0)  -->
<!DOCTYPE svg PUBLIC "-//W3C//DTD SVG 1.1//EN" "http://www.w3.org/Graphics/SVG/1.1/DTD/svg11.dtd">
<svg version="1.1" id="Layer_1" xmlns="http://www.w3.org/2000/svg" xmlns:xlink="http://www.w3.org/1999/xlink" x="0px" y="0px"
	 width="100px" height="100px" viewBox="0 0 100 100" enable-background="new 0 0 100 100" xml:space="preserve">
<g>
	<path d="M33.395,56.466V33.853c0.479-1.459,1.507-2.656,2.854-3.35c-0.793-0.408-1.68-0.66-2.631-0.66H33.05
		c1.727-2.012,2.779-4.617,2.779-7.471c0-6.33-5.15-11.48-11.481-11.48c-6.33,0-11.479,5.15-11.479,11.48
		c0,2.854,1.051,5.459,2.781,7.471h-0.57c-3.196,0-5.794,2.6-5.794,5.797v19.043c0,3.197,2.599,5.797,5.794,5.797h0.223v20.826
		c0,3.307,1.739,5.797,4.047,5.797h9.998c2.308,0,4.05-2.49,4.05-5.797V60.479h0.22c0.951,0,1.837-0.254,2.631-0.662
		C34.902,59.122,33.873,57.927,33.395,56.466z"/>
	<path d="M86.832,29.843h-0.57c1.729-2.012,2.781-4.617,2.781-7.471c0-6.33-5.149-11.48-11.479-11.48
		c-6.331,0-11.481,5.15-11.481,11.48c0,2.854,1.053,5.459,2.781,7.471h-0.569c-1.006,0-1.939,0.279-2.765,0.732
		c1.286,0.707,2.263,1.873,2.723,3.285c0.014,0,0.027-0.008,0.042-0.008v22.613c-0.016,0-0.028-0.008-0.042-0.008
		c-0.46,1.414-1.437,2.582-2.723,3.287c0.826,0.451,1.759,0.734,2.765,0.734h0.22v20.826c0,3.307,1.742,5.797,4.05,5.797h9.998
		c2.308,0,4.048-2.49,4.048-5.797V60.479h0.222c3.196,0,5.794-2.6,5.794-5.797V35.64C92.626,32.442,90.028,29.843,86.832,29.843z"/>
	<path d="M65.885,54.683V35.64c0-0.625-0.123-1.215-0.306-1.779c-0.46-1.412-1.438-2.578-2.723-3.285
		c-0.826-0.453-1.76-0.732-2.765-0.732h-0.569c1.729-2.012,2.781-4.617,2.781-7.471c0-6.33-5.151-11.48-11.48-11.48
		c-6.33,0-11.481,5.15-11.481,11.48c0,2.854,1.053,5.459,2.781,7.471h-0.567c-0.953,0-1.838,0.252-2.631,0.66
		c-1.349,0.693-2.377,1.891-2.854,3.35c-0.187,0.566-0.311,1.158-0.311,1.787v19.043c0,0.625,0.124,1.219,0.311,1.783
		c0.477,1.461,1.505,2.656,2.854,3.352c0.793,0.408,1.678,0.662,2.631,0.662h0.22v20.826c0,3.307,1.742,5.797,4.05,5.797h9.997
		c2.308,0,4.048-2.49,4.048-5.797V60.479h0.222c1.005,0,1.939-0.283,2.765-0.734c1.284-0.705,2.263-1.873,2.723-3.287
		C65.762,55.894,65.885,55.308,65.885,54.683z"/>
</g>
</svg>
