<?xml version="1.0" encoding="utf-8"?>
<!-- Generator: Adobe Illustrator 16.0.0, SVG Export Plug-In . SVG Version: 6.00 Build 0)  -->
<!DOCTYPE svg PUBLIC "-//W3C//DTD SVG 1.1//EN" "http://www.w3.org/Graphics/SVG/1.1/DTD/svg11.dtd">
<svg version="1.1" id="Layer_1" xmlns="http://www.w3.org/2000/svg" xmlns:xlink="http://www.w3.org/1999/xlink" x="0px" y="0px"
	 width="100px" height="100px" viewBox="0 0 100 100" enable-background="new 0 0 100 100" xml:space="preserve">
<path d="M76.344,41.135l-5.232-2.59v-5.84c0-1.583-1.285-2.868-2.868-2.868H53.521l-13.193-6.531
	c-0.681-0.339-1.47-0.39-2.189-0.146c-0.72,0.243-1.313,0.763-1.653,1.443l-2.59,5.233h-5.838c-1.584,0-2.867,1.285-2.867,2.868
	v14.721l-6.531,13.195c-0.338,0.682-0.391,1.47-0.147,2.189c0.243,0.722,0.763,1.316,1.444,1.653l5.234,2.59v5.84
	c0,1.583,1.283,2.868,2.867,2.868H42.78l13.191,6.529c0.408,0.203,0.843,0.299,1.271,0.299c1.057,0,2.071-0.586,2.571-1.595
	l2.591-5.233h5.839c1.583,0,2.868-1.285,2.868-2.868V58.172l6.531-13.194C78.345,43.558,77.762,41.837,76.344,41.135z
	 M30.925,35.573h0.132l-0.132,0.265V35.573z M30.925,70.025v-0.133l0.268,0.133H30.925z M50.799,47.816
	c-1.98,0-3.584-1.604-3.584-3.584s1.604-3.584,3.584-3.584c1.979,0,3.584,1.604,3.584,3.584S52.778,47.816,50.799,47.816z
	 M65.376,70.025h-0.132l0.132-0.266V70.025z M65.376,35.707l-0.268-0.134h0.268V35.707z"/>
</svg>
