<?xml version="1.0" encoding="utf-8"?>
<!-- Generator: Adobe Illustrator 16.0.0, SVG Export Plug-In . SVG Version: 6.00 Build 0)  -->
<!DOCTYPE svg PUBLIC "-//W3C//DTD SVG 1.1//EN" "http://www.w3.org/Graphics/SVG/1.1/DTD/svg11.dtd">
<svg version="1.1" id="Layer_1" xmlns="http://www.w3.org/2000/svg" xmlns:xlink="http://www.w3.org/1999/xlink" x="0px" y="0px"
	 width="100px" height="100px" viewBox="0 0 100 100" enable-background="new 0 0 100 100" xml:space="preserve">
<path d="M75.255,29.838H34.608c-1.188,0-2.151,0.963-2.151,2.15v40.645c0,1.188,0.964,2.152,2.151,2.152h40.646
	c1.188,0,2.15-0.964,2.15-2.152V31.989C77.405,30.802,76.442,29.838,75.255,29.838z M45.426,67.408H39.48v-5.946h5.945V67.408z
	 M45.426,55.937H39.48v-5.946h5.945V55.937z M45.426,44.465H39.48V38.52h5.945V44.465z M66.556,65.869H50.52
	c-0.792,0-1.435-0.642-1.435-1.434c0-0.793,0.643-1.434,1.435-1.434h16.036c0.793,0,1.435,0.641,1.435,1.434
	C67.99,65.227,67.349,65.869,66.556,65.869z M66.556,54.398H50.52c-0.792,0-1.435-0.642-1.435-1.434s0.643-1.434,1.435-1.434h16.036
	c0.793,0,1.435,0.642,1.435,1.434S67.349,54.398,66.556,54.398z M67.42,42.926H51.384c-0.793,0-1.434-0.641-1.434-1.434
	c0-0.792,0.641-1.434,1.434-1.434H67.42c0.792,0,1.435,0.642,1.435,1.434C68.854,42.286,68.212,42.926,67.42,42.926z"/>
</svg>
