<?xml version="1.0" encoding="utf-8"?>
<!-- Generator: Adobe Illustrator 16.0.0, SVG Export Plug-In . SVG Version: 6.00 Build 0)  -->
<!DOCTYPE svg PUBLIC "-//W3C//DTD SVG 1.1//EN" "http://www.w3.org/Graphics/SVG/1.1/DTD/svg11.dtd">
<svg version="1.1" id="Layer_1" xmlns="http://www.w3.org/2000/svg" xmlns:xlink="http://www.w3.org/1999/xlink" x="0px" y="0px"
	 width="100px" height="100px" viewBox="0 0 100 100" enable-background="new 0 0 100 100" xml:space="preserve">
<path d="M90.18,49.68l-7.188-4.313l7.205-4.407c0.72-0.438,1.16-1.219,1.164-2.063c0.004-0.843-0.429-1.627-1.144-2.074
	L70.868,24.73c-0.776-0.483-1.758-0.492-2.54-0.022l-9.632,5.78l-9.632-5.78c-0.784-0.47-1.765-0.461-2.54,0.022L27.176,36.822
	c-0.715,0.447-1.147,1.231-1.144,2.074c0.004,0.844,0.445,1.624,1.164,2.063l7.205,4.407l-7.188,4.313
	c-0.73,0.438-1.178,1.225-1.182,2.074c-0.004,0.852,0.438,1.643,1.164,2.086l9.407,5.754v6.92c0,0.825,0.418,1.595,1.11,2.043
	l19.661,12.722c0.026,0.018,0.058,0.022,0.085,0.038c0.026,0.016,0.047,0.041,0.074,0.056c0.102,0.056,0.211,0.084,0.316,0.123
	c0.07,0.027,0.135,0.062,0.205,0.081c0.211,0.057,0.426,0.092,0.641,0.092s0.43-0.035,0.641-0.092
	c0.07-0.02,0.135-0.054,0.205-0.081c0.105-0.039,0.215-0.067,0.316-0.123c0.027-0.015,0.048-0.04,0.074-0.056
	c0.027-0.016,0.059-0.021,0.085-0.038l19.661-12.722c0.692-0.448,1.11-1.218,1.11-2.043v-6.92l9.407-5.754
	c0.727-0.443,1.168-1.234,1.164-2.086C91.356,50.904,90.909,50.117,90.18,49.68z M56.265,74.766L41.468,65.19v-2.621l5.389,3.297
	c0.39,0.239,0.829,0.358,1.27,0.358c0.439,0,0.879-0.119,1.27-0.358l6.869-4.201V74.766z M58.696,54.41l-3.596-2.2l-11.188-6.991
	l6.243-3.819l8.541-5.126l8.541,5.126l6.243,3.819L62.292,52.21L58.696,54.41z M75.925,65.19l-14.797,9.575V61.665l6.87,4.201
	c0.39,0.239,0.829,0.358,1.269,0.358c0.44,0,0.88-0.119,1.27-0.358l5.389-3.297V65.19z"/>
</svg>
