<?xml version="1.0" encoding="utf-8"?>
<!-- Generator: Adobe Illustrator 16.0.0, SVG Export Plug-In . SVG Version: 6.00 Build 0)  -->
<!DOCTYPE svg PUBLIC "-//W3C//DTD SVG 1.1//EN" "http://www.w3.org/Graphics/SVG/1.1/DTD/svg11.dtd">
<svg version="1.1" id="Layer_1" xmlns="http://www.w3.org/2000/svg" xmlns:xlink="http://www.w3.org/1999/xlink" x="0px" y="0px"
	 width="100px" height="100px" viewBox="0 0 100 100" enable-background="new 0 0 100 100" xml:space="preserve">
<g>
	<path d="M64.096,49.055c1.308-0.488,2.449-1.274,3.133-2.155c0.523-0.676,0.724-1.332,0.549-1.801
		c-0.245-0.655-1.306-1.096-2.64-1.096c-0.873,0-1.818,0.181-2.734,0.522c-1.307,0.488-2.449,1.273-3.133,2.155
		c-0.523,0.676-0.725,1.332-0.549,1.801c0.244,0.655,1.305,1.096,2.64,1.096C62.233,49.578,63.18,49.397,64.096,49.055z"/>
	<path d="M41.873,38.651c-1.142,0-2.417,2.066-2.417,4.833s1.275,4.834,2.417,4.834s2.417-2.067,2.417-4.834
		S43.015,38.651,41.873,38.651z"/>
	<path d="M54.21,33.517c-0.076-0.019-0.152-0.027-0.232-0.027c-1.082,0-2.635,1.587-3.26,4.151c-0.33,1.356-0.321,2.743,0.024,3.804
		c0.265,0.813,0.696,1.348,1.182,1.466c1.097,0.271,2.821-1.37,3.491-4.125C56.069,36.097,55.319,33.788,54.21,33.517z"/>
	<path d="M80.192,49.447C76.026,34.56,63.546,24.163,49.842,24.163c-2.394,0-4.778,0.328-7.086,0.974
		c-15.664,4.384-24.358,22.423-19.38,40.211c1.613,5.767,3.622,12.943,9.151,15.839c0.864,0.452,1.81,0.682,2.808,0.682
		c1.718,0,3.565-0.703,5.07-1.931c3.313-2.703,3.611-7.527,3.875-11.783c0.252-4.081,0.52-6.579,2.104-6.858
		c0.074-0.014,0.148-0.02,0.223-0.02c1.844,0,4.91,3.291,7.614,6.194c4.267,4.58,9.184,9.795,14.415,9.17
		c5.219-0.627,8.882-2.392,10.888-5.245C83.841,65.251,82.149,56.439,80.192,49.447z M34.483,73.093
		c-3.491,0-6.332-2.841-6.332-6.332s2.841-6.332,6.332-6.332c3.492,0,6.332,2.841,6.332,6.332S37.976,73.093,34.483,73.093z
		 M41.873,51.318c-3.038,0-5.417-3.441-5.417-7.834s2.379-7.833,5.417-7.833s5.417,3.44,5.417,7.833S44.911,51.318,41.873,51.318z
		 M52.157,45.938c-0.318,0-0.636-0.038-0.943-0.113c-1.518-0.369-2.729-1.627-3.324-3.45c-0.521-1.599-0.552-3.532-0.086-5.442
		c0.923-3.793,3.461-6.442,6.174-6.442c0.317,0,0.635,0.038,0.942,0.113c2.951,0.718,4.449,4.624,3.411,8.892
		C57.407,43.289,54.868,45.938,52.157,45.938z M55.911,49.531c-0.547-1.463-0.187-3.172,0.988-4.688
		c1.031-1.33,2.613-2.44,4.455-3.128c1.248-0.466,2.557-0.712,3.783-0.712c2.7,0,4.738,1.139,5.45,3.047
		c0.546,1.463,0.187,3.172-0.989,4.688c-1.029,1.329-2.611,2.439-4.453,3.128c-1.249,0.466-2.557,0.712-3.784,0.712
		C58.66,52.578,56.622,51.439,55.911,49.531z M76.378,59.26c-0.434,2.493-3.113,4.168-6.671,4.168c-0.651,0-1.315-0.058-1.976-0.173
		c-4.328-0.754-7.31-3.688-6.789-6.681c0.434-2.492,3.115-4.166,6.672-4.166c0.65,0,1.316,0.058,1.976,0.173
		C73.917,53.334,76.898,56.268,76.378,59.26z"/>
	<path d="M69.075,55.537c-0.49-0.085-0.982-0.128-1.461-0.128c-2.143,0-3.572,0.854-3.716,1.681
		c-0.196,1.124,1.622,2.735,4.349,3.211c0.49,0.085,0.98,0.128,1.46,0.128c2.143,0,3.571-0.854,3.716-1.682
		C73.618,57.623,71.8,56.011,69.075,55.537z"/>
	<path d="M34.483,63.429c-1.837,0-3.332,1.495-3.332,3.332s1.495,3.332,3.332,3.332c1.838,0,3.332-1.495,3.332-3.332
		S36.321,63.429,34.483,63.429z"/>
</g>
</svg>
