<?xml version="1.0" encoding="utf-8"?>
<!-- Generator: Adobe Illustrator 16.0.0, SVG Export Plug-In . SVG Version: 6.00 Build 0)  -->
<!DOCTYPE svg PUBLIC "-//W3C//DTD SVG 1.1//EN" "http://www.w3.org/Graphics/SVG/1.1/DTD/svg11.dtd">
<svg version="1.1" id="Layer_1" xmlns="http://www.w3.org/2000/svg" xmlns:xlink="http://www.w3.org/1999/xlink" x="0px" y="0px"
	 width="100px" height="100px" viewBox="0 0 100 100" enable-background="new 0 0 100 100" xml:space="preserve">
<g>
	<path d="M85.998,40.902h-3.536c-0.395-4.259-2.08-8.148-4.67-11.268l2.504-2.502c0.752-0.752,0.752-1.967,0-2.723
		c-0.753-0.75-1.972-0.75-2.723,0l-2.503,2.502c-3.119-2.588-7.007-4.274-11.267-4.669v-3.534c0-1.061-0.861-1.926-1.926-1.926
		c-1.063,0-1.926,0.865-1.926,1.926v3.534c-4.258,0.395-8.146,2.081-11.264,4.669l-2.502-2.502c-0.751-0.75-1.973-0.75-2.723,0
		c-0.752,0.756-0.752,1.971,0,2.723l2.504,2.502c-2.59,3.119-4.277,7.009-4.673,11.268h-3.534c-1.063,0-1.924,0.862-1.924,1.926
		c0,1.063,0.861,1.928,1.924,1.928h1.338c-2.459,0.66-4.71,1.836-6.615,3.418l-2.115-2.115c-0.638-0.634-1.669-0.634-2.305,0
		c-0.637,0.637-0.637,1.666,0,2.303l2.119,2.117c-2.191,2.637-3.618,5.928-3.953,9.531h-2.99c-0.9,0-1.628,0.729-1.628,1.63
		c0,0.898,0.728,1.629,1.628,1.629h2.99c0.335,3.602,1.762,6.894,3.953,9.529l-2.119,2.116c-0.635,0.638-0.635,1.668,0,2.305
		c0.318,0.317,0.736,0.477,1.151,0.477c0.417,0,0.833-0.159,1.153-0.477l2.117-2.117c2.637,2.19,5.927,3.616,9.528,3.951v2.989
		c0,0.899,0.73,1.629,1.63,1.629s1.629-0.729,1.629-1.629v-2.989c3.603-0.335,6.893-1.761,9.531-3.951l2.115,2.117
		c0.319,0.317,0.737,0.477,1.152,0.477c0.418,0,0.832-0.159,1.152-0.477c0.636-0.637,0.636-1.667,0-2.305l-2.117-2.116
		c1.275-1.537,2.282-3.302,2.977-5.215c0.264,0.745,0.959,1.287,1.795,1.287c1.064,0,1.926-0.863,1.926-1.925V63.41
		c4.26-0.393,8.147-2.079,11.267-4.668l2.503,2.502c0.375,0.373,0.868,0.563,1.361,0.563c0.491,0,0.984-0.189,1.361-0.563
		c0.752-0.756,0.752-1.972,0-2.725l-2.504-2.501c2.59-3.119,4.275-7.009,4.67-11.263h3.536c1.063,0,1.925-0.865,1.925-1.928
		C87.923,41.765,87.062,40.902,85.998,40.902z M43.644,67.353c-3.152,0-5.715-2.564-5.715-5.713c0-3.151,2.563-5.714,5.715-5.714
		c0.717,0,1.395,0.146,2.029,0.389l-2.209,2.205c-0.752,0.753-0.752,1.969,0,2.725c0.377,0.373,0.87,0.563,1.361,0.563
		c0.492,0,0.984-0.189,1.361-0.563l2.406-2.406c0.473,0.83,0.764,1.777,0.764,2.802C49.356,64.788,46.794,67.353,43.644,67.353z
		 M61.878,49.583c-1.119,0-2.158-0.302-3.091-0.786c-0.981-0.512-1.835-1.236-2.464-2.144c-0.752-1.09-1.197-2.405-1.197-3.825
		c0-3.723,3.028-6.754,6.752-6.754c3.727,0,6.755,3.031,6.755,6.754C68.633,46.55,65.604,49.583,61.878,49.583z"/>
</g>
</svg>
