<?xml version="1.0" encoding="utf-8"?>
<!-- Generator: Adobe Illustrator 16.0.0, SVG Export Plug-In . SVG Version: 6.00 Build 0)  -->
<!DOCTYPE svg PUBLIC "-//W3C//DTD SVG 1.1//EN" "http://www.w3.org/Graphics/SVG/1.1/DTD/svg11.dtd">
<svg version="1.1" id="Layer_1" xmlns="http://www.w3.org/2000/svg" xmlns:xlink="http://www.w3.org/1999/xlink" x="0px" y="0px"
	 width="100px" height="100px" viewBox="0 0 100 100" enable-background="new 0 0 100 100" xml:space="preserve">
<g>
	<path d="M67.218,46.841c0,0.664-0.02,1.307-0.053,1.933H53.304v-15.69c3.642,1.587,7.796,2.74,12.271,3.384
		C66.654,39.689,67.218,43.245,67.218,46.841z"/>
	<path d="M36.292,36.467c4.478-0.644,8.633-1.797,12.271-3.384v15.69H34.697c-0.03-0.626-0.048-1.269-0.048-1.933
		C34.649,43.245,35.215,39.689,36.292,36.467z"/>
	<path d="M35.242,53.514h13.322V69.98C44.575,68.589,37.351,64.58,35.242,53.514z"/>
	<path d="M53.304,69.825V53.514h13.266C64.401,63.97,57.315,68.226,53.304,69.825z"/>
</g>
</svg>
