<?xml version="1.0" encoding="utf-8"?>
<!-- Generator: Adobe Illustrator 16.0.0, SVG Export Plug-In . SVG Version: 6.00 Build 0)  -->
<!DOCTYPE svg PUBLIC "-//W3C//DTD SVG 1.1//EN" "http://www.w3.org/Graphics/SVG/1.1/DTD/svg11.dtd">
<svg version="1.1" id="Layer_1" xmlns="http://www.w3.org/2000/svg" xmlns:xlink="http://www.w3.org/1999/xlink" x="0px" y="0px"
	 width="100px" height="100px" viewBox="0 0 100 100" enable-background="new 0 0 100 100" xml:space="preserve">
<g>
	<path d="M77.155,33.752h-9.488l-0.96-4.563c-0.229-1.085-1.186-1.862-2.294-1.862H45.601c-1.108,0-2.065,0.777-2.294,1.862
		l-0.96,4.563h-9.488c-3.309,0-5.899,2.108-5.899,4.802v30.61c0,2.693,2.591,4.802,5.899,4.802h44.297
		c3.309,0,5.899-2.108,5.899-4.802v-30.61C83.055,35.86,80.464,33.752,77.155,33.752z M55.007,65.027
		c-6.252,0-11.337-5.085-11.337-11.336s5.085-11.336,11.337-11.336c6.25,0,11.334,5.085,11.334,11.336S61.258,65.027,55.007,65.027z
		"/>
	<path d="M55.007,47.045c-3.666,0-6.647,2.982-6.647,6.646s2.982,6.646,6.647,6.646c3.664,0,6.644-2.982,6.644-6.646
		S58.671,47.045,55.007,47.045z"/>
</g>
</svg>
