<?xml version="1.0" encoding="utf-8"?>
<!-- Generator: Adobe Illustrator 16.0.0, SVG Export Plug-In . SVG Version: 6.00 Build 0)  -->
<!DOCTYPE svg PUBLIC "-//W3C//DTD SVG 1.1//EN" "http://www.w3.org/Graphics/SVG/1.1/DTD/svg11.dtd">
<svg version="1.1" id="Layer_1" xmlns="http://www.w3.org/2000/svg" xmlns:xlink="http://www.w3.org/1999/xlink" x="0px" y="0px"
	 width="100px" height="100px" viewBox="0 0 100 100" enable-background="new 0 0 100 100" xml:space="preserve">
<path d="M53.334,22.376c-15.357,0-27.852,12.494-27.852,27.852s12.494,27.851,27.852,27.851s27.852-12.493,27.852-27.851
	S68.691,22.376,53.334,22.376z M61.857,43.588c-1.238,0-2.244-1.005-2.244-2.244c0-1.961-1.594-3.554-3.553-3.554
	s-3.553,1.593-3.553,3.554v17.401l1.49-1.773c0.795-0.95,2.211-1.072,3.162-0.277c0.947,0.797,1.072,2.211,0.273,3.161l-5.453,6.496
	c-0.018,0.023-0.041,0.038-0.059,0.058c-0.066,0.074-0.137,0.141-0.213,0.202c-0.043,0.038-0.086,0.076-0.131,0.111
	c-0.084,0.058-0.172,0.11-0.264,0.157c-0.047,0.027-0.088,0.053-0.135,0.076c-0.105,0.047-0.215,0.079-0.33,0.111
	c-0.037,0.009-0.074,0.026-0.113,0.035c-0.152,0.032-0.311,0.053-0.473,0.053c-0.164,0-0.322-0.021-0.475-0.053
	c-0.039-0.009-0.076-0.026-0.113-0.035c-0.113-0.032-0.225-0.064-0.328-0.111c-0.047-0.023-0.09-0.049-0.137-0.076
	c-0.09-0.047-0.178-0.1-0.264-0.157c-0.045-0.035-0.086-0.073-0.131-0.111c-0.076-0.062-0.146-0.128-0.213-0.202
	c-0.018-0.02-0.041-0.034-0.059-0.058l-5.453-6.496c-0.797-0.95-0.674-2.364,0.275-3.161c0.951-0.799,2.367-0.673,3.162,0.277
	l1.49,1.773V41.344c0-0.155,0.016-0.307,0.047-0.453c0.238-4.22,3.715-7.589,7.994-7.589c4.434,0,8.041,3.606,8.041,8.042
	C64.102,42.583,63.098,43.588,61.857,43.588z"/>
</svg>
