<?xml version="1.0" encoding="utf-8"?>
<!-- Generator: Adobe Illustrator 16.0.0, SVG Export Plug-In . SVG Version: 6.00 Build 0)  -->
<!DOCTYPE svg PUBLIC "-//W3C//DTD SVG 1.1//EN" "http://www.w3.org/Graphics/SVG/1.1/DTD/svg11.dtd">
<svg version="1.1" id="Layer_1" xmlns="http://www.w3.org/2000/svg" xmlns:xlink="http://www.w3.org/1999/xlink" x="0px" y="0px"
	 width="100px" height="100px" viewBox="0 0 100 100" enable-background="new 0 0 100 100" xml:space="preserve">
<g>
	<path d="M75.208,64.04c2.172-3.983,3.408-8.546,3.408-13.394c0-4.8-1.217-9.32-3.35-13.276c0.069-0.055,0.154-0.081,0.219-0.145
		c1.551-1.549,2.402-3.61,2.402-5.803s-0.852-4.253-2.402-5.803c-1.551-1.551-3.612-2.405-5.805-2.405s-4.254,0.854-5.803,2.405
		c-0.075,0.076-0.107,0.174-0.17,0.256c-3.926-2.093-8.4-3.289-13.15-3.289c-4.883,0-9.477,1.26-13.48,3.463
		c-0.082-0.122-0.134-0.258-0.242-0.365c-1.548-1.551-3.609-2.404-5.803-2.404c-2.194,0-4.256,0.854-5.803,2.404
		c-1.552,1.55-2.405,3.612-2.405,5.803c0,2.192,0.854,4.253,2.405,5.803c0.146,0.146,0.324,0.23,0.497,0.33
		c-2.054,3.896-3.23,8.324-3.23,13.026c0,4.814,1.222,9.348,3.366,13.312c-0.199,0.105-0.401,0.209-0.569,0.377
		c-1.55,1.55-2.403,3.611-2.403,5.803s0.854,4.253,2.403,5.803c1.552,1.551,3.612,2.404,5.805,2.404s4.253-0.854,5.805-2.404
		c0.171-0.171,0.278-0.377,0.385-0.581c3.954,2.131,8.472,3.347,13.271,3.347c4.73,0,9.186-1.188,13.099-3.264
		c0.093,0.147,0.16,0.304,0.287,0.432c1.552,1.551,3.612,2.405,5.805,2.405s4.253-0.854,5.803-2.405
		c1.55-1.549,2.405-3.612,2.405-5.803c0-2.192-0.855-4.253-2.405-5.803C75.448,64.166,75.32,64.119,75.208,64.04z M72.169,28.934
		c0.664,0.664,1.029,1.548,1.029,2.487c0,0.701-0.205,1.369-0.583,1.94c-1.423-1.814-3.065-3.443-4.886-4.858
		C69.082,27.626,71.005,27.771,72.169,28.934z M28.545,29c1.212-1.211,3.233-1.306,4.589-0.31c-1.818,1.446-3.441,3.116-4.854,4.962
		c-0.488-0.617-0.766-1.367-0.766-2.165C27.515,30.548,27.881,29.664,28.545,29z M28.608,72.624
		c-0.662-0.664-1.028-1.548-1.028-2.487c0-0.849,0.313-1.644,0.86-2.282c1.439,1.843,3.097,3.498,4.941,4.933
		C32.032,73.936,29.876,73.888,28.608,72.624z M50.558,70.808c-11.118,0-20.162-9.046-20.162-20.164
		c0-11.116,9.044-20.159,20.162-20.159c11.117,0,20.161,9.042,20.161,20.159C70.719,61.762,61.675,70.808,50.558,70.808z
		 M72.233,72.559c-1.213,1.214-3.242,1.305-4.599,0.301c1.839-1.417,3.497-3.047,4.935-4.867c0.445,0.6,0.696,1.319,0.696,2.08
		C73.266,71.01,72.899,71.895,72.233,72.559z"/>
	<path d="M50.558,35.175c-8.531,0-15.473,6.939-15.473,15.469c0,8.531,6.941,15.473,15.473,15.473s15.471-6.942,15.471-15.473
		C66.028,42.114,59.089,35.175,50.558,35.175z M50.558,57.519c-3.796,0-6.874-3.077-6.874-6.874c0-3.795,3.078-6.872,6.874-6.872
		c3.795,0,6.873,3.076,6.873,6.872C57.431,54.442,54.353,57.519,50.558,57.519z"/>
</g>
</svg>
