<?xml version="1.0" encoding="utf-8"?>
<!-- Generator: Adobe Illustrator 16.0.0, SVG Export Plug-In . SVG Version: 6.00 Build 0)  -->
<!DOCTYPE svg PUBLIC "-//W3C//DTD SVG 1.1//EN" "http://www.w3.org/Graphics/SVG/1.1/DTD/svg11.dtd">
<svg version="1.1" id="Layer_1" xmlns="http://www.w3.org/2000/svg" xmlns:xlink="http://www.w3.org/1999/xlink" x="0px" y="0px"
	 width="100px" height="100px" viewBox="0 0 100 100" enable-background="new 0 0 100 100" xml:space="preserve">
<g>
	<path d="M53.932,59.023c-0.625-0.494-1.377-0.949-2.259-1.361v6.463c1.078-0.121,1.879-0.461,2.406-1.016
		c0.527-0.557,0.79-1.283,0.79-2.182C54.868,60.152,54.557,59.518,53.932,59.023z"/>
	<path d="M48.001,48.57c0,0.74,0.287,1.357,0.862,1.848c0.576,0.492,1.292,0.949,2.15,1.369v-5.988
		c-1.151,0.051-1.942,0.332-2.37,0.852C48.215,47.166,48.001,47.809,48.001,48.57z"/>
	<path d="M51.435,26.955c-15.472,0-28.06,12.59-28.06,28.063c0,15.471,12.588,28.061,28.06,28.061s28.06-12.59,28.06-28.061
		C79.494,39.545,66.906,26.955,51.435,26.955z M57.934,65.686c-1.137,1.262-2.698,2.074-4.681,2.439v3.418h-3.82v-3.195
		c-1.395-0.051-2.62-0.201-3.671-0.449c-1.054-0.25-1.874-0.537-2.461-0.859l1.434-4.199c0.44,0.27,1.058,0.525,1.854,0.77
		s1.745,0.418,2.846,0.516v-7.457c-0.758-0.342-1.511-0.721-2.258-1.139c-0.747-0.414-1.414-0.916-2.001-1.504
		s-1.06-1.289-1.414-2.111c-0.354-0.82-0.533-1.791-0.533-2.918c0-2.107,0.558-3.74,1.672-4.904c1.113-1.16,2.626-1.914,4.534-2.256
		v-3.344h3.82v3.197c1.076,0.07,2.02,0.217,2.827,0.436c0.808,0.217,1.554,0.473,2.24,0.764l-1.322,4.049
		c-0.417-0.195-0.942-0.391-1.579-0.586c-0.636-0.195-1.358-0.342-2.166-0.439v6.9c0.759,0.346,1.523,0.73,2.294,1.156
		c0.771,0.432,1.457,0.938,2.057,1.525s1.088,1.279,1.469,2.076c0.378,0.797,0.569,1.742,0.569,2.846
		C59.642,62.668,59.073,64.424,57.934,65.686z"/>
</g>
</svg>
