<?xml version="1.0" encoding="utf-8"?>
<!-- Generator: Adobe Illustrator 16.0.0, SVG Export Plug-In . SVG Version: 6.00 Build 0)  -->
<!DOCTYPE svg PUBLIC "-//W3C//DTD SVG 1.1//EN" "http://www.w3.org/Graphics/SVG/1.1/DTD/svg11.dtd">
<svg version="1.1" id="Layer_1" xmlns="http://www.w3.org/2000/svg" xmlns:xlink="http://www.w3.org/1999/xlink" x="0px" y="0px"
	 width="100px" height="100px" viewBox="0 0 100 100" enable-background="new 0 0 100 100" xml:space="preserve">
<path d="M64.21,76.545c-1.915-2.638-5.057-4.681-8.84-5.665v-3.973c2.169-3.616,4.205-7.901,4.205-11.282
	c0-6.372-3.174-11.7-7.521-12.885c0.492-1.563-0.381-2.945-0.424-3.015c-0.154-0.238-0.439-0.362-0.721-0.301
	c-0.281,0.059-0.494,0.281-0.543,0.563c-0.219,1.312-2.039,2.615-3.084,3.179c-3.813,1.782-6.374,6.785-6.374,12.459
	c0,3.411,2.073,7.74,4.265,11.376v3.863c-3.809,0.979-6.971,3.029-8.898,5.681c-7.417-4.665-12.37-12.899-12.37-22.288
	c0-14.522,11.815-26.338,26.34-26.338c14.522,0,26.337,11.815,26.337,26.338C76.582,63.646,71.626,71.88,64.21,76.545z"/>
</svg>
