<?xml version="1.0" encoding="utf-8"?>
<!-- Generator: Adobe Illustrator 16.0.0, SVG Export Plug-In . SVG Version: 6.00 Build 0)  -->
<!DOCTYPE svg PUBLIC "-//W3C//DTD SVG 1.1//EN" "http://www.w3.org/Graphics/SVG/1.1/DTD/svg11.dtd">
<svg version="1.1" id="Layer_1" xmlns="http://www.w3.org/2000/svg" xmlns:xlink="http://www.w3.org/1999/xlink" x="0px" y="0px"
	 width="100px" height="100px" viewBox="0 0 100 100" enable-background="new 0 0 100 100" xml:space="preserve">
<path d="M75.047,47.889h-5.863v-3.156c0-10.561-8.59-19.152-19.15-19.152s-19.152,8.592-19.152,19.152v3.156H25.02
	c-1.297,0-2.346,1.051-2.346,2.346v18.98c0,1.294,1.049,2.344,2.346,2.344h8.207c1.297,0,2.346-1.05,2.346-2.344v-9.082v-9.898
	v-5.502c0-7.975,6.486-14.462,14.461-14.462c7.973,0,14.461,6.487,14.461,14.462v5.502v9.898v9.082c0,1.294,1.049,2.344,2.346,2.344
	h8.207c1.295,0,2.344-1.05,2.344-2.344v-18.98C77.391,48.939,76.342,47.889,75.047,47.889z"/>
</svg>
