<?xml version="1.0" encoding="utf-8"?>
<!-- Generator: Adobe Illustrator 16.0.0, SVG Export Plug-In . SVG Version: 6.00 Build 0)  -->
<!DOCTYPE svg PUBLIC "-//W3C//DTD SVG 1.1//EN" "http://www.w3.org/Graphics/SVG/1.1/DTD/svg11.dtd">
<svg version="1.1" id="Layer_1" xmlns="http://www.w3.org/2000/svg" xmlns:xlink="http://www.w3.org/1999/xlink" x="0px" y="0px"
	 width="100px" height="100px" viewBox="0 0 100 100" enable-background="new 0 0 100 100" xml:space="preserve">
<g>
	<path fill="none" d="M54.424,39.014c0.799,0.066,1.797,0.127,2.857,0.127c4.311,0,5.59-0.941,5.877-1.23
		c2.107-2.107,2.107-5.537,0-7.645c-2.043-2.041-5.602-2.041-7.645,0c-0.832,0.832-1.176,3.08-1.219,5.498
		c0.006,0.355,0.004,0.699-0.002,1.039c0.014,0.738,0.047,1.475,0.107,2.18h0.023V39.014z"/>
	<path fill="none" d="M49.477,38.982c0.059-0.666,0.092-1.371,0.107-2.078c-0.01-0.42-0.006-0.855,0.002-1.299
		c-0.049-2.332-0.387-4.502-1.223-5.34c-1.021-1.021-2.381-1.584-3.822-1.584c-1.445,0-2.803,0.563-3.824,1.584
		c-2.105,2.107-2.105,5.537,0,7.645c0.289,0.289,1.566,1.23,5.877,1.23c1.066,0,2.061-0.061,2.857-0.127v-0.031H49.477z"/>
	<path d="M32.656,62.205v20.338c0,1.295,1.049,2.346,2.346,2.346h14.449V62.205H32.656z"/>
	<path d="M73.695,39.494h-5.84c2.477-3.902,2.021-9.145-1.381-12.545c-1.908-1.906-4.443-2.955-7.139-2.955s-5.23,1.049-7.139,2.955
		c-0.096,0.094-0.172,0.205-0.26,0.305c-0.088-0.1-0.164-0.211-0.258-0.305c-1.906-1.906-4.443-2.957-7.139-2.957
		c-2.697,0-5.232,1.051-7.139,2.957c-3.4,3.4-3.857,8.643-1.381,12.545h-5.84c-1.295,0-2.346,1.051-2.346,2.346V55.5
		c0,1.295,1.051,2.346,2.346,2.346h0.256h2.219h16.795V39.014c-0.797,0.066-1.791,0.127-2.857,0.127
		c-4.311,0-5.588-0.941-5.877-1.23c-2.105-2.107-2.105-5.537,0-7.645c1.021-1.021,2.379-1.584,3.824-1.584
		c1.441,0,2.801,0.563,3.822,1.584c0.836,0.838,1.174,3.008,1.223,5.34c-0.008,0.443-0.012,0.879-0.002,1.299
		c-0.016,0.707-0.049,1.412-0.107,2.078H54.4c-0.061-0.705-0.094-1.441-0.107-2.18c0.006-0.34,0.008-0.684,0.002-1.039
		c0.043-2.418,0.387-4.666,1.219-5.498c2.043-2.041,5.602-2.041,7.645,0c2.107,2.107,2.107,5.537,0,7.645
		c-0.287,0.289-1.566,1.23-5.877,1.23c-1.061,0-2.059-0.061-2.857-0.127v18.832h16.797h2.475c1.295,0,2.344-1.051,2.344-2.346V41.84
		C76.039,40.545,74.99,39.494,73.695,39.494z"/>
	<path d="M54.424,84.889h14.451c1.295,0,2.346-1.051,2.346-2.346V62.205H54.424V84.889z"/>
	<rect x="49.451" y="84.889" width="4.973" height="1.154"/>
	<path d="M54.424,39.014v-0.031H54.4c0.002,0.01,0.002,0.02,0.002,0.029C54.408,39.012,54.416,39.014,54.424,39.014z"/>
	<path d="M49.477,38.982h-0.025v0.031c0.008,0,0.016-0.002,0.023-0.002C49.477,39.002,49.477,38.992,49.477,38.982z"/>
</g>
</svg>
