<?xml version="1.0" encoding="utf-8"?>
<!-- Generator: Adobe Illustrator 16.0.0, SVG Export Plug-In . SVG Version: 6.00 Build 0)  -->
<!DOCTYPE svg PUBLIC "-//W3C//DTD SVG 1.1//EN" "http://www.w3.org/Graphics/SVG/1.1/DTD/svg11.dtd">
<svg version="1.1" id="Layer_1" xmlns="http://www.w3.org/2000/svg" xmlns:xlink="http://www.w3.org/1999/xlink" x="0px" y="0px"
	 width="100px" height="100px" viewBox="0 0 100 100" enable-background="new 0 0 100 100" xml:space="preserve">
<g>
	<path d="M67.429,54.207c0.521-0.521,0.809-1.215,0.809-1.952s-0.287-1.432-0.81-1.957c-1.076-1.071-2.825-1.071-3.906,0.002
		l-5.321,5.32V23.42c0-1.523-1.239-2.765-2.762-2.765c-1.523,0-2.763,1.241-2.763,2.765v32.201l-5.321-5.322
		c-1.076-1.072-2.826-1.072-3.909,0.006c-0.518,0.521-0.804,1.214-0.804,1.95s0.286,1.428,0.809,1.952l3.604,3.604h16.769
		L67.429,54.207z"/>
	<path d="M75.371,57.811H74.65H63.823l-6.431,6.43c-0.241,0.25-0.548,0.457-0.896,0.6c-0.351,0.143-0.701,0.21-1.057,0.21
		c-0.353,0-0.703-0.067-1.038-0.202c-0.371-0.156-0.676-0.361-0.93-0.622l-6.417-6.417H36.242h-5.524v8.17
		c0,5.074,4.13,9.202,9.204,9.202H70.97c5.075,0,9.204-4.128,9.204-9.202v-8.17H75.371z"/>
</g>
</svg>
