<?xml version="1.0" encoding="utf-8"?>
<!-- Generator: Adobe Illustrator 16.0.0, SVG Export Plug-In . SVG Version: 6.00 Build 0)  -->
<!DOCTYPE svg PUBLIC "-//W3C//DTD SVG 1.1//EN" "http://www.w3.org/Graphics/SVG/1.1/DTD/svg11.dtd">
<svg version="1.1" id="Layer_1" xmlns="http://www.w3.org/2000/svg" xmlns:xlink="http://www.w3.org/1999/xlink" x="0px" y="0px"
	 width="100px" height="100px" viewBox="0 0 100 100" enable-background="new 0 0 100 100" xml:space="preserve">
<path d="M68.269,45.53h-5.367c0.027-2.168-0.023-5.689-0.105-11.563c-0.018-1.281-1.063-2.312-2.345-2.312h-4.299
	c-0.889,0-1.699,0.502-2.098,1.296l-7.95,15.9h-0.479c-0.348-0.859-1.19-1.465-2.175-1.465H32.311c-1.296,0-2.345,1.05-2.345,2.345
	v15.731c0,1.294,1.049,2.345,2.345,2.345H43.45c1.296,0,2.345-1.051,2.345-2.345V64.78l1.321-0.055l1.996,2.281
	c0.444,0.51,1.088,0.802,1.765,0.802h17.393c1.296,0,2.345-1.051,2.345-2.345V47.875C70.613,46.581,69.564,45.53,68.269,45.53z"/>
</svg>
