<?xml version="1.0" encoding="utf-8"?>
<!-- Generator: Adobe Illustrator 16.0.0, SVG Export Plug-In . SVG Version: 6.00 Build 0)  -->
<!DOCTYPE svg PUBLIC "-//W3C//DTD SVG 1.1//EN" "http://www.w3.org/Graphics/SVG/1.1/DTD/svg11.dtd">
<svg version="1.1" id="Layer_1" xmlns="http://www.w3.org/2000/svg" xmlns:xlink="http://www.w3.org/1999/xlink" x="0px" y="0px"
	 width="100px" height="100px" viewBox="0 0 100 100" enable-background="new 0 0 100 100" xml:space="preserve">
<g>
	<path d="M64.074,19.468c-7.902,0-14.545,5.413-16.465,12.721c-0.193-0.007-0.383-0.029-0.576-0.029
		c-9.396,0-17.041,7.645-17.041,17.042c0,8.724,13.914,30.901,15.5,33.059l0.582,0.794c0.225,0.304,0.582,0.485,0.959,0.485
		s0.734-0.182,0.955-0.483l0.586-0.796c0.857-1.168,5.332-8.209,9.254-15.803c2.287,4.796,4.178,8.395,4.705,9.111l0.584,0.794
		c0.223,0.304,0.58,0.485,0.957,0.485s0.734-0.182,0.955-0.483l0.586-0.796c1.586-2.157,15.5-30.335,15.5-39.059
		C81.115,27.112,73.471,19.468,64.074,19.468z M47.033,54.551c-2.148,0-3.896-1.748-3.896-3.897c0-2.148,1.748-3.896,3.896-3.896
		c1.193,0,2.252,0.552,2.967,1.401c0.297,0.811,0.604,1.633,0.928,2.468c0,0.009,0.002,0.018,0.002,0.027
		C50.93,52.803,49.182,54.551,47.033,54.551z M64.074,44.957c-0.191,0-0.377-0.014-0.564-0.028
		c-3.594-0.289-6.432-3.299-6.432-6.967c0-0.777,0.133-1.522,0.367-2.222c0.932-2.771,3.549-4.774,6.629-4.774
		c3.857,0,6.996,3.139,6.996,6.996C71.07,41.82,67.932,44.957,64.074,44.957z"/>
</g>
</svg>
