<?xml version="1.0" encoding="utf-8"?>
<!-- Generator: Adobe Illustrator 16.0.0, SVG Export Plug-In . SVG Version: 6.00 Build 0)  -->
<!DOCTYPE svg PUBLIC "-//W3C//DTD SVG 1.1//EN" "http://www.w3.org/Graphics/SVG/1.1/DTD/svg11.dtd">
<svg version="1.1" id="Layer_1" xmlns="http://www.w3.org/2000/svg" xmlns:xlink="http://www.w3.org/1999/xlink" x="0px" y="0px"
	 width="100px" height="100px" viewBox="0 0 100 100" enable-background="new 0 0 100 100" xml:space="preserve">
<g>
	<path d="M77.183,31.333c-0.831,0-1.662,0.063-2.489,0.182c-3.216-3.36-7.265-5.723-11.808-6.874
		c-0.059-0.017-0.121-0.029-0.18-0.04l-2.93-0.553c-3.586-4.483-9.012-7.117-14.804-7.117c-9.962,0-18.153,7.723-18.9,17.496
		c-6.747,2.547-11.281,8.969-11.281,16.356c0,9.653,7.854,17.508,17.51,17.508c2.491,0,4.93-0.526,7.169-1.535
		c4.133,3.988,9.514,6.405,15.245,6.87V50.65c0-1.239,1.004-2.244,2.244-2.244c1.241,0,2.244,1.005,2.244,2.244v22.947
		c5.896-0.583,11.373-3.241,15.49-7.536c0.825,0.12,1.658,0.182,2.489,0.182c9.626,0,17.456-7.83,17.456-17.454
		C94.639,39.163,86.809,31.333,77.183,31.333z"/>
	<path d="M54.715,73.626v4.787l-1.489-1.773c-0.796-0.948-2.21-1.074-3.161-0.277c-0.95,0.797-1.074,2.213-0.278,3.162l5.453,6.497
		c0.02,0.021,0.043,0.038,0.062,0.06c0.065,0.072,0.136,0.136,0.209,0.199c0.046,0.037,0.087,0.077,0.136,0.112
		c0.082,0.06,0.171,0.109,0.262,0.157c0.045,0.025,0.088,0.053,0.136,0.074c0.104,0.047,0.216,0.081,0.329,0.111
		c0.039,0.011,0.074,0.027,0.113,0.035c0.152,0.033,0.312,0.053,0.474,0.053s0.321-0.02,0.474-0.053
		c0.039-0.008,0.074-0.024,0.113-0.035c0.113-0.03,0.225-0.064,0.329-0.111c0.048-0.021,0.091-0.049,0.136-0.074
		c0.091-0.048,0.18-0.098,0.262-0.157c0.049-0.035,0.091-0.075,0.136-0.112c0.073-0.063,0.144-0.127,0.209-0.199
		c0.019-0.021,0.042-0.038,0.062-0.06l5.453-6.497c0.796-0.949,0.672-2.365-0.277-3.162c-0.95-0.795-2.366-0.672-3.162,0.277
		l-1.489,1.773v-4.815c-0.815,0.082-1.638,0.126-2.468,0.126C56.058,73.724,55.386,73.68,54.715,73.626z"/>
</g>
</svg>
