<?xml version="1.0" encoding="utf-8"?>
<!-- Generator: Adobe Illustrator 16.0.0, SVG Export Plug-In . SVG Version: 6.00 Build 0)  -->
<!DOCTYPE svg PUBLIC "-//W3C//DTD SVG 1.1//EN" "http://www.w3.org/Graphics/SVG/1.1/DTD/svg11.dtd">
<svg version="1.1" id="Layer_1" xmlns="http://www.w3.org/2000/svg" xmlns:xlink="http://www.w3.org/1999/xlink" x="0px" y="0px"
	 width="100px" height="100px" viewBox="0 0 100 100" enable-background="new 0 0 100 100" xml:space="preserve">
<path d="M71.874,44.841h-3.138l-2.521-12.563c-0.202-1.006-1.084-1.728-2.108-1.728H43.195c-1.024,0-1.907,0.722-2.109,1.728
	l-2.521,12.563h-3.136c-1.188,0-2.151,0.964-2.151,2.151V64.15c0,1.188,0.963,2.151,2.151,2.151h4.183v4.992
	c0,0.396,0.318,0.717,0.717,0.717h5.138c0.396,0,0.717-0.32,0.717-0.717v-4.992h14.696v4.992c0,0.396,0.322,0.717,0.717,0.717h5.139
	c0.396,0,0.717-0.32,0.717-0.717v-4.992h4.423c1.188,0,2.15-0.963,2.15-2.151V46.992C74.024,45.805,73.062,44.841,71.874,44.841z
	 M44.958,34.852h17.386l2.005,9.989H42.952L44.958,34.852z M43.134,57.433c-1.846,0-3.344-1.498-3.344-3.346
	c0-1.846,1.498-3.346,3.344-3.346c1.849,0,3.348,1.5,3.348,3.346C46.481,55.935,44.982,57.433,43.134,57.433z M64.167,57.433
	c-1.849,0-3.347-1.498-3.347-3.346c0-1.846,1.498-3.346,3.347-3.346c1.848,0,3.343,1.5,3.343,3.346
	C67.51,55.935,66.015,57.433,64.167,57.433z"/>
</svg>
