<?xml version="1.0" encoding="utf-8"?>
<!-- Generator: Adobe Illustrator 16.0.0, SVG Export Plug-In . SVG Version: 6.00 Build 0)  -->
<!DOCTYPE svg PUBLIC "-//W3C//DTD SVG 1.1//EN" "http://www.w3.org/Graphics/SVG/1.1/DTD/svg11.dtd">
<svg version="1.1" id="Layer_1" xmlns="http://www.w3.org/2000/svg" xmlns:xlink="http://www.w3.org/1999/xlink" x="0px" y="0px"
	 width="100px" height="100px" viewBox="0 0 100 100" enable-background="new 0 0 100 100" xml:space="preserve">
<path d="M49.035,22.376c-15.359,0-27.852,12.493-27.852,27.85c0,15.357,12.492,27.852,27.852,27.852
	c15.355,0,27.851-12.494,27.851-27.852C76.885,34.869,64.39,22.376,49.035,22.376z M47.149,38.639
	c0.544-0.544,1.201-0.815,1.973-0.815c0.76,0,1.411,0.271,1.955,0.815s0.815,1.2,0.815,1.972c0,0.771-0.271,1.43-0.815,1.973
	c-0.544,0.544-1.195,0.815-1.955,0.815c-0.771,0-1.429-0.271-1.973-0.815c-0.543-0.543-0.814-1.202-0.814-1.973
	C46.334,39.839,46.606,39.183,47.149,38.639z M53.312,62.629h-8.556v-0.858c0.631-0.105,1.063-0.264,1.297-0.474
	c0.351-0.315,0.526-0.883,0.526-1.7V49.042c0-0.73-0.123-1.229-0.368-1.492c-0.245-0.266-0.73-0.462-1.455-0.594v-0.859h6.891v13.64
	c0,0.783,0.116,1.286,0.351,1.508c0.233,0.222,0.672,0.397,1.314,0.526V62.629z"/>
</svg>
