<?xml version="1.0" encoding="utf-8"?>
<!-- Generator: Adobe Illustrator 16.0.0, SVG Export Plug-In . SVG Version: 6.00 Build 0)  -->
<!DOCTYPE svg PUBLIC "-//W3C//DTD SVG 1.1//EN" "http://www.w3.org/Graphics/SVG/1.1/DTD/svg11.dtd">
<svg version="1.1" id="Layer_1" xmlns="http://www.w3.org/2000/svg" xmlns:xlink="http://www.w3.org/1999/xlink" x="0px" y="0px"
	 width="100px" height="100px" viewBox="0 0 100 100" enable-background="new 0 0 100 100" xml:space="preserve">
<path d="M53.337,22.586c-15.472,0-28.06,12.588-28.06,28.06c0,15.473,12.588,28.061,28.06,28.061s28.062-12.588,28.062-28.061
	C81.398,35.174,68.809,22.586,53.337,22.586z M49.992,56.655c0,1.029-0.468,1.969-1.211,2.432c-0.743,0.467-1.637,0.382-2.31-0.226
	l-5.081-4.556c-0.23,0.105-0.487,0.169-0.759,0.169h-4.254c-1.003,0-1.816-0.814-1.816-1.817v-4.255
	c0-1.004,0.813-1.815,1.816-1.815h4.254c0.337,0,0.65,0.098,0.919,0.257l4.921-4.417c0.386-0.345,0.844-0.521,1.305-0.521
	c0.342,0,0.688,0.099,1.005,0.296c0.743,0.469,1.211,1.408,1.211,2.434V56.655z M55.608,56.218c-0.399,0-0.8-0.153-1.105-0.458
	c-0.61-0.611-0.61-1.602,0-2.211c0.776-0.775,1.203-1.806,1.203-2.904c0-1.096-0.427-2.128-1.203-2.904c-0.61-0.61-0.61-1.6,0-2.21
	c0.611-0.611,1.601-0.611,2.211,0c1.366,1.366,2.119,3.183,2.119,5.114c0,1.933-0.753,3.75-2.119,5.115
	C56.408,56.065,56.009,56.218,55.608,56.218z M60.3,59.518c-0.399,0-0.8-0.153-1.104-0.458c-0.611-0.611-0.611-1.6,0-2.211
	c3.42-3.42,3.418-8.985-0.002-12.405c-0.61-0.61-0.61-1.6,0-2.21s1.6-0.611,2.211,0c4.64,4.64,4.64,12.188,0.001,16.826
	C61.101,59.365,60.7,59.518,60.3,59.518z M66.098,63.363c-0.306,0.305-0.706,0.458-1.105,0.458c-0.4,0-0.801-0.153-1.105-0.458
	c-0.611-0.611-0.611-1.6,0-2.211c2.806-2.806,4.35-6.536,4.35-10.505c0-3.969-1.545-7.701-4.353-10.507
	c-0.611-0.61-0.611-1.6,0-2.21c0.61-0.611,1.6-0.611,2.21,0c3.398,3.397,5.27,7.913,5.27,12.717
	C71.364,55.452,69.494,59.968,66.098,63.363z"/>
</svg>
