<?xml version="1.0" encoding="utf-8"?>
<!-- Generator: Adobe Illustrator 16.0.0, SVG Export Plug-In . SVG Version: 6.00 Build 0)  -->
<!DOCTYPE svg PUBLIC "-//W3C//DTD SVG 1.1//EN" "http://www.w3.org/Graphics/SVG/1.1/DTD/svg11.dtd">
<svg version="1.1" id="Layer_1" xmlns="http://www.w3.org/2000/svg" xmlns:xlink="http://www.w3.org/1999/xlink" x="0px" y="0px"
	 width="100px" height="100px" viewBox="0 0 100 100" enable-background="new 0 0 100 100" xml:space="preserve">
<path d="M74.036,18.582H31.53c-1.24,0-2.244,1.006-2.244,2.244v9.045c0,0.26,0.053,0.506,0.135,0.738
	c0.009,0.023,0.013,0.051,0.023,0.076c0.088,0.225,0.215,0.428,0.365,0.609c0.015,0.018,0.019,0.039,0.033,0.057l10.07,11.486v40.09
	c0,1.24,1.005,2.244,2.244,2.244H63.41c1.238,0,2.244-1.004,2.244-2.244v-40.09l10.069-11.486c0.015-0.018,0.019-0.039,0.033-0.057
	c0.15-0.182,0.278-0.385,0.365-0.609c0.011-0.025,0.015-0.053,0.023-0.076c0.082-0.232,0.135-0.479,0.135-0.738v-9.045
	C76.28,19.588,75.276,18.582,74.036,18.582z M55.027,62.105c0,1.238-1.004,2.244-2.244,2.244s-2.244-1.006-2.244-2.244V51.877
	c0-1.238,1.004-2.244,2.244-2.244s2.244,1.006,2.244,2.244V62.105z M71.792,27.627H33.774V23.07h38.018V27.627z"/>
</svg>
