<?xml version="1.0" encoding="utf-8"?>
<!-- Generator: Adobe Illustrator 16.0.0, SVG Export Plug-In . SVG Version: 6.00 Build 0)  -->
<!DOCTYPE svg PUBLIC "-//W3C//DTD SVG 1.1//EN" "http://www.w3.org/Graphics/SVG/1.1/DTD/svg11.dtd">
<svg version="1.1" id="Layer_1" xmlns="http://www.w3.org/2000/svg" xmlns:xlink="http://www.w3.org/1999/xlink" x="0px" y="0px"
	 width="100px" height="100px" viewBox="0 0 100 100" enable-background="new 0 0 100 100" xml:space="preserve">
<path d="M50.001,27.336c-16.046,0-29.103,13.055-29.103,29.102s13.057,29.103,29.103,29.103c16.049,0,29.102-13.055,29.102-29.103
	S66.05,27.336,50.001,27.336z M64.896,62.582c-2.669,5.426-8.08,8.797-14.122,8.797c-8.674,0-15.73-7.055-15.73-15.728
	c0-6.009,3.344-11.406,8.729-14.089c0.241-0.119,0.533-0.073,0.724,0.119c0.19,0.189,0.239,0.481,0.121,0.724
	c-0.982,1.997-1.479,4.142-1.479,6.376c0,7.981,6.491,14.473,14.472,14.473c2.258,0,4.426-0.508,6.441-1.513
	c0.244-0.121,0.534-0.075,0.724,0.118C64.966,62.047,65.015,62.339,64.896,62.582z"/>
</svg>
