<?xml version="1.0" encoding="utf-8"?>
<!-- Generator: Adobe Illustrator 16.0.0, SVG Export Plug-In . SVG Version: 6.00 Build 0)  -->
<!DOCTYPE svg PUBLIC "-//W3C//DTD SVG 1.1//EN" "http://www.w3.org/Graphics/SVG/1.1/DTD/svg11.dtd">
<svg version="1.1" id="Layer_1" xmlns="http://www.w3.org/2000/svg" xmlns:xlink="http://www.w3.org/1999/xlink" x="0px" y="0px"
	 width="100px" height="100px" viewBox="0 0 100 100" enable-background="new 0 0 100 100" xml:space="preserve">
<g>
	<g>
		<path d="M29.145,62.603c-5.914,0-10.727-4.812-10.727-10.727c0-5.914,4.813-10.725,10.727-10.725s10.727,4.811,10.727,10.725
			C39.871,57.791,35.059,62.603,29.145,62.603z"/>
	</g>
	<g>
		<path d="M53.293,62.603c-5.914,0-10.725-4.812-10.725-10.727c0-5.914,4.811-10.725,10.725-10.725S64.02,45.962,64.02,51.876
			C64.02,57.791,59.207,62.603,53.293,62.603z"/>
	</g>
	<g>
		<path d="M78.742,62.603c-5.914,0-10.727-4.812-10.727-10.727c0-5.914,4.813-10.725,10.727-10.725s10.725,4.811,10.725,10.725
			C89.467,57.791,84.656,62.603,78.742,62.603z"/>
	</g>
</g>
</svg>
