<?xml version="1.0" encoding="utf-8"?>
<!-- Generator: Adobe Illustrator 16.0.0, SVG Export Plug-In . SVG Version: 6.00 Build 0)  -->
<!DOCTYPE svg PUBLIC "-//W3C//DTD SVG 1.1//EN" "http://www.w3.org/Graphics/SVG/1.1/DTD/svg11.dtd">
<svg version="1.1" id="Layer_1" xmlns="http://www.w3.org/2000/svg" xmlns:xlink="http://www.w3.org/1999/xlink" x="0px" y="0px"
	 width="100px" height="100px" viewBox="0 0 100 100" enable-background="new 0 0 100 100" xml:space="preserve">
<g>
	<path d="M59.035,46.708c-2.496,0-4.516-1.958-4.653-4.42c-0.585-0.105-1.183-0.169-1.797-0.169
		c-5.548,0-10.062,4.513-10.062,10.061c0,0.626,0.064,1.235,0.175,1.829c2.068,0.482,3.615,2.33,3.615,4.547
		c0,0.458-0.087,0.89-0.21,1.308c1.754,1.481,4.014,2.377,6.481,2.377c5.548,0,10.063-4.513,10.063-10.061
		c0-2.168-0.696-4.172-1.867-5.816C60.24,46.582,59.654,46.708,59.035,46.708z M52.585,56.859c-2.583,0-4.678-2.095-4.678-4.68
		c0-2.584,2.095-4.679,4.678-4.679s4.678,2.095,4.678,4.679C57.263,54.765,55.168,56.859,52.585,56.859z"/>
	<path d="M52.585,24.119c-15.472,0-28.06,12.589-28.06,28.061s12.588,28.061,28.06,28.061c5.698,0,10.995-1.717,15.427-4.646
		c0.127,0.011,0.25,0.038,0.381,0.038c2.452,0,4.443-1.895,4.639-4.298c4.708-5.02,7.615-11.748,7.615-19.156
		C80.646,36.708,68.057,24.119,52.585,24.119z M52.585,66.274c-3.493,0-6.69-1.285-9.154-3.4c-0.552,0.23-1.16,0.36-1.796,0.36
		c-2.584,0-4.68-2.095-4.68-4.679c0-1.493,0.714-2.81,1.803-3.666c-0.173-0.878-0.268-1.782-0.268-2.71
		c0-7.774,6.324-14.095,14.095-14.095c1.171,0,2.302,0.159,3.392,0.429c0.822-0.716,1.882-1.165,3.059-1.165
		c2.584,0,4.678,2.095,4.678,4.68c0,0.443-0.08,0.862-0.197,1.269c1.977,2.426,3.164,5.516,3.164,8.882
		C66.68,59.951,60.357,66.274,52.585,66.274z"/>
</g>
</svg>
