<?xml version="1.0" encoding="utf-8"?>
<!-- Generator: Adobe Illustrator 16.0.0, SVG Export Plug-In . SVG Version: 6.00 Build 0)  -->
<!DOCTYPE svg PUBLIC "-//W3C//DTD SVG 1.1//EN" "http://www.w3.org/Graphics/SVG/1.1/DTD/svg11.dtd">
<svg version="1.1" id="Layer_1" xmlns="http://www.w3.org/2000/svg" xmlns:xlink="http://www.w3.org/1999/xlink" x="0px" y="0px"
	 width="100px" height="100px" viewBox="0 0 100 100" enable-background="new 0 0 100 100" xml:space="preserve">
<g>
	<path d="M35.108,38.697h30.107c2.858,0,5.182-2.324,5.182-5.182c0-2.855-2.324-5.182-5.182-5.182H35.108
		c-2.858,0-5.182,2.326-5.182,5.182C29.927,36.373,32.25,38.697,35.108,38.697z M34.317,30.871h5.289v5.289h-5.289V30.871z"/>
	<path d="M65.215,58.441H35.108c-2.858,0-5.182,2.324-5.182,5.182c0,2.855,2.324,5.182,5.182,5.182h30.107
		c2.858,0,5.182-2.326,5.182-5.182C70.397,60.766,68.073,58.441,65.215,58.441z M39.606,65.629h-5.289V60.34h5.289V65.629z"/>
	<path d="M65.215,43.388H35.108c-2.858,0-5.182,2.325-5.182,5.182s2.324,5.182,5.182,5.182h30.107c2.858,0,5.182-2.325,5.182-5.182
		S68.073,43.388,65.215,43.388z M39.606,51.213h-5.289v-5.287h5.289V51.213z"/>
</g>
</svg>
