<?xml version="1.0" encoding="utf-8"?>
<!-- Generator: Adobe Illustrator 16.0.0, SVG Export Plug-In . SVG Version: 6.00 Build 0)  -->
<!DOCTYPE svg PUBLIC "-//W3C//DTD SVG 1.1//EN" "http://www.w3.org/Graphics/SVG/1.1/DTD/svg11.dtd">
<svg version="1.1" id="Layer_1" xmlns="http://www.w3.org/2000/svg" xmlns:xlink="http://www.w3.org/1999/xlink" x="0px" y="0px"
	 width="100px" height="100px" viewBox="0 0 100 100" enable-background="new 0 0 100 100" xml:space="preserve">
<g>
	<path d="M84.637,48.387l-21.88-11.353l0.709-1.367c0.32-0.616,0.078-1.374-0.537-1.693c-0.615-0.32-1.372-0.08-1.692,0.537
		l-1.288,2.482l-9.167,17.671l-5.07,9.771c-0.32,0.617-0.079,1.375,0.536,1.694c0.615,0.318,1.373,0.08,1.694-0.537l4.489-8.656
		l21.881,11.353c0.617,0.319,1.375,0.078,1.693-0.538l9.168-17.669C85.493,49.463,85.253,48.706,84.637,48.387z"/>
	<path d="M15.959,50.081l9.167,17.671c0.321,0.615,1.078,0.855,1.693,0.538L48.7,56.937l4.492,8.657
		c0.318,0.616,1.075,0.855,1.691,0.536c0.616-0.32,0.857-1.077,0.537-1.693l-5.07-9.771l-9.168-17.672l-1.287-2.482
		c-0.32-0.615-1.078-0.855-1.693-0.535c-0.615,0.318-0.855,1.077-0.537,1.692l0.711,1.368L16.495,48.387
		C15.88,48.706,15.639,49.464,15.959,50.081z"/>
</g>
</svg>
