<?xml version="1.0" encoding="utf-8"?>
<!-- Generator: Adobe Illustrator 16.0.0, SVG Export Plug-In . SVG Version: 6.00 Build 0)  -->
<!DOCTYPE svg PUBLIC "-//W3C//DTD SVG 1.1//EN" "http://www.w3.org/Graphics/SVG/1.1/DTD/svg11.dtd">
<svg version="1.1" id="Layer_1" xmlns="http://www.w3.org/2000/svg" xmlns:xlink="http://www.w3.org/1999/xlink" x="0px" y="0px"
	 width="100px" height="100px" viewBox="0 0 100 100" enable-background="new 0 0 100 100" xml:space="preserve">
<g>
	<g>
		<path d="M78.485,65.874L78.485,65.874c-1.275,0-2.525-0.479-3.522-1.347l-10.188-8.855c-1.394-1.212-2.192-3.044-2.192-5.026
			c0-1.98,0.798-3.811,2.192-5.023l10.188-8.858c1.755-1.522,4.319-1.751,6.271-0.566c1.831,1.114,2.968,3.256,2.968,5.591v17.714
			c0,2.337-1.138,4.479-2.97,5.591C80.392,65.605,79.443,65.874,78.485,65.874z"/>
	</g>
	<g>
		<path d="M56.804,68.978H29.253c-2.512,0-4.556-2.044-4.556-4.556V36.871c0-2.512,2.044-4.556,4.556-4.556h27.551
			c2.512,0,4.556,2.044,4.556,4.556v27.551C61.36,66.934,59.316,68.978,56.804,68.978z"/>
	</g>
</g>
</svg>
