<?xml version="1.0" encoding="utf-8"?>
<!-- Generator: Adobe Illustrator 16.0.0, SVG Export Plug-In . SVG Version: 6.00 Build 0)  -->
<!DOCTYPE svg PUBLIC "-//W3C//DTD SVG 1.1//EN" "http://www.w3.org/Graphics/SVG/1.1/DTD/svg11.dtd">
<svg version="1.1" id="Layer_1" xmlns="http://www.w3.org/2000/svg" xmlns:xlink="http://www.w3.org/1999/xlink" x="0px" y="0px"
	 width="100px" height="100px" viewBox="0 0 100 100" enable-background="new 0 0 100 100" xml:space="preserve">
<g>
	<path d="M62.779,73.932H42.705c-1.188,0-2.151-0.963-2.151-2.15v-6.721c-0.816,0.177-1.647,0.268-2.483,0.268
		c-6.536,0-11.856-5.319-11.856-11.857c0-6.287,4.919-11.447,11.109-11.834c0.793-7.93,7.506-14.142,15.639-14.142
		c8.146,0,14.865,6.232,15.644,14.179c5.979,0.6,10.663,5.66,10.663,11.797c0,6.538-5.319,11.857-11.855,11.857
		c-0.837,0-1.67-0.09-2.483-0.265v6.718C64.93,72.969,63.968,73.932,62.779,73.932z"/>
</g>
</svg>
