<?xml version="1.0" encoding="utf-8"?>
<!-- Generator: Adobe Illustrator 16.0.0, SVG Export Plug-In . SVG Version: 6.00 Build 0)  -->
<!DOCTYPE svg PUBLIC "-//W3C//DTD SVG 1.1//EN" "http://www.w3.org/Graphics/SVG/1.1/DTD/svg11.dtd">
<svg version="1.1" id="Layer_1" xmlns="http://www.w3.org/2000/svg" xmlns:xlink="http://www.w3.org/1999/xlink" x="0px" y="0px"
	 width="100px" height="100px" viewBox="0 0 100 100" enable-background="new 0 0 100 100" xml:space="preserve">
<g>
	<polygon points="47.295,58.935 54.441,55.434 51.249,52.241 	"/>
	<polygon points="57.637,52.973 61.87,44.676 54.059,49.396 	"/>
	<path d="M54.506,24.96c-14.636,0-26.543,11.907-26.543,26.543c0,14.637,11.907,26.544,26.543,26.544
		c14.637,0,26.544-11.907,26.544-26.544C81.05,36.867,69.143,24.96,54.506,24.96z M68.621,40.246l-8.334,16.333
		c-0.141,0.275-0.357,0.492-0.603,0.675c-0.075,0.116-0.163,0.228-0.265,0.33c-0.391,0.391-0.902,0.586-1.414,0.586
		c-0.016,0-0.032-0.005-0.049-0.005l-14.904,7.301c-0.281,0.138-0.581,0.204-0.879,0.204c-0.545,0-1.082-0.223-1.469-0.643
		c-0.601-0.648-0.703-1.614-0.254-2.375l8.666-14.666c0.008-0.012,0.018-0.021,0.025-0.031c0.07-0.115,0.154-0.224,0.25-0.325
		c0.012-0.012,0.02-0.025,0.029-0.037c0.002,0,0.002-0.002,0.004-0.003c0.108-0.109,0.229-0.199,0.354-0.278
		c0.009-0.006,0.016-0.014,0.024-0.02l16-9.667c0.766-0.461,1.743-0.36,2.397,0.248C68.855,38.481,69.027,39.45,68.621,40.246z"/>
</g>
</svg>
