<?xml version="1.0" encoding="utf-8"?>
<!-- Generator: Adobe Illustrator 16.0.0, SVG Export Plug-In . SVG Version: 6.00 Build 0)  -->
<!DOCTYPE svg PUBLIC "-//W3C//DTD SVG 1.1//EN" "http://www.w3.org/Graphics/SVG/1.1/DTD/svg11.dtd">
<svg version="1.1" id="Layer_1" xmlns="http://www.w3.org/2000/svg" xmlns:xlink="http://www.w3.org/1999/xlink" x="0px" y="0px"
	 width="100px" height="100px" viewBox="0 0 100 100" enable-background="new 0 0 100 100" xml:space="preserve">
<g>
	<path d="M61.283,63.108c2.506-0.639,4.369-2.918,4.369-5.619V38.446c0-3.197-2.602-5.797-5.795-5.797h-0.57
		c1.729-2.012,2.781-4.617,2.781-7.471c0-6.33-5.152-11.482-11.48-11.482c-6.332,0-11.48,5.152-11.48,11.482
		c0,2.854,1.051,5.459,2.781,7.471h-0.57c-3.195,0-5.795,2.6-5.795,5.797v19.043c0,2.701,1.861,4.98,4.367,5.619l-4.023,5.955
		c-0.416,0.615-0.457,1.41-0.109,2.066c0.35,0.652,1.031,1.064,1.773,1.064h4.012v11.92c0,3.305,1.736,5.795,4.045,5.795h9.998
		c2.307,0,4.049-2.49,4.049-5.795v-11.92h4.01c0.012-0.002,0.02-0.002,0.027,0c1.107,0,2.006-0.898,2.006-2.006
		c0-0.523-0.199-0.998-0.527-1.357L61.283,63.108z M50.377,38.69c0.984,0,1.779,0.795,1.779,1.775c0,0.982-0.795,1.777-1.779,1.777
		c-0.98,0-1.775-0.795-1.775-1.777C48.602,39.485,49.396,38.69,50.377,38.69z M52.383,56.345c0,1.109-0.898,2.008-2.006,2.008
		c-1.105,0-2.004-0.898-2.004-2.008V44.976c0-1.107,0.898-2.004,2.004-2.004c1.107,0,2.006,0.896,2.006,2.004V56.345z"/>
	<path d="M74.469,65.62h-0.045v-2.006c0-1.105-0.896-2.004-2.006-2.004c-1.107,0-2.006,0.898-2.006,2.004v2.006h-0.043
		c-1.941,0-3.521,1.58-3.521,3.521v17.246c0,1.943,1.58,3.521,3.521,3.521h4.1c1.941,0,3.521-1.578,3.521-3.521V69.142
		C77.99,67.2,76.41,65.62,74.469,65.62z"/>
</g>
</svg>
