<?xml version="1.0" encoding="utf-8"?>
<!-- Generator: Adobe Illustrator 16.0.0, SVG Export Plug-In . SVG Version: 6.00 Build 0)  -->
<!DOCTYPE svg PUBLIC "-//W3C//DTD SVG 1.1//EN" "http://www.w3.org/Graphics/SVG/1.1/DTD/svg11.dtd">
<svg version="1.1" id="Layer_1" xmlns="http://www.w3.org/2000/svg" xmlns:xlink="http://www.w3.org/1999/xlink" x="0px" y="0px"
	 width="100px" height="100px" viewBox="0 0 100 100" enable-background="new 0 0 100 100" xml:space="preserve">
<path d="M75.153,45.728v2.631H69.3c0.692-0.512,1.322-1.094,1.894-1.742c2.711-3.088,3.33-6.947,3.419-9.374h4.605
	c1.188,0,2.15-0.964,2.15-2.151V22.899c0-1.188-0.962-2.151-2.15-2.151H67.023c-1.188,0-2.15,0.963-2.15,2.151v12.193
	c0,1.188,0.963,2.151,2.15,2.151h4.722c-0.087,1.98-0.598,5.078-2.708,7.482c-1.759,2.002-4.366,3.173-7.744,3.516v-4.546
	c0-1.187-0.962-2.15-2.15-2.15H46.948c-1.188,0-2.15,0.964-2.15,2.15v4.664H30.938v-2.631h-8.128v8.128h8.128v-2.629h6.776
	c-4.124,3.19-5.496,8.263-5.951,11.115h-4.89c-1.187,0-2.15,0.964-2.15,2.151v12.194c0,1.187,0.964,2.15,2.15,2.15h12.193
	c1.189,0,2.152-0.963,2.152-2.15V64.493c0-1.188-0.963-2.151-2.152-2.151h-4.433c0.583-3.464,2.669-9.929,10.163-10.973v4.521
	c0,1.188,0.963,2.151,2.15,2.151h12.194c1.188,0,2.15-0.963,2.15-2.151v-4.663h13.86v2.629h8.129v-8.128H75.153z"/>
</svg>
