<?xml version="1.0" encoding="utf-8"?>
<!-- Generator: Adobe Illustrator 16.0.0, SVG Export Plug-In . SVG Version: 6.00 Build 0)  -->
<!DOCTYPE svg PUBLIC "-//W3C//DTD SVG 1.1//EN" "http://www.w3.org/Graphics/SVG/1.1/DTD/svg11.dtd">
<svg version="1.1" id="Layer_1" xmlns="http://www.w3.org/2000/svg" xmlns:xlink="http://www.w3.org/1999/xlink" x="0px" y="0px"
	 width="100px" height="100px" viewBox="0 0 100 100" enable-background="new 0 0 100 100" xml:space="preserve">
<g>
	<g>
		<path d="M64.223,26.125c-0.751-0.107-1.514,0.13-2.087,0.627c-0.572,0.502-0.9,1.225-0.9,1.986v32.008
			c-1.84-0.785-4.057-1.237-6.498-1.237c-6.711,0-11.771,3.382-11.771,7.863c0,4.484,5.06,7.865,11.771,7.865
			c6.713,0,11.774-3.381,11.774-7.865V32.097c2.666,0.884,6.143,2.682,6.073,6.04c-0.031,1.457,1.126,2.661,2.582,2.691
			c0.02,0,0.038,0,0.056,0c1.432,0,2.606-1.145,2.635-2.582C78.026,30.139,69.367,26.813,64.223,26.125z"/>
	</g>
	<g>
		<path d="M53.297,41.196H35.272c-1.295,0-2.345-1.05-2.345-2.345c0-1.294,1.05-2.345,2.345-2.345h18.024
			c1.296,0,2.345,1.05,2.345,2.345C55.642,40.146,54.593,41.196,53.297,41.196z"/>
	</g>
	<g>
		<path d="M53.297,48.229H35.272c-1.295,0-2.345-1.051-2.345-2.345s1.05-2.345,2.345-2.345h18.024c1.296,0,2.345,1.051,2.345,2.345
			S54.593,48.229,53.297,48.229z"/>
	</g>
	<g>
		<path d="M53.297,55.263H35.272c-1.295,0-2.345-1.05-2.345-2.345c0-1.295,1.05-2.345,2.345-2.345h18.024
			c1.296,0,2.345,1.05,2.345,2.345C55.642,54.212,54.593,55.263,53.297,55.263z"/>
	</g>
</g>
</svg>
