<?xml version="1.0" encoding="utf-8"?>
<!-- Generator: Adobe Illustrator 16.0.0, SVG Export Plug-In . SVG Version: 6.00 Build 0)  -->
<!DOCTYPE svg PUBLIC "-//W3C//DTD SVG 1.1//EN" "http://www.w3.org/Graphics/SVG/1.1/DTD/svg11.dtd">
<svg version="1.1" id="Layer_1" xmlns="http://www.w3.org/2000/svg" xmlns:xlink="http://www.w3.org/1999/xlink" x="0px" y="0px"
	 width="100px" height="100px" viewBox="0 0 100 100" enable-background="new 0 0 100 100" xml:space="preserve">
<g>
	<path d="M75.135,45.791l-0.003-0.497c0-11.488-9.346-20.834-20.833-20.834s-20.833,9.346-20.833,20.834l-0.003,0.526
		c-0.021,2.267-0.063,6.487,1.732,8.733c1.928,2.412,3.596,3.781,4.938,4.88c2.26,1.854,3.623,2.972,4.776,7.857
		c0.159,0.677,0.765,1.155,1.46,1.155h15.859c0.695,0,1.301-0.479,1.46-1.155c1.161-4.917,2.683-6.167,4.985-8.058
		c1.387-1.139,2.959-2.43,4.736-4.689C75.189,52.281,75.154,48.059,75.135,45.791z"/>
	<path d="M62.174,70.571H46.549c-0.828,0-1.5,0.672-1.5,1.5s0.672,1.5,1.5,1.5h15.625c0.828,0,1.5-0.672,1.5-1.5
		S63.002,70.571,62.174,70.571z"/>
	<path d="M62.174,74.571H46.549c-0.828,0-1.5,0.672-1.5,1.5s0.672,1.5,1.5,1.5h15.625c0.828,0,1.5-0.672,1.5-1.5
		S63.002,74.571,62.174,74.571z"/>
	<path d="M59.424,78.571H49.299c-0.828,0-1.5,0.672-1.5,1.5s0.672,1.5,1.5,1.5h10.125c0.828,0,1.5-0.672,1.5-1.5
		S60.252,78.571,59.424,78.571z"/>
</g>
</svg>
