<?xml version="1.0" encoding="utf-8"?>
<!-- Generator: Adobe Illustrator 16.0.0, SVG Export Plug-In . SVG Version: 6.00 Build 0)  -->
<!DOCTYPE svg PUBLIC "-//W3C//DTD SVG 1.1//EN" "http://www.w3.org/Graphics/SVG/1.1/DTD/svg11.dtd">
<svg version="1.1" id="Layer_1" xmlns="http://www.w3.org/2000/svg" xmlns:xlink="http://www.w3.org/1999/xlink" x="0px" y="0px"
	 width="100px" height="100px" viewBox="0 0 100 100" enable-background="new 0 0 100 100" xml:space="preserve">
<path d="M52.579,24.055c-14.19,0-25.735,11.547-25.735,25.738c0,14.191,11.545,25.737,25.735,25.737
	c14.191,0,25.736-11.546,25.736-25.737C78.315,35.602,66.771,24.055,52.579,24.055z M64.392,53H55v8.606
	c0,1.208-0.791,2.186-2,2.186c-1.207,0-2-0.979-2-2.186V53H40.769c-1.21,0-2.188-0.791-2.188-2s0.978-2,2.188-2H51V37.979
	c0-1.209,0.793-2.188,2-2.188c1.209,0,2,0.979,2,2.188V49h9.392c1.21,0,2.188,0.791,2.188,2S65.602,53,64.392,53z"/>
</svg>
