<?xml version="1.0" encoding="utf-8"?>
<!-- Generator: Adobe Illustrator 16.0.0, SVG Export Plug-In . SVG Version: 6.00 Build 0)  -->
<!DOCTYPE svg PUBLIC "-//W3C//DTD SVG 1.1//EN" "http://www.w3.org/Graphics/SVG/1.1/DTD/svg11.dtd">
<svg version="1.1" id="Layer_1" xmlns="http://www.w3.org/2000/svg" xmlns:xlink="http://www.w3.org/1999/xlink" x="0px" y="0px"
	 width="100px" height="100px" viewBox="0 0 100 100" enable-background="new 0 0 100 100" xml:space="preserve">
<g>
	<path d="M54.997,35.822c-6.67,0-12.097,5.426-12.097,12.097s5.427,12.097,12.097,12.097s12.097-5.426,12.097-12.097
		S61.667,35.822,54.997,35.822z M54.997,57.857c-5.479,0-9.938-4.458-9.938-9.938s4.459-9.938,9.938-9.938
		c5.48,0,9.937,4.458,9.937,9.938S60.478,57.857,54.997,57.857z"/>
	<path d="M54.997,42.284c-3.106,0-5.635,2.528-5.635,5.636c0,3.107,2.528,5.637,5.635,5.637c3.108,0,5.637-2.529,5.637-5.637
		C60.634,44.812,58.105,42.284,54.997,42.284z M54.997,51.174c-1.795,0-3.254-1.458-3.254-3.255s1.459-3.254,3.254-3.254
		c1.797,0,3.254,1.457,3.254,3.254S56.794,51.174,54.997,51.174z"/>
	<path d="M54.997,24.224c-13.064,0-23.696,10.629-23.696,23.696c0,13.066,10.632,23.696,23.696,23.696
		c13.066,0,23.695-10.63,23.695-23.696C78.692,34.853,68.063,24.224,54.997,24.224z M54.997,64.318
		c-9.041,0-16.397-7.357-16.397-16.399c0-9.041,7.356-16.399,16.397-16.399c9.043,0,16.398,7.358,16.398,16.399
		C71.396,56.961,64.04,64.318,54.997,64.318z"/>
</g>
</svg>
