<?xml version="1.0" encoding="utf-8"?>
<!-- Generator: Adobe Illustrator 16.0.0, SVG Export Plug-In . SVG Version: 6.00 Build 0)  -->
<!DOCTYPE svg PUBLIC "-//W3C//DTD SVG 1.1//EN" "http://www.w3.org/Graphics/SVG/1.1/DTD/svg11.dtd">
<svg version="1.1" id="Layer_1" xmlns="http://www.w3.org/2000/svg" xmlns:xlink="http://www.w3.org/1999/xlink" x="0px" y="0px"
	 width="100px" height="100px" viewBox="0 0 100 100" enable-background="new 0 0 100 100" xml:space="preserve">
<g>
	<path d="M74.148,40.625h-6.405V36.03l-3.772-3.772v0.016l-1.428-1.428h0.016l-3.786-3.786H35.824c-1.042,0-1.887,0.848-1.887,1.893
		v11.673h-6.404c-0.662,0-1.297,0.234-1.766,0.648c-0.467,0.415-0.73,0.979-0.73,1.566v29.513c0,0.611,0.279,1.166,0.73,1.566
		c0.452,0.4,1.077,0.648,1.766,0.648h6.404v7.082c0,1.045,0.845,1.893,1.887,1.893h30.033c1.041,0,1.886-0.848,1.886-1.893v-7.082
		h6.405c0.662,0,1.297-0.234,1.766-0.648c0.467-0.416,0.73-0.979,0.73-1.566V42.84C76.645,41.617,75.527,40.625,74.148,40.625z
		 M37.711,30.846h18.018v7.933h8.242v1.847h-26.26V30.846z M71.65,70.14h-3.907V57.597c0-1.045-0.845-1.893-1.886-1.893H35.824
		c-1.042,0-1.887,0.848-1.887,1.893V70.14H30.03V45.053h41.62V70.14z"/>
</g>
</svg>
