<?xml version="1.0" encoding="utf-8"?>
<!-- Generator: Adobe Illustrator 16.0.0, SVG Export Plug-In . SVG Version: 6.00 Build 0)  -->
<!DOCTYPE svg PUBLIC "-//W3C//DTD SVG 1.1//EN" "http://www.w3.org/Graphics/SVG/1.1/DTD/svg11.dtd">
<svg version="1.1" id="Layer_1" xmlns="http://www.w3.org/2000/svg" xmlns:xlink="http://www.w3.org/1999/xlink" x="0px" y="0px"
	 width="100px" height="100px" viewBox="0 0 100 100" enable-background="new 0 0 100 100" xml:space="preserve">
<path d="M78.74,48.24h-2.098v-7.265c0-1.197-0.97-2.168-2.168-2.168h-3.946v-4.235c0-1.596-1.294-2.891-2.892-2.891h-7.506
	c-1.596,0-2.891,1.295-2.891,2.891V48.24H42.701V34.572c0-1.596-1.293-2.891-2.891-2.891h-7.507c-1.595,0-2.891,1.295-2.891,2.891
	v4.235h-3.946c-1.197,0-2.168,0.971-2.168,2.168v7.265H21.26c-1.598,0-2.891,1.295-2.891,2.891c0,1.597,1.293,2.892,2.891,2.892
	h2.039v7.265c0,1.197,0.971,2.168,2.168,2.168h3.946v4.234c0,1.597,1.296,2.892,2.891,2.892h7.507c1.598,0,2.891-1.295,2.891-2.892
	V54.022H57.24v13.667c0,1.597,1.295,2.892,2.891,2.892h7.506c1.598,0,2.892-1.295,2.892-2.892v-4.234h3.946
	c1.198,0,2.168-0.971,2.168-2.168v-7.265h2.098c1.597,0,2.891-1.295,2.891-2.892C81.631,49.535,80.337,48.24,78.74,48.24z"/>
</svg>
