<?xml version="1.0" encoding="utf-8"?>
<!-- Generator: Adobe Illustrator 16.0.0, SVG Export Plug-In . SVG Version: 6.00 Build 0)  -->
<!DOCTYPE svg PUBLIC "-//W3C//DTD SVG 1.1//EN" "http://www.w3.org/Graphics/SVG/1.1/DTD/svg11.dtd">
<svg version="1.1" id="Layer_1" xmlns="http://www.w3.org/2000/svg" xmlns:xlink="http://www.w3.org/1999/xlink" x="0px" y="0px"
	 width="100px" height="100px" viewBox="0 0 100 100" enable-background="new 0 0 100 100" xml:space="preserve">
<g>
	<path d="M71.8,53.359c1.719-2.487,2.733-5.498,2.733-8.743c0-8.5-6.915-15.414-15.414-15.414c-3.245,0-6.257,1.013-8.743,2.732
		l-0.132-0.131c-0.841-0.841-2.202-0.841-3.042,0c-0.84,0.84-0.84,2.2,0,3.041l0.003,0.003c-2.188,2.661-3.501,6.063-3.501,9.769
		c0,3.432,1.14,6.595,3.045,9.161L31.973,68.553c-0.84,0.84-0.84,2.201,0,3.041c0.421,0.42,0.971,0.631,1.521,0.631
		c0.551,0,1.102-0.211,1.521-0.631l14.754-14.752c2.597,1.991,5.832,3.188,9.352,3.188c3.714,0,7.126-1.321,9.791-3.517
		c0.403,0.351,0.896,0.55,1.4,0.55c0.551,0,1.101-0.21,1.521-0.63c0.84-0.841,0.84-2.202,0-3.042L71.8,53.359z"/>
</g>
</svg>
