<?xml version="1.0" encoding="utf-8"?>
<!-- Generator: Adobe Illustrator 16.0.0, SVG Export Plug-In . SVG Version: 6.00 Build 0)  -->
<!DOCTYPE svg PUBLIC "-//W3C//DTD SVG 1.1//EN" "http://www.w3.org/Graphics/SVG/1.1/DTD/svg11.dtd">
<svg version="1.1" id="Layer_1" xmlns="http://www.w3.org/2000/svg" xmlns:xlink="http://www.w3.org/1999/xlink" x="0px" y="0px"
	 width="100px" height="100px" viewBox="0 0 100 100" enable-background="new 0 0 100 100" xml:space="preserve">
<g>
	<path d="M32.047,23.582v14.364h36.757V23.582H32.047z M58.183,32.969c0,0.864-0.701,1.563-1.563,1.563H43.805
		c-0.864,0-1.563-0.699-1.563-1.563v-4.172c0-0.865,0.699-1.564,1.563-1.564c0.863,0,1.563,0.699,1.563,1.564v2.609h9.687v-2.609
		c0-0.865,0.701-1.564,1.563-1.564s1.563,0.699,1.563,1.564V32.969z"/>
	<path d="M32.047,55.673h36.757V41.31H32.047V55.673z M42.454,46.288c0-0.864,0.699-1.563,1.563-1.563
		c0.863,0,1.563,0.699,1.563,1.563v2.608h9.687v-2.608c0-0.864,0.701-1.563,1.563-1.563c0.862,0,1.563,0.699,1.563,1.563v4.173
		c0,0.863-0.701,1.563-1.563,1.563H44.018c-0.864,0-1.563-0.699-1.563-1.563V46.288z"/>
	<path d="M32.047,73.399h36.757V58.799H32.047V73.399z M42.526,64.014c0-0.865,0.699-1.564,1.563-1.564
		c0.863,0,1.563,0.699,1.563,1.564v2.609h9.687v-2.609c0-0.865,0.701-1.564,1.563-1.564c0.862,0,1.563,0.699,1.563,1.564v4.172
		c0,0.864-0.701,1.563-1.563,1.563H44.089c-0.864,0-1.563-0.699-1.563-1.563V64.014z"/>
</g>
</svg>
