<?xml version="1.0" encoding="utf-8"?>
<!-- Generator: Adobe Illustrator 16.0.0, SVG Export Plug-In . SVG Version: 6.00 Build 0)  -->
<!DOCTYPE svg PUBLIC "-//W3C//DTD SVG 1.1//EN" "http://www.w3.org/Graphics/SVG/1.1/DTD/svg11.dtd">
<svg version="1.1" id="Layer_1" xmlns="http://www.w3.org/2000/svg" xmlns:xlink="http://www.w3.org/1999/xlink" x="0px" y="0px"
	 width="100px" height="100px" viewBox="0 0 100 100" enable-background="new 0 0 100 100" xml:space="preserve">
<g>
	<path d="M55.14,43.343v-3.245c0-1.454-0.809-2.76-2.109-3.407c-0.525-0.262-1.111-0.399-1.698-0.399
		c-0.822,0-1.636,0.271-2.291,0.766l-9.497,7.155c-0.709,0.335-1.293,0.773-1.739,1.313l-5.386,4.059
		c-0.954,0.72-1.521,1.861-1.516,3.056c0.004,1.193,0.58,2.33,1.539,3.042l16.624,12.333c0.661,0.489,1.445,0.748,2.267,0.748
		c0.591,0,1.183-0.141,1.712-0.407c1.293-0.65,2.095-1.953,2.095-3.4V61.05c3.947,0.323,8.459,1.979,10.445,7.387
		c0.549,1.491,1.985,2.493,3.573,2.493c0.135,0,0.274-0.008,0.42-0.022c1.745-0.193,3.124-1.545,3.355-3.286
		c0.056-0.431,1.303-10.594-4.919-17.781C64.899,46.244,60.573,44.061,55.14,43.343z M71.309,67.408
		c-0.131,0.988-0.92,1.761-1.911,1.871c-0.081,0.008-0.161,0.013-0.24,0.013c-0.899,0-1.718-0.561-2.034-1.42
		c-2.724-7.417-9.68-8.523-13.584-8.523c-0.013,0-0.025,0-0.038,0v5.606c0,0.819-0.461,1.568-1.193,1.937
		c-0.732,0.369-1.607,0.294-2.267-0.194L33.419,54.366c-0.549-0.408-0.874-1.051-0.877-1.733c-0.002-0.684,0.318-1.328,0.864-1.74
		l5.556-4.187c0.288-0.395,0.735-0.778,1.424-1.074l9.642-7.266c0.655-0.494,1.537-0.574,2.271-0.209
		c0.737,0.367,1.201,1.12,1.201,1.941v4.719c5.704,0.459,10.163,2.504,13.274,6.096C72.537,57.569,71.361,67.008,71.309,67.408z"/>
	<path d="M51.308,49.055c-1.187-0.014-2.143-0.98-2.143-2.168v-2.44l-6.407,4.827c-0.137,0.104-0.285,0.189-0.443,0.259
		c-0.108,0.131-0.233,0.251-0.371,0.355l-3.612,2.722l10.833,8.037v-3.341c0-1.076,0.788-1.989,1.852-2.146
		c0.104-0.015,1.056-0.148,2.522-0.148c2.811,0,8.4,0.532,12.819,4.277c-0.529-1.899-1.414-3.874-2.881-5.559
		C60.835,50.693,56.74,49.119,51.308,49.055z M53.539,53.374c-1.395,0-2.377,0.113-2.761,0.165
		c-1.855,0.273-3.252,1.893-3.252,3.768v0.084l-6.458-4.79l1.863-1.403c0.135-0.103,0.264-0.215,0.385-0.335
		c0.148-0.083,0.292-0.176,0.428-0.279l3.863-2.91c0.361,1.703,1.875,3.001,3.68,3.021c4.945,0.059,8.63,1.441,10.954,4.112
		c0.069,0.08,0.138,0.161,0.206,0.244C59.007,53.646,55.637,53.374,53.539,53.374z"/>
</g>
</svg>
