<?xml version="1.0" encoding="utf-8"?>
<!-- Generator: Adobe Illustrator 16.0.0, SVG Export Plug-In . SVG Version: 6.00 Build 0)  -->
<!DOCTYPE svg PUBLIC "-//W3C//DTD SVG 1.1//EN" "http://www.w3.org/Graphics/SVG/1.1/DTD/svg11.dtd">
<svg version="1.1" id="Layer_1" xmlns="http://www.w3.org/2000/svg" xmlns:xlink="http://www.w3.org/1999/xlink" x="0px" y="0px"
	 width="100px" height="100px" viewBox="0 0 100 100" enable-background="new 0 0 100 100" xml:space="preserve">
<path d="M78.145,51.064l0.025-0.042l-3.095-3.34V17.321H25.667v30.295h-0.14l-2.682,3.051l-0.729,0.839l0.064,0.062
	c-0.905,1.396-1.396,3.031-1.396,4.701v14.742c0,4.77,3.882,8.65,8.653,8.65h41.806c4.771,0,8.652-3.881,8.652-8.65V56.269
	C79.896,54.379,79.279,52.562,78.145,51.064z M31.235,22.888h38.273v5.104H31.235V22.888z M31.235,33.558h38.273v3.943H31.235
	V33.558z M31.235,43.067h38.273v3.713H31.235V43.067z M56.6,52.347c-0.132,2.36-2.552,2.738-4.022,2.738h-4.473
	c-1.471,0-3.889-0.378-4.021-2.738H56.6z"/>
</svg>
