<?xml version="1.0" encoding="utf-8"?>
<!-- Generator: Adobe Illustrator 16.0.0, SVG Export Plug-In . SVG Version: 6.00 Build 0)  -->
<!DOCTYPE svg PUBLIC "-//W3C//DTD SVG 1.1//EN" "http://www.w3.org/Graphics/SVG/1.1/DTD/svg11.dtd">
<svg version="1.1" id="Layer_1" xmlns="http://www.w3.org/2000/svg" xmlns:xlink="http://www.w3.org/1999/xlink" x="0px" y="0px"
	 width="100px" height="100px" viewBox="0 0 100 100" enable-background="new 0 0 100 100" xml:space="preserve">
<g>
	<path d="M46.488,62.306c2.507-0.639,4.368-2.914,4.368-5.617V37.644c0-3.195-2.6-5.797-5.795-5.797h-0.569
		c1.728-2.01,2.782-4.615,2.782-7.467c0-6.332-5.152-11.482-11.481-11.482c-6.331,0-11.479,5.15-11.479,11.482
		c0,2.852,1.051,5.457,2.78,7.467h-0.57c-3.195,0-5.794,2.602-5.794,5.797v19.045c0,2.703,1.86,4.979,4.367,5.617l-4.025,5.959
		c-0.415,0.615-0.455,1.408-0.107,2.064c0.349,0.654,1.03,1.063,1.771,1.063h4.01v11.92c0,3.307,1.74,5.797,4.049,5.797h9.997
		c2.309,0,4.05-2.49,4.05-5.797v-11.92h4.011c0.01-0.002,0.017-0.002,0.026,0c1.108,0,2.006-0.896,2.006-2.006
		c0-0.521-0.202-0.998-0.528-1.355L46.488,62.306z"/>
	<path d="M83.97,68.03l-3.866-5.725c2.507-0.639,4.369-2.914,4.369-5.617V37.644c0-3.195-2.601-5.797-5.796-5.797h-0.569
		c1.729-2.01,2.781-4.615,2.781-7.467c0-6.332-5.15-11.482-11.481-11.482c-6.329,0-11.48,5.15-11.48,11.482
		c0,2.852,1.052,5.457,2.781,7.467h-0.569c-3.195,0-5.795,2.602-5.795,5.797v19.045c0,2.703,1.861,4.979,4.368,5.617l-4.025,5.959
		c-0.415,0.615-0.456,1.408-0.107,2.064c0.348,0.654,1.029,1.063,1.771,1.063h4.01v11.92c0,3.307,1.741,5.797,4.049,5.797h9.998
		c2.308,0,4.048-2.49,4.048-5.797v-11.92h4.01c0.012-0.002,0.019-0.002,0.027,0c1.109,0,2.006-0.896,2.006-2.006
		C84.498,68.864,84.297,68.388,83.97,68.03z"/>
</g>
</svg>
