<?xml version="1.0" encoding="utf-8"?>
<!-- Generator: Adobe Illustrator 16.0.0, SVG Export Plug-In . SVG Version: 6.00 Build 0)  -->
<!DOCTYPE svg PUBLIC "-//W3C//DTD SVG 1.1//EN" "http://www.w3.org/Graphics/SVG/1.1/DTD/svg11.dtd">
<svg version="1.1" id="Layer_1" xmlns="http://www.w3.org/2000/svg" xmlns:xlink="http://www.w3.org/1999/xlink" x="0px" y="0px"
	 width="100px" height="100px" viewBox="0 0 100 100" enable-background="new 0 0 100 100" xml:space="preserve">
<g>
	<path d="M37.072,16.288v66.75h31.95v-66.75H37.072z M65.296,78.162c0,0.828-0.672,1.5-1.5,1.5h-21.5c-0.828,0-1.5-0.672-1.5-1.5
		V21.163c0-0.828,0.672-1.5,1.5-1.5h21.5c0.828,0,1.5,0.672,1.5,1.5V78.162z"/>
	<path d="M43.796,76.662h18.5v-1h-3.875c-0.828,0-1.5-0.672-1.5-1.5s0.672-1.5,1.5-1.5h3.875v-1h-9.25c-0.828,0-1.5-0.672-1.5-1.5
		s0.672-1.5,1.5-1.5h9.25v-1h-3.875c-0.828,0-1.5-0.672-1.5-1.5s0.672-1.5,1.5-1.5h3.875v-1h-9.25c-0.828,0-1.5-0.672-1.5-1.5
		s0.672-1.5,1.5-1.5h9.25v-1h-3.875c-0.828,0-1.5-0.672-1.5-1.5s0.672-1.5,1.5-1.5h3.875v-1h-9.25c-0.828,0-1.5-0.672-1.5-1.5
		s0.672-1.5,1.5-1.5h9.25v-1h-3.875c-0.828,0-1.5-0.672-1.5-1.5s0.672-1.5,1.5-1.5h3.875v-1h-9.25c-0.828,0-1.5-0.672-1.5-1.5
		s0.672-1.5,1.5-1.5h9.25v-1h-3.875c-0.828,0-1.5-0.672-1.5-1.5s0.672-1.5,1.5-1.5h3.875v-1h-9.25c-0.828,0-1.5-0.672-1.5-1.5
		s0.672-1.5,1.5-1.5h9.25v-1h-3.875c-0.828,0-1.5-0.672-1.5-1.5s0.672-1.5,1.5-1.5h3.875v-1h-9.25c-0.828,0-1.5-0.672-1.5-1.5
		s0.672-1.5,1.5-1.5h9.25v-1h-3.875c-0.828,0-1.5-0.672-1.5-1.5s0.672-1.5,1.5-1.5h3.875v-1.999h-18.5V76.662z"/>
</g>
</svg>
