<?xml version="1.0" encoding="utf-8"?>
<!-- Generator: Adobe Illustrator 16.0.0, SVG Export Plug-In . SVG Version: 6.00 Build 0)  -->
<!DOCTYPE svg PUBLIC "-//W3C//DTD SVG 1.1//EN" "http://www.w3.org/Graphics/SVG/1.1/DTD/svg11.dtd">
<svg version="1.1" id="Layer_1" xmlns="http://www.w3.org/2000/svg" xmlns:xlink="http://www.w3.org/1999/xlink" x="0px" y="0px"
	 width="100px" height="100px" viewBox="0 0 100 100" enable-background="new 0 0 100 100" xml:space="preserve">
<path d="M29.011,27.936v48.751h48.752V27.936H29.011z M30.911,47.187c0-1.188,0.964-2.151,2.151-2.151
	c1.189,0,2.15,0.963,2.15,2.151v10.68c0,1.187-0.961,2.15-2.15,2.15c-1.188,0-2.151-0.964-2.151-2.15V47.187z M37.364,74.999h-4.302
	c-1.188,0-2.151-0.963-2.151-2.15v-4.303c0-1.187,0.964-2.15,2.151-2.15c1.189,0,2.15,0.964,2.15,2.15v2.151h2.151
	c1.189,0,2.15,0.964,2.15,2.151C39.515,74.036,38.554,74.999,37.364,74.999z M37.364,34.354h-2.151v2.151
	c0,1.187-0.961,2.15-2.15,2.15c-1.188,0-2.151-0.963-2.151-2.15v-4.302c0-1.188,0.964-2.151,2.151-2.151h4.302
	c1.189,0,2.15,0.963,2.15,2.151C39.515,33.391,38.554,34.354,37.364,34.354z M58.728,74.999H48.046c-1.188,0-2.151-0.963-2.151-2.15
	c0-1.188,0.964-2.151,2.151-2.151h10.682c1.188,0,2.15,0.964,2.15,2.151C60.878,74.036,59.915,74.999,58.728,74.999z M58.728,34.354
	H48.046c-1.188,0-2.151-0.964-2.151-2.15c0-1.188,0.964-2.151,2.151-2.151h10.682c1.188,0,2.15,0.963,2.15,2.151
	C60.878,33.391,59.915,34.354,58.728,34.354z M75.859,72.849c0,1.187-0.962,2.15-2.15,2.15h-4.302c-1.188,0-2.15-0.963-2.15-2.15
	c0-1.188,0.962-2.151,2.15-2.151h2.15v-2.151c0-1.187,0.963-2.15,2.151-2.15s2.15,0.964,2.15,2.15V72.849z M75.859,57.865
	c0,1.188-0.962,2.151-2.15,2.151s-2.151-0.963-2.151-2.151v-10.68c0-1.187,0.963-2.15,2.151-2.15s2.15,0.964,2.15,2.15V57.865z
	 M75.859,36.506c0,1.187-0.962,2.15-2.15,2.15s-2.151-0.963-2.151-2.15v-2.151h-2.15c-1.188,0-2.15-0.964-2.15-2.15
	c0-1.188,0.962-2.151,2.15-2.151h4.302c1.188,0,2.15,0.963,2.15,2.151V36.506z"/>
</svg>
