<?xml version="1.0" encoding="utf-8"?>
<!-- Generator: Adobe Illustrator 16.0.0, SVG Export Plug-In . SVG Version: 6.00 Build 0)  -->
<!DOCTYPE svg PUBLIC "-//W3C//DTD SVG 1.1//EN" "http://www.w3.org/Graphics/SVG/1.1/DTD/svg11.dtd">
<svg version="1.1" id="Layer_1" xmlns="http://www.w3.org/2000/svg" xmlns:xlink="http://www.w3.org/1999/xlink" x="0px" y="0px"
	 width="100px" height="100px" viewBox="0 0 100 100" enable-background="new 0 0 100 100" xml:space="preserve">
<path d="M74.304,54.563c0.038-0.299,0.056-0.597,0.056-0.892c0-4.21-3.424-7.637-7.634-7.637c-0.77,0-1.524,0.117-2.254,0.352
	c-2.315-1.963-5.247-3.026-8.349-2.943c-1.997-5.086-6.887-8.506-12.482-8.506c-7.413,0-13.443,6.031-13.443,13.443
	c0,4.78,2.521,9.124,6.544,11.53c-0.084,0.518-0.136,1.035-0.136,1.552c0,4.635,3.055,8.631,7.359,9.97v0.518h24.413
	c5.36,0,9.721-4.359,9.721-9.721C78.099,59.193,76.679,56.383,74.304,54.563z M43.641,39.239c3.536,0,6.665,2.008,8.177,5.07
	c-0.124,0.05-0.24,0.112-0.364,0.167c-0.157,0.068-0.313,0.14-0.469,0.216c-0.304,0.148-0.598,0.312-0.886,0.481
	c-0.126,0.076-0.253,0.144-0.376,0.221c-0.402,0.26-0.794,0.536-1.164,0.838c-0.02,0.017-0.036,0.035-0.054,0.051
	c-0.351,0.288-0.681,0.6-0.997,0.924c-0.104,0.106-0.199,0.219-0.298,0.328c-0.227,0.249-0.441,0.506-0.647,0.771
	c-0.101,0.131-0.197,0.264-0.294,0.397c-0.195,0.276-0.377,0.563-0.551,0.853c-0.075,0.128-0.153,0.253-0.226,0.383
	c-0.23,0.424-0.446,0.859-0.626,1.313c-0.401,0.086-0.79,0.203-1.175,0.335c-0.115,0.04-0.228,0.088-0.343,0.131
	c-0.271,0.104-0.537,0.219-0.798,0.345c-0.117,0.056-0.234,0.111-0.348,0.172c-0.289,0.154-0.571,0.32-0.844,0.502
	c-0.063,0.039-0.131,0.075-0.192,0.118c-0.326,0.226-0.639,0.471-0.938,0.731c-0.084,0.073-0.163,0.152-0.244,0.229
	c-0.216,0.2-0.423,0.407-0.622,0.625c-0.089,0.099-0.176,0.198-0.263,0.301c-0.194,0.231-0.379,0.471-0.552,0.72
	c-0.062,0.085-0.126,0.166-0.184,0.254c-0.021,0.032-0.043,0.06-0.064,0.09c-2.358-1.693-3.802-4.436-3.802-7.424
	C34.499,43.339,38.599,39.239,43.641,39.239z"/>
</svg>
