<?xml version="1.0" encoding="utf-8"?>
<!-- Generator: Adobe Illustrator 16.0.0, SVG Export Plug-In . SVG Version: 6.00 Build 0)  -->
<!DOCTYPE svg PUBLIC "-//W3C//DTD SVG 1.1//EN" "http://www.w3.org/Graphics/SVG/1.1/DTD/svg11.dtd">
<svg version="1.1" id="Layer_1" xmlns="http://www.w3.org/2000/svg" xmlns:xlink="http://www.w3.org/1999/xlink" x="0px" y="0px"
	 width="100px" height="100px" viewBox="0 0 100 100" enable-background="new 0 0 100 100" xml:space="preserve">
<path d="M59.947,25.153c-15.112,0-27.408,12.296-27.408,27.41c0,15.113,12.296,27.41,27.408,27.41
	c15.113,0,27.409-12.297,27.409-27.41C87.355,37.449,75.06,25.153,59.947,25.153z M76.676,61.635
	c-0.392,0.391-0.904,0.588-1.417,0.588c-0.514,0-1.027-0.197-1.418-0.588L59.947,47.742L46.054,61.635
	c-0.783,0.783-2.054,0.783-2.837,0c-0.784-0.783-0.784-2.053,0-2.836l15.312-15.31c0.784-0.783,2.051-0.783,2.834,0l15.312,15.31
	C77.459,59.582,77.459,60.852,76.676,61.635z"/>
</svg>
