<?xml version="1.0" encoding="utf-8"?>
<!-- Generator: Adobe Illustrator 16.0.0, SVG Export Plug-In . SVG Version: 6.00 Build 0)  -->
<!DOCTYPE svg PUBLIC "-//W3C//DTD SVG 1.1//EN" "http://www.w3.org/Graphics/SVG/1.1/DTD/svg11.dtd">
<svg version="1.1" id="Layer_1" xmlns="http://www.w3.org/2000/svg" xmlns:xlink="http://www.w3.org/1999/xlink" x="0px" y="0px"
	 width="100px" height="100px" viewBox="0 0 100 100" enable-background="new 0 0 100 100" xml:space="preserve">
<g>
	<path d="M27.605,24.195V75.39h51.193V24.195H27.605z M73.523,43.16c1.188,0,2.15,0.963,2.15,2.151s-0.963,2.15-2.15,2.15h-4.73
		v4.661h4.73c1.188,0,2.15,0.963,2.15,2.15c0,1.188-0.963,2.152-2.15,2.152h-4.73v4.66h4.73c1.188,0,2.15,0.963,2.15,2.15
		s-0.963,2.151-2.15,2.151h-4.73v4.727c0,1.188-0.961,2.151-2.15,2.151c-1.188,0-2.152-0.963-2.152-2.151v-4.727h-4.656v4.727
		c0,1.188-0.963,2.151-2.15,2.151c-1.191,0-2.152-0.963-2.152-2.151v-4.727h-4.658v4.727c0,1.188-0.965,2.151-2.152,2.151
		s-2.15-0.963-2.15-2.151v-4.727h-4.66v4.727c0,1.188-0.963,2.151-2.152,2.151c-1.186,0-2.15-0.963-2.15-2.151v-4.727H32.88
		c-1.188,0-2.15-0.964-2.15-2.151s0.963-2.15,2.15-2.15h4.727v-4.66H32.88c-1.188,0-2.15-0.964-2.15-2.152
		c0-1.187,0.963-2.15,2.15-2.15h4.727v-4.661H32.88c-1.188,0-2.15-0.962-2.15-2.15s0.963-2.151,2.15-2.151h4.727v-4.661H32.88
		c-1.188,0-2.15-0.962-2.15-2.15c0-1.188,0.963-2.15,2.15-2.15h4.727v-4.728c0-1.188,0.965-2.15,2.15-2.15
		c1.189,0,2.152,0.963,2.152,2.15v4.728h4.66v-4.728c0-1.188,0.963-2.15,2.15-2.15s2.152,0.963,2.152,2.15v4.728h4.658v-4.728
		c0-1.188,0.961-2.15,2.152-2.15c1.188,0,2.15,0.963,2.15,2.15v4.728h4.656v-4.728c0-1.188,0.965-2.15,2.152-2.15
		c1.189,0,2.15,0.963,2.15,2.15v4.728h4.73c1.188,0,2.15,0.963,2.15,2.15c0,1.188-0.963,2.15-2.15,2.15h-4.73v4.661H73.523z"/>
	<rect x="50.873" y="56.424" width="4.658" height="4.66"/>
	<rect x="50.873" y="47.461" width="4.658" height="4.661"/>
	<rect x="41.91" y="47.461" width="4.66" height="4.661"/>
	<rect x="41.91" y="56.424" width="4.66" height="4.66"/>
	<rect x="41.91" y="38.499" width="4.66" height="4.661"/>
	<rect x="59.833" y="47.461" width="4.656" height="4.661"/>
	<rect x="59.833" y="38.499" width="4.656" height="4.661"/>
	<rect x="50.873" y="38.499" width="4.658" height="4.661"/>
	<rect x="59.833" y="56.424" width="4.656" height="4.66"/>
</g>
</svg>
