<?xml version="1.0" encoding="utf-8"?>
<!-- Generator: Adobe Illustrator 16.0.0, SVG Export Plug-In . SVG Version: 6.00 Build 0)  -->
<!DOCTYPE svg PUBLIC "-//W3C//DTD SVG 1.1//EN" "http://www.w3.org/Graphics/SVG/1.1/DTD/svg11.dtd">
<svg version="1.1" id="Layer_1" xmlns="http://www.w3.org/2000/svg" xmlns:xlink="http://www.w3.org/1999/xlink" x="0px" y="0px"
	 width="100px" height="100px" viewBox="0 0 100 100" enable-background="new 0 0 100 100" xml:space="preserve">
<g>
	<path d="M49.652,63.021c0.061,0.419,0.126,0.818,0.193,1.216c0.324-0.234,0.654-0.477,0.987-0.727
		c-0.173-0.152-0.343-0.303-0.517-0.458C50.094,63.041,49.873,63.036,49.652,63.021z"/>
	<path d="M50.847,68.773c1.153,4.065,2.569,6.201,3.374,6.201c0.804,0,2.221-2.136,3.375-6.202
		c-1.104-0.732-2.232-1.555-3.374-2.441C53.08,67.22,51.949,68.042,50.847,68.773z"/>
	<path d="M58.788,44.298c-0.061-0.418-0.126-0.816-0.192-1.214c-0.326,0.233-0.653,0.475-0.986,0.726
		c0.17,0.153,0.342,0.301,0.515,0.456C58.346,44.277,58.566,44.282,58.788,44.298z"/>
	<path d="M50.833,43.81c-0.334-0.251-0.663-0.492-0.989-0.727c-0.065,0.396-0.131,0.797-0.191,1.215
		c0.221-0.016,0.444-0.021,0.666-0.032C50.49,44.112,50.66,43.963,50.833,43.81z"/>
	<path d="M39.146,38.587c-0.566,0.568-0.059,3.08,2.001,6.773c1.321-0.264,2.696-0.486,4.111-0.661
		c0.177-1.421,0.4-2.804,0.664-4.13c-2.538-1.422-4.63-2.152-5.986-2.152C39.48,38.417,39.226,38.509,39.146,38.587z"/>
	<path d="M41.55,53.66c-0.878-1.125-1.694-2.254-2.442-3.376c-4.065,1.154-6.203,2.571-6.203,3.374c0,0.802,2.138,2.221,6.207,3.374
		C39.858,55.914,40.674,54.785,41.55,53.66z"/>
	<path d="M41.15,61.959c-2.063,3.691-2.568,6.205-2.002,6.771c0.078,0.079,0.332,0.17,0.792,0.17c1.354,0,3.447-0.73,5.982-2.15
		c-0.264-1.327-0.487-2.709-0.664-4.131C43.844,62.444,42.471,62.224,41.15,61.959z"/>
	<path d="M43.654,49.282c0.23,0.326,0.465,0.652,0.716,0.988c0.15-0.168,0.306-0.333,0.457-0.499c0.011-0.227,0.017-0.455,0.03-0.68
		C44.442,49.15,44.047,49.217,43.654,49.282z"/>
	<path d="M44.37,57.051c-0.25,0.335-0.485,0.661-0.716,0.986c0.394,0.065,0.788,0.13,1.203,0.19c-0.014-0.227-0.02-0.451-0.03-0.679
		C44.676,57.383,44.521,57.219,44.37,57.051z"/>
	<path d="M57.596,38.546c-1.154-4.066-2.571-6.201-3.375-6.201c-0.805,0-2.221,2.135-3.375,6.201
		c1.104,0.732,2.233,1.554,3.375,2.444C55.363,40.1,56.491,39.279,57.596,38.546z"/>
	<path d="M69.332,50.284c-0.747,1.122-1.563,2.251-2.439,3.376c0.877,1.125,1.692,2.252,2.438,3.372
		c4.068-1.153,6.206-2.572,6.206-3.374C75.536,52.855,73.4,51.438,69.332,50.284z"/>
	<path d="M63.181,62.618c-0.177,1.423-0.399,2.804-0.664,4.132c2.538,1.42,4.631,2.15,5.986,2.151c0.458,0,0.711-0.092,0.79-0.17
		c0.566-0.567,0.059-3.081-2.002-6.772C65.97,62.222,64.597,62.442,63.181,62.618z"/>
	<path d="M63.613,57.552c-0.011,0.225-0.018,0.449-0.031,0.675c0.415-0.06,0.812-0.126,1.205-0.191
		c-0.232-0.323-0.465-0.649-0.716-0.984C63.921,57.221,63.765,57.385,63.613,57.552z"/>
	<path d="M54.222,25.293c-15.522,0-28.151,12.628-28.151,28.15c0,15.521,12.629,28.152,28.151,28.152s28.15-12.631,28.15-28.152
		C82.372,37.921,69.744,25.293,54.222,25.293z M71.62,60.864c2.348,4.555,3.027,8.596,0.714,10.909
		c-0.652,0.653-1.846,1.43-3.831,1.43c-1.932,0-4.365-0.771-7.07-2.162c-1.559,4.89-3.938,8.235-7.212,8.235
		s-5.655-3.345-7.213-8.234c-2.705,1.39-5.137,2.16-7.067,2.16c-1.986,0-3.182-0.777-3.833-1.43
		c-2.313-2.313-1.635-6.354,0.716-10.905c-4.882-1.56-8.219-3.938-8.22-7.209c0.001-3.27,3.338-5.647,8.217-7.206
		c-2.35-4.554-3.028-8.594-0.715-10.907c0.653-0.652,1.847-1.429,3.831-1.429c1.933,0,4.365,0.771,7.071,2.161
		c1.558-4.89,3.938-8.234,7.213-8.234s5.653,3.345,7.212,8.234c2.707-1.391,5.14-2.161,7.072-2.161c1.985,0,3.179,0.776,3.832,1.429
		c2.311,2.313,1.633,6.354-0.717,10.907c4.881,1.559,8.217,3.937,8.218,7.207C79.837,56.93,76.5,59.307,71.62,60.864z"/>
	<path d="M57.609,63.511c0.333,0.249,0.661,0.491,0.986,0.724c0.066-0.396,0.132-0.796,0.192-1.213
		c-0.221,0.013-0.441,0.019-0.661,0.029C57.953,63.208,57.782,63.358,57.609,63.511z"/>
	<path d="M57.896,49.983c-0.515-0.515-1.024-1.007-1.534-1.487c-0.698-0.019-1.405-0.035-2.142-0.035
		c-0.734,0-1.442,0.017-2.144,0.035c-0.507,0.48-1.017,0.973-1.531,1.487c-0.519,0.52-1.008,1.031-1.488,1.539
		c-0.02,0.697-0.035,1.403-0.035,2.137s0.016,1.44,0.035,2.14c0.48,0.508,0.967,1.017,1.487,1.536
		c0.513,0.514,1.023,1.007,1.532,1.485c0.698,0.021,1.408,0.037,2.144,0.037c0.736,0,1.444-0.016,2.145-0.037
		c0.51-0.479,1.02-0.973,1.532-1.485c0.519-0.519,1.005-1.027,1.484-1.535c0.021-0.698,0.035-1.405,0.035-2.141
		c0-0.733-0.015-1.441-0.035-2.14C58.902,51.013,58.416,50.503,57.896,49.983z"/>
	<path d="M63.582,49.092c0.014,0.225,0.021,0.451,0.031,0.677c0.151,0.169,0.308,0.333,0.458,0.502
		c0.251-0.336,0.485-0.662,0.718-0.988C64.395,49.217,63.997,49.15,63.582,49.092z"/>
	<path d="M67.293,45.36c2.06-3.693,2.567-6.205,2.001-6.773c-0.077-0.079-0.332-0.17-0.789-0.17c-1.357,0-3.45,0.73-5.988,2.152
		c0.265,1.327,0.487,2.709,0.664,4.13C64.597,44.874,65.972,45.095,67.293,45.36z"/>
</g>
</svg>
