<?xml version="1.0" encoding="utf-8"?>
<!-- Generator: Adobe Illustrator 16.0.0, SVG Export Plug-In . SVG Version: 6.00 Build 0)  -->
<!DOCTYPE svg PUBLIC "-//W3C//DTD SVG 1.1//EN" "http://www.w3.org/Graphics/SVG/1.1/DTD/svg11.dtd">
<svg version="1.1" id="Layer_1" xmlns="http://www.w3.org/2000/svg" xmlns:xlink="http://www.w3.org/1999/xlink" x="0px" y="0px"
	 width="100px" height="100px" viewBox="0 0 100 100" enable-background="new 0 0 100 100" xml:space="preserve">
<g>
	<path d="M73.511,32.97c-0.621-7.911-7.258-14.158-15.325-14.158c-6.867,0-12.842,4.51-14.753,11.048
		c-0.407,0.951-0.619,1.979-0.619,3.021v36.256c0,9.971,8.111,18.082,18.081,18.082c9.971,0,18.082-8.111,18.082-18.082V40.317
		C78.977,36.853,76.669,33.918,73.511,32.97z M73.308,69.136c0,6.845-5.568,12.413-12.413,12.413
		c-6.844,0-12.412-5.568-12.412-12.413V32.88c0-0.375,0.104-0.726,0.283-1.025c1.045-4.229,4.872-7.374,9.42-7.374
		c5.35,0,9.703,4.353,9.703,9.703v27.888c0,3.856-3.137,6.994-6.994,6.994c-3.855,0-6.993-3.138-6.993-6.994V40.319
		c0-1.104,0.896-2,2-2s2,0.896,2,2v21.753c0,1.651,1.343,2.994,2.993,2.994c1.651,0,2.994-1.343,2.994-2.994V34.184
		c0-3.145-2.559-5.703-5.703-5.703s-5.703,2.559-5.703,5.703v34.952c0,4.639,3.773,8.413,8.412,8.413s8.413-3.774,8.413-8.413
		V40.317c0-1.104,0.896-2,2-2s2,0.896,2,2V69.136z"/>
</g>
</svg>
