<?xml version="1.0" encoding="utf-8"?>
<!-- Generator: Adobe Illustrator 16.0.0, SVG Export Plug-In . SVG Version: 6.00 Build 0)  -->
<!DOCTYPE svg PUBLIC "-//W3C//DTD SVG 1.1//EN" "http://www.w3.org/Graphics/SVG/1.1/DTD/svg11.dtd">
<svg version="1.1" id="Layer_1" xmlns="http://www.w3.org/2000/svg" xmlns:xlink="http://www.w3.org/1999/xlink" x="0px" y="0px"
	 width="100px" height="100px" viewBox="0 0 100 100" enable-background="new 0 0 100 100" xml:space="preserve">
<g>
	<path d="M62.971,38.615c2.558,3.336,4.095,7.492,4.095,12.01c0,10.918-8.883,19.801-19.802,19.801s-19.802-8.883-19.802-19.801
		s8.883-19.801,19.802-19.801c4.518,0,8.673,1.539,12.009,4.096l3.348-3.348c-4.205-3.393-9.545-5.438-15.356-5.438
		c-13.505,0-24.491,10.986-24.491,24.49s10.986,24.49,24.491,24.49s24.491-10.986,24.491-24.49c0-5.813-2.044-11.15-5.438-15.354
		L62.971,38.615z"/>
	<path d="M74.044,26.865h-3.02v-3.014c0-0.865-0.701-1.564-1.564-1.564c-0.861,0-1.563,0.699-1.563,1.564v3.93l-1.466,1.465v-0.885
		c0-0.865-0.7-1.564-1.563-1.564c-0.862,0-1.563,0.699-1.563,1.564v4.012L46.158,49.52c-0.61,0.611-0.61,1.6,0,2.211
		c0.306,0.305,0.706,0.457,1.105,0.457s0.8-0.152,1.105-0.457l17.229-17.229h3.854c0.861,0,1.563-0.699,1.563-1.564
		c0-0.863-0.701-1.563-1.563-1.563h-0.728l1.384-1.383h3.936c0.862,0,1.563-0.699,1.563-1.564
		C75.607,27.564,74.906,26.865,74.044,26.865z"/>
	<path d="M60.556,41.033l-3.373,3.371l-2.499,2.498l-3.778,3.779c-0.031,1.984-1.649,3.59-3.642,3.59
		c-2.013,0-3.647-1.635-3.647-3.646c0-1.992,1.606-3.611,3.593-3.641l3.776-3.779l2.5-2.5l3.372-3.369
		c-2.702-1.957-6.011-3.125-9.594-3.125c-9.05,0-16.415,7.363-16.415,16.414s7.365,16.414,16.415,16.414s16.415-7.363,16.415-16.414
		C63.679,47.041,62.511,43.734,60.556,41.033z"/>
</g>
</svg>
