<?xml version="1.0" encoding="utf-8"?>
<!-- Generator: Adobe Illustrator 16.0.0, SVG Export Plug-In . SVG Version: 6.00 Build 0)  -->
<!DOCTYPE svg PUBLIC "-//W3C//DTD SVG 1.1//EN" "http://www.w3.org/Graphics/SVG/1.1/DTD/svg11.dtd">
<svg version="1.1" id="Layer_1" xmlns="http://www.w3.org/2000/svg" xmlns:xlink="http://www.w3.org/1999/xlink" x="0px" y="0px"
	 width="100px" height="100px" viewBox="0 0 100 100" enable-background="new 0 0 100 100" xml:space="preserve">
<path d="M66.335,68.03l-3.868-5.725c2.507-0.639,4.37-2.914,4.37-5.617V37.644c0-3.195-2.602-5.797-5.797-5.797h-0.568
	c1.727-2.01,2.779-4.615,2.779-7.467c0-6.332-5.15-11.482-11.481-11.482c-6.33,0-11.48,5.15-11.48,11.482
	c0,2.852,1.053,5.457,2.782,7.467h-0.57c-3.196,0-5.794,2.602-5.794,5.797v19.045c0,2.703,1.86,4.979,4.366,5.617l-4.023,5.959
	c-0.416,0.615-0.457,1.408-0.108,2.064c0.347,0.654,1.029,1.063,1.771,1.063h4.011v11.92c0,3.307,1.739,5.797,4.047,5.797h9.997
	c2.309,0,4.051-2.49,4.051-5.797v-11.92h4.01c0.01-0.002,0.017-0.002,0.027,0c1.108,0,2.004-0.896,2.004-2.006
	C66.861,68.864,66.661,68.388,66.335,68.03z"/>
</svg>
