<?xml version="1.0" encoding="utf-8"?>
<!-- Generator: Adobe Illustrator 16.0.0, SVG Export Plug-In . SVG Version: 6.00 Build 0)  -->
<!DOCTYPE svg PUBLIC "-//W3C//DTD SVG 1.1//EN" "http://www.w3.org/Graphics/SVG/1.1/DTD/svg11.dtd">
<svg version="1.1" id="Layer_1" xmlns="http://www.w3.org/2000/svg" xmlns:xlink="http://www.w3.org/1999/xlink" x="0px" y="0px"
	 width="100px" height="100px" viewBox="0 0 100 100" enable-background="new 0 0 100 100" xml:space="preserve">
<g>
	<polygon points="46.649,35.428 53.825,35.428 46.649,42.603 	"/>
	<polygon points="34.999,35.428 42.348,35.428 42.348,46.904 34.999,54.253 	"/>
	<polygon points="40.311,66.615 34.999,66.615 34.999,60.337 42.348,52.987 46.649,48.686 54.536,40.8 58.837,36.498 59.907,35.428 
		66.187,35.428 66.187,40.74 58.837,48.089 54.536,52.391 46.649,60.277 42.348,64.579 	"/>
	<polygon points="54.536,66.615 46.649,66.615 46.649,66.36 54.536,58.474 	"/>
	<polygon points="66.187,66.615 58.837,66.615 58.837,54.172 66.187,46.823 	"/>
</g>
</svg>
