<?xml version="1.0" encoding="utf-8"?>
<!-- Generator: Adobe Illustrator 16.0.0, SVG Export Plug-In . SVG Version: 6.00 Build 0)  -->
<!DOCTYPE svg PUBLIC "-//W3C//DTD SVG 1.1//EN" "http://www.w3.org/Graphics/SVG/1.1/DTD/svg11.dtd">
<svg version="1.1" id="Layer_1" xmlns="http://www.w3.org/2000/svg" xmlns:xlink="http://www.w3.org/1999/xlink" x="0px" y="0px"
	 width="100px" height="100px" viewBox="0 0 100 100" enable-background="new 0 0 100 100" xml:space="preserve">
<g>
	<path d="M56.961,48.604c-0.397,0-0.779,0.158-1.061,0.439l-21.64,21.641c-0.586,0.586-0.586,1.535-0.001,2.121
		c1.217,1.217,2.938,1.86,4.977,1.86l0,0c2.841,0,6.195-1.253,9.408-3.422v20.281c0,0.828,0.672,1.5,1.5,1.5s1.5-0.672,1.5-1.5
		V68.901c0.432-0.385,0.859-0.78,1.275-1.196c6.662-6.662,8.902-14.859,5.103-18.661C57.74,48.763,57.359,48.604,56.961,48.604z"/>
	<path d="M77.26,53.179c-1.033-3.354-3.288-6.885-6.348-9.944c-4.295-4.295-9.538-6.962-13.686-6.962
		c-2.038,0-3.759,0.643-4.976,1.859c-0.281,0.281-0.439,0.662-0.439,1.061c0,0.397,0.158,0.779,0.439,1.061l21.641,21.64
		c0.293,0.293,0.677,0.439,1.061,0.439s0.768-0.146,1.061-0.439C77.952,59.954,78.396,56.858,77.26,53.179z"/>
	<path d="M43.412,43.637c0.398,0,0.779-0.158,1.061-0.439l21.641-21.641c0.586-0.586,0.586-1.535,0-2.121
		c-1.217-1.217-2.938-1.859-4.976-1.859c-4.146,0-9.389,2.667-13.684,6.961c-6.661,6.662-8.903,14.858-5.103,18.66
		C42.633,43.479,43.014,43.637,43.412,43.637z"/>
	<path d="M43.146,55.97c2.038,0,3.76-0.644,4.977-1.86c0.281-0.281,0.439-0.663,0.439-1.061s-0.158-0.779-0.439-1.061L26.482,30.35
		c-0.586-0.586-1.535-0.586-2.121,0c-1.939,1.938-2.383,5.033-1.248,8.714c1.034,3.353,3.289,6.884,6.348,9.944
		C33.756,53.302,38.999,55.97,43.146,55.97C43.146,55.97,43.146,55.97,43.146,55.97z"/>
	<path d="M50.145,51.358c2.573,0,4.667-2.094,4.667-4.667s-2.094-4.667-4.667-4.667s-4.667,2.094-4.667,4.667
		S47.571,51.358,50.145,51.358z"/>
</g>
</svg>
