<?xml version="1.0" encoding="utf-8"?>
<!-- Generator: Adobe Illustrator 16.0.0, SVG Export Plug-In . SVG Version: 6.00 Build 0)  -->
<!DOCTYPE svg PUBLIC "-//W3C//DTD SVG 1.1//EN" "http://www.w3.org/Graphics/SVG/1.1/DTD/svg11.dtd">
<svg version="1.1" id="Layer_1" xmlns="http://www.w3.org/2000/svg" xmlns:xlink="http://www.w3.org/1999/xlink" x="0px" y="0px"
	 width="100px" height="100px" viewBox="0 0 100 100" enable-background="new 0 0 100 100" xml:space="preserve">
<g>
	<path d="M39.909,75.61c-1.783-2.457-4.711-4.361-8.237-5.278V69.63c0.355,0.098,0.716,0.158,1.079,0.158
		c2.956,0,4.955-3.251,5.04-3.39c0.115-0.192,0.123-0.431,0.02-0.631c-0.104-0.199-0.304-0.331-0.527-0.346
		c-0.645-0.042-1.18-0.322-1.632-0.857c-0.654-0.778-1.047-1.962-1.28-3.232c0.736-1.827,1.219-3.63,1.219-5.218
		c0-5.938-2.957-10.905-7.01-12.01c-2.728-0.271-3.472-0.127-4.447,0.399c-3.554,1.659-5.939,6.322-5.939,11.61
		c0,1.566,0.473,3.337,1.19,5.14c-0.236,1.325-0.632,2.538-1.281,3.309c-0.453,0.537-0.985,0.817-1.63,0.859
		c-0.226,0.015-0.426,0.146-0.53,0.347c-0.103,0.199-0.096,0.438,0.021,0.63c0.084,0.139,2.084,3.39,5.037,3.39h0.002
		c0.393,0,0.779-0.066,1.165-0.18v0.708c-3.548,0.912-6.495,2.824-8.292,5.294C6.963,71.265,2.346,63.59,2.346,54.839
		c0-13.534,11.013-24.546,24.549-24.546c8.32,0,15.678,4.173,20.119,10.526c0.934,1.337,1.741,2.765,2.397,4.274
		c1.298,2.991,2.028,6.283,2.028,9.745c0,2.92-0.525,5.715-1.467,8.311c-0.559,1.546-1.273,3.021-2.12,4.406
		C45.863,70.813,43.143,73.578,39.909,75.61z"/>
	<path d="M85.497,74.172c-1.784-2.459-4.711-4.362-8.237-5.28v-3.702c2.021-3.37,3.919-7.363,3.919-10.516
		c0-5.938-2.958-10.904-7.011-12.008c0.459-1.457-0.355-2.744-0.396-2.809c-0.143-0.224-0.408-0.339-0.672-0.281
		c-0.262,0.055-0.46,0.262-0.506,0.525c-0.204,1.221-1.899,2.436-2.873,2.962c-3.556,1.66-5.94,6.323-5.94,11.61
		c0,3.18,1.933,7.214,3.974,10.604v3.6c-3.548,0.912-6.496,2.823-8.294,5.295c-2.793-1.758-5.202-4.066-7.093-6.761
		c1.881-3.793,2.938-8.062,2.938-12.572c0-5.148-1.384-9.976-3.787-14.146c4.313-7.083,12.081-11.84,20.964-11.84
		c13.534,0,24.545,11.011,24.545,24.547C97.027,62.15,92.409,69.824,85.497,74.172z"/>
</g>
</svg>
