<?xml version="1.0" encoding="utf-8"?>
<!-- Generator: Adobe Illustrator 16.0.0, SVG Export Plug-In . SVG Version: 6.00 Build 0)  -->
<!DOCTYPE svg PUBLIC "-//W3C//DTD SVG 1.1//EN" "http://www.w3.org/Graphics/SVG/1.1/DTD/svg11.dtd">
<svg version="1.1" id="Layer_1" xmlns="http://www.w3.org/2000/svg" xmlns:xlink="http://www.w3.org/1999/xlink" x="0px" y="0px"
	 width="100px" height="100px" viewBox="0 0 100 100" enable-background="new 0 0 100 100" xml:space="preserve">
<path d="M50.467,22.376c-15.355,0-27.851,12.493-27.851,27.85c0,15.357,12.495,27.852,27.851,27.852
	c15.358,0,27.851-12.494,27.851-27.852C78.318,34.869,65.826,22.376,50.467,22.376z M62.521,44.52L47.934,59.106
	c-0.438,0.438-1.015,0.658-1.587,0.658c-0.576,0-1.148-0.22-1.587-0.658l-6.344-6.344c-0.877-0.877-0.877-2.297,0-3.174
	s2.297-0.877,3.174,0l4.757,4.758l13.001-13.001c0.876-0.876,2.296-0.876,3.173,0C63.398,42.223,63.398,43.643,62.521,44.52z"/>
</svg>
