<?xml version="1.0" encoding="utf-8"?>
<!-- Generator: Adobe Illustrator 16.0.0, SVG Export Plug-In . SVG Version: 6.00 Build 0)  -->
<!DOCTYPE svg PUBLIC "-//W3C//DTD SVG 1.1//EN" "http://www.w3.org/Graphics/SVG/1.1/DTD/svg11.dtd">
<svg version="1.1" id="Layer_1" xmlns="http://www.w3.org/2000/svg" xmlns:xlink="http://www.w3.org/1999/xlink" x="0px" y="0px"
	 width="100px" height="100px" viewBox="0 0 100 100" enable-background="new 0 0 100 100" xml:space="preserve">
<path d="M68.799,7.74c0-0.313-0.09-0.598-0.219-0.863C68.708,7.143,68.799,7.428,68.799,7.74z"/>
<g>
	<path d="M76.609,11.865c-1.106,0-2.004,0.898-2.004,2.006v7.801H27.964v-7.801c0-1.107-0.896-2.006-2.004-2.006
		c-1.108,0-2.006,0.898-2.006,2.006v19.611c0,1.107,0.897,2.006,2.006,2.006c1.108,0,2.004-0.898,2.004-2.006v-7.801h3.352
		c-0.052,0.146-0.09,0.299-0.09,0.461v17.311v2.451c0,0.717,0.569,1.318,1.356,1.543h1.321h5.729h2.241v0.014v21.123H31.679
		c-3.144,0-5.704,2.549-5.719,5.691v14.117c0,3.156,2.564,5.721,5.721,5.721c3.152,0,5.72-2.564,5.72-5.721v-8.367h4.474h4.01h5.037
		h5.036h4.01h4.696v8.367c0,3.156,2.568,5.721,5.72,5.721c3.155,0,5.721-2.564,5.721-5.721V74.307c0-3.156-2.566-5.723-5.719-5.723
		H59.968V47.461v-0.012h2.266h6.117h1.314c0.791-0.223,1.36-0.826,1.36-1.545v-2.451V26.143c0-0.162-0.037-0.314-0.09-0.461h3.67
		v7.801c0,1.107,0.898,2.006,2.004,2.006c1.108,0,2.006-0.898,2.006-2.006V13.871C78.615,12.764,77.718,11.865,76.609,11.865z
		 M35.26,43.453V26.143c0-0.162-0.037-0.314-0.09-0.461h10.709c-3.807,1.873-6.439,5.779-6.439,10.299
		c0,2.664,0.927,5.107,2.456,7.059c-0.007,0.084-0.021,0.162-0.021,0.248v0.164l0,0L35.26,43.453z M66.991,26.143v17.311h-7.023
		v-0.002v-0.07c0-0.115-0.016-0.225-0.028-0.334c1.533-1.951,2.463-4.396,2.463-7.066c0-4.52-2.632-8.426-6.439-10.299h11.12
		C67.03,25.828,66.991,25.98,66.991,26.143z"/>
	<path d="M81.067,11.865c-1.108,0-2.006,0.898-2.006,2.006v19.611c0,1.107,0.897,2.006,2.006,2.006c1.108,0,2.007-0.898,2.007-2.006
		V13.871C83.074,12.764,82.175,11.865,81.067,11.865z"/>
	<path d="M85.566,11.865c-1.11,0-2.004,0.898-2.004,2.006v19.611c0,1.107,0.895,2.006,2.004,2.006c1.108,0,2.005-0.898,2.005-2.006
		V13.871C87.571,12.764,86.674,11.865,85.566,11.865z"/>
	<path d="M17.005,11.865c-1.109,0-2.007,0.898-2.007,2.006v19.611c0,1.107,0.897,2.006,2.007,2.006c1.108,0,2.004-0.898,2.004-2.006
		V13.871C19.009,12.764,18.113,11.865,17.005,11.865z"/>
	<path d="M21.46,11.865c-1.107,0-2.006,0.898-2.006,2.006v19.611c0,1.107,0.899,2.006,2.006,2.006c1.106,0,2.006-0.898,2.006-2.006
		V13.871C23.466,12.764,22.566,11.865,21.46,11.865z"/>
</g>
</svg>
