<?xml version="1.0" encoding="utf-8"?>
<!-- Generator: Adobe Illustrator 16.0.0, SVG Export Plug-In . SVG Version: 6.00 Build 0)  -->
<!DOCTYPE svg PUBLIC "-//W3C//DTD SVG 1.1//EN" "http://www.w3.org/Graphics/SVG/1.1/DTD/svg11.dtd">
<svg version="1.1" id="Layer_1" xmlns="http://www.w3.org/2000/svg" xmlns:xlink="http://www.w3.org/1999/xlink" x="0px" y="0px"
	 width="100px" height="100px" viewBox="0 0 100 100" enable-background="new 0 0 100 100" xml:space="preserve">
<path d="M79.218,68.961L54.513,28.863c-0.407-0.663-1.132-1.066-1.909-1.066c-0.78,0-1.502,0.403-1.911,1.066L25.819,69.234
	c-0.427,0.692-0.445,1.562-0.05,2.271c0.397,0.711,1.146,1.15,1.961,1.15h49.746c0.009-0.002,0.018-0.002,0.029,0
	c1.239,0,2.244-1.006,2.244-2.244C79.75,69.857,79.55,69.353,79.218,68.961z M51.131,41.156h2.944v17.883h-2.944V41.156z
	 M54.059,65.58c-0.433,0.406-0.919,0.612-1.457,0.612c-0.537,0-1.022-0.206-1.455-0.612c-0.431-0.412-0.647-0.907-0.647-1.493
	c0-0.583,0.205-1.078,0.614-1.49c0.407-0.407,0.903-0.612,1.488-0.612c0.583,0,1.083,0.205,1.492,0.612
	c0.407,0.412,0.613,0.907,0.613,1.49C54.707,64.673,54.489,65.168,54.059,65.58z"/>
</svg>
