<?xml version="1.0" encoding="utf-8"?>
<!-- Generator: Adobe Illustrator 16.0.0, SVG Export Plug-In . SVG Version: 6.00 Build 0)  -->
<!DOCTYPE svg PUBLIC "-//W3C//DTD SVG 1.1//EN" "http://www.w3.org/Graphics/SVG/1.1/DTD/svg11.dtd">
<svg version="1.1" id="Layer_1" xmlns="http://www.w3.org/2000/svg" xmlns:xlink="http://www.w3.org/1999/xlink" x="0px" y="0px"
	 width="100px" height="100px" viewBox="0 0 100 100" enable-background="new 0 0 100 100" xml:space="preserve">
<g>
	<path d="M51.688,27.01c-9.758,0-18.131,6.011-21.636,14.519h22.714l-1.719-1.719c-0.847-0.847-0.847-2.219,0-3.066
		c0.847-0.847,2.219-0.847,3.066,0l5.42,5.419l0.003,0.003l1.53,1.531l-1.53,1.532l-0.003,0.003l-5.059,5.057
		c-0.423,0.424-0.977,0.636-1.533,0.636c-0.553,0-1.109-0.212-1.533-0.636c-0.847-0.847-0.847-2.219,0-3.065l1.357-1.357H29.183
		c-0.15,0-0.293-0.016-0.435-0.044c-0.296,1.484-0.458,3.017-0.458,4.587c0,12.901,10.496,23.397,23.397,23.397
		c9.275,0,17.283-5.437,21.065-13.279H50.633l1.719,1.719c0.847,0.848,0.847,2.22,0,3.066c-0.424,0.424-0.979,0.635-1.533,0.635
		s-1.109-0.211-1.533-0.635l-5.419-5.419c-0.001-0.001-0.001-0.003-0.001-0.003l-1.533-1.531l1.531-1.531
		c0,0,0.001-0.002,0.003-0.003l5.058-5.058c0.847-0.847,2.219-0.847,3.065,0c0.847,0.847,0.847,2.219,0,3.065l-1.357,1.358h23.583
		c0.04,0,0.076,0.01,0.114,0.011c0.476-1.855,0.755-3.79,0.755-5.793C75.086,37.507,64.59,27.01,51.688,27.01z"/>
	<path d="M51.688,19.875c-16.614,0-30.083,13.469-30.083,30.083c0,16.613,13.469,30.082,30.083,30.082s30.083-13.469,30.083-30.082
		C81.771,33.343,68.302,19.875,51.688,19.875z M51.688,77.818c-15.113,0-27.409-12.296-27.409-27.409
		C24.279,35.296,36.575,23,51.688,23c15.115,0,27.409,12.297,27.409,27.409C79.098,65.522,66.803,77.818,51.688,77.818z"/>
</g>
</svg>
