<?xml version="1.0" encoding="utf-8"?>
<!-- Generator: Adobe Illustrator 16.0.0, SVG Export Plug-In . SVG Version: 6.00 Build 0)  -->
<!DOCTYPE svg PUBLIC "-//W3C//DTD SVG 1.1//EN" "http://www.w3.org/Graphics/SVG/1.1/DTD/svg11.dtd">
<svg version="1.1" id="Layer_1" xmlns="http://www.w3.org/2000/svg" xmlns:xlink="http://www.w3.org/1999/xlink" x="0px" y="0px"
	 width="100px" height="100px" viewBox="0 0 100 100" enable-background="new 0 0 100 100" xml:space="preserve">
<path d="M73.448,55.912c-0.718-0.718-1.675-1.115-2.692-1.115c-0.432,0-0.854,0.072-1.25,0.209V48.88
	c0-7.027-9.913-10.705-19.707-10.705c-9.793,0-19.706,3.678-19.706,10.705v14.783c0,2.099,1.708,3.807,3.807,3.807
	c2.099,0,3.807-1.708,3.807-3.807V49.044c0.532-0.812,4.308-3.255,12.092-3.255c7.785,0,11.561,2.443,12.093,3.255v5.749
	c-0.5-0.234-1.047-0.357-1.615-0.357c-1.016,0-1.973,0.397-2.692,1.115c-1.485,1.485-1.485,3.898,0,5.384l8.112,8.112l7.75-7.751
	c0.718-0.719,1.115-1.676,1.115-2.691C74.563,57.588,74.166,56.631,73.448,55.912z M72.289,60.137l-5.051,5.051
	c-0.005,0.006-0.01,0.01-0.016,0.016l-1.525,1.525l-6.953-6.953c-0.847-0.847-0.847-2.219,0-3.065c0.847-0.847,2.219-0.847,3.065,0
	l1.721,1.721V48.88c0-1.604-4.847-4.729-13.731-4.729c-8.884,0-13.731,3.125-13.731,4.729v14.783c0,1.197-0.971,2.168-2.168,2.168
	c-1.197,0-2.168-0.971-2.168-2.168V48.88c0-5.889,9.309-9.066,18.067-9.066c8.759,0,18.068,3.178,18.068,9.066v9.548l1.356-1.356
	c0.847-0.847,2.219-0.847,3.066,0C73.136,57.918,73.136,59.29,72.289,60.137z"/>
</svg>
