<?xml version="1.0" encoding="utf-8"?>
<!-- Generator: Adobe Illustrator 16.0.0, SVG Export Plug-In . SVG Version: 6.00 Build 0)  -->
<!DOCTYPE svg PUBLIC "-//W3C//DTD SVG 1.1//EN" "http://www.w3.org/Graphics/SVG/1.1/DTD/svg11.dtd">
<svg version="1.1" id="Layer_1" xmlns="http://www.w3.org/2000/svg" xmlns:xlink="http://www.w3.org/1999/xlink" x="0px" y="0px"
	 width="100px" height="100px" viewBox="0 0 100 100" enable-background="new 0 0 100 100" xml:space="preserve">
<path d="M26.952,27.936v48.752h48.751V27.936H26.952z M70.603,55.896H54.829v15.773c0,1.98-1.604,3.584-3.584,3.584
	s-3.585-1.604-3.585-3.584V55.896H31.888c-1.98,0-3.585-1.604-3.585-3.584s1.604-3.585,3.585-3.585H47.66V32.954
	c0-1.98,1.605-3.584,3.585-3.584s3.584,1.604,3.584,3.584v15.773h15.773c1.979,0,3.585,1.605,3.585,3.585
	S72.582,55.896,70.603,55.896z"/>
</svg>
