<?xml version="1.0" encoding="utf-8"?>
<!-- Generator: Adobe Illustrator 16.0.0, SVG Export Plug-In . SVG Version: 6.00 Build 0)  -->
<!DOCTYPE svg PUBLIC "-//W3C//DTD SVG 1.1//EN" "http://www.w3.org/Graphics/SVG/1.1/DTD/svg11.dtd">
<svg version="1.1" id="Layer_1" xmlns="http://www.w3.org/2000/svg" xmlns:xlink="http://www.w3.org/1999/xlink" x="0px" y="0px"
	 width="100px" height="100px" viewBox="0 0 100 100" enable-background="new 0 0 100 100" xml:space="preserve">
<g>
	<path d="M52.154,52.348c0.858,0.171,1.551,0.803,1.795,1.643l0.953,3.252l4.742-11.414l-11.177,5.788L52.154,52.348z"/>
	<path d="M52.778,24.12c-15.474,0-28.06,12.587-28.06,28.059c0,15.474,12.586,28.061,28.06,28.061
		c15.472,0,28.059-12.587,28.059-28.061C80.837,36.707,68.25,24.12,52.778,24.12z M66.444,41.688l-9.762,23.491
		c-0.363,0.879-1.221,1.446-2.165,1.446c-0.043,0-0.085-0.001-0.128-0.003c-0.992-0.055-1.844-0.729-2.122-1.684l-2.418-8.264
		l-8.864-1.757c-0.978-0.194-1.726-0.985-1.866-1.971c-0.141-0.986,0.359-1.954,1.243-2.412l22.836-11.828
		c0.876-0.455,1.942-0.31,2.666,0.356C66.59,39.729,66.821,40.777,66.444,41.688z"/>
</g>
</svg>
