<?xml version="1.0" encoding="utf-8"?>
<!-- Generator: Adobe Illustrator 16.0.0, SVG Export Plug-In . SVG Version: 6.00 Build 0)  -->
<!DOCTYPE svg PUBLIC "-//W3C//DTD SVG 1.1//EN" "http://www.w3.org/Graphics/SVG/1.1/DTD/svg11.dtd">
<svg version="1.1" id="Layer_1" xmlns="http://www.w3.org/2000/svg" xmlns:xlink="http://www.w3.org/1999/xlink" x="0px" y="0px"
	 width="100px" height="100px" viewBox="0 0 100 100" enable-background="new 0 0 100 100" xml:space="preserve">
<path d="M63.931,76.545c-1.914-2.637-5.055-4.68-8.838-5.664v-0.753c0.381,0.104,0.766,0.17,1.157,0.17
	c3.171,0,5.317-3.488,5.407-3.637c0.125-0.207,0.133-0.463,0.021-0.678c-0.111-0.213-0.326-0.354-0.567-0.37
	c-0.691-0.046-1.264-0.347-1.749-0.921c-0.703-0.835-1.124-2.104-1.376-3.468c0.792-1.961,1.311-3.896,1.311-5.599
	c0-6.372-3.173-11.701-7.521-12.885c-2.927-0.293-3.728-0.138-4.772,0.427c-3.813,1.78-6.373,6.784-6.373,12.458
	c0,1.68,0.508,3.581,1.277,5.514c-0.254,1.423-0.678,2.725-1.375,3.551c-0.486,0.576-1.059,0.877-1.75,0.923
	c-0.24,0.017-0.456,0.157-0.566,0.372c-0.111,0.213-0.104,0.469,0.021,0.676c0.089,0.148,2.236,3.637,5.404,3.637h0.002
	c0.421,0,0.838-0.07,1.25-0.193v0.76c-3.807,0.979-6.97,3.031-8.898,5.681c-7.416-4.663-12.369-12.897-12.369-22.287
	c0-14.522,11.816-26.338,26.34-26.338c14.521,0,26.337,11.815,26.337,26.338C76.303,63.647,71.347,71.882,63.931,76.545z"/>
</svg>
