<?xml version="1.0" encoding="utf-8"?>
<!-- Generator: Adobe Illustrator 16.0.0, SVG Export Plug-In . SVG Version: 6.00 Build 0)  -->
<!DOCTYPE svg PUBLIC "-//W3C//DTD SVG 1.1//EN" "http://www.w3.org/Graphics/SVG/1.1/DTD/svg11.dtd">
<svg version="1.1" id="Layer_1" xmlns="http://www.w3.org/2000/svg" xmlns:xlink="http://www.w3.org/1999/xlink" x="0px" y="0px"
	 width="100px" height="100px" viewBox="0 0 100 100" enable-background="new 0 0 100 100" xml:space="preserve">
<path d="M67.621,59.061c-3.012,0-5.738,1.246-7.695,3.248L43.01,52.434c0.277-0.954,0.434-1.958,0.434-3.001
	c0-0.994-0.146-1.953-0.398-2.867l16.787-9.511c1.964,2.06,4.726,3.35,7.789,3.35c5.942,0,10.777-4.833,10.777-10.777
	c0-5.942-4.835-10.775-10.777-10.775c-5.941,0-10.776,4.833-10.776,10.775c0,0.994,0.146,1.953,0.399,2.869l-16.787,9.512
	c-1.963-2.061-4.726-3.351-7.789-3.351c-5.942,0-10.775,4.833-10.775,10.777c0,5.942,4.833,10.775,10.775,10.775
	c3.014,0,5.738-1.246,7.697-3.247l16.914,9.875c-0.277,0.954-0.435,1.96-0.435,3.001c0,5.943,4.835,10.776,10.776,10.776
	c5.942,0,10.777-4.833,10.777-10.776C78.398,63.895,73.563,59.061,67.621,59.061z"/>
</svg>
