<?xml version="1.0" encoding="utf-8"?>
<!-- Generator: Adobe Illustrator 16.0.0, SVG Export Plug-In . SVG Version: 6.00 Build 0)  -->
<!DOCTYPE svg PUBLIC "-//W3C//DTD SVG 1.1//EN" "http://www.w3.org/Graphics/SVG/1.1/DTD/svg11.dtd">
<svg version="1.1" id="Layer_1" xmlns="http://www.w3.org/2000/svg" xmlns:xlink="http://www.w3.org/1999/xlink" x="0px" y="0px"
	 width="100px" height="100px" viewBox="0 0 100 100" enable-background="new 0 0 100 100" xml:space="preserve">
<g>
	<path d="M52.702,50.568c-1.35,0-2.445,1.096-2.445,2.444c0,1.346,1.096,2.442,2.445,2.442c1.347,0,2.443-1.096,2.443-2.442
		C55.146,51.664,54.049,50.568,52.702,50.568z"/>
	<path d="M82.644,50.122l-10.763-5.887l3.447-11.772c0.241-0.823,0.015-1.711-0.593-2.317c-0.604-0.606-1.492-0.837-2.316-0.593
		l-11.771,3.449l-5.889-10.765c-0.41-0.752-1.2-1.22-2.057-1.22c-0.857,0-1.646,0.467-2.059,1.22L44.757,33l-11.773-3.449
		c-0.823-0.244-1.712-0.014-2.318,0.593c-0.605,0.606-0.833,1.495-0.592,2.317l3.447,11.774l-10.764,5.887
		c-0.751,0.412-1.219,1.201-1.219,2.058c0,0.857,0.468,1.646,1.219,2.058l10.764,5.887l-3.447,11.772
		c-0.241,0.823-0.014,1.711,0.592,2.317c0.446,0.446,1.045,0.687,1.658,0.687c0.221,0,0.443-0.03,0.66-0.094l11.773-3.449
		l5.887,10.765c0.412,0.752,1.201,1.22,2.059,1.22c0.856,0,1.646-0.467,2.057-1.22l5.889-10.765l11.773,3.449
		c0.217,0.064,0.438,0.094,0.658,0.094c0.612,0,1.213-0.241,1.658-0.687c0.605-0.606,0.834-1.495,0.592-2.317l-3.448-11.772
		l10.763-5.887c0.752-0.412,1.221-1.201,1.221-2.058C83.864,51.323,83.396,50.534,82.644,50.122z M52.702,60.145
		c-3.935,0-7.136-3.2-7.136-7.133c0-3.935,3.201-7.135,7.136-7.135c3.933,0,7.133,3.2,7.133,7.135
		C59.835,56.945,56.635,60.145,52.702,60.145z"/>
</g>
</svg>
