<?xml version="1.0" encoding="utf-8"?>
<!-- Generator: Adobe Illustrator 16.0.0, SVG Export Plug-In . SVG Version: 6.00 Build 0)  -->
<!DOCTYPE svg PUBLIC "-//W3C//DTD SVG 1.1//EN" "http://www.w3.org/Graphics/SVG/1.1/DTD/svg11.dtd">
<svg version="1.1" id="Layer_1" xmlns="http://www.w3.org/2000/svg" xmlns:xlink="http://www.w3.org/1999/xlink" x="0px" y="0px"
	 width="100px" height="100px" viewBox="0 0 100 100" enable-background="new 0 0 100 100" xml:space="preserve">
<path d="M70.575,35.602l-39.475-14.09c-0.721-0.258-1.518-0.146-2.141,0.293c-0.622,0.438-0.993,1.154-0.993,1.916v48.765
	c0,0.762,0.371,1.478,0.993,1.916c0.4,0.283,0.874,0.429,1.352,0.429c0.266,0,0.533-0.044,0.789-0.136l10.138-3.619
	c2.415,4.264,6.968,7.011,11.973,7.011c7.597,0,13.775-6.181,13.775-13.776c0-0.786-0.069-1.572-0.208-2.351l3.797-1.356
	c0.934-0.334,1.557-1.218,1.557-2.209V37.811C72.132,36.82,71.509,35.937,70.575,35.602z M62.265,63.572
	c0.021,0.246,0.031,0.493,0.031,0.74c0,5.009-4.074,9.085-9.085,9.085c-3.021,0-5.797-1.515-7.468-3.93l11.529-4.115L62.265,63.572z
	"/>
</svg>
