<?xml version="1.0" encoding="utf-8"?>
<!-- Generator: Adobe Illustrator 16.0.0, SVG Export Plug-In . SVG Version: 6.00 Build 0)  -->
<!DOCTYPE svg PUBLIC "-//W3C//DTD SVG 1.1//EN" "http://www.w3.org/Graphics/SVG/1.1/DTD/svg11.dtd">
<svg version="1.1" id="Layer_1" xmlns="http://www.w3.org/2000/svg" xmlns:xlink="http://www.w3.org/1999/xlink" x="0px" y="0px"
	 width="100px" height="100px" viewBox="0 0 100 100" enable-background="new 0 0 100 100" xml:space="preserve">
<g>
	<path d="M71.442,42.73l-4.66-6.734c-0.402-0.58-1.063-0.927-1.77-0.927h-9.307v-0.718c0-1.187-0.962-2.149-2.15-2.149
		c-1.188,0-2.15,0.963-2.15,2.149v0.718H37.439c-1.188,0-2.15,0.964-2.15,2.15v13.085c0,1.187,0.962,2.15,2.15,2.15h13.966v13.084
		H45.4c-1.188,0-2.15,0.964-2.15,2.151c0,1.188,0.963,2.15,2.15,2.15h16.311c1.188,0,2.15-0.962,2.15-2.15
		c0-1.188-0.962-2.151-2.15-2.151h-6.005V52.455h9.307c0.686,0,1.329-0.326,1.733-0.877l4.66-6.352
		C71.95,44.487,71.964,43.485,71.442,42.73z"/>
</g>
</svg>
