<?xml version="1.0" encoding="utf-8"?>
<!-- Generator: Adobe Illustrator 16.0.0, SVG Export Plug-In . SVG Version: 6.00 Build 0)  -->
<!DOCTYPE svg PUBLIC "-//W3C//DTD SVG 1.1//EN" "http://www.w3.org/Graphics/SVG/1.1/DTD/svg11.dtd">
<svg version="1.1" id="Layer_1" xmlns="http://www.w3.org/2000/svg" xmlns:xlink="http://www.w3.org/1999/xlink" x="0px" y="0px"
	 width="100px" height="100px" viewBox="0 0 100 100" enable-background="new 0 0 100 100" xml:space="preserve">
<g>
	<g>
		<path d="M75.083,55.931c-0.292-0.735-1.124-1.098-1.86-0.805l-17.8,7.039c-1.225-2.763-3.987-4.698-7.198-4.698
			c-0.229,0-0.453,0.016-0.678,0.034L37.362,29.776c-0.262-0.714-1.028-1.1-1.761-0.879l-9.766,2.961
			c-0.758,0.229-1.187,1.03-0.957,1.788s1.028,1.184,1.789,0.956l8.47-2.567l9.64,26.238c-2.614,1.281-4.422,3.961-4.422,7.063
			c0,4.338,3.529,7.871,7.869,7.871s7.87-3.533,7.87-7.871c0-0.118-0.012-0.231-0.017-0.348l18.198-7.198
			C75.013,57.5,75.373,56.667,75.083,55.931z M48.225,69.656c-2.382,0-4.318-1.938-4.318-4.319s1.937-4.319,4.318-4.319
			s4.318,1.938,4.318,4.319S50.606,69.656,48.225,69.656z"/>
		<circle cx="48.225" cy="65.337" r="1.451"/>
	</g>
	<polygon points="67.293,53.88 56.681,57.871 52.69,47.26 61.736,43.86 61.738,43.858 63.304,43.271 	"/>
	<rect x="49.97" y="35.159" transform="matrix(-0.352 -0.936 0.936 -0.352 36.3585 103.7224)" width="8.23" height="8.231"/>
</g>
</svg>
