<?xml version="1.0" encoding="utf-8"?>
<!-- Generator: Adobe Illustrator 16.0.0, SVG Export Plug-In . SVG Version: 6.00 Build 0)  -->
<!DOCTYPE svg PUBLIC "-//W3C//DTD SVG 1.1//EN" "http://www.w3.org/Graphics/SVG/1.1/DTD/svg11.dtd">
<svg version="1.1" id="Layer_1" xmlns="http://www.w3.org/2000/svg" xmlns:xlink="http://www.w3.org/1999/xlink" x="0px" y="0px"
	 width="100px" height="100px" viewBox="0 0 100 100" enable-background="new 0 0 100 100" xml:space="preserve">
<path d="M65.471,25.942H34.532c-2.517,0-4.563,2.046-4.563,4.56v46.745c0,0.777,0.385,1.502,1.026,1.939s1.458,0.53,2.182,0.243
	l16.823-6.647l16.824,6.647c0.277,0.11,0.57,0.164,0.861,0.164c0.463,0,0.925-0.137,1.318-0.406
	c0.643-0.437,1.026-1.162,1.026-1.939V30.502C70.031,27.988,67.985,25.942,65.471,25.942z M57.819,51.747l-4.088,2.971l1.561,4.806
	c0.104,0.322-0.01,0.675-0.283,0.874c-0.139,0.099-0.3,0.149-0.46,0.149c-0.161,0-0.322-0.05-0.46-0.149l-4.088-2.97l-4.088,2.97
	c-0.274,0.198-0.645,0.198-0.918,0c-0.273-0.199-0.391-0.551-0.285-0.874l1.563-4.806l-4.089-2.971
	c-0.274-0.199-0.388-0.551-0.284-0.874c0.104-0.322,0.404-0.541,0.744-0.541h5.053l1.563-4.804c0.207-0.645,1.275-0.645,1.486,0
	l1.561,4.804h5.054c0.339,0,0.638,0.219,0.743,0.541C58.208,51.195,58.093,51.548,57.819,51.747z"/>
</svg>
