<?xml version="1.0" encoding="utf-8"?>
<!-- Generator: Adobe Illustrator 16.0.0, SVG Export Plug-In . SVG Version: 6.00 Build 0)  -->
<!DOCTYPE svg PUBLIC "-//W3C//DTD SVG 1.1//EN" "http://www.w3.org/Graphics/SVG/1.1/DTD/svg11.dtd">
<svg version="1.1" id="Layer_1" xmlns="http://www.w3.org/2000/svg" xmlns:xlink="http://www.w3.org/1999/xlink" x="0px" y="0px"
	 width="100px" height="100px" viewBox="0 0 100 100" enable-background="new 0 0 100 100" xml:space="preserve">
<path d="M59.269,33.406h-0.569c1.729-2.01,2.781-4.615,2.781-7.467c0-6.332-5.152-11.482-11.481-11.482
	c-6.331,0-11.479,5.15-11.479,11.482c0,2.852,1.053,5.457,2.78,7.467H40.73c-3.195,0-5.794,2.602-5.794,5.797v19.045
	c0,3.195,2.599,5.795,5.794,5.795h0.223v20.828c0,3.307,1.74,5.797,4.047,5.797h9.997c2.31,0,4.05-2.49,4.05-5.797V64.043h0.222
	c3.194,0,5.796-2.6,5.796-5.795V39.203C65.064,36.008,62.463,33.406,59.269,33.406z"/>
</svg>
