<?xml version="1.0" encoding="utf-8"?>
<!-- Generator: Adobe Illustrator 16.0.0, SVG Export Plug-In . SVG Version: 6.00 Build 0)  -->
<!DOCTYPE svg PUBLIC "-//W3C//DTD SVG 1.1//EN" "http://www.w3.org/Graphics/SVG/1.1/DTD/svg11.dtd">
<svg version="1.1" id="Layer_1" xmlns="http://www.w3.org/2000/svg" xmlns:xlink="http://www.w3.org/1999/xlink" x="0px" y="0px"
	 width="100px" height="100px" viewBox="0 0 100 100" enable-background="new 0 0 100 100" xml:space="preserve">
<g>
	<path d="M49.634,63.277c10.076,0,18.273-8.197,18.273-18.272c0-10.076-8.197-18.273-18.273-18.273S31.36,34.928,31.36,45.004
		C31.36,55.08,39.558,63.277,49.634,63.277z"/>
	<path d="M67.217,62.587c9.724-9.724,9.725-25.546,0.001-35.271c-0.781-0.781-2.049-0.781-2.828,0c-0.781,0.781-0.781,2.047,0,2.828
		c8.164,8.165,8.164,21.449-0.001,29.614c-8.164,8.164-21.448,8.164-29.614,0c-0.781-0.781-2.047-0.781-2.828,0
		s-0.781,2.047,0,2.828c4.631,4.63,10.644,7.051,16.723,7.271v2.417h-5.084c-1.104,0-2,0.896-2,2s0.896,2,2,2h14.167
		c1.104,0,2-0.896,2-2s-0.896-2-2-2h-5.083v-2.593C57.99,69.025,63.14,66.664,67.217,62.587z"/>
</g>
</svg>
