<?xml version="1.0" encoding="utf-8"?>
<!-- Generator: Adobe Illustrator 16.0.0, SVG Export Plug-In . SVG Version: 6.00 Build 0)  -->
<!DOCTYPE svg PUBLIC "-//W3C//DTD SVG 1.1//EN" "http://www.w3.org/Graphics/SVG/1.1/DTD/svg11.dtd">
<svg version="1.1" id="Layer_1" xmlns="http://www.w3.org/2000/svg" xmlns:xlink="http://www.w3.org/1999/xlink" x="0px" y="0px"
	 width="100px" height="100px" viewBox="0 0 100 100" enable-background="new 0 0 100 100" xml:space="preserve">
<path d="M76.125,33.288l-9.507-10.221c-1.064-1.143-2.811-1.328-4.088-0.428L45.458,34.653c-0.597-0.068-1.191-0.104-1.775-0.104
	c-7.396,0-11.374,5.393-11.539,5.621c-0.895,1.238-0.763,2.939,0.312,4.027l9.82,9.945L26.421,69.997
	c-1.221,1.221-1.221,3.199,0,4.42c0.611,0.611,1.411,0.916,2.211,0.916c0.8,0,1.6-0.305,2.21-0.916l15.826-15.824l9.147,9.26
	c0.603,0.613,1.409,0.93,2.224,0.93c0.543,0,1.09-0.141,1.583-0.43c5.003-2.938,4.831-11.682,4.432-15.859l12.212-15.111
	C77.245,36.173,77.184,34.429,76.125,33.288z"/>
</svg>
