<?xml version="1.0" encoding="utf-8"?>
<!-- Generator: Adobe Illustrator 16.0.0, SVG Export Plug-In . SVG Version: 6.00 Build 0)  -->
<!DOCTYPE svg PUBLIC "-//W3C//DTD SVG 1.1//EN" "http://www.w3.org/Graphics/SVG/1.1/DTD/svg11.dtd">
<svg version="1.1" id="Layer_1" xmlns="http://www.w3.org/2000/svg" xmlns:xlink="http://www.w3.org/1999/xlink" x="0px" y="0px"
	 width="100px" height="100px" viewBox="0 0 100 100" enable-background="new 0 0 100 100" xml:space="preserve">
<g>
	<path d="M76.918,50.719c-0.072-0.411-0.311-0.773-0.66-1c-0.352-0.228-0.779-0.298-1.184-0.197
		c-0.922,0.231-1.879,0.179-2.75-0.156c-2.352-0.903-3.529-3.553-2.627-5.904c0.342-0.889,0.959-1.642,1.783-2.178
		c0.35-0.227,0.59-0.589,0.66-1c0.072-0.41-0.029-0.832-0.281-1.164c-1.656-2.184-3.629-4.09-5.861-5.665
		c-0.34-0.239-0.764-0.325-1.172-0.243c-0.406,0.085-0.76,0.335-0.977,0.69c-0.484,0.801-1.191,1.424-2.045,1.803
		c-0.59,0.263-1.213,0.396-1.854,0.396c-1.805,0-3.443-1.065-4.176-2.713c-0.391-0.878-0.492-1.843-0.293-2.79
		c0.086-0.407-0.002-0.831-0.24-1.172c-0.24-0.34-0.609-0.565-1.021-0.622c-2.707-0.377-5.475-0.336-8.141,0.12
		c-0.412,0.07-0.773,0.308-1.002,0.656c-0.229,0.348-0.303,0.775-0.203,1.18c0.225,0.913,0.166,1.854-0.168,2.722
		c-0.672,1.754-2.387,2.933-4.264,2.933c-0.559,0-1.109-0.104-1.639-0.307c-0.891-0.343-1.645-0.96-2.18-1.786
		c-0.225-0.35-0.586-0.59-0.996-0.662s-0.832,0.028-1.164,0.277c-2.193,1.649-4.109,3.618-5.695,5.852
		c-0.242,0.341-0.33,0.768-0.244,1.177s0.34,0.764,0.697,0.979c0.811,0.485,1.441,1.196,1.824,2.057
		c0.496,1.115,0.529,2.356,0.092,3.495s-1.293,2.039-2.408,2.535c-0.893,0.396-1.887,0.491-2.844,0.28
		c-0.408-0.091-0.836-0.007-1.18,0.23c-0.344,0.238-0.574,0.608-0.633,1.022c-0.389,2.74-0.354,5.495,0.104,8.189
		c0.07,0.415,0.313,0.781,0.666,1.009s0.785,0.295,1.193,0.191c0.934-0.245,1.904-0.195,2.789,0.144
		c1.139,0.438,2.039,1.293,2.535,2.407s0.527,2.355,0.09,3.495c-0.352,0.912-0.992,1.679-1.854,2.217
		c-0.357,0.223-0.604,0.584-0.682,0.997c-0.076,0.414,0.023,0.84,0.275,1.177c1.662,2.211,3.645,4.14,5.895,5.729
		c0.344,0.244,0.775,0.333,1.188,0.24c0.41-0.09,0.766-0.349,0.977-0.714c0.488-0.843,1.211-1.496,2.092-1.888
		c0.592-0.263,1.215-0.396,1.854-0.396c1.805,0,3.445,1.065,4.178,2.713c0.406,0.912,0.498,1.913,0.27,2.896
		c-0.098,0.41-0.016,0.843,0.223,1.19s0.613,0.579,1.029,0.637c1.221,0.17,2.463,0.257,3.689,0.257c1.516,0,3.041-0.132,4.531-0.391
		c0.414-0.072,0.781-0.315,1.008-0.671s0.293-0.789,0.184-1.196c-0.256-0.951-0.211-1.925,0.133-2.816
		c0.674-1.753,2.389-2.932,4.268-2.932c0.559,0,1.109,0.104,1.635,0.305c0.912,0.352,1.678,0.992,2.215,1.852
		c0.225,0.356,0.588,0.604,1.002,0.68c0.412,0.076,0.84-0.025,1.176-0.28c2.203-1.668,4.121-3.655,5.701-5.905
		c0.242-0.344,0.328-0.771,0.238-1.182c-0.09-0.409-0.346-0.764-0.707-0.976c-0.832-0.486-1.479-1.205-1.865-2.078
		c-1.023-2.302,0.016-5.008,2.316-6.031c0.891-0.396,1.883-0.492,2.84-0.28c0.41,0.089,0.838,0.005,1.182-0.234
		s0.572-0.612,0.629-1.028C77.439,56.165,77.389,53.416,76.918,50.719z M55.234,65.808c-1.484,0.661-3.055,0.995-4.668,0.995
		c-4.541,0-8.668-2.68-10.514-6.828c-2.576-5.793,0.039-12.604,5.834-15.181c1.484-0.661,3.055-0.995,4.668-0.995
		c4.541,0,8.668,2.68,10.514,6.828C63.645,56.42,61.027,63.23,55.234,65.808z"/>
	<path d="M50.555,46.799c-1.189,0-2.352,0.247-3.449,0.735c-4.281,1.905-6.217,6.939-4.311,11.222
		c1.363,3.066,4.414,5.047,7.771,5.047c1.189,0,2.35-0.247,3.449-0.735c4.281-1.905,6.215-6.939,4.311-11.222
		C56.963,48.779,53.912,46.799,50.555,46.799z"/>
</g>
</svg>
