<?xml version="1.0" encoding="utf-8"?>
<!-- Generator: Adobe Illustrator 16.0.0, SVG Export Plug-In . SVG Version: 6.00 Build 0)  -->
<!DOCTYPE svg PUBLIC "-//W3C//DTD SVG 1.1//EN" "http://www.w3.org/Graphics/SVG/1.1/DTD/svg11.dtd">
<svg version="1.1" id="Layer_1" xmlns="http://www.w3.org/2000/svg" xmlns:xlink="http://www.w3.org/1999/xlink" x="0px" y="0px"
	 width="100px" height="100px" viewBox="0 0 100 100" enable-background="new 0 0 100 100" xml:space="preserve">
<g>
	<path d="M51.077,59.863L22.98,32.852c0.222-0.028,0.447-0.043,0.672-0.043H78.5c0.225,0,0.45,0.015,0.672,0.043L51.077,59.863z"/>
	<path d="M35.151,52.233L18.459,68.279c-0.345-0.735-0.52-1.524-0.52-2.335V38.521c0-0.811,0.175-1.602,0.52-2.336L35.151,52.233z"
		/>
	<path d="M39.146,56.073l10.014,9.626c0.517,0.498,1.201,0.772,1.917,0.772c0.719,0,1.399-0.274,1.919-0.772l10.011-9.626
		l16.166,15.54c-0.222,0.029-0.447,0.043-0.672,0.043H23.652c-0.225,0-0.447-0.014-0.672-0.043L39.146,56.073z"/>
	<path d="M67.002,52.233l16.691-16.048c0.345,0.734,0.523,1.525,0.523,2.336v27.423c0,0.811-0.178,1.6-0.523,2.335L67.002,52.233z"
		/>
</g>
</svg>
