<?xml version="1.0" encoding="utf-8"?>
<!-- Generator: Adobe Illustrator 16.0.0, SVG Export Plug-In . SVG Version: 6.00 Build 0)  -->
<!DOCTYPE svg PUBLIC "-//W3C//DTD SVG 1.1//EN" "http://www.w3.org/Graphics/SVG/1.1/DTD/svg11.dtd">
<svg version="1.1" id="Layer_1" xmlns="http://www.w3.org/2000/svg" xmlns:xlink="http://www.w3.org/1999/xlink" x="0px" y="0px"
	 width="100px" height="100px" viewBox="0 0 100 100" enable-background="new 0 0 100 100" xml:space="preserve">
<path d="M56.519,38.563H43.493c0.138-0.397,0.21-0.819,0.21-1.253c0-1.016-0.396-1.973-1.115-2.691
	c-0.718-0.719-1.675-1.115-2.691-1.115c-1.016,0-1.973,0.396-2.691,1.115l-7.751,7.751l8.112,8.111
	c0.719,0.719,1.676,1.115,2.691,1.115c1.017,0,1.974-0.396,2.691-1.115c0.719-0.718,1.115-1.675,1.115-2.691
	c0-0.567-0.123-1.115-0.356-1.613h12.811c3.479,0,6.312,2.832,6.312,6.311c0,3.479-2.832,6.312-6.312,6.312H34.838
	c-2.1,0-3.807,1.708-3.807,3.807s1.707,3.807,3.807,3.807h21.681c7.679,0,13.925-6.246,13.925-13.925S64.197,38.563,56.519,38.563z
	 M56.519,64.772H34.838c-1.197,0-2.168-0.971-2.168-2.168s0.971-2.168,2.168-2.168h21.681c4.383,0,7.95-3.567,7.95-7.95
	s-3.567-7.949-7.95-7.949H40.072l1.719,1.719c0.847,0.848,0.847,2.219,0,3.066c-0.424,0.423-0.979,0.635-1.533,0.635
	s-1.109-0.212-1.533-0.635l-6.953-6.953l6.592-6.592c0.848-0.848,2.219-0.848,3.066,0c0.847,0.847,0.847,2.219,0,3.065l-1.357,1.358
	h16.446c6.774,0,12.286,5.512,12.286,12.285C68.805,59.261,63.293,64.772,56.519,64.772z"/>
</svg>
