<?xml version="1.0" encoding="utf-8"?>
<!-- Generator: Adobe Illustrator 16.0.0, SVG Export Plug-In . SVG Version: 6.00 Build 0)  -->
<!DOCTYPE svg PUBLIC "-//W3C//DTD SVG 1.1//EN" "http://www.w3.org/Graphics/SVG/1.1/DTD/svg11.dtd">
<svg version="1.1" id="Layer_1" xmlns="http://www.w3.org/2000/svg" xmlns:xlink="http://www.w3.org/1999/xlink" x="0px" y="0px"
	 width="100px" height="100px" viewBox="0 0 100 100" enable-background="new 0 0 100 100" xml:space="preserve">
<g>
	<path d="M78.805,34.065c-0.44-0.625-1.154-0.996-1.917-0.996h-41.26l-2.752-6.152c-0.379-0.846-1.217-1.389-2.141-1.389h-5.759
		c-1.294,0-2.345,1.051-2.345,2.346s1.05,2.344,2.345,2.344h4.238l2.632,5.885l5.209,29.941c0.195,1.123,1.172,1.943,2.312,1.943
		h26.666c0.989,0,1.872-0.623,2.208-1.553l10.855-30.229C79.352,35.489,79.245,34.688,78.805,34.065z"/>
	<path d="M45.869,70.952c-3.736,0-6.777,3.039-6.777,6.777c0,3.736,3.041,6.775,6.777,6.775s6.776-3.039,6.776-6.775
		C52.645,73.991,49.605,70.952,45.869,70.952z"/>
	<path d="M65.127,70.952c-3.736,0-6.777,3.039-6.777,6.777c0,3.736,3.042,6.775,6.777,6.775s6.775-3.039,6.775-6.775
		C71.903,73.991,68.863,70.952,65.127,70.952z"/>
</g>
</svg>
