<?xml version="1.0" encoding="utf-8"?>
<!-- Generator: Adobe Illustrator 16.0.0, SVG Export Plug-In . SVG Version: 6.00 Build 0)  -->
<!DOCTYPE svg PUBLIC "-//W3C//DTD SVG 1.1//EN" "http://www.w3.org/Graphics/SVG/1.1/DTD/svg11.dtd">
<svg version="1.1" id="Layer_1" xmlns="http://www.w3.org/2000/svg" xmlns:xlink="http://www.w3.org/1999/xlink" x="0px" y="0px"
	 width="100px" height="100px" viewBox="0 0 100 100" enable-background="new 0 0 100 100" xml:space="preserve">
<g>
	<path d="M35.867,50.758c5.068,0,9.19-5.532,9.19-12.333s-4.122-12.334-9.19-12.334c-5.066,0-9.189,5.533-9.189,12.334
		S30.801,50.758,35.867,50.758z"/>
	<path d="M63.125,62.755c-0.189-0.257-0.369-0.499-0.466-0.707c-2.054-4.399-7.688-9.584-16.813-9.713l-0.351-0.002
		c-8.985,0-14.576,4.911-16.813,9.509c-0.077,0.157-0.247,0.361-0.427,0.577c-0.213,0.253-0.424,0.512-0.604,0.793
		c-1.89,2.94-2.853,6.249-2.711,9.318c0.149,3.259,1.513,5.876,3.835,7.369c0.938,0.603,1.95,0.907,3.012,0.907
		c2.19,0,4.195-1.234,6.518-2.663c1.477-0.909,3.003-1.849,4.698-2.552c0.19-0.062,0.968-0.158,2.241-0.158
		c1.514,0,2.6,0.134,2.833,0.215c1.654,0.73,3.107,1.688,4.513,2.613c2.154,1.419,4.188,2.759,6.395,2.759
		c0.947,0,1.866-0.249,2.732-0.742c4.778-2.715,5.688-10.163,2.03-16.602C63.563,63.352,63.344,63.051,63.125,62.755z"/>
	<path d="M55.408,50.758c5.066,0,9.189-5.532,9.189-12.333s-4.123-12.334-9.189-12.334c-5.068,0-9.19,5.533-9.19,12.334
		S50.34,50.758,55.408,50.758z"/>
	<path d="M70.5,44.425c-4.061,0-7.24,4.212-7.24,9.589c0,5.376,3.18,9.588,7.24,9.588s7.242-4.212,7.242-9.588
		C77.742,48.637,74.561,44.425,70.5,44.425z"/>
	<path d="M28.778,54.014c0-5.377-3.181-9.589-7.241-9.589s-7.241,4.212-7.241,9.589c0,5.376,3.181,9.588,7.241,9.588
		S28.778,59.39,28.778,54.014z"/>
</g>
</svg>
