<?xml version="1.0" encoding="utf-8"?>
<!-- Generator: Adobe Illustrator 16.0.0, SVG Export Plug-In . SVG Version: 6.00 Build 0)  -->
<!DOCTYPE svg PUBLIC "-//W3C//DTD SVG 1.1//EN" "http://www.w3.org/Graphics/SVG/1.1/DTD/svg11.dtd">
<svg version="1.1" id="Layer_1" xmlns="http://www.w3.org/2000/svg" xmlns:xlink="http://www.w3.org/1999/xlink" x="0px" y="0px"
	 width="100px" height="100px" viewBox="0 0 100 100" enable-background="new 0 0 100 100" xml:space="preserve">
<path d="M77.103,29.631H27.348c-2.983,0-5.409,2.426-5.409,5.409v31.212c0,2.983,2.426,5.409,5.409,5.409h49.755
	c2.982,0,5.41-2.426,5.41-5.409V35.04C82.513,32.057,80.085,29.631,77.103,29.631z M40.204,38.732c2.696,0,4.883,2.183,4.883,4.881
	c0,2.696-2.187,4.879-4.883,4.879s-4.882-2.183-4.882-4.879C35.322,40.915,37.508,38.732,40.204,38.732z M76.95,66.098H27.501
	v-4.733h12.703c0.622,0,1.219-0.247,1.658-0.687l2.502-2.504l4.929,2.872c0.591,0.343,1.304,0.414,1.957,0.186
	c0.647-0.228,1.163-0.728,1.411-1.369l5.263-13.65L74.89,60.799c0.443,0.38,0.986,0.566,1.527,0.566c0.18,0,0.357-0.024,0.533-0.065
	V66.098z"/>
</svg>
