<?xml version="1.0" encoding="utf-8"?>
<!-- Generator: Adobe Illustrator 16.0.0, SVG Export Plug-In . SVG Version: 6.00 Build 0)  -->
<!DOCTYPE svg PUBLIC "-//W3C//DTD SVG 1.1//EN" "http://www.w3.org/Graphics/SVG/1.1/DTD/svg11.dtd">
<svg version="1.1" id="Layer_1" xmlns="http://www.w3.org/2000/svg" xmlns:xlink="http://www.w3.org/1999/xlink" x="0px" y="0px"
	 width="100px" height="100px" viewBox="0 0 100 100" enable-background="new 0 0 100 100" xml:space="preserve">
<path d="M50.001,21.939c-15.473,0-28.061,12.588-28.061,28.06c0,15.473,12.588,28.061,28.061,28.061
	c15.472,0,28.058-12.588,28.058-28.061C78.06,34.527,65.473,21.939,50.001,21.939z M50.603,54.132L39.299,54.13
	c-0.696,0-1.35-0.27-1.841-0.762c-0.488-0.49-0.76-1.144-0.76-1.84c0-0.695,0.269-1.348,0.76-1.84
	c0.492-0.491,1.145-0.762,1.841-0.763h8.702V38.451c0-0.693,0.269-1.348,0.76-1.84c0.492-0.49,1.145-0.76,1.844-0.762
	c0.693,0.001,1.347,0.271,1.838,0.763s0.76,1.145,0.76,1.84l0.003,13.076C53.208,52.962,52.038,54.13,50.603,54.132z"/>
</svg>
