<?xml version="1.0" encoding="utf-8"?>
<!-- Generator: Adobe Illustrator 16.0.0, SVG Export Plug-In . SVG Version: 6.00 Build 0)  -->
<!DOCTYPE svg PUBLIC "-//W3C//DTD SVG 1.1//EN" "http://www.w3.org/Graphics/SVG/1.1/DTD/svg11.dtd">
<svg version="1.1" id="Layer_1" xmlns="http://www.w3.org/2000/svg" xmlns:xlink="http://www.w3.org/1999/xlink" x="0px" y="0px"
	 width="100px" height="100px" viewBox="0 0 100 100" enable-background="new 0 0 100 100" xml:space="preserve">
<g>
	<path d="M56.577,36.465c0,2.69-2.189,4.878-4.878,4.878s-4.878-2.188-4.878-4.878c0-2.326,1.639-4.271,3.822-4.756
		c0.342-0.069,0.694-0.107,1.056-0.107s0.714,0.038,1.056,0.107C54.938,32.193,56.577,34.139,56.577,36.465z"/>
	<path d="M50.808,45.634c0.293,0.028,0.592,0.045,0.892,0.045c0.301,0,0.597-0.017,0.891-0.045
		c2.075,6.29,4.987,13.465,8.546,17.815H42.262C45.823,59.099,48.733,51.924,50.808,45.634z"/>
	<path d="M68.625,70.66H34.774c-1.104,0-2.002-0.899-2.002-2.003c0-1.105,0.897-2.003,2.002-2.003h33.851
		c1.104,0,2.001,0.897,2.001,2.003C70.626,69.761,69.729,70.66,68.625,70.66z"/>
</g>
</svg>
