<?xml version="1.0" encoding="utf-8"?>
<!-- Generator: Adobe Illustrator 16.0.0, SVG Export Plug-In . SVG Version: 6.00 Build 0)  -->
<!DOCTYPE svg PUBLIC "-//W3C//DTD SVG 1.1//EN" "http://www.w3.org/Graphics/SVG/1.1/DTD/svg11.dtd">
<svg version="1.1" id="Layer_1" xmlns="http://www.w3.org/2000/svg" xmlns:xlink="http://www.w3.org/1999/xlink" x="0px" y="0px"
	 width="100px" height="100px" viewBox="0 0 100 100" enable-background="new 0 0 100 100" xml:space="preserve">
<path d="M64.435,72.894H51.931v-4.782c5.173-0.559,10.158-3.047,14.544-7.281c9.362-9.046,14.952-24.717,14.952-41.92
	c0-1.238-1.005-2.244-2.244-2.244H68.61c-1.238,0-2.244,1.006-2.244,2.244v3.024H33.011V18.91c0-1.238-1.006-2.244-2.244-2.244
	H20.194c-1.239,0-2.245,1.006-2.245,2.244c0,17.204,5.591,32.874,14.953,41.918c4.38,4.232,9.368,6.723,14.54,7.282v4.783H34.938
	c-1.238,0-2.244,1.005-2.244,2.244s1.006,2.244,2.244,2.244h29.496c1.242,0,2.244-1.005,2.244-2.244S65.677,72.894,64.435,72.894z
	 M70.854,21.154h6.049c-0.455,14.537-5.31,28.023-12.936,35.837c0.047-0.085,0.084-0.181,0.128-0.267
	c0.468-0.896,0.912-1.828,1.336-2.805c0.075-0.174,0.146-0.354,0.222-0.531c0.409-0.977,0.801-1.982,1.166-3.029
	c0.026-0.077,0.056-0.152,0.082-0.229c0.377-1.094,0.722-2.231,1.046-3.393c0.064-0.229,0.129-0.455,0.19-0.686
	c0.31-1.147,0.593-2.322,0.85-3.525c0.047-0.22,0.091-0.441,0.135-0.662c0.254-1.229,0.485-2.479,0.684-3.758
	c0.009-0.047,0.018-0.092,0.023-0.139c0.202-1.307,0.362-2.643,0.506-3.994c0.029-0.254,0.056-0.505,0.082-0.761
	c0.125-1.316,0.228-2.65,0.298-4c0.015-0.253,0.023-0.507,0.035-0.76c0.062-1.413,0.104-2.835,0.104-4.275V21.154z M22.473,21.154
	h6.049v3.024c0,1.44,0.041,2.862,0.105,4.275c0.012,0.253,0.021,0.507,0.035,0.76c0.07,1.35,0.17,2.684,0.298,4
	c0.023,0.256,0.053,0.507,0.079,0.76c0.144,1.352,0.307,2.688,0.509,3.995c0.006,0.047,0.015,0.09,0.023,0.137
	c0.198,1.283,0.43,2.533,0.684,3.764c0.044,0.218,0.085,0.438,0.131,0.653c0.261,1.207,0.544,2.385,0.854,3.534
	c0.062,0.227,0.123,0.449,0.188,0.672c0.327,1.166,0.672,2.309,1.049,3.406c0.023,0.07,0.05,0.136,0.076,0.205
	c0.368,1.059,0.763,2.077,1.178,3.064c0.07,0.168,0.137,0.34,0.21,0.504c0.427,0.984,0.877,1.925,1.347,2.828
	c0.041,0.08,0.079,0.172,0.12,0.252C27.779,49.176,22.929,35.69,22.473,21.154z"/>
</svg>
