<?xml version="1.0" encoding="utf-8"?>
<!-- Generator: Adobe Illustrator 16.0.0, SVG Export Plug-In . SVG Version: 6.00 Build 0)  -->
<!DOCTYPE svg PUBLIC "-//W3C//DTD SVG 1.1//EN" "http://www.w3.org/Graphics/SVG/1.1/DTD/svg11.dtd">
<svg version="1.1" id="Layer_1" xmlns="http://www.w3.org/2000/svg" xmlns:xlink="http://www.w3.org/1999/xlink" x="0px" y="0px"
	 width="100px" height="100px" viewBox="0 0 100 100" enable-background="new 0 0 100 100" xml:space="preserve">
<path d="M83.915,18.138h-67.83c-1.725,0-3.127,1.399-3.127,3.127c0,1.727,1.402,3.126,3.127,3.126h3.859v39.831
	c0,1.295,1.051,2.345,2.346,2.345h22.464l-7.681,7.682c-0.916,0.916-0.916,2.4,0,3.316c0.914,0.916,2.4,0.916,3.316,0l9.315-9.314
	l9.907,9.908c0.457,0.457,1.058,0.686,1.658,0.686c0.6,0,1.199-0.229,1.658-0.686c0.916-0.916,0.916-2.4,0-3.316l-8.275-8.275
	h23.059c1.295,0,2.344-1.05,2.344-2.345V24.391h3.859c1.728,0,3.127-1.399,3.127-3.126C87.042,19.537,85.643,18.138,83.915,18.138z"
	/>
</svg>
