<?xml version="1.0" encoding="utf-8"?>
<!-- Generator: Adobe Illustrator 16.0.0, SVG Export Plug-In . SVG Version: 6.00 Build 0)  -->
<!DOCTYPE svg PUBLIC "-//W3C//DTD SVG 1.1//EN" "http://www.w3.org/Graphics/SVG/1.1/DTD/svg11.dtd">
<svg version="1.1" id="Layer_1" xmlns="http://www.w3.org/2000/svg" xmlns:xlink="http://www.w3.org/1999/xlink" x="0px" y="0px"
	 width="100px" height="100px" viewBox="0 0 100 100" enable-background="new 0 0 100 100" xml:space="preserve">
<g>
	<path d="M72.929,38.44L49.955,28.195c-0.556-0.25-1.192-0.25-1.751,0L25.231,38.44c-0.75,0.334-1.245,1.069-1.273,1.89
		c-0.027,0.82,0.412,1.586,1.137,1.972l22.973,12.251c0.317,0.17,0.664,0.253,1.012,0.253c0.35,0,0.697-0.083,1.014-0.253
		l22.974-12.251c0.724-0.386,1.164-1.152,1.137-1.972C74.174,39.509,73.68,38.774,72.929,38.44z"/>
	<path d="M71.041,47.607L49.079,59.322L27.12,47.607c-1.051-0.561-2.353-0.163-2.91,0.886c-0.561,1.049-0.163,2.35,0.885,2.91
		l22.973,12.254c0.317,0.169,0.664,0.253,1.012,0.253c0.35,0,0.697-0.083,1.014-0.253l22.974-12.254
		c1.046-0.56,1.443-1.861,0.885-2.91C73.392,47.444,72.089,47.046,71.041,47.607z"/>
	<path d="M71.041,56.01L49.079,67.722L27.12,56.01c-1.051-0.562-2.353-0.163-2.91,0.885c-0.561,1.049-0.163,2.351,0.885,2.91
		l22.973,12.251c0.317,0.17,0.664,0.254,1.012,0.254c0.35,0,0.697-0.083,1.014-0.254l22.974-12.251
		c1.046-0.559,1.443-1.861,0.885-2.91C73.392,55.847,72.091,55.448,71.041,56.01z"/>
</g>
</svg>
