<?xml version="1.0" encoding="utf-8"?>
<!-- Generator: Adobe Illustrator 16.0.0, SVG Export Plug-In . SVG Version: 6.00 Build 0)  -->
<!DOCTYPE svg PUBLIC "-//W3C//DTD SVG 1.1//EN" "http://www.w3.org/Graphics/SVG/1.1/DTD/svg11.dtd">
<svg version="1.1" id="Layer_1" xmlns="http://www.w3.org/2000/svg" xmlns:xlink="http://www.w3.org/1999/xlink" x="0px" y="0px"
	 width="100px" height="100px" viewBox="0 0 100 100" enable-background="new 0 0 100 100" xml:space="preserve">
<path d="M81.615,69.418c5.344,0,9.689-4.347,9.689-9.689c0-4.081-2.559-7.618-6.189-9.028c0.228-0.83,0.345-1.691,0.345-2.562
	c0-5.345-4.347-9.69-9.689-9.69c-4.492,0-8.269,3.076-9.36,7.23c-0.266-0.106-0.535-0.208-0.809-0.297
	c0.426-1.259,0.645-2.581,0.645-3.925c0-6.794-5.527-12.322-12.322-12.322c-6.796,0-12.323,5.528-12.323,12.322
	c0,1.4,0.238,2.778,0.696,4.082c-0.352,0.13-0.68,0.307-1.016,0.466c-0.975-4.319-4.836-7.557-9.446-7.557
	c-5.343,0-9.689,4.346-9.689,9.69c0,0.919,0.131,1.828,0.386,2.7c-3.462,1.498-5.831,4.942-5.831,8.89
	c0,5.343,4.347,9.689,9.688,9.689c1.212,0,2.388-0.253,3.496-0.687l0.001,4.72h-8.08c-1.188,0-2.151,0.964-2.151,2.15
	c0,1.188,0.964,2.151,2.151,2.151h18.585h1.873h23.479h2.251h18.206c1.188,0,2.151-0.964,2.151-2.151c0-1.187-0.964-2.15-2.151-2.15
	h-8.078l-0.001-4.72C79.228,69.165,80.404,69.418,81.615,69.418z M40.391,73.451h-6.203l-0.001-4.72
	c1.106,0.434,2.284,0.687,3.494,0.687c1.489,0,2.895-0.348,4.155-0.949c1.462,0.609,3.061,0.949,4.738,0.949
	c1.918,0,3.783-0.459,5.467-1.298v5.331h-9.777H40.391z M67.993,73.451h-2.251h-9.399V68.12c1.686,0.839,3.551,1.298,5.467,1.298
	c1.598,0,3.12-0.314,4.522-0.871c1.218,0.556,2.568,0.871,3.991,0.871c1.213,0,2.39-0.253,3.495-0.687l0.001,4.72H67.993z"/>
</svg>
