<?xml version="1.0" encoding="utf-8"?>
<!-- Generator: Adobe Illustrator 16.0.0, SVG Export Plug-In . SVG Version: 6.00 Build 0)  -->
<!DOCTYPE svg PUBLIC "-//W3C//DTD SVG 1.1//EN" "http://www.w3.org/Graphics/SVG/1.1/DTD/svg11.dtd">
<svg version="1.1" id="Layer_1" xmlns="http://www.w3.org/2000/svg" xmlns:xlink="http://www.w3.org/1999/xlink" x="0px" y="0px"
	 width="100px" height="100px" viewBox="0 0 100 100" enable-background="new 0 0 100 100" xml:space="preserve">
<path d="M79.505,38.895l-7.667-9c-0.379-0.446-0.936-0.703-1.521-0.703h-13.25v-3.377c0-1.104-0.896-2-2-2h-6.084
	c-1.104,0-2,0.896-2,2v3.377h-17c-1.104,0-2,0.896-2,2v18c0,1.104,0.896,2,2,2H46.94v26c0,1.104,0.896,2,2,2h6.083
	c1.105,0,2-0.896,2-2v-26h13.293c0.586,0,1.143-0.257,1.521-0.703l7.667-9C80.142,40.742,80.142,39.642,79.505,38.895z
	 M53.023,75.192H50.94V51.669h2.083V75.192z M50.982,27.815h2.084v1.377h-2.084V27.815z"/>
</svg>
