<?xml version="1.0" encoding="utf-8"?>
<!-- Generator: Adobe Illustrator 16.0.0, SVG Export Plug-In . SVG Version: 6.00 Build 0)  -->
<!DOCTYPE svg PUBLIC "-//W3C//DTD SVG 1.1//EN" "http://www.w3.org/Graphics/SVG/1.1/DTD/svg11.dtd">
<svg version="1.1" id="Layer_1" xmlns="http://www.w3.org/2000/svg" xmlns:xlink="http://www.w3.org/1999/xlink" x="0px" y="0px"
	 width="100px" height="100px" viewBox="0 0 100 100" enable-background="new 0 0 100 100" xml:space="preserve">
<g>
	<path d="M71.915,87.718c-0.616,0-1.233-0.189-1.759-0.571L50.799,73.082L31.443,87.146c-1.049,0.763-2.469,0.763-3.518,0
		c-1.049-0.763-1.488-2.112-1.087-3.346l7.393-22.757L14.875,46.981c-1.049-0.762-1.487-2.112-1.087-3.346
		c0.4-1.232,1.548-2.067,2.846-2.067H40.56l7.393-22.756c0.4-1.233,1.548-2.067,2.846-2.067c1.294,0,2.446,0.834,2.846,2.067
		l7.394,22.756h23.926c1.298,0,2.446,0.835,2.847,2.067c0.4,1.233-0.038,2.584-1.087,3.346L67.368,61.044l7.393,22.757
		c0.4,1.233-0.038,2.583-1.087,3.346C73.151,87.528,72.531,87.718,71.915,87.718z"/>
</g>
</svg>
