<?xml version="1.0" encoding="utf-8"?>
<!-- Generator: Adobe Illustrator 16.0.0, SVG Export Plug-In . SVG Version: 6.00 Build 0)  -->
<!DOCTYPE svg PUBLIC "-//W3C//DTD SVG 1.1//EN" "http://www.w3.org/Graphics/SVG/1.1/DTD/svg11.dtd">
<svg version="1.1" id="Layer_1" xmlns="http://www.w3.org/2000/svg" xmlns:xlink="http://www.w3.org/1999/xlink" x="0px" y="0px"
	 width="100px" height="100px" viewBox="0 0 100 100" enable-background="new 0 0 100 100" xml:space="preserve">
<path d="M78.631,28.479c0.005-0.534-0.203-1.048-0.579-1.428c-0.376-0.379-0.888-0.593-1.421-0.593h-8.834
	c-0.196,0-0.383,0.037-0.562,0.09h-1.704c-0.313,0-0.634,0.021-1.004,0.067H36.693c-0.369-0.046-0.689-0.067-1.004-0.067h-1.432
	c-0.179-0.053-0.365-0.09-0.561-0.09h-8.834c-0.534,0-1.046,0.214-1.422,0.593c-0.375,0.38-0.584,0.894-0.578,1.428
	c0.008,0.692,0.273,15.907,8.875,17.923v0.093c0,0.072,0.01,0.145,0.027,0.217c0.332,9.29,7.584,17.037,16.754,18.064V79.96h-7.527
	c-0.553,0-1,0.447-1,1v2.184c0,0.553,0.447,1,1,1h19.239c0.552,0,1-0.447,1-1V80.96c0-0.553-0.448-1-1-1h-7.528V64.776
	c9.066-0.996,16.077-8.273,16.716-17.4c0.112-0.163,0.177-0.36,0.177-0.567v-0.37C78.355,44.577,78.623,29.175,78.631,28.479z
	 M31.697,42.111c-3.355-1.861-4.39-8.321-4.702-11.653h4.702V42.111z M69.797,42.114V30.458h4.705
	C74.193,33.791,73.164,40.257,69.797,42.114z"/>
</svg>
