<?xml version="1.0" encoding="utf-8"?>
<!-- Generator: Adobe Illustrator 16.0.0, SVG Export Plug-In . SVG Version: 6.00 Build 0)  -->
<!DOCTYPE svg PUBLIC "-//W3C//DTD SVG 1.1//EN" "http://www.w3.org/Graphics/SVG/1.1/DTD/svg11.dtd">
<svg version="1.1" id="Layer_1" xmlns="http://www.w3.org/2000/svg" xmlns:xlink="http://www.w3.org/1999/xlink" x="0px" y="0px"
	 width="100px" height="100px" viewBox="0 0 100 100" enable-background="new 0 0 100 100" xml:space="preserve">
<g>
	<path d="M73.296,71.461H59.154c4.876-2.004,8.569-6.299,9.749-11.54c4.263-0.604,7.563-4.24,7.563-8.666
		c0-4.286-3.089-7.855-7.154-8.628v-1.009c0-0.904-0.731-1.636-1.637-1.636h-6.553v-11.65c0-0.905-0.734-1.636-1.636-1.636
		c-0.902,0-1.635,0.73-1.635,1.636v11.65h-3.257v-11.65c0-0.905-0.733-1.636-1.637-1.636c-0.901,0-1.636,0.73-1.636,1.636v11.65
		h-3.488v-11.65c0-0.905-0.732-1.636-1.634-1.636c-0.904,0-1.636,0.73-1.636,1.636v11.65h-6.322c-0.904,0-1.637,0.731-1.637,1.636
		v14.717c0,6.824,4.206,12.68,10.16,15.126H32.622c-0.904,0-1.636,0.732-1.636,1.636s0.731,1.635,1.636,1.635h40.675
		c0.905,0,1.637-0.731,1.637-1.635S74.202,71.461,73.296,71.461z M73.196,51.255c0,2.472-1.646,4.548-3.893,5.246
		c0-0.056,0.009-0.11,0.009-0.166V46.009C71.554,46.711,73.196,48.783,73.196,51.255z"/>
</g>
</svg>
