<?xml version="1.0" encoding="utf-8"?>
<!-- Generator: Adobe Illustrator 16.0.0, SVG Export Plug-In . SVG Version: 6.00 Build 0)  -->
<!DOCTYPE svg PUBLIC "-//W3C//DTD SVG 1.1//EN" "http://www.w3.org/Graphics/SVG/1.1/DTD/svg11.dtd">
<svg version="1.1" id="Layer_1" xmlns="http://www.w3.org/2000/svg" xmlns:xlink="http://www.w3.org/1999/xlink" x="0px" y="0px"
	 width="100px" height="100px" viewBox="0 0 100 100" enable-background="new 0 0 100 100" xml:space="preserve">
<path d="M76.8,28.748H24.729c-1.54,0-2.789,1.25-2.789,2.789v46.957c0,1.541,1.249,2.791,2.789,2.791H76.8
	c1.541,0,2.788-1.25,2.788-2.791V31.537C79.588,29.998,78.341,28.748,76.8,28.748z M34.724,71.521c0,1.539-1.249,2.789-2.789,2.789
	c-1.541,0-2.79-1.25-2.79-2.789V38.221c0-1.539,1.249-2.789,2.79-2.789c1.54,0,2.789,1.25,2.789,2.789V71.521z M42.162,71.521
	c0,1.539-1.247,2.789-2.788,2.789c-1.542,0-2.791-1.25-2.791-2.789v-4.65c0-1.539,1.249-2.789,2.791-2.789
	c1.541,0,2.788,1.25,2.788,2.789V71.521z M42.162,59.432c0,1.541-1.247,2.791-2.788,2.791c-1.542,0-2.791-1.25-2.791-2.791V38.221
	c0-1.539,1.249-2.789,2.791-2.789c1.541,0,2.788,1.25,2.788,2.789V59.432z M49.602,71.521c0,1.539-1.249,2.789-2.79,2.789
	c-1.542,0-2.789-1.25-2.789-2.789v-4.65c0-1.539,1.247-2.789,2.789-2.789c1.541,0,2.79,1.25,2.79,2.789V71.521z M49.602,59.432
	c0,1.541-1.249,2.791-2.79,2.791c-1.542,0-2.789-1.25-2.789-2.791V38.221c0-1.539,1.247-2.789,2.789-2.789
	c1.541,0,2.79,1.25,2.79,2.789V59.432z M57.042,59.432v12.09c0,1.539-1.249,2.789-2.791,2.789c-1.541,0-2.79-1.25-2.79-2.789v-12.09
	V38.221c0-1.539,1.249-2.789,2.79-2.789c1.542,0,2.791,1.25,2.791,2.789V59.432z M64.48,71.521c0,1.539-1.249,2.789-2.791,2.789
	c-1.539,0-2.788-1.25-2.788-2.789v-4.65c0-1.539,1.249-2.789,2.788-2.789c1.542,0,2.791,1.25,2.791,2.789V71.521z M64.48,59.9
	c0,1.539-1.249,2.789-2.791,2.789c-1.539,0-2.788-1.25-2.788-2.789v-21.68c0-1.539,1.249-2.789,2.788-2.789
	c1.542,0,2.791,1.25,2.791,2.789V59.9z M71.918,71.521c0,1.539-1.249,2.789-2.789,2.789c-1.541,0-2.79-1.25-2.79-2.789V38.221
	c0-1.539,1.249-2.789,2.79-2.789c1.54,0,2.789,1.25,2.789,2.789V71.521z"/>
</svg>
