<?xml version="1.0" encoding="utf-8"?>
<!-- Generator: Adobe Illustrator 16.0.0, SVG Export Plug-In . SVG Version: 6.00 Build 0)  -->
<!DOCTYPE svg PUBLIC "-//W3C//DTD SVG 1.1//EN" "http://www.w3.org/Graphics/SVG/1.1/DTD/svg11.dtd">
<svg version="1.1" id="Layer_1" xmlns="http://www.w3.org/2000/svg" xmlns:xlink="http://www.w3.org/1999/xlink" x="0px" y="0px"
	 width="100px" height="100px" viewBox="0 0 100 100" enable-background="new 0 0 100 100" xml:space="preserve">
<path d="M53.293,25.543c-14.19,0-25.737,11.547-25.737,25.737s11.547,25.736,25.737,25.736S79.027,65.471,79.027,51.28
	S67.483,25.543,53.293,25.543z M65.719,53.16h-8.92l-4.455,8.814c-0.379,0.748-1.134,1.18-1.921,1.18
	c-0.325,0-0.659-0.073-0.969-0.231c-1.06-0.535-1.484-1.829-0.95-2.89l3.476-6.873h-8.965v0.734c0,1.187-0.962,2.15-2.15,2.15
	s-2.15-0.964-2.15-2.15v-5.769c0-1.188,0.962-2.15,2.15-2.15s2.15,0.963,2.15,2.15v0.732h8.691l-3.202-6.333
	c-0.534-1.06-0.109-2.354,0.95-2.89c1.058-0.536,2.354-0.113,2.89,0.948l4.184,8.274h9.191c1.188,0,2.15,0.964,2.15,2.151
	S66.907,53.16,65.719,53.16z"/>
</svg>
