<?xml version="1.0" encoding="utf-8"?>
<!-- Generator: Adobe Illustrator 16.0.0, SVG Export Plug-In . SVG Version: 6.00 Build 0)  -->
<!DOCTYPE svg PUBLIC "-//W3C//DTD SVG 1.1//EN" "http://www.w3.org/Graphics/SVG/1.1/DTD/svg11.dtd">
<svg version="1.1" id="Layer_1" xmlns="http://www.w3.org/2000/svg" xmlns:xlink="http://www.w3.org/1999/xlink" x="0px" y="0px"
	 width="100px" height="100px" viewBox="0 0 100 100" enable-background="new 0 0 100 100" xml:space="preserve">
<path d="M67.446,30.967h-5.349v-2.921c0-1.188-0.962-2.151-2.15-2.151s-2.15,0.964-2.15,2.151v2.921h-2.868v-2.921
	c0-1.188-0.962-2.151-2.15-2.151c-1.189,0-2.15,0.964-2.15,2.151v2.921H47.76v-2.921c0-1.188-0.963-2.151-2.151-2.151
	s-2.15,0.964-2.15,2.151v2.921H40.59v-2.921c0-1.188-0.962-2.151-2.151-2.151c-1.188,0-2.15,0.964-2.15,2.151v2.921h-5.35
	c-1.188,0-2.15,0.964-2.15,2.151v44.433c0,1.188,0.962,2.151,2.15,2.151h36.508c1.188,0,2.15-0.964,2.15-2.151V33.119
	C69.597,31.931,68.635,30.967,67.446,30.967z M49.191,70.042H38.438c-1.188,0-2.15-0.964-2.15-2.151c0-1.187,0.962-2.15,2.15-2.15
	h10.753c1.188,0,2.151,0.963,2.151,2.15C51.343,69.078,50.38,70.042,49.191,70.042z M59.947,62.872H38.438
	c-1.188,0-2.15-0.963-2.15-2.151c0-1.187,0.962-2.15,2.15-2.15h21.509c1.188,0,2.15,0.963,2.15,2.15
	C62.098,61.909,61.136,62.872,59.947,62.872z M59.947,55.703H38.438c-1.188,0-2.15-0.963-2.15-2.151c0-1.187,0.962-2.15,2.15-2.15
	h21.509c1.188,0,2.15,0.964,2.15,2.15C62.098,54.739,61.136,55.703,59.947,55.703z M59.947,48.533H38.438
	c-1.188,0-2.15-0.964-2.15-2.15c0-1.188,0.962-2.151,2.15-2.151h21.509c1.188,0,2.15,0.964,2.15,2.151
	C62.098,47.569,61.136,48.533,59.947,48.533z"/>
</svg>
