<?xml version="1.0" encoding="utf-8"?>
<!-- Generator: Adobe Illustrator 16.0.0, SVG Export Plug-In . SVG Version: 6.00 Build 0)  -->
<!DOCTYPE svg PUBLIC "-//W3C//DTD SVG 1.1//EN" "http://www.w3.org/Graphics/SVG/1.1/DTD/svg11.dtd">
<svg version="1.1" id="Layer_1" xmlns="http://www.w3.org/2000/svg" xmlns:xlink="http://www.w3.org/1999/xlink" x="0px" y="0px"
	 width="100px" height="100px" viewBox="0 0 100 100" enable-background="new 0 0 100 100" xml:space="preserve">
<path d="M61.691,69.418c6.796,0,12.324-5.527,12.324-12.322c0-5.432-3.565-10.106-8.531-11.714c0.424-1.259,0.645-2.581,0.645-3.925
	c0-6.794-5.529-12.322-12.323-12.322c-6.796,0-12.322,5.528-12.322,12.322c0,1.4,0.237,2.778,0.697,4.082
	c-4.741,1.747-8.046,6.299-8.046,11.557c0,6.795,5.526,12.322,12.322,12.322c1.916,0,3.78-0.459,5.467-1.298v5.331h-11.65
	c-1.188,0-2.151,0.964-2.151,2.15c0,1.188,0.963,2.151,2.151,2.151h27.603c1.188,0,2.151-0.964,2.151-2.151
	c0-1.187-0.964-2.15-2.151-2.15h-11.65V68.12C57.909,68.959,59.774,69.418,61.691,69.418z"/>
</svg>
