<?xml version="1.0" encoding="utf-8"?>
<!-- Generator: Adobe Illustrator 16.0.0, SVG Export Plug-In . SVG Version: 6.00 Build 0)  -->
<!DOCTYPE svg PUBLIC "-//W3C//DTD SVG 1.1//EN" "http://www.w3.org/Graphics/SVG/1.1/DTD/svg11.dtd">
<svg version="1.1" id="Layer_1" xmlns="http://www.w3.org/2000/svg" xmlns:xlink="http://www.w3.org/1999/xlink" x="0px" y="0px"
	 width="100px" height="100px" viewBox="0 0 100 100" enable-background="new 0 0 100 100" xml:space="preserve">
<g>
	<path d="M72.633,53.662l-13.75,0.677c0.15-0.365,0.275-0.744,0.382-1.13L70.565,40.74c1.452,3.003,2.29,6.354,2.29,9.907
		C72.855,51.671,72.764,52.673,72.633,53.662z"/>
	<path d="M51.457,55.334c-0.463,0.144-0.945,0.245-1.457,0.245c-0.645,0-1.256-0.133-1.821-0.359
		c-0.214-0.085-0.412-0.195-0.612-0.31c-1.482-0.851-2.496-2.434-2.496-4.263c0-2.717,2.211-4.93,4.93-4.93
		c1.606,0,3.021,0.783,3.922,1.974c0.135,0.18,0.254,0.37,0.363,0.566c0.4,0.711,0.646,1.519,0.646,2.389
		c0,0.138-0.029,0.267-0.041,0.403c-0.041,0.508-0.144,0.999-0.327,1.452c-0.351,0.861-0.942,1.594-1.685,2.131
		C52.451,54.943,51.971,55.172,51.457,55.334z"/>
	<path d="M27.146,50.647c0-1.336,0.139-2.637,0.358-3.911l13.23-0.65L28.829,59.223C27.752,56.572,27.146,53.681,27.146,50.647z"/>
	<path d="M67.99,36.598L58.789,46.75c-0.076-0.171-0.158-0.337-0.244-0.502l-0.838-17.09C61.802,30.632,65.354,33.23,67.99,36.598z"
		/>
	<path d="M50.002,27.792c1.002,0,1.984,0.087,2.953,0.214l0.662,13.485L40.704,29.789C43.547,28.516,46.689,27.792,50.002,27.792z"
		/>
	<path d="M36.463,32.274l9.762,8.846l-17.358,0.853C30.469,38.082,33.123,34.743,36.463,32.274z"/>
	<path d="M31.191,63.6l9.176-10.125l0.898,18.284C37.173,70.058,33.682,67.203,31.191,63.6z"/>
	<path d="M50.002,73.5c-1.359,0-2.682-0.141-3.973-0.37l-0.693-14.075c0.074,0.04,0.146,0.078,0.221,0.116l13.654,12.374
		C56.39,72.793,53.278,73.5,50.002,73.5z"/>
	<path d="M63.465,69.071l-10.313-9.345c0.383-0.133,0.75-0.289,1.107-0.466l17.207-0.846C69.904,62.717,67.095,66.412,63.465,69.071
		z"/>
</g>
</svg>
