<?xml version="1.0" encoding="utf-8"?>
<!-- Generator: Adobe Illustrator 16.0.0, SVG Export Plug-In . SVG Version: 6.00 Build 0)  -->
<!DOCTYPE svg PUBLIC "-//W3C//DTD SVG 1.1//EN" "http://www.w3.org/Graphics/SVG/1.1/DTD/svg11.dtd">
<svg version="1.1" id="Layer_1" xmlns="http://www.w3.org/2000/svg" xmlns:xlink="http://www.w3.org/1999/xlink" x="0px" y="0px"
	 width="100px" height="100px" viewBox="0 0 100 100" enable-background="new 0 0 100 100" xml:space="preserve">
<g>
	<path d="M44.027,42.627c-2.447,0-4.439,1.991-4.439,4.439s1.992,4.44,4.439,4.44c2.449,0,4.439-1.992,4.439-4.44
		S46.477,42.627,44.027,42.627z"/>
	<path d="M44.027,25.995c-10.705,0-19.416,8.71-19.416,19.417c0,9.939,15.854,31.789,17.66,34.247l0.666,0.904
		c0.252,0.347,0.66,0.554,1.09,0.554s0.838-0.207,1.09-0.551l0.666-0.907c1.809-2.458,17.66-24.308,17.66-34.247
		C63.443,34.705,54.734,25.995,44.027,25.995z M44.027,55.037c-4.395,0-7.971-3.575-7.971-7.971s3.576-7.971,7.971-7.971
		s7.971,3.575,7.971,7.971S48.422,55.037,44.027,55.037z"/>
</g>
</svg>
