<?xml version="1.0" encoding="utf-8"?>
<!-- Generator: Adobe Illustrator 16.0.0, SVG Export Plug-In . SVG Version: 6.00 Build 0)  -->
<!DOCTYPE svg PUBLIC "-//W3C//DTD SVG 1.1//EN" "http://www.w3.org/Graphics/SVG/1.1/DTD/svg11.dtd">
<svg version="1.1" id="Layer_1" xmlns="http://www.w3.org/2000/svg" xmlns:xlink="http://www.w3.org/1999/xlink" x="0px" y="0px"
	 width="100px" height="100px" viewBox="0 0 100 100" enable-background="new 0 0 100 100" xml:space="preserve">
<g>
	<path d="M48.55,38.976c-2.518,0-4.564,2.047-4.564,4.564s2.047,4.565,4.564,4.565s4.565-2.048,4.565-4.565
		S51.067,38.976,48.55,38.976z"/>
	<path d="M54.765,30.441c-10.65,0-19.313,8.663-19.313,19.313c0,10.647,8.663,19.31,19.313,19.31
		c10.649,0,19.313-8.662,19.313-19.31C74.077,39.104,65.414,30.441,54.765,30.441z M40.687,43.54c0-4.335,3.528-7.863,7.863-7.863
		c4.336,0,7.864,3.528,7.864,7.863c0,4.336-3.528,7.864-7.864,7.864C44.215,51.404,40.687,47.876,40.687,43.54z M60.979,63.952
		c-4.335,0-7.863-3.529-7.863-7.864s3.528-7.864,7.863-7.864c4.336,0,7.864,3.529,7.864,7.864S65.314,63.952,60.979,63.952z"/>
	<path d="M60.979,51.523c-2.518,0-4.564,2.047-4.564,4.564c0,2.519,2.047,4.565,4.564,4.565s4.564-2.047,4.564-4.565
		C65.543,53.57,63.496,51.523,60.979,51.523z"/>
	<path d="M54.765,22.368c-15.101,0-27.385,12.286-27.385,27.387s12.284,27.387,27.385,27.387s27.384-12.286,27.384-27.387
		S69.865,22.368,54.765,22.368z M54.765,72.363c-12.469,0-22.612-10.143-22.612-22.608c0-12.468,10.144-22.611,22.612-22.611
		c12.468,0,22.612,10.144,22.612,22.611C77.377,62.221,67.232,72.363,54.765,72.363z"/>
</g>
</svg>
