<?xml version="1.0" encoding="utf-8"?>
<!-- Generator: Adobe Illustrator 16.0.0, SVG Export Plug-In . SVG Version: 6.00 Build 0)  -->
<!DOCTYPE svg PUBLIC "-//W3C//DTD SVG 1.1//EN" "http://www.w3.org/Graphics/SVG/1.1/DTD/svg11.dtd">
<svg version="1.1" id="Layer_1" xmlns="http://www.w3.org/2000/svg" xmlns:xlink="http://www.w3.org/1999/xlink" x="0px" y="0px"
	 width="100px" height="100px" viewBox="0 0 100 100" enable-background="new 0 0 100 100" xml:space="preserve">
<path d="M81.166,64.204L54.463,37.499l8.189-8.303c0.563-0.57,0.795-1.391,0.617-2.17c-0.182-0.783-0.746-1.42-1.504-1.686
	L45.944,19.72c-0.853-0.303-1.808-0.088-2.449,0.557L25.086,38.829c-0.442,0.445-0.687,1.051-0.681,1.68
	c0.008,0.629,0.268,1.227,0.721,1.662L36.15,52.769c0.453,0.438,1.04,0.656,1.626,0.656c0.604,0,1.209-0.234,1.669-0.699
	l5.534-5.609l26.638,26.637c0.457,0.459,1.057,0.688,1.658,0.688c0.598,0,1.199-0.229,1.658-0.688l6.232-6.232
	c0.439-0.439,0.688-1.037,0.688-1.658S81.605,64.644,81.166,64.204z"/>
</svg>
