<?xml version="1.0" encoding="utf-8"?>
<!-- Generator: Adobe Illustrator 16.0.0, SVG Export Plug-In . SVG Version: 6.00 Build 0)  -->
<!DOCTYPE svg PUBLIC "-//W3C//DTD SVG 1.1//EN" "http://www.w3.org/Graphics/SVG/1.1/DTD/svg11.dtd">
<svg version="1.1" id="Layer_1" xmlns="http://www.w3.org/2000/svg" xmlns:xlink="http://www.w3.org/1999/xlink" x="0px" y="0px"
	 width="100px" height="100px" viewBox="0 0 100 100" enable-background="new 0 0 100 100" xml:space="preserve">
<path d="M58.037,29.368l-8.104-8.333c-0.281-0.289-0.666-0.452-1.069-0.454c-0.002,0-0.004,0-0.006,0
	c-0.401,0-0.786,0.16-1.067,0.446l-8.229,8.333c-0.277,0.28-0.433,0.659-0.433,1.054v46.832c0,0.828,0.672,1.5,1.5,1.5h16.334
	c0.828,0,1.5-0.672,1.5-1.5V30.414C58.463,30.023,58.311,29.648,58.037,29.368z M55.463,32.329l-3.861-2.644
	c-0.576-0.397-1.35-0.34-1.863,0.134l-3.688,3.394l-3.449-2.662l4.16-4.213h3.992c0.047,0,0.092-0.01,0.139-0.014l4.57,4.699V32.329
	z M42.129,75.746v-3.291h13.334v3.291H42.129z"/>
</svg>
