<?xml version="1.0" encoding="utf-8"?>
<!-- Generator: Adobe Illustrator 16.0.0, SVG Export Plug-In . SVG Version: 6.00 Build 0)  -->
<!DOCTYPE svg PUBLIC "-//W3C//DTD SVG 1.1//EN" "http://www.w3.org/Graphics/SVG/1.1/DTD/svg11.dtd">
<svg version="1.1" id="Layer_1" xmlns="http://www.w3.org/2000/svg" xmlns:xlink="http://www.w3.org/1999/xlink" x="0px" y="0px"
	 width="100px" height="100px" viewBox="0 0 100 100" enable-background="new 0 0 100 100" xml:space="preserve">
<g>
	<path d="M60.506,55.884h-3.005c0.263-4.331,1.677-7.888,3.005-10.341V55.884z"/>
	<path d="M63.374,69.588V40.315c0-0.592-0.363-1.121-0.915-1.336c-0.549-0.216-1.176-0.069-1.577,0.367
		c-0.257,0.279-6.29,6.985-6.29,17.429c0,0.793,0.642,1.434,1.435,1.434h4.48v12.532c-1.958,0.605-4.036,0.934-6.189,0.934
		c-1.445,0-2.855-0.146-4.218-0.426l-0.104-19.056l3.688-2.893c0.346-0.271,0.549-0.689,0.549-1.128v-7.857
		c0-0.792-0.643-1.434-1.434-1.434c-0.793,0-1.435,0.642-1.435,1.434v7.16l-1.389,1.089l-0.045-8.258
		c-0.005-0.788-0.647-1.425-1.435-1.425c-0.003,0-0.005,0-0.008,0c-0.792,0.004-1.431,0.649-1.426,1.441l0.045,8.312l-1.479-1.159
		v-7.16c0-0.792-0.643-1.434-1.434-1.434c-0.793,0-1.435,0.642-1.435,1.434v7.857c0,0.438,0.202,0.856,0.55,1.128l3.816,2.995
		l0.099,18.119c-8.074-2.916-13.872-10.633-13.872-19.699c0-11.561,9.402-20.963,20.963-20.963c11.558,0,20.963,9.402,20.963,20.963
		C75.28,59.027,70.404,66.202,63.374,69.588z"/>
</g>
</svg>
