<?xml version="1.0" encoding="utf-8"?>
<!-- Generator: Adobe Illustrator 16.0.0, SVG Export Plug-In . SVG Version: 6.00 Build 0)  -->
<!DOCTYPE svg PUBLIC "-//W3C//DTD SVG 1.1//EN" "http://www.w3.org/Graphics/SVG/1.1/DTD/svg11.dtd">
<svg version="1.1" id="Layer_1" xmlns="http://www.w3.org/2000/svg" xmlns:xlink="http://www.w3.org/1999/xlink" x="0px" y="0px"
	 width="100px" height="100px" viewBox="0 0 100 100" enable-background="new 0 0 100 100" xml:space="preserve">
<g>
	<path d="M52.559,19.875c-16.614,0-30.083,13.469-30.083,30.083c0,16.613,13.469,30.082,30.083,30.082s30.083-13.469,30.083-30.082
		C82.641,33.343,69.172,19.875,52.559,19.875z M52.56,77.818c-15.113,0-27.411-12.296-27.411-27.409
		C25.149,35.296,37.447,23,52.56,23s27.407,12.297,27.407,27.409C79.967,65.522,67.673,77.818,52.56,77.818z"/>
	<path d="M52.56,27.01c-12.109,0-22.098,9.248-23.279,21.05h22.334l-1.719-1.719c-0.847-0.848-0.847-2.219,0-3.066
		c0.847-0.847,2.219-0.847,3.066,0l5.42,5.419c0,0,0.001,0.003,0.003,0.003l1.53,1.531l-1.53,1.532
		c-0.001,0-0.003,0.001-0.003,0.001l-5.059,5.059c-0.424,0.424-0.977,0.636-1.533,0.636c-0.553,0-1.109-0.212-1.533-0.636
		c-0.847-0.847-0.847-2.219,0-3.065l1.358-1.358H29.263c1.014,11.973,11.066,21.41,23.297,21.41
		c12.901,0,23.397-10.496,23.397-23.397S65.461,27.01,52.56,27.01z"/>
</g>
</svg>
