<?xml version="1.0" encoding="utf-8"?>
<!-- Generator: Adobe Illustrator 16.0.0, SVG Export Plug-In . SVG Version: 6.00 Build 0)  -->
<!DOCTYPE svg PUBLIC "-//W3C//DTD SVG 1.1//EN" "http://www.w3.org/Graphics/SVG/1.1/DTD/svg11.dtd">
<svg version="1.1" id="Layer_1" xmlns="http://www.w3.org/2000/svg" xmlns:xlink="http://www.w3.org/1999/xlink" x="0px" y="0px"
	 width="100px" height="100px" viewBox="0 0 100 100" enable-background="new 0 0 100 100" xml:space="preserve">
<g>
	<path d="M70.787,28.21c-0.833,0-1.664,0.062-2.49,0.181c-3.217-3.36-7.266-5.723-11.808-6.874c-0.06-0.017-0.12-0.029-0.181-0.04
		l-2.93-0.553c-3.584-4.482-9.011-7.117-14.804-7.117c-9.962,0-18.153,7.723-18.899,17.496C12.929,33.85,8.394,40.272,8.394,47.66
		c0,9.652,7.854,17.508,17.51,17.508c2.492,0,4.93-0.526,7.169-1.536c4.133,3.989,9.514,6.405,15.245,6.87V56.639l-1.489,1.774
		c-0.796,0.95-2.212,1.072-3.161,0.277c-0.948-0.798-1.074-2.214-0.276-3.161l5.453-6.498c0.016-0.019,0.036-0.03,0.053-0.049
		c0.086-0.098,0.181-0.184,0.283-0.264c0.01-0.009,0.02-0.02,0.03-0.026c0.377-0.286,0.842-0.463,1.352-0.463
		s0.974,0.175,1.351,0.462c0.014,0.01,0.025,0.023,0.041,0.033c0.096,0.078,0.188,0.16,0.271,0.254
		c0.018,0.02,0.039,0.032,0.057,0.053l5.453,6.498c0.796,0.947,0.673,2.363-0.276,3.161c-0.421,0.353-0.933,0.524-1.44,0.524
		c-0.642,0-1.277-0.273-1.722-0.802l-1.49-1.775v13.837c5.897-0.584,11.374-3.241,15.491-7.537c0.824,0.12,1.657,0.182,2.49,0.182
		c9.624,0,17.454-7.83,17.454-17.454C88.241,36.039,80.411,28.21,70.787,28.21z"/>
	<path d="M48.317,70.502v13.9c0,1.239,1.005,2.244,2.244,2.244c1.24,0,2.244-1.005,2.244-2.244V70.475
		c-0.815,0.081-1.64,0.125-2.468,0.125C49.66,70.6,48.988,70.556,48.317,70.502z"/>
</g>
</svg>
