<?xml version="1.0" encoding="utf-8"?>
<!-- Generator: Adobe Illustrator 16.0.0, SVG Export Plug-In . SVG Version: 6.00 Build 0)  -->
<!DOCTYPE svg PUBLIC "-//W3C//DTD SVG 1.1//EN" "http://www.w3.org/Graphics/SVG/1.1/DTD/svg11.dtd">
<svg version="1.1" id="Layer_1" xmlns="http://www.w3.org/2000/svg" xmlns:xlink="http://www.w3.org/1999/xlink" x="0px" y="0px"
	 width="100px" height="100px" viewBox="0 0 100 100" enable-background="new 0 0 100 100" xml:space="preserve">
<g>
	<path d="M54.847,40.845c-2.058,0-3.732,1.675-3.732,3.732c0,1.374,0.771,2.632,2.011,3.285c0.471,0.248,0.766,0.736,0.766,1.269
		v5.862h1.912V49.13c0-0.532,0.295-1.021,0.767-1.269c1.238-0.652,2.009-1.911,2.009-3.285
		C58.578,42.52,56.904,40.845,54.847,40.845z"/>
	<path d="M54.847,25.327c-12.458,0-22.592,10.135-22.592,22.592s10.134,22.592,22.592,22.592c12.457,0,22.593-10.135,22.593-22.592
		S67.304,25.327,54.847,25.327z M58.67,49.929v6.498c0,0.792-0.642,1.434-1.434,1.434h-4.779c-0.791,0-1.434-0.642-1.434-1.434
		v-6.498c-1.732-1.23-2.777-3.209-2.777-5.352c0-3.64,2.96-6.599,6.601-6.599c3.638,0,6.599,2.959,6.599,6.599
		C61.445,46.719,60.4,48.699,58.67,49.929z"/>
</g>
</svg>
