<?xml version="1.0" encoding="utf-8"?>
<!-- Generator: Adobe Illustrator 16.0.0, SVG Export Plug-In . SVG Version: 6.00 Build 0)  -->
<!DOCTYPE svg PUBLIC "-//W3C//DTD SVG 1.1//EN" "http://www.w3.org/Graphics/SVG/1.1/DTD/svg11.dtd">
<svg version="1.1" id="Layer_1" xmlns="http://www.w3.org/2000/svg" xmlns:xlink="http://www.w3.org/1999/xlink" x="0px" y="0px"
	 width="100px" height="100px" viewBox="0 0 100 100" enable-background="new 0 0 100 100" xml:space="preserve">
<path d="M76.732,32.037h-8v-3.335c0-1.104-0.896-2-2-2c-1.105,0-2,0.896-2,2v3.335h-18v-3.335c0-1.104-0.896-2-2-2
	c-1.105,0-2,0.896-2,2v3.335h-8.668c-1.104,0-2,0.896-2,2v43.291c0,1.104,0.896,2,2,2h42.668c1.104,0,2-0.896,2-2V34.037
	C78.732,32.933,77.836,32.037,76.732,32.037z M58.334,71.203H55.56V52.667h-0.065l-3.688,1.99l-0.555-2.188l4.634-2.479h2.448
	V71.203z M74.732,43.037H36.064v-7h6.668v2c0,1.104,0.895,2,2,2c1.104,0,2-0.896,2-2v-2h18v2c0,1.104,0.895,2,2,2
	c1.104,0,2-0.896,2-2v-2h6V43.037z"/>
</svg>
