<?xml version="1.0" encoding="utf-8"?>
<!-- Generator: Adobe Illustrator 16.0.0, SVG Export Plug-In . SVG Version: 6.00 Build 0)  -->
<!DOCTYPE svg PUBLIC "-//W3C//DTD SVG 1.1//EN" "http://www.w3.org/Graphics/SVG/1.1/DTD/svg11.dtd">
<svg version="1.1" id="Layer_1" xmlns="http://www.w3.org/2000/svg" xmlns:xlink="http://www.w3.org/1999/xlink" x="0px" y="0px"
	 width="100px" height="100px" viewBox="0 0 100 100" enable-background="new 0 0 100 100" xml:space="preserve">
<g>
	<path d="M52.816,19.697c-17.913,0-32.482,14.572-32.482,32.482c0,17.913,14.569,32.484,32.482,32.484
		c17.912,0,32.482-14.571,32.482-32.484C85.299,34.269,70.728,19.697,52.816,19.697z M52.816,78.634
		c-14.589,0-26.459-11.867-26.459-26.455c0-14.591,11.87-26.458,26.459-26.458c14.591,0,26.455,11.867,26.455,26.458
		C79.271,66.767,67.407,78.634,52.816,78.634z"/>
	<path d="M72.533,40.323c-0.428,0.343-0.871,0.626-1.271,0.792l-0.446,0.194c-0.907,0.403-1.34,0.652-3.23,0.023
		c-0.895-0.299-1.345-0.449-1.299-1.092c0.02-0.284,0.176-0.649,0.797-0.762c0.104-0.019,0.38-0.069,0.416-0.156
		c0.09-0.223,0.217-0.501,0.355-0.806c0.232-0.504,0.754-1.643,0.774-2.069c-0.362-0.373-0.832-0.576-2.451-0.359
		c-1.267,0.167-1.856,0.699-2.671,1.436c-0.413,0.371-0.88,0.792-1.482,1.209c-0.209,0.144-0.325,0.249-0.39,0.316
		c0.04,0.043,0.084,0.092,0.119,0.128c0.243,0.256,0.607,0.644,0.607,1.217c0,0.957-1.038,3.885-2.737,5.795
		c-0.827,0.931-1.255,1.255-1.668,1.566c-0.371,0.279-0.721,0.545-1.457,1.378c-0.437,0.496-0.457,0.675-0.458,0.683
		c0.011,0.023,0.085,0.133,0.141,0.214c0.232,0.343,0.623,0.919,0.508,1.887c-0.046,0.391-0.185,1.579-1.156,1.579
		c-0.528,0-0.861-0.414-1.06-0.661c-0.101-0.102-0.33-0.188-0.531-0.264c-0.538-0.203-1.273-0.48-1.765-1.171
		c-0.473-0.666-0.621-2.058-0.792-4.105c-0.05-0.607-0.093-1.149-0.151-1.496c-0.047-0.279-0.228-0.409-0.73-0.708
		c-0.43-0.255-0.963-0.573-1.319-1.168c-0.354-0.589-0.669-0.271-0.831-0.157c-0.237,0.171-0.501,0.444-0.791,0.737
		c-0.647,0.655-1.383,1.397-2.261,1.708c-0.353,0.125-0.753,0.846-0.991,1.275c-0.336,0.606-0.626,1.128-1.239,1.128
		c-0.123,0-0.295-0.041-0.405-0.098c-0.594-0.289-1.73-0.84-1.983-2.107c-0.14-0.701,0.205-1.56,0.64-2.647
		c0.386-0.962,0.823-2.053,0.911-3.047c0.041-0.439-0.101-0.839-0.42-1.189c-0.473-0.519-1.209-0.79-1.691-0.79
		c-0.179,0-0.249,0.037-0.252,0.038c-0.38,0.209-0.792,1.377-1.065,2.151c-0.254,0.722-0.495,1.403-0.815,1.867
		c-0.169,0.246-0.365,0.495-0.571,0.757c-0.732,0.931-1.56,1.988-1.841,3.803c-0.092,0.602-0.15,1.113-0.203,1.568
		c-0.169,1.47-0.292,2.531-1.287,4.023c-0.327,0.492-0.455,0.675-0.507,0.782c-0.012,0.177-0.067,0.563-0.794,2.225
		c-0.479,1.093-0.592,1.826-0.675,2.36c-0.08,0.507-0.18,1.093-0.718,1.412c3.225,8.714,11.597,14.956,21.42,14.956
		c4.602,0,8.879-1.378,12.47-3.725c-0.4-1.375-0.682-2.713-0.971-2.809c-0.586-0.195-2.791,0.11-3.713,0
		c-0.546-0.066-1.368-0.424-1.172-1.874c0.195-1.449-0.391-3.25,0.782-3.62s3.127-0.84,3.908-1.542
		c0.544-0.487,0.782-1.389,2.15-1.965c1.368-0.576,3.299-0.763,3.908,0c0.223,0.276,0,1.378,1.172,0.792
		c1.173-0.586,2.107-1.551,2.345-2.345c0.136-0.449,0.385-1.475,0.398-2.23c0.116,0.096,0.234,0.195,0.383,0.276
		c0.235,0.126,0.501,0.319,0.765,0.546c0.273-1.412,0.429-2.867,0.429-4.359C75.671,47.628,74.514,43.706,72.533,40.323z
		 M57.281,59.144c-0.977-0.185-1.429,0.831-1.955,0.988c-0.829,0.25-2.714-0.37-3.322-0.988c-0.637-0.649-0.95-2.597-0.977-3.507
		c-0.019-0.661,0.839-3.909,1.789-1.954c0.947,1.954,1.924,2.58,2.51,2.951c0.586,0.371,2.199-0.421,2.736,0
		C58.58,57.039,58.258,59.329,57.281,59.144z M62.49,53.136c-1.377,1.024-1.215,0.153-2.322-0.003
		c-0.203-0.029-0.45-0.034-0.755,0.003l1.386-2.095c0.586-0.882,0.586-0.485,1.691-2.049c1.105-1.563,2.165,0.196,2.217,0.782
		C64.795,50.777,64.12,51.924,62.49,53.136z"/>
</g>
</svg>
