<?xml version="1.0" encoding="utf-8"?>
<!-- Generator: Adobe Illustrator 16.0.0, SVG Export Plug-In . SVG Version: 6.00 Build 0)  -->
<!DOCTYPE svg PUBLIC "-//W3C//DTD SVG 1.1//EN" "http://www.w3.org/Graphics/SVG/1.1/DTD/svg11.dtd">
<svg version="1.1" id="Layer_1" xmlns="http://www.w3.org/2000/svg" xmlns:xlink="http://www.w3.org/1999/xlink" x="0px" y="0px"
	 width="100px" height="100px" viewBox="0 0 100 100" enable-background="new 0 0 100 100" xml:space="preserve">
<path d="M67.213,41.534c0-9.299-7.565-16.863-16.863-16.863c-9.297,0-16.863,7.564-16.863,16.863c0,8.563,6.42,15.639,14.695,16.709
	v10.272h-4.283c-1.197,0-2.168,0.972-2.168,2.168c0,1.197,0.971,2.169,2.168,2.169h4.283v3.371c0,1.197,0.97,2.169,2.168,2.169
	c1.199,0,2.168-0.972,2.168-2.169v-3.371h4.283c1.198,0,2.168-0.972,2.168-2.169c0-1.196-0.97-2.168-2.168-2.168h-4.283V58.243
	C60.793,57.173,67.213,50.097,67.213,41.534z"/>
</svg>
