<?xml version="1.0" encoding="utf-8"?>
<!-- Generator: Adobe Illustrator 16.0.0, SVG Export Plug-In . SVG Version: 6.00 Build 0)  -->
<!DOCTYPE svg PUBLIC "-//W3C//DTD SVG 1.1//EN" "http://www.w3.org/Graphics/SVG/1.1/DTD/svg11.dtd">
<svg version="1.1" id="Layer_1" xmlns="http://www.w3.org/2000/svg" xmlns:xlink="http://www.w3.org/1999/xlink" x="0px" y="0px"
	 width="100px" height="100px" viewBox="0 0 100 100" enable-background="new 0 0 100 100" xml:space="preserve">
<path d="M81.289,56.824h-5.455v-8.567c0-0.014-0.005-0.027-0.005-0.043c0-0.014,0.005-0.027,0.005-0.041
	c0-1.295-1.051-2.346-2.346-2.346H52.431v-5.668h5.455c1.296,0,2.345-1.051,2.345-2.346V22.212c0-1.295-1.049-2.345-2.345-2.345
	H42.285c-1.296,0-2.345,1.05-2.345,2.345v15.602c0,1.295,1.049,2.346,2.345,2.346h5.455v5.668H26.683
	c-1.294,0-2.345,1.051-2.345,2.346v8.651h-5.455c-1.297,0-2.346,1.05-2.346,2.345v15.602c0,1.295,1.049,2.346,2.346,2.346h15.602
	c1.295,0,2.345-1.051,2.345-2.346V59.169c0-1.295-1.05-2.345-2.345-2.345h-5.457v-6.307H47.74v6.307h-5.455
	c-1.296,0-2.345,1.05-2.345,2.345v15.602c0,1.295,1.049,2.346,2.345,2.346h15.601c1.296,0,2.345-1.051,2.345-2.346V59.169
	c0-1.295-1.049-2.345-2.345-2.345h-5.455v-6.307h18.713v6.307h-5.456c-1.295,0-2.346,1.05-2.346,2.345v15.602
	c0,1.295,1.051,2.346,2.346,2.346h15.602c1.296,0,2.345-1.051,2.345-2.346V59.169C83.634,57.874,82.585,56.824,81.289,56.824z"/>
</svg>
