<?xml version="1.0" encoding="utf-8"?>
<!-- Generator: Adobe Illustrator 16.0.0, SVG Export Plug-In . SVG Version: 6.00 Build 0)  -->
<!DOCTYPE svg PUBLIC "-//W3C//DTD SVG 1.1//EN" "http://www.w3.org/Graphics/SVG/1.1/DTD/svg11.dtd">
<svg version="1.1" id="Layer_1" xmlns="http://www.w3.org/2000/svg" xmlns:xlink="http://www.w3.org/1999/xlink" x="0px" y="0px"
	 width="100px" height="100px" viewBox="0 0 100 100" enable-background="new 0 0 100 100" xml:space="preserve">
<path d="M76.365,32.903h-19.68c0.021-0.114,0.036-0.231,0.036-0.353c0-1.104-0.896-2-2-2h-9.256c-1.104,0-2,0.896-2,2
	c0,0.121,0.016,0.238,0.035,0.353h-19.68c-1.337,0-2.422,1.085-2.422,2.422c0,1.338,1.085,2.423,2.422,2.423h2.99v30.854
	c0,1.003,0.813,1.816,1.816,1.816H46.03l-5.951,5.95c-0.709,0.71-0.709,1.858,0,2.568s1.859,0.71,2.568,0l5.946-5.944v5.559
	c0,0.828,0.671,1.5,1.5,1.5s1.5-0.672,1.5-1.5v-5.1l5.944,5.945c0.355,0.355,0.82,0.532,1.285,0.532s0.93-0.177,1.284-0.532
	c0.71-0.709,0.71-1.859,0-2.568l-6.409-6.41h17.86c1.004,0,1.817-0.813,1.817-1.816V37.748h2.989c1.337,0,2.422-1.085,2.422-2.423
	C78.787,33.988,77.702,32.903,76.365,32.903z M68.388,50.218c0,1.104-0.896,2-2,2s-2-0.896-2-2v-1.511l-3.469,4.13
	c-0.646,0.771-1.767,0.94-2.613,0.396l-3.143-2.021l-6.542,8.249c-0.336,0.423-0.829,0.692-1.366,0.747
	c-0.54,0.059-1.075-0.111-1.489-0.461l-4.961-4.178l-6.036,5.761c-0.387,0.37-0.885,0.554-1.381,0.554
	c-0.527,0-1.054-0.207-1.447-0.619c-0.762-0.799-0.732-2.064,0.066-2.827l7.334-7c0.738-0.705,1.889-0.74,2.669-0.083l4.757,4.007
	l6.388-8.054c0.638-0.805,1.783-0.994,2.648-0.439l3.187,2.049l3.106-3.699h-2.374c-1.105,0-2-0.896-2-2s0.895-2,2-2h6.666
	c0.177,0,0.345,0.03,0.508,0.073c0.042,0.011,0.082,0.024,0.123,0.038c0.137,0.046,0.268,0.104,0.389,0.177
	c0.023,0.014,0.049,0.023,0.07,0.038c0.139,0.091,0.262,0.199,0.374,0.32c0.028,0.029,0.052,0.062,0.077,0.094
	c0.092,0.11,0.17,0.23,0.236,0.36c0.01,0.02,0.026,0.034,0.035,0.055c0.004,0.008,0.004,0.018,0.008,0.025
	c0.068,0.152,0.117,0.313,0.146,0.482c0.007,0.041,0.009,0.082,0.013,0.123c0.008,0.071,0.021,0.141,0.021,0.214V50.218z"/>
</svg>
