<?xml version="1.0" encoding="utf-8"?>
<!-- Generator: Adobe Illustrator 16.0.0, SVG Export Plug-In . SVG Version: 6.00 Build 0)  -->
<!DOCTYPE svg PUBLIC "-//W3C//DTD SVG 1.1//EN" "http://www.w3.org/Graphics/SVG/1.1/DTD/svg11.dtd">
<svg version="1.1" id="Layer_1" xmlns="http://www.w3.org/2000/svg" xmlns:xlink="http://www.w3.org/1999/xlink" x="0px" y="0px"
	 width="100px" height="100px" viewBox="0 0 100 100" enable-background="new 0 0 100 100" xml:space="preserve">
<path d="M76.31,40.294c-0.027-0.17-0.081-0.336-0.146-0.496c-0.014-0.035-0.015-0.07-0.03-0.105
	c-0.002-0.002-0.005-0.006-0.006-0.008c0-0.004-0.002-0.006-0.004-0.008l-5.89-12.508c-0.015-0.029-0.04-0.055-0.056-0.084
	c-0.02-0.035-0.027-0.078-0.049-0.113c-0.045-0.076-0.107-0.135-0.16-0.203c-0.053-0.07-0.102-0.145-0.162-0.207
	c-0.088-0.092-0.188-0.17-0.291-0.246c-0.064-0.051-0.125-0.107-0.195-0.148c-0.119-0.072-0.248-0.123-0.379-0.172
	c-0.065-0.025-0.128-0.063-0.197-0.082c-0.203-0.057-0.414-0.09-0.633-0.09H49.576h-16.18c-0.206,0-0.406,0.029-0.6,0.08
	c-0.068,0.018-0.13,0.053-0.197,0.076c-0.119,0.045-0.241,0.084-0.353,0.148c-0.071,0.041-0.13,0.096-0.196,0.141
	c-0.096,0.068-0.195,0.133-0.28,0.215c-0.06,0.059-0.108,0.129-0.161,0.195c-0.063,0.074-0.137,0.141-0.188,0.225l-8,12.508
	c-0.03,0.049-0.044,0.104-0.071,0.156c-0.023,0.041-0.061,0.076-0.081,0.121c-0.021,0.047-0.022,0.096-0.042,0.141
	c-0.043,0.115-0.077,0.229-0.104,0.348c-0.02,0.094-0.037,0.186-0.047,0.279c-0.011,0.117-0.01,0.234-0.004,0.352
	c0.007,0.096,0.014,0.191,0.029,0.285c0.021,0.115,0.057,0.223,0.094,0.334c0.033,0.094,0.063,0.188,0.107,0.277
	c0.015,0.031,0.021,0.066,0.036,0.098c0.042,0.078,0.104,0.139,0.155,0.209c0.041,0.061,0.066,0.125,0.113,0.18l24.179,28.559
	c0.417,0.492,1.042,0.842,1.665,0.824c0.008,0,0.016,0.004,0.021,0.004c0.035,0.002,0.068,0.002,0.103,0.002
	c0.001,0,0.001,0,0.001,0s0.002,0,0.004,0c0.209,0,0.414-0.039,0.611-0.092c0.059-0.018,0.112-0.037,0.17-0.059
	c0.146-0.051,0.287-0.119,0.422-0.199c0.045-0.027,0.093-0.053,0.137-0.082c0.159-0.111,0.309-0.238,0.438-0.391l24.427-28.559
	c0.031-0.037,0.049-0.082,0.076-0.121c0.039-0.049,0.088-0.09,0.121-0.146c0.035-0.055,0.053-0.117,0.083-0.176
	c0.041-0.076,0.079-0.152,0.11-0.234c0.045-0.119,0.077-0.24,0.104-0.361c0.018-0.082,0.037-0.16,0.045-0.242
	c0.016-0.135,0.01-0.266,0-0.4C76.318,40.44,76.322,40.366,76.31,40.294z"/>
</svg>
