<?xml version="1.0" encoding="utf-8"?>
<!-- Generator: Adobe Illustrator 16.0.0, SVG Export Plug-In . SVG Version: 6.00 Build 0)  -->
<!DOCTYPE svg PUBLIC "-//W3C//DTD SVG 1.1//EN" "http://www.w3.org/Graphics/SVG/1.1/DTD/svg11.dtd">
<svg version="1.1" id="Layer_1" xmlns="http://www.w3.org/2000/svg" xmlns:xlink="http://www.w3.org/1999/xlink" x="0px" y="0px"
	 width="100px" height="100px" viewBox="0 0 100 100" enable-background="new 0 0 100 100" xml:space="preserve">
<path d="M71.182,48.242c4.018,0,7.8-1.568,10.644-4.412c4.426-4.426,5.647-11.232,3.038-16.943
	c-0.375-0.809-1.122-1.387-2.014-1.549c-0.156-0.025-0.312-0.039-0.469-0.039c-0.727,0-1.414,0.281-1.931,0.797l-4.427,4.432
	l-2.066-0.158l-0.16-2.068l4.426-4.428c0.632-0.627,0.916-1.531,0.759-2.42c-0.16-0.879-0.74-1.625-1.553-1.994
	c-1.957-0.896-4.133-1.369-6.289-1.369c-4.02,0-7.801,1.566-10.647,4.408c-3.965,3.967-5.386,9.648-3.785,14.963l-1.988,1.986
	L34.152,18.879c-0.879-0.879-2.437-0.879-3.316,0l-6.983,6.984c-0.916,0.916-0.916,2.4,0,3.316l20.568,20.566l-14.15,14.15
	c-2.423,2.424-2.443,6.346-0.046,8.748l1.454,1.451c1.154,1.154,2.693,1.791,4.333,1.791c1.664,0,3.23-0.65,4.415-1.832
	l18.182-18.182l20.939,19.375c0.458,0.457,1.057,0.688,1.658,0.688c0.598,0,1.2-0.23,1.658-0.688c0.916-0.916,0.916-2.4,0-3.316
	L61.925,52.557l4.941-4.941C68.262,48.029,69.709,48.242,71.182,48.242z"/>
</svg>
