<?xml version="1.0" encoding="utf-8"?>
<!-- Generator: Adobe Illustrator 16.0.0, SVG Export Plug-In . SVG Version: 6.00 Build 0)  -->
<!DOCTYPE svg PUBLIC "-//W3C//DTD SVG 1.1//EN" "http://www.w3.org/Graphics/SVG/1.1/DTD/svg11.dtd">
<svg version="1.1" id="Layer_1" xmlns="http://www.w3.org/2000/svg" xmlns:xlink="http://www.w3.org/1999/xlink" x="0px" y="0px"
	 width="100px" height="100px" viewBox="0 0 100 100" enable-background="new 0 0 100 100" xml:space="preserve">
<path d="M77.522,46.166l-0.027-0.103c-0.023-0.178-0.063-0.351-0.125-0.527l-0.059-0.176l-0.042-0.091
	c-0.095-0.204-0.204-0.385-0.33-0.549l-0.031-0.062L57.336,25.086c-0.228-0.228-0.493-0.41-0.829-0.565l-0.232-0.086
	c-0.173-0.059-0.35-0.101-0.535-0.126l-0.135-0.036H42.565c-5.075,0-9.204,4.127-9.204,9.202v38.647
	c0,5.074,4.129,9.202,9.204,9.202H68.33c5.073,0,9.2-4.128,9.2-9.202V46.426L77.522,46.166z"/>
</svg>
