<?xml version="1.0" encoding="utf-8"?>
<!-- Generator: Adobe Illustrator 16.0.0, SVG Export Plug-In . SVG Version: 6.00 Build 0)  -->
<!DOCTYPE svg PUBLIC "-//W3C//DTD SVG 1.1//EN" "http://www.w3.org/Graphics/SVG/1.1/DTD/svg11.dtd">
<svg version="1.1" id="Layer_1" xmlns="http://www.w3.org/2000/svg" xmlns:xlink="http://www.w3.org/1999/xlink" x="0px" y="0px"
	 width="100px" height="100px" viewBox="0 0 100 100" enable-background="new 0 0 100 100" xml:space="preserve">
<path d="M69.091,30H65v-2.655c0-1.104-0.896-2-2-2s-2,0.896-2,2V30h-2v-2.655c0-1.104-0.896-2-2-2s-2,0.896-2,2V30h-2v-2.655
	c0-1.104-0.896-2-2-2s-2,0.896-2,2V30h-2v-2.655c0-1.104-0.896-2-2-2s-2,0.896-2,2V30h-2v-2.655c0-1.104-0.896-2-2-2s-2,0.896-2,2
	V30h-4.409C31.486,30,31,30.99,31,32.095v46.25C31,79.449,31.486,81,32.591,81h36.5C70.195,81,71,79.449,71,78.345v-46.25
	C71,30.99,70.195,30,69.091,30z M62.841,67h-24c-1.104,0-2-0.896-2-2s0.896-2,2-2h24c1.104,0,2,0.896,2,2S63.945,67,62.841,67z
	 M62.841,61h-24c-1.104,0-2-0.896-2-2s0.896-2,2-2h24c1.104,0,2,0.896,2,2S63.945,61,62.841,61z M62.841,55h-24
	c-1.104,0-2-0.896-2-2s0.896-2,2-2h24c1.104,0,2,0.896,2,2S63.945,55,62.841,55z M62.841,49h-24c-1.104,0-2-0.896-2-2s0.896-2,2-2
	h24c1.104,0,2,0.896,2,2S63.945,49,62.841,49z"/>
</svg>
