<?xml version="1.0" encoding="utf-8"?>
<!-- Generator: Adobe Illustrator 16.0.0, SVG Export Plug-In . SVG Version: 6.00 Build 0)  -->
<!DOCTYPE svg PUBLIC "-//W3C//DTD SVG 1.1//EN" "http://www.w3.org/Graphics/SVG/1.1/DTD/svg11.dtd">
<svg version="1.1" id="Layer_1" xmlns="http://www.w3.org/2000/svg" xmlns:xlink="http://www.w3.org/1999/xlink" x="0px" y="0px"
	 width="100px" height="100px" viewBox="0 0 100 100" enable-background="new 0 0 100 100" xml:space="preserve">
<path d="M74.446,39.333c-0.814-0.146-1.594,0.4-1.738,1.217c-1.181,6.689-5.666,11.98-11.475,14.502L57.48,44.371
	c2.204-1.368,3.681-3.803,3.681-6.583c0-3.76-2.692-6.9-6.25-7.602v-5.648c0-0.828-0.672-1.5-1.5-1.5s-1.5,0.672-1.5,1.5v5.648
	c-3.558,0.701-6.25,3.842-6.25,7.602c0,2.838,1.537,5.316,3.818,6.667L38.996,74.291c-0.274,0.781,0.136,1.638,0.918,1.912
	c0.165,0.058,0.332,0.085,0.497,0.085c0.619,0,1.198-0.386,1.415-1.003L52.308,45.45c0.361,0.052,0.728,0.088,1.103,0.088
	c0.43,0,0.85-0.044,1.261-0.111l3.722,10.594c-2.627,0.686-5.434,0.849-8.277,0.344c-0.813-0.146-1.594,0.401-1.738,1.217
	s0.4,1.594,1.217,1.738c1.32,0.232,2.644,0.348,3.957,0.348c1.985,0,3.945-0.278,5.844-0.795l5.768,16.413
	c0.217,0.617,0.795,1.003,1.414,1.003c0.166,0,0.334-0.027,0.498-0.085c0.781-0.274,1.192-1.131,0.918-1.912l-5.762-16.396
	c1.453-0.615,2.854-1.376,4.176-2.302c4.924-3.446,8.211-8.604,9.255-14.522C75.805,40.256,75.261,39.478,74.446,39.333z"/>
</svg>
