<?xml version="1.0" encoding="utf-8"?>
<!-- Generator: Adobe Illustrator 16.0.0, SVG Export Plug-In . SVG Version: 6.00 Build 0)  -->
<!DOCTYPE svg PUBLIC "-//W3C//DTD SVG 1.1//EN" "http://www.w3.org/Graphics/SVG/1.1/DTD/svg11.dtd">
<svg version="1.1" id="Layer_1" xmlns="http://www.w3.org/2000/svg" xmlns:xlink="http://www.w3.org/1999/xlink" x="0px" y="0px"
	 width="100px" height="100px" viewBox="0 0 100 100" enable-background="new 0 0 100 100" xml:space="preserve">
<g>
	<path d="M39.388,40.418V24.022c0-1.294-1.049-2.345-2.345-2.345s-2.345,1.05-2.345,2.345v16.396
		c-3.748,1.032-6.514,4.461-6.514,8.533s2.766,7.501,6.514,8.533V77.27c0,1.294,1.049,2.345,2.345,2.345s2.345-1.05,2.345-2.345
		V57.484c3.748-1.032,6.514-4.461,6.514-8.533S43.136,41.45,39.388,40.418z"/>
	<path d="M59.972,33.3c0-4.072-2.766-7.5-6.514-8.533v-0.745c0-1.294-1.049-2.345-2.345-2.345s-2.345,1.05-2.345,2.345v0.745
		c-3.748,1.032-6.514,4.461-6.514,8.533s2.766,7.501,6.514,8.533V77.27c0,1.294,1.049,2.345,2.345,2.345s2.345-1.05,2.345-2.345
		V41.833C57.206,40.801,59.972,37.372,59.972,33.3z"/>
	<path d="M67.528,54.992v-30.97c0-1.294-1.049-2.345-2.346-2.345c-1.295,0-2.344,1.05-2.344,2.345v30.97
		c-3.748,1.032-6.514,4.461-6.514,8.533s2.766,7.501,6.514,8.533v5.212c0,1.294,1.049,2.345,2.344,2.345
		c1.297,0,2.346-1.05,2.346-2.345v-5.212c3.748-1.032,6.513-4.461,6.513-8.533S71.276,56.024,67.528,54.992z"/>
</g>
</svg>
