<?xml version="1.0" encoding="utf-8"?>
<!-- Generator: Adobe Illustrator 16.0.0, SVG Export Plug-In . SVG Version: 6.00 Build 0)  -->
<!DOCTYPE svg PUBLIC "-//W3C//DTD SVG 1.1//EN" "http://www.w3.org/Graphics/SVG/1.1/DTD/svg11.dtd">
<svg version="1.1" id="Layer_1" xmlns="http://www.w3.org/2000/svg" xmlns:xlink="http://www.w3.org/1999/xlink" x="0px" y="0px"
	 width="100px" height="100px" viewBox="0 0 100 100" enable-background="new 0 0 100 100" xml:space="preserve">
<path d="M69.428,25.445H40.276c-2.406,0-4.364,1.957-4.364,4.363v14.074h-2.867c-2.407,0-4.365,1.959-4.365,4.365v25.695
	c0,2.406,1.958,4.365,4.365,4.365h2.492H69.43c2.406,0,4.364-1.959,4.364-4.365V29.809C73.794,27.402,71.836,25.445,69.428,25.445z
	 M42.818,33.424h23.279v12.703H42.818V33.424z M64.895,69.83H44.021c-1.239,0-2.244-1.006-2.244-2.244
	c0-1.24,1.005-2.246,2.244-2.246h20.874c1.24,0,2.244,1.006,2.244,2.246C67.139,68.824,66.135,69.83,64.895,69.83z M64.895,62.348
	H44.021c-1.239,0-2.244-1.004-2.244-2.244c0-1.238,1.005-2.244,2.244-2.244h20.874c1.24,0,2.244,1.006,2.244,2.244
	C67.139,61.344,66.135,62.348,64.895,62.348z M64.895,54.867H44.021c-1.239,0-2.244-1.004-2.244-2.244
	c0-1.238,1.005-2.244,2.244-2.244h20.874c1.24,0,2.244,1.006,2.244,2.244C67.139,53.863,66.135,54.867,64.895,54.867z"/>
</svg>
