<?xml version="1.0" encoding="utf-8"?>
<!-- Generator: Adobe Illustrator 16.0.0, SVG Export Plug-In . SVG Version: 6.00 Build 0)  -->
<!DOCTYPE svg PUBLIC "-//W3C//DTD SVG 1.1//EN" "http://www.w3.org/Graphics/SVG/1.1/DTD/svg11.dtd">
<svg version="1.1" id="Layer_1" xmlns="http://www.w3.org/2000/svg" xmlns:xlink="http://www.w3.org/1999/xlink" x="0px" y="0px"
	 width="100px" height="100px" viewBox="0 0 100 100" enable-background="new 0 0 100 100" xml:space="preserve">
<g>
	<path d="M67.877,29.531c-0.545-0.545-1.272-0.846-2.044-0.846s-1.499,0.301-2.044,0.846l-8.873,8.871V20.373
		c0-1.596-1.298-2.893-2.893-2.893c-1.596,0-2.893,1.297-2.893,2.893v18.029l-8.871-8.871c-0.546-0.545-1.273-0.846-2.045-0.846
		c-0.773,0-1.5,0.301-2.046,0.846c-1.127,1.129-1.127,2.965,0,4.092l13.805,13.803c0.266,0.268,0.58,0.48,0.953,0.637
		c0.357,0.145,0.727,0.217,1.098,0.217s0.74-0.072,1.113-0.223c0.357-0.15,0.672-0.363,0.931-0.625l13.813-13.809
		C69.007,32.496,69.007,30.66,67.877,29.531z"/>
	<path d="M83.143,48.199l0.084-0.047L70.966,35.248L67,38.906v0.008L72.684,44H59v5.428C59,52.287,56.233,53,54.535,53h-5.024
		C47.813,53,45,52.287,45,49.428V44H31.036l4.081-4.479l-3.669-3.589L21.137,47.713l-0.818,0.962l0.161,0.081
		C19.463,50.324,19,52.17,19,54.047v16.559C19,75.965,23.184,80,28.543,80h46.962C80.863,80,85,75.965,85,70.605V54.047
		C85,51.924,84.419,49.881,83.143,48.199z"/>
</g>
</svg>
