<?xml version="1.0" encoding="utf-8"?>
<!-- Generator: Adobe Illustrator 16.0.0, SVG Export Plug-In . SVG Version: 6.00 Build 0)  -->
<!DOCTYPE svg PUBLIC "-//W3C//DTD SVG 1.1//EN" "http://www.w3.org/Graphics/SVG/1.1/DTD/svg11.dtd">
<svg version="1.1" id="Layer_1" xmlns="http://www.w3.org/2000/svg" xmlns:xlink="http://www.w3.org/1999/xlink" x="0px" y="0px"
	 width="100px" height="100px" viewBox="0 0 100 100" enable-background="new 0 0 100 100" xml:space="preserve">
<path d="M84.896,28.693l-9.534-9.535c-0.439-0.441-1.037-0.688-1.658-0.688c-0.623,0-1.218,0.246-1.658,0.688L29.185,62.018
	c-0.449,0.449-0.698,1.064-0.685,1.699l0.169,9.367c0.021,1.262,1.042,2.279,2.303,2.303l9.365,0.168c0.015,0,0.029,0,0.042,0
	c0.622,0,1.219-0.248,1.658-0.688L84.896,32.01C85.813,31.094,85.813,29.609,84.896,28.693z M39.425,70.848l-6.108-0.109
	l-0.11-6.109l3.378-3.379l6.219,6.219L39.425,70.848z M74.016,36.258l-6.22-6.219l5.908-5.908l6.219,6.221L74.016,36.258z"/>
</svg>
