<?xml version="1.0" encoding="utf-8"?>
<!-- Generator: Adobe Illustrator 16.0.0, SVG Export Plug-In . SVG Version: 6.00 Build 0)  -->
<!DOCTYPE svg PUBLIC "-//W3C//DTD SVG 1.1//EN" "http://www.w3.org/Graphics/SVG/1.1/DTD/svg11.dtd">
<svg version="1.1" id="Layer_1" xmlns="http://www.w3.org/2000/svg" xmlns:xlink="http://www.w3.org/1999/xlink" x="0px" y="0px"
	 width="100px" height="100px" viewBox="0 0 100 100" enable-background="new 0 0 100 100" xml:space="preserve">
<path d="M69.381,48.925c-0.621,0-1.226,0.063-1.815,0.175l-1.645-4.83v-1.727l0.773-0.259v0.95c0,0.857,0.693,1.551,1.55,1.551
	s1.55-0.693,1.55-1.551v-6.588c0-0.855-0.693-1.549-1.55-1.549s-1.55,0.693-1.55,1.549v2.37l-2.196,0.731v-3.993
	c0-0.855-0.693-1.549-1.55-1.549H54.81c-0.855,0-1.548,0.693-1.548,1.549c0,0.857,0.692,1.551,1.548,1.551h6.588v2.2l-8.458,4.97
	l-2.644-3.035c-0.294-0.337-0.72-0.531-1.168-0.531H36.469c-0.853,0-1.548,0.694-1.548,1.55v3.101c0,0.414,0.165,0.813,0.461,1.104
	c0.295,0.292,0.718,0.494,1.111,0.445l7.986-0.114l4.081,7.35h-1.222c-1.588-3.208-4.887-5.419-8.699-5.419
	c-5.357,0-9.715,4.357-9.715,9.714c0,5.357,4.357,9.715,9.715,9.715c5.354,0,9.713-4.357,9.713-9.715
	c0-0.406-0.033-0.802-0.082-1.195h2.925h5.038c0.498,0,0.969-0.24,1.26-0.648l6.382-8.917l0.777,2.28
	c-2.97,1.665-4.986,4.841-4.986,8.48c0,5.357,4.358,9.715,9.715,9.715c5.355,0,9.713-4.357,9.713-9.715
	C79.094,53.282,74.737,48.925,69.381,48.925z"/>
</svg>
