<?xml version="1.0" encoding="utf-8"?>
<!-- Generator: Adobe Illustrator 16.0.0, SVG Export Plug-In . SVG Version: 6.00 Build 0)  -->
<!DOCTYPE svg PUBLIC "-//W3C//DTD SVG 1.1//EN" "http://www.w3.org/Graphics/SVG/1.1/DTD/svg11.dtd">
<svg version="1.1" id="Layer_1" xmlns="http://www.w3.org/2000/svg" xmlns:xlink="http://www.w3.org/1999/xlink" x="0px" y="0px"
	 width="100px" height="100px" viewBox="0 0 100 100" enable-background="new 0 0 100 100" xml:space="preserve">
<path d="M72.08,25.5H28.306c-0.621,0-1.218,0.247-1.658,0.687c-0.438,0.439-0.685,1.037-0.685,1.658v43.774
	c0,0.647,0.26,1.233,0.685,1.658c0.425,0.425,1.011,0.687,1.658,0.687H72.08c0.621,0,1.219-0.246,1.658-0.687
	c0.439-0.439,0.686-1.037,0.686-1.658V27.845C74.424,26.55,73.375,25.5,72.08,25.5z M40.59,64.601
	c-1.452,1.452-3.811,1.452-5.263-0.001c-1.454-1.455-1.454-3.811,0-5.263c1.452-1.454,3.81-1.454,5.261,0
	C42.043,60.789,42.041,63.144,40.59,64.601z M48.127,63.423c-0.373,0.375-0.889,0.605-1.457,0.605c-1.139,0-2.061-0.922-2.061-2.06
	c-0.003-3.667-2.986-6.652-6.65-6.652c-1.139,0-2.064-0.922-2.064-2.061c0-1.139,0.929-2.059,2.066-2.061
	c5.934,0.002,10.768,4.834,10.771,10.772C48.731,62.535,48.501,63.051,48.127,63.423z M56.836,63.423
	c-0.373,0.373-0.889,0.605-1.457,0.606c-1.139,0-2.061-0.924-2.061-2.061c0-8.469-6.893-15.362-15.362-15.362
	c-1.138,0-2.062-0.921-2.062-2.06c0.004-1.138,0.926-2.063,2.063-2.061c10.744-0.002,19.482,8.739,19.482,19.482
	C57.439,62.537,57.209,63.051,56.836,63.423z M65.543,63.423c-0.371,0.375-0.889,0.605-1.455,0.605c-1.141,0-2.063-0.922-2.063-2.06
	c0.002-6.429-2.503-12.472-7.048-17.019c-4.548-4.55-10.591-7.053-17.019-7.052c-1.139,0.001-2.064-0.922-2.064-2.061
	c0.004-1.136,0.928-2.06,2.063-2.063c7.529,0.003,14.609,2.935,19.936,8.26c5.324,5.328,8.258,12.406,8.258,19.933
	C66.148,62.535,65.92,63.051,65.543,63.423z"/>
</svg>
