<?xml version="1.0" encoding="utf-8"?>
<!-- Generator: Adobe Illustrator 16.0.0, SVG Export Plug-In . SVG Version: 6.00 Build 0)  -->
<!DOCTYPE svg PUBLIC "-//W3C//DTD SVG 1.1//EN" "http://www.w3.org/Graphics/SVG/1.1/DTD/svg11.dtd">
<svg version="1.1" id="Layer_1" xmlns="http://www.w3.org/2000/svg" xmlns:xlink="http://www.w3.org/1999/xlink" x="0px" y="0px"
	 width="100px" height="100px" viewBox="0 0 100 100" enable-background="new 0 0 100 100" xml:space="preserve">
<g>
	<path d="M51.42,25.154c-15.111,0-27.408,12.294-27.408,27.41c0,15.113,12.297,27.408,27.408,27.408
		c15.117,0,27.412-12.295,27.412-27.408C78.832,37.448,66.537,25.154,51.42,25.154z M57.619,47.269c1.461,0,2.646,1.188,2.646,2.648
		s-1.186,2.646-2.646,2.646s-2.646-1.186-2.646-2.646S56.158,47.269,57.619,47.269z M45.223,47.269c1.463,0,2.646,1.188,2.646,2.648
		s-1.184,2.646-2.646,2.646s-2.645-1.186-2.645-2.646S43.76,47.269,45.223,47.269z M69.908,58.021
		C67.51,66.155,59.906,71.835,51.42,71.835c-8.557,0-15.971-5.5-18.447-13.684c-0.322-1.063,0.277-2.18,1.338-2.5
		c0.193-0.059,0.383-0.08,0.576-0.08v-0.008l33.09-0.113v0.008c0.191,0,0.383,0.018,0.574,0.074
		C69.613,55.845,70.221,56.962,69.908,58.021z"/>
	<path d="M51.42,67.823c5.779,0,11.031-3.33,13.6-8.354l-27.146,0.096C40.461,64.534,45.693,67.823,51.42,67.823z"/>
	<path d="M66.061,56.89c-0.268,0.902-0.621,1.762-1.041,2.58l2.973-0.01l-0.016-4.002C67.113,55.46,66.318,56.019,66.061,56.89z"/>
	<path d="M37.873,59.565c-0.428-0.818-0.787-1.678-1.061-2.576c-0.264-0.869-1.064-1.424-1.926-1.418l0.012,4.006L37.873,59.565z"/>
</g>
</svg>
