<?xml version="1.0" encoding="utf-8"?>
<!-- Generator: Adobe Illustrator 16.0.0, SVG Export Plug-In . SVG Version: 6.00 Build 0)  -->
<!DOCTYPE svg PUBLIC "-//W3C//DTD SVG 1.1//EN" "http://www.w3.org/Graphics/SVG/1.1/DTD/svg11.dtd">
<svg version="1.1" id="Layer_1" xmlns="http://www.w3.org/2000/svg" xmlns:xlink="http://www.w3.org/1999/xlink" x="0px" y="0px"
	 width="100px" height="100px" viewBox="0 0 100 100" enable-background="new 0 0 100 100" xml:space="preserve">
<g>
	<path d="M35.759,35.631c0.545,0.547,1.271,0.848,2.044,0.848s1.499-0.301,2.046-0.848l8.872-8.871v18.029
		c0,1.596,1.298,2.893,2.893,2.893c1.596,0,2.894-1.297,2.894-2.893V26.76l8.872,8.871c0.545,0.547,1.271,0.848,2.044,0.848
		s1.499-0.301,2.046-0.848c1.128-1.129,1.128-2.963,0-4.092L53.664,17.738c-0.266-0.27-0.58-0.482-0.953-0.637
		c-0.356-0.146-0.727-0.219-1.098-0.219s-0.74,0.072-1.111,0.225c-0.357,0.148-0.673,0.361-0.933,0.623L35.757,31.539
		C34.631,32.668,34.631,34.502,35.759,35.631z"/>
	<path d="M82.938,48.127l-0.018-0.047L71.313,35.176L68,38.834v0.008L72.273,45H59v4.355C59,52.215,55.823,53,54.125,53h-5.024
		C47.403,53,45,52.215,45,49.355V45H30.626l4.081-5.016l-3.669-3.856L20.727,47.775l-0.818,0.895l0.366,0.046
		C19.257,50.284,19,52.098,19,53.975v16.559C19,75.893,22.774,81,28.133,81h46.962C80.453,81,85,75.893,85,70.533V53.975
		C85,51.85,84.214,49.809,82.938,48.127z"/>
</g>
</svg>
