<?xml version="1.0" encoding="utf-8"?>
<!-- Generator: Adobe Illustrator 16.0.0, SVG Export Plug-In . SVG Version: 6.00 Build 0)  -->
<!DOCTYPE svg PUBLIC "-//W3C//DTD SVG 1.1//EN" "http://www.w3.org/Graphics/SVG/1.1/DTD/svg11.dtd">
<svg version="1.1" id="Layer_1" xmlns="http://www.w3.org/2000/svg" xmlns:xlink="http://www.w3.org/1999/xlink" x="0px" y="0px"
	 width="100px" height="100px" viewBox="0 0 100 100" enable-background="new 0 0 100 100" xml:space="preserve">
<g>
	<path d="M62.343,83.312c0,1.652-0.437,3.1-1.159,4.139C61.908,86.411,62.343,84.964,62.343,83.312v-11.92l0,0V83.312z"/>
	<path d="M45.408,87.45c0.724,1.035,1.735,1.658,2.889,1.658l0,0C47.144,89.108,46.132,88.485,45.408,87.45z"/>
	<path d="M38.577,68.265l2.158-3.199l0,0l-2.161,3.199c-0.415,0.615-0.457,1.408-0.108,2.064
		C38.12,69.673,38.161,68.88,38.577,68.265z"/>
	<path d="M44.249,71.392L44.249,71.392l-0.001,11.92c0,1.652,0.438,3.1,1.16,4.139c-0.723-1.039-1.159-2.486-1.159-4.139V71.392z"/>
	<path d="M38.466,70.329c0.349,0.654,1.03,1.063,1.771,1.063h0.001C39.496,71.392,38.816,70.983,38.466,70.329z"/>
	<path d="M58.293,89.108h0.001c1.154,0,2.165-0.623,2.889-1.658C60.458,88.485,59.448,89.108,58.293,89.108z"/>
	<path d="M66.381,71.392c0.97,0,1.777-0.688,1.965-1.6C68.157,70.704,67.35,71.392,66.381,71.392z"/>
	<path d="M68.168,68.522c-0.086-0.176-0.179-0.35-0.309-0.492l-1.863-2.758l-2.006-2.967c0.737-0.188,1.406-0.527,2-0.969
		c0.27-0.201,0.52-0.422,0.75-0.664c0.01-0.01,0.018-0.016,0.026-0.025c0.222-0.236,0.425-0.49,0.604-0.762
		c0.01-0.012,0.017-0.025,0.027-0.037c0.181-0.275,0.337-0.564,0.47-0.871c0.003-0.006,0.006-0.014,0.009-0.02
		c0.134-0.314,0.243-0.643,0.32-0.982c0.041-0.176,0.072-0.355,0.1-0.535c0.028-0.223,0.052-0.445,0.058-0.676
		c0-0.025,0.004-0.051,0.004-0.076V37.644c0,0-0.003-0.023-0.003-0.033c-0.001-0.313-0.041-0.617-0.09-0.914
		c-0.022-0.115-0.038-0.232-0.063-0.344c-0.313-1.371-1.116-2.549-2.212-3.357c-0.192-0.143-0.402-0.266-0.609-0.385
		c-0.09-0.051-0.178-0.102-0.271-0.146c-0.178-0.092-0.364-0.17-0.552-0.24c-0.167-0.061-0.333-0.111-0.504-0.158
		c-0.145-0.039-0.291-0.084-0.44-0.111c-0.341-0.063-0.69-0.107-1.049-0.107h-0.568h-0.001c1.081-1.256,1.898-2.744,2.357-4.383
		c0.278-0.982,0.424-2.016,0.424-3.084c0-0.396-0.019-0.789-0.06-1.176c-0.588-5.779-5.486-10.307-11.419-10.307
		c-5.934,0-10.833,4.527-11.422,10.307c-0.04,0.387-0.059,0.779-0.059,1.176c0,0.711,0.065,1.41,0.192,2.086
		c0.375,2.031,1.293,3.875,2.589,5.381l0,0h-0.569c-0.359,0-0.706,0.045-1.046,0.107c-0.117,0.021-0.232,0.053-0.348,0.082
		c-0.217,0.055-0.428,0.121-0.635,0.197c-0.129,0.049-0.257,0.098-0.384,0.156c-0.192,0.09-0.373,0.191-0.552,0.301
		c-0.11,0.066-0.223,0.123-0.328,0.193c-1.119,0.777-1.938,1.943-2.293,3.297c-0.001,0.012-0.006,0.021-0.007,0.031
		c-0.045,0.17-0.078,0.348-0.111,0.521c-0.047,0.299-0.09,0.598-0.09,0.91v19.045c0,0.27,0.031,0.533,0.068,0.793
		c0.035,0.219,0.079,0.434,0.134,0.646v0.002c0.089,0.34,0.206,0.668,0.35,0.98c0,0,0,0,0.001,0c0.14,0.307,0.308,0.596,0.496,0.869
		c0.008,0.012,0.015,0.025,0.024,0.035c0.184,0.264,0.391,0.51,0.617,0.736c0.013,0.016,0.027,0.031,0.041,0.045
		c0.237,0.236,0.496,0.453,0.772,0.646c0.561,0.389,1.185,0.691,1.863,0.863l-1.863,2.76l-2.158,3.199
		c-0.417,0.615-0.457,1.408-0.111,2.064c0.35,0.654,1.03,1.063,1.773,1.063h0.992h0.027h2.99h0.001v11.92
		c0,1.652,0.437,3.1,1.159,4.139c0.724,1.035,1.736,1.658,2.889,1.658h9.997c1.155,0,2.165-0.623,2.891-1.658
		c0.723-1.039,1.159-2.486,1.159-4.139v-11.92l0,0h3.285h0.725h0.001c0.01-0.002,0.019-0.002,0.027,0c0.968,0,1.776-0.688,1.965-1.6
		c0.025-0.131,0.041-0.266,0.041-0.406C68.387,69.073,68.297,68.788,68.168,68.522z"/>
	<path d="M35.761,58.128V36.202c0.353-1.361,1.173-2.537,2.299-3.318c-0.937-0.65-2.069-1.037-3.293-1.037h-0.569
		c1.728-2.01,2.779-4.615,2.779-7.467c0-6.332-5.149-11.482-11.48-11.482S14.02,18.048,14.02,24.38c0,2.852,1.052,5.457,2.781,7.467
		h-0.57c-3.196,0-5.794,2.602-5.794,5.797v19.045c0,2.703,1.859,4.979,4.367,5.617l-4.025,5.959
		c-0.415,0.615-0.458,1.408-0.107,2.064c0.349,0.654,1.03,1.063,1.771,1.063h4.01v11.92c0,3.307,1.74,5.797,4.048,5.797h9.996
		c2.31,0,4.051-2.49,4.051-5.797v-11.92h3.015c-0.741,0-1.421-0.408-1.77-1.063c-0.347-0.656-0.307-1.449,0.108-2.064l2.16-3.199
		l-1.866-2.76c0.679-0.172,1.306-0.477,1.866-0.863C36.937,60.659,36.114,59.491,35.761,58.128z"/>
	<path d="M95.922,68.03l-3.865-5.725c2.505-0.639,4.366-2.914,4.366-5.617V37.644c0-3.195-2.6-5.797-5.794-5.797h-0.57
		c1.729-2.01,2.782-4.615,2.782-7.467c0-6.332-5.15-11.482-11.48-11.482c-6.331,0-11.481,5.15-11.481,11.482
		c0,2.852,1.051,5.457,2.781,7.467h-0.57c-1.283,0-2.462,0.436-3.424,1.148c1.095,0.809,1.897,1.986,2.21,3.357l-0.004,21.623
		c-0.315,1.371-1.109,2.553-2.206,3.361c0.594,0.441,1.263,0.781,1.999,0.969l-1.999,2.959l1.866,2.766
		c0.329,0.357,0.529,0.834,0.529,1.355c0,1.109-0.897,2.006-2.006,2.006h3.257v11.92c0,3.307,1.742,5.797,4.049,5.797h9.997
		c2.309,0,4.05-2.49,4.05-5.797v-11.92h4.01c0.012-0.002,0.02-0.002,0.027,0c1.108,0,2.006-0.896,2.006-2.006
		C96.45,68.864,96.25,68.388,95.922,68.03z"/>
</g>
</svg>
