<?xml version="1.0" encoding="utf-8"?>
<!-- Generator: Adobe Illustrator 16.0.0, SVG Export Plug-In . SVG Version: 6.00 Build 0)  -->
<!DOCTYPE svg PUBLIC "-//W3C//DTD SVG 1.1//EN" "http://www.w3.org/Graphics/SVG/1.1/DTD/svg11.dtd">
<svg version="1.1" id="Layer_1" xmlns="http://www.w3.org/2000/svg" xmlns:xlink="http://www.w3.org/1999/xlink" x="0px" y="0px"
	 width="100px" height="100px" viewBox="0 0 100 100" enable-background="new 0 0 100 100" xml:space="preserve">
<path d="M68.694,41.685H39.946c-0.029-0.051-0.047-0.104-0.079-0.155l-1.998-3.19l0,0c-2.992-4.779-1.541-11.101,3.237-14.097
	c2.314-1.449,5.056-1.916,7.718-1.301c2.662,0.609,4.926,2.221,6.375,4.533c0,0.002,0.004,0.003,0.004,0.004l3.562,5.683
	c0.567,0.905,1.54,1.402,2.536,1.402c0.544,0,1.094-0.147,1.587-0.457c1.4-0.877,1.823-2.724,0.947-4.125l-3.563-5.683
	c-0.003-0.004-0.006-0.008-0.009-0.013c-2.299-3.661-5.885-6.212-10.102-7.18c-4.22-0.966-8.564-0.235-12.234,2.066
	c-7.574,4.745-9.875,14.77-5.129,22.344c0,0,0,0,0,0.001l0.105,0.167h-2.379c-1.654,0-2.992,1.34-2.992,2.992v29.688
	c0,1.653,1.338,2.992,2.992,2.992h38.169c1.65,0,2.992-1.339,2.992-2.992V44.677C71.686,43.024,70.344,41.685,68.694,41.685z"/>
</svg>
