<?xml version="1.0" encoding="utf-8"?>
<!-- Generator: Adobe Illustrator 16.0.0, SVG Export Plug-In . SVG Version: 6.00 Build 0)  -->
<!DOCTYPE svg PUBLIC "-//W3C//DTD SVG 1.1//EN" "http://www.w3.org/Graphics/SVG/1.1/DTD/svg11.dtd">
<svg version="1.1" id="Layer_1" xmlns="http://www.w3.org/2000/svg" xmlns:xlink="http://www.w3.org/1999/xlink" x="0px" y="0px"
	 width="100px" height="100px" viewBox="0 0 100 100" enable-background="new 0 0 100 100" xml:space="preserve">
<path d="M54.295,25.292c-15.522,0-28.151,12.63-28.151,28.152c0,15.521,12.629,28.152,28.151,28.152s28.15-12.631,28.15-28.152
	C82.445,37.922,69.817,25.292,54.295,25.292z M78.282,58.712c0.839,0.841,0.839,2.202,0,3.042c-0.42,0.421-0.972,0.63-1.521,0.63
	c-0.551,0-1.101-0.209-1.521-0.63l-5.719-5.719h-9.482l6.682,6.682h8.089c1.188,0,2.15,0.964,2.15,2.15
	c0,1.188-0.962,2.151-2.15,2.151h-3.787l1.652,1.651c0.84,0.84,0.84,2.201,0,3.041c-0.42,0.42-0.972,0.63-1.521,0.63
	c-0.552,0-1.101-0.21-1.521-0.63l-1.651-1.65v3.786c0,1.188-0.963,2.151-2.151,2.151c-1.188,0-2.15-0.964-2.15-2.151v-8.088
	l-7.105-7.106v10.02l5.719,5.719c0.841,0.839,0.841,2.2,0,3.04c-0.42,0.421-0.972,0.632-1.521,0.632c-0.551,0-1.1-0.211-1.52-0.632
	l-2.678-2.676v2.335c0,1.187-0.964,2.15-2.151,2.15c-1.188,0-2.15-0.964-2.15-2.15v-2.335l-2.678,2.676
	c-0.419,0.421-0.972,0.632-1.52,0.632c-0.553,0-1.102-0.211-1.521-0.632c-0.841-0.84-0.841-2.201,0-3.04l5.719-5.719v-9.709
	l-6.446,6.447v7.98c0,1.188-0.964,2.151-2.151,2.151c-1.189,0-2.15-0.963-2.15-2.151v-3.68l-2.403,2.402
	c-0.42,0.419-0.969,0.63-1.521,0.63c-0.548,0-1.1-0.211-1.52-0.63c-0.841-0.84-0.841-2.201,0-3.042l2.509-2.508h-3.893
	c-1.188,0-2.151-0.964-2.151-2.15c0-1.188,0.963-2.151,2.151-2.151h8.194l6.226-6.227h-8.987l-5.643,5.643
	c-0.42,0.421-0.973,0.63-1.521,0.63c-0.553,0-1.102-0.209-1.521-0.63c-0.84-0.84-0.84-2.201,0-3.041l2.602-2.602h-3.396
	c-1.188,0-2.15-0.964-2.15-2.15c0-1.188,0.963-2.151,2.15-2.151h3.549l-2.754-2.754c-0.84-0.839-0.84-2.2,0-3.041
	c0.841-0.84,2.201-0.84,3.042,0l5.794,5.795h9.374l-6.759-6.758h-7.979c-1.188,0-2.151-0.963-2.151-2.151
	c0-1.188,0.963-2.15,2.151-2.15h3.678l-2.399-2.401c-0.841-0.841-0.841-2.201,0-3.041c0.841-0.841,2.201-0.841,3.041,0l2.509,2.508
	v-3.894c0-1.187,0.961-2.15,2.15-2.15c1.188,0,2.151,0.964,2.151,2.15v8.195l6.227,6.227v-8.988l-5.643-5.644
	c-0.841-0.84-0.841-2.201,0-3.041c0.839-0.841,2.2-0.841,3.041,0l2.602,2.602V29.8c0-1.188,0.962-2.152,2.15-2.152
	c1.188,0,2.151,0.964,2.151,2.152v3.548l2.753-2.753c0.84-0.841,2.201-0.841,3.042,0c0.839,0.84,0.839,2.201,0,3.041l-5.795,5.795
	v9.147l6.993-6.993v-8.088c0-1.188,0.963-2.15,2.151-2.15c1.187,0,2.15,0.963,2.15,2.15v3.786l1.65-1.65
	c0.841-0.841,2.202-0.841,3.042,0s0.84,2.201,0,3.041l-1.651,1.651h3.786c1.188,0,2.151,0.963,2.151,2.151
	c0,1.187-0.964,2.15-2.151,2.15h-8.088l-7.106,7.106h10.02l5.719-5.719c0.84-0.84,2.201-0.84,3.042,0
	c0.839,0.84,0.839,2.201,0,3.041l-2.678,2.678h2.336c1.188,0,2.149,0.963,2.149,2.151c0,1.187-0.962,2.15-2.149,2.15h-2.336
	L78.282,58.712z"/>
</svg>
