<?xml version="1.0" encoding="utf-8"?>
<!-- Generator: Adobe Illustrator 16.0.0, SVG Export Plug-In . SVG Version: 6.00 Build 0)  -->
<!DOCTYPE svg PUBLIC "-//W3C//DTD SVG 1.1//EN" "http://www.w3.org/Graphics/SVG/1.1/DTD/svg11.dtd">
<svg version="1.1" id="Layer_1" xmlns="http://www.w3.org/2000/svg" xmlns:xlink="http://www.w3.org/1999/xlink" x="0px" y="0px"
	 width="100px" height="100px" viewBox="0 0 100 100" enable-background="new 0 0 100 100" xml:space="preserve">
<path d="M62.79,25.154c-15.115,0-27.409,12.295-27.409,27.409c0,15.113,12.294,27.408,27.409,27.408
	c15.113,0,27.409-12.295,27.409-27.408C90.199,37.449,77.903,25.154,62.79,25.154z M71.863,53.982L56.552,69.291
	c-0.392,0.391-0.903,0.588-1.418,0.588c-0.512,0-1.025-0.197-1.417-0.588c-0.784-0.783-0.784-2.053,0-2.836l13.892-13.893
	L53.716,38.669c-0.784-0.782-0.784-2.051,0-2.834c0.783-0.784,2.052-0.784,2.835,0l15.311,15.309
	C72.646,51.928,72.646,53.197,71.863,53.982z"/>
</svg>
