<?xml version="1.0" encoding="utf-8"?>
<!-- Generator: Adobe Illustrator 16.0.0, SVG Export Plug-In . SVG Version: 6.00 Build 0)  -->
<!DOCTYPE svg PUBLIC "-//W3C//DTD SVG 1.1//EN" "http://www.w3.org/Graphics/SVG/1.1/DTD/svg11.dtd">
<svg version="1.1" id="Layer_1" xmlns="http://www.w3.org/2000/svg" xmlns:xlink="http://www.w3.org/1999/xlink" x="0px" y="0px"
	 width="100px" height="100px" viewBox="0 0 100 100" enable-background="new 0 0 100 100" xml:space="preserve">
<path d="M70.881,24.138c-3.229,0-5.937,2.145-6.858,5.075h-8.64c-1.189,0-2.15,0.962-2.15,2.15l-0.003,9.754
	c-2.928,0.922-5.072,3.632-5.072,6.86s2.145,5.939,5.072,6.86v7.485l-7.108,0.003c-0.921-2.929-3.629-5.074-6.86-5.074
	c-3.983,0-7.224,3.241-7.224,7.225c0,3.982,3.24,7.222,7.224,7.222c3.231,0,5.939-2.144,6.86-5.072l9.262-0.002
	c1.188,0,2.149-0.964,2.149-2.151v-9.637c2.93-0.921,5.073-3.632,5.073-6.86s-2.144-5.938-5.073-6.86l0.002-7.603h6.488
	c0.922,2.928,3.63,5.072,6.858,5.072c3.985,0,7.226-3.24,7.226-7.223C78.106,27.379,74.866,24.138,70.881,24.138z M39.261,67.398
	c-1.611,0-2.922-1.311-2.922-2.92c0-1.612,1.311-2.925,2.922-2.925c1.612,0,2.923,1.313,2.923,2.925
	C42.184,66.087,40.873,67.398,39.261,67.398z M55.382,50.901c-1.612,0-2.923-1.311-2.923-2.923s1.311-2.922,2.923-2.922
	c1.611,0,2.922,1.311,2.922,2.922S56.993,50.901,55.382,50.901z M70.881,34.285c-1.61,0-2.922-1.311-2.922-2.921
	c0-1.611,1.312-2.923,2.922-2.923c1.612,0,2.924,1.312,2.924,2.923C73.805,32.974,72.493,34.285,70.881,34.285z"/>
</svg>
