<?xml version="1.0" encoding="utf-8"?>
<!-- Generator: Adobe Illustrator 16.0.0, SVG Export Plug-In . SVG Version: 6.00 Build 0)  -->
<!DOCTYPE svg PUBLIC "-//W3C//DTD SVG 1.1//EN" "http://www.w3.org/Graphics/SVG/1.1/DTD/svg11.dtd">
<svg version="1.1" id="Layer_1" xmlns="http://www.w3.org/2000/svg" xmlns:xlink="http://www.w3.org/1999/xlink" x="0px" y="0px"
	 width="100px" height="100px" viewBox="0 0 100 100" enable-background="new 0 0 100 100" xml:space="preserve">
<path d="M57.106,25.154c-15.114,0-27.41,12.295-27.41,27.41c0,15.113,12.296,27.408,27.41,27.408
	c15.113,0,27.409-12.295,27.409-27.408C84.515,37.449,72.219,25.154,57.106,25.154z M63.304,47.271c1.462,0,2.646,1.186,2.646,2.646
	s-1.184,2.646-2.646,2.646s-2.646-1.186-2.646-2.646S61.842,47.271,63.304,47.271z M50.908,47.271c1.462,0,2.648,1.186,2.648,2.646
	s-1.186,2.646-2.648,2.646c-1.461,0-2.645-1.186-2.645-2.646S49.447,47.271,50.908,47.271z M70.554,64.218
	c-0.735,0.832-2.001,0.906-2.83,0.176c-2.788-2.463-6.375-3.82-10.1-3.82c-4.196,0-8.107,1.668-11.014,4.697
	c-0.395,0.412-0.923,0.619-1.448,0.619c-0.501,0-0.999-0.188-1.387-0.561c-0.799-0.766-0.826-2.035-0.061-2.834
	c3.672-3.826,8.612-5.932,13.911-5.932c4.705,0,9.234,1.711,12.755,4.822C71.21,62.12,71.288,63.388,70.554,64.218z"/>
</svg>
