<?xml version="1.0" encoding="utf-8"?>
<!-- Generator: Adobe Illustrator 16.0.0, SVG Export Plug-In . SVG Version: 6.00 Build 0)  -->
<!DOCTYPE svg PUBLIC "-//W3C//DTD SVG 1.1//EN" "http://www.w3.org/Graphics/SVG/1.1/DTD/svg11.dtd">
<svg version="1.1" id="Layer_1" xmlns="http://www.w3.org/2000/svg" xmlns:xlink="http://www.w3.org/1999/xlink" x="0px" y="0px"
	 width="100px" height="100px" viewBox="0 0 100 100" enable-background="new 0 0 100 100" xml:space="preserve">
<path d="M56.35,80.273c-6.482,0-12.65-2.514-17.266-6.968c-2.24,1.009-4.678,1.535-7.17,1.535c-9.654,0-17.51-7.854-17.51-17.508
	c0-7.388,4.535-13.81,11.283-16.356c0.744-9.773,8.938-17.496,18.898-17.496c5.793,0,11.22,2.634,14.804,7.117l2.929,0.553
	c0.063,0.011,0.122,0.023,0.182,0.04c4.543,1.151,8.592,3.514,11.809,6.874c0.826-0.119,1.656-0.182,2.49-0.182
	c9.623,0,17.453,7.83,17.453,17.456c0,9.624-7.83,17.454-17.453,17.454c-0.834,0-1.666-0.062-2.49-0.182
	C69.621,77.502,63.172,80.273,56.35,80.273z"/>
</svg>
