<?xml version="1.0" encoding="utf-8"?>
<!-- Generator: Adobe Illustrator 16.0.0, SVG Export Plug-In . SVG Version: 6.00 Build 0)  -->
<!DOCTYPE svg PUBLIC "-//W3C//DTD SVG 1.1//EN" "http://www.w3.org/Graphics/SVG/1.1/DTD/svg11.dtd">
<svg version="1.1" id="Layer_1" xmlns="http://www.w3.org/2000/svg" xmlns:xlink="http://www.w3.org/1999/xlink" x="0px" y="0px"
	 width="100px" height="100px" viewBox="0 0 100 100" enable-background="new 0 0 100 100" xml:space="preserve">
<path d="M75.438,46.166l-0.028-0.103c-0.021-0.178-0.063-0.351-0.123-0.527l-0.059-0.176l-0.043-0.091
	c-0.094-0.204-0.203-0.385-0.329-0.549l-0.033-0.062L55.25,25.086c-0.227-0.228-0.493-0.41-0.828-0.565l-0.233-0.086
	c-0.173-0.059-0.349-0.101-0.534-0.126l-0.135-0.036H40.482c-5.076,0-9.206,4.127-9.206,9.202v38.647
	c0,5.074,4.13,9.202,9.206,9.202h25.763c5.074,0,9.202-4.128,9.202-9.202V46.426L75.438,46.166z M64.866,69.287H40.49
	c-1.188,0-2.151-0.963-2.151-2.15c0-1.188,0.964-2.15,2.151-2.15h24.376c1.189,0,2.151,0.962,2.151,2.15
	C67.017,68.324,66.055,69.287,64.866,69.287z M64.866,63.552H40.49c-1.188,0-2.151-0.963-2.151-2.151s0.964-2.15,2.151-2.15h24.376
	c1.189,0,2.151,0.962,2.151,2.15S66.055,63.552,64.866,63.552z M64.866,57.816H40.49c-1.188,0-2.151-0.963-2.151-2.151
	c0-1.188,0.964-2.15,2.151-2.15h24.376c1.189,0,2.151,0.963,2.151,2.15C67.017,56.853,66.055,57.816,64.866,57.816z"/>
</svg>
