<?xml version="1.0" encoding="utf-8"?>
<!-- Generator: Adobe Illustrator 16.0.0, SVG Export Plug-In . SVG Version: 6.00 Build 0)  -->
<!DOCTYPE svg PUBLIC "-//W3C//DTD SVG 1.1//EN" "http://www.w3.org/Graphics/SVG/1.1/DTD/svg11.dtd">
<svg version="1.1" id="Layer_1" xmlns="http://www.w3.org/2000/svg" xmlns:xlink="http://www.w3.org/1999/xlink" x="0px" y="0px"
	 width="100px" height="100px" viewBox="0 0 100 100" enable-background="new 0 0 100 100" xml:space="preserve">
<g>
	<g>
		<path d="M66.23,74.107H26.085c-2.407,0-4.366-1.958-4.366-4.364V44.56c0-2.406,1.959-4.365,4.366-4.365H66.23
			c2.407,0,4.365,1.959,4.365,4.365v25.184C70.595,72.149,68.637,74.107,66.23,74.107z"/>
	</g>
	<g>
		<path d="M65.598,37.202H26.717c-1.24,0-2.244-1.005-2.244-2.244c0-1.238,1.004-2.244,2.244-2.244h38.881
			c1.239,0,2.244,1.006,2.244,2.244C67.842,36.197,66.837,37.202,65.598,37.202z"/>
	</g>
	<g>
		<path d="M60.026,29.722H32.29c-1.24,0-2.244-1.005-2.244-2.244c0-1.238,1.004-2.244,2.244-2.244h27.736
			c1.239,0,2.244,1.006,2.244,2.244C62.27,28.717,61.265,29.722,60.026,29.722z"/>
	</g>
</g>
</svg>
