<?xml version="1.0" encoding="utf-8"?>
<!-- Generator: Adobe Illustrator 16.0.0, SVG Export Plug-In . SVG Version: 6.00 Build 0)  -->
<!DOCTYPE svg PUBLIC "-//W3C//DTD SVG 1.1//EN" "http://www.w3.org/Graphics/SVG/1.1/DTD/svg11.dtd">
<svg version="1.1" id="Layer_1" xmlns="http://www.w3.org/2000/svg" xmlns:xlink="http://www.w3.org/1999/xlink" x="0px" y="0px"
	 width="100px" height="100px" viewBox="0 0 100 100" enable-background="new 0 0 100 100" xml:space="preserve">
<g>
	<path d="M70.382,37.201c2.793,3.175,4.649,7.184,5.139,11.603h-8.763C66.805,44.512,68.132,40.521,70.382,37.201z"/>
	<path d="M61.946,48.804h-5.245V30.125c3.742,0.387,7.196,1.752,10.105,3.838C63.797,38.158,61.996,43.271,61.946,48.804z"/>
	<path d="M52.365,30.121v18.683h-5.789c-0.468-5.217-2.494-9.989-5.599-13.863C44.127,32.299,48.057,30.563,52.365,30.121z"/>
	<path d="M37.637,38.493c2.206,2.942,3.662,6.472,4.089,10.311h-8.18C33.974,44.965,35.43,41.436,37.637,38.493z"/>
	<path d="M33.507,53.141h8.259c-0.38,3.96-1.862,7.601-4.129,10.624C35.369,60.741,33.888,57.101,33.507,53.141z"/>
	<path d="M46.595,53.141h5.771v18.996c-4.308-0.442-8.236-2.177-11.386-4.817C44.145,63.368,46.181,58.48,46.595,53.141z"/>
	<path d="M56.701,72.141v-19h5.59c0.833,5.151,3.17,9.803,6.566,13.477C65.588,69.644,61.371,71.659,56.701,72.141z"/>
	<path d="M72.03,62.962c-2.414-2.741-4.128-6.108-4.87-9.821h8.396C75.213,56.754,73.967,60.107,72.03,62.962z"/>
</g>
</svg>
