<?xml version="1.0" encoding="utf-8"?>
<!-- Generator: Adobe Illustrator 16.0.0, SVG Export Plug-In . SVG Version: 6.00 Build 0)  -->
<!DOCTYPE svg PUBLIC "-//W3C//DTD SVG 1.1//EN" "http://www.w3.org/Graphics/SVG/1.1/DTD/svg11.dtd">
<svg version="1.1" id="Layer_1" xmlns="http://www.w3.org/2000/svg" xmlns:xlink="http://www.w3.org/1999/xlink" x="0px" y="0px"
	 width="100px" height="100px" viewBox="0 0 100 100" enable-background="new 0 0 100 100" xml:space="preserve">
<g>
	<path d="M50,29.214c-11.136,0-20.197,9.059-20.197,20.195c0,11.136,9.061,20.195,20.197,20.195s20.195-9.06,20.195-20.195
		C70.196,38.273,61.136,29.214,50,29.214z"/>
	<path d="M50,28.682c1.435,0,2.602-1.167,2.602-2.601V12.345c0-1.435-1.167-2.603-2.602-2.603s-2.603,1.168-2.603,2.603v13.736
		C47.397,27.515,48.565,28.682,50,28.682z"/>
	<path d="M50,71.317c-1.435,0-2.603,1.168-2.603,2.603v13.734c0,1.435,1.168,2.603,2.603,2.603s2.602-1.168,2.602-2.603V73.92
		C52.602,72.485,51.436,71.317,50,71.317z"/>
	<path d="M31.247,34.927c0.491,0.492,1.145,0.762,1.841,0.762c0.695,0,1.348-0.27,1.84-0.763c1.016-1.016,1.014-2.666,0-3.68
		l-9.714-9.714c-0.492-0.49-1.145-0.76-1.84-0.76s-1.348,0.27-1.839,0.762c-0.492,0.49-0.764,1.145-0.764,1.84
		c0,0.694,0.272,1.348,0.764,1.841L31.247,34.927z"/>
	<path d="M68.752,65.073c-0.492-0.492-1.145-0.762-1.838-0.762c-0.695,0-1.348,0.27-1.84,0.762
		c-0.493,0.493-0.763,1.146-0.763,1.843c0.001,0.696,0.273,1.348,0.762,1.838l9.713,9.713c0.493,0.491,1.147,0.763,1.841,0.763
		c0.695,0,1.348-0.272,1.84-0.763c0.492-0.49,0.762-1.145,0.762-1.84s-0.269-1.348-0.762-1.841L68.752,65.073z"/>
	<path d="M28.683,50.001c0-1.435-1.168-2.603-2.603-2.603H12.346c-1.435,0-2.604,1.168-2.604,2.603c0,1.434,1.169,2.602,2.604,2.602
		H26.08C27.515,52.603,28.683,51.435,28.683,50.001z"/>
	<path d="M87.656,47.398H73.919c-1.435,0-2.603,1.168-2.603,2.603c0,1.434,1.168,2.602,2.603,2.602h13.736
		c1.435,0,2.603-1.168,2.603-2.602C90.259,48.566,89.091,47.398,87.656,47.398z"/>
	<path d="M33.087,64.312c-0.694,0-1.348,0.27-1.841,0.762l-9.713,9.713c-0.492,0.493-0.762,1.146-0.762,1.843
		c0.001,0.696,0.273,1.348,0.762,1.838c0.493,0.491,1.146,0.763,1.841,0.763c0.695,0,1.348-0.272,1.841-0.763l9.711-9.713
		c0.492-0.49,0.762-1.145,0.762-1.839c0-0.695-0.269-1.348-0.762-1.841C34.436,64.582,33.782,64.312,33.087,64.312z"/>
	<path d="M66.914,35.688c0.698,0,1.353-0.272,1.841-0.762l9.713-9.713c0.492-0.493,0.763-1.147,0.763-1.843
		c-0.001-0.696-0.273-1.348-0.763-1.838c-0.492-0.492-1.145-0.762-1.84-0.762c-0.694,0-1.348,0.27-1.839,0.762l-9.713,9.711
		c-0.491,0.492-0.763,1.144-0.763,1.84s0.272,1.35,0.762,1.841C65.564,35.417,66.217,35.688,66.914,35.688z"/>
</g>
</svg>
