<?xml version="1.0" encoding="utf-8"?>
<!-- Generator: Adobe Illustrator 16.0.0, SVG Export Plug-In . SVG Version: 6.00 Build 0)  -->
<!DOCTYPE svg PUBLIC "-//W3C//DTD SVG 1.1//EN" "http://www.w3.org/Graphics/SVG/1.1/DTD/svg11.dtd">
<svg version="1.1" id="Layer_1" xmlns="http://www.w3.org/2000/svg" xmlns:xlink="http://www.w3.org/1999/xlink" x="0px" y="0px"
	 width="100px" height="100px" viewBox="0 0 100 100" enable-background="new 0 0 100 100" xml:space="preserve">
<path d="M74.142,22.175h-0.67c-0.989,0-1.873,0.623-2.207,1.554c-0.51,1.421-1.853,2.378-3.343,2.378
	c-1.491,0-2.835-0.957-3.343-2.378c-0.335-0.931-1.217-1.554-2.209-1.554h-0.732c-0.99,0-1.873,0.623-2.207,1.554
	c-0.509,1.421-1.852,2.378-3.342,2.378c-1.492,0-2.836-0.957-3.344-2.378c-0.334-0.931-1.219-1.554-2.208-1.554h-0.733
	c-0.99,0-1.874,0.623-2.207,1.554c-0.51,1.421-1.854,2.378-3.344,2.378s-2.834-0.957-3.344-2.378
	c-0.332-0.931-1.217-1.554-2.207-1.554H37.97c-0.99,0-1.873,0.623-2.208,1.554c-0.509,1.421-1.853,2.378-3.344,2.378
	c-1.489,0-2.833-0.957-3.342-2.378c-0.335-0.931-1.217-1.554-2.208-1.554h-0.67c-1.295,0-2.346,1.05-2.346,2.345v47.944
	c0,1.293,1.051,2.344,2.346,2.344h47.943c1.297,0,2.346-1.051,2.346-2.344V24.52C76.487,23.225,75.438,22.175,74.142,22.175z
	 M67.106,58.652H33.233c-1.295,0-2.346-1.05-2.346-2.345s1.051-2.346,2.346-2.346h33.873c1.297,0,2.346,1.051,2.346,2.346
	S68.403,58.652,67.106,58.652z M67.106,50.835H33.233c-1.295,0-2.346-1.05-2.346-2.344c0-1.295,1.051-2.346,2.346-2.346h33.873
	c1.297,0,2.346,1.051,2.346,2.346C69.452,49.785,68.403,50.835,67.106,50.835z M67.106,43.019H33.233
	c-1.295,0-2.346-1.051-2.346-2.345c0-1.295,1.051-2.345,2.346-2.345h33.873c1.297,0,2.346,1.05,2.346,2.345
	C69.452,41.968,68.403,43.019,67.106,43.019z"/>
</svg>
