<?xml version="1.0" encoding="utf-8"?>
<!-- Generator: Adobe Illustrator 16.0.0, SVG Export Plug-In . SVG Version: 6.00 Build 0)  -->
<!DOCTYPE svg PUBLIC "-//W3C//DTD SVG 1.1//EN" "http://www.w3.org/Graphics/SVG/1.1/DTD/svg11.dtd">
<svg version="1.1" id="Layer_1" xmlns="http://www.w3.org/2000/svg" xmlns:xlink="http://www.w3.org/1999/xlink" x="0px" y="0px"
	 width="100px" height="100px" viewBox="0 0 100 100" enable-background="new 0 0 100 100" xml:space="preserve">
<g>
	<path d="M76.158,57.541c0-0.122-0.045-0.229-0.064-0.347c-0.009-0.048-0.015-0.097-0.026-0.144
		c-0.052-0.217-0.133-0.415-0.245-0.601c-0.028-0.047-0.054-0.095-0.084-0.141c-0.04-0.058-0.062-0.127-0.109-0.181l-8.948-14.094
		c-0.394-0.622-1.079-0.999-1.814-0.999h-0.012l5.005-5.005c0.84-0.841,0.84-2.202,0-3.042l-9.825-9.828
		c-0.403-0.402-0.951-0.629-1.521-0.629c-0.57,0-1.118,0.227-1.521,0.629L39.594,40.559c-0.84,0.841-0.84,2.202,0,3.042l1.337,1.338
		l-7.269,11.449c-0.013,0.019-0.017,0.04-0.028,0.058c-0.073,0.126-0.134,0.259-0.183,0.399c-0.017,0.046-0.03,0.091-0.044,0.139
		c-0.033,0.13-0.056,0.263-0.065,0.401c-0.003,0.039-0.01,0.077-0.011,0.117c-0.003,0.014-0.005,0.025-0.005,0.025v19.832
		c0,1.188,0.963,2.151,2.15,2.151h38.501c1.189,0,2.151-0.963,2.151-2.151V57.825C76.142,57.731,76.158,57.639,76.158,57.541z
		 M44.047,48.054l4.751,4.751h-3.749c-0.397,0-0.716,0.32-0.716,0.717c0,0.397,0.318,0.717,0.716,0.717h19.357
		c0.396,0,0.718-0.319,0.718-0.717c0-0.396-0.322-0.717-0.718-0.717h-11.32l7.466-7.467h3.133l6.38,10.052H39.39L44.047,48.054z
		 M71.828,75.209H37.629V59.691h34.199V75.209z"/>
</g>
</svg>
