<?xml version="1.0" encoding="utf-8"?>
<!-- Generator: Adobe Illustrator 16.0.0, SVG Export Plug-In . SVG Version: 6.00 Build 0)  -->
<!DOCTYPE svg PUBLIC "-//W3C//DTD SVG 1.1//EN" "http://www.w3.org/Graphics/SVG/1.1/DTD/svg11.dtd">
<svg version="1.1" id="Layer_1" xmlns="http://www.w3.org/2000/svg" xmlns:xlink="http://www.w3.org/1999/xlink" x="0px" y="0px"
	 width="100px" height="100px" viewBox="0 0 100 100" enable-background="new 0 0 100 100" xml:space="preserve">
<g>
	<path d="M61.226,49.026c0-0.885,0.046-1.791,0.116-2.745H61.25c-0.478,0.954-0.862,1.814-1.361,2.745l-1.973,3.221v0.045h3.31
		V49.026z"/>
	<path d="M52.965,21.733c-16.148,0-29.289,13.14-29.289,29.288S36.816,80.31,52.965,80.31s29.286-13.14,29.286-29.288
		S69.113,21.733,52.965,21.733z M76.215,52.297c-0.373,0.432-0.901,0.697-1.472,0.739c-0.052,0.004-0.104,0.007-0.156,0.007
		c-0.013,0-0.024-0.007-0.035-0.007c-0.04,0.002-0.077,0.012-0.118,0.012c-0.772,0-1.443-0.41-1.822-1.022l-3.907-3.373
		c-0.658-0.569-0.909-1.477-0.636-2.304c0.274-0.825,1.019-1.405,1.885-1.469l1.358-0.099c-2.588-7.985-10.088-13.779-18.924-13.779
		c-10.97,0-19.895,8.925-19.895,19.896c0,10.97,8.925,19.895,19.895,19.895c6.351,0,12.373-3.073,16.112-8.221
		c0.697-0.958,2.042-1.175,3.004-0.476c0.961,0.698,1.174,2.043,0.477,3.004c-4.546,6.259-11.869,9.994-19.593,9.994
		c-13.342,0-24.197-10.854-24.197-24.196c0-13.343,10.855-24.197,24.197-24.197c11.109,0,20.473,7.537,23.302,17.76l2.606-0.19
		c0.856-0.074,1.688,0.4,2.078,1.179c0.393,0.777,0.274,1.715-0.294,2.372L76.215,52.297z M54.695,54.876v-2.242l5.578-8.983h4.218
		v8.642h1.771v2.584h-1.771v3.517h-3.266v-3.517H54.695z M46.84,46.168c-1.27,0-2.38,0.635-3.151,1.226l-0.976-2.473
		c1.112-0.837,2.836-1.521,4.831-1.521c3.334,0,5.171,1.951,5.171,4.627c0,2.473-1.791,4.446-3.923,6.351l-1.361,1.135v0.044h5.557
		v2.836H42.532v-2.088l1.904-1.722c3.222-2.881,4.787-4.537,4.831-6.26C49.268,47.121,48.543,46.168,46.84,46.168z"/>
</g>
</svg>
