<?xml version="1.0" encoding="utf-8"?>
<!-- Generator: Adobe Illustrator 16.0.0, SVG Export Plug-In . SVG Version: 6.00 Build 0)  -->
<!DOCTYPE svg PUBLIC "-//W3C//DTD SVG 1.1//EN" "http://www.w3.org/Graphics/SVG/1.1/DTD/svg11.dtd">
<svg version="1.1" id="Layer_1" xmlns="http://www.w3.org/2000/svg" xmlns:xlink="http://www.w3.org/1999/xlink" x="0px" y="0px"
	 width="100px" height="100px" viewBox="0 0 100 100" enable-background="new 0 0 100 100" xml:space="preserve">
<path d="M73.354,46.166l-0.027-0.103c-0.023-0.178-0.064-0.351-0.125-0.527l-0.059-0.176l-0.042-0.091
	c-0.095-0.204-0.204-0.385-0.331-0.549l-0.03-0.062L53.167,25.086c-0.228-0.228-0.494-0.41-0.829-0.565l-0.232-0.086
	c-0.173-0.059-0.35-0.101-0.536-0.126l-0.134-0.036H38.396c-5.075,0-9.204,4.127-9.204,9.202v38.647
	c0,5.074,4.129,9.202,9.204,9.202h25.765c5.073,0,9.2-4.128,9.2-9.202V46.426L73.354,46.166z M47.63,64.633
	c0.84,0.84,0.84,2.201,0,3.041c-0.421,0.42-0.969,0.63-1.521,0.63c-0.549,0-1.101-0.21-1.521-0.63l-5.557-5.556
	c-0.84-0.84-0.84-2.202,0-3.041l5.924-5.922c0.84-0.841,2.201-0.841,3.041,0c0.841,0.839,0.841,2.201,0,3.041l-4.402,4.401
	L47.63,64.633z M63.522,61.752L57.6,67.674c-0.42,0.42-0.969,0.63-1.521,0.63c-0.548,0-1.1-0.21-1.52-0.63
	c-0.841-0.84-0.841-2.201,0-3.041l4.401-4.401l-4.035-4.036c-0.84-0.84-0.84-2.202,0-3.041c0.841-0.841,2.202-0.841,3.042,0
	l5.556,5.556C64.363,59.551,64.363,60.913,63.522,61.752z"/>
</svg>
