<?xml version="1.0" encoding="utf-8"?>
<!-- Generator: Adobe Illustrator 16.0.0, SVG Export Plug-In . SVG Version: 6.00 Build 0)  -->
<!DOCTYPE svg PUBLIC "-//W3C//DTD SVG 1.1//EN" "http://www.w3.org/Graphics/SVG/1.1/DTD/svg11.dtd">
<svg version="1.1" id="Layer_1" xmlns="http://www.w3.org/2000/svg" xmlns:xlink="http://www.w3.org/1999/xlink" x="0px" y="0px"
	 width="100px" height="100px" viewBox="0 0 100 100" enable-background="new 0 0 100 100" xml:space="preserve">
<g>
	<path d="M69.808,43.449V26.67c0-1.188-0.965-2.151-2.152-2.151H39.007c-1.188,0-2.15,0.963-2.15,2.151v16.779
		c0,8.353,6.254,15.258,14.323,16.317v12.84H39.007c-1.188,0-2.15,0.963-2.15,2.15s0.962,2.151,2.15,2.151h28.648
		c1.188,0,2.152-0.964,2.152-2.151s-0.965-2.15-2.152-2.15H55.481v-12.84C63.55,58.707,69.808,51.802,69.808,43.449z M65.504,28.82
		v12.478H41.158V28.82H65.504z"/>
</g>
</svg>
