<?xml version="1.0" encoding="utf-8"?>
<!-- Generator: Adobe Illustrator 16.0.0, SVG Export Plug-In . SVG Version: 6.00 Build 0)  -->
<!DOCTYPE svg PUBLIC "-//W3C//DTD SVG 1.1//EN" "http://www.w3.org/Graphics/SVG/1.1/DTD/svg11.dtd">
<svg version="1.1" id="Layer_1" xmlns="http://www.w3.org/2000/svg" xmlns:xlink="http://www.w3.org/1999/xlink" x="0px" y="0px"
	 width="100px" height="100px" viewBox="0 0 100 100" enable-background="new 0 0 100 100" xml:space="preserve">
<path d="M71.885,20.593H27.752c-2.408,0-4.366,1.957-4.366,4.363v44.135c0,2.406,1.958,4.364,4.366,4.364h44.133
	c2.408,0,4.365-1.958,4.365-4.364V24.956C76.25,22.55,74.293,20.593,71.885,20.593z M48.656,60.441H35.85v-4.123l7.129-6.403
	c0.363-0.328,0.725-0.7,1.089-1.113c0.364-0.417,0.545-0.898,0.545-1.453c0-0.622-0.226-1.111-0.675-1.465
	c-0.45-0.355-0.977-0.532-1.581-0.532c-0.726,0-1.292,0.226-1.698,0.675s-0.637,1.002-0.686,1.658l-3.892-0.285
	c0.053-0.949,0.251-1.775,0.598-2.475c0.345-0.701,0.804-1.285,1.374-1.752c0.569-0.466,1.24-0.816,2.01-1.047
	c0.769-0.236,1.602-0.352,2.502-0.352c0.83,0,1.606,0.115,2.332,0.352c0.727,0.23,1.356,0.576,1.893,1.035
	c0.537,0.457,0.956,1.033,1.257,1.723c0.304,0.693,0.454,1.496,0.454,2.412c0,0.59-0.06,1.118-0.181,1.596
	c-0.122,0.475-0.29,0.908-0.506,1.297c-0.216,0.387-0.472,0.748-0.765,1.074c-0.295,0.329-0.613,0.647-0.958,0.961l-5.575,4.796
	h8.141V60.441z M63.422,57.667c-0.354,0.692-0.83,1.266-1.426,1.725c-0.596,0.457-1.297,0.799-2.102,1.025
	c-0.803,0.223-1.653,0.334-2.552,0.334c-1.644,0-3.056-0.379-4.239-1.139c-1.186-0.762-1.966-1.963-2.348-3.604l4.098-0.96
	c0.139,0.657,0.419,1.175,0.842,1.555c0.423,0.382,1.05,0.571,1.88,0.571c0.847,0,1.474-0.221,1.88-0.662
	c0.404-0.441,0.609-1.007,0.609-1.696c0-0.519-0.107-0.922-0.324-1.207c-0.217-0.284-0.496-0.497-0.843-0.636
	c-0.347-0.137-0.735-0.219-1.167-0.246c-0.432-0.025-0.864-0.039-1.295-0.039h-0.909v-3.37h1.271c0.362,0,0.716-0.026,1.063-0.075
	c0.345-0.055,0.66-0.152,0.945-0.302c0.285-0.145,0.516-0.354,0.688-0.622c0.173-0.268,0.258-0.615,0.258-1.048
	c0-0.554-0.219-1.013-0.66-1.376c-0.439-0.363-0.98-0.544-1.619-0.544c-0.606,0-1.107,0.163-1.505,0.494
	c-0.397,0.329-0.657,0.733-0.777,1.217l-4.278-0.88c0.208-0.796,0.518-1.475,0.934-2.036c0.414-0.562,0.908-1.016,1.478-1.36
	c0.569-0.346,1.206-0.602,1.905-0.768c0.699-0.162,1.44-0.244,2.218-0.244c0.813,0,1.593,0.1,2.347,0.297
	c0.751,0.199,1.412,0.512,1.982,0.934c0.571,0.424,1.024,0.956,1.36,1.594c0.339,0.641,0.507,1.402,0.507,2.283
	c0,1.021-0.269,1.892-0.803,2.617c-0.537,0.729-1.314,1.194-2.334,1.402v0.076c0.553,0.07,1.04,0.232,1.464,0.493
	c0.424,0.259,0.783,0.58,1.075,0.96c0.295,0.38,0.521,0.813,0.676,1.295c0.154,0.484,0.233,0.996,0.233,1.529
	C63.954,56.173,63.775,56.978,63.422,57.667z M71.762,29.069H27.875v-3.988h43.887V29.069z"/>
</svg>
